<?xml version="1.0" encoding="utf-8"?>
<!-- Generator: Adobe Illustrator 24.1.2, SVG Export Plug-In . SVG Version: 6.00 Build 0)  -->
<svg version="1.1" id="Layer_1" xmlns="http://www.w3.org/2000/svg" xmlns:xlink="http://www.w3.org/1999/xlink" x="0px" y="0px"
	 viewBox="0 0 256 256" style="enable-background:new 0 0 256 256;" xml:space="preserve">
<style type="text/css">
	.st0{fill:#FFFFFF;}
</style>
<g id="run1">
	<g transform="matrix( 0.6996917724609375, 0, 0, 0.6996917724609375, 57.25,20.7) ">
		<g id="run">
			<g transform="matrix( 1, 0, 0, 1, 0,0) ">
				<g>
					<g id="run_0_Layer0_0_FILL">
						<path class="st0" d="M106.3-1.6L106.3-1.6l-6,3.1c-2.4,1.4-4.5,2.8-6.3,4.1c-1.7,1.2-3.5,2.8-5.6,4.6c-1.7,1.7-3.3,3.3-4.7,5
							l-1.1,1.3l-0.1,0.1l-0.2,0.1l-4.2,6.3l-0.2,0.3l-0.2,0.3l-0.7,1c-1.5,2.5-2.7,4.8-3.8,6.8c-1,2.3-1.8,4.3-2.4,6.1L69,44.2v0.2
							L69,44.5c-0.6,2.9-1,5.1-1.2,6.5c-0.3,2.2-0.5,4.3-0.6,6.2l0-0.8l-0.3,5.7l0,0.4V69c0,1.8,0.2,4.9,0.4,9.3
							c0.1,2.2,0.4,5.6,0.8,10.1l0.5,5.7v0.1l0.1,0.2l0.1,3.4c0,1.5-0.1,2.9-0.3,4.3l-0.5,4.1c-0.4,2.6-0.9,5-1.5,7.1l-0.6,2.8
							c-0.1,0.4-0.2,1-0.5,2l0.4-1.2l-1.1,4.3c-0.1,0.5-0.4,1.3-0.8,2.6l-2,5.6c0.2-0.2,0.2,0,0.1,0.7l-2.1,7.8l-0.1-0.1l-2.8,8.3
							c-1.3,3.9-2.5,7.3-3.6,10.1l-0.2-0.3l-0.8,2.1l-0.4,0.4l-2.9,3.4l-0.1,0.1l-0.1,0.1l-1.2,1.4c-0.1,0.1-0.1,0.2-0.2,0.3
							l-5.2,7.7c-1.6,2.7-2.8,5.1-3.8,7.2c-1.3,2.7-2.5,5.6-3.5,8.6l-2.4,9.1l-0.8,6.8l0,1.2l0,0.3l-0.2,5.3l-0.4,0.6l-0.3,0.7
							l-0.2-0.2l-0.9,3.7c0,0.1-0.1,0.1-0.1,0l0.6-2.3l-0.3,0.8c0,0.1-0.1,0.1-0.1,0l0.1-0.9l-0.6,1.9c0,0.1,0,0.1,0.1,0
							c0.1-0.2,0.2-0.4,0.2-0.5l-0.3,1.6c-0.1,0.7-0.3,1.2-0.5,1.7l0,0.3l-0.3,0.5c0,0.1-0.1,0.1-0.2,0.1l-0.2,0.2l-2.9,7.6
							l-0.2,0.5l-0.2,0.4c-1.2,2.6-2.3,5.1-3.5,7.4l-8.3,14.4c-0.1,0.1-0.1,0.1-0.1-0.1c0.1-0.1,0.1-0.3,0.2-0.3l-5.1,8
							c-0.2,0.2-0.4,0.4-0.7,0.6L7,256.8c0,0-0.1,0.2-0.3,0.5l-9.9,14.6l0.3,0.4c-0.7,1-1.1,1.6-1.4,1.8c-0.3,0.1-0.7,0.7-1.2,1.7
							c0,0.5-0.5,1.5-1.5,3c-1,1.5-1.6,2.5-1.6,2.8l-0.5,0.6c-0.3,0.5-0.5,0.6-0.6,0.5c0.1,0.4-0.3,1.2-1.2,2.5c0,0.2,0,0.2,0.1,0
							c0.2-0.2,0.3-0.4,0.3-0.4l-1.1,2.2c-0.3,0.4-0.5,0.6-0.5,0.6c-0.1,0-0.1-0.2,0.1-0.6l-2.7,5.4l-1.3,3.3l-0.1,0.3l-0.3,0.8
							l-0.1,0.6l-0.1,0.3l-0.2,1.6v1.4l0,0.4v0.9l0.9,8.5l0.4,1.6v0l0.1,0.2l0,0.1l2.2,7.4l0.1,0.4l0.1,0.2v0l0.1,0.3l0,0.1l0.1,0.1
							l0.1,0.1v0.1h0.1v0l0.4,1l0.1,0.1v0l0.1,0.1l0.1,0.3l0.2,0.3l0.1,0.2l0.4,0.7l0.2,0.3l0.4,0.6l0.1,0.1l0,0.1l1.1,1.4
							c0.8,0.8,1.7,1.7,2.8,2.5c0.2,0.2,1,0.8,2.4,1.8l1.5,1l0.2,0h0l0.1,0.1l0.2,0.1l1.6,0.8l-0.1-0.1l-0.1,0L-1,332l-1.4-0.9
							l0-0.1h0l0,0h-0.1l-1.2-1l-0.2-0.4l1.6,1l0.2,0l0,0.1h0v0l0.2,0.1l0.3,0.2l0.1,0.1l0.1,0l0.1,0.1l0.7,0.3l0.1,0v0.1l0.7,0.6
							l3.2,1.6c0.7,0.3,1.1,0.6,1.3,0.8l0.7-0.1l0.9,0.5l4.2,0.8l0.5,0.1h0.3l2.1,0.4h0.4l0.4,0.1h0.3l0.3,0l1.3,0.1c1,0,2,0,3-0.1
							l1-0.1h0.3l4.9-0.9h-0.4c-0.1,0-0.1-0.1-0.1-0.1c0.1-0.1,0.3-0.2,0.6-0.3c0,0.1,0.3,0.1,0.6,0l0.7-0.3h0l0.1,0h0.1l0,0
							l0.1-0.1l0.1,0l0.3-0.1l0.4-0.2H28l0-0.1l0.2-0.1l0.6-0.3l2.6-1.9l0.7-0.9l1.3-2l0-0.2l0.2-0.3l0.6-2.3v-0.4
							c0-0.1,0-0.2,0-0.2c-0.1,0-0.1,0.1-0.3,0.3l0.3-0.8l0-0.4l0.1-0.4l0-0.4l0.1-0.4l0.2-1c0,0,0.1,0,0.1,0.1v0.3l0.1,0.4l0-2
							c0-0.6-0.1-1.1-0.2-1.5v1.2l0,0.2v-0.2l-0.2-2v-0.3c0,0,0,0.1,0.1,0.1v0l0-0.1v-0.1h0v-0.1l0-0.1v-0.2l0-0.1V318l0.1-0.2v-0.1
							l0-0.2l-0.3,0.3l0,0v0.1h-0.1l-0.1,0.1c0.2-0.6,0.4-1,0.7-1.4l0.2-0.3l0.3-0.4l0.2-0.1l0.3-0.1l-0.2,0.3l-0.2,0.5l-0.1,0.1
							l-0.1,0.3l0.8-1.3l2.7-3.8l-0.5,0.6c0.5-0.9,1.4-2,2.6-3.4l3.6-3.6c0.3-0.3,0.7-0.7,1.3-1.3l1.3-1.2h0v-0.1h0.1v0l4-3.9
							c1-1,1.6-1.7,2-2l1.2-1.4l-1.3,0.7l1.8-2c-0.1,0.1-0.1,0.4-0.2,0.9c-0.1,0.4-0.1,0.7-0.2,0.8l5.8-5.6c2.9-2.9,5.8-5.9,8.7-9.1
							c2.7-2.9,5.6-5.9,8.5-9.1l4.4-4.8l0.2-0.1l0-0.1h0.1l0.1-0.1l0.1-0.1l0.2-0.3l0.8-0.8l0.3-0.1c0.1,0,0.2,0,0.2,0.1l-0.2,0.5v0
							l0.3-0.5l0.2-0.3l0.1-0.1l0.1-0.1l0-0.1l0.2-0.4l0.3-0.3l0.1-0.2l0.3-0.2c0.3-0.2,0.3-0.1,0,0.5l1-1c0.1-0.1,0.1-0.2,0.1-0.2
							l-0.3,0.2l-0.3,0c-0.1,0.1-0.2,0.1-0.3,0c-0.2-0.1-0.4-0.2-0.6-0.1l1.9-1.6l0.1,0.3c0.1,0,0.2-0.2,0.3-0.4l0.2-0.3l0-0.1
							l0.1-0.1l0.2-0.2c0.1-0.2,0.4-0.5,0.8-0.8l0.5-0.5l0.5-0.3l5.6-3.2c0.3,0.2,0.5,0.3,0.5,0.4c0.2,0,0.2,0,0-0.1l-0.4-0.3
							l2.1,0.6l0.2,0.1l0.3,0l0.9,0.4c0.6,0.2,0.9,0.4,0.9,0.5c0.1,0.1,0.2,0.1,0.3,0.1l0.9,0.4l7.5,1.6l5.6,0.5c0.2,0,0.5,0,1,0
							c0.2,0,0.5,0,0.9,0l1.1,0.1c0.1,0-0.3,0.7-1.2,2.1c-1.2,2-2.2,3.8-2.9,5.5c-0.5,1.2-1,2.3-1.3,3.3l-1,3.3
							c-0.2,1-0.4,2-0.4,2.8l-0.2,1.3l0.5,0.4l0.1,3.2l0,0.4v0.3l0.1,0.6l0.3,1c0.3,0.8,0.6,1.4,0.9,1.8l0.3,0.5l0.4,0.3l0,0.1h0.1
							c0,0,0,0.1,0,0.1h0.1l1.4,1.7l0,0.1l0.1,0.1l1.5,1.9l0.1,0.1l0.7,0.6l0.5,0.6c0.4,0.4,0.5,0.6,0.3,0.6c0.2,0,0.5,0.3,1,0.7
							l1,1.1c0.1,0,0.2,0,0.1-0.1l-0.3-0.5l1.8,1.5c0.3,0.3,0.4,0.6,0.4,0.6c0,0.1-0.2,0-0.6-0.3l0.5,0.4l5.7,4.6l0.7,0.4l0.1,0.1v0
							l0.1,0.1l4.1,2.6c1.9,1.1,3.9,2.1,5.8,2.9c1.8,0.8,3.8,1.5,6,2.3c2.2,0.7,4.1,1.2,5.6,1.5l2.9,0.7h0.1l0.6,0.1l0.3,0.1
							l3.1,0.4c0.9,0.1,1.5,0.1,1.8,0.1c-0.9-0.2-1.7-0.3-2.2-0.4c-0.9-0.1-1.5-0.3-1.9-0.6l2.2,0.2c0.7,0.1,1.2,0.1,1.5,0
							c0.2,0.2,0.6,0.3,1.1,0.4c0.6,0.1,1.2,0.1,1.9,0l0.9,0l3.8-0.7l0.8-0.8l1.8-0.9l1.2-1.1l0.9-1.2c0.5-0.7,0.9-1.4,1.1-2.2
							l0.1-0.3l0.1-0.2l0.1-0.2l0.3-1.1v-0.1l0.1-0.3l0.1-1.3v-0.5l0.1-0.1l-0.1-3.3l-0.3-1.5l-0.1-0.1v0l-0.1-0.5v-0.2l-0.1-0.3
							l-0.1-0.5v-0.2l-0.1-0.1l-0.1-0.3v-0.3l-0.1-0.1v-0.1c-0.1-0.8,0-1.5,0.2-2l-0.1,0.2l-0.1,0.1c0,0.1-0.1,0.1-0.1,0v-0.3
							l0.1-0.3v-0.1l0.1-0.1l0.1-0.4v-0.2l0.1-0.1l0-0.4c0.1-0.2,0.2-0.3,0.3-0.4l0.4-1.1l0.1-0.5c0.2-0.6,0.1-0.8-0.2-0.6l0.8-1
							l0.3-0.3v0.1l-0.1,0.3c0.5-1.1,0.8-1.7,0.8-1.8l-0.5,0.8l1.1-2.1l0.4-0.6c0.4-0.7,0.8-1.4,1.1-2.2l-0.7,0.7
							c0.9-1.6,1.7-2.5,2.2-2.7l-0.8,1.4l0.3-0.4l3.3-5.1l-0.5,0.7c0.5-1,2.4-4,5.9-9l4.8-6.8l0.1-0.1v0h0.1c0,0,0-0.1,0.1-0.1
							l0.9-1.2v0h0.1v-0.1l0.3-0.6l-1.1,1.1l-0.2,0.1v0l-0.1,0.1l0.1-0.1l0.4-0.6l0.1-0.1v0l0-0.1l1-1.9l0,0.4l0,1.3
							c0,0.1,0,0.1,0,0.2l1.5-2.3l0.1-0.3l0.2-0.3c0.5-0.9,1.2-2.3,2-4.3c0.7-1.5,1.4-3.2,2.1-5.2l0.7-1.7l0-0.2l0.1-0.2v-0.1
							l0.1-0.3l0.4-1.2v-0.1l0.1-0.1v-0.1l0.6-2.8c0.2-1.6,0.2-2.9,0.2-3.9c0-1.3-0.2-2.5-0.6-3.8c-0.2-1-0.6-2.1-1.1-3.4
							c-0.3-0.9-0.8-1.9-1.4-2.9l-1.9-2.9l-0.1-0.1l-0.1-0.1l-2.9-3.5c-0.4-0.5-0.6-0.8-0.6-0.8c-0.1-0.2,0-0.2,0.1-0.1
							c0.2,0,0.4,0.1,0.6,0.3l-0.1-0.2l-0.2-0.1l-0.3-0.3l-1.2-0.7c0.7-0.9,1.3-1.7,1.9-2.7c0.7-1.1,1.4-2.1,1.9-3.1l1.1-2.3
							l0.1,0.1l1.1-2.8c0.5-1.6,0.8-2.8,1-3.7l0.3-1.4v-0.3l0-0.3l-0.1-4.6l-0.1-0.2V195l-0.1-0.4l0.1-0.3v-0.2l0.1-0.2l-0.1-1
							c0,0.1-0.1,0.2-0.1,0.2c-0.1,0-0.1-0.1-0.2-0.2v-0.3l-0.1-0.4c0-0.1,0-0.2-0.1-0.2l-0.1-0.1l-0.1-0.3l-0.4-1.3l-0.1-0.6
							l-0.2-0.5v-0.1l-0.8-3.2l-1.4-3.5l-0.9-1.8c-0.2-0.1-0.4-0.3-0.6-0.6l-0.9-0.9v-0.1h-0.1l-0.4-0.4h-0.1v0l-0.1-0.1l-0.1-0.1
							l-0.3-0.2h0.1c-0.1-0.1-0.4-0.3-0.9-0.8l-1.4-1.4c-1.1-1.2-1.9-1.9-2.4-2.2l0.1,0.1c-0.2-0.1-0.4-0.3-0.6-0.5
							c-0.1-0.3-0.2-0.5-0.3-0.6c-0.1,0.2-0.3,0.2-0.6,0.2l-0.3-0.1l-0.2-0.1l0.1-0.1l-0.8-0.4c-0.5-0.2-0.9-0.4-1-0.5l0.1-0.1
							c-0.2,0-0.5-0.2-0.9-0.6l-0.8-0.6l-1.2-1.1l-0.4-0.4l2.1-10c0.3-1.9,0.4-3,0.4-3.4l0.1-0.2v-0.3l0.1-1.4l0-0.2l0.1-1.8
							c0.1-1.2,0.1-2.4,0-3.6l-1.1-30.8c0.1-2.3,0.5-4.3,1.1-5.9c0.3-0.9,0.7-1.6,1.1-2.2l1.1-1.5h0.1l0.1-0.1l0.1,0l0.1-0.1
							l0.2-0.2l0-0.1c0,0.1-0.1,0.1-0.1,0.2l0.3-0.3l0.6-0.5l1-0.6c0.8-0.4,1.6-0.8,2.4-1l1.3-0.4h0.2l0.3-0.1h0.1l0.1,0l0.7-0.1
							l0.3-0.1h0.1l0.4,0l0.2-0.1h0.2l9.8-0.8c0.4,0,0.6,0,0.8-0.1c0.3,0,0.6,0,0.8,0l3-0.2c1.3-0.1,2.2-0.3,2.9-0.3l2.7-0.4
							l0.3-0.1l0.7-0.1l0.1-0.1h0.1l0.2,0l0.4-0.1l0.1-0.1h0l0.2,0l0.4-0.1l0.1-0.1l1.6-0.5h0.2l-0.2,0.1c1-0.3,2.1-0.8,3.2-1.3
							c1.1-0.5,2.2-1.2,3.3-1.9l2.8-2.4L226,96l0.1-0.1l0.2-0.1l0.5-0.6l0.1-0.1h0L227,95l0.6-0.8l1.4-2.1c0.7-1.2,1.3-2.6,1.9-4.3
							l0.1-0.3l0.1-0.3l0.1-0.6l0.7-4.1v-0.5l0-0.2v-1.8l0-0.3l-0.1-1.3l-0.6-3.3l-1.1-3.9l-1-2.1L229,69l-0.9-1.6v-0.1l-0.1,0
							l0-0.1l-0.3-0.4l-0.1-0.2l-0.1-0.1l-0.1-0.1l-0.2-0.3l-0.3-0.5c-0.5-0.9-1.4-2-2.5-3.5l-9.5-11.6l-0.1-0.1l0,0l-0.1-0.2
							l-0.1-0.1v0l-0.1-0.2l-1.1-1.9c-0.4-0.8-0.9-1.8-1.3-3l-2.7-8.6l-0.1-0.2l-0.3-1.1l-0.1-0.1v-0.1l-0.8-3.1l-0.1-0.3l-0.1-0.5
							l-3.5-10.4l-0.4-0.9c-0.9-2.3-2.1-4.6-3.4-6.9l-0.1-0.2l-0.1-0.1l0-0.2l-1.5-2.3l0-0.1L199,9.9l-0.2-0.3L197,7.1l-0.4-0.3
							l-0.3-0.4c-1-1.1-1.9-2-2.8-2.6c-1-0.9-1.9-1.6-2.8-2.2c-1-0.7-1.9-1.3-2.7-1.7c-0.9-0.6-1.8-1.1-2.6-1.5
							c-0.8-0.5-1.9-1.2-3.4-1.9l-9.9-4c0.1,0.1,0.2,0.1,0.1,0.1c-0.3,0-0.9-0.2-1.9-0.5L164-9.8l-0.9-0.1h-0.3l-3.3-0.4l-0.2-0.1
							h-0.2l-6.5-0.8h-0.5l-1-0.1l-6.8,0l-9.8,0.9c-2.6,0.4-4.8,0.9-6.6,1.3c-2.6,0.6-4.9,1.2-6.9,1.8c-2.4,0.7-4.8,1.5-7,2.4
							L106.3-1.6 M183.9,12.2l-0.6-0.7c-0.1-0.1-0.1-0.2,0-0.2l0.3,0.1l0.1,0.1l0.3,0.2c0,0,0.2,0.2,0.6,0.6l0.3,0.2l0.6,0.5
							l0.1,0.1l1.4,1.3l0.5,0.7l0,0.2l0.5,0.5l0.1,0.2l0.2,0.1l0.1,0.2l0.2,0.1l0.1,0.3l0.1,0.1l0.3,0.6l0.2,0.3l0.6,0.9l0.1,0.2
							l0.6,0.9c0.1,0.2,0.2,0.2,0.2,0.1c0.1,0,0.1-0.1,0-0.2v-0.1l-0.1-0.2l1.4,3.8c0,0.1,0,0-0.1-0.1l-0.4-0.7l0.9,2.1l0.1,0.3
							l2.6,6.9l1.6,5.8l-0.3-2.3l1,4l0,0.3l0.1,0.3l0.8,4.3L197,40c0.4,1.5,0.8,3,1.3,4.6l2.2,6l2.3,4.4l1.1,1.6l-1.1-1.8l-0.2-0.4
							l0.8,1.3l0.1,0.1l0.6,0.9l0.1,0v0.1l0.1,0v0l0.1,0.1l0.2,0.3l0.3,0.3l0,0.1l0.1,0l0.1,0.2l6.4,7.6l0.1,0.1l0,0.1l4.9,5.8
							l0.9,1.3v0l0.1,0.1l0.5,0.8l0.1,0.3c0.4,0.8,0.8,1.8,1.2,2.8c0.3,1,0.5,1.9,0.6,2.8l0.1,0.2v0.3l0.1,0.1v1.6l-0.1,0.3v0.3
							l-0.1,0.2V83l-0.1,0.5v0.2l-0.1,0.2l-0.1,0.3l-0.1,0.3l-0.1,0.3c-0.2,0.5-0.4,1.1-0.8,1.8l-0.1,0.2l-0.1,0.1v0.1l-0.2,0.2
							l0,0.1l-0.2,0.2l-0.1,0.2v0h-0.1l-0.1,0.2l-0.3,0.3l-0.1,0.2l-0.6,0.6l-0.1,0l-0.6,0.6l-0.1,0.1l-0.1,0.2
							c0.7-0.3,1.3-0.6,1.8-1c-0.9,0.9-1.9,1.7-3.3,2.4l0.2-0.2l0.2-0.2l0.8-1.3c0.1-0.1,0.2-0.3,0.3-0.3c-0.4,0.3-0.9,0.6-1.6,1
							l-0.3,0.1l-0.1,0.1l-2,0.7l0,0h-0.1l-0.2,0.1l-0.8,0.2h-0.3l-0.5,0.1l-19.4,1.8l-2.3,0.4h-0.1l-0.1,0.1l-1.3,0.3l-2.9,0.9
							l-0.7,0.3l-0.2,0.1l-1.6,0.7l-0.4,0.3l-0.3,0.1l-0.8,0.4l-3.5,2.4l0,0.1l-0.2,0.1v0.1l-0.1,0l-0.2,0.2l-0.1,0.1l-0.1,0.1
							l-0.3,0.2l-1,1.1c-1.1,1.3-2,2.5-2.6,3.6c-0.7,1.1-1.3,2.4-1.8,3.9c-0.4,1.3-0.8,2.7-1.1,4c-0.1,0.7-0.2,1.3-0.3,1.9l-0.3,2.8
							l0.3,11.9c0.2,4.3,0.4,7.6,0.4,9.9l0.2,6.2l-0.2,1.9c0,0.2-0.1,0.2-0.2,0.1l-0.3-1.3c0.1,1.4,0.1,2.6,0.3,3.6l0.1,0.8v2.1
							l-0.1,0.4l-0.1-0.2l-0.2-1.1l-0.1,2.8l-0.1,0.2v0.1c0,0.2,0,0.4,0.1,0.4l0-0.4l0.1-0.1l0.1-0.1l0.1-0.3v-0.1l0.1,0v-0.1
							l0.3-0.5l0.1-0.1v0.1l0.1-0.1c0.1-0.1,0.2-0.2,0.3-0.4v0.6l-0.1,0.3v0.4l-0.1,0.3v0.1l-0.1,0.1l-0.1,0.7l-0.4,2.7l-0.2-0.3
							l-0.1,2.8c-0.1,1.7-0.5,3.7-1.1,5.9l-2.4,8.7l-0.3,0.8l-0.1,0.5l-2.7,7l-0.4,0.8l-0.1,0.4l-4.6,8.6c-0.1-0.2,0.5-1.5,1.7-4
							c-1.4,2.5-2.1,3.9-2.2,4c0.3-0.4,0.4-0.5,0.4-0.2c-0.1,0.1-0.3,0.5-0.6,1.2c-0.7,1.5-0.9,1.9-0.5,1.3l-1.3,2.9l-0.1,0.1l0,0.1
							v0l-0.3,0.6l-0.1,0.2l-0.1,0l-0.3,0.7l-0.1,0.1v0l-0.1,0.1l-0.4,0.6l-0.2,0.3l-0.1,0.3l-4.3,6l-1.4-2.5l-5.3-6.5l-0.1-0.1
							l-0.8-0.9v0l-1.6-1.6l0.3,0.1c-0.9-0.9-1.9-2.2-3.1-3.9l-2.9-4.7l-3.5-7.4l-0.1-0.2l-2-5.3l-0.1-0.2l-0.1-0.3l-0.8-2.2
							l0.2,0.6c-0.5-1.1-0.9-2.2-1.1-3.1l-0.2-1.1l-0.4-1.6c-0.1,0.3-0.4-0.1-0.8-1.2l-0.3-0.6l-0.6-1.7h0.1l-1.6-5.7l-0.2-1.1v-0.3
							l-0.1-0.5l0-0.1v-0.4l0.2,0.1l-0.1-0.4v-0.1l0,0l-0.5-16.5c-0.2-2.9-0.4-5.8-0.8-8.7l0.1-3.7l-0.1-0.5l-1-0.7
							c-0.7-0.5-1.4-0.8-2.1-1c-0.9-0.3-1.6-0.2-2.2,0.3c-0.3,0.3-0.6,0.7-0.8,1.3c-0.2,0.6-0.4,1.3-0.6,2.3l-0.2-0.1v1.5
							c0,0.2,0,0.3,0,0.4c0,0.5,0,0.6-0.1,0.4l-0.2-1l-0.1,2.1l0.1-0.5c0,0.6,0.1,1.8,0.2,3.4c0,0.6-0.1,0.9-0.2,1s-0.2,0.5-0.2,1.3
							l0,12.3c0,1.4-0.1,2.7-0.2,3.9l-0.1,1.2l0,0l-0.1,3.5c0.1,1.1,0.2,2.7,0.5,4.8l2.1,8.7c0,0.2,0,0.1-0.1-0.1l2.8,7.9v0.1
							l0.1,0.2l0.5,1.8v0.5l0.3,0.6l5,10.7l3,5.2l0.2,0.2h0.4l0.9,1.5c0.1,0.3,0.2,0.5,0.2,0.6l0.2,0.5l1,1.3
							c0.3,0.2,0.6,0.5,1.1,1.1l2.7,3.1l0.7,0.7l0.3,0.4c0.2,0.4,0.3,0.6,0.3,0.6l0.4,0.3l0.4,0.4c0.4,0.6,0.7,0.9,0.8,1
							c0.1,0.1,0.1,0.1,0,0l-0.2-0.4l1.1,1.4l0.1,0.1c0.2,0.4,0.3,0.6,0.3,0.7c0,0.1-0.2,0-0.4-0.4l1.4,2.3c0.2,0.2,0.3,0.5,0.4,0.8
							l0.8,1.6v0.1l0.1,0.1l0.1,0.1l0.1,0.2l0.1,0.3l0.3,0.6l0.2,0.5v0.1l0,0.1l0.1,0.3v0.1l0.1,0.1v0.2c0.1,0.8,0.2,1.5,0.2,2
							c0,1,0,1.8-0.1,2.3l-0.3,1.9l-0.2,0.7c-0.2,1-0.4,1.9-0.6,2.6l-0.1,0.4l-0.6,1.7l-0.1,0.1v0.1l-0.1,0.1l-0.1,0.1l-0.2,0.3
							l-0.1,0.2l-0.1,0.1l-0.1,0.1l-0.1,0.1l-0.1,0.1l-0.1,0.1c-0.2,0.3-0.5,0.6-1,1.1l-1.3,0.9l-1,0.5h-0.1l-0.4,0.2
							c-0.5,0.2-1.3,0.5-2.3,0.9l0.6-0.1l1.4-0.4l0.4-0.1h0.3l-0.4,0.3l-0.3,0.1l-0.7,0.2l-0.9,0.4l-0.3-0.1h-0.4l-0.6,0.1l-0.1,0.1
							h-0.2l-0.6,0.1L131,234l-0.6,0.1l-1-0.1l-0.4,0.3h-0.4l-0.4,0l-1.5,0.3l-0.4,0.1l-1.9,0.3l-2.8,0.1l-0.3-0.1l-3.2-0.1
							l-1.4-0.3l-0.6-0.2l-0.3-0.2l0.2,0.2l0.2,0.1c0.1,0.1,0,0.1-0.3,0.1c0-0.1-0.3-0.3-1-0.4l-0.8-0.3l-0.3-0.1l-0.2-0.2l-1.8-0.9
							l-0.2-0.1l-0.3-0.1c-0.2,0-0.2,0.1-0.1,0.3l-1-0.9c-0.5-0.5-0.4-0.5,0.1-0.2c-0.8-0.7-1.3-1.1-1.7-1.3l0.8,0.8l-1.4-1.2
							l-0.3-0.3l-0.3-0.3l-1.4-1.4l-1-0.8l0.6,0.9c-1.4-1.4-2.1-2.3-2.2-2.9l1.2,1.2l-4.4-5.1l0.5,0.7c-0.7-0.7-1.6-1.8-2.7-3.4
							c-1.3-1.7-2.5-3.6-3.8-5.6l-5.4-8.9l0-0.1l-0.3-0.4l0.1,0.3l0,0.2v0.1l0.2,0.7l-0.3-0.5l-0.1-0.1h-0.1l0-0.1l-0.2-0.3
							l-0.6-1.1c0,0.1,0.3,0.2,0.8,0.4c0.4,0.2,0.6,0.3,0.7,0.4l-2.7-6.3l-0.1-0.2l-1.8-5.4c-0.7-2-1.2-3.9-1.6-5.7l-1.2-5.8
							c-0.3-2.1-0.6-3.9-0.7-5.4c-0.3-2.5-0.4-4.8-0.4-7.1l0.1-0.6l0.1-0.3c0-0.1,0.1-0.1,0.2-0.1L81,167l-0.1-0.4v-0.3l0-0.4
							l-0.2-0.5l-0.1-1.4c0.1-0.5,0.2-0.3,0.3,0.4c0.1-1.1,0.1-1.7,0-1.8c-0.1,0.4-0.2,0.7-0.3,0.8c-0.2,0.1-0.4,0.2-0.4,0.3v-1.3
							l0-0.3l0.1-1l0.2,0.1c0-0.1-0.1-0.6-0.3-1.3l-0.1-0.5v-0.6c0-0.3,0-0.8,0.1-1.7l1.7-13l0.1-0.4l0.1,0.2l-0.1,1.8l0.4-2
							c-0.2,0.4-0.2,0.2-0.1-0.4c0.1-0.6,0.1-0.8,0.1-0.6l0.3-2.5l1.8-7.6l-3.2-6.8c-0.2-0.8-0.4-1.1-0.4-1.1l1.4-1.8l-1.2,1.3
							l-0.2,0.2l-0.1,0.2l-0.5,0.8l0.1,0.2l-0.7,1.2l-0.2,0.3l-0.3,0.5l-0.2,0.5c0,0,0-0.1,0-0.3l0.1-0.2l0.5-1.1l0.1-0.2l0.1-0.1
							l0.2-0.3l0.8-1.2c-1.2,1.7-1.8,2.9-1.9,3.4c-0.2,0.4-0.3,0.6-0.4,0.6c-0.1,0-0.3,0.3-0.6,0.8c0,0-0.2,0.7-0.7,2.1
							c-0.3,0.9-0.6,1.6-0.8,2.1h0l-2.8,8.5v-0.3l-1.6,5.5c0.1-0.4,0.2-0.6,0.3-0.6c0.1-0.1,0,0.2-0.1,0.8l-1.4,5.9l-0.1,1.8
							l-0.6,4.3c-0.2,2-0.4,4-0.4,6.2l0,6.9l1.2,10.6l1,4.9l0.2,0.4L72,189c0.3,1.4,1,3.8,2.1,7.1l0.8,2l0.1,0.4l3.2,7.3l0,0.2
							l-0.1-0.2l0.1,0.2l0.2,0.3l0.9,1.9l0.1,0.1l0,0.1l8.2,13.9c1.3,2,2.8,4.1,4.5,6.2c1.7,2.2,3.5,4.1,5.2,5.8l0.2,0.2l5.7,4.9
							c0.2,0.2,0.4,0.3,0.7,0.4l-0.1,0.1h-0.1l-0.1,0.1l-0.2,0.1l-0.2,0.1l-0.3,0.2l-0.2,0.1v0.1h-0.1l-0.3,0.1l-2.8,1.4
							c-0.4,0.2-0.7,0.3-1.1,0.4l-1.1,0.4l0.3-0.3l-0.3,0.1l-0.3,0.1l-0.3,0.1h-0.1l-0.1,0.1l-4.8,1.9c0.4-0.1,0.6-0.2,0.7-0.1
							c0.1,0-0.1,0.2-0.7,0.4l-1.8,0.8l-0.3,0.2l-0.4,0.2l-1.4,0.8l-0.2,0l-1.6,0.8l-0.2,0.1L86,248l-7.1,5.3l-2.5,2.3l-0.2,0.2
							l-2.3,2.4l-0.7,0.8l-0.1,0.1l0-0.1l-8,9c-3.4,3.7-6.8,7.4-10.1,10.9c-2.7,2.9-5.1,5.3-7.1,7.2l0.2-0.3
							c-2.2,2.1-3.5,3.3-3.8,3.6l-1.8,1.7l-0.2,0.1l-1.3,1.2l-0.1,0l0,0l-1.3,1.1l-0.1,0.1l-0.2,0.1l-5.3,4.6
							c-1.3,1.2-2.2,2.2-2.8,2.9c-0.9,0.9-1.8,1.9-2.8,3.1c-1,1.2-1.9,2.3-2.7,3.5l-0.3,0.5l-0.2,0.3l-1.4,2.3l-0.3,0.5l-0.1,0.2
							l-1.3,3.3l-0.1,0.4l-0.4,2.3v0.4l0,0.4v1.5l0,0.2v0.2l0.1,0.3l0.1,2.4l-1.6,0.3l-5.1-0.3l-0.1-0.1h-0.2l-0.4,0l0.4,0l0.1,0.1
							H15l0.1,0c0.1,0.1,0.2,0.1,0.1,0.1l-0.3,0h-0.6l-0.2,0h-0.3l-0.4-0.1l-1.2-0.1l-0.2,0h-0.2l-0.4-0.1c-0.1,0.1-0.2,0.1-0.5,0.1
							l-2.1-0.5l-0.3-0.1c-0.9-0.2-1.8-0.6-2.9-1.1l-0.4-0.2L5,320.7H5l-0.1-0.1l-0.4-0.2H4.5l-0.1-0.1l-0.1-0.1L3.7,320
							c-0.7-0.4-1.3-0.8-1.9-1.2l-1-0.8l-0.2-0.2l-0.2-0.1L0,317.2v0h0v-0.1l0-0.1l-0.1-0.1l-0.3-0.4l0-0.1v0l-0.1-0.1v0h0v0
							l-0.1-0.1l-0.1-0.2v0.1l-0.1-0.2l0-0.1l-0.6-1.9c-0.5-1.7-0.8-2.8-0.9-3.1l-0.4-1.8l0-0.1l0,0v0l-0.1-0.4l-0.1-0.4v-0.2l0-0.2
							c-0.2-1.3-0.3-2.3-0.4-2.9l-0.3-4l0-0.3v-0.9l0-0.1v-0.1l0-0.1l0.6-1.7l1.9-3.7c0.6-1.6,1.4-3.3,2.4-5.1
							c1.8-3.1,2.8-4.8,2.9-5l-0.1,0.4c0.3-0.7,1.3-2.3,2.9-4.8L20.5,259l-0.3,0.5l1.1-2l2.6-3.5c-0.2,0-0.2-0.1-0.1-0.4l0.4-1.2
							c0.2-0.4,0.6-1.3,1.2-2.5l0.1,0.1l4-8.9l0.1,0.2l0.4-1.1c0.1-0.2,0.3-0.6,0.5-1.2l5.7-14.7l1.5-6.7v-0.3l0.6-3.4l0.4-1.1
							l0.1,0.3l0.4-1.9v-0.2l0-0.1l0.2-1.1l0.1-0.3l0.7-3.8l0.1-0.4c0.1-0.2,0.1-0.2,0.1-0.1l-1,4.9l0.4-1.7l0-0.1v0.1l-0.3,2l1-4.1
							c0-0.3,0-0.3-0.1,0.1c-0.2,0.6-0.3,0.9-0.3,1c0.7-3.7,1.2-6,1.4-6.9l0.5-1.6l0.2-0.3c0.1-0.1,0.2-0.3,0.3-0.4l0.6-1.9
							c0.8-2.8,1.8-5.7,3-8.7c1.2-2.8,2.5-5.5,4-8.1c1-1.7,1.8-3,2.3-3.8l1.2-1.9l0.2-0.3l0.2-0.3l1-1.3c1.7-2.2,3.6-4.4,5.9-6.8
							l0.9-0.9l0.5-1.2c1.2-2.9,2.2-5.4,2.9-7.5l8.2-23.3c0.1-0.3,0.1,0-0.2,0.8c1.2-4,2.2-7.4,3-10.3l2.3-10.2l1-2.9
							c0,0,0-0.1,0-0.3l0.7-5.4c0.2-2.3,0.3-4.5,0.3-6.7l-0.1-2.2l0-0.3l-0.1-1.1v-0.5l-1.8-22.3L78.1,70l0.2-4.4l0-0.1v0l0.1-0.2
							l0-1l0.1-0.1l0.1-2.4c-0.2-1.3-0.2-3.4,0.3-6.3c0.6-3.3,0.9-5.3,0.9-6l0.1-0.5c0.1-0.3,0.2-0.6,0.3-1l0.3-0.9v-0.1l0.1,0v0
							l0-0.2l0.1,0c0-0.2,0-0.5,0-1v-0.1l0.1-0.2l0-0.3l0.2-0.5v-0.1l0.1-0.1l0.8-2.4c0-0.2,0-0.2,0-0.2l-0.1,0.2L81.1,43
							c0.4-1.4,0.9-2.7,1.4-4l0.1-0.3l0.1-0.3l0.5-0.8c0.1-0.1,0,0.3-0.4,1.2c1.2-2.6,2.2-4.4,2.8-5.5l1.5-2.5l0.1-0.3l3.6-5.4l0,0
							v0l0.1-0.1l0-0.1l0.8-1l0.1-0.1l1.9-2.3c1.2-1.3,2.5-2.6,3.9-3.9l3.7-2.9l0.2-0.1l0.1-0.1l0.1,0l6-3.8l0.2-0.1l0.2-0.1
							l1.5-0.8l0.2-0.1l1.4-0.7l0.2-0.1h0l11.2-4.4l5.1-1.4l0.3,0l1.6-0.4l11.1-1.6l0.9-0.1c0.4,0,0.7,0,0.9,0l2.7-0.1l-0.3-0.1
							l-0.1-0.1h-0.2c-0.3,0-0.6,0-0.8,0h-0.9c-0.5,0-0.8,0-1.1,0h-2.7l-0.6-0.1l0.6-0.1h0.3l0.3,0l3.9-0.2l1.1-0.1l0.3,0.1l0.4,0.1
							l1.3,0.1h0.3l1.3,0.1h0.3l1.5,0.1h0.3l3.2,0.6l0.3,0.1l0.2,0.1l0.9-0.2l1.6,0.4l4.5,0.7l0.3,0.1l0.7,0.1l6.2,1.8l0.3,0.2
							l0.4,0.1l2,0.8l0.3,0.1l4.9,1.9c1.4,0.6,2.5,1.2,3.3,1.5l2.6,1.4C182.6,11.1,183.3,11.6,183.9,12.2 M218.1,87
							c0,0,0.1-0.1,0.1-0.2v0L218.1,87 M217,101.6l0.4-0.2l-0.6,0.2L217,101.6 M179.8,182.6c0-0.1,0.4,0.3,1.3,1.1l1.4,1.4l0.3-0.3
							c0.2,0.2,0.2,0.3,0.1,0.5c0,0.2,0.1,0.3,0.2,0.4c0.2-0.1,0.4,0,0.6,0.3l-0.1,0v0l0.1,0.1l0.1,0.2l0.3,0.1l0,0.1v0.1l-0.1,0.2
							l0.1-0.1v0.1l0.1-0.1v-0.1l0.1-0.1h0l0.2,0.2c0,0.1,0,0.1-0.1,0.1c0,0.1-0.1,0.1-0.1,0.1l0.2,0.4v0.1l0.1,0.1l0.1,0.3
							c0.2,0.4,0.4,0.9,0.6,1.5l0.1,0.5l0.1,0.1v0.2l0.1,0.2l0.1,0.3l0.1,0.6l0.1,0.4l0.1,0.2v0.1l0,0.1l0.1,0.6
							c0.1-0.1,0.1-0.2,0.1-0.4c0-0.2,0.1-0.3,0.3-0.3c0.1,0.1,0.1,0.2,0.1,0.3c0,0.1,0,0.2,0.1,0.2c0,0-0.1,0.1-0.3,0.2l-0.1,0.3
							c0,0.3-0.1,0.4-0.3,0.6h0.4l-0.2,0.2l0.3,0.8c0,0,0,0.3-0.1,0.7l0.1,0.2v0.2l0.1,0.1l0.1,0.2v0.1h0v0.1l0.1,0.1l0.1,0.1v0.1
							l-0.1,0c0,0,0.1,0,0.1,0c0.1,0,0.2,0,0.2,0c-0.1,0-0.1,0.1-0.1,0.2s0.1,0.2-0.1,0.3v0.3c0.1,0.1,0.2,0.2,0.4,0.1l-0.2,0.1
							L187,197c-0.1,0.1-0.2,0.1-0.2,0c-0.1,0.2-0.1,0.3-0.1,0.4l0.1-0.2l0,0.3l-0.1,0.2l-0.1,0.1v0.2c0,0.1,0,0.2,0.1,0.3l0.2-0.1
							l-0.1,0.4c-0.1,0.1-0.2,0.2-0.4,0.2l-0.1-0.3l-0.1,0.3v0.1l0,0.2v0.3l0,0.3l0.1-0.1l0.1,0.3v0.5l-0.4,2.8v0.4l0.4-0.1l0.1,0.5
							l-0.4-0.3l-0.3-0.3l-3.1,4.9l-1,1.1c-0.3,0.1-0.4,0-0.4-0.3c-0.1,0.2-0.1,0.3-0.1,0.3v0.2l-0.1,0.1c-0.1,0-0.1,0-0.1-0.1
							c0-0.1,0-0.1,0-0.2c-0.2,0.2-0.3,0.3-0.3,0.3c0.2-0.1,0.4,0.1,0.8,0.4l-0.3,0.3l-0.1,0.1l-0.1-0.2l0.1,0.4v0.1
							c0,0.1,0,0.2-0.1,0.2l-0.2,0.1l-1.8-1l-7.7-3.2l-1.2-0.4c0.1-0.1,0.8,0,2,0.3l-1.9-0.8c0.2,0.1,0.2,0.2,0.1,0.2l-0.6-0.1
							c-0.6-0.1-0.8-0.1-0.6-0.1l-1.3-0.2l-2.9-0.8l-0.1-0.1l0,0l0.3-0.4v-0.1l0.1-0.2v-0.1l0.9-1.8c0.6-1.3,1.3-2.7,2.1-4.2
							l-0.2,0.7l4-7.6l0.1-0.2l1.5-2.8l-0.5,0.9l-0.3,0.4c-0.1,0.1,0.1-0.5,0.6-1.8l0.9-1.9l2.3-6.8c0.7,0.9,1.3,1.5,1.7,1.9
							c0,0-0.1,0-0.2,0l0.4,0.3l0.4,0.4c0.2,0.1,0.5,0.3,0.8,0.6V182.6 M152,222c2.5-3.3,4.5-5.8,5.9-7.4v0.1l0.1-0.1l0.4,0.2l0.1,0
							l1.4,0.5v0l1,0.4l4.5,0.8l0.2,0.1l1.3,0.5h-0.3c0.1,0.1,0.4,0.2,0.8,0.3l1,0.4c1.2,0.5,2,0.9,2.3,1c-0.2-0.2-0.4-0.3-0.4-0.3
							c0-0.1,0.2-0.1,0.6,0.1l0.3,0.2l2.8,1.5l0.9,0.6l1.3,0.4c1.6,1.1,2.5,1.7,2.7,1.8l1.1,0.8l0.1,0.1l0.1,0.1l0.4,0.3h0.1v0.1
							h0.1l0.1,0.1l0.3,0.2l0.3,0.3h0.1l2.8,2.7l1.6,1.9c0.5,0.6,0.9,1.3,1.3,2l0.2,0.3l0.3,0.8l0,0.1l0.2,0.5v0.1l0.1,0.2l0.1,0.3
							l0.1,0.2v0.1l0.2,1v0.4c0,0.6,0,1.2-0.1,2l0,0.3v0.1l-0.1,0.1v0.1l-0.1,0.3l-0.1,0.1v0.1l-0.3,0.9v0.1l-1.1,2.9
							c-0.8,2-1.4,3.6-1.9,4.7c-0.6,1.3-1.1,2.2-1.5,2.9l0.1-0.3l-0.1,0.2l0,0.1v0l-0.1,0.1l-0.2,0.4l-0.2,0.3l0,0.1l-0.1,0.1
							l-0.1,0.1v0.1l-0.1,0.1l-0.1,0.1c0.2,0.4,0.3,0.6,0.3,0.6l-0.1-0.2l-0.1-0.2l-0.1-0.1l-0.1-0.1l-0.3,0.4l-0.1,0.1l-0.1,0.1
							l-0.1,0.1l-0.3,0.3l-0.1,0.1v0.1l-0.1,0l-0.1,0.2c-0.5,0.5-1.1,1.3-1.9,2.3l-1.8,2.4c-2.8,3.7-5.4,7.2-7.8,10.6l-4,5.8
							l-3.4,6.3c-0.4,0.9-0.9,2-1.3,3.2c-0.6,1.6-0.9,2.6-1.1,3.3l-1,5.8v0.4l-0.1,0.4l-0.1,1.6c0,1,0,1.8,0.1,2.3l0,0.3v0.2
							l0.1,0.2l0.1,0.6v0.2l0.1,0.1v0.2l0,0.2v0.1l0.1,0.1v0.1l0.1,0.4v0.1c-0.3,0-0.7-0.1-1.4-0.1l-0.9-0.1h-0.3l-1.1-0.2l-0.1,0
							h-0.1l-0.1-0.1l-4.6-1.1c-1.8-0.5-3.6-1.1-5.4-1.8c-1.6-0.6-3.3-1.3-4.9-2.2l-3.7-2.1l-0.1-0.1l0,0H136L136,292l-0.3-0.2
							l-0.6-0.4l-0.2-0.1l-0.2-0.2l-0.7-0.5l-4-3.3c-1.2-0.7-2.4-1.7-3.6-3l-2.1-2.1l-0.3-0.5l-0.7-0.7l0.3,0.1l-0.3-0.3v0l-0.1,0
							l-0.5-0.7l0-0.3v-0.6l0-0.1V279l0.1-0.1v-0.1l0-0.3l0.2-0.7c0.2-0.9,0.6-2,1.2-3.3c0.2-0.4,0.7-1.5,1.6-3.5l4.3-7.7l-0.4,0.4
							c0.6-1.2,1.2-2.1,1.7-2.6c0.6-0.6,1.1-1.2,1.6-1.9c-0.2,0-0.2-0.2,0-0.7l0.7-1.5l5.6-9.9l-11.4,2.4v-0.1l-3.7,0.6
							c-1.9,0.3-3.4,0.5-4.5,0.6l0.1-0.3l-2,0.2l-6.2,0.1c-0.8,0-1.9-0.1-3.1-0.3l2.8-1.6l0.1-0.2l0.4-0.3l0.2-0.2l0.2-0.2l0.8-1
							l0.2-0.1l0.2-0.4v0l0-0.1l0.1-0.1l0.2-0.2l0.1-0.3l0-0.1v-0.1l0.1,0l-0.3-0.9c0.6,0.2,1.3,0.4,2,0.5c1.2,0.4,2.6,0.7,4.2,0.8
							l0.8,0.1l0.3,0.1h1.9l0.1-0.1h1.1c-0.6,0-0.8-0.1-0.8-0.2c0.1-0.1,0.4-0.1,0.9-0.1l1.1-0.1h0.3l0.2,0l1.5-0.2l8.3-1.9l2.6-0.9
							c1-0.3,2-0.8,3-1.3c1.3-0.7,2.3-1.4,3.2-2l1.6-1.4c0.6-0.6,1.1-1.1,1.5-1.6l0.2-0.2l0.1-0.3l0.4-0.5l0.9-1.4l0.1-0.3l0.4-0.8
							v0l0.1-0.1v-0.1l0.1-0.1l0.1-0.3l0.2-0.4l0-0.1l0.2-0.4v-0.2l0.1-0.1l0-0.1l0.1-0.3l0.2-0.4l1.5-7.2L152,222 M95.6,256.3
							L95.6,256.3l0.3,0.1c0.4,0.1,0.5,0.2,0.5,0.3L95.6,256.3z"/>
					</g>
				</g>
			</g>
		</g>
	</g>
</g>
</svg>
