<?xml version="1.0" encoding="utf-8"?>
<!-- Generator: Adobe Illustrator 24.1.2, SVG Export Plug-In . SVG Version: 6.00 Build 0)  -->
<svg version="1.1" id="Layer_1" xmlns="http://www.w3.org/2000/svg" xmlns:xlink="http://www.w3.org/1999/xlink" x="0px" y="0px"
	 viewBox="0 0 256 256" style="enable-background:new 0 0 256 256;" xml:space="preserve">
<style type="text/css">
	.st0{fill:#FFFFFF;}
</style>
<g id="run6">
	<g transform="matrix( 0.6996917724609375, 0, 0, 0.6996917724609375, 57.25,20.7) ">
		<g id="run">
			<g transform="matrix( 1, 0, 0, 1, 0,0) ">
				<g>
					<g id="run_5_Layer0_0_FILL">
						<path class="st0" d="M99.5-8.1c-2.7,1.6-5.1,3.3-7.3,5c-2.3,1.9-4.4,3.7-6.1,5.5l-4.4,5.3L81,8.7l-0.2,0.3L80,10.1l-0.1,0
							l-0.1,0.1l-0.8,1.3l0.7-0.9l-5.2,8.3c-0.2,0.4-0.4,0.6-0.4,0.7l-0.5,0.8c0.2-0.1,0.2,0.1,0.1,0.7L71.3,28l-0.1-0.1l-1.2,3.8
							v0.1l0,0.2L70,32.2l-0.2,0.5l0,0.3l-0.1,0.2v0.1l-0.2,1.1l-0.1,0.1v0.1l-0.1,0.2L68,44.7l-0.2-0.3l-2.1,22.8
							c-0.2,3.9-0.3,6.4-0.3,7.5c0,3.1,0.2,5.8,0.5,8.1l0.8,4.4l0.1,0.1v0.1l-1.7,0.4c-1.1,0.2-1.9,0.3-2.4,0.3v-0.1
							c-0.7,0-1.5,0.2-2.5,0.4L58.1,89c-2,0.5-3.5,0.8-4.4,0.9l0.3-0.2c-0.4,0-1.3,0.2-2.5,0.5c-1.3,0.3-2.3,0.5-3,0.6
							c0.2,0,0.4,0,0.5,0.1c0.1,0.1-0.1,0.2-0.8,0.3l-6,1.4l-1.6,0.8c-0.3,0.1-0.6,0.2-0.9,0.3l-3.4,1.1c-1.6,0.5-3.6,1.3-6,2.3
							l-11,5.3l-0.3,0.2l-0.3,0.1l-8,5.1l-9.1,7.7l-0.1,0.2l-2.9,3.2c-1.2,1.3-2.2,2.5-3,3.6l0.2-0.3l-3,4.3l-0.1,0.1l0,0.1
							l-0.6,0.8l-0.1,0.2l-3.2,5.2c-1.8,3.3-3,5.4-3.5,6.5c-1,2-2.1,4.3-3.3,7.1l-2.8,7.5c-0.8,2.6-1.4,5.2-1.8,7.7l-0.4,3.8
							c-0.1,1.4-0.1,2.6-0.1,3.7c0,2.2,0.3,4.4,0.8,6.6c0.1,1.3,0.4,2.7,1,4.2l0.1,0.3l0,0.1l0.1,0.2l0.4,1l0,0.1v0.1h0.1v0l0.9,2
							c-0.2-0.6-0.3-0.9-0.2-0.8c0.1,0.1,0.3,0.3,0.6,0.8l1.6,2.9l2.9,3.8c0.9,1.1,1.9,2.2,3,3.3l2.2,1.9l0.5,0.4l0.1,0.1
							c0.3,0.2,0.6,0.4,0.7,0.5l0.7,0.5l0.2,0.1l0.2,0.1l0.4,0.3c1.1,0.6,2.2,1.2,3.3,1.6s2.4,0.9,3.7,1.2c1.2,0.3,2.5,0.6,4,0.7
							l0.3,0l3.7,0.1c2.7-0.1,5.3-0.3,7.6-0.8l0.5-0.1l0.5-0.1l0.5-0.1l3.5-1.3l1.5-0.8l2.5-1.8l1.4-1.4c0.8-0.9,1.5-1.9,2-2.9
							l0.5-1.1l0.1-0.4l0.1-0.1v-0.1l0-0.1l0.1-0.2v-0.1l0.1-0.3l0.1-0.2l0.3-0.8l1.6-6.8c0.6-2.4,0.9-4.4,1.1-6.2v0.4l0.5-3.9v-0.1
							l0-0.1v-0.1l0-0.4l0.2-0.8c0.5-2.5,1.5-4.9,2.8-7.2l0.3-0.4l0.1-0.3l0.3-0.4l0.1-0.1l0-0.1l0.3-0.4l0.1-0.2l0.1-0.1l0-0.1
							l0.1-0.1l0.4-0.5l0.1-0.2l0.2-0.2l0.3-0.4l0.1-0.1l0-0.1l6.3-6.4l0.2-0.1l0.2-0.1l-0.5,0.3l1.5-1.4c0.2-0.1,0.5-0.4,1.1-0.8
							l2.3-1.6c-0.2,0,0.1-0.5,0.8-1.3l2-1.8v0.1l1.2-1.1l-1.4,3.5v-0.2l-4.9,12.8l-0.4,1.5c-0.2,0.2-0.5,0.8-1,1.9
							c0.1-0.1,0.2-0.2,0.3-0.2c0.1,0.1,0.1,0.2,0,0.3c-0.2,0.6-0.3,0.9-0.2,1l0,0.2l-1.5,5.1l-3,7.6c0,0.4-0.1,0.9-0.3,1.6
							c-0.3,0.8-0.4,1.3-0.4,1.6l0-0.1c-0.1,0.3-0.5,1.7-1.3,4c-0.8,2.3-1.3,3.7-1.4,4.1l0.1-0.1c0,0.2,0,0.4-0.1,0.6l-0.2,0.4
							c-0.3,0.3-0.5,0.5-0.5,0.7c0.4,0,0.5,0.5,0.4,1.4l-0.1-0.1l-0.3,2.4c0,0.1-0.1,0.2-0.1,0.3l-0.2-0.1c0,0.1,0,0.4,0,0.7
							l-1.3,4.1c-0.1,0.5-0.2,1-0.2,1.3v0.4l0,0.1v0.1l0.1,0.4v0.2c-0.2,1.1-0.4,2.1-0.5,3.1l-0.2,1.6v0.4l-0.3,3.5l0.2,7.2l0.2,1.7
							v0.4l0.2,1.2c0.2,1.5,0.4,2.6,0.6,3.2l1.6,6.4l0,0l-0.1-0.1c-0.1-0.1-0.1-0.3-0.2-0.4c0,0.1,0.1,0.2,0.1,0.4l-0.8-0.7
							c-0.8-0.7-1.7-1.5-2.8-2.6l-0.3-0.3l-5.1-3l-6.6-3.2l-0.3-0.1l-0.3-0.1l-1.6-0.6l-0.2-0.1l-0.2-0.1l-0.3-0.1
							c-1.5-0.4-2.5-0.7-2.9-0.8c-1.2-0.2-2.3-0.4-3.4-0.4c-0.1-0.1-0.1-0.1,0-0.1c0.1,0,0.2,0,0.5-0.1l-2.2,0.1l-0.2,0.1h-0.3
							L8.5,220L8.5,220H8.4L8,220.2l-0.5,0.2L7,220.6l-0.3,0.1L6.2,221H6.1v0.1h0l-0.1,0.1l0,0l-0.4,0.2l-0.1,0.1H5.3v0.1H5.2
							l-1,0.6l-0.1,0.1l-0.1,0.1l-0.7,0.5l-0.1,0.1l-1.8,1.5c-0.4,0.3-0.6,0.4-0.8,0.5l-0.3,0.1L0.3,225c-0.1,0.1-0.2,0.3-0.4,0.5
							l-3.5,3.9l-4.2,6.1l-0.1,0.1v0l-0.8,1.3l-0.1,0.1v0.1l-0.1,0.1l-0.6,0.9l0.3,0.4l-0.8,1.3l-0.3,0.3c-0.1,0-0.2,0.1-0.3,0.3
							l-0.6,1.3c0,0.3-0.1,0.7-0.3,1.3c0,0.1-0.1,0.3-0.2,0.4l-1.2,2.7l-0.2,0.6l-0.1,0.5c-0.3,0.9-0.6,1.3-0.7,1.2
							c0.1,0.2,0.1,0.5-0.1,0.9l-0.4,1.3c0,0.1,0,0.1,0.1,0c0.1-0.2,0.2-0.3,0.3-0.4l-0.4,2c-0.2,0.4-0.3,0.6-0.4,0.6
							c-0.1,0-0.1-0.2,0-0.6c-0.6,1.7-1.1,4-1.6,6.7l-0.7,4v0.1l0,0v0.2l-0.4,3.6c-0.1,1.4-0.1,2.4-0.1,3.2c0,1.1,0.1,2.4,0.3,3.6
							l0.5,2l0.9,2.4l0.5,0.9l0,0.1l1.6,2.1l0.3,0.3c0.3,0.4,0.7,0.7,1.1,1.1l1.4,0.9l1.4,0.7l1.4,0.5l2.2,0.4h0.6l0.3,0.1l1.5-0.1
							l0.2,0h0.2l0.2-0.1h0h0.3l0.1,0h0.7c0.5,0,1.1,0,1.7,0l-0.4-0.2l-1-0.2l-0.2-0.1l-0.1-0.1c0.3-0.1,0.6-0.1,1,0h0.3l0.3-0.1
							c0.1,0.2,0.5,0.4,1.1,0.6l0.8,0.3c0.3,0.2,0.5,0.3,0.6,0.5l0.4-0.3l0.4,0.4l2.8,0.8l2.3,1.1c0.7,0.3,1.7,0.7,2.9,1.2l0.6,0.3
							l0.1,0l0.1,0.1H12l1.4,0.8l-0.1-0.1l-0.1-0.1l-0.1-0.2c-0.1-0.2,0.1-0.2,0.4-0.1c0,0.1,0.3,0.4,1,0.6l0.8,0.4
							c0.3,0.2,0.4,0.3,0.4,0.4l1.7,0.8c0.7,0.3,1,0.3,0.8-0.1l0.5,0.5l0.4,0.2l0.3,0.3c0.2,0.2,0.4,0.3,0.4,0.3c0,0-0.1,0-0.5-0.1
							l1.1,0.6c0.3,0.2,0.6,0.4,0.9,0.4l-0.9-0.6l3.7,1.8l1.3,0.4l0.3,0.1l0.2,0h0.2l-0.9-0.5l2.6,1l0.4,0.2
							c0.3,0.2,0.5,0.3,0.6,0.4l-1.9-0.4l0.5,0.2l0.3,0.1l0.1,0l0.9,0.3h0.1l0.6,0.2l0.3,0.1h0.1l0.1,0l0.8,0.1l0.2,0.1h0.1
							c1,0.2,1.9,0.3,2.9,0.3l-0.8-0.1c0.6,0,3.8,0.4,9.5,1.2l4.8,0.7h0l0.2,0h0.3l0.7,0.1h0.5l0.2,0l1.9,0.1l0.3-0.1h0.5l1.2-0.1
							l-1.3-0.4c0.8,0,1.6-0.1,2.4-0.3c0,0-0.1,0.1-0.3,0.2l-0.4,0.4c-0.4,0.3-0.6,0.5-0.6,0.5l2.9-0.2c1.7-0.2,3.2-0.5,4.5-0.8
							l0.9-0.3l0.4-0.1l2.5-0.8c0.5-0.1,0.9-0.3,1.3-0.5l3.9-1.6c0.5-0.2,0.9-0.4,1.3-0.6c1.8-0.8,3.4-1.7,4.9-2.6l2.3-1.3h0
							l0.2-0.1l0.1-0.1l0.5-0.3l0.1-0.1h0.1l0,0l0.8-0.5l0.1-0.1l0.4-0.3c1.2-0.9,2.3-1.9,3.3-2.8l1.9-1.8l0.7-0.5
							c0.1,0,0.2,0,0.2,0.1l-0.2,0.6l0.7-0.9l0.3-0.8l0.6-0.8c0.2-0.1,0.3-0.1,0.2,0l-0.2,0.5l0.9-1.2l0.1-0.1l-0.5,0.3l-0.3,0
							c-0.3-0.1-0.5-0.1-0.6-0.1l1.6-1.9l0.1,0.3c0.1-0.4,0.3-0.8,0.4-1.1l0.5-1l7.4-11.1c0.1,0.1-0.1,0.7-0.5,1.6l0.7-1.1l0.3-0.3
							c-0.2,0.2-0.2,0,0.1-0.4c0-0.1,0.1-0.2,0.3-0.5c0-0.1,0-0.1-0.1,0l0.4-1l1.3-2.4h0.1l0.1,0h0v0h0.1v0.1l1.9,1.8
							c0.9,0.9,1.7,1.7,2.3,2.5c0.7,0.9,1.3,1.8,1.8,2.6l0.1,0.1l0.1,0.2l0.2,0.3l0.3,0.5l0,0.1l0.4,0.7l-0.1,0l0.1,0.3v0l0.1,0v0.1
							l0,0.1v0.1l0.1,0.2v0.2l0.1,0.1v0.2l0.1,1.2c0,1-0.1,2-0.3,3.1l-0.3,1.6l-1.2,4.4l0,0.1v0.1l-0.2,0.5l-0.1,0.1v0.1l-0.3,1.9
							l-0.1,1.7c0,1,0.1,2.1,0.3,3.3c0.3,1.1,0.6,2.1,0.9,2.9c0.2,0.5,0.6,1.2,1.2,2.3c0.6,0.9,1,1.5,1.3,1.8c0.4,0.5,0.8,1,1.2,1.4
							c0.6,0.6,1.2,1.2,2,1.9l-2.3-2.5c-0.5-0.6-0.9-1.1-1.2-1.7l-0.3-0.4l-0.3-0.8l-0.1-0.4c0.3,0.5,0.8,1.1,1.4,1.9l2,2.3l0.4,0.3
							l0.4,0.3l0.1,0.3l0.3,0.3c0.2,0.3,0.4,0.5,0.6,0.6l3.9,2.9c0.8,0.6,1.3,1,1.5,1.3h0.8l1,0.8l10.5,4.1l4,1.2
							c0.5,0.2,1.4,0.4,2.6,0.7c1.8,0.5,3.1,0.8,3.9,1.1c-0.2,0-0.3-0.1-0.4-0.2c-0.2-0.2,0-0.2,0.6-0.1c0,0.2,0.6,0.4,1.8,0.6
							c1.3,0.3,2,0.6,2.1,0.8l3,0.9c1.2,0.3,1.6,0.3,1.1,0l2.8,1.3c0,0.1-0.3,0-0.8-0.1l1.8,0.6c0.8,0.2,1.4,0.3,1.6,0.4l-1.6-0.6
							l4.1,1.1l0.4,0l0.1,0.1h0.1l0.3,0l0.1,0.1h0.1l0.8,0.1h0.4l0.3,0h0.1c0.1,0,0.2,0,0.3,0l1.2,0l0.3-0.1h0.2l1.7-0.4l0.9-0.4
							l0.3-0.1l0.6-0.3l1.3-0.9l0.6-0.4l1.1-1.1l-1.1,0.8l-0.1,0.1l0,0l-0.5,0.3l-0.1,0l-0.1,0l-0.5,0.3l0.8-0.5l0.4-0.3l0.1-0.1
							l1-0.9l0.2-0.1l0.1-0.2l0.3-0.2l0.1-0.1l1.8-2.1l0.1-0.1l0.1-0.1l0.1-0.1l0.2-0.2v0l0-0.1l0.2-0.1l0.2-0.3l0.1-0.3l0.7-0.9
							l0.1-0.2l-0.6,1.2l0,0.1l-0.1,0.1v0l-0.1,0.1l-1.5,2.3l0.1-0.1l0.1-0.2l0.2-0.2l0.1-0.1l0.4-0.5l0-0.1l0.2-0.1v0l0.1-0.1
							l0-0.1l0.1,0l0.1-0.1l0.1-0.2l0.2-0.4l0,0v0l0.3-0.5l0.1-0.1l0.2-0.4l0.1-0.3l0.1-0.3l0.5-1.4l0.5-2.9v-0.2l0-0.3v-0.8
							l0.1-0.2v-1l-0.3-3.8l0.1,1.5l-1.6-8.9l-0.2-0.4l0,0v-0.1l-0.3-1.3V290l-0.1-0.3l-0.1-0.5l-0.1-0.3v-0.1l-0.1-0.1l-0.6-3.7
							v-0.3c-0.2-1.2-0.3-2.7-0.3-4.5c0-1.3,0.1-2.7,0.3-4l0.6-3.8l0.1,0v-0.2l0.1,0V272l0.1-0.3l0.2-1.3l-0.4,1l-0.1,0.1l-0.1,0
							l-0.3,0.6v0.1l-0.1,0l-0.1,0.2l0.1-0.2l0.1-0.1v-0.1l0.1,0l0.2-1.3l0.1-0.1v-0.1l0.3-2c0,0.2,0,0.4,0.1,0.5l0.5,1.9l0.7-4.8
							c0.2-2.3,0.2-4.6,0.1-7.1c-0.2-5.1-0.9-10.8-2-17.3l-1.1-5.8l0-0.2v-0.1l-0.1-0.1l-0.1-0.6v-0.1l-0.1-0.1l-1.1-3.5l-0.1-0.3
							c-0.1-0.4-0.3-0.8-0.6-1.2c-0.3-0.7-0.8-1.4-1.3-2.3c-0.9-1.3-1.8-2.6-2.9-3.7c-0.7-0.9-1.7-1.8-3-2.9l-1.2-1l-5.2-3.4
							l0.8-0.7v0l0.9-0.8l2.9-3.2l6.4-8.6l-0.3,0.6c0.7-0.8,1.6-2.1,2.6-3.7l3.1-4.9l-0.4,0.6l-0.3,0.3c-0.1,0.1-0.1,0,0.1-0.3
							l1.4-2.5l0.1-0.1l0.1-0.1l0.1-0.1l4-8l0.8-3c0.3-0.8,0.6-1.6,1-2.5l1.4,0.8l0.4,0.1l1.9,1.1l0.8,0.6l-0.3-0.1l3.9,2.4
							c-0.2-0.2-0.4-0.3-0.4-0.4c0-0.1,0.2-0.1,0.6,0.2l4.1,2.4l1.4,0.4l7.8,3.2c2.4,0.8,4.3,1.4,5.7,1.8c1.8,0.5,4,1,6.4,1.4
							c2.3,0.4,4.5,0.6,6.6,0.7c0.2,0,0.4,0.1,0.8,0.1l3.6,0.1l0.4-0.1h0.8l0.2-0.1h0.5l1-0.1h0.4l6.9-0.8l9.2-1.8
							c1.9-0.4,3.8-1,5.7-1.6c2-0.6,3.9-1.4,5.8-2.4c1.3-0.7,2.3-1.2,3-1.6l5.4-4c0.8-0.7,1.6-1.6,2.3-2.5c1.4-1.7,2.5-3.5,3.4-5.3
							l0.6-1.4l0-0.2l0.2-0.4V172l0-0.1v-0.1l0-0.1l0.1-0.2l0-0.3l0.6-2.1c0.3-0.8,0.7-1.7,1-2.8l0.7-3l-0.2,0.6
							c0,0.1-0.1,0.1-0.1,0.1c0,0,0-0.3,0-0.8l0.4-2.5l0-0.5v-0.2l-0.1-0.4l0.1-0.4l-0.1-5.3l-0.1-0.3v-0.3l-0.3-1.5V152l0-0.1
							l-0.1-0.6c-0.2-0.9-0.5-1.8-0.8-2.6c-0.3-0.8-0.7-1.8-1.3-2.8l-0.9-1.5v-0.1h0l0-0.1l-0.3-0.4l-0.1-0.1v-0.1l-0.1-0.1
							l-0.1-0.2l-0.2-0.3l-2.1-2.3c-0.8-0.8-1.6-1.5-2.5-2.2c-1.1-0.8-2-1.4-2.9-1.8l-1.2-0.6l-0.6-0.2l-0.2-0.1l-0.4-0.1l-0.9-0.2
							c-1.2-0.3-2.3-0.5-3.3-0.6c-0.7-0.1-1.8-0.1-3.1,0l-0.1,0.1h-0.2l-0.4,0h-0.3l0,0.1h-0.3l-0.5,0.1l-4.8,0.5
							c-0.8,0.2-2.2,0.4-4.2,0.6l-3.7,0l-0.2,0.1h-0.3l0.3-0.1h-1.1l-10.3-0.7c-0.4,0-1,0-1.9-0.1h-0.9c-0.2,0-0.5-0.1-0.9-0.1h-0.3
							l-0.6-0.1h-0.2l-0.1,0l-1.4-0.2l-4.2-1l0.4,0.2l-1.5-0.4l-0.9-0.3c-0.8-0.4-1.5-0.7-2-0.9c0.1,0.2-0.3,0.2-1.1,0.1l-2.1-0.4
							l0.1-0.1l-3.2-0.8c-2-0.6-3.3-0.9-3.8-1.1l0.2-0.1c-0.8-0.2-2-0.6-3.7-1.1l-10.2-4.4c-0.1-0.4-0.2-0.8-0.3-1.3v-0.2l-3-14.9
							V108l-0.1-0.1v-0.1c0,0-0.1,0.1-0.2,0.1h-0.6l-3.1-0.3c1.8,0.1,3.1,0.2,3.9,0.3v-0.2c0-1.1,0.2-2.3,0.5-3.7
							c0.2-1,0.5-1.9,0.8-2.7l0.9-1.8l0,0.2l0.8-1.2l0.3-0.3l0.1-0.2h0.1v0h0l0.1-0.1v-0.1h0.1v0l0.2-0.2l0.2-0.2l0.1,0l0.1-0.1
							l0.8-0.6c0.6-0.4,1.1-0.7,1.4-0.8l2.6-1l0.3,0L190,95h0.1l0.1-0.1l0.2-0.1h0.2l0.1,0l0.4-0.1l0.3-0.1h0.3l0.1-0.1h0.1l0.1,0
							h0.1l10.3-0.9c0.4,0,0.6,0,0.8-0.1c0.4,0,0.6,0,0.8,0l9.5-1.2l0.6-0.2h0.1l0.1,0h0.1l0.4-0.1h0.1l0.1,0h0.1l0.1-0.1l0.5-0.2
							l0.3,0l0.2-0.1l2.4-0.9c1.2-0.5,2.4-1.2,3.8-2.1c1.1-0.7,2.3-1.7,3.5-2.8l0.2-0.2v0l0.7-0.8h0.1V85l0.2-0.2l0.1-0.2l0.1-0.1
							l0.2-0.3h0v-0.1l0.4-0.4l1.5-2.4l1.4-3.2c0.4-1.3,0.7-2.8,0.9-4.3l0.1-3l-0.1-0.2v-1c-0.1-1.3-0.3-2.7-0.6-4
							c-0.2-1.1-0.6-2.3-1.1-3.7c-0.3-0.9-0.8-2-1.5-3.4l-0.1-0.1v0l0-0.1l-0.2-0.2l-0.2-0.5l-0.4-0.6l-0.1-0.1l-0.1,0l-0.1-0.1
							l-0.1-0.2l-0.2-0.4l-0.5-0.8l-6.1-7.5l-0.1-0.1l-0.1-0.1l-5.3-6.3l-0.3-0.5l-0.1-0.1l-0.1-0.1l-0.1-0.3l-0.1-0.2l-0.1-0.1h0
							v-0.1l0,0.1l-0.4-0.7l-1.1-2.3c-0.6-1.4-1.3-3-1.9-5l0.2,0.5l0,0.4c0.1,0.3,0.1,0.3,0,0.2l-0.6-1.3l-0.1-0.3l-0.1-0.2
							l-0.1-0.4l-1.4-4.5c-0.1-0.1-0.2-0.4-0.3-0.9l-1.4-5c-0.7-2.3-1.4-4.5-2.2-6.6c-0.4-1-0.9-2.4-1.8-4.2l-1.1-2.3L202,7.1
							l-3-5.4v0l-0.1-0.1l-0.2-0.3l-0.4-0.7l-0.1-0.1v0l-0.1-0.1L197.9,0c-1.2-1.8-2.7-3.4-4.3-5c-1.5-1.5-3.2-2.8-5.2-4.1
							c-0.7-0.5-1.6-1.1-2.8-1.8l-2.8-1.5l-8.8-3.8l-8.6-2.7l-0.4,0l-3.7-0.9l-0.9-0.2c-3.2-0.6-6.3-1.1-9.3-1.3l-0.9,0
							c-0.2,0-0.6-0.1-0.9-0.1l-0.9,0c-0.2,0-0.5-0.1-0.8-0.1h-0.8l-0.4,0h-1.9l-0.1,0h-0.2l-3.9,0.3l-0.1,0h-0.3l-10.3,1.5l-6,1.5
							l0.6-0.3l-9.3,3l-0.2,0.1l-0.2,0.1l-6.1,2.5l0,0.1h-0.1L99.5-8.1 M113.3-2l4-1.7l0.1-0.5l2.5-0.8l1.7-0.3l2.3-0.8l0.8-0.4
							l1.2-0.4l7.4-1.6l0.2-0.1l0.1-0.1l1.6-0.1h0.4c0.2,0,0.3,0,0.3,0l0.7-0.3l0.4-0.1l2.9-0.3c0.2-0.1,0.2-0.1-0.1-0.1
							c-0.4,0-0.7,0-0.8-0.1l1.6-0.2h0.1l1.9-0.2c0.7,0.1,1.1,0.1,1.1,0.2c0.1,0.1-0.2,0.1-0.9,0.2h1.4l0.3-0.1l0.3,0.1l2.8,0
							c2.4,0.1,4.9,0.3,7.4,0.7l1.8,0.3h0.2l0.1,0.1l5.4,1.1l8.1,2.6l0.1,0h0.1l0.3,0.1l6.8,3.1l2.1,1.2c0.3,0.1,0.9,0.5,1.9,1.2
							l0.3,0.1l0.2,0.2l2.8,2.3c0.7,0.7,1.5,1.6,2.3,2.7l1.2,1.8l0.3,0.6l0.3,0.4l1.8,3.4c0.4,0.9,1.1,2.5,2,4.8l-0.1-0.6l-0.3-1
							l-0.1-0.3l-0.5-1.5l-0.2-0.4l-0.1-0.3c-0.2-0.5-0.3-0.9-0.3-1.1l1.6,3.7c0.1,0.3,0.2,0.6,0.4,0.8l-0.1,0.3l0.2,1.1l0.1,0.5
							l1,3.9c0.2,0.9,0.2,1.5,0.2,2l0.5,0.6l0.1,1.3l0.1,0.3l0.1,0.1v0.1l3.7,12.4l0.6,1.5c0.7,1.6,1.4,3.1,2.3,4.5l0.6,0.9l0.1,0.1
							l0.5,0.7l0.1,0.1l0.1,0.1v0h0v0l0.5,0.6l0,0.1l0.1,0.1l0.6,0.8l0.1,0.2l0.1,0.1l3.3,4c-0.1-0.2-0.2-0.3-0.3-0.5
							c-0.1-0.3,0.1-0.2,0.6,0.5c0,0.1,0.5,0.8,1.6,2l1.2,1.3l0.1,0.2l0.1,0.1l0.2,0.3l0.2,0.4l3.2,3.8c0.2,0.2,0.2,0.1,0.1-0.3
							l0.6,1.3l0.2,0.3l0.2,0.3l0.1,0.1l0.2,0.4l0.1,0.2l0,0v0l0-0.1v0l0,0.1h0l-0.1-0.1l0.1,0.1l-0.2-0.3l0.1,0.2l0.1,0h-0.1
							l0.1,0.1l0.3,0.4h0.1v0.1l0.1,0.2l0.8,1.6l-0.5-1.4l0.2,0.3l0.8,2.1l0.7,3.8v0.3l0.1,0.3v0.4l0,0.1v0.7l0.1-0.1l0.1-0.5
							l0.1-0.1v-0.2l0-0.3l0.1,0.2v0.1h-0.1l0,1.3l-0.3,1.2c-0.3,0.7-0.6,1.2-0.9,1.4l0.2-0.4v-0.1l0-0.1l0.1-0.4l-0.1,0.1l-0.1,0.2
							l0,0.1l-0.1,0.3l-0.5,1l-0.3,0.3l-0.1,0.1l-0.1,0.1V76l-0.1,0.1l-0.4,0.5v0h-0.1l-0.1,0.2l-0.6,0.6l-0.2,0.1l-0.1,0.2
							l-0.2,0.2l-0.1,0.1l-0.1,0.1l-1,0.7l0.9-0.4c-0.6,0.4-1.2,0.7-1.8,1l-1.6,0.6h0l0,0l-0.1,0.1l-0.3,0.1l-1.2,0.3l-0.3,0.1
							l-7.7,0.9c-0.4,0-0.6,0-0.8,0l-6.8,0.6c-1.1,0.1-2.3,0.2-3.5,0.4l-0.4,0.1h-0.2l-0.1,0.1h-0.1l-0.9,0.2H189l-0.1,0.1l-0.2,0
							l-0.4,0.1l-0.1,0.1h-0.1l-0.3,0l-3.8,1.2c-2.1,0.8-3.9,1.7-5.3,2.8c-0.6,0.4-1.2,0.9-1.9,1.4l-0.4,0.5l-0.2,0.3l-0.6,0.5
							l0.3-0.3l0.2-0.2l0.1,0l0.1-0.1l0.3-0.2l0.2-0.1h0l0.1-0.1l0.2-0.1l0.3-0.3l1.1-0.6l-1.4,1.2v0.1H177l-0.8,0.8l-0.1,0.1
							l-0.4,0.4l-1.3,1.8c0.1-0.2,0.4-0.8,0.7-1.7l0.4-1l0.3-0.4l-0.3,0.3h-0.1l-0.1,0.1l-0.6,0.7l-0.1,0.2l-0.4,0.5l-0.3,0.3
							c-0.4,0.4-0.8,0.9-1.1,1.6l-1.1,1.9c-0.4,0.8-0.7,1.5-1,2.1c-0.3,0.7-0.6,1.5-0.9,2.4c-0.5,1.6-0.8,3.3-1.1,5.2l-0.2,2.4v0.3
							c0,0.1,0,0.1,0,0.2v0.8l0,0.2v0.6l0.1,0.1v0.3l0.1,0.4v0l0.1,0.1v0.2l0.6,3.4l0.1,0.3l1.7,8.5l0.1,0.3l0.8,4.3
							c0.6,3.6,1,7,1.1,10.2c0.1,1.7,0.1,3.3,0,4.8l-0.1,0.3l0,1.3l-0.1,0.1v0.5l-0.1,0.3v0.3l-1.2,7.4l-1.6,6.4
							c-0.2,0.6-0.4,1.1-0.6,1.5c0,0.1-0.1,0.2-0.1,0.2c0,0-0.1-0.1-0.1-0.2c0-0.7,0-1.1,0-1.1l-0.4,2.1l-0.1,0.9
							c0,0.2,0,0.5-0.1,0.7l-0.5,1.7c-0.2,0.6-0.2,0.4-0.1-0.8l-0.4,1.1l0,0.3l-0.1,0.1l-0.1,0.1l-0.1,0.4c-0.2,0.7-0.2,1.1-0.2,1.1
							c0.3-0.7,0.5-1.2,0.8-1.3l0.2-0.1l0.1,0v0l0.1,0c0.1-0.1,0.3-0.2,0.4-0.3l-0.1,0.3v0l-0.1,0.1l-1.3,4.1l-0.2-0.3
							c-0.1,0.3-0.2,1.1-0.4,2.3l-0.9,3.3l-2.8,6.9c-0.7,1.7-1.5,3.4-2.5,5.3l-6.3,9.9l1.6-2.9l-2.1,2.9c0.3-0.3,0.4-0.3,0.3-0.2
							c0,0-0.2,0.3-0.6,0.9c-0.7,0.9-0.8,1.2-0.5,0.8c-0.6,1-1.4,2.3-2.5,3.8l-0.2,0.2l-0.1,0.3l-5.8,6.5l-0.1,0.2l-0.1,0l-0.1,0.1
							l-0.1,0.1l-0.1,0.1l-0.1,0.1l-0.4,0.3l-0.1,0.1l0,0h0.1l-0.1,0.1v-0.1l-0.8,0.7l-0.3,0.1l-0.5,0.4l-0.2,0.5
							c-1-0.2-2.1-0.5-3.2-0.9c-2.7-0.9-6-1.7-9.8-2.5l-9.8-1.8c0-0.1,0.3-0.1,1-0.1l1.8,0.2l-2.9-0.6c0.7,0.2,0.4,0.3-0.7,0.1
							c-1-0.1-1.3-0.1-0.9,0l-7.7-0.8c-1.4-0.2-2.7-0.4-3.8-0.4c-0.4,0-0.7,0-0.9,0l-1.7,0c-0.4,0-0.6,0-0.8,0.1l-5,4.5l-3.1,2.1
							c-0.5,0.4-1,0.7-1.3,0.9l-1.6-0.6l1.6,0.8l0,0l0.1,0.1l1,0.3l0.3-0.2c1,0.3,1.6,0.5,1.8,0.6l0.4,0.2l1.3,0.5c0,0-0.1,0-0.3,0
							l-0.8-0.1h-0.1l0-0.1l-0.2-0.1l-3.3-1.1c0.2,0.1,1.2,0.5,3,1.1l1.2,0.4c0.4,0.1,0.7,0.1,0.8,0.1l0.8,0.4
							c0.1,0,0.1,0.1,0.1,0.1c0,0.1,0.4,0.3,1.2,0.6l2.8,0.4l0.4,0.1h0.2l0.2,0.1l1.9,0.3l0.3,0.1l0,0.1l2.4,0.4h0.4l7.2,0.6
							l1.5,0.4h-0.5l7.1,1.5c-0.5-0.2-0.7-0.3-0.8-0.3c-0.1-0.1,0.3-0.1,1,0.1l7.2,2l0.6,0.1h0.3l1.4,0.2l4.3,1.4l8,3.4l0.2,0.1
							l4.3,2.6l3,2.5l0.2,0.2l0.2,0.2l0.1,0.2l0.8,0.8l1,1.5c0.4,0.7,0.7,1.2,0.8,1.5l0.2,0.3l0.1,0.2l0.1,0.2l0.1,0.2l0.1,0.1v0.1
							l0.1,0.3v0.1l0.1,0.1v0.2l0.1,0.3v0l0.1,0.2l0.3,1.6c0.4,1.7,0.7,3.3,0.9,4.9c0.5,2.7,0.9,5.7,1.3,9.1c0.3,2.6,0.4,5,0.5,7.4
							l-0.3,4.9v-0.4l-0.3,1.6v0.1l-0.1,0.1l-0.1,0.6l-0.1,0.1v0l0,0.1v0.1l-0.1,0.3l-0.1,0.1v0.1h-0.1l-0.6,2.1l-0.1,0.5l-0.1,0.3
							l-0.1,0.3c-0.3,1.7-0.6,3.3-0.7,4.9l-0.1,1.3v0.6l-0.1,0.4l-0.1,2.9c0.1,2,0.2,3.8,0.4,5.4l0.4,3l0.1,0.1v0.2l1.6,8.8l0.2,3.4
							l0,0.3v0.5l-0.1,0.2v0.1l-0.1,0.6l-0.1,0.3l0,0c-0.2,0.2-0.4,0.5-0.7,0.8l-0.3,0l-0.3-0.1h-0.1l-17.7-5.2
							c-1.3-0.6-2.8-1.1-4.4-1.7l-4.4-1.5c0.6,0.3,0.9,0.4,0.8,0.5c-0.1,0.1-0.5,0-1.1-0.3l-3.4-1.4l-1.4-0.4
							c-0.3-0.1-0.7-0.2-1.2-0.5l-3.8-2c-0.6-0.4-1.3-0.8-1.8-1.3c-0.6-0.4-1.2-0.9-1.8-1.5c-0.4-0.4-0.7-0.9-1-1.5l-0.2-0.6v-0.6
							l0-0.1v-0.1l0.1,0v-0.2l0.1-0.1l0-0.3l0.2-0.6l0.6-2.4c0.5-2.1,0.9-3.8,1.1-5c0.2-1.8,0.3-2.7,0.3-2.8c0.1-0.9,0.1-1.9,0-2.9
							l-0.3-2.8l-0.7-2.5v-0.1l-0.1-0.1l-0.1-0.2l-0.1-0.2v0l0,0l-0.1-0.2l0-0.1v-0.1l-2.4-4.6l-0.4-0.5c-0.9-1.3-1.9-2.6-3.1-4
							l-3.6-3.6l-0.2-0.2l-0.1-0.1l-0.1-0.1l-0.7-0.6l-0.2-0.1h0l-0.5-0.4l-0.2-0.1l-0.1-0.1l-1.8-1.2l-0.2-0.1l-0.2-0.1l-0.5-0.3
							l-0.1-0.1h-0.1l-0.1-0.1l-0.6-0.2l-0.3-0.1l-1.4-0.6l-6-1.4l-13-0.4c-0.2,0-0.6,0.1-1,0.1l-2.9,0.2l0.5-0.1l-4.3,0.3l-4.3-0.5
							h-0.2v0h-0.1l-0.2-0.1h-0.1l-0.1-0.1h0l-0.3-0.1l-0.2-0.1l-0.2-0.1l-0.4-0.1l-3.6-1.7l-10.5-6.1c-0.7-1-1.4-2.1-2.1-3.3
							l-1.6-2.9l0.3,0.7l-1.3-2.4l-1.5-4.9c-0.1,0.2-0.2,0.1-0.4-0.3l-0.4-0.6l-1.3-3.9h0.1l-1.1-5.1l-0.6-6.4l0.2,0.1
							c-0.1-1.7,0-3.8,0.3-6.3l0.1-0.9c0.2-0.2,0.3-0.5,0.4-0.8l0.5-0.9l2.3-6.9c0.1,0,0.1,0,0.2,0.1l0.6-2.7c0,0,0.2-0.1,0.5-0.3
							c0,0,0-0.2,0.1-0.7l0.9-3.4l0.3-0.8l-0.4-0.2c0.1-0.3,0.2-0.5,0.4-0.5c0.2,0,0.3-0.2,0.3-0.5c-0.2-0.2-0.1-0.5,0.1-0.9
							c0.2-0.5,0.3-0.8,0.3-0.9l0.2-0.1c0.1-0.1,0.1-0.1,0.2-0.1c-0.1-0.1-0.1-0.2-0.1-0.4c0.1-0.2,0.2-0.3,0.2-0.4
							c0,0-0.1,0-0.3,0.1l0-0.6c0.1-0.1,0.2-0.1,0.3-0.1c0.1,0,0.1,0.1,0.1,0.2l4.3-10.4c-0.1,0-0.2,0.2-0.4,0.4
							c-0.1,0.1-0.2,0.2-0.3,0.3l0,0l-0.1-0.3c0-0.1,0.1-0.1,0.1-0.1c0.1-0.1,0.1-0.3,0-0.4c0.2,0,0.4-0.1,0.6-0.4l0.3-0.4
							c0.1-0.1,0.3-0.2,0.4-0.2l-0.3-0.3l0.3-0.1c0.2-0.7,0.3-1.1,0.3-1.2c0.1-0.1,0.3-0.4,0.5-1c0.1-0.3,0.2-0.7,0.3-1.2
							c0-0.4,0.1-0.7,0.2-0.8c0,0-0.1,0.1-0.2,0.1c-0.1,0-0.1-0.1-0.1-0.2c0.1,0,0.2-0.1,0.2-0.4c0-0.3,0.1-0.4,0.2-0.4
							c0.3-0.7,0.2-1-0.1-0.9c0.1,0,0.2-0.1,0.5-0.3c0.2-0.1,0.3-0.1,0.3,0.1c0.2-0.4,0.3-0.6,0.3-0.7l-0.3,0.3
							c0.1-0.2,0.2-0.5,0.5-1c0.2-0.3,0.2-0.6,0.1-0.8l-0.3,0.3c0.2-0.6,0.4-0.9,0.8-1l-0.1,0.6l0.3-0.6l0.3-1.5l-0.1,0.3
							c0-0.2,0.2-1.3,0.7-3.3c0.5-1.8,0.7-2.9,0.7-3.3l-0.5,0.2l0.1-0.8c0.5,0.4,0.7,0.7,0.8,0.8l4.7-10.1c0.2-0.2,0.3-0.2,0.4,0
							c0.1,0.1,0.1,0.1,0.2,0.3c0.1-0.2,0.1-0.4,0-0.6c0-0.1,0-0.2,0.1-0.4c0.2-0.2,0.3-0.1,0.3,0.3c0.2-0.3,0.3-0.4,0.2-0.5
							c-0.1,0.1-0.3,0.1-0.4,0.1c-0.2-0.1-0.4-0.1-0.5-0.1l0.4-0.7l0.2,0.1l-0.1-0.5c-0.1-0.3,0-0.6,0.1-0.9l2-3.4
							c0.1,0.1,0.1,0.3,0,0.7c0.2-0.3,0.3-0.4,0.4-0.5c-0.2,0-0.2-0.1-0.2-0.3c0-0.2,0-0.2,0-0.2c-0.1-0.4,0.1-0.9,0.4-1.5l0.3-0.8
							l0.1-0.7l-1.2-1l11.4-6.1l2.1-0.7l0.3-0.1l1.1-0.3l0.5-0.3l0.4-1.2c0.3-0.9,0.5-1.6,0.5-2.3c0-0.9-0.3-1.6-1-2
							c-0.5-0.3-1-0.4-1.5-0.5l-0.3,0h-0.8l-1.3,0.2l0.1-0.2l-3.5,1.3c-0.4,0.1-0.6,0.2-0.5,0.2l1.8-0.7c-0.3,0.1-0.4,0.1-0.3,0
							l1-0.5l-2.1,0.7c-0.2,0.1,0,0.1,0.6-0.1l-1.6,0.8c-0.5,0.3-1.1,0.5-1.8,0.8c-0.6,0.3-0.9,0.4-1,0.3H74l-7.1,3.3l-2.9,1.7h0v0
							h0l-0.2,0.1l-0.8,0.4l0.5-0.4l-0.5,0.3l0,0h0l-0.1,0.1c-0.2,0.1-0.2,0.2-0.3,0.3l-0.2,0.1c0,0-0.1,0-0.2,0H62l-0.2,0.1
							l-0.3,0.4l-9.3,5.6l0,0.1h0l-0.1,0.1l-9.4,6.9c-0.1,0,0-0.1,0.3-0.3l-3,2.5l-0.3,0.3c-0.1,0.1-0.2,0.1-0.3,0.2l-4.3,3.9
							l-0.8,0.6l-0.5,0.3c0.1-0.1-0.5,0.6-1.8,2.1l-0.9,1.1l-0.1,0.1l-0.6,0.7l-0.1,0.2l-0.8,0.9l-0.1,0.2h-0.1v0.1l-0.1,0.2
							l-0.2,0.3l-0.2,0.2l0,0.1l0,0.1v0.1l-0.6,0.8l-0.1,0.1l0,0.1v0.1l-0.4,0.6c-0.7,1.1-1.3,2.2-1.9,3.4c-0.7,1.4-1.1,2.5-1.4,3.2
							l-1.1,3.4l0.3,0.4l-1,3.1l-0.1,0.7l-0.1,0.1l0,0l0,1l0,0.1v1l-0.3,1.8c-0.4,1.6-0.6,2.6-0.6,2.9l-0.3,0.7
							c-0.1,0.4-0.2,0.6-0.3,0.6c0.1,0.3,0.1,0.6-0.1,1.1l-0.4,1.4c0,0.2,0.1,0.1,0.3-0.4l-0.4,2.1c-0.2,0.4-0.3,0.6-0.4,0.6
							c-0.1,0-0.1-0.2,0-0.6l-0.8,2.4l0,0.3v0.1l-0.1,0.3v0.1L19,187v0.1l0,0l0,0.1v0.1l-0.1,0l0,0.1l-0.1,0.1
							c-0.2,0.3-0.4,0.6-0.6,0.8c-0.3,0.3-0.6,0.6-1.1,0.9l-1.8,0.8l-2.2,0.6c-0.7,0.1-1.5,0.3-2.6,0.3L5.9,191l-0.1-0.1H5.2
							l-2.5-0.4c-0.8-0.2-1.5-0.5-1.9-0.7l-1.6-0.8l-0.3-0.3l-0.5-0.3l-2.4-1.9c0.1,0.2,0.4,0.5,0.9,1l0.7,0.8l0.1,0.3l-0.4-0.2
							l-0.3-0.2l-0.9-0.8l-0.4-0.2l-0.1-0.4l-0.1-0.1l-0.1-0.2l-0.4-0.3l-0.7-0.9l-0.1-0.3l-0.2-0.2l-0.3-0.5l-0.2-0.4l-0.4-0.1
							l-0.3-0.7l-0.5-0.6l-0.1-0.2l-1-1.4l-0.8-1.5l-0.1-0.2l-0.8-1.8v0l-0.1-0.2l-0.1-0.3v0l-0.1-0.1v-0.1L-11,176l-0.8-2.3
							c-0.3-1-0.4-1.9-0.4-2.5l-0.1,0.4c0,0.1,0,0.1-0.1,0.1l-0.1-0.4c0.1,0,0.1-0.2,0.1-0.4l-0.2-1v-0.6c0-0.3,0-0.5,0.1-0.5
							c0-0.3,0-1,0.1-2l-0.1-0.8c0-0.3-0.1-0.2-0.2,0.1l0.4-1.4c0.2-0.7,0.3-0.7,0.3,0c0.3-1.4,0.4-2.1,0.4-2.1l-0.1,0.3l-0.1,0.2
							l-0.2,0.5l0.6-2.6l0.3-0.7c0.3-0.9,0.5-1.8,0.7-2.8l-0.5,1l0.9-2.7l0.6-0.9l-0.5,1.8l2.5-6.7l-0.4,0.8
							c0.3-0.9,0.8-2.3,1.7-4.2c1-2.2,2.1-4.3,3.1-6.3l3.6-6.6l0.1-0.2l0-0.1v-0.1l0.4-0.6l0.3-0.6l0.3-0.4l0.4-0.9l0.2-0.3l0.1-0.3
							l-1,0.9l1.2-2.1c-0.1,0.2-0.1,0.4,0,0.9c0,0.4,0,0.7-0.1,0.8l1.8-2.3c0.8-1,1.8-2.1,2.9-3.4c1.2-1.3,2.5-2.6,4-3.8l7.2-5.6
							l2.5-1.6c1.6-1,3.3-1.9,4.9-2.7c1.6-0.8,3-1.5,4.1-1.9l2.6-1.1l0.9-0.2c0.1,0,0.2,0.1,0.1,0.2l-0.5,0.5l1.1-0.6l0.4-0.3
							c0.2-0.2,0.6-0.4,1.3-0.6c0.3-0.1,0.4-0.1,0.2,0.1l-0.5,0.3l1.2-0.4c0.4-0.2,0.5-0.3,0.5-0.3c-0.4,0.1-0.7,0.1-0.9,0
							c-0.2-0.2-0.4-0.4-0.4-0.4l2.5-0.9v0.3c0.4-0.3,0.8-0.5,1.1-0.8c0.7-0.4,1.6-0.8,2.7-1.1l13.6-3.5c0,0.1-0.2,0.2-0.6,0.3
							l-1.3,0.5l2.1-0.4c-0.4,0-0.3-0.1,0.4-0.3c0.6-0.2,0.8-0.2,0.5-0.2c1.3-0.5,3.1-1,5.4-1.3c0.9-0.2,1.7-0.3,2.3-0.5
							c0,0,0.1,0.1,0.1,0.1c0.2,0.1,0.5,0.2,0.9,0.1l2.3-0.7l3-1.5l0.9-0.5l-0.1,0.3l1.6-1.4l0.1-0.2l0.4-0.4l0.2-0.2l0.2-0.2L75,94
							l0.1-0.1l0.1-0.2l0.1-0.1l0.3-0.6l0.1-0.1l0.1-0.1l0.1-0.2v-0.1l0.1-0.1l0.1-0.2v-0.2l0.1-0.1v0.1l0-0.1v-0.1l0.1-0.1l0-0.2
							l0.1-0.1v-0.1l0.1-0.4v-0.1l0.1-0.1v-0.2l0-0.3v-0.1l0.1,0v0.1l-0.1,0.1v0.6l0,0l-0.1,0.3v0.1l0,0L76.2,92v0.2l-0.1,0.1v0.1
							L76,92.6l-0.3,0.8l-0.9,1.3l0.6-0.7l0.1-0.2l0.1-0.2l0.1-0.1l0.2-0.4v0l0.1-0.1l0.1-0.2l0.1-0.1v-0.1l0-0.1l0.1-0.2l0.1-0.1
							l0-0.1l0.1-0.4l0.1-0.3l0-0.3v-0.2l0.1-0.1v0l0-0.3V90l0-0.1v-0.1L76.5,89v-0.4l-0.1-0.4l-0.1-0.5v-0.3c0-0.2,0-0.2,0,0V88
							l0,0.4l-0.3-1.5l0-0.1v-0.2l-0.1-0.7l0-0.1v-0.2l-0.1-0.4l-0.1-3.4l0.2-0.3c0.1-0.1,0.1-0.2,0.1-0.4l0.1-0.6l0.1-7.9
							c0.1-2.6,0.3-5,0.5-7.1l1.5-14.2L80.4,37l0.1,0v-0.1l0.3-1.1v-0.1l0.3-0.8v-0.1l0.1,0l0.1-0.4c0.3-1.1,0.7-2.1,1-3l2.7-6.1
							C85,25,85,25,85,25.1l-0.3,0.6l4.8-8.7l0.2-0.2l0.1-0.1l1-1.5l0-0.1v-0.1l0.1,0l0.2-0.3l1.5-2.1l1.1-0.9l0.6-0.4l4.1-4.1
							c0.2-0.1,0.3-0.2,0.4-0.3l3.8-2.9l0.4-0.2l0.1-0.1l2.7-1.7l0.3-0.1l0.3-0.2l6.5-3.2l0.3-0.2L113.3-2 M204.9,142.6
							C205,142.7,205,142.7,204.9,142.6c-0.1,0.1-0.2,0-0.3,0l3.8,1.1c1.7,0.5,2.9,0.8,3.8,0.9c0.5,0.2,0.8,0.4,1.1,0.6
							c-0.1-0.1,0-0.1,0.1,0l1.6,0.3h0.3l0.9,0.1h0.3l0.2,0.1h0.2l0.4,0.1h0.8l0.3,0.1l2.4,0c1.1,0.1,2.7,0.2,4.7,0.3l2.3,0.2
							l0.2-0.4c0.9,0.1,1.4,0.2,1.6,0.3c0.2,0.2,0.7,0.3,1.5,0.3l0.1-0.1c0,0,0.1,0,0.1,0h0l0.1-0.1l0.3-0.1l3.1,0.1l0.4,0.1h0.4
							l1.1-0.1l0.6,0.1c0.5,0,0.7,0.1,0.6,0.1c0.1-0.1,0.2-0.1,0.4-0.1l1.8-0.1c0.1,0-0.1-0.1-0.4-0.1l1.8-0.3c0.4,0,0.6,0,0.7,0.1
							c0.1,0.1-0.1,0.1-0.5,0.2l6.4-0.7l0.5-0.1h0.2l0.1-0.1h0.6l0.2-0.1l1.3,0.1c0.4,0,0.8,0.1,1.3,0.3c0.5,0.2,0.9,0.4,1.2,0.6
							c0.9,0.5,1.7,1.1,2.4,1.9l1.3,1.6v0l0.1,0.1l0.1,0.3l0.1,0.1v0l0,0.1l0.1,0.1l0.4,0.6l0.5,1.3l0,0.1v0.2l0.4,1.6
							c0.1-0.3,0.1-0.6,0-0.9v-0.1l0-0.1V153l0.1-0.4l0.1,0.3v0l0,0.1v0.2l0.1,0.6v0.1l0.2,0.3l-0.1,0.1l-0.1,0.1l0,0.3v0.8l0,0.4
							v0.5l-0.1,0.4l-0.1,0.1l0,0.1l-0.1,0.1l0.3,0.3l-0.2,0.5l0,1.8l-0.1,0.8v0.2l-1.3,5.4c-0.2,0.8-0.4,1.5-0.6,2
							c0.1-0.1,0.1-0.2,0.2-0.2c0.1-0.1,0.1,0,0.1,0.3l-0.1,0.1l0-0.1l0,0.1l-0.1,0.3l0,0.1v0l-0.1,0.2l0,0v0.1l-0.1,0.1l0,0.1
							l0,0.1c0,0.1-0.1,0.2-0.3,0.3l-0.6,1.1c-0.2,0.4-0.2,0.6,0,0.6l-0.8,0.6c-0.3,0.2-0.3,0.2-0.1-0.1c-0.5,0.5-0.8,0.8-0.9,1.1
							l0.6-0.4l-1.3,1.2l-0.4,0.3c-0.6,0.4-1,0.8-1.3,1.2l0.3-0.1l0.3-0.1c-0.5,0.4-0.9,0.7-1.3,0.9l-0.6,0.3c-0.2,0-0.4,0-0.5,0
							l1-0.7l-4.2,2.5l0.6-0.3l-1.1,0.6c-0.6,0.3-1.2,0.6-1.8,0.8l-2.3,0.9c-1,0.4-1.8,0.6-2.5,0.9c-1.4,0.4-3.1,0.9-5.1,1.3
							c-1.8,0.4-2.9,0.7-3.2,0.9l1,0.2l-1.8,0.4c0.1,0,0.3-0.2,0.4-0.5c0.2-0.3,0.3-0.4,0.4-0.5l-7.8,0.9l-0.1,0.1l-6.5-0.1
							c-1.4-0.1-2.9-0.3-4.4-0.6l-3.1-0.6l-6.1-1.9c-0.6-0.3-0.8-0.5-0.6-0.6c0.1-0.1,0.3-0.1,0.5-0.1l-0.6-0.1l-0.8-0.1
							c-0.2,0-0.6-0.1-1.1-0.3c-0.1-0.1-0.1-0.2,0-0.2h0.4l-0.3-0.1l-0.6-0.3c-0.2-0.1-0.4-0.1-0.4-0.1c0.3,0.2,0.4,0.4,0.4,0.6
							c0,0.3,0,0.4,0.1,0.5l-1.9-0.8l0.2-0.2c-0.4,0-0.7-0.1-1-0.1l-0.9-0.1l-10.5-5.6c0.1-0.1,0.6,0.1,1.5,0.4l-1.3-0.9
							c0.2,0.2,0.1,0.2-0.4,0c-0.5-0.3-0.6-0.3-0.4-0.2c-0.1,0-0.4-0.1-0.9-0.3l-4.5-2.7c-0.1-0.1-0.2-0.1-0.3-0.2l2.8-9.9
							c0.7-3.4,1.2-5.6,1.4-6.6l0.1-0.4l0.1-0.4l0.8-6.8l0.1-0.1l0.1-2.2l-0.4-7.9c0.4,0.2,0.8,0.4,1.3,0.6l2.4,1.1l0.4,0.1l0.4,0.2
							L204.9,142.6 M87.4,261.4c-0.3,0.3-0.6,0.8-1.1,1.6c-0.6,0.9-1.1,1.6-1.4,1.9c0.2-0.2,0.3-0.3,0.4-0.3c0.1,0,0,0.2-0.3,0.5
							l-2,2.7l-0.7,0.8l-0.1,0.3l-0.4,0.9l-3.2,4.1l-4.4,4.6l-1.8,1.5l-0.1,0.1l-0.1,0l-0.2,0.1l0,0H72v0.1l-0.2,0.1l-0.5,0.3l0,0
							l-8.8,4.6c-0.4,0.2-1.1,0.5-2.2,0.9l-3.8,1l-2.6,0.4l0.2-0.1l-2.7,0.1l-0.2-0.1h-0.5l-0.1,0h-0.3l0,0l-16.8-3.1h-0.1v-0.1
							h-0.1l-0.3,0h-0.1l-0.1,0l-2.1-0.7c-0.7-0.2-1.4-0.5-2.3-0.9l-8.4-4.1l-0.3-0.1l-1.9-1.1c-0.8-0.6-1.7-1.2-2.6-1.6l-2.8-1.4
							c0.4,0.3,0.6,0.5,0.5,0.5l-0.3-0.1l-0.5-0.2c-1.1-0.5-1.9-0.8-2.5-1c-0.3-0.1-0.5-0.2-0.5-0.1H8.7l-1.3-0.3
							C7.2,273,7,273,6.6,272.9l-0.4-0.1L2.2,272l-4.9-0.3l-0.3,0h-0.4l-0.4,0.1H-4l-0.1,0h-0.2v-0.1l-0.2-0.8
							c-0.1-0.4-0.1-1-0.1-1.9l0.3-3.6v-0.1l0.1-0.2l2.2-11l0.1-0.5c0.1-0.2,0.1-0.4,0.1-0.6l0.2-0.8l0.1-0.3c0.7-1.8,1.1-3.2,1.3-4
							v0.3l0.2-0.6l1.4-3l0.1-0.2l0.1-0.1l0.2-0.3l0.3-0.6l0.7-1.1l0.1-0.1v-0.1l2.1-3.1c1.2-1.7,1.9-2.6,2-2.8
							c0.6-0.9,1.3-1.7,1.9-2.4l0.2-0.3l1.1-1.1l0.1-0.1l0.1-0.2l0.6-0.5l0.1-0.1l0.1-0.1l0.1-0.1l-0.2,0.1l0.3-0.3l0.1-0.1l0.3-0.3
							v0.1h0v0.1l0.1,0.1h0.1v0.1h0.1l0.1,0h0.2l0.1,0.1h0.3c0-0.1,0-0.2,0.1-0.3l0.1,0l0.5-0.2l0.4-0.1l1.3,0.1l-0.1,0.1l2.4,0.4
							l0.5,0.1c1.3,0.3,2.5,0.6,3.6,1.1l-0.2,0.2l0.4,0.1l0.4,0.1l0.4,0.1l4.8,2.3l3.5,3.1c0.3,0.3,0.6,0.4,0.8,0.5l0.8,0.6l0.5,0.3
							l0.4,0.3l0.4,0.3l0.3,0.1l1.2,0.7l2,0.8l1.1,0.3c0.8,0.2,1.6,0.4,2.3,0.4c0.4,0.1,1.1,0.3,1.9,0.4h0.2l1.3,2.5l0.2,0.7
							l0.3,0.4l0.2,0.3l0.3,0.3l1.3,1.9l13.1,7.8c1.5,0.8,2.7,1.4,3.5,1.7l2.9,1.1l0.2,0.1l0.4,0.1l0.2,0.1l0.8,0.2l0.2,0.1l1.3,0.3
							H69l0.3,0.1l0.6,0l0.3,0.1l0.4-0.5l2.3,0.4l0.5,0.1l0.5,0.3H74l0.1,0h0.2l0.1,0.1h0.2l0.2,0h1.9l0.7-0.1l0.2,0l1.3-0.3
							l2.8-0.1c2.4,0,3.8,0,4-0.1l0.9,0.1C87.2,261.2,87.5,261.2,87.4,261.4c0.1-0.1,0.2-0.1,0.3-0.1c-0.1,0.1-0.2,0.3-0.3,0.5
							L87.4,261.4 M160.8,305.4l0.2,0.1h0.1v0.1l0.1,0.4v0l-0.6-0.5H160.8z"/>
					</g>
				</g>
			</g>
		</g>
	</g>
</g>
</svg>
