<?xml version="1.0" encoding="utf-8"?>
<!-- Generator: Adobe Illustrator 24.1.2, SVG Export Plug-In . SVG Version: 6.00 Build 0)  -->
<svg version="1.1" id="Layer_1" xmlns="http://www.w3.org/2000/svg" xmlns:xlink="http://www.w3.org/1999/xlink" x="0px" y="0px"
	 viewBox="0 0 256 256" style="enable-background:new 0 0 256 256;" xml:space="preserve">
<style type="text/css">
	.st0{fill:#FFFFFF;}
</style>
<g id="run8">
	<g transform="matrix( 0.6996917724609375, 0, 0, 0.6996917724609375, 57.25,20.7) ">
		<g id="run">
			<g transform="matrix( 1, 0, 0, 1, 0,0) ">
				<g>
					<g id="run_7_Layer0_0_FILL">
						<path class="st0" d="M205.9,44.6c-0.7-2.1-1.4-4-2.1-5.8c-0.8-2-1.7-4-2.8-6l-2.2-3.6v-0.1l-0.1,0l0-0.1l-0.6-1l-0.1-0.1h-0.1
							v-0.1l-0.1-0.1l-0.6-0.8c-0.7-1-1.5-1.9-2.4-2.8c-0.7-0.8-1.6-1.6-2.7-2.4c-1.5-1.3-3.4-2.6-5.6-3.9l-2.8-1.5
							c-0.5-0.2-1.4-0.7-2.8-1.3l-6.1-2.3l-0.2-0.1l-0.1-0.1l-0.3-0.1l-3.6-1.1l-11-2.3l-13.6-0.4L141.9,9h-0.3L140,9.2h-0.3
							l-0.1,0.1l-2.3,0.3l0.6-0.2l-0.4,0.1l-0.4,0.1l-9.8,2.1c-2.6,0.7-5.2,1.5-7.8,2.5c-2.7,0.9-5.5,2.1-8.3,3.4l-3.3,1.5l-0.2,0.1
							l-0.3,0.1l-1.4,0.7l-0.2,0l-0.1,0.1l-0.3,0.1l-2.4,1.4c-2.6,1.5-5,3-7.2,4.6c-1.7,1.2-3.5,2.7-5.5,4.4l-1,1l-0.3,0.2l-0.2,0.3
							L87.3,34l0.8-0.8L80,42.8c0.2-0.1,0.2,0.1-0.1,0.7l-0.1,0v0.1L76.6,50l-0.1-0.2l-4.3,9.6l-2.2,7.2l-0.2-0.3l-1.5,8.7l0,0.7
							c-0.4,2.7-0.7,5.5-0.8,8.2l-0.4,6.5l-0.1,0.2l-0.4,18l0.1,0.5l0.1,4.8l0,0.4l-0.1,0.2l-0.3,4.3l0,0.2v0.3l-2.3,1.2v0l-5.6,2.8
							c-0.6,0.4-1.3,0.7-2,0.9l0.3-0.2l-4.4,2.3c0.1,0,0.2,0,0.2,0c0.2,0,0,0.2-0.6,0.5c-0.7,0.4-1.6,0.8-2.8,1.4l-2.3,1.3l-1.3,1.1
							l-5.7,3.9c-0.1,0.1-0.5,0.4-1.2,0.9l-1.3,1.1c-1.9,1.6-3.7,3.2-5.3,4.8l-6.4,7.4l-6.1,9.3l-0.1,0.1v0.1l-0.7,1.3l-0.1,0.1
							l-0.1,0.2l-0.9,1.8l-0.1,0.2l-0.1,0.4l-1.3,2.7l-0.1,0.4l-0.1,0.3l-1.4,3.6l-0.1,0.4l0.1-0.3l-1.6,5.3c-0.5,2.2-1,4.3-1.3,6.5
							l-0.7,6.3l0.1,8.5c0.1,2.4,0.4,4.8,0.9,7.4c0.3,2,0.9,4.4,1.5,7l2.1,6.7l0.1,0.1l0.6,1.8l0.1,0.1l0,0.1l1,2.6
							c0.2,0.8,0.6,1.8,1.1,3.3l1.4,3.3c-0.2-0.5-0.2-0.8-0.1-0.8c0.1,0,0.3,0.3,0.5,0.8c0.5,1,0.9,1.9,1.3,2.6l2.3,3.6
							c1.4,2,2.1,3.1,2.3,3.3c1.1,1.4,2.3,2.9,3.6,4.3c0.9,0.9,1.8,1.7,2.5,2.3l2.7,1.9l0.2,0.1l0.2,0.1l3.8,1.6l0.7,0.2l0.2,0.4
							l0.3,0.8l0,0.2v0.3l2.8,4.9c0.2,0.3,0.5,0.7,0.9,1.3l2.4,3l0.1,0.1l6,5.6c1.3,1,2.8,2.1,4.4,3.2c-0.1-0.1-0.2-0.1-0.3-0.2
							l0.8,0.5c-0.2-0.1-0.3-0.2-0.5-0.3c0.7,0.6,1.3,1.3,1.8,2l0.8,1l0.5,0.9c0,0.1-0.1,0.1-0.1,0.1l-0.1-0.1
							c0.2,0.3,0.3,0.5,0.3,0.8l0.1,0.4l-0.1,0.5l-0.1,0.3l-0.2,0.1l-0.2,0.1h-0.1l-0.1,0v0.1l-0.1,0.1l0,0.1l-0.1,0.2l-0.3,0.4
							l-0.8,0.8l-0.2,0.1l-0.2,0.1l-1.1,0.9l-0.3,0.3l-0.9,0.8l-6.2,6.1l0.2,0.5l-1.1,1.1l-0.5,0.3c-0.3,0.1-0.7,0.5-1.4,1.3
							c-0.1,0.4-0.3,0.8-0.6,1.2l-2.3,2.9l-0.4,0.6l-0.3,0.5l-0.5,0.6c-0.3,0.4-0.5,0.6-0.5,0.5v0.3l0,0.1l-0.1,0.1l-0.4,0.8
							l-0.1,0.1v0l-0.1,0.1l-0.1,0.1l-0.4,0.8c0,0.2,0,0.2,0.1,0l0.4-0.5l-0.3,0.6l0,0.1l-0.1,0.1l0,0l-0.3,0.8l-0.1,0.3l-0.1,0.3
							c-0.3,0.4-0.5,0.6-0.5,0.6c-0.1,0-0.1-0.1,0-0.5l-1.3,3c-0.6,1.7-1.1,3.3-1.5,4.8c-0.5,1.9-0.8,3.9-1,6l-0.2,5l0,0.1v0l0.2,2
							c0.1,0.8,0.3,1.5,0.5,2.2l1.4,3.8l1.6,2.5c0.9,1.2,2,2.3,3.1,3.2c0.9,0.7,2.1,1.4,3.4,2.1c0.9,0.5,1.9,0.9,3,1.3l2.8,0.8h0.1
							l0.1,0h0.3l0.8,0.2h0.1l1.6,0.3l-0.2-0.1l-1.2-0.4h-0.1l-0.1,0l-0.8-0.3L52,334l0,0h-0.1l-0.1-0.1l-0.3-0.2h0.4l0,0h0.2l0.4,0
							l0.7,0.2c0.6,0.1,1,0.2,1.2,0.1c0.1,0.2,0.3,0.3,0.7,0.5l3.2,0.9l0.4,0.3l0.5-0.4l0.8,0.4l3.3,0.3c0.5,0,0.8,0,0.9,0l3.1,0.4
							l3.3,0v-0.1h0.2l0.2,0l1.3-0.1c1.3-0.2,2.2-0.3,2.8-0.3c-0.1,0-0.3-0.1-0.3-0.1c-0.2-0.1-0.1-0.2,0.3-0.3
							c0,0.1,0.2,0.1,0.5,0.1l0.9-0.1c0.9-0.1,1.5-0.2,1.6-0.1l2.2-0.4l0.8-0.3c0.2-0.1,0.1-0.2-0.2-0.3h1.1c0.1,0,0.1,0,0.1,0h0.4
							l0.2-0.1l0.3,0h0.5l-0.1,0.1h-0.1l-0.1,0l-0.4,0.1l0.5-0.1l1.3-0.4l0.3,0l1.2-0.5l0.2-0.1l-0.8,0.3l-0.4,0.1l-0.1,0.1h-0.1
							l-0.2,0c0.9-0.3,1.9-0.7,2.9-1.3l1.4-0.9l0.2-0.1l0.3-0.2l0.6-0.5c0.7-0.6,1.3-1.4,1.8-2.3c0.5-0.8,0.9-1.6,1.1-2.5
							c-0.3,0.6-0.6,1.2-1.1,1.8c0.4-0.6,0.7-1.3,1-2.2l0.6-2.1v-0.2l0.3-1.4V322h0.1v-0.1l0.1-0.2v0h0.1v1l-0.1,0.8v0.3
							c0.1-0.4,0.1-0.8,0.2-1.3l0.1-0.5v-0.6l0-0.1v-0.2l0.1-0.6l0.3-0.8l-0.2,0.4c0-0.2,0.1-0.5,0.3-0.9l0.3-0.6l2-2.6l0.8-0.8v0
							l0.1-0.1l1.4-1.4l0.2-0.2l0.2-0.1l2.3-2.7l0.3,0c0,0,0,0.1,0,0.2l1.4-0.4l1.4-0.1c0.1,0,0.3,0.1,0.4,0.3l0.4-0.1h0.3l0.1,0
							h1.8l0.3,0h0.7l0.3-0.1l3.2-0.1l0.1-0.5c0.5,0,0.8,0.1,0.9,0.3c0.1,0.1,0.4,0.2,0.8,0.1c0.2-0.3,0.6-0.4,1.3-0.4
							c0.8,0.1,1.2,0.1,1.3,0c0,0,0.1,0,0.3,0c0.2,0,0.3,0.1,0.3,0.2c0.1-0.2,0.2-0.3,0.4-0.3c0.4,0,0.6,0,0.7,0c0,0,0-0.1-0.1-0.1
							c-0.1,0-0.2-0.1-0.2-0.1l0.9-0.2c0.2,0.1,0.3,0.1,0.3,0.2c0,0.1,0,0.2-0.3,0.2l6.8-0.2c0,0,0.1,0,0.1,0h0.1l0.2,0h0.6l0.2,0
							h0.3l0.7-0.1h0.2l3.3-0.6c1.2-0.3,2.2-0.6,3.1-1.1c1-0.4,1.8-0.8,2.4-1.1l0.9-0.5l0.7-0.5l-0.4,0.1l-0.5,0.3l-0.6,0.1
							c-0.1,0.1-0.3,0.1-0.4,0c0.3-0.3,0.6-0.5,0.9-0.6c0.3-0.1,0.5-0.2,0.6-0.4c0.1,0.1,0.3,0.1,0.6,0l1.8-0.8h0.4V304l0.5-0.1
							l1.6-1.7l0.4-0.3l1.6-1.6l1.1-1.8v0h0.1c0,0,0.1-0.1,0.1-0.1v0l0-0.1l0.1-0.1l0.4-0.5c-0.3,0.2-0.4,0.1-0.3-0.1
							c0.1,0,0.1,0,0.2-0.1c0,0,0.1-0.1,0.3-0.4c0.2-0.5,0.4-0.7,0.6-0.7l0.4-0.6l0.1-0.1l0.1-0.3c0.2-0.4,0.1-0.6-0.1-0.5l0.9-0.7
							c0,0,0,0.1,0,0.3c0.3-0.5,0.5-0.8,0.6-1l-0.4,0.4l1.3-2.1l0.2-0.7l-0.4,0.4l0.2-0.3l0.4-0.7c0.1-0.3,0.4-0.4,0.6-0.5l-0.3,0.9
							l1.1-2.4l0.3-0.8l-0.2,0.4c0.1-0.4,0.3-1.1,0.6-2l1.9-6l0.4-2l-0.6,0.4l0.1-1.1c0,0,0.1,0.2,0.4,0.5c0.2,0.2,0.3,0.4,0.3,0.5
							l1.2-3.1c0.1-0.5,0.4-1.3,0.8-2.4l1.6-5v-0.1l1.8-5.8c0.2-0.3,0.3-0.4,0.4-0.3l0.2,0.3c0-0.4,0-0.7-0.1-0.8l-0.1-0.2l0.1-0.5
							c0-0.1,0.1-0.1,0.1,0c0.1,0.1,0.1,0.1,0.1,0.3c0,0,0.1-0.2,0.1-0.5c0-0.2,0-0.3-0.1-0.3c-0.1,0.2-0.3,0.3-0.4,0.3
							c-0.3,0-0.5,0-0.5,0l0.3-1.2l0.3,0.1c0,0-0.1-0.3-0.3-0.6l-0.1-0.5l0.1-0.8l0.2-0.8l0.9-5.3c0.1,0,0.1,0.3,0.2,0.9
							c0.1-0.5,0.2-0.8,0.2-0.9c-0.1,0.2-0.1,0.1-0.1-0.2c0-0.3,0-0.4-0.1-0.3c-0.1-0.4-0.1-1.2,0.1-2.3l1-1
							c0.2-0.2,0.3-0.4,0.4-0.5l3-3.5l1.7-2.8c1.7-2.5,3.2-4.8,4.4-7.1l2.6-5.3l0.1-0.2l0.2-0.4l0.4-1.1l0.1-0.2v-0.1l0-0.1v0
							l0.7-1.8v-0.1l0-0.1l0.1-0.2l2.3-7l0.7,0.3c0.6,0.2,1.1,0.4,1.8,0.6l1.7,0.4c0.8,0.2,1.4,0.4,1.8,0.6h-0.3
							c0.3,0.2,1,0.3,1.9,0.5l2.3,0.5c-0.2,0-0.3-0.1-0.3-0.2c-0.1-0.1,0.1-0.1,0.6,0c0.5,0.1,1.3,0.3,2.4,0.4l1.9,0.3l1.3-0.2
							l11.7,0.2l1.1-0.1c1.8-0.1,3.8-0.4,5.9-0.9c1.8-0.3,3.7-0.8,5.8-1.5l4.1-1.5l5.6-3.1l1-0.7l0.2-0.1l0.2-0.1l1.2-0.9l-0.2,0.2
							c0.9-0.6,2-1.5,3.3-2.7c1.4-1.3,2.6-2.5,3.5-3.6c1.2-1.4,2.3-2.9,3.3-4.4l2.8-4.8l0.1-0.1l0.1-0.1v0l0.2-0.4l3.8-9.1l1.4-4.7
							c0.4-1.7,0.7-3.1,0.8-4.3c0.2-0.7,0.4-1.6,0.5-2.8l0.1-0.8v-0.8l0.1-0.4v-1.1c0,0.5-0.1,0.7-0.1,0.7c-0.1,0-0.2-0.3-0.2-0.8
							l-0.1-1.7l-0.2-0.9l-0.8-2.6l-0.1-0.2l-0.1-0.2l-0.4-1.1l-1.2-2.4l-0.5-0.7l0-0.1l-0.1-0.1l-0.4-0.6l-0.1-0.1l-0.1,0v-0.1
							l-0.3-0.3l-0.1-0.2l-0.1,0l-0.1-0.2l-0.1-0.1c-0.8-1-1.6-1.9-2.4-2.6l-3.1-2.7l-0.3-0.2l-0.2-0.2l-2.8-1.8l-0.3-0.1l-0.3-0.2
							l-2-0.9c-0.6-0.3-1.4-0.5-2.2-0.8c-1.2-0.4-2.6-0.7-4.2-0.8c-1.4-0.1-2.7-0.2-3.9-0.2h-0.1l-0.3,0.1c-1.1,0.2-2.2,0.4-3.1,0.6
							c-0.6,0.1-1.4,0.3-2.3,0.6l-2.3,1.2c-0.9,0.6-1.7,1.1-2.3,1.5c-0.7,0.6-1.4,1.2-2.1,1.9c-0.6,0.7-1.1,1.4-1.6,2.1l0.1-0.3
							l-0.2,0.3l-0.3,0.4l-0.3,0.5l-0.3,0.4v0.1h-0.1v0.1l-0.1,0.2l-0.1,0.2l-0.4,0.7l-1.2,1.8l-0.1,0.1l-0.1,0.3l-0.4,0.5
							c-0.4,0.5-1,1.2-1.9,2.1l-4.7,4.1l-0.2,0.1L201,169l-0.8,0.6l-0.1,0.1v0.1h-0.1l0,0.1H200l-0.1,0.1h-0.1l0,0.1h0.1l-0.1,0.1h0
							v0.1h-0.1l-0.1,0.1h-0.3l-0.1-0.1h-0.1V170h-0.1l-0.1-0.1l0-0.1H199l-0.6-0.3c0,0.1-0.1,0.2-0.2,0.3l-0.6,0.1l-0.1-0.1h-0.2
							l-1-0.3l0.1-0.1l-0.9-0.4l-2.7-1.3l-1.3-0.9l0.1-0.1c-0.9-0.5-1.7-1.1-2.5-1.8l-10-9.8l-1.4-2.1l-0.3-0.3h-0.1l-0.2-3.8
							l0.1,0.5l0.1-4.4l0.1-0.3v-0.5l0.2-1.9v-0.3l0.1-0.9v-0.2l0.1-0.1l0.1-1l0.9-3.6c0.5-1.8,1.1-3.3,1.7-4.7l0.1-0.3l0.1-0.3
							l0.8-1.7c0.3-0.6,0.8-1.2,1.3-1.9l0.1-0.3l0.2-0.2l0.4-0.4l0.1-0.1v-0.1h0l0.1-0.1l0.3-0.3v0h0.1l0.8-0.8l0.2-0.2l0.1,0
							l0.1-0.1l0.4-0.3l0.1-0.1l0.1-0.1c0.7-0.5,1.4-0.9,1.9-1.1c0.8-0.4,1.6-0.7,2.3-0.9l0.3-0.1h0.1l0.1-0.1l0.1,0l1.5-0.4
							l0.3-0.1l0.7-0.2l11.8-3.9l0.2-0.1l0.2-0.1l0.8-0.3c1.5-0.5,2.6-1,3.3-1.3l4.7-2.2l0.2-0.2l1.6-0.8c1.6-1,2.7-1.7,3.2-2
							l0.4-0.3l0.1-0.1h0l0.1,0l0.9-0.7l0.1-0.2l0.3-0.2l0.1-0.2c0.1,0,0.1-0.1,0.2-0.1l6.7-6h0.1l0.1-0.2l0.8-0.8
							c0.4-0.5,0.7-1,1-1.6l1-2.5l0.3-1.9v-0.1l0.1-0.1l0.1-4.7l0-0.2l-0.1-1.8c-0.3-2.2-0.7-4.2-1.3-5.9l-0.1-0.5l-0.3-0.7v-0.1
							l-0.1-0.1l-0.9-2v-0.1l-0.1-0.1l-0.3-0.5l-0.1-0.2l-0.3-0.5l-0.1,0l-0.1-0.2h-0.1l-1.3-2l-0.2-0.2l-0.7-0.9l-0.2-0.2l-0.1-0.2
							l-2.6-2.5l-1.4-1.1c-0.2-0.1-0.5-0.3-0.8-0.6l-0.4-0.3l0.7,0.6c0.2,0.2,0.2,0.3,0.1,0.3l-0.9-0.5l-0.1-0.1l-1.7-1l-0.4-0.2
							l-1.3-0.8l-0.2-0.1l-0.5-0.3l-0.1-0.1l-0.3-0.2l-0.2-0.2l-0.1,0l-0.3-0.2h-0.1l-0.1,0l-0.2-0.1l-0.2-0.2l-0.1-0.1l-0.4-0.5h0
							l-0.1-0.1l-0.3-0.4l-0.8-1.3l-0.1,0l-2.6-6.2c-0.2-0.6-0.7-1.9-1.3-4l-0.6-2.2l0-0.3L205.9,44.6 M170.5,23.5l0.8,0.3l0.1,0.1
							h0.1l1.4,0.5l0.3,0l0.3,0.1l1.7,0.6l7,3.5c1.4,0.9,2.6,1.8,3.6,2.7c1.1,1.1,2,2.1,2.7,3.1l2.4,4.3c0.6,1.2,1.3,2.6,2,4.4
							l2.7,8.4l2.6,10c-0.1-0.6-0.3-1.7-0.7-3.3l-0.5-2.7v-0.6l0.1,0.3l0.1,0.3l1.1,4.3c0,0.2,0.2,0.5,0.4,1v0.7l0.6,2.2
							c0.1,0.3,0.2,0.8,0.4,1.4l1.8,5.3l0.6,0.6l0.2,0.2l0.7,1.8l0.6,0.9l0.1,0.2v0l0.1,0.1l0.6,0.8v0.1h0v0l0.3,0.3l0.1,0.2
							l0.4,0.5l0.2,0.1l0.1,0.2l2.8,2.4l3.3,2.2l0.2,0.1l0.6,0.3l0.1,0l0.1,0.1l0.3,0.2l0.1,0.1h0.1v0l0.1,0.1l0.1,0.1h0.1l0.1,0.1
							l0.5,0.4l0.1,0.1l0.1,0l0.2,0.2l0.4,0.4l0.3,0.2l0.4,0.5c0.4,0.3,0.7,0.6,0.9,1l0.2,0.3l0.1,0.1l0.1,0.1l0.2,0.2v0.1h0.1
							l0.3,0.4l0.1,0.1v0l0.2,0.2l0.1,0.3c0.2,0.3,0.4,0.6,0.5,0.9l0.2,0.4l0.1,0.3l0.1,0.3l0.1,0.5l0.1,0.3v0.2l0.1,0.1
							c0.1,0.5,0.1,1.1,0.2,1.7l0.1-0.4c0.1-0.2,0.1-0.1,0.3,0.5c-0.1,0.1-0.1,0.2-0.1,0.3v0.7l0,0.3v1.9c0,0.1-0.1,0.3-0.1,0.3
							c0,0.1-0.1,0.1-0.2,0.2l-1,1.1c-0.1,0.2,0,0.3,0.3,0.1c-0.3,0.2-0.6,0.4-1,0.7l-1.3,0.9c-0.5,0.3-0.7,0.5-0.8,0.5
							c-0.1,0,0.1-0.2,0.6-0.7l-2.3,1.9l-0.1,0.1H213l-0.1,0.2l-0.4,0.3l-0.2,0.2l0.1-0.1l0.1,0h0.1V100h0.1l0.4-0.3l0.1-0.1
							l0.6-0.5l-0.6,0.5l0,0.1v0l-0.4,0.3l-0.1,0.1h-0.1v0.1l-0.2,0l-0.2,0.2l-0.1,0l-0.1,0.1l-0.4,0.3l-0.3,0.1
							c-0.5,0.3-1.2,0.8-2.2,1.3l-0.6,0.3l-0.3,0.2l-0.3,0.1l-3.2,1.7l1.8-0.6c-1.5,0.7-2.8,1.2-3.9,1.6l-1.6,0.4l-0.1,0.1h-0.2v0h0
							l-0.9,0.1l3.1-1.3l-12.4,4.4l0.8-0.2l0.3-0.2l0.4-0.1l-3,1H189l-0.1,0.1l-0.2,0h-0.1l-0.1,0.1h0l-0.1,0.1l-0.3,0l-1.1,0.3
							l-0.2,0.1h-0.1l-0.1,0.1l-2.7,1l-0.4,0.2c-1.2,0.5-2.3,1-3.4,1.8c-1.3,0.8-2.4,1.7-3.4,2.6l-0.6,0.5l-0.1,0.1
							c0.1-0.1,0,0-0.2,0.2h0l-0.1,0.1l-1.5,1.6v0h-0.1l-0.1,0.1l-0.1,0.3l-0.4,0.4c-1,1.2-1.8,2.4-2.4,3.5
							c-0.7,1.1-1.3,2.4-1.9,3.7l-1,2.4l-0.1,0.3l-0.3,0.9l-0.1,0.2l-0.7,2.4l-0.2,0.4l-0.7,3l-0.1,0.1v0.1l-0.1,0.4l-0.1,0.7v0.1
							l-0.1,0.1v0.2l-0.1,0.4l-0.5,6.6l0.1,0.4v0.7l0.5-2.8l0.1,5c0-0.3-0.2-0.8-0.6-1.4l-0.3-0.9c-0.1-0.2-0.1-0.3-0.1-0.4v5.9
							c0.1,2.5,0.4,5.6,0.9,9.1l1.8,10.6c0.6,3.3,0.9,5.1,0.9,5.5l0.8,5.6c0.3,2.5,0.4,4.3,0.5,5.5l0,17l-0.1,0.2v0.3l-0.1,0.1
							l-0.1,0.5v0.1l-0.1,0.1l-1.1,4.6c-0.3,1.2-0.9,2.8-1.6,4.9c-0.5,1.4-0.8,1.9-0.9,1.5c0.1-0.7,0.1-1.1,0.1-1.1l-0.6,2.2
							l-0.2,0.8c-0.1,0.5-0.2,0.7-0.2,0.8l-0.1,0.3l-0.1,0.1l0,0.3l-0.6,1.3l-0.1,0.1v-0.2c0-0.3,0.1-0.6,0.2-0.9l-0.3,0.9l-0.1,0.1
							v0l-0.4,0.8l-0.2,0.5l-0.1,0.1c-0.1,0.2-0.1,0.3,0,0.3l0.3-0.5l0.2-0.3c0.1-0.1,0.2-0.2,0.3-0.2c0.2,0,0.5-0.1,0.7-0.3
							l-0.6,1.2l-0.1,0.1l-0.6,1.4l-0.1,0.1l-0.6,1.2l-0.1-0.3l-0.2,0.3l-0.1,0.3l-0.1,0.3l-0.4,1.5l-0.8,1.7l-1,1.6l-0.1,0.2
							l-3.3,4.5l-5.3,6.2l-0.3,0.3l-0.3,0.3l-2.8,2.8l-0.1,0.1h-0.1l0,0.1l-0.8,0.7h-0.1v0.1l-0.1,0l-0.6,0.6l-0.2,0.1l-0.3,0.3
							l-2.8,2.1l0.2-0.3l0.9-0.9l0.4-0.3l0.4-0.4l0.3-0.2l0.1-0.1l-0.1,0.1l-0.1,0l-1.8,1.4l-0.6,0.4c0.4-0.2,0.5-0.2,0.3,0
							l-0.3,0.3l-0.8,0.5l-0.3,0.2l-0.4,0.3c-0.2,0.1-0.2,0.1,0.1,0c-1.1,0.9-2.3,1.6-3.7,2.3c-1.2,0.6-2.6,1.3-4.3,1.9l-5.4,1.7
							l-0.3,0.1l-0.3,0.1l-2.4,0.8l-3.1,4l-2.8,2.7c-0.3-0.6-0.6-1.2-0.8-1.9c-0.7-1.8-1.5-3.8-2.6-6.1l-3-5.8c0,0,0.2,0.1,0.5,0.4
							l0.7,1.1l-0.4-0.9c-0.2-0.3-0.3-0.6-0.4-0.8c0,0.2-0.1,0.1-0.4-0.3l-4.4-6.8l-0.8-0.9l-0.8-0.8l-6.6,0.3c-0.4,0-0.6,0-0.8-0.1
							l-0.8-0.1c-0.4,0.5-0.8,0.9-1.3,1.3c0.1,0.4,0.1,0.6,0.1,0.7v0.3l0.3,0.9c0,0-0.1,0-0.2-0.2l-0.2-0.3l0-0.1l-0.1-0.1v-0.1
							l0-0.1l-0.2-0.8c0,0,0,0.1,0,0.1l0.1,1.1l0.2,0.3c0,0.2,0.1,0.4,0.3,0.5l0.1,0.6l-0.1,0.1c-0.1,0.1-0.1,0.4,0.1,0.9l1,1.9
							l0.1,0.1l0.6,1.3h0c0.2,0.6,0.6,1.2,1,1.8l1.8,2.4l0.2,0.4l0.3,0.4l0.6,1.3l-0.2-0.2l1.4,2.9l0.4,1.2c-0.1-0.3-0.1-0.5,0-0.6
							c0.1-0.1,0.2,0.1,0.4,0.5l1.4,3.4l0.3,1l0.8,1.1c0.5,1.3,0.8,2.3,1,3.1l0.8,2.6l0.1,0.5l0.1,0.1l0.1,0.1l0.2,1.2l0.1,0.3
							l0.3,1.8c0.1,1.1,0.2,1.9,0.2,2.4l-0.1,2.4l-0.3,1.9l-0.1,0.3l-0.1,0.3l-0.3,0.9v0l0,0.1l-0.3,0.7l-0.2,0.2l-0.1,0.3l-0.3,0.4
							l-0.2,0.4l-0.1,0l-0.1,0.2v0h0l-0.1,0.1l-0.3,0.3v0.1l0,0l-3.7,4.4c-1.5,1.8-3.4,4-5.8,6.6l0.2-0.3l-6.9,7.3l-0.1,0.1
							l-0.6,0.6c-0.1,0.1-0.2,0.1-0.3,0.2l-2.6,2.4l-0.2,0.2l-0.2,0.2l-0.8,0.9l-0.2,0.2l-0.8,0.8l-1.3,1.6
							c-0.9,1.2-1.7,2.5-2.3,3.9c-0.4,0.8-0.7,1.6-0.9,2.4c-0.2,0.8-0.4,1.6-0.6,2.5l-0.1,0.4v0.4l-0.1,0.4v0.4l0,0.3v0.2l-0.3,0.2
							L80,322h-0.1l-0.1,0.1h-0.1l-0.1,0l-7.6,1l-0.3-0.1h-0.3l-0.2,0h-0.8l-0.1,0h-0.7l-3.1-0.3c0.4,0.1,0.6,0.2,0.6,0.3
							c-0.1,0.1-0.3,0.1-0.7,0.1l-2.3-0.3l-0.5,0.1c-0.1,0.1-0.2,0.1-0.5,0h-0.5l-9-1.4c-0.7-0.2-1.2-0.5-1.6-0.7l-0.2,0l-0.3-0.1
							l-0.1-0.1l-0.2-0.1l-0.6-0.4l0-0.1l-0.1-0.1l-0.1-0.1l-0.1-0.1l-0.1-0.1l0-0.1h0v0l-0.1-0.1l-0.1-0.1l-0.1-0.1l-0.3-0.6
							l-0.1-0.1l-0.1-0.4l-0.1,0v0l0-0.1l-0.1-0.4v-0.1l0-0.1l-0.1-0.2v-0.2l0-0.1v-0.4l0-0.2l0-0.5l0-1.6c0.1-1.9,0.3-3.4,0.5-4.6
							c0.2-1,0.5-2.1,0.9-3.5l0.5-1.3l0.1-0.3l0.1-0.1l0.9-2.5l0.4-0.7v-0.1l0,0V301l0.3-0.6l0.1-0.1l0-0.1l0.1-0.2
							c1.2-1.7,2-3,2.5-3.8l-0.1,0.3l4.4-5l0.1-0.2l0.2-0.1l0.7-0.6c1.6-1.5,2.5-2.4,2.8-2.6l1.5-1.4H65l0.3-0.3l0.4-0.3l0.6-0.6
							l0.3-0.2c0.6-0.5,1.2-1.2,1.8-1.9c0.7-0.9,1.3-1.5,1.6-2c0.9-1.4,1.6-2.9,2-4.5c0.2-0.6,0.3-1.2,0.4-1.9
							c0.1-0.4,0.1-0.9,0.1-1.6l-0.1,0.9l-0.1-1.9l-0.7-3.9l-0.3-0.8c-0.1-0.5-0.4-1.2-0.9-2.1c0,0.1-0.1,0.1-0.2,0.1
							c-0.1-0.1-0.2-0.1-0.3-0.3l-3-3.2H67c-0.2-0.2-0.7-0.7-1.5-1.3l-2.5-1.9c-1.1-0.5-2.3-1.1-3.5-1.9l0.3-0.1l-0.8-0.4l-2.5-1.8
							c-0.3-0.2-1.2-1-2.6-2.3l-0.9-1L50,248l0.5-0.2h0.1l0.1,0h0.1l0.5-0.2l0.1-0.1h0.1l0.2-0.1l0.1-0.1h0.1v-0.1H52l0-0.1l5-1.9
							l4.7-2.4c1.3-0.7,2.4-1.4,3.2-2l2.3-2.2c1-0.9,1.8-1.7,2.4-2.5c0.8-1,1.5-2,2.1-3c0.5-0.9,1-2,1.4-3.2l-0.1,0.4l0.5-1.4l0-0.1
							V229l0.2-0.6v-0.2h0v-0.2l0.1-0.3v-0.2l0.1-0.1v-0.2l0.4-2.7c0.2-1.6,0.4-3.2,0.4-4.6l-0.1-2.7c-0.1-1.3-0.3-2.2-0.4-2.8
							l-0.4-1.4l-1.1-2.9l-0.3-0.4l-0.1-0.1l-0.1-0.1l0-0.1l-0.1-0.1v-0.1c0,0-0.1-0.1-0.1-0.1l-0.1-0.1l-0.5-1.1l-0.3-1.5
							c-0.2-0.8-0.3-1.7-0.3-2.8l-0.2-2v0.5l-0.1-1.9l0.5-3.7c-0.1,0.1-0.2,0-0.3-0.3l-0.1-0.4l-0.1-0.6v-1.9l0.1-0.3v-0.2l0.1,0.1
							l0.1-2.3l0.1-0.3l0.1-1.1c0.2-1.6,0.5-3,0.8-4.3l0.2,0.2l0.2-0.9l1.2-3c0.5-0.9,0.8-1.5,1-1.8l0.7-1.1l0.2-0.3
							c0.6-0.8,1.2-1.5,1.9-2.2l9-8.2c1.3-1,2.2-1.8,2.9-2.4l0.2-0.3l0.2-0.3l-0.1-0.4V164l-0.3-1.7l-0.3-0.6l-0.3-0.5
							c-0.5-0.7-1.2-1.1-2-1.1h-0.8l-0.1,0.1h-0.1l-0.6,0.2l-1.1,0.5L84,161l-0.3,0.2l0-0.2l-0.8,0.8l-0.2,0.1
							c-0.3,0.3-0.8,0.6-1.3,1.1c-0.3,0.2-0.4,0.3-0.4,0.2l1.1-0.9c-0.3,0.3-0.3,0.3-0.1,0l0.6-0.7l-0.4,0.3l-0.4,0.3l-0.7,0.6
							c-0.1,0.1,0.1,0.1,0.5-0.3c-1.3,1.2-2.1,1.9-2.4,2.1l-0.7,0.4l-0.4,0.1l-3.4,2.4l-0.1,0.1l0,0.1h-0.1l-0.1,0l-0.4,0.3L74,168
							h-0.1l-0.6,0.5l-0.1,0.1l-0.1,0.1l-0.9,0.8l-0.2,0.1l-1.5,1.5c-1.1,1.1-2.1,2.3-3,3.7l-2.3,4.1c-1.3,2.8-2.3,5.7-3,8.7
							l-0.7,3.9v0.3l-0.1,0.3l-0.4,4.3c-0.1,0.2-0.1,0-0.1-0.4l-0.1,5.1c0.1,2.2,0.2,3.9,0.3,5.1l0,0.6l0,0.4v0.1l0,0.2v0.3l0.8,3
							l0.1,0.2v0.1l0,0.1l0.3,0.8l0,0.3l0.2,0.2l0.3,0.8l0.9,1.4v0.1h0v0l0,0.2l0,0.1l0,0.1l0.5,1.7l0.2,2.2l-0.2,3.1l-0.1,0.2
							l0.3,0.2l-0.1,0.8l-0.2,0.5l-0.4,0.8l-0.1,0.8v0.1l-0.1,0.1l0,0.3l0,0.1v0.1l0.1,0.2v0.1l-0.1,0.2v0.2l-0.3,0.6l-0.7,1.2
							l-0.3,0.3l-0.2,0.4c0-0.1,0,0-0.1,0.1l-0.5,0.5c-0.1,0.1-0.1,0.1-0.2,0v0.1l-0.1,0.2l-1,1l-0.1,0.1l0.5-0.2l-0.6,0.6l-0.1,0.2
							l-0.1,0.1l-0.4,0.3c-0.3,0.2-0.5,0.3-0.5,0.3c-0.1,0,0-0.2,0.3-0.4l-2.1,1.4l-0.2,0.1l-0.3,0.3l-8.4,3.7l0,0v0h-0.2l-0.1,0.1
							l-0.2,0.1h-0.1l-0.2,0.1h-0.1l-0.1,0.1l-0.8,0.2l-0.1,0h-0.1l-1,0.2c-1.2,0-2.4-0.1-3.5-0.4l-0.4-0.2l-1.2-0.6l-0.8-0.5
							l-0.2-0.1l-0.5-0.4c-0.8-0.6-1.6-1.4-2.5-2.4l-1.7-2l0.1,0.3l0.6,0.9c0.4,0.5,0.6,0.9,0.7,1.1c-0.3-0.2-0.6-0.6-1-1.1
							c-0.4-0.5-0.6-0.7-0.7-0.8c0-0.2-0.2-0.8-0.8-1.7c-0.6-1-0.9-1.7-0.9-2.1l-0.5-0.2l-0.2-0.7c-0.5-0.7-1-1.6-1.5-2.6
							c-0.2-0.3-0.3-0.6-0.4-0.8l-3-6.6l-0.2-0.4l-0.1-0.1l0-0.1h0l-0.6-1.4l-0.2-0.7l0.1,0.6c0,0.1-0.1,0.1-0.1,0l-0.1-0.1
							l-0.1-0.1v-0.1l0-0.1c0.1-0.1-0.1-0.5-0.4-1.2l-0.3-0.8c-0.1-0.3-0.1-0.5-0.1-0.6l-0.6-1.9c-0.1-0.4-0.2-0.6-0.3-0.7
							c-0.1-0.1-0.2-0.1-0.2,0.2v-0.6l-0.1-1.3l0.3,0.4l-0.5-2.1l0.1,1.1L23,203c0-0.5-0.1-0.9-0.4-1.3v1.1l-0.3-2.7v-0.2l0-0.2
							c0-0.2,0-0.4,0.1-0.6l0.3,1.7l-0.7-6.6v0.8c-0.1-0.3-0.1-0.8-0.2-1.6l-0.1-2.4c0-2.1,0.1-4.2,0.4-6.3l0.1-0.8v-0.2l0.8-4.9
							l0.1-0.3l0.8-3.9l-0.4,0.6l-0.2,0.3l-0.2,0.3l0.5-2.3c0,0.1,0.1,0.2,0.1,0.3l0.2,0.5c0.2,0.3,0.2,0.5,0.2,0.6l0.3-0.7l3-7.3
							l0.9-1.8l0-0.1l2.4-4.1l4.4-6.4l4.7-5.4l0.1-0.2l3.2-3.3c0.6-0.5,0.9-0.6,0.9-0.4l-0.3,0.6l0.8-0.9l0.3-0.4l0.5-0.5l0.1-0.2
							l0.3-0.3c0.4-0.3,0.4-0.1-0.1,0.5c0.1-0.1,0.4-0.3,0.8-0.8c0.3-0.2,0.4-0.4,0.4-0.4c-0.3,0.3-0.6,0.4-0.8,0.3
							c-0.3-0.1-0.4-0.1-0.5-0.1l1.8-1.7l0.1,0.3c0.2-0.4,0.5-0.7,0.7-1c0.4-0.4,0.6-0.7,0.8-0.9l0.8-0.8l0.4-0.3
							c1.1-0.9,2.8-2.3,5.1-4.1c1.4-1.1,3.1-2.4,5.3-3.9c0,0.1-0.1,0.3-0.5,0.5l-1,0.8l1.7-1.1c-0.2,0.1-0.3,0.1-0.2,0
							c0.2-0.1,0.3-0.3,0.4-0.3c0.5-0.4,0.7-0.5,0.5-0.4l4.2-2.9l0.3-0.2l0.3-0.2l0.6-0.3l1.5-0.9c0.2,0.3,0.3,0.4,0.5,0.4
							c0.1,0,0.4-0.1,0.8-0.5l0.7-0.8l3.1-5l0.1,0.2l0.8-2.7c0-0.1,0.1-0.2,0.1-0.4l0-0.2v-0.1c0-0.1,0.1-0.2,0.1-0.3l0.3-0.8
							l0.1-0.2v0.1l-0.3,1.9l0.9-3.7l0.1,0v-0.2c0.1-0.5,0-0.4-0.1,0.1l-0.1,0v0.1l0,0.1l-0.2,0.8l0.1-0.8v-0.2l0.1-0.1v-0.2l0-0.3
							v-0.2l0.8-6.4c0-0.2,0.1-0.3,0.2-0.4l0.2-0.4c0.1-0.6,0.2-1.2,0.2-1.8l1.6-22.5c0.2-1.8,0.5-4.1,1-7.1l0.7-3.5l0-0.1v0
							l0.2-0.7l0.2-0.4v-0.1l0.1-0.1l2.3-6.8l0.5-1.2c0.7-1.6,1.8-3.7,3.2-6.4l0.2-0.4l0.3-0.4l2.3-3.9l0.2-0.3l0.1,0l0.8-1.2
							c0.2-0.2,0.1,0-0.3,0.7l0.5-0.8l0-0.1l0.1-0.1l0.8-1.2l0.1-0.2l2-2.5l0.3-0.4l0.3-0.4l0.6-0.7c1.6-1.8,3.4-3.5,5.5-5.3
							l1.3-0.8l0.7-0.3l0.2-0.1l0.3-0.3l0.1-0.1l0.1-0.1l0.1,0L111,31l7.6-3.8l10.5-3.8l0.3-0.6l0.5-0.1l0.2-0.1l2-0.5l0.9,0
							c0.1,0,0.4,0,0.8,0l2-0.5l0.4,0c0,0,0.3-0.2,0.9-0.4l3.9-0.7h0.3l3.5-0.3h0.3l1.5-0.2c0,0,0.4,0,1.2,0c0.4,0,0.7,0,0.8,0.1
							c0.3,0,0.4,0,0.3,0.1c0.1,0,0.3-0.1,0.8-0.1c0.3-0.1,0.7-0.1,1.1,0l2.4,0.1c0.2,0,0.2-0.1-0.1-0.1c-0.5-0.1-0.8-0.1-0.8-0.1
							l3.8,0.1c0.7,0.1,1.1,0.3,1.2,0.4c0.1,0.1-0.3,0.1-1.1,0l1.1,0.1h0.3l3.9,0.6c2.7,0.5,5.2,1.1,7.6,1.8l1.4,0.5l0.1,0H170.5
							 M179.5,167.5c0.2,0.2,0.3,0.3,0.4,0.5l5.5,5.5l1.3,1.1c1.5,1.2,2.4,1.9,2.6,2l0.8,0.5l0.4,0.2l0.1,0.1l3.7,1.8
							c0.7,0.3,1.4,0.5,2.1,0.6c0.2,0.1,0,0.1-0.4,0.1l1.7,0.3h0.3l0.2,0h0.5c1,0.1,2,0,3.1-0.3c1.1-0.3,2.1-0.7,3-1.2l1.3-0.8
							l0.1-0.1h0.1l0.1-0.1l0.1-0.1c0.1-0.1,0.3-0.2,0.4-0.3l0.4-0.2h0l0.1-0.1l0.5-0.2c-0.1,0,0.4-0.4,1.4-1.3l6.2-6.2l0.1-0.3
							l0.4-0.4l1.4-1.9l-0.2-0.4l0.8-1.1c0.1-0.1,0.2-0.2,0.4-0.3l0.1-0.1l0.5-0.6l0-0.2l0.1-0.1V164h0.1l0.1-0.3v-0.1h0v0l-0.1-0.1
							v-0.1h0.1v-0.1l0-0.2l0.4-0.5l0.8-0.7v-0.1l0.1-0.1h0.1l0.2-0.1c0.2-0.1,0.3-0.1,0.3-0.1c0-0.1,0.1-0.3,0.3-0.3l0.1-0.1
							l0.1-0.1c0.1,0,0.1,0,0.3-0.1c0,0,0-0.1-0.1-0.1h-0.2l0.8-0.6c0.2,0,0.3,0,0.4,0.1c0.1,0.1,0,0.2-0.2,0.3l1.4-0.5l2.1-0.4
							c-0.1,0-0.2,0-0.3,0l0.6-0.1l-0.3,0.1c0.8,0,1.4,0,1.8,0.1c0.7,0.1,1.4,0.3,2.1,0.4c0.5,0.2,0.9,0.3,1.1,0.4l0.8,0.3l0.3,0.1
							c0.6,0.3,1.3,0.7,2,1.2l1.8,1.4c0.7,0.7,1.3,1.2,1.6,1.5c0.3,0.3,0.7,0.8,1.1,1.4l0,0l0.1,0l0.1,0.2l0.2,0.2l0,0.1v0.1
							l0.1,0.1h0.1l0.1,0.1V167l-0.1-0.1v-0.1l-0.3-0.4l-0.1-0.1l0,0l-0.1-0.2l-0.1-0.4l0.4,0.4v-0.1l0.1,0.1l0.1,0.1l0.1,0.3
							l0.2,0.1v0.1h0.1l0.1,0.1l-0.1,0.1v0.3l0.1,0.1l0.1,0.1v0.1l0.1,0.4v0l0.1,0.2l0.1,0.3c0,0.3,0,0.4-0.1,0.6l0.4,0.1l-0.1,0.4
							l0.2,0.5l0.3,0.9l0,0.3v0.1l0,0.4l-0.1,1.4l-0.1,0.4l-0.1,2.5l-0.1,0.5l-0.1,0.6c0,0,0.1-0.1,0.1-0.1c0.1-0.1,0.1,0,0.1,0.3
							l-0.1,0.3l-0.2,1.2c-0.1,0.2-0.1,0.3-0.2,0.3l-0.4,1.8c0,0.1,0.1,0.1,0.3,0.1l-0.6,0.9c-0.3,0.4-0.3,0.4-0.2-0.1l-0.6,1.4
							l0.4-0.6l-1,2.2c-0.1,0.2-0.3,0.5-0.4,0.9l-0.3,0.9l0.5-0.6l-0.8,1.4c-0.2,0.4-0.5,0.7-0.8,0.9l0.4-1.1l-1.6,3.3l0,0.2v0.1
							l-0.2,0.3l-0.3,0.6l0.4-0.6l-0.4,0.9l-0.1,0.1l-0.1,0.2l-0.3,0.7l-0.1,0.1l-0.1,0.2l-1.8,2.9l-0.9,1.1
							c-0.9,1.2-1.8,2.3-2.7,3.3l-0.1,0.2l-0.9,0.9l-0.1,0.1c-0.3,0.3-0.6,0.6-0.7,0.8l0.9-0.3l-1.1,1.2c0.1-0.1,0.1-0.3,0.1-0.7
							v-0.4c0-0.1,0-0.2,0-0.2l-1.7,1.3l-0.1,0.1l-0.1,0.1l-1.8,1.2l-3.1,1.6c-0.9,0.4-2.1,0.8-3.6,1.3l-4.3,1h-0.3l-0.2,0.1
							l-6.6,0.5l-1.2-0.1l-0.1-0.1h-0.1v-0.1c-0.1,0-0.1-0.1-0.1-0.1l0.1-0.1v-0.1h0.1l0.3-0.1h-0.3l-0.1,0h-0.1l-0.4,0.1l-0.3,0.1
							l-0.3,0.1c-0.1,0-0.4,0-0.7,0c-0.2,0-0.2-0.1,0-0.2c0.1-0.1,0.2-0.1,0.3-0.1c-0.1,0-0.4,0-0.8-0.1c-0.2,0-0.4,0-0.4,0.1
							c0.3,0.1,0.5,0.2,0.6,0.3c0.1,0.3,0.1,0.4,0.2,0.5l-1.9-0.1l0.1-0.3l-0.9,0.3c-0.6,0.2-1.2,0.2-2,0.1l-4.5-0.6
							c-1.5-0.2-2.9-0.5-4.3-0.8c0-0.1,0.4-0.1,1.3-0.1c-0.6-0.1-1-0.3-1.2-0.4c0.1,0,0.1,0.1,0.1,0.2l-0.8-0.2
							c-0.1,0-0.1,0,0.1,0.1c-0.3,0-0.9-0.1-1.6-0.2l-1.5-0.6l-1.8-0.9l-0.4-0.2V205l0.1-0.4v-1.3l-0.1-0.1v-0.6l-0.1-0.4l0.1-10.4
							l0.1-0.6l-0.1-4.4l-0.1-0.3v-0.3c-0.1-1.7-0.4-4.1-0.8-7.3L179.5,167.5 M119,291.3l0.3-0.3l0.9-1.6c0.6-1.3,1.1-2.4,1.4-3.3
							c0.2-0.7,0.5-1.8,0.9-3.3c0.1-0.7,0.3-1.7,0.4-3v-5.4l-0.1-0.3v-0.3l-0.3-2v-1c0.1-0.1,0.1-0.2,0.2-0.1
							c0.1,0.1,0.2,0.3,0.3,0.6l-0.3-1.3l-0.4-0.9l-0.2-0.8l0.3-0.1c0,0.1,0.1,0.1,0.1,0.2c0,0-0.1-0.1-0.1-0.2l0.5-0.1h1.3
							c0.1,0,0.2,0.1,0.2,0.2l0.3,0.1l1.6,0l8.7-2l-0.1,0.1l4.8-1.4l5.8-2.8l1.2-0.7l0.2-0.1l1.8-1.1l-0.2,0.9v0.1l-0.1,0.1v0.1
							l-0.3,0.9v0.1l-0.1,0.1l-0.2,0.8l-0.2,0.4v0.1l-2.9,9v-0.1l-0.1,0.5l-2,5.1l-0.1,0.4l-4.8,9.5l-0.1,0.1v0l0,0.1l-1.1,1.7
							l-0.1,0.1c0,0,0,0,0.1,0l-0.1,0.1l-0.1,0.1l-0.7,0.5l-0.2,0.2c-0.5,0.4-0.8,0.7-0.8,0.7c0.2-0.1,0.3-0.1,0.3,0
							c0,0.1,0,0.2-0.1,0.3l-0.1,0.1l-0.1,0.1l-0.1,0.2l-0.3,0.2c-0.1,0.1-0.1,0.2-0.1,0.2l-0.1,0.2l-0.2,0.3l-0.4,0.4l-0.1,0.1
							l-0.1,0.1l-0.8,0.6c-0.5,0.3-0.9,0.6-1.3,0.8c-0.6,0.3-1.1,0.5-1.8,0.7c-0.8,0.3-1.4,0.4-1.9,0.5l-1,0.1h-0.2l-0.3,0l-6.6,0.1
							c-0.5,0.2-1.3,0.3-2.4,0.4c-1.2,0.1-2,0.1-2.3,0.3l0.1-0.1c-0.1,0-0.4,0-0.8,0l3.6-4.1l0.1-0.1l0.1-0.1l0.3-0.3l0.1-0.1h0
							v-0.1l0.5-0.6l0.1,0v0l0.1-0.1l0.4-0.6L119,291.3 M122.6,268c0,0,0,0.1-0.2,0.1c0,0,0-0.1,0-0.1H122.6 M122.1,268.2
							c0-0.1,0-0.2,0-0.2c0,0,0.1,0,0.1,0c0,0,0,0,0.1,0.1c0,0,0,0.1,0,0.1C122.3,268.2,122.2,268.2,122.1,268.2 M121.5,268
							c0,0,0,0.1-0.1,0.1l-0.1-0.1H121.5z"/>
					</g>
				</g>
			</g>
		</g>
	</g>
</g>
</svg>
