<?xml version="1.0" encoding="utf-8"?>
<!-- Generator: Adobe Illustrator 24.1.2, SVG Export Plug-In . SVG Version: 6.00 Build 0)  -->
<svg version="1.1" id="Layer_1" xmlns="http://www.w3.org/2000/svg" xmlns:xlink="http://www.w3.org/1999/xlink" x="0px" y="0px"
	 viewBox="0 0 256 256" style="enable-background:new 0 0 256 256;" xml:space="preserve">
<style type="text/css">
	.st0{fill:#FFFFFF;}
</style>
<g id="run5">
	<g transform="matrix( 0.6996917724609375, 0, 0, 0.6996917724609375, 57.25,20.7) ">
		<g id="run">
			<g transform="matrix( 1, 0, 0, 1, 0,0) ">
				<g>
					<g id="run_4_Layer0_0_FILL">
						<path class="st0" d="M106.3-1.8L106.3-1.8l-3.4,1.7c-0.2,0-0.4,0.1-0.7,0.3L100,1.4l-0.3,0.2l-3.3,2l-0.3,0.2L94.5,5l-0.1,0.1
							l-5.5,4.5l-1,0.9l-0.1,0.1c-0.3,0.2-0.6,0.6-1.1,1.2l-5.3,6.4l-0.3,0.4l0,0.1l-0.1,0L81,18.9l-0.8,1.2L80,20.3v0.1l-0.1,0
							l-0.1,0.2L78,23.5c-1.1,1.8-2,3.6-2.8,5.2l0.3-0.8l-4.3,9.6l-1.2,3.6l-0.1,0.3l0,0.1l-0.4,1.4v0.2l-0.1,0v0l-0.3,1v0l0,0.2
							v0.2l-0.7,3.6c-0.3,1.4-0.5,3.1-0.7,5c-0.1,2.3-0.2,4.1-0.2,5.2l0.2,5.2l4,25.1l-0.1-0.7L72,90L72,91.5l-0.1,0v0.2l0,0.3
							l-1.8,6c0.2-0.2,0.2,0,0.2,0.6l-1.9,7.2l0-0.1l-2.6,7.8c-0.9,2.9-2.1,6.1-3.4,9.5l-0.2-0.3c-0.7,2-1.9,5.1-3.5,9.2l-17.3,41.8
							l0,0.2l-0.1,0.2l-0.6,1.8l0,0.3l-0.1,0.2l-0.1,0.7l-0.6,0.8l0.5-0.6l-0.1,0.5l-1,1.6l-0.5,0.9c-0.2,0.4-0.4,0.6-0.4,0.5
							l1.3-2.1l-0.3,0.4c-0.1,0.1-0.2,0.1-0.1,0l0.5-1.1l-1.4,2c0,0.1,0.1-0.1,0.5-0.5l-2,3.7l-0.5,0.8c-0.1,0.1-0.1,0.2-0.2,0.2
							c-0.2,0.1-0.5,0.5-0.8,1.3l-2.1,4.8l-1.2,3.9l-1.3,6.7l0,0.9l-0.1,0.2v0.3l0,0.4l0.2,7.8l0.1,0.5l0.1,0.7l1,5.3
							c0.4,1.6,0.9,3.4,1.6,5.3c0.6,1.6,1.4,3.3,2.2,5c0.1,0.3,0.1,0.3-0.1,0.1l-0.3-0.4l1.8,3.2v0.1h0l0.1,0.1v0.1l0.4,0.6l0.1,0.3
							l0.6,0.8l0,0v0.1l0.1,0.1l0.1,0.1l0.4,0.6l0,0.1l0,0.1l0.5,0.7l3.4,3.6l0.7,1l0.3,0.5l3.5,3.1c0.3,0.3,0.5,0.4,0.6,0.6l3.7,3
							c0.9,0.7,2.8,2.1,5.8,4.3l2.8,2l0.5-0.3l1.5,1.2c0.2,0.2,0.3,0.3,0.4,0.4c0.2,0.4,0.8,0.8,1.8,1.4c0.1,0,0.3,0.1,0.6,0.2
							l0.8,0.4l0.3,0.1l-0.4,0.4l0.5-0.4l0.1,0.1l-1.1,1.2c-0.1,0.2-0.2,0.2-0.2,0.2l0.8-0.9c-0.3,0.3-0.4,0.4-0.3,0.3
							c0.1-0.2,0.2-0.4,0.2-0.5l-0.8,0.7c0,0,0.1,0,0.3-0.1l-0.5,0.8c-0.2,0.3-0.4,0.6-0.5,0.7c-0.2,0.2-0.3,0.3-0.5,0.3
							c0,0-0.1,0-0.2,0l-10.9,13.6c0,0,0-0.1,0-0.3c-0.4,0.6-0.9,1.3-1.5,2l-1.4,1.9c-0.2,0.1-0.4,0.2-0.8,0.3c0,0,0,0.1-0.1,0.3
							l-5.2,6.8l0.3,0.4c-0.3,0.5-0.6,0.7-0.8,0.8c-0.2,0-0.5,0.2-0.8,0.6c0.1,0.3-0.2,0.8-0.8,1.5c-0.6,0.7-0.9,1.1-0.9,1.3
							l-0.3,0.4c-0.2,0.1-0.3,0.2-0.4,0.1v0.3l-0.7,1c0,0.1,0,0.1,0.1,0l0.3-0.1l-0.6,1c-0.2,0.2-0.3,0.2-0.4,0.2
							c-0.1,0-0.1-0.1,0-0.4l-1,1.4c-0.3,0.4-0.8,1.1-1.5,2.2l-0.2,0.3l-0.1,0.2l-0.2,0.1l-1.6,2.9l-0.8,1.9l-0.1,0.3l0,0.1
							l-0.1,0.1l-0.8,2.5l0,0.1l-0.5,2.3v0.3l-0.3,2.7l0,2l0.4,2.6l0.1,0.1l0,0.2v0l0,0.3l0.7,2.3c0-0.2,0-0.5,0-1
							c-0.1-0.5-0.1-0.8,0-1c0.1,0.1,0.1,0.3,0.3,0.5l0.2,0.5c0.1,0.3,0.1,0.5,0.3,0.6c-0.2,0.2-0.3,0.6-0.1,1.3
							c0.1,0.7,0.1,1.2,0,1.5l0.5,0.1l-0.1,0.5l1,2.2v0.2l0.1,0.2v0.1l0,0.1l0.1,0.3h0v0.1l0,0.1l0.3,0.8l0.1,0.1v0l1,1.7l0.9,1.1
							l2.4,2l0.5,0.5c-0.1-0.1-0.2-0.2-0.2-0.3c0-0.1,0.1-0.1,0.4,0.1v0.1l0.1,0.1l1.1,0.7c0.1,0.1,0.2,0.2,0.3,0.4l0.5,0.3l0.3,0.3
							l0.4,0.2c0.2,0.1,0.3,0.2,0.5,0.2c0.1,0,0.1-0.1,0.1-0.3c0,0.2,0.3,0.4,0.7,0.8c0.3,0.3,0.2,0.4-0.2,0.3l0.7,0.5l0.1,0
							l0.1,0.1h0l0.1,0.1l0.3,0.1l-0.3-0.2l-0.1-0.1l0.2,0.1l0.4,0.3l0.1,0.1l0.1,0l0.5,0.4l0.3,0.1l0.1,0.1l1,0.5l0.9,0.3l-0.5-0.5
							l0.4,0.2l0.1,0l0.9,0.4c0.4,0.2,0.7,0.5,0.8,0.8l-0.6-0.1l2.3,0.8l0.3,0.1l0.3,0.1l1.1,0.1l-0.5-0.1l6.5,0.8h0.6
							c0.2,0,0.6,0,1,0h2.2l3.6-0.4l-0.8-0.4l1.4-0.4c-0.1,0-0.2,0.2-0.3,0.6c-0.2,0.3-0.4,0.4-0.4,0.5c0.3,0,0.6,0,0.8-0.1l1.1,0
							c1.3-0.1,2.2-0.3,2.9-0.5l2.2-0.5l0.1,0l0.2-0.1h0l0.1,0h0.1l1.1-0.5c0.2-0.1,0.5-0.2,0.9-0.5c0.4-0.2,0.9-0.6,1.5-1.2
							c0.4-0.3,0.8-0.8,1.2-1.4c0.2-0.3,0.5-0.8,0.8-1.5l0.3-0.7l0-0.2l0.2-0.5c0.2-0.9,0.4-1.7,0.5-2.5c0.1-0.5,0.1-1.3,0.1-2.2
							l-0.1-2.8l-0.1-0.2v-0.5l0.1-0.1v-0.1l0-0.2v-0.1l0.1-0.1l0.1-0.1v-0.1l0.2-0.4l0.1-0.2l0.3-0.2l0.2,0l0.2,0.3v-0.3l0.1-0.2
							l-0.1-0.2c0-0.1,0-0.3,0.1-0.5c0.1-0.1,0.1-0.1,0.1,0l0.1,0.3c0-0.1,0.1-0.2,0.2-0.4c0-0.1,0-0.2,0-0.3
							c-0.1,0.1-0.3,0.2-0.4,0.1c-0.3-0.1-0.5-0.1-0.5-0.1l0.3-0.5l0.1-0.3l0.2-0.2l0.2,0.2c0-0.2,0-0.4,0-0.7l0.1-0.5l0-0.1
							l0.1-0.1l2.3-2.8c0.6-0.7,1.1-1.2,1.5-1.8l0.3,0.2l0,0l2.8,1.3l0.3,0.1l0.3,0.1l1.1,0.4c1.6,0.6,2.8,1,3.5,1.4
							c-0.1-0.1-0.3-0.2-0.4-0.3c-0.2-0.2,0-0.2,0.5,0c0,0.1,0.2,0.2,0.6,0.3l0.5,0.2l1.8,0.5c0.3,0.1,0.5,0.2,0.8,0.4
							c0.8,0.3,1.7,0.5,2.7,0.8c1,0.2,1.3,0.2,0.9-0.1l0.3,0.2l2.1,0.8c0,0,0,0.1-0.1,0.1h-0.2l-0.3-0.1l1.5,0.4
							c0.6,0.2,1,0.3,1.3,0.3l-1.3-0.4l3,0.7l0.3,0.1l1.4,0.3c0.5,0.1,1.3,0.2,2.2,0.3c1,0,1.8,0,2.3-0.1c-0.4,0-1-0.1-1.8-0.2
							c0.7,0.1,1.4,0.1,2.1,0l3.9-0.5l1.7-0.4c-0.6,0.3-1.3,0.6-2.1,0.8l-1.8,0.4l2.2-0.4c1-0.3,1.8-0.6,2.3-0.9
							c0.9-0.5,1.6-1,2.2-1.5l1-0.9l0.8-1.1l1.2-2.3c0.3-0.8,0.4-1.6,0.5-2.2c0.1-0.5,0.1-1.1,0.1-2c0-0.6,0-1.2-0.1-1.8l0,1.8
							l-0.6-4l-0.1,0v-0.1l-0.1-0.6v0l-0.1,0v-0.1l-0.2-0.8l0-2.1l0-0.1v-0.4l0.1-0.1v-0.2l0-0.2v-0.2l1.1-4.1l4.1-8.9l-1.1,1
							l1.3-2.4c-0.1,0.1-0.1,0.4,0,1c0.1,0.4,0.1,0.7,0,0.8l14-18.9l0.2-0.2l0-0.1l0.7-0.7l0.1-0.1l0.1-0.1l0.3-0.4l0.1-0.1v-0.1
							h0.1l0.2-0.3l0.2-0.3l0.1-0.1l0.1-0.1l1.9-3.2l4.5-10.4l0-0.1v-0.1l0.1-0.1h0.1l0.1-0.3l0.1-0.4l0.1-0.1v-0.1l0.3-0.8v-0.2
							l0.9-4c0.1-0.1,0.1-0.1,0.2-0.1l0.1,0.3v0.3l0.1,0.4l0.1-1.2l-0.4-3.8c0-0.3,0-0.4,0.1-0.2l0.3,0.9l-0.3-2
							c-0.1-0.6-0.2-0.9-0.3-0.9c0.1,0.4,0.1,0.7,0.1,1c0,0.1,0,0.2-0.1,0.4c-0.2,0.2-0.4,0.4-0.4,0.6c-0.1-1.1-0.4-2.5-0.9-4
							l0.3,0.1l-0.4-0.7l-0.6-1c-0.6-0.8-1.2-1.8-1.8-2.9c0.2-0.2,0.4-0.4,0.6-0.4l0.1-0.1c0,0,0.1,0,0.3-0.1l1.1-1.2
							c2.3-3.3,4.1-5.8,5.5-7.4v0.1l5.1-7.8l0.1-0.3l0.6-1.3l0.1-0.1v-0.1l0.1-0.1l0.5-1.2l0.1-0.2l0.1-0.1v-0.1l0.6-1.4
							c0.5-1.2,1.1-2.6,1.8-4.1l-0.2,0.7c0.1-0.2,0.7-1.4,1.7-3.7l0.5,0.3c1,0.6,1.8,1.1,2.3,1.7l-0.3-0.1c0.2,0.3,0.7,0.6,1.3,1
							c0.8,0.5,1.3,1,1.6,1.3c-0.2-0.2-0.2-0.3-0.2-0.4c0-0.1,0.2,0,0.5,0.2c0.4,0.3,0.9,0.8,1.6,1.3c0.6,0.4,1,0.8,1.3,1.1l1.1,0.4
							l4.1,2.8l0.1,0.1h0.1l0.1,0.1l1.2,0.8c1.3,0.8,2.8,1.6,4.4,2.6c1.7,0.8,3.5,1.6,5.3,2.2c1.9,0.6,3.8,1.1,5.8,1.4
							c1.8,0.3,3.7,0.4,5.6,0.4c1.6,0,3.2-0.2,4.8-0.5l3.3-0.9l-0.3,0.1c1.4-0.5,2.8-1,4-1.6l1.6-0.8l0.1-0.1h0.1v-0.1h0.1l0.8-0.4
							l0.1-0.1h0.1l0.1,0l4.3-2.9l3.1-2.5c0.2-0.2,0.9-0.9,2-1.9c0.7-0.8,1.4-1.6,1.9-2.3l1.9-2.8l1.1-2.4c0.4-1,0.7-2,0.9-2.9
							l0.3-1.9v-0.3l0.1-0.4v-0.4l0.1-0.3v-1.2l-0.1-0.3v-0.6l-0.6-4.2c0-0.8-0.1-1.6-0.3-2.6c-0.1-0.4-0.4-1.3-0.8-2.7l0.1,0.5
							c0,0.1,0,0.1-0.1,0.1c-0.1-0.1-0.2-0.3-0.3-0.7l-1-2.3l-0.2-0.3l-0.1-0.1l-0.6-0.7l-0.3-0.4l-1.2-1.4l-0.9-0.8l-0.1-0.1
							l-0.3-0.3H229v-0.1H229l-0.3-0.3L207.2,159c-0.8-0.4-1.8-1.1-3.1-2.1l-2.8-2.1l0.2,0.1l-1.3-1l-1.8-1.8l-0.1-0.1l-2.6-3.1
							c-1.1-1.3-2.1-2.8-3.2-4.4l-2-3.1l0.1,0.4l-0.8-1.1l-0.8-1.8l-0.3-0.5c-0.1,0.2-0.4,0-0.8-0.6l-1-1.4h0.1l-0.5-0.7v-0.1
							l-0.1-0.1l-2.8-4l0.2-0.1c-0.2-0.2-0.4-0.6-0.8-1.2l-0.9-1.5l-1.4-3.2l-0.3-7.6h-0.1v0l0.1-0.3v-0.7c0.1-1.3,0.3-2.2,0.4-2.8
							c0.1-0.8,0.4-1.7,0.7-2.4c0.2-0.7,0.6-1.3,1-2c0.3-0.5,0.7-1.1,1.3-1.7l0.1-0.1h0.1l0.1-0.1l0-0.1l0.1-0.1
							c0,0,0.1-0.1,0.1-0.1v0.1l0.2-0.2l0.2-0.2l0.1-0.1l0.1-0.1l0.1-0.1l0.1,0h0l0.2-0.2c1.1-0.7,2.4-1.3,3.9-1.7l0.3-0.1l0.3-0.1
							h0.1l0.1-0.1h0.1l0.3,0l0.1-0.1h0.2l0.5-0.2h0.1l0.5-0.1h0.1l0.1-0.1l0.3,0h0.3l5.5-0.5c0.2,0,0.5,0,1,0l0.9-0.1
							c0.4,0,0.7,0,0.8,0h0.8l7.7-0.7c0.5,0,1.6-0.2,3.3-0.5l1.8-0.4l0.1,0l0.2-0.1h0.1l0.2-0.1l0.4-0.1l0.1-0.1l0.1-0.1l0.3,0
							l0.4-0.2c1.4-0.5,2.6-1,3.8-1.7l1.3-0.8l3.6-2.7l1.5-1.6v0l0.4-0.4l0.2-0.3l0.1,0l0.6-0.7l0.3-0.5l0.2-0.3l1.6-3
							c0.7-1.5,1.1-3.1,1.4-4.8l0.2-1.2l0.1-0.9l0.1-0.3v-0.8l0.1-0.2v-1.3l-0.1-0.2c0,0.1,0,0,0-0.3v-0.3l-0.6-4
							c-0.4-1.5-0.8-3-1.4-4.5l-1.3-2.8l-0.1-0.1l-0.3-0.5l-0.1-0.3l-0.3-0.3l-0.8-1.3l-12-15l-0.1-0.1l-0.1,0l-0.1-0.2l-0.1-0.1v0
							l-0.2-0.2l-0.1-0.1l0,0l-0.1-0.2l-0.2-0.3l-2.4-5l-0.1-0.4l-0.3-0.7l-3.3-11.6c-0.6-2.3-1.3-4.4-1.9-6.4
							c-0.8-2.3-1.6-4.2-2.3-5.8c-1-2.2-1.9-3.9-2.6-5.1l-0.8-1.8l-0.2-0.2l-0.2-0.4l-0.9-1.6l-0.1-0.2v0L199,10l-0.1-0.1l-0.8-1.2
							l-0.2-0.2l-0.3-0.5l-3.4-3.7L191.7,2l0.6,0.5c0.1,0.2,0.2,0.3,0.1,0.3l-1.7-1.1l-0.3-0.3l-6.1-3.7L184-2.4
							c-0.1,0-0.2,0-0.3-0.1l-0.3-0.1l-8.4-3.5l-0.4-0.1l-0.2-0.1l-0.2,0l-0.1-0.1l-6.3-1.9l-12.5-2.4L152-11c-0.4,0-0.6,0-0.8-0.1
							l-8.8-0.1l-0.2,0h-0.6c-0.2,0-0.4,0.1-0.8,0.1l-0.4,0.1H140l-0.1,0.1l-7.1,0.8c-1.1,0.2-1.7,0.3-1.8,0.3l-1.4,0.3h-0.2l-2,0.4
							c-1.5,0.3-2.7,0.6-3.4,0.8c-2.6,0.7-4.8,1.4-6.7,2l-0.4,0.1L116.7-6L116.5-6l-1.6,0.6l-0.4,0.1l-8.1,3.4L106.3-1.8L106.3-1.8
							 M187.3,16l0.1,0.2l0.4,0.5L188,17l0.1,0.2l1.2,1.8l0,0l2.2,3.8c0.4,0.9,0.8,1.8,1,2.6l-0.3-1c0-0.2,0-0.2,0.1-0.1l0.4,0.7
							c0,0.1,0,0.2,0,0.3l0.1,0.2l0.1,0.4l0.5,1.1l0.1,0.5c0.3,0.7,0.5,1.3,0.7,1.7l0.2,0.7c0.1,0.2,0.1,0.4,0.1,0.4l1.8,5.5
							c0.1,0.3,0.2,0.3,0.2-0.3l0.6,4.3c0,0-0.1,0-0.1-0.1l-0.3-0.9l1.4,5.1l-0.6-2.5c0.2,0.6,0.6,2.1,1.3,4.3l1.3,3.6
							c0.2,0.7,0.4,1.3,0.7,1.6l2,3.9l0.6,0.8l-1.2-2.5l1.4,2.5l0.1,0.2l0.1,0.2l2.7,4.2c0.3,0.5,0.6,0.9,0.8,1.3l7.2,8.5l-1.1-1.3
							l2.2,2.5l0.8,1.1l0.2,0.2l0.3,0.4l0.1,0.1V73h0.1l0.2,0.4l0.1,0.2l0.1,0.1l0.1,0.3l0.1,0.2l0.1,0.3l0.3,0.5
							c0.5,1.1,0.8,1.9,0.9,2.3l0.4,1.9l0.1,0.6V80l0,0.3v0.3l0.1,0.5v0.8l-0.1,0.3v0.3l-0.1,0.6v0.2l-0.1,0.1
							c0,0.4-0.1,0.7-0.3,1.1l-0.1,0.3l-0.1,0.3l-0.2,0.5l-0.2,0.3l-0.1,0.3l-0.1,0.2l-0.1,0.1l-0.1,0.2l-0.1,0.1l-0.2,0.3l0,0
							l-0.2,0.3h-0.1v0h-0.1l-0.1,0.1l-0.9,0.9l-0.3,0.2l-0.1,0l-0.1,0.1l-0.2,0.2l-0.4,0.3l-0.1,0.1l-0.3,0.2l-0.3,0.2l-0.2,0
							l-0.1,0.1c-1,0.5-1.7,0.8-2.3,0.9l-0.5,0.2v0h-0.1l-0.4,0.1l-0.1,0l-0.2,0.1H211l-0.3,0.1l-6,1.1l2.6,0.1
							c-1.1,0.2-2.8,0.4-4.9,0.7c0.2,0,0.7-0.3,1.4-0.7l0.8-0.4c0.2-0.1,0.3-0.2,0.4-0.2l-2.3,0.2c-0.3,0-0.6,0-0.8,0
							c-0.4,0-0.7,0-0.9,0.1l-11.3,1l-0.6,0.2H189l-1.5,0.3h-0.1l-0.1,0l-1.4,0.4c-1.2,0.4-2.3,0.8-3.3,1.2
							c-1.2,0.5-2.3,1.1-3.4,1.8l-2.4,1.8l-0.1,0v0.1c0,0-0.1,0-0.2,0.1l-0.1,0.1l-0.1,0.1l-1.8,1.9c-0.4,0.4-0.8,1-1.3,1.7
							l-1.6,2.6l-0.5,1c-0.3,0.7-0.6,1.4-0.8,1.9c-0.3,0.7-0.5,1.3-0.6,1.9l-0.5,2l-0.4,2.8l-0.1,0.4v0.5l-0.1,0.9v0.7l-0.1,0.2
							l0.6,30.5c-0.1,2.4-0.2,4.2-0.4,5.6l-0.1,0.3l-0.1,0.3l-0.3,1.1c-0.1,0.2-0.1,0.2-0.2,0.1l-0.1-1.1l-0.1,1.4l-0.1,0.1v0.4
							l-0.1,0.4c0,0.5,0,0.8,0,1c0,0.5-0.1,1.5-0.3,3c-0.1,0.5-0.2,0.6-0.2,0.2c0-0.3,0-0.7,0-1.2c0,0.3-0.2,1.1-0.4,2.5
							c-0.1,0.8-0.2,1.2-0.1,1.3c0.2-0.9,0.4-1.4,0.7-1.6c0.3-0.2,0.5-0.4,0.6-0.6l-0.9,5.4l-0.3-0.3c-0.1,0.4-0.1,1.3-0.1,2.8
							l-0.3,3.9l-1.1,4.9c-0.3,1.4-0.6,2.4-0.9,3.2c-0.4,1.4-0.7,2.5-1,3.2l-1.5,3.8l0,0.2l-0.1,0.1l-0.1,0.1l-5.4,11.9
							c-0.1-0.1,0.4-1.4,1.3-3.9c-0.9,2.1-1.5,3.4-1.8,3.9c0.5-0.8,0.4-0.5-0.2,0.9c-0.5,1.3-0.7,1.7-0.4,1.2l-0.4,1.3l0,0.1v0
							l0-0.1l0,0.1l-0.4,0.9v0.1l-0.1,0.1l-0.3,0.9l-0.1,0.1l-0.1,0.1l-0.4,0.9c-0.7,1.3-1.6,2.8-2.8,4.6l-5.6,8.5v2.8
							c-0.1-0.1-0.3-0.3-0.5-0.4l-1.1-0.9l-0.2-0.1l-0.1-0.1l-0.4-0.3l-0.1-0.1l-0.4-0.3l-0.3-0.3L142,220l-0.3-0.2l-0.1-0.1
							l-0.1-0.1l-2.9-1.6l-0.3-0.1l-1.1-0.5l-0.6-0.2c0.2-0.2,1.1,0.1,2.6,0.8l-2.6-1.3c0.5,0.3,0.4,0.3-0.4,0.1l4.1-5.3l2.1-3.2
							c1.1-1.8,1.9-3.6,2.6-5.4l0.1-0.3l0.5-1.5l0.1-0.3l0.6-2.1c0.2-2,0.3-3.2,0.3-3.6c0.1-1.4,0.1-2.7-0.1-3.8l-0.5-3.3l-0.1-0.3
							v-0.1l-0.1-0.1l-0.3-1v-0.1l0-0.1l-0.2-0.5v-0.1l0-0.2l-0.1,0l-0.1-0.2l-0.4-1l0.2,0.3l-0.1-0.4l-0.2-0.3l-0.1-0.3l-0.9-2
							l-0.1-0.2l-0.2-0.4l-1.1-1.9l-0.2-0.3l-0.1-0.2l-0.1-0.1l-0.8-1.1l-0.3-0.3l-0.2-0.3l-0.4-0.6c-0.8-0.8-1.5-1.6-2.3-2.1
							c-1-0.8-2-1.4-2.9-1.9c-0.4-0.2-0.9-0.4-1.7-0.6l-1.8-0.5l-0.4-0.1l-0.4-0.1l-1.4-0.1l-0.2-0.1h-1.7l0,0.1l-1.7,0.1l-0.3,0
							c-1.5,0.1-2.9,0.2-4.3,0.2l-5.9-0.1l0.6,0.1c-1.3,0-2.5-0.1-3.4-0.3l-2.8-0.6v0.2l-0.1,0.1l-0.4,0.1l0,0.1v0.1h-0.1l0-0.1
							l-0.2-0.4c-0.1-0.1-0.2-0.4-0.2-0.6l-0.1-0.9v-1.1l0.6-3.4l0.2,0.2c0.3-1.2,0.8-2.8,1.4-4.6l8.8-20l1.8-3.4l0.2-0.6l-1.2-2.3
							c-0.3-0.4-0.6-0.8-0.9-1l-0.1-0.1l-0.1-0.1l-0.1-0.1h-0.1l-0.2-0.1h-0.2l-0.1,0.1h-0.2l-0.1-0.1h-0.3l-0.2,0h-0.2l0-0.1h-0.5
							c-0.4,0.1-0.8,0.4-1.2,0.7c-0.5,0.4-1,1-1.6,1.8l-0.1-0.1l-1.6,3.1c-0.2,0.4-0.3,0.5-0.3,0.4l1.2-2.2c-0.4,0.7-0.6,1-0.5,0.8
							l0.3-1c-0.4,0.8-0.8,1.4-1.1,1.9c0,0.2,0.1,0,0.3-0.5c-0.7,1.7-1.2,2.8-1.5,3.3c-0.3,0.5-0.5,0.8-0.6,0.9
							c-0.1,0-0.4,0.4-0.7,1.1l-6.1,11.8c-0.5,0.9-1.1,2.3-1.9,4.3l-1.7,4.6l-0.6,2.5l-0.1,0.3l-0.3,4.2l0.2,1.8
							c0.1,0.8,0.3,1.4,0.5,2.1c0.3,0.8,0.7,1.5,1.1,2.1c0.5,0.7,1.1,1.4,1.8,1.9l0.5,0.4l0.9,0.6l0.2,0.1l0.5,0.3
							c0.5,0.2,1.2,0.5,2.1,0.8l1,0.2l0.6,0c0.1,0.1,0,0.1-0.4,0.1l2.1,0.3h0.4l3,0.3c1.8,0.1,3.6,0.1,5.3,0.1l1,0.2l0.5,0.1
							l2.8-0.1c0.6,0,1.6-0.1,3.1-0.2l0.8-0.1h0.3l0.2-0.1h0.9l0.4,0.1h0.2l0.1,0h0.1l0.1,0.1h0.1l0.1,0.1l0.2,0.1h0.1l0.8,0.4
							l0.1,0.1l0.1,0.1l0.1,0.2l0.2,0.1c0.3,0.2,0.5,0.5,0.8,0.9l0.3,0.3l0.1,0.2l0.4-0.1l0.1,0.1l0.1,0.1l0.1,0.2l0.1,0.1l0.1,0.2
							l0.1,0.2l0.2,1l0.6,1.1l0.4,0.4l0.1,0.1l0.1,0.2l0.6,1.4l0.1,0.2v0.1l0,0l0,0.1l0.1,0.5l0.1,0.1v0.1l0.1,0.1l0.3,1.5v0.2
							l0.1,0.1v0.2c-0.1,0.4-0.1,0.5-0.1,0.5c0.1,0.1,0.1,0.2,0.1,0.4l0.1,0.2v0.8l-0.1,0.3l0.1,0.1v0.2c0,0.1,0.1,0.1,0.1-0.1
							c0.1-0.2,0.1-0.3,0.1-0.4l-0.1,1.8l-0.1,0.4l-0.2,0.2c0,0,0-0.2,0-0.5c-0.2,0.9-0.4,1.7-0.6,2.4c-0.3,1.1-0.8,2.3-1.5,3.6
							l-1.1,2.2l-5.2,6.8l-0.5,0.6l-0.1,0.1l-0.3,0.3l-0.2,0.3l-1.7,1.4l-0.8,0.5l-0.3,0.2l-1.3,0.8l-0.6,0.1l-0.5,0.6
							c-0.5,0.3-1.1,0.5-1.7,0.8c-1.2,0.5-2.5,0.8-3.9,1.1c-0.7,0.1-1.3,0.2-1.5,0.3l-1.3,0.2c0.2,0.1,0.4,0.1,0.7,0
							c0.4,0,0.7,0,0.8-0.1c0.2,0,0.5-0.1,0.8-0.1c0.2,0,0.4,0,0.7,0.1c-0.4,0.1-0.9,0.3-1.7,0.4l-0.6,0.1c-0.2,0-0.3,0.1-0.5,0.2
							c-0.1-0.1-0.3-0.1-0.8-0.2h-2.5c-0.4,0-0.8-0.1-1.2-0.3l-0.4,0.3L108,218c-1.3,0-2.4,0-3.2-0.1h-0.6l-8.1-1.1
							c-1.3-0.2-2.3-0.4-3-0.6c0.7,0.3,0.7,0.4,0.1,0.3c0-0.1-0.2-0.1-0.5-0.2l-1.8-0.4c-0.4-0.1-0.6-0.2-0.6-0.3l-2.2-0.6h-0.2
							l0-0.1h-0.1l-0.6-0.1c-0.2,0-0.2,0.1,0.1,0.3l-1.1-0.5l-0.4-0.2c-0.3-0.1-0.4-0.2-0.4-0.3c0-0.1,0.1,0,0.5,0.1l-1.8-0.6
							c-0.1-0.1-0.3-0.2-0.5-0.2l1,0.5c-0.9-0.3-2.1-0.8-3.4-1.4l-2-0.8l-0.7-0.2l0.9,0.6c-1.9-0.9-3-1.6-3.3-2.1l1.6,0.7l-6-3.4
							l0.7,0.5l-1.4-0.9c-0.7-0.5-1.4-1-2-1.5c-0.7-0.6-1.5-1.3-2.3-2.1c-0.8-0.8-1.5-1.6-2.2-2.5l-1.8-2.7
							c-0.5-0.8-0.9-1.7-1.4-2.7c-0.4-0.8-0.9-2.1-1.5-3.7v1.3c-0.4-0.8-0.6-1.6-0.9-2.3c0,0.1,0.3,0.3,0.7,0.6
							c0.3,0.2,0.5,0.4,0.5,0.5l-0.4-1.8l-0.7-5.2l0-6.7l1.5-11.3c0.4-2.2,0.8-4.1,1.2-5.6c0.6-2.8,1.3-5.2,2-7.4
							c0.3-0.8,0.5-1.1,0.5-0.8l0.1,0.6l0.3-1.8c0-0.3,0.1-0.8,0.3-1.4c0.1-0.2,0.2-0.3,0.2-0.1v0.3l0,0.3l0.4-1.3
							c0.1-0.4,0.1-0.6,0.1-0.6c-0.2,0.4-0.3,0.7-0.6,0.7c-0.3,0.1-0.4,0.1-0.5,0.2l0.9-2.7l0.2,0.2c0-0.1,0.1-0.6,0.1-1.4l0.2-1.3
							l5.8-15.3c0,0.1-0.2,0.7-0.6,2c0.5-1.3,0.8-1.9,0.8-2c-0.3,0.5-0.3,0.3,0.1-0.5c0.3-0.7,0.3-0.9,0.2-0.6l0.4-1.3l4-8.9
							l-0.3-1.3c0,0,0-0.1,0.1-0.1l5.5-16.8c0.2-0.4,0.2-0.4,0.1,0L82,101l1.2-5.4c0.2-1,0.3-2,0.5-3v-0.2l0-0.1v-0.6l0.1-0.2v-2.2
							l-0.1-0.1v-0.2l0-0.3v-0.3l-0.1-0.7l-0.1-0.1v-0.2L83.3,87l-1.6-7.9c-0.1-0.6-0.1-1.5-0.1-2.8c0,0.1-0.1-0.2-0.3-1.2l-1.6-9.8
							v-0.1l0-0.2l-0.1-0.8v-0.4l-0.1-0.6v-0.3l-0.2-2.6c-0.1-1.7-0.1-3.7,0-5.8c0.2-2.1,0.4-3.8,0.7-5.1v-0.1l0.1-0.2l0.4-2v-0.1
							l0.3-0.9v-0.2h0v-0.1l0.2-0.5l0.1-0.3l0-0.1l0.1,0l0.1-0.5l-0.3-0.5c0.3-1.1,0.6-2,1-2.7l0.5-0.8c0.2-0.3,0.4-0.6,0.5-0.7
							l0.2-0.3l0.9-2.1c0.1-0.6,0.4-1.3,0.8-2.3c0.4-0.9,1-1.9,1.7-3l2.5-4.1l0.5-0.9l0.1-0.1v0l1-1.4l0.2-0.2l0.1-0.1
							c0.2-0.1,0.3-0.2,0.3-0.1l0.3-0.7l2.2-2.7l0.1-0.1c0.1-0.1,0.1-0.2,0.1-0.2l-0.2,0.2l-0.7,0.6l0.5-0.6l0.2-0.2l1.9-2.2
							l0.8-0.6l0.4-0.2c0.1,0,0,0.2-0.5,0.7c1.7-1.5,3-2.6,4.1-3.4c2.1-1.6,4.5-3.2,7.1-4.6l0.3-0.1l1.4-0.7l0.3-0.1l0.2-0.1
							l0.1-0.1l1.5-0.7l0.2,0V8.8h0.1l1.9-0.9l0-0.1l5.2-2.1l0.3-0.1l0.3-0.1l3.4-1.2c2.1-0.7,4-1.2,5.7-1.6l8.9-1.6h0.4l5.3-0.4
							l0.4,0l6.4,0.1l0.4,0.1h0.3c2.9,0.2,5.8,0.6,8.6,1.2l5.8,1.4l-0.6-0.3c-0.2-0.1-0.5-0.2-0.8-0.2L163,2.8l-0.2,0l-0.3-0.1
							l-3.9-1.2c1.1,0.1,2.3,0.4,3.4,0.8l2.2,0.5c0.4,0.3,0.9,0.5,1.5,0.7l4.1,1.5L170,5h0.1l0.6,0.3l0.1,0.1l0.2,0l1.6,0.9h1
							l1.3,0.8l7.1,3.7l2.7,2.2l0.4,0.4l0.1,0.1l0.8,0.7l0.2,0.2L187.3,16 M192.7,160.3l0.2,0.4l0.2,0.3c0.1,0.1,0.1,0.2,0.3,0.3
							l0.5,0.5c0.2,0,0.3,0.1,0.4,0.1l0.3,0.1l0.2,0.2l0.6,0.4l0.3,0.3l0.1,0.1l0.1,0v0h0.1l0.1,0.1l0.9,0.8
							c0.3,0.3,0.5,0.5,0.7,0.5l0.4,0.4c0.2,0.2,0.3,0.4,0.3,0.4c0.1,0,0.3,0.1,0.6,0.3l0.8,0.6c0.1,0,0.1,0,0.1-0.1
							c-0.1-0.1-0.2-0.2-0.2-0.3l1.2,0.8c0.2,0.2,0.3,0.3,0.3,0.4c0,0.1-0.1,0-0.4-0.1l20.8,14.8c-0.1-0.1-0.3-0.4-0.8-0.8
							c-0.4-0.4-0.6-0.6-0.7-0.8c0.3,0.1,0.6,0.3,1,0.6c0.3,0.2,0.5,0.4,0.6,0.4c0,0.1,0.1,0.3,0.3,0.5l0.8,0.7v0l0.1,0.1l0.1,0.1
							h-0.1v0.1l-0.1,0.1v0.1l0.1-0.1l0.1-0.1v0.3l0.1,0.2l0.2,0.2l0.1,0.1l0.1,0.1l0.1,0.1l0.1,0.2l0.1,0.1l0.1,0.1v0.1l0.1,0.1
							v0.1l1,3.6c0.2,0.7,0.3,1.3,0.3,1.6c0-0.1,0-0.2,0.1-0.3c0.1-0.1,0.1,0,0.2,0.2c-0.1,0-0.1,0.1-0.1,0.3l0.2,1.1l0,0.3v-0.1
							H225v0.9l0.1,0.1v0.2l0,0.1c0,0,0.1,0,0.2,0l-0.3,0.6l-0.2,0.2c0,0,0-0.1,0-0.2l-0.1,0.2l-0.1,0.1l-0.1,0.1l0,0.2v0.2l0.2-0.4
							c-0.1,0.4-0.3,0.8-0.6,1.4c-0.2,0.4-0.4,0.8-0.5,1.2l0.2-0.2l0.2-0.2l-0.8,1.1l-0.2,0.1c-0.1,0.1-0.2,0.2-0.3,0.2l0.3-0.6
							l0.1-0.1l-2.1,2.8l0.3-0.3c-0.2,0.3-0.7,0.9-1.6,1.8c-1,1-2,1.8-3.1,2.6l-0.9,0.7c-0.2,0.1-0.3,0.2-0.4,0.3l-0.7,0.4l-0.1,0.1
							l-0.5,0.3l-0.1,0.1l-0.1,0h-0.1l-0.5,0.3l-0.1,0.1l-0.1,0.1l-1.3,0.8l-0.3,0.1l-0.3,0.3h0.8l-0.6,0.4l-0.1,0l-0.1,0.1
							l-0.3,0.1l0.3-0.9l0.1-0.1l-0.6,0.2l-0.2,0.1l-0.6,0.2l-2.4,0.5c-0.9,0.1-1.9,0.1-2.9,0.1c-1.3-0.1-2.4-0.2-3.3-0.4
							c-1.9-0.3-4-1-6.2-2.1l-2.9-1.6l-0.8-0.6c-0.4-0.3-0.5-0.5-0.3-0.6c0.1,0,0.2,0,0.4,0c-0.2-0.1-0.6-0.3-0.9-0.4
							c-0.2,0-0.4-0.1-0.8-0.4c-0.1-0.1-0.1-0.1,0.1-0.1c0.1,0,0.2,0,0.3,0.1l-0.3-0.2l-0.1-0.1l0-0.1l-0.2-0.1
							c-0.2-0.2-0.3-0.2-0.3-0.1c0.2,0.2,0.3,0.4,0.3,0.6l-0.1,0.3v0.3l-1.4-1.1l0.2-0.1c-0.3-0.1-0.6-0.2-0.9-0.3
							c-0.6-0.2-1.1-0.4-1.6-0.9c-3.3-2.4-5.7-4.1-7.2-5.3c0,0,0.4,0.1,1.2,0.4c-0.5-0.3-0.8-0.6-1.1-0.8c0.2,0.3,0.1,0.3-0.3,0
							c-0.3-0.2-0.4-0.2-0.4-0.2l-1.6-0.8c-0.1-0.1-0.4-0.3-0.7-0.5l-0.7-0.5c-0.4-0.3-0.8-0.6-1.2-0.9l0.1-0.2l0.2-0.4l0.7-1.9
							l0.1-0.1l0.1-0.2l1.8-5.3l1.3-7.3v-0.1l0.1-0.2l2.9-19.6l0.1-0.2v-0.3l0.3-3.8c0.1-1.5,0.1-3.2,0.2-5.1l2,3.1l0.1,0.4l0.1,0.6
							c0,0,0.1,0.1,0.3,0.3l1.3,1.8l0.3,0.4l3.8,4.8l0.4,0.3l0.3,0.4l1.4,1.5l0.4-0.1L192.7,160.3 M46.2,183.4l1.8-2.8l0.2,6.8
							c0.2,1.9,0.5,3.5,0.8,4.8l-0.1-0.1c0.2,1.1,0.5,2.1,0.8,2.9c0.3,1.2,0.7,2.3,1.1,3.3c0.8,2.2,2,4.5,3.5,6.9
							c0.7,1.1,1.6,2.3,2.5,3.4c0.9,1.1,1.9,2.2,2.9,3.2c1,1,2.1,2,3.2,2.9c1.2,1,2.4,1.8,3.5,2.6c1.3,0.8,2.5,1.6,3.7,2.2
							c0.8,0.5,2,1.1,3.7,1.9l9.8,3.5l0.1,0.1l0.2,0.1l0.8,0.2l0.1,0.1h0.1l0.2,0.1l0.4,0.1l8.3,1.9c1.1,0.4,2.3,0.6,3.7,0.8
							l3.8,0.6l-0.6-0.1c-0.1-0.1-0.2-0.1-0.1-0.1c0.1-0.1,0.4-0.1,1,0l3.3,0.3l2.4-0.1c0.4,0,0.7,0,1,0l5.5-0.3
							c2.5-0.4,4.5-0.7,6-1.1c1.3-0.3,2.4-0.7,3.5-1.1l0.5-0.3l0.1,0l0.2,0.1h0.2l0.3,0.1l0.6,0.1v0.1c0.2,0.1,0.4,0.2,0.6,0.2
							l0.3,0.1l0.9,0.2h0.3l0.3,0l1.9,0.2c0.6,0.1,1.2,0.2,1.8,0.3c0.6,0.2,1.1,0.4,1.8,0.8l-0.3,0c0.3,0.2,0.8,0.5,1.6,0.9l1.2,0.8
							l0.1,0.1l0.1,0.1l0.1,0.1v-0.2l0.1,0l0.1,0l0.3,0.3l0.1,0.1l0.1,0.1l0.3,0.3l0.2,0.1l0.1,0.1l0.3,0.3l2.1,2.4l0.3,0.4l1,0.9
							l0.8,1.3c0.4,0.7,0.7,1.2,0.8,1.5l0.3,0.9l0.1,0.3l0.1,0.1v0.1l0.1,0.3v0.2l0.1,0.3l0.1,0.1v0.3l0.1,0.1v0.4l0.1,0.1v1
							l-0.1,0.3v0.3l-0.1,0.6v0.2l-0.1,0.1l-0.1,0.6l-0.1,0.1l-0.1,0.1l-0.1,0.3l-0.2,0.6v0.1l-0.1,0.1l-0.7,1.9
							c-0.5,1.3-1,2.6-1.5,3.7c-0.5,1.2-1,2.4-1.6,3.6l-0.9,1.7l-0.1,0.1l-0.2,0.4L137,256v0.1l-0.2,0.2v0.1h-0.1l-0.8,0.9l-0.1,0.1
							l-0.1,0.1v0.1l-0.9,1.2l-0.2,0.2l-0.1,0.3l-0.4,0.4l-11.6,15.9l0.1-0.4l-5.4,8.9c-0.7,1.5-1.3,2.8-1.8,3.9l-1.5,4.4l-0.7,3
							l-0.1,0.1v0.2l-0.2,1.6c-0.1,0.9-0.2,1.8-0.2,2.8l0.2,1.8v0.4l0,0.4l0.1,0.2v0.2l0.3,1.3h-0.6l-1.8-0.3l-0.2,0h-0.2l-0.1-0.1
							l-2.5-0.5c-2-0.4-4.1-1-6.4-1.7l-5.2-1.9l-2.9-1.8l-0.2-0.1l-0.2-0.1l-0.4-0.2l-0.3-0.3l-0.7-0.4l-0.1-0.1l-0.1-0.1h0v0
							l-0.8-0.5c0.5,0.4,0.7,0.6,0.6,0.6c-0.1,0-0.4-0.1-0.8-0.5l-0.2,0l-0.1-0.1l-2.2-1.5l-1.1-0.6l-4.8-3.8
							c-1.3-1.3-2.2-2.3-2.9-3.1l-0.2-0.2l-0.1-0.1l-0.5-0.5l0-0.1l-0.6-0.8v0l0-0.1v-0.2l-0.1-0.3v-0.2l0.1-0.1v-0.1l0.1-0.9
							c0.1-0.4,0.3-1.2,0.6-2.3l2.3-5.1c0.5-1,1.5-2.7,3-5.1c0.7-1.2,1.8-2.7,3.1-4.6l6.6-8.9l-20.3-12.4l0.4,0.1
							c-0.9-0.5-2.6-1.6-5.2-3.4L56.4,233c-1.1-0.8-2.3-1.8-3.5-2.9l-4.1-4.2l0.2,0.4l-0.4-0.4l-0.1-0.2l-0.5-0.6v-0.1l-0.2-0.1
							l-0.1-0.3l-0.1-0.1l0-0.1l0-0.2l-0.2-0.3v0l-1-2.5l-0.2-0.3c0,0.2-0.2,0.1-0.4-0.1l-0.4-0.4l-1.1-1.8l-0.5-1.2h0.1l-2.5-7
							l0-0.3l-0.1-0.3l-0.2-1.2l0.2,0.1l-0.2-1.1l0-0.2v-0.1l-0.2-0.9l0-0.2v-0.5l-0.1-0.6l0.2-5.8l0-0.2v-0.2L41,198l1.7-5.9
							C43.5,190,44.7,187.1,46.2,183.4 M71.1,263.5l1.2-2.6l0.8-0.9c0,0,0,0,0.1,0c0.7,0.5,1.2,0.8,1.4,0.9c0.2,0,0.2,0,0-0.1
							c-0.3-0.2-0.4-0.4-0.4-0.4l0.9,0.5c-0.8,1.2-1.4,2.1-1.9,2.8c-1.1,1.6-2.2,3.4-3.3,5.3c-1.3,2.4-2.2,4.4-2.9,6l-2.1,6.9
							l-0.2,4.3c0,0.7,0.2,1.5,0.4,2.4c0.2,0.9,0.5,1.7,0.9,2.4l1.1,1.9l0.2,0.1l0,0.1l0.5,0.6l0.1,0.1l0.1,0.1l0.4,0.5l0.1,0.3
							l3.2,3.4c0,0-0.5-0.6-1.4-1.8l-0.6-0.8l-0.6-1.2l2.6,2.8l0.3,0.3l0.2,0.5l0.4,0.5l1.2,1.3l0.3,0.3l0.2,0.2l0.2,0.1l1.2,1.3
							l0.4,0.7l0.7,0l0,0v0l-0.2,0.2c0.1-0.1,0.2-0.1,0.3-0.2l0.1,0.2c0,0.1-0.1,0.2-0.2,0.3c-0.4,0.3-0.8,0.7-1.3,1.3
							c-0.5,0.5-0.9,0.9-1.1,1.1l-0.4,1l-3.1,4.5l-1,2.2l-0.3,1l-0.1,0l-0.1,0.1l0,0.2c-0.3,1.2-0.5,2.2-0.6,3.1l-0.1,0.9v1.6
							l0.1,0.3l0.1,0.5v0.1l0.1,1.4v0.4h0l-1.6,0.2l0.1-0.1c-0.9,0.1-1.6,0.1-2.1,0.1l-2.8-0.1l0,0h-0.1l-0.4-0.1h-0.4l-0.3,0
							l-0.2,0h-0.2l-1.1-0.2c-1.3-0.3-2.2-0.5-2.8-0.7c-1.3-0.4-2.2-0.7-2.8-1l-1.5-0.7l-0.1-0.1h-0.1l-4.4-2.8v-0.1l-0.3-0.5v-0.1
							l0-0.1l-0.1-0.1l0-0.1v0l0,0h0l-0.2,0.1l0,0l-0.1-0.2l0,0v-0.1l-0.3-0.8c0-0.1-0.1-0.2-0.2-0.2c-0.1-0.1-0.2-0.2-0.2-0.3
							l-0.6-1.3c-0.5-1.3-0.9-2.6-1.3-4.1l-0.1-0.6v-0.2l0-0.2v-1.1l0.1-0.8V306l0-0.1l0.1-0.5l0.5-1.4v-0.1l0-0.1l0.3-0.8l0.1-0.1
							l0,0v-0.1l0.3-0.6l0.1-0.1l0-0.1l0.1-0.1l0.5-0.8l2.3-3.2l0.4-0.9l0.2-0.3l0.2-0.3L52,293l0,0.2l8.8-12.4l-0.2,0.3
							c0.3-0.7,0.7-1.2,1-1.5c0.5-0.4,0.9-0.8,1.1-1c-0.4,0-0.2-0.8,0.5-2.2l0.1,0.1l2.1-4.3l0.2,0.2L71.1,263.5z"/>
					</g>
				</g>
			</g>
		</g>
	</g>
</g>
</svg>
