<?xml version="1.0" encoding="utf-8"?>
<!-- Generator: Adobe Illustrator 24.1.2, SVG Export Plug-In . SVG Version: 6.00 Build 0)  -->
<svg version="1.1" id="Layer_1" xmlns="http://www.w3.org/2000/svg" xmlns:xlink="http://www.w3.org/1999/xlink" x="0px" y="0px"
	 viewBox="0 0 256 256" style="enable-background:new 0 0 256 256;" xml:space="preserve">
<style type="text/css">
	.st0{fill:#FFFFFF;}
</style>
<g id="run7">
	<g transform="matrix( 0.6996917724609375, 0, 0, 0.6996917724609375, 57.25,20.7) ">
		<g id="run">
			<g transform="matrix( 1, 0, 0, 1, 0,0) ">
				<g>
					<g id="run_6_Layer0_0_FILL">
						<path class="st0" d="M92.3-8.1c-2.3,1.8-4.4,3.7-6.4,5.8l-4.6,5.5l-0.2,0.3l0,0.1l-0.1,0L80,5.1v0.1l-0.2,0.2l-0.1,0.1l-1,1.6
							l0.6-0.9l-6.3,10.4c0.2-0.1,0.2,0.1,0.1,0.7c-0.2,0.8-0.5,1.5-0.8,2.1L72,20.7L72,20.9L71.9,21l-1.1,3.4l-0.1-0.1l-0.6,2
							l-0.1,0.3l0,0.1v0.1l-0.6,2.6v0.2l0,0.1l-1.6,12.2l-0.3-0.3l-1.4,41.4l0.1,2c0,0.1,0,0.2,0,0.3h-1.1c-1.1,0-1.8-0.1-2.3-0.2
							l0,0L61.5,85l-7.6-0.2l0.3-0.1c-0.4-0.1-1.2-0.1-2.4-0.1c-1.3,0-2.3-0.1-3-0.2c0.3,0,0.4,0.1,0.5,0.2c0.1,0.1-0.2,0.2-0.8,0.2
							c-0.8-0.1-1.9-0.1-3.3-0.1c-1.2,0-2.1,0-2.7-0.1l-1.7,0.3c-3.7,0.1-7.2,0.3-10.4,0.5l-15.1,1.7C10,87.9,5,88.9,0.1,90.1
							l-8.8,2.5l-0.3,0.1l-0.3,0l-0.9,0.3l0.3-0.2l-3.6,1.3l-0.1,0.1h-0.1l-0.1,0l-7.4,3.1c-1.7,0.7-3.8,1.8-6.5,3.1
							c-2.5,1.2-4.7,2.4-6.8,3.6c-2.5,1.5-4.8,2.9-6.6,4.2l-6,5.1c-1,1-1.8,2-2.6,2.9l-2.1,3.2c-0.4,0.6-0.7,1.1-0.9,1.7
							c-0.3,0.6-0.5,1.1-0.7,1.7l-0.5,1.3l-0.2,0.8l0,0v0.1l0,0.2l-0.1,0.5v0.2l-0.1,0.1v0.1l0,0.1v0c-0.3,1.2-0.6,2.4-0.8,3.7
							l-0.5,3.9c0.1-0.7,0.2-0.9,0.3-0.8l0,0.3l0,4l0.1,0.6c0.1,0.1,0.1,0.4,0.1,0.7l0.1,0.5l0,0.7l0.1,0.4l0.1,0.8l0.1,0.3l0.1,0.7
							l0.6,2c0.2,0.9,0.5,1.7,0.9,2.5l0.6,1.4l0.3,0.3l0.2,0.4l0.1,0.1l0,0.1v0.1l0.1,0.1l0.3,0.5l0,0v0.1l0,0.1l0.1,0.1l0.1,0.1
							l0.1,0.1l0.1,0.1l1.1,1.3l0.3,0.3l0.2,0.2l0.1,0.2l0.6,0.6l0.2,0.2l0.5,0.4l0.3,0.4l2.8,2.3l4,2.3l0.5,0.2l4.7,1.7h0.1
							l0.1,0.1h0.1l1,0.3l0,0h0.1l0.1,0.1l2,0.4h0.2l1,0.1h0.3l0.7,0.1h1l0.5,0c1.4,0,2.6-0.1,3.7-0.2c0.9-0.1,2-0.2,3.4-0.5
							c0.9-0.2,1.9-0.4,2.9-0.7l2.5-0.8c0,0,1.2-0.4,3.5-1.3l3.5-1.8l0.1-0.1h0l0.2-0.1l1.7-0.9c2.3-1.1,4-2,5.2-2.7l-0.3,0.3
							c4.9-2.5,9.3-4.7,13.1-6.7l7.9-4.1c1.6-0.8,3.3-1.6,5.2-2.4l-0.6,0.2c0.6-0.3,1.3-0.6,2-0.9l3.8-1.1c-0.1-0.1-0.1-0.2,0.2-0.4
							l2.3-1.1l0.3-0.1l0.1-0.1l0.7-0.3l0,0.1l0.3-0.1l0.3-0.2h0.1l0.5-0.3l0.3-0.1l0.5-0.2l6.3-1.5l-0.1,0.2l9.1-0.9
							c0.6,0,2-0.1,4.2-0.1l-3,11.4l0-0.1c-0.1,0.4-0.7,2.4-1.7,6l-1.5,5.6l-0.1,0.7c-0.2,0.2-0.3,0.4-0.5,0.8
							c-0.1,0.2-0.2,0.4-0.4,0.8c0.1-0.1,0.2-0.2,0.3-0.1c0.1,0,0.1,0.1,0.1,0.2c-0.2,0.5-0.2,0.8-0.2,0.9c0.1,0.1,0.1,0.4,0,0.9
							l-1.2,4.3l-2.3,5.5c0,0.3,0,0.8-0.3,1.4c-0.2,0.6-0.3,1.1-0.3,1.3l-0.1-0.1c0,0.3-0.4,1.4-1.3,3.3c-0.8,1.9-1.2,3.1-1.3,3.4
							l0.1-0.1l-0.1,0.6l-0.2,0.3c-0.3,0.2-0.4,0.4-0.5,0.6c0.4,0,0.5,0.4,0.3,1.2l-0.1-0.1l-0.3,2.3l-0.3-0.1l0,0.6l-1.4,3.4
							l-0.3,1.1v0.4l0,0.1l0,0l-1,2.4c-0.3,0.8-0.6,1.2-0.8,1.3l-0.3,0.3l-0.5,1.3c-0.8,2-1.5,3.9-2,5.7l-1.5,5.9
							c-0.5,2.3-0.8,4.4-1,6.1l-0.2,4.5c-0.3-0.4-0.7-0.9-1.1-1.4l-0.3-0.3l-0.1-0.1l-0.1-0.1v-0.1h0l-0.5-0.7l-0.1-0.1l-0.2-0.2
							l-3.4-3.9c-0.9-0.9-1.9-1.8-2.9-2.8l0-0.1l-0.1-0.1l-2.3-1.8l-3.6-2l-0.3-0.1l-0.3-0.1l-1.3-0.5c-0.1-0.1-0.1-0.1-0.1-0.1
							l0.6,0.1c-1.4-0.4-2.5-0.6-3.3-0.8c-1.4-0.1-2.6-0.1-3.6,0c-1.2,0.2-2.4,0.5-3.5,0.9L4,202.7l-0.2,0.1l-0.7,0.3l0,0.1h0
							l-0.1,0.1L2,203.7L1.1,204L0.8,204H0.6c0,0-0.1,0.1-0.4,0.3l-6,4.2c-1.7,1.4-3,2.6-4.1,3.7l-1.9,1.8l0.2,0.5l-1.1,1
							c-0.1,0.1-0.2,0.1-0.4,0.2l-0.2,0l-0.1,0.1l-0.1,0.1h-0.1l-0.8,0.9v0.1l-0.1,0.1l-0.1,0.4c-0.2,0.3-0.4,0.5-0.5,0.6l-0.1,0.2
							l-0.2,0.2l-1.9,2.3c-0.3,0.4-0.5,0.8-0.5,1l-0.2,0.2l-0.1,0.2l-0.1,0.1c-0.3,0.4-0.5,0.5-0.5,0.5c0,0.1,0,0.2-0.1,0.4
							l-0.1,0.2l-0.1,0.3c-0.2,0.3-0.5,0.7-0.7,1.1c0,0.2,0,0.2,0.1,0.1l0.4-0.3l-0.9,1.8c-0.3,0.3-0.4,0.5-0.5,0.5
							c-0.1,0-0.1-0.1,0.1-0.4l-2.3,4.1l-3,6.6l-0.4,1.3l-0.1,0.3l-0.3,0.6l-0.1,0.4c-0.3,0.9-0.6,2-0.9,3.1l-0.6,3.8
							c0,1.3,0,2,0,2.3v0.3l0.3,1.6l0.2,0.7c0.3,1,0.7,2,1.3,2.9c0.5,1,1.3,1.8,2.2,2.6l0.3,0.3l0.6,0.5l1.7,0.9l1.9,0.7l0.3,0
							l0.3,0.1l2,0.3c0.9,0.1,1.4,0.1,1.7,0.1l3.6-0.1l-0.3-0.2h-0.2l-0.4-0.1h-0.1l0-0.1h-0.1l-0.1-0.1h-0.1v0h-0.1l-0.1-0.1l0.2,0
							h0.1l0.1-0.1h0.4l0.3,0.1l0.3-0.1l0.1,0.3l0.3,0.1l0.6,0.2c0.6,0.1,1,0.4,1.1,0.8l0.2-0.1l0.2-0.2l0.3,0.4l1.2,0.4l0.2,0.1
							l0.2,0.1l0.3,0.1l0.2,0.1l0.2,0.1l5.1,3.3l0.8,0.7l0.2,0.2l0.1,0.2l-0.2-0.4l0.1-0.1l0.2,0.1c0,0.1,0.1,0.2,0.2,0.3L0,266
							c0,0,0.1,0.1,0.2,0.3l0.5,0.5c0.2,0.2,0.3,0.3,0.3,0.4l1.4,1.4l0.1,0.1l0.1,0.1l0.2-0.1v-0.1l0,0.1l0.6,1
							c0.3,0.4,0.3,0.5-0.1,0.1l0.5,0.6l0.1,0.2c0.3,0.3,0.5,0.5,0.7,0.6l-0.6-0.8l2.1,2.4c0.4,0.4,0.7,0.7,0.8,0.9
							c0.3,0.3,0.6,0.5,1,0.8l-0.5-0.8l1.4,1.5c0.4,0.6,0.7,1,0.7,1.3l-1.3-1l3.4,3.3l1.2,1l-0.5-0.6l3.1,2.5
							c0.1,0.1,0.3,0.2,0.5,0.5l2.3,1.7c0.1,0.1,0.3,0.2,0.4,0.3l0.2,0.2l0.1,0.1l0.8,0.5v0h0.1l1.4,0.8l0.1,0.1l0.8,0.4l0.1,0.1
							l0.1,0l0.3,0.1l1.6,0.8l4,1.3l0.4,0.1l0.3,0.1l2.6,0.5l-0.3-0.1l-0.3-0.2l-0.6-0.4l2.2,0.4l-0.8,0.3c-0.3,0.2-0.6,0.3-0.7,0.3
							l2.5,0.7c1.6,0.4,2.8,0.8,3.8,1l0.8,0.2l0.2,0l0.5,0.1l0.2,0h0.2l0.4,0.1h0.2l0.1,0l5.9,0.4c0.2,0,0.4-0.1,0.8-0.1l6.9-0.9
							l1-0.3c1.2-0.3,2.9-0.8,5-1.5c2-0.7,4-1.5,6.2-2.5c0.4-0.1,0.6-0.2,0.8-0.2s0.2,0.1,0.1,0.2c0,0.1-0.2,0.3-0.3,0.5l0.9-0.6
							L68,286c0.2-0.2,0.6-0.5,1.1-0.7c0.2-0.1,0.3-0.1,0.2,0.1c-0.1,0.1-0.2,0.3-0.4,0.4l1-0.6c0.3-0.1,0.4-0.2,0.4-0.3
							c-0.4,0.1-0.6,0.1-0.8,0c-0.3-0.2-0.4-0.3-0.5-0.3l2.2-1.2l0.1,0.3l0.3-0.3l0.1-0.1l0.1-0.1v0l0.6-0.6l1.9-1.5
							c0.9-0.7,1.8-1.3,2.5-2l6.4-6.8c0,0.1-0.3,0.6-0.8,1.6l1.2-1.4c-0.3,0.2-0.2,0,0.1-0.5c0.3-0.4,0.4-0.6,0.3-0.5l3.8-5.2v-0.1
							c0.8,0.2,1.3,0.4,1.6,0.4c1.2,0.5,1.8,0.8,1.6,0.9c0.3-0.1,0.7,0,1.4,0.3l1.8,0.6c0.2,0,0.2,0,0-0.1c-0.3-0.1-0.5-0.2-0.6-0.3
							l2.8,0.8c0.5,0.3,0.8,0.5,0.8,0.6s-0.2,0.1-0.8-0.1l13.7,5.4l17.2,8.4l12.4,7.5l0.3,0.2l2.4,1.6l-0.7-0.7l-2-1.5
							c-0.3-0.3-0.6-0.6-0.6-0.8l0.6,0.3l2.5,1.7l0.3,0.1c0,0.2,0.3,0.5,0.7,0.9l2.8,2.3c0.6,0.7,0.9,1.1,1,1.2l0.7,0.1l0.7,0.8
							l1.3,0.9l0.1,0.1h0l0.1,0.1h0.1l0.1,0.1l5.6,4.1l0.3,0.1l0.3,0.2l3.1,1.9l0.3,0.1l0.3,0.1l0.4,0.2l0.1,0.1l0.1,0l1.5,0.6
							l0.1,0l0.3,0.1c1.2,0.4,2.3,0.8,3.5,0.9c1.9,0.3,3.8,0.5,5.9,0.4h-0.1l-0.6-0.1c-0.1,0-0.1-0.1-0.1-0.1l0.9-0.1l0.4,0.1l0.6,0
							l0.4-0.1h0.2l0.8-0.1l0.1-0.1h0.2l0.1,0l0.2-0.1l1.4-0.3c0.5-0.1,0.8-0.1,0.9-0.1l3.1-0.9c1.3-0.4,1.6-0.7,0.9-0.7l1.3-0.2
							l0.2-0.1h0.1l0.2-0.1h0.1l0.3-0.1l0.1,0h0.1l0.8-0.3l0.1,0l0.1,0h0.1l0.5-0.2c0.1,0,0,0.1-0.1,0.1l-0.4,0.2l0,0l-0.1,0.1
							l0.8-0.3l2.4-1.5l0.2-0.2l0.9-0.7l-0.3,0.1l-1.3,0.9l-0.3,0.1l0.3-0.1l1.9-1.5l0.1-0.2l0.6-0.6c0.8-0.8,1.4-1.5,2.1-2.3
							l1.8-2.6l0.1,0v-0.1l0.1,0l0.6-1.3l-0.3,0.4l-0.1,0.1l-0.4,0.7l-0.2,0.1l0.1-0.1l0.1-0.1l0.1-0.2l1.6-2.7
							c0.6-1,1.1-1.6,1.5-1.9l-1.3,2.5l1.5-2.7c0.5-0.9,0.9-1.7,1.2-2.4c0.8-1.5,1.5-3.1,2.1-4.6l-0.6,1.2l5.9-13.9v0l0.1-0.1l0-0.2
							l0.3-0.6v-0.1l0.1-0.1l0.1-0.3l0.1-0.2l0.1-0.6l0.1-0.1v-0.1l0-0.2l0.1-1l0.1-0.3l-0.1-0.3v-0.5l-0.1-0.8l-0.1-0.1v-0.1
							l-0.4-1.3l-0.1-0.1l-0.1-0.1v0l-0.3-0.5l-0.1-0.2l-0.1-0.2l-0.3-0.4l-0.1-0.2l-0.2-0.2l-0.3-0.3v0h0l-0.9-0.9l-0.1-0.1
							l-0.2-0.1l-0.3-0.2l-0.6-0.4c-0.1-0.1-0.7-0.4-1.9-1.1c-1.2-0.4-2.2-0.7-3.1-0.9c-0.8-0.2-1.7-0.4-2.7-0.5l-0.6-0.1l-1.1-0.1
							h-0.3l-0.1,0h0h-0.5l-0.3-0.1h-0.3l-2-0.4l1.3,0.8c-1.1-0.2-2-0.4-2.7-0.6c0.1,0,0.5,0,1-0.2c0.4-0.2,0.7-0.2,0.8-0.3
							l-0.9-0.3l-0.1-0.1l-0.1-0.1l-0.2-0.1l-1.8-0.8l-4.7-3c-1.6-1.2-3.5-2.7-5.6-4.6c-2-1.8-4-3.7-5.8-5.7l-1.6-1.7l-0.1-0.1
							l-2.1-2.1l-0.3-0.2l-1.3-1.2l-7.4-5.9l-7.7-5.1h0.1l0.5-0.3l0.1-0.1c-0.1,0.1,0,0,0.2-0.1v-0.1h0.1l0.3-0.1l4.2-3.3l6-5.6
							l0.4-0.4l0.4-0.4l-0.4,0.6c0.9-0.7,2-1.9,3.3-3.5l3.5-4.2l0.1-0.1l0.4-0.5l-0.3,0.3l-0.1,0.2l-0.5,0.4c-0.1,0,0-0.1,0.1-0.3
							l1-1.4l0.3-0.3l0.1-0.1l0.7-0.9l0.1-0.1l0.1-0.1l0.1-0.1v0l0.9-1.3l2.8-4.8l0.1-0.1l0.9-1.8l1.1-3.3c1.1-2.6,2-5.2,2.7-7.9
							l1.3-5.3l0.1-0.2V179l0.4-1.9l0-0.2v-0.2l0.3-1.4l0.1-0.2v-0.1l0.1-0.2v-0.1l1-7.2l3.6,1.4h-0.4l4.6,1.7
							c-0.3-0.1-0.4-0.2-0.4-0.3c0-0.1,0.2-0.1,0.7,0.1l0.7,0.3l4.2,1.3l1.6,0.1l8.4,1.1h0.8c2.4,0.1,4.6,0,6.6-0.3
							c2.4-0.3,4.8-0.8,7.1-1.5l0.9-0.3l0.3,0l0.2-0.1l4.4-1.8l0.1-0.1h0l0.1-0.1l0.1-0.1l6-3.3c2.1-1.2,4.5-2.8,7.3-4.7l-0.2,0.2
							l1.8-1.3l0.3-0.1l2.7-2.1l0.3-0.2l2.6-2.3l0.2-0.1l0.1-0.1l1.4-1.3l0.3-0.3l2.7-2.8c1.5-1.7,2.9-3.4,4.1-5.1l1.4-2l3.5-6.6
							l1.8-5.4l0.4-1.4l0.1-0.1v-0.1l0.1-0.4l0.2-1.1v-0.1l0-0.1V128l0.7-4.7c0.3-0.9,0.4-1.9,0.5-2.9l0.3-2.8
							c0,0.3-0.1,0.5-0.1,0.4l-0.1-0.8l0.1-2.6l-0.4-3.8c-0.2-1.4-0.4-2.5-0.6-3.5c-0.1-0.6-0.3-1.4-0.7-2.5
							c-0.2-0.6-0.4-1.1-0.6-1.4l-0.8-1.4c-0.2-0.4-0.6-0.9-1-1.5c-0.4-0.5-0.8-1-1.3-1.4c-0.6-0.5-1.1-0.9-1.6-1.3l-1.7-0.9l-0.1,0
							l-0.1-0.1h-0.1l-0.1-0.1l-0.2-0.1l-0.3-0.1l-0.7-0.3l-0.7-0.2l-0.3-0.2l-4.9-1.3h-0.2l-0.2,0l-0.8-0.1l-0.3-0.1l-4.6-0.3
							l-2.5,0.1l-0.1,0l-0.9,0.1l-0.3,0.1h-0.2l-0.1,0l-1.9,0.3h-0.3l-0.3,0.1l-2.1,0.4l-3.1,0.9l-2.5,1.3c-0.9,0.4-1.8,1-2.7,1.6
							l-2.4,2.2l-1.1,1.2l-0.3,0.3l-0.1,0.1v0h0l-0.1,0.2l-0.1,0.1v0.1c0,0,0,0-0.1,0v0l0,0.1l-0.2,0.3l0.1-0.3
							c-0.5,0.8-1.4,2-2.6,3.6l-7.6,9.8l0,0.1l-0.1,0v0.1l-0.7,0.7c-0.3,0.2-0.5,0.3-0.7,0.5l-0.6,0.3l-1.1,0.4l0.3,0
							c-0.3,0.1-0.6,0.2-1.1,0.3l-0.9,0l-0.2-0.1l-1.1-0.2H204c0,0.1,0,0.1-0.2,0.2c-0.2,0.1-0.5,0.2-0.8,0.2l-1.9-0.1l0.1-0.1
							l-3-0.5c-1.4-0.3-2.6-0.6-3.7-1l0.1-0.1l-1.6-0.6l-5.9-2.7l-6.2-3.6l-0.4-7.4h0.1l-0.1-0.1h0.1V102l0-0.2
							c0.1-1.3,0.3-2.4,0.6-3.4l0.5-1.6l0.1-0.2v-0.1l0.1-0.3L182,96l0.3-0.7l0,0l0.2-0.4l0.7-1l1.1-1.3h0.1c0.4-0.4,0.8-0.7,1.3-1
							l1.8-0.9l2.1-0.7l0.3,0l0.2-0.1h0.1l0.1-0.1l0.3,0h0.1v-0.1h0.2l0.4-0.1h0.2l0.1-0.1h0.1l0.1,0h0.1l0.3-0.1
							c0.6-0.1,1.5-0.2,2.8-0.3l4.6-0.3c0.2,0,0.4-0.1,0.8-0.1l9.5-0.8l0.4-0.1l2.4-0.3l0.9-0.2h0.1l1-0.3l0.1,0h0.1l0.1-0.1h0.1
							l0.8-0.3c1.3-0.4,2.6-0.9,4.1-1.6l1-0.5l2.4-1.6l1.4-1.1l0.1,0l1.2-1.1l0.1-0.1l0.1-0.1l0.1-0.1l0.2-0.3l0.4-0.4l0.3-0.3
							l0.2-0.2l0.2-0.3l0.1-0.1l0.1-0.1l2.2-3.5l1-2.8l0.1-0.3l0.1-0.3l0.3-1.1l0.1-0.3l0.2-1.1v-0.3l0.1-0.6v-0.3l0.2-1.3v-2.2
							c0-0.1,0-0.2,0-0.3v-0.1l-0.1-0.1v-0.5l-0.2-1.5c-0.2-1.4-0.4-2.7-0.8-3.8c-0.4-1.4-0.8-2.6-1.3-3.5l-1.4-2.8v0h0v0l-1.6-2.5
							l-5.9-7.3v0l-1.3-1.4l-4.3-5.8l-0.1,0v0l-0.1-0.1l-0.1-0.1l-0.1-0.1l-0.1,0l-0.1-0.1l-0.2-0.3l-0.1-0.2l-0.1-0.1l-0.7-1.2
							l0-0.2l-0.3-0.5l0.2,0.5c0,0.2,0,0.2,0,0.2l-0.3-0.3l-0.2-0.3l-1.9-4.8c-0.2-0.5-0.3-0.8-0.4-0.8L210,26l-0.1-0.5l-0.1-0.2
							l-1.1-3.6l-0.1-0.5l-0.3-0.9v-0.2l-2.6-8.9l-2.4-6.2c-0.9-2-1.8-3.8-2.6-5.2L199-3.2l-0.1,0l-0.6-1.1l-0.1-0.1v-0.1l-0.1-0.1
							l-0.9-1.3c-0.7-0.9-1.4-1.9-2.3-2.8c-0.7-0.7-1.5-1.6-2.5-2.5c-1.2-1-2.1-1.7-2.8-2.1c-0.6-0.5-1.6-1.1-2.9-1.9l-2.9-1.7
							l-8.4-3.9l-0.2,0l-0.1-0.1l-0.7-0.3h-0.1l-0.1,0l-0.2-0.1l-8.1-2.5l-8.6-1.8h-0.3l-3.8-0.5l-0.3,0l-5.4-0.4l-2.7,0.1l-0.4,0
							l-2.3,0.1l-0.2,0l-1.9,0.1l-0.2,0.1l-1.4,0.1h-0.4l-6.4,0.9l-6.2,1.5l0.6-0.3l-4,1.1c-1.2,0.4-2.2,0.6-2.9,0.9l-5.1,1.8
							c-0.8,0.3-1.5,0.6-1.9,0.8l-3.4,1.5l-0.1,0l-0.2,0.1l-1.7,0.8l-0.3,0.2h-0.1l-6.2,3.3C97.4-11.9,94.8-10.1,92.3-8.1
							 M102.3-0.8c0.2-0.1,0.9-0.6,2.2-1.5l4.7-2.7l0.3-0.2l0.3-0.1l1.1-0.6l0.3-0.1l0.2-0.1h0.1l0-0.1l3.2-1.4l0.5-0.1l0.4-0.2
							l2.8-1.1l0.2-0.6l2.2-0.8l1.3-0.3h0.4l2.9-0.8l0.9-0.4l1.9-0.7l5.3-1.1h0.2l0.1,0l3.4-0.5h0.4c0.3,0,0.4,0,0.4,0.1
							c0.1-0.1,0.4-0.2,0.8-0.2l2.3-0.2h0l0.2-0.1l1-0.1c0.2-0.1,0.2-0.1-0.1-0.1c-0.4,0-0.7,0-0.9-0.1l3.8-0.3
							c0.8,0.1,1.2,0.1,1.3,0.2c0.1,0.1-0.3,0.1-1,0.2l4.4,0.1c0.3,0,0.6,0,0.8,0.1c2.5,0.2,5.1,0.5,7.7,1l4.5,1l0.3,0.1l0.3,0
							l6.9,2.2l0.1,0l0.2,0.1l0.6,0.3l0.2,0.1l8,3.7l2.1,1.3c1.3,0.9,2.6,1.8,3.7,2.8c1.1,1.1,2,2.1,2.7,2.9l0.5,0.7l0.1,0.1v0.1
							l0.5,0.8l0.2,0.2l0.1,0.3l0.8,1.3l2.8,6l0,0.2l2,5.9l0-0.6l-1.3-5l1.8,4.9l-0.1,0.6l0.1,0.9l1,4.7l0.2,2.3l0.6,0.8l0.1,1.6
							l2.9,8.2l0.1,0.3l1.8,4.2l1.4,2.4l0.1,0v0l0.2,0.2l0.3,0.6l0.1,0.1l0.1,0.1l6.7,7.8l0.1,0.2l1.8,2.1c-0.1-0.2-0.2-0.3-0.2-0.4
							c-0.1-0.3,0.1-0.2,0.6,0.4c0,0.1,0.4,0.7,1.4,1.9c0.3,0.3,0.7,0.7,1,1.2l0.2,0.3l0.1,0.2l0.1,0.4l0.2,0.3l0.1,0.1l0.3,0.4
							l0.1,0.1v0l0.1,0.1l-0.1,0l0.3,0.5v0l0,0l0.5,1l0.1,0.2l0.1,0.1l0.5,0.9l0.1,0.1v-0.3l0.4,2.1l0,0.5l0,0.3l-0.1-0.1l-0.2-0.5
							c0.1,0.4,0.2,0.9,0.3,1.6l0,0.2v0.2l0.1,0.4v0.2l0.1,0.4v-0.4l0.1,0v-1l0.1,1.9l0,0.1v0.5c-0.1,0.5-0.2,1.1-0.4,1.8l-1.2,2.8
							l0.8-0.9l-0.6,0.9l-0.1,0.1l-0.2,0.3l-0.1,0.1h0L217,72l-0.3,0.3l-0.3,0.2c-0.6,0.4-1.2,0.7-1.7,0.8c0.6-0.4,1.1-0.8,1.6-1.3
							l-1.1,0.9l-0.3,0.1l-0.1,0.1l-0.3,0.2c-0.7,0.4-1.3,0.7-2,0.9l-1.1,0.4h-0.1l-0.2,0l-0.1,0.1h0l-0.1,0h-0.1l-0.1,0.1h-0.1
							l-3.1,0.7l1.5-0.2c-0.9,0.2-1.9,0.4-2.9,0.5l-7.1,0.7c-0.3,0-0.6,0-0.8,0l-7.9,0.9l-3,0.7h-0.1l-0.1,0.1h-0.1l-1.8,0.5l-4.7,2
							l-2.1,1.3l-0.1,0.1l-0.3,0.2c-0.1,0.1-0.2,0.2-0.4,0.4l-1.3,1c-0.1,0-0.1,0.1-0.1,0.1l-0.3,0.3L176,84l-0.6,0.5l-2,2.4
							l-1.8,3.1l-1.1,2.8c-0.2,0.5-0.4,1.2-0.6,2.2l-0.3,1.6c0.5-1.4,0.9-2.3,1.2-2.8c-0.5,1.7-0.8,3.5-0.9,5.4
							c0-0.2-0.1-0.7-0.3-1.6l-0.2-1c0-0.1,0-0.3,0-0.4c-0.2,0.8-0.3,1.6-0.5,2.5l-0.3,3.3l-0.1,0.3v2.3l0.1,0.2l2.6,44.5l0.1,0.1
							v5.8c-0.1,1.9-0.2,3.7-0.3,5.4l-0.4-0.3l0.4,0.4c-0.1,0.9-0.2,1.7-0.3,2.5l-0.7,5.1c-0.2,1-0.3,1.5-0.4,1.6
							c-0.1,0.2-0.1,0.2-0.2,0.1l-0.1-1.1l-0.3,4.1l-0.3,1.6l-0.1,0.1v0.1l-0.1,0.1c0,0-0.1-0.1-0.1-0.2l0.1-1l-0.2,0.9l-0.1,0.3
							l-0.3,1.6c0,0.2,0,0.3,0,0.4l0.1-0.4l0.3-0.6c0.1-0.2,0.2-0.3,0.3-0.3c0.3-0.2,0.5-0.3,0.6-0.4l-0.3,1.4l-0.1,0.3l-0.7,2.8
							l-0.2-0.3l-0.1,0.4v0.3l-0.1,0.3l-0.2,1.8l-0.8,3.2l-0.5,1.1c-0.7,1.7-1.4,3.5-2.3,5.4c-1,2-2,3.7-2.9,5l-0.2,0.3l-0.8,1
							l-0.1,0.2H160v0l-0.1,0.1l-0.8,1l-0.1,0.1l-0.2,0.3l-1.4,1.8c-1.2,1.4-2.6,2.9-4.1,4.4c0-0.1,0.2-0.5,0.7-1l1.4-1.8l-2.5,2.5
							l0.4-0.2l-0.1,0.1l-1.5,1.6l-0.1,0.2l0.2-0.2c-0.9,1.1-1.9,2.2-3.2,3.2l-4.6,3.6h0l-0.1,0.1l-0.3,0.2l-0.1,0.1h-0.1l-0.3,0.3
							L143,215l-0.6,0.3l-0.4,0.3l-0.6,0.3l-2.1,0.8l-0.6,0.1l-0.1,0.2l-0.1,0.2l-0.6,0.8l-0.5,0.4c-0.1,0-0.2-0.1-0.3-0.1l-19.6-9
							c0.1-0.1,1,0.1,2.7,0.8l-2.7-1.2c0.5,0.3,0.3,0.3-0.6-0.1c-1-0.4-1.3-0.5-0.8-0.3c-0.7-0.2-1.9-0.5-3.4-1.1l-3.6-1.5
							c-1.6-0.6-2.7-1.1-3.4-1.3l-3.2-0.9c-0.2,0.1-0.9,0.5-2.1,1.1c-1.4,0.7-2.7,1.4-3.8,1.9c-1.2,0.5-2.3,0.9-3.5,1.3l-1,0.3
							c-0.1,0.2-0.2,0.3-0.3,0.4l0.1,0.1l0.7,0.5l0.3-0.1c0.9,0.6,1.4,0.9,1.5,1.1l0.3,0.3l1.2,0.8c0.1,0.1,0,0.1-0.3-0.1l-0.8-0.4
							l0-0.1l-2.9-2l2.9,2.3l1.3,0.7c0.3,0.2,0.5,0.3,0.7,0.5l0,0.2c-0.1,0.1,0.3,0.3,1,0.8l5.3,2.5l0,0.1l2.6,1.2l5.4,1.8
							c0.8,0.3,1.7,0.7,2.7,1.3l-0.5-0.1l6.3,2.9c-0.3-0.1-0.4-0.2-0.5-0.3c0-0.1,0.3,0,1,0.3l6.7,3.5l2.1,0.7l4.9,2.5
							c2,1,4.3,2.3,6.7,3.7c3.5,2,6.1,3.6,7.8,4.6l5.5,3.8l0.1,0.1l6.5,5.7l0,0l0.1,0.1l9.5,9.3c2.6,2.2,4.9,3.9,7,5.3
							c0.8,0.6,1.8,1.2,3.1,1.9c0.3,0.2,0.8,0.5,1.4,0.8l1.3,0.6L182,265c1.3,0.6,2.6,1.2,3.9,1.6l0.9,0.3l0.3,0.1l0.6,0.2l0.3,0.1
							l0.3,0.1l1.4,0.3l0.1,0.1h0.2l0.3,0h0.2l0.3,0.1h0.1l1.3,0.2l-8.8,18.1l-0.6,0.9l-0.1,0.1l-0.1,0.1l-0.3,0.5l-0.1,0v0.1
							l-0.1,0.1l-1.3,1.8l-0.9,1v0.1l-0.2,0.1l-0.8,0.8l-0.2,0.1l0,0.1h-0.1l-0.1,0l-0.3,0.1h-0.1l0,0l-0.2,0.1l-6.3,1.7l-0.3,0.1
							l-0.2,0.1l0.1-0.1l-0.1,0.1l-0.7,0.1h-0.2c-0.6,0.1-1.3,0-1.9-0.1l-1.4-0.5l-0.4-0.3h-0.1l-0.1-0.1l-0.1,0h-0.1l0-0.1
							l-0.3-0.1l-0.2-0.1l0,0l-0.1-0.1h-0.1h0.1l-0.1,0c-1-0.6-1.6-1-1.6-1l-1.6-1.1l0.5,0.5c0.1,0.1,0.1,0.1,0.1,0.1
							c-0.2,0-0.5-0.2-0.9-0.5l-2.9-2.1c-0.3-0.2-0.5-0.3-0.6-0.3l-0.6-0.4l-0.1,0h-0.1l0,0l-4-3l-0.2-0.2l-9.2-6.3
							c-2.1-1.3-4.5-2.8-7.4-4.5c-2.4-1.4-5.1-2.9-8.1-4.4l-8-3.9l-18.7-7.8l-15.2-4.5l0.5,0.1l-22.1-5.8l-3.9-1.9
							c-1.6-0.8-2.8-1.6-3.8-2.1c-1.1-0.6-2-1.3-2.9-2l-1.7-1.3l0.1,0.1l0.3,0.3l-1.2-0.9l-0.1-0.1l-0.2-0.1l-1.2-1.1l-2.4-3.2
							c0,0.1-0.2,0.1-0.5-0.1l-0.2-0.2l-1.8-2l-0.8-1.2h0.1l-0.2-0.3l-0.3-0.4l-1.2-2.1l0-0.1l-0.5-1.2c-0.5-1-0.8-2-1.1-2.8
							l-0.5-1.9l0-0.4l-0.1-0.3l-0.1-0.4l0.3,0.1l-0.1-0.6l-0.4-2.1c-0.1-1.4-0.2-2.5-0.2-3.2l0-2.8l0-0.3v-0.7l0.2-1.6
							c0.1-1.3,0.4-2.8,0.8-4.4c0.3-1.4,0.7-3.1,1.3-5.1l2.5-7.9v0h0.2l-0.2,0l0.2,0l0-0.1h0.1l0.1,0.1l-0.2,0.2l0.2-0.1h0.1l0-0.1
							h0l0.3-0.1c0,0-0.1,0-0.3,0.1l0.3-0.4l0.2-0.1l0.1-0.1l0.1-0.1l0.2-0.1h0.2c0.1,0.1,0.3,0,0.4-0.1l2.1-3.7l1.4-3.9
							c0.1,0,0.1,0,0.1,0.1l0.1-0.6l0.2-0.6l0.3-1.1c0.1-0.1,0.3-0.2,0.5-0.2c-0.1,0,0.1-0.7,0.5-2.1l0.8-2.1l-0.4-0.2
							c0.1-0.3,0.2-0.4,0.4-0.4c0.2,0,0.3-0.2,0.3-0.4c-0.2-0.2-0.2-0.4,0-0.8c0.2-0.4,0.3-0.6,0.3-0.8l0.1-0.1
							c0.1-0.1,0.1-0.2,0.2-0.2c-0.1-0.1-0.1-0.2-0.1-0.3c0.1-0.2,0.1-0.3,0.1-0.3c-0.1,0-0.1,0.1-0.3,0.1l0.1-0.6
							c0.1-0.1,0.2-0.1,0.3-0.1s0.1,0.1,0.1,0.2l3-7.3l0.1-0.3l0.1-0.3l0.5-1.3c-0.1,0-0.2,0.1-0.3,0.3c-0.1,0.2-0.3,0.3-0.5,0.3
							c0-0.2,0-0.3,0.1-0.4c0.1-0.1,0.1-0.2,0.1-0.3c0.2,0,0.4-0.1,0.6-0.4l0.2-0.3c0.2-0.1,0.3-0.1,0.4-0.1l-0.3-0.3l0.3-0.1
							c0.1-0.7,0.2-1.1,0.2-1.1c0.1,0,0.3-0.3,0.5-0.8c0.1-0.3,0.2-0.6,0.2-1.1c0-0.4,0.1-0.6,0.2-0.8c0,0-0.1,0.1-0.2,0.1
							c-0.1,0-0.2-0.1-0.2-0.1c0.1,0,0.2-0.1,0.2-0.3c0-0.2,0-0.4,0.1-0.4c0.1-0.2,0.1-0.4,0.2-0.6c0-0.2-0.1-0.3-0.3-0.3
							c0,0,0.2-0.1,0.4-0.3c0.1-0.1,0.2-0.1,0.2,0.1c0.2-0.3,0.2-0.5,0.2-0.6l-0.2,0.3c0.4-0.7,0.6-1.3,0.5-1.7l-0.3,0.3l0.3-0.6
							c0.1-0.2,0.3-0.3,0.5-0.3v0.4c0.2-0.7,0.3-1.3,0.3-1.9l-0.1,0.3c-0.1-0.3,0-1.3,0.3-3c0.2-1.6,0.3-2.6,0.2-2.9l-0.5,0.2
							l-0.1-0.7c0.6,0.4,0.9,0.6,0.9,0.7c0.1-0.6,0.6-2.1,1.3-4.7l1.5-4.6c0.1-0.2,0.3-0.3,0.4-0.1c0.1,0.1,0.1,0.1,0.2,0.3
							c0-0.2,0-0.4-0.1-0.5c0-0.1,0-0.2,0-0.4c0,0,0.1,0,0.3,0.2c0.1-0.3,0.1-0.4,0-0.4c-0.1,0.2-0.4,0.2-0.9,0.1l0.3-0.6l0.3,0.1
							c-0.1-0.1-0.2-0.3-0.3-0.4c-0.2-0.3-0.2-0.5-0.1-0.8l1.1-3.4c0.1,0,0.2,0.2,0.2,0.6c0.1-0.3,0.2-0.5,0.3-0.5
							c-0.1,0.1-0.2,0-0.2-0.1c0-0.2,0-0.2-0.1-0.2c0-0.1,0-0.1-0.1-0.2l3.5,0.4L71,133l0.8-0.9c0.6-0.7,1-1.3,1.3-2
							c0.3-0.9,0.3-1.6-0.1-2.2c-0.2-0.3-0.6-0.6-1.2-1c-0.5-0.3-1.3-0.5-2.3-0.8l0.1-0.2l-1.5,0c-0.6-0.1-1.3-0.2-2-0.2
							c-0.4,0-0.6,0-0.5-0.1l2.4,0.2c-0.8-0.1-1.1-0.2-0.8-0.2c0.1,0,0.5,0,1.1-0.1l-2.2-0.2c0.2,0,0.4,0.1,0.5,0.1
							c-2.1,0-3.3,0-3.5-0.1c-0.6,0-0.9-0.1-1-0.2c-0.2-0.1-0.6-0.2-1.3-0.2c-2.9-0.1-5.8-0.2-8.6-0.3c-3.4,0-6.3,0.1-8.8,0.3
							l-9.6,1.1l-8.4,2.5c-0.2,0-0.1-0.1,0.3-0.3l-4.5,1.8l-0.3,0.1c-1,0.4-2.5,1.1-4.5,2c-0.5,0.2-0.8,0.3-0.9,0.3l-0.5,0.1
							c0.1,0-0.1,0.1-0.6,0.3l-15.3,8v0.4c-1,0.5-1.7,0.8-2,0.8c-0.4,0.1-1,0.3-1.8,0.8c-0.2,0.3-1.1,0.8-2.7,1.6
							c-1.7,0.8-2.6,1.2-2.7,1.4c-0.9,0.4-1.4,0.5-1.4,0.4c-0.1,0.2-0.4,0.4-0.9,0.6l-0.6,0.3l-0.1,0.1l0,0.1l-0.2,0.1l-0.3,0.2
							c-0.1,0.1-0.1,0.1,0.1,0.1c0.3-0.1,0.4-0.2,0.4-0.2l-1.8,1c-0.4,0.1-0.6,0.2-0.7,0.1l0-0.1l0.4-0.3l-2.6,1.1
							c-1.5,0.5-2.8,0.9-3.9,1.2c-1.8,0.4-3.3,0.7-4.7,0.8c-0.8,0.1-1.6,0.1-2.4,0h-0.6l-3.3-0.6l0-0.1h-0.1l-3-1.1l-2.3-1.2
							l-2.3-1.8l-0.9-0.9l0-0.1l-0.5-0.5l0-0.1l0-0.1l-0.2-0.3l-0.1-0.1l-0.1-0.1l-0.1-0.2l0-0.1v0h-0.1l-0.3-0.5l-0.2-0.3v0.2
							l0.1,0.3v0.1l0,0.1l0,0.1l0.1,0.2v0.1h0v0.1l0.2,0.2l0,0.1l0.1,0.2l0.2,0.6l-0.3-0.3l-0.1-0.2l-0.1,0v-0.1l-0.3-0.4v-0.1h0v0
							l-0.1-0.1l0-0.2l-0.1-0.1l-0.3-0.3c0.1-0.2,0-0.6-0.3-1.4l-0.1-0.5l-0.1-1l0.1-0.4l-0.3-0.3v-0.2l0-0.1l0-0.3l-0.3-1.7v-0.3
							l0-0.3v-0.4c0-0.4,0-0.7,0-0.8v-0.3l0.8-6.9v-0.1l0-0.1v-0.3l0.1,0v-0.3l0.1-0.3c0.1-0.3,0.2-0.6,0.3-0.9l-0.3,0.3
							c0,0-0.1,0-0.1,0v-0.1l0-0.2c0.1,0,0.3-0.2,0.5-0.8l0.1-0.2l0.1-0.2l0.1-0.2l0-0.2l0.1-0.1l0.1-0.2l0.2-0.1l1-1.4l0.2-0.3
							l0.2-0.2c0.1-0.2,0-0.2-0.3-0.1c0.5-0.4,0.9-0.6,1.1-0.8l0.3-0.2l0.2-0.1c0,0,0,0.1-0.3,0.3l1.5-1.4l-0.8,0.6l2.6-2.1
							c1-0.7,1.7-1.3,2.1-1.8l-1,0.5c0.7-0.5,1.3-1,1.9-1.3l0.8-0.4l0.6-0.2l-1.4,1.1c0.7-0.5,1.7-1.1,3-2l2.8-1.8l-0.8,0.4l3.7-2.3
							c2.5-1.3,4.6-2.4,6.2-3.1c1.4-0.7,3.5-1.7,6.4-3l0.4-0.2h0l0.2-0.1l3.3-1.5l-1.3,0.1l2.2-1c-0.1,0.1-0.3,0.3-0.5,0.7
							c-0.2,0.3-0.4,0.5-0.5,0.6l12.6-3.6c2.4-0.6,4.4-1,6-1.3l11.7-1.7l7.4-0.5c0.9,0,1.2,0.1,1,0.3c-0.1,0.1-0.3,0.2-0.5,0.3
							l1.7-0.3c0.2-0.1,0.7-0.2,1.4-0.2c0.3,0,0.2,0.2-0.4,0.3l1.3-0.1c0.4,0,0.6,0,0.6-0.1c-0.5,0-0.8-0.1-0.8-0.3
							c-0.2-0.2-0.3-0.4-0.4-0.4l2.7-0.1l-0.1,0.3c0.2,0,0.6-0.1,1.3-0.3c0.9-0.2,1.8-0.3,2.9-0.3l14,0.1c0,0.1-0.7,0.2-2,0.3
							c1,0,1.7,0,2.1,0.1c-0.4-0.1-0.2-0.2,0.5-0.2c0,0,0.3,0,0.7,0c0.1,0,0.1,0-0.1-0.1l5.5-0.1c1.1,0.1,2.1,0.1,2.9,0.1
							c-0.1,0.2-0.1,0.4,0,0.5l0.3,0.3l0.3,0.2l0.3,0.2l2,0.5l0.4,0c0.2,0,0.5,0.1,0.9,0.1l2.6-0.2l0.9-0.3h0.1l0-0.1l0.2-0.1l0.1,0
							l0.1-0.1l0.2-0.1l0.3-0.2v0l0.1-0.1l0.2-0.2h0.1l0.2-0.2l-0.1,0.2l-0.2,0.1L72.1,97l0.3-0.3l0.6-0.7v0l0.1-0.1l0-0.1l0.2-0.2
							l0.1-0.1l0,0l0.4-1l0.1-0.2v-0.2l0-0.4l0.1-0.1v-0.2l0.2-0.5l0-0.4l0.1-0.1v-0.2l0.7-4.3c0-0.4,0-0.7,0.1-0.8
							c0.1-0.1,0.1-0.2,0.2-0.2l-0.7,4.5l0.4-1.7v0.2l-0.2,1.8l0.8-3.8c0-0.3,0-0.3-0.1,0c-0.1,0.5-0.2,0.8-0.2,0.9
							c0.2-2.8,0.4-4.9,0.7-6.3l0.2-1.5l0.2-0.3l0.2-0.4c0.1-0.2,0.2-0.8,0.3-1.8L77,71c0.2-2.5,0.3-5.1,0.4-7.7l0.8-15
							c0.1-1.2,0.2-2.4,0.3-3.6L80.5,32v-0.1l0.3-0.9v-0.1l0.1-0.1l0.5-1.9l0.1-0.2l0.4-1.2c0.8-2.4,1.7-4.6,2.6-6.4
							c0.3-0.3,0.3-0.4,0.2,0l-0.2,0.3l-0.1,0.4l1.3-2.8l5.2-8.5v-0.1h0.1l0-0.1l1.8-2.3l0.2-0.1l0.3-0.3l0.8-0.6L94,6.6l0,0
							l0.1-0.1c-0.1,0,0.1-0.2,0.6-0.8l0.4-0.4l5-4.5L102.3-0.8 M240.7,104.5l0.3,0l4.5,0.3c1.7,0.3,3,0.6,4,1l0.8,0.3l0.1,0
							l0.8,0.3h0.1v0l0.2,0.1h0l0.1,0.1l0.1,0.1l0.3,0.4c0.1,0,0.1,0.1,0.2,0.3l0,0.1l0.1,0.1l0.6,1.7c0-0.1,0-0.4-0.1-1
							c-0.1-0.4-0.1-0.7-0.1-0.8c0.2,0.3,0.3,0.5,0.4,0.8l0.1,0.4l0.2,0.3c-0.1,0.1-0.2,0.6-0.1,1.3l0.1,0.9l-0.1,0.4l-0.1,0.3
							l0.3,0.3l-0.2,0.5l0.2,1.5v0.9c0,0.3,0,0.6,0,0.7l-0.5,6c-0.1,1-0.2,1.8-0.3,2.3c0.1-0.1,0.1-0.2,0.2-0.3
							c0.1-0.1,0.1,0,0.1,0.3c-0.1,0.1-0.2,0.2-0.2,0.3l-0.1,0.3l0,0.1v0.1l0-0.1v0l0,0.2l-0.1,0.8l-0.1,0.3l0,0.1l-0.1,0.1
							l-0.2,0.8v0.1l-0.1,0.1l-0.1,0.4c-0.1,0.7-0.1,0.9,0.2,0.6l-0.1,0.1l-0.6,1.1l-0.1,0.1c0,0,0-0.1,0-0.4l-0.1,0.2l-0.1,0.2
							l-0.3,0.8l-0.1,0.4l0.1-0.2l0.3-0.5c-0.2,0.7-0.6,1.5-1.1,2.4l-0.2,0.3l-0.1,0.3l-0.3,0.4l-0.1,0.3l-0.1,0.3l-0.2,0.5l0.3-0.3
							l0.1-0.2l0.1-0.1l-0.2,0.4l-0.7,1.1l-0.4,0.5l-0.3,0.2l-0.2,0.1l0.1-0.1l0.1-0.1l0.5-1l-0.6,1c-0.1,0.1-0.1,0.2-0.2,0.3
							l-1.7,2.7l-0.1,0.3l-0.2,0.3l0.4-0.6l-0.1,0.3l-1.4,2.1l-0.2,0.2l-0.8,0.9l-0.1,0.1l-0.1,0.1l-2.7,3.1c-1.3,1.3-2.6,2.5-4,3.7
							l-2.5,2.3l1.1-0.3l-1.5,1.3c0.1-0.1,0.1-0.3,0.2-0.7c0-0.3,0.1-0.5,0.2-0.6c-1.7,1.2-3.4,2.3-4.9,3.3l-7.3,4.1h0v0.1l-0.9,0.4
							l-0.3,0.1l-0.1,0.1l-3.2,1.2l-0.3,0.1l-0.3,0.1l-0.8,0.2l-0.3,0.1l-0.8,0.1l-0.3,0.1l-4.8,0.6h-2.4l-0.5-0.1l-0.2-0.1
							c-0.1,0-0.1-0.1-0.1-0.2l0.5-0.3c-0.5,0-0.9,0.1-1.3,0.2c-0.2,0.1-0.6,0.1-1.1,0c-0.4,0-0.3-0.1,0.3-0.3l-0.5-0.1h-0.2
							l-0.2-0.1c-0.3,0-0.4,0-0.4,0.1c0.3,0.1,0.5,0.2,0.6,0.4c0.1,0.3,0.1,0.4,0.2,0.4h-0.3l-0.3,0l-1-0.1l-0.5-0.1l0.1-0.2
							l-1.4,0.3l-1.1-0.1l-0.3-0.1l-1-0.2l-0.3-0.1l-0.3-0.1l-9-2.8c0.1-0.1,0.6,0,1.6,0.3c-0.7-0.3-1.2-0.5-1.5-0.6
							c0.3,0.2,0.3,0.3,0.1,0.1h-0.2l-0.3-0.1l-1.5-0.3c-0.4-0.1-0.8-0.2-1-0.3l-3.6-1.6c0.1-1.2,0.1-2.4,0.1-3.4v-2.3l-0.1-0.5
							l-0.1-2.7l-0.1-0.2l-1.6-26.8l1.3,0.9l5.9,3.2c2.5,1.2,4.8,2.2,6.9,2.9c2.9,0.9,5.5,1.5,8,1.6c0.2,0.1,0,0.1-0.4,0.1
							c1.2,0.1,2.1,0.1,2.7,0.1c0.9-0.1,1.8-0.2,2.7-0.3c1.3-0.3,2.2-0.5,2.7-0.7l3.8-1.8l0.6-0.2c0,0,0-0.1,0.1-0.2l0.4-0.4
							c0.7-0.6,1.3-1.2,1.8-1.8l7.7-9.9l-0.2-0.4c0.5-0.6,0.9-1.1,1.2-1.3l0.3-0.3c0.2-0.2,0.4-0.5,0.8-1c0.1-0.3,0.2-0.7,0.5-1
							l0.3-0.5l0.1-0.1l0.1-0.2l0.1-0.1h0.1v-0.1l0.9-0.8c0.1-0.1,0.2-0.2,0.2-0.3c0,0,0.1,0,0.3-0.2c0.2-0.2,0.4-0.2,0.4,0l0.1-0.2
							l0.2-0.2l0.1-0.1c0.4-0.2,0.6-0.3,0.7-0.4c0,0,0-0.1-0.1-0.1l-0.2,0.1h-0.1l1.1-0.7l0.3-0.1l0.2,0.1c0.1,0,0,0.1-0.3,0.3
							l0.3-0.2l0.2-0.1l0.2-0.1l3.3-0.8l0.4-0.1l0.1,0h0.1l0.8-0.2h0.3l0.2-0.1l0.4,0h0.2l0.3-0.1L240.7,104.5 M21,220.5l0.1,0.2
							l0.6,0.6l0.1,0.1l0.1,0.1l0.1,0.2l4.6,4.8l3.5,2.8l1.4,0.8l0.2,0.1l0.3,0.1c0.3,0.2,0.6,0.3,0.9,0.4c0.1,0.3,0.2,0.5,0.3,0.8
							c0.7,2,1.7,4,2.8,6.1c1.1,1.9,2.4,3.8,3.8,5.6c0.1,0.2-0.1,0-0.5-0.4l0.7,0.8l4,4.2l3.4,3l0.4,0.3l3.5,2.8l0.4,0.5
							c0,0,0.2,0.1,0.6,0.4l4.8,2.7l0.4,0.2l0.4,0.3l3.3,1.6l14.5,3.7l0.3-0.3l-0.6,1.1l-1.1,1.2l0.1-0.3l-2.3,2.4l-0.4,0.3
							c0.2-0.1,0.3-0.1,0.4-0.1c0.1,0,0,0.2-0.3,0.5l-1.7,1.4l-0.2,0.2l-0.2,0.1l-0.3,0.3l-0.6,0.4l-0.2,0.1l-0.7,1l-1.8,1.3H66
							l-0.2,0.1l-0.2,0l-0.4,0.3l-0.2,0l-3.5,1.8l-0.3,0.2l-0.3,0.1l-3.5,1.6l-0.3,0.1l-0.2,0.1l-1.4,0.5l-0.3,0.1l-2.5,0.8
							l-0.3,0.1l-2.5,0.6c-1.2,0.2-2,0.3-2.5,0.3l-2.3,0.2c-0.5,0-1.2,0-2.1-0.1l-0.7-0.1h-0.1l-0.1,0l-0.4-0.1h-0.1l-0.1,0
							l-0.3-0.1l-0.1,0l-0.3,0l-4.6-1.2h0.3c-1.5-0.4-2.8-0.8-3.8-1.1l-1.8-0.7l-0.3,0l-0.8-0.3l-0.3-0.2l-1.4-0.6l-0.2-0.2
							l-0.3-0.1h0v0l-0.1-0.1h-0.1v0l-0.1,0l-0.3-0.2h0l-0.1,0l-0.6-0.5l-0.2-0.2l-2-1.6l-11.7-11.5l-0.7-0.8l-2.2-2.1
							c-1.2-1.2-2.5-2.2-3.7-3.2c-0.5-0.6-1.2-1.3-2.3-2.1l-2.7-2c0.5,0.4,0.6,0.6,0.4,0.6s-0.4-0.1-0.7-0.3L0,250.3
							c-0.1-0.1-0.2-0.2-0.3-0.3l-1.6-0.9l-0.5-0.1h-0.1l-6-1.8h-0.1l-0.1-0.1L-11,247h-0.3l-0.4-0.1h-1.5l-0.4,0.1l-1.3,0.1l-0.2,0
							h-0.3v0c0.1-0.6,0.2-1.2,0.3-1.8c0.1-0.4,0.2-0.7,0.3-1l0.1-0.3l0.3-0.8l0.1-0.4l1.6-3.9c1-2.3,1.9-4.1,2.8-5.6l0.8-1.9
							l0.2-0.3l0.1-0.3l0.4-0.7l0.1-0.3l0.3-0.4c1.1-1.6,1.9-2.7,2.3-3.4l0,0.3l0.1-0.3l0.1-0.1l0.1-0.1l0.2-0.3l0.1-0.2l0.1-0.1
							l0.1-0.1l3.1-3.3l0.1-0.2l3.3-2.9c0.3-0.3,0.5-0.4,0.6-0.6l4.8-3.6l2.2-1.3H9.2l-0.1,0h0.1v-0.1h0.1l0.1-0.1h0.1l0.1-0.1h0.4
							l0.1,0.1H10l0.1,0.1h0.1l0.1,0.1l0.1,0.1l0.1,0.1l0.2,0.1l0.1,0h0.1v0.1l0.2,0.1c0-0.1,0.1-0.2,0.3-0.3h0.7l0.1,0.1l0.6,0.1
							l0.2,0.1l0.2,0.1l0.3,0.1l-0.1,0.1l1.4,0.7l2.6,1.7l1.4,1.2l-0.3,0.1l0.7,0.5L21,220.5z"/>
					</g>
				</g>
			</g>
		</g>
	</g>
</g>
</svg>
