<?xml version="1.0" encoding="utf-8"?>
<!-- Generator: Adobe Illustrator 24.1.2, SVG Export Plug-In . SVG Version: 6.00 Build 0)  -->
<svg version="1.1" id="Layer_1" xmlns="http://www.w3.org/2000/svg" xmlns:xlink="http://www.w3.org/1999/xlink" x="0px" y="0px"
	 viewBox="0 0 256 256" style="enable-background:new 0 0 256 256;" xml:space="preserve">
<style type="text/css">
	.st0{fill:#FFFFFF;}
</style>
<g id="run2">
	<g transform="matrix( 0.6996917724609375, 0, 0, 0.6996917724609375, 57.25,20.7) ">
		<g id="run">
			<g transform="matrix( 1, 0, 0, 1, 0,0) ">
				<g>
					<g id="run_1_Layer0_0_FILL">
						<path class="st0" d="M116.4-17l1-0.3c0.2,0,0.3,0,0.3,0l-6.4,2.6l-1.8,0.9c-0.1,0.1-0.5,0.3-1.1,0.6l-0.1,0.1l-2,0.9l-0.2,0.2
							l-0.2,0.1l-1.7,0.9l-0.3,0.1l-7.4,4.5c-3.2,2.3-6,4.6-8.4,7c-1.6,1.5-3,3.1-4.4,4.7l-2.3,3.1l-0.1,0.2l-1,1.4l-0.1,0.1
							l-0.1,0.2v0l-0.3,0.5c-1.7,2.7-2.8,4.6-3.4,5.7l-3.2,6.1c-1.1,2.4-2,4.5-2.7,6.5l-0.8,2.3l-0.1,0v0.1L69,34.3v0.1L68.6,36
							c-0.8,3.6-1.5,7.6-2,12L65.5,60v0.5l-0.1,0.2v9.9c0,1.8,0.2,3.8,0.4,6.1c0.2,2.1,0.4,4.1,0.8,6.1l0.6,2.9l0.2,0.7l0.1,0.4
							l0,0.1l0.4,1.6l-0.3-0.8l0.6,2.3l0.1,0.2v0.1h0.1v0.3l0,0.1v0.4l0.1,0.2v1.4L68.3,93v0.3l0,0.3v0.3l-0.2,1.1L68,95.6v0.2
							l-0.5,0.2l-0.9,0.5c-0.4,0.3-0.7,0.4-0.8,0.4c-0.4,0.2-0.7,0.3-1,0.4l0.1-0.2l-0.5,0.1l-0.6,0.3L62.4,98c0.1,0,0.2,0,0.3,0.1
							c0.1,0.1,0,0.2-0.3,0.3c-0.5,0.1-1,0.3-1.5,0.6L60.7,99l-0.3,0.2l-0.6,0.2l-0.6,0.6l-4.4,2.4c-1.8,1.1-3.9,2.4-6.1,3.9
							l-5.2,3.9l-0.3,0.3l-0.3,0.3l-2.2,2l-0.2,0.1l-1.4,1.3l0.1-0.2c-1.2,1.1-2.5,2.5-4,4.2c-1.6,1.8-3.1,3.6-4.4,5.5l-2.6,3.9
							l-0.7,1.2l0,0.1v0c0,0,0,0.1-0.1,0.1l-3,5.6c-0.3,0.3-0.6,0.7-1,1.3c-0.2,0.3-0.5,0.8-0.9,1.4c0.2-0.2,0.3-0.3,0.4-0.2
							c0,0,0,0.1-0.1,0.4c-0.5,0.9-0.7,1.4-0.7,1.5l0,0.3l-0.6,1.3c-0.5,1.1-2,4.1-4.6,9.2l-4.2,9.4c-0.1,0.6-0.3,1.5-0.7,2.8
							c-0.3,1.1-0.6,2-0.7,2.8l-0.1-0.2l-0.5,2.8c-0.3,1.8-0.5,3.4-0.5,4.9c0,1.2,0,2.1,0.1,2.8l0.1,0.1v0.2l0.1,0.3v0.1l0,0.1v0.2
							l0.1,0.2v0.1l0,0.3l0.1,0.1v0.1l0.9,3.3l0.3,0.6l-0.1-0.3l0.6,1.5l0.1,0.3c0.2,0.8,0.4,1.3,0.5,1.6c0.1-0.1,0.2-0.1,0.3,0
							l1.5,1.7l-0.1,0.1c0.4,0.5,1,1.1,1.7,1.7l2.5,1.8l-0.2,0.1l0.9,0.4l0.5,0.3l0.5,0.3l0.1,0.1l0.5,0.3c0.9,0.4,1.7,0.8,2.4,0.9
							l1.4,0.5L25,192l0.3,0.1l1.9,0.4h0.1l0.1,0.1h0.2l-0.4,1.6l0,0.5l-0.2,1c-0.5,2.8-0.7,5.6-0.8,8.6l-0.1,2.6l0.1,0.3l0.6,7.4
							l3,11.6l-0.6,0.9l0.1-0.1l0.4-0.8l0.1,0.2l-0.6,1.1l0.1-0.1l-0.4,0.6c-0.1,0.1-0.1,0.1-0.1,0l0.4-0.9l-1.1,1.6
							c0,0.1,0,0.1,0.1,0l0.3-0.4l-0.6,1.3c-0.3,0.5-0.6,1-0.9,1.3l-0.5,0.5l-0.2,0.1c0,0-0.1,0-0.3,0.1l-0.1,0.1l-0.1,0.1l-1.1,1
							l-0.1,0.1l-0.2,0.2L24,233l-0.2,0.1l-0.2,0.2l-0.2,0.1l-0.2,0.1l-0.2,0.1l-0.9,0.3h-0.1l-0.2,0.1h-0.1c-0.2,0-0.4,0-0.6,0
							c-0.4,0-0.9-0.1-1.5-0.3l-0.9-0.3l-1.2-0.7l-0.1,0l-0.1-0.1l-0.3-0.2l-0.3-0.2l-0.1-0.1l-0.1-0.1l-0.3-0.2l-0.3-0.2l-0.2-0.2
							c-1.2-0.9-2.5-2.1-4-3.6l-0.4-0.4l-0.9-0.5c-1.4-0.8-2.6-1.5-3.7-2.1c-1.1-0.6-2.3-1.2-3.5-1.8c-0.1,0-0.2-0.1-0.4-0.2
							c-0.2-0.1-0.3-0.2-0.3-0.2l-7.2-2.6c-1.3-0.3-2.4-0.4-3.1-0.6L-10,219h-0.2l-0.3,0.1H-11l-0.3,0h-0.2l-0.2,0.1l-0.4,0.1h-0.3
							l-0.1,0.1h-0.2l-1,0.2l-2.6,1l-0.2,0.1l-0.1,0h-0.1l-0.1,0.1l-0.1,0.1l-0.6,0.3l-0.1,0.1l-0.6,0.4l-0.3,0.1l-0.1,0.1h0v0.1
							l-0.1,0l-2.5,2.1l-0.1,0.1l-0.7,0.6l-0.1,0.2l-0.2,0.1l-3.8,4.3l-1.1,1.6c-0.1,0-0.1,0.1-0.2,0.3l-1.5,2.1l0.3,0.4l-0.6,1
							l-0.4,0.5c-0.2,0.2-0.4,0.4-0.5,0.4l-0.1,0.1l-0.1,0.1h0l-0.1,0.1v0.1l-0.1,0l-0.7,1.1v0.1h0v0.1l-0.1,0.1l-0.1,0.8l-0.3,0.6
							l-0.1,0.1l-2,3.8l-0.3,0.8c-0.1,0.2-0.1,0.4-0.1,0.6l-0.4,0.7c-0.3,0.5-0.4,0.7-0.5,0.6c0.1,0.2,0,0.6-0.3,1.2l0,0.2l-0.3,0.6
							L-36,248c0,0.2,0,0.2,0.1,0l0.3-0.4l-0.7,2.3l-0.3,0.6l-0.2,0.2c-0.1,0.1-0.1-0.1,0-0.4l-1.8,7l-1,5.5v0.3l-0.1,0.2l-0.1,1.3
							c-0.1,1.1-0.2,2.4-0.3,3.7c0,1.3,0,2.7,0.1,4.2l0.8,3.8l1.4,2.9l1,1.5c0.3,0.4,0.7,0.9,1.4,1.5c0.7,0.6,1.3,1,1.7,1.3
							c0.5,0.3,1.2,0.6,1.9,0.9c0.9,0.3,1.5,0.4,1.8,0.5l1.7,0.3h1.9l0.3,0h0.3l0.2-0.1h0.4l0.1,0h0.8c0.7,0,1.3,0,1.6,0.1l1.9,0.3
							l0.7,0.2l0.3,0l0.3,0.1l0.3,0l0.5,0.2c-0.1-0.1-0.5-0.3-1.3-0.6c-0.6-0.2-1-0.4-1.1-0.6c0.6,0,1,0.1,1.4,0.3l0.3,0.1l0.5,0.1
							h0.2c0.1,0.2,0.6,0.5,1.6,1l0.5,0.3l1,0.6c0.2,0.2,0.3,0.3,0.3,0.4l0.3-0.1l0.3-0.1l0.5,0.5l3.2,1.5l0.2,0.1l0.1,0h0v0.1
							l3.9,2.3l3.6,1.6l0.4,0.1l2.3,1.1l0.3,0.2l-0.4-0.4c-0.1-0.1-0.1-0.1,0-0.1h0.2l0.1,0.1l0.1,0c0,0.1,0.1,0.2,0.4,0.3l0.4,0.2
							l1.6,0.6c0.3,0.1,0.5,0.2,0.6,0.4l2.6,0.8c0.6,0.1,0.9,0.2,1,0.1c0.2,0,0.2-0.1,0-0.3l0.4,0.2l0.9,0.3l0.1,0.1h0.2l0.4,0.1
							c0.3,0.1,0.5,0.2,0.5,0.2c0,0.1-0.2,0.1-0.6,0c1.4,0.3,2.2,0.5,2.4,0.5l-1.1-0.4c0.4,0.1,1.7,0.3,3.7,0.8
							c1.2,0.3,2.2,0.4,3,0.4l-1.1-0.4c2.2,0.4,3.6,0.8,4,1.1l-1.9-0.2l6.5,1l0.2,0.1h0.4l0,0h0.5l-0.5,0l0-0.1h-0.2l-0.1,0
							l-0.3-0.1l0.4,0.1h0.1c0.2,0,0.2,0,0.1,0h0l0.1,0h0.3l1,0.1h0.4c0.9,0.1,2.1,0.1,3.5,0c1.4-0.1,2.8-0.2,4.2-0.4
							c1.2-0.2,2.7-0.5,4.4-1c1.1-0.3,2.4-0.8,4-1.4c0.8-0.3,2-0.9,3.5-1.5c1.9-0.9,3.3-1.7,4.2-2.5l-1.5,0.4l2.3-1.5l-0.2,0.3
							l-0.3,0.6c-0.1,0.4-0.3,0.6-0.4,0.7l4.8-2.7l0.1-0.1h0.1l0-0.1l0.1,0l0.8-0.5l0.3-0.2l0.1-0.1l5.3-3.9l0.6-0.6
							c1.8-1.5,3.5-3,5-4.5l0.6-0.5l8.1-8.5c0.5-0.5,1-1.1,1.7-1.9l3.4-4c0.7-0.7,1-0.8,0.9-0.5c0,0.1-0.1,0.4-0.2,0.6l0.8-1.1v-0.1
							h0v0l0.1-0.1l0.1-0.2c0.1-0.2,0.3-0.5,0.6-0.9l0.1-0.5c0.1-0.1,0.2-0.2,0.3-0.4c-0.1-0.1-0.3-0.1-0.4,0l0.5-0.6l0-0.1l1.2-1.3
							l0.1,0.3l0.6-1.2c0.3-0.5,0.5-0.9,0.6-1l0.5-0.6l7.4-7.2l0.3,0.2c0.2,0.1,0.1,0-0.2-0.2l0.1-0.1l1.9,0.6l0.3,0.2h0l0.2,0.1h0
							l0.2,0.1l0,0.1l0.2,0.1h0.1l0.1,0l0.2,0.1h0l0.2,0.1l0.3,0.1l1,0.1l0.4,0.1h0.5c0.1,0,0.3,0.1,0.5,0.1l0.3,0.1l19.2-0.3
							c0.4,0,1.1,0,2,0.1l3.9,0.3c0.8,0.1,2,0.2,3.7,0.5l1.7,0.4c0.8,0.2,1.3,0.4,1.5,0.4c0.1,0.1,0.1,0.1,0,0.1
							c-0.1,0-0.2-0.1-0.3-0.1l1.4,0.5c0.4,0.2,0.6,0.3,0.6,0.4l0.1,0.1l0.2,0.1l0.4,0.4l0.3,0.2l0.5,0.5l0.2,0.1l0.6,0.6l0.1,0
							l0.1,0.1l0.2,0.2l0.3,0.3c0.2,0.4,0.4,0.6,0.4,0.7l0.1,0.4l0.8,0.9l0.1,0.1l0.4,0.5l1.4,2.2l0.9,1.8v0.1l0.1,0.2v0.1l0.1,0
							l0.3,1.5l-0.1,2.3l-0.1,0.6l0.5,0.3l-0.1,0.8l-0.1,0.5l-0.5,0.8l-0.3,1.2c0.1,0.1,0.1,0.3,0.1,0.6l-0.1,0.6
							c-0.1,0.6-0.3,1.1-0.4,1.5l-0.2,0.4l-0.1,0.2l0,0.1v0l-0.1,0.1v0.1l-0.3,0.8v0.1l-0.1,0.1l-0.3,1.5v1.3l-0.1,0.4v1
							c0,0.9,0,1.3-0.1,1.3c0.1,0.1,0.3,0.8,0.6,2l0.9,2.4c0.2,0.2,0.2,0.2,0.1-0.1l-0.3-0.8c0.5,1.1,1.2,2.2,1.9,3.1
							c0.4,0.6,0.5,1,0.5,1.1c0,0-0.1,0-0.2-0.1l-0.3-0.2l0.3,0.4l0.7,0.9c0.7,0.8,1.3,1.4,1.8,1.8c1.3,1.2,2.9,2.4,4.7,3.6
							c3.4,2.2,7.4,4.1,12.1,5.8l19.3,6.4c-0.2-0.2-0.8-0.4-1.7-0.8c-0.8-0.3-1.3-0.6-1.5-0.8c0.6,0.1,1.2,0.3,1.9,0.5
							c0.6,0.2,1,0.3,1.2,0.3c0.2,0.3,0.8,0.6,2.1,1c1.3,0.5,2.2,0.9,2.5,1.2l0.6-0.3l0.8,0.5l5.3,1h0.2l0.1,0.1h0.2l0.1,0h0.2
							l0.4,0.1h0.8c0.4,0,0.7,0,0.9-0.1h0.3l0.1,0h0.2l0.4-0.1l1.3-0.3h0.1l2.5-1.2l0,0l2-1.5l1.6-1.6l0.1-0.2l0.4-0.5l0.7-1
							l0.2-0.3l0.1-0.1c0-0.1,0.1-0.1,0.1-0.1v0l0.1-0.2h0v0l0.1-0.1l0.3-0.6v0l0.1-0.1l0.3-0.5l0-0.2l0.2-0.4l0.1-0.1l0.1-0.2
							l0.2-0.3l0.3-1.1c0.1-0.4,0.3-1.1,0.4-1.9l-0.2,0.4c-0.1,0.1-0.1,0.1-0.1,0l-0.1-0.2l0.1-0.4l0.1-0.2l0.1-0.5l0.1-1.3
							c0-1.3,0-2,0.1-2.1l0-1.5l-0.1-0.1v-0.4l-0.1-0.7c-0.1-1.2-0.3-1.5-0.4-0.9c0-0.1,0.1-0.8,0.1-1.8v-0.6c0,0,0.1,0.2,0.3,0.6
							c-0.2-1.5-0.4-2.4-0.5-2.8l0.1,0.3l0,1l-0.7-4.1l-0.1-0.1v-0.2l-0.6-2.3v1l-0.1-0.5l-0.1-0.3v-0.1l-0.1-0.1l-0.1-1.5l0-0.4
							c0.1-0.3,0.1-0.5,0.2-0.6l0.3,1.4l-0.2-1.4v-0.2l-0.4-3.4v-0.4l-0.1-0.8v0.8l-0.1-1.1v-0.5l-0.1-0.3l0.2-4.2l0.7-3.5v-0.1
							l0-0.1v-0.1l0.1-0.4l0.1-0.1l0.1-0.1l0.1-0.7v-0.2l0.1-0.1l0.2-1.5l0.1-0.1v-0.1l0.1-1.3l0.1-5.5l-0.4-3.3l-0.3,1.5l-0.4-2.7
							c0,0.1,0.2,0.4,0.6,0.8c0.3,0.3,0.5,0.6,0.5,0.7l-0.2-3.2c-0.1-1.8-0.3-3.4-0.5-4.9l-2.5-15.4v-0.1l-0.1-0.4v-0.1l-0.1-0.1
							l-0.1-0.6l-0.1-0.3l-0.1-0.3l-0.8-2.4c-0.6-1.3-1.1-2.5-1.7-3.4c-0.8-1.2-1.4-2.1-2-2.8c-0.5-0.7-1.2-1.4-2-2.3
							c-0.6-0.6-1.2-1.2-1.8-1.8c-0.9-0.8-1.8-1.5-2.7-2.2l-0.8-0.8c0-0.1,0-0.1,0.1-0.1l0.4,0.1c0.2,0.1,0.3,0.1,0.3,0l-0.8-0.4
							l-1.5-0.6l-1-0.6c-0.2-0.2-0.2-0.3,0-0.3c0.2,0,0.4,0.1,0.6,0.2l-1.3-0.7c-0.4-0.2-0.6-0.3-0.6-0.3l0.5,0.4l0.1,0.3
							c0,0.3,0,0.5,0.1,0.6l-2.7-1.5l0.3-0.1c-0.1-0.1-0.3-0.1-0.6-0.2l-2.5-0.6l-1.4-0.6c-1.1-0.5-2.3-0.9-3.4-1.4
							c-1.1-0.4-2.3-0.8-3.6-1.2c-2.3-0.7-4.7-1.4-7.1-1.9l0.3-0.1h0.5l1.3,0.2l-2.1-0.6c0.4,0.2,0.2,0.2-0.5,0.1
							c-0.6-0.1-0.8-0.2-0.7-0.1l-3-0.6l0.9-0.9v-0.1c0,0,0,0,0.1-0.1l0.2-0.2l0.2-0.3c0.1-0.3,0.3-0.7,0.6-1.2
							c0.4-0.5,0.6-0.9,0.7-1.1l0.1,0.1c0.1-0.3,0.7-1.2,1.9-2.7l1.9-2.9l-0.1,0.1c0.1-0.2,0.1-0.4,0.2-0.4l0.1-0.1l3.7,1.1l0.5,0.1
							l0.4,0.1l8.5,1.8l7.9,0.9l1.3,0l0.1,0.1l2.9,0.1l-0.1,0.1l6.9-0.1c0.4,0,0.6,0,0.8-0.1l11.3-0.8c3-0.4,5.5-0.8,7.6-1.2
							l5.7-1.4l5.6-1.9c1.1-0.5,2.3-1,3.5-1.6l3.3-1.9c1.3-0.9,2.3-1.6,2.9-2.1c1-0.8,1.9-1.6,2.6-2.3c0.7-0.7,1.4-1.4,2.1-2.4
							c0.8-0.8,1.7-1.9,2.5-3.3l0.6-0.9l0.1-0.3l0.1-0.1l0-0.1l0.1-0.1l0.3-0.5l0.1-0.4l0.1-0.1l0.1-0.1v-0.1l0.5-1.1
							c-0.3,0.5-0.4,0.7-0.4,0.6c0-0.1,0-0.4,0.3-0.9l2.3-7.1c0.4-1.5,0.7-2.8,0.9-4l0.2-0.6l0.3-2.1c0.1-0.9,0.2-2,0.2-3.3
							c-0.1-1.3-0.2-2.5-0.4-3.8l-0.3-1.5l-0.1-0.3l-0.1-0.3l-0.2-0.5l-0.1-0.3l-0.3-0.8l-0.1-0.3l-0.1-0.3c-0.3-0.7-0.7-1.4-1.1-2
							l-0.3-0.5l-0.7-0.9l-0.1-0.1l-0.1-0.1l-0.6-0.7l-0.1-0.1l-0.3-0.3l-0.1-0.1l-0.1-0.1v-0.1h-0.1l-0.1-0.2l-3.8-3.3l-1.1-0.8
							l-0.4-0.3l-2.4-1.5c-1.3-0.8-2.4-1.3-3.3-1.7l-0.9-0.4l-0.2-0.1l-3.3-0.9l-0.1-0.1H235l-0.6-0.1h-0.2l-0.1-0.1h-0.2l-0.4-0.1
							h-0.2l-0.2-0.1l-4.3,0c-0.5,0-0.8,0-1,0l-1.7,0.1l-9.9,2.2l-1.9,0.6l0.3-0.2l-0.3,0.1l-0.2,0.1H214l-0.1,0.1l-5.5,0.9
							l-7.4,0.3l-10.6-0.8l-0.2-0.1H190l-2.7-0.3l0.6,0.1c-0.8-0.1-1.7-0.2-2.6-0.3l-0.2-3.9c-0.2-2.7-0.4-4.3-0.4-4.7l0.1,0.1
							l-0.9-6.1v-0.1l-0.1-0.2l-0.3-1.2V120l-0.1-0.1v-0.1l-0.3-1.2c-0.4-1.3-0.7-2.6-0.9-3.7c-0.3-1.3-0.6-2.7-0.8-4.1l0.3,0.6
							l-0.4-2.7v-0.3l-0.1-0.3v-0.1l0-0.2v-0.2l-0.1-0.2v-0.1l0.1-0.3v-0.6l0.1-0.6v-0.3l0.4-1.9l-0.2,0.5l-0.1,0.3
							c-0.1,0.1-0.1,0-0.1-0.2v-0.3l0.1-0.5l0.3-1.1l1-2.1l0.6-1l0.2-0.3l0.1-0.2L184,99l0.1-0.1l0.1-0.1l0.3-0.3h0.1l0.1-0.1h0.1
							l0.1,0l0.1-0.1h0v-0.1l0,0h0.1l0.1-0.2l0.2-0.2l0.1-0.1l0.1-0.1l0.2-0.2l0.2-0.2l0.1-0.2l0.6-0.4l0.8-0.4l2.6-0.9l0.3-0.1h0.1
							l0.1-0.1l0.4,0l0.6-0.2h0.1l0.2-0.1h0.2l0.1,0h0.1l1.6-0.3h0.3l8.4-0.7c1.5-0.1,2.7-0.1,3.4-0.2l7.6-1l0.3-0.1l0-0.1h0.1
							l0.1,0l0.3-0.1l0.2,0h0.1l3.9-1.3l1.7-0.8l0.3-0.1l0.3-0.1l3.7-2.4l1.9-1.8l0.1-0.1v0l0.6-0.6l0.1-0.2l0.1-0.1l0.2-0.2
							l0.2-0.2c0.1-0.1,0.2-0.3,0.3-0.3l0.1-0.1l1.8-2.9c0.5-1.1,0.9-2,1.1-2.5l0.1-0.3l0.7-2.3l0-0.3l0.1-0.4l0.1-0.6l0-0.2v-0.2
							l0.3-3.9l-0.1-0.3v-0.4c0-0.1,0-0.1,0-0.2l0-1l-0.7-4.3l-0.8-2.6l-1.6-3.8l-0.1-0.1l-0.1-0.2l-0.1-0.3l-0.6-1.1l-0.1-0.2
							l-0.1,0l-0.1-0.1l-0.4-0.8l-0.1-0.1l-0.1-0.1l-1.2-1.8l-11-13.4v0l0-0.1l-0.2-0.3l0,0l-0.3-0.5l-0.2-0.2l-0.1-0.2l-0.2-0.2
							l-0.1-0.3l-0.5-0.9c-0.4-0.7-0.9-1.9-1.5-3.5l-1-3l0.2,0.5c-0.5-1.6-1-3-1.3-4.3l-0.6-2.1l-0.1-0.1v-0.1l0-0.1l-0.7-2.8
							c-0.7-2.7-1.3-4.7-1.8-6.1c-0.7-2.2-1.5-4.3-2.4-6.4l-3.6-7.2L200.7,2l-1.3-2.1l-0.1-0.1l0,0l-0.1-0.1
							c-0.7-1.1-1.6-2.2-2.6-3.4c-1-1.1-2-2.1-3.1-3c-0.9-0.8-2-1.7-3.3-2.6c-2-1.5-4.3-2.8-6.9-4.1c-1-0.5-2.1-1-3.5-1.6l-4.3-1.7
							h-0.1l-0.1-0.1l-7.5-2.4l-5.8-1.4c-2.8-0.5-5.2-0.9-7.1-1.1l-6.1-0.4l-0.4,0l-4.6,0c-0.2,0-0.4,0.1-0.8,0.1l-6.8,0.6h-0.3
							l-0.2,0h-0.1l-5.4,1c-2.1,0.2-4.4,0.7-7,1.4L116.4-17 M185,98.1L185,98.1L185,98.1L185,98.1 M63.6,109.9
							c0.2-0.1,0.4-0.2,0.6-0.3c-0.3,0.9-0.6,1.7-0.9,2.7c-1.4,4-3.5,9.3-6.3,16l-4.4,10.4l0.5-1c-1,2.6-1.9,4.6-2.7,6.1l-1,1.9
							c-0.7,1.3-1.2,2.3-1.5,2.9c0.4-0.3,0.1,0.6-0.7,2.8c-0.6,1.7-1.3,3.3-2,4.8l0-0.1l-1.2,2.6l-3.9,5.5c-1.6,2.5-3,4.7-4.1,6.8
							l-0.1-0.3l-1.5,2.8l-0.1,0.3l-2,4.3l-0.1,0.2l-2.5,6.8l-0.6-0.1l-0.1-0.1l-1.2-0.4l-0.2-0.1l-0.3-0.1l-0.1-0.1l-0.1-0.1
							l-0.3-0.1l-0.1-0.1l-0.7-0.4h0l-0.3-0.2l-0.1-0.1l-0.6-0.3l-0.1-0.1l-0.1-0.1l-0.9-0.8l-0.8-0.9l-1.3-2.1
							c0-0.1,0.1-0.1,0.2,0.1l-0.1-0.2l-0.1-0.1l-0.1-0.2l-0.1-0.2l-0.9-2.3c0-0.1,0.1-0.3,0.2-0.6c0,0-0.1-0.1-0.1-0.2l-0.1-0.3
							v-0.1h-0.1l0-0.3v-0.2l0-0.1v-0.1l-0.1-0.2l0-1.2c0-0.3,0-1,0.1-2.2l0.2-1l-0.4-0.2c0.1-0.4,0.2-0.7,0.4-0.8l0.1-0.1l0.2-0.6
							c-0.2-0.2-0.2-0.7,0.1-1.3l0.1-0.3l0.1-0.4c0.1-0.3,0.1-0.4,0.1-0.6l0.1-0.3c0.1-0.2,0.2-0.2,0.3-0.2c-0.1-0.1-0.1-0.3,0-0.5
							c0.1-0.3,0.2-0.5,0.2-0.6c0-0.1-0.1-0.1-0.1,0c0,0-0.1,0.1-0.1,0.2l0.2-0.9c0.1-0.2,0.2-0.3,0.3-0.3c0.1,0,0.1,0.1,0.1,0.3
							l1.3-3c0.8-1.8,1.5-3.4,2.1-4.8l4.1-7.9c-0.1,0.1-0.3,0.3-0.5,0.6c-0.2,0.3-0.4,0.5-0.6,0.6c0.1-0.2,0.2-0.5,0.4-0.8
							c0.2-0.2,0.2-0.4,0.2-0.5c0.2,0,0.5-0.3,0.8-0.8c0.4-0.5,0.7-0.8,0.9-0.9l-0.2-0.3l0.4-0.2l0.9-1.8l0.9-1.4l0.8-1.8
							c0.2-0.5,0.5-0.9,0.7-1.3c-0.1,0.1-0.2,0.1-0.3,0.2c-0.1,0-0.1-0.1,0-0.3c0.1,0,0.2-0.1,0.4-0.5c0.2-0.4,0.3-0.6,0.4-0.7
							c0.2-0.4,0.4-0.6,0.5-0.8c0.2-0.4,0.2-0.5-0.1-0.4c0.1,0,0.3-0.2,0.6-0.5c0.2-0.2,0.3-0.2,0.2,0.1c0.4-0.5,0.6-0.8,0.6-0.9
							l-0.4,0.4l0.5-0.6v-0.1l0.1-0.1l0.8-1.1v-0.1l0.3-0.7l-0.4,0.3c0.3-0.5,0.5-0.8,0.5-0.8l0.2-0.1l0.2-0.1l0.4-0.1l-0.3,0.6
							l-0.1,0.1l0.9-1.3c0.2-0.3,0.5-0.7,0.8-1.3l-0.3,0.3l0.2-0.3l2.4-3.5l0.1-0.2l0.1-0.2c1.8-2.2,2.9-3.5,3.1-3.9l-0.7,0.2
							l0.6-0.9c0,0.1,0.1,0.2,0.2,0.5c0.1,0.4,0.1,0.5,0,0.5c0.9-0.8,1.7-1.6,2.5-2.3c1.5-1.3,2.9-2.4,4.1-3.3
							c1.3-0.9,2.7-1.9,4.3-2.9l2.9-1.6c0.4-0.1,0.5-0.1,0.5,0.1c0,0.1,0,0.2-0.1,0.3c0.3-0.2,0.5-0.4,0.6-0.6
							c0.1-0.1,0.2-0.3,0.5-0.4c0.2,0,0.2,0.1,0,0.4c0.2-0.1,0.4-0.2,0.5-0.3l0.2-0.2c-0.2,0-0.4,0-0.5-0.2
							c-0.2-0.2-0.3-0.3-0.3-0.3l1.1-0.6l0.1,0.3c0.1-0.2,0.3-0.4,0.4-0.6C62.7,110.3,63.1,110.1,63.6,109.9 M28.9,227.9l-0.5,0.8
							c-0.1,0.3-0.2,0.5-0.3,0.4l0.6-0.9l0.1-0.1L28.9,227.9 M196.2,298.4L196.2,298.4l-0.6-0.5h0.1l0.3,0.1h0.1v0.1l0,0
							L196.2,298.4 M109.9-0.2l1.4-0.4l0.2-0.1l7-3.2l15.4-4.4l4.1-0.5h-0.8L137-8.9c-0.2,0-0.2,0-0.1-0.1l0.8-0.1
							c0.1,0.1,0.4,0.1,0.9,0l4.3-0.4h0.1l0.1,0.1h0.9l0.5-0.1h2.1l0.6,0c1.6,0,2-0.1,1.3-0.3l3.8,0.6c0,0,0,0.1-0.2,0.1h-0.8
							l2.4,0.3h0.3l1.8,0.2l-2.1-0.4h0.3l3.4,0.6c1.3,0.2,2.3,0.4,3,0.6l5.2,1.1l-0.5-0.2l-0.3-0.1l-0.2-0.1l-1-0.3l2.8,0.8l0.3,0.1
							l1.2,0.4l0.4,0.2l0.2,0.1l1.6,0.8l0.1,0.1l0.1,0.1l0.3,0.2l-0.2-0.1h-0.1L170-5.1l-1.9-0.5l11.3,4.6L178-1.8
							c1,0.5,1.9,0.9,2.8,1.4c1.3,0.7,2.5,1.5,3.8,2.4c0.4,0.3,1.1,0.9,1.9,1.7l0.3,0.2l2.1,2.5l0.1,0.1v0.1l0.7,0.9l0,0.1l0.1,0.1
							l4,7.6l0.1,0.1l0.6,1.6c0.8,2.1,1.5,4,2.1,5.7l1.9,6.4l0.1,0.4l0.5,1.4l-0.3-2.8l1.6,5l-0.4-0.6l-0.6-0.8
							c-0.5-0.5-0.8-1-0.9-1.2l3.6,10.4l2.3,4.4l0.6,0.8l0.1,0.1l0.1,0.1v0l0.4,0.6l0.1,0.2l0.1,0.2l6.6,8.1
							c1.7,1.9,2.9,3.4,3.6,4.4l1.5,2.2l0.2,0.3l0.3,0.5l0.1,0.1l0,0.1v0l0.3,0.5l0.1,0.3l0.1,0.2l0.1,0.2c0.4,0.8,0.6,1.5,0.9,2.2
							c0.3,0.8,0.4,1.6,0.6,2.3l0.1,1.2v0.3l0.1,0.3l-0.1,1.8l-0.1,0.5V73l-0.5,1.8c-0.3,0.7-0.6,1.3-0.8,1.6l-0.1,0.2l-0.1,0.1
							l-0.1,0.1l-0.1,0.2c0,0-0.1,0.1-0.1,0.2l-0.1,0.2l-0.1,0.1v0h-0.1l-0.1,0.2h-0.1v0.1l-0.1,0c-0.3,0.3-0.7,0.7-1.3,1.2
							l-3.1,1.6l-1.2,0.3l-0.1,0.1l-0.3,0l-0.1,0.1h-0.2l-0.5,0.2h-0.2l-0.2,0l-7.3,0.6c-0.2,0-0.2-0.1-0.1-0.2l1.1-0.3l-2.6,0.3
							h-0.2l-0.1,0.1l-3.3,0.3c-1.2,0-0.9-0.1,0.8-0.4c-1.2,0.1-2,0.1-2.5,0.2c-0.8,0.1-1.2,0.1-1.3,0.2l1.3,0
							c0.3,0.1,0.4,0.1,0.5,0.2c0.3,0.2,0.5,0.4,0.7,0.4l-5.6,0.5l0.3-0.3l-2.9,0.8l-0.1,0h-0.1l-0.3,0.2l-0.3,0.1l-3.6,1.1
							c-0.9,0.3-1.6,0.6-2.1,0.8l-1.9,0.8c-0.7,0.4-1.4,0.7-1.9,1l-2.2,1.7l-0.3,0.3l-0.2,0.2l-0.8,0.8c-1,1.1-1.9,2.3-2.8,3.5
							c-0.7,1.3-1.4,2.6-1.9,3.9l-0.9,3.1l-0.2,1c-0.3,1.3-0.5,2.7-0.6,4l-0.1,2.9l0.1,0.3v0.3l0.1,1v0.2l0.6,3.3l-0.2-0.3l-0.8-3.3
							v-0.2l-0.1-0.1c0,0.5,0.2,1.2,0.4,2.2l0.3,2.1c0-0.5,0-0.6,0.1-0.4c0,0.1,0.1,0.5,0.3,1.2c0.3,1.3,0.4,1.7,0.3,1.2
							c0.5,1.6,0.9,3.3,1.4,5.1l0.6,2.6l0.1,0.3l0.1,0.3l1.6,10l-1.6-0.4L172,134l-1.6-0.6l-0.1-0.1h-0.1l-0.1,0l-0.2-0.1l0.2-0.2
							l-0.9-0.3l-0.5-0.3l0,0l-0.2-0.1l-13.8-6.5c-3.1-1.3-5.8-2.4-8.2-3.2l-3.3-1.7l-0.5-0.2l-1.1,0.6c-0.8,0.4-1.5,0.9-1.9,1.4
							c-0.6,0.7-0.9,1.4-0.7,2.2c0.1,0.5,0.3,0.9,0.7,1.3c0.4,0.4,0.9,0.9,1.8,1.5l-0.1,0.1l1.4,0.6c0.5,0.3,1.1,0.6,1.8,0.9
							c0.3,0.1,0.5,0.2,0.4,0.3l-1.9-0.9c0.5,0.3,0.7,0.4,0.4,0.3l-0.9-0.3c1.1,0.6,1.7,0.9,1.8,1c0.1,0,0-0.1-0.4-0.4
							c1.6,0.6,2.6,1.1,3.1,1.4c0.5,0.3,0.8,0.5,0.9,0.6c0,0.1,0.4,0.4,1,0.7l11,5.6c1,0.5,2.2,1.1,3.4,1.9l1,0.6l0.1,0.1l0.1,0.1
							l0.2,0l0.4,0.3l0.2,0.2l0.9,0.5l0.2,0.1l0.1,0l0.1,0.1l0.3,0.1l0.6,0.3c1.6,0.7,3,1.2,4.4,1.6l8.8,2.1c0.1,0.1,0.1,0.1,0,0.1
							l2.3,0.3l0.1,0.1c0.2,0,0.3,0,0.5,0c0.3,0,0.6,0.1,0.8,0.1v-0.1l5.7,0.8l0.9,0.3l0.4,0.2l0.6,0.1c0.3,0,0.6,0,0.9,0.1l2.5,0.1
							c0.3,0,0.8,0,1.6,0.1l7.3,0.1l0.4-0.1l3.3-0.2l0.1,0h0.2l1.6-0.2l0.3-0.1l0.2-0.4l1.7-0.2c0.3,0,0.5,0,0.6,0.1l1.1,0l1.1-0.2
							c0.2-0.2,0.7-0.4,1.4-0.5l0.9-0.3l0.6-0.1h0l0.2-0.1l1.9-0.4l0.7-0.2c0.2-0.1,0.4-0.1,0.4-0.2c0,0.1,0.1,0.1,0.2,0l0.5-0.1
							c0.4-0.1,0.6-0.1,0.6,0l0.4-0.2l0.6-0.2l1.3-0.2c0.1-0.1,0.1-0.1-0.1-0.1c-0.3,0-0.4,0-0.4,0l1.9-0.4c0.4,0,0.6,0,0.7,0.1
							c0.1,0.1-0.1,0.1-0.5,0.2l1.5-0.1h0.4l0.8-0.1h2.8l0.5,0.1h0.2l0.5,0.1h0.1l0.4,0.1h0.1l0.1,0.1h0l0.5,0.1l0.2,0.1
							c0.5,0.1,1.1,0.4,1.8,0.7c0.7,0.3,1.3,0.7,2,1.2l1.1,0.7l3.1,2.5l0.3,0.3l0.1,0.1l0.1,0.1l0.5,0.4l0.1,0.1l0.4,0.4v0.1l0,0.1
							h0.1v0l0.1,0.1l0.4,0.6v0.1l0.1,0.1l0.1,0.2l0.1,0v0.1c0.2,0.4,0.3,0.8,0.4,1.4l0.2,1.6v1.6c0,0.7-0.1,1.5-0.3,2.5
							c0.1-0.2,0.2-0.4,0.3-0.6l0.1-0.3l0.1-0.1v-0.1l0.1-0.2l0-0.4l0.2-0.6l0.1-0.2v1l-0.1,0.2l-0.1,0.6v0.3c0,0.2,0,0.3,0,0.5
							c-0.1,0-0.1,0.1-0.2,0.3l-0.2,0.4l-0.2,0.6v0.2l-0.8,2l-0.3,0.4l0.2,0.4l-0.4,0.6l-1.2,3.7l-1.2,2.4l-0.1,0.1l-1.9,3.4
							l-0.5,0.7l-0.7,0.6l0.2-0.1c0.1,0,0.1,0.1-0.1,0.3c-0.1,0-0.4,0.2-0.9,0.7l-0.8,0.7l-0.2,0l-1.6,1.2l-0.1,0.1l-0.2,0.2
							c-0.1,0.2-0.1,0.2,0.1,0.1l-0.7,0.3l-0.2,0.1l-0.4,0.1c-0.3,0.1-0.4,0.1-0.4,0.1c-0.1,0,0-0.1,0.3-0.3
							c-0.9,0.4-1.6,0.7-1.8,0.9l0.4-0.1l0.3-0.1l-0.6,0.3l-0.4,0.1l-0.2,0.1l-0.2,0.1l-0.4,0.1l-0.4,0.1l-0.7,0.3
							c-1.1,0.4-1.9,0.7-2.4,0.9l1-0.1l-1.6,0.5l-0.5,0.1c-0.7,0.1-1.2,0.2-1.5,0.1l1.6-0.6l-6.6,1.7l0.4-0.1l0.4-0.1
							c-0.7,0.3-2.1,0.6-4.2,0.9c-2.8,0.4-5,0.7-6.7,0.9l-10.4,0.8h-0.1l-0.2,0.1h-0.4l0.6,0.2l0.1,0l0.6,0.2l-0.6,0.1l-0.2,0
							l-1.7,0.1c0.1,0,0.4-0.2,0.8-0.5c0.3-0.2,0.5-0.3,0.6-0.4l-2.2,0l-0.3-0.1l-10.2-1.1c-1.7-0.3-3.7-0.6-5.8-1.1l-5.7-1.8
							l-0.1-0.2v-0.1l-0.1-0.1l-0.1-0.1l-0.3-0.2l-0.6-0.3l-0.1-0.1l-2.4-1.1l-2.5-0.3l-0.4,0l-5-2.3l-0.7-0.5
							c-0.1-0.1-0.1-0.2,0.1-0.2h0.4l0.2,0.1l-0.3-0.2l-0.3-0.1c-0.1-0.1-0.3-0.1-0.4-0.1l-0.5-0.2c-0.1,0-0.2,0-0.3-0.1l-0.9-0.4
							c-0.4-0.3-0.3-0.3,0.5-0.1l-1.5-0.8c0.4,0.3,0.5,0.5,0.5,0.7c0,0.3,0,0.4,0,0.5l-2.2-1.3l0.2-0.1c-0.1,0-0.5-0.2-1.3-0.4
							l-1.1-0.4c-0.5-0.2-1-0.5-1.4-0.8l-10.4-7.8l-0.1-0.2l-0.2-0.1c0,0,0.1,0,0.2,0l1.5,0.9l-1.6-1.3c0.2,0.3,0.1,0.3-0.4-0.1
							c-0.5-0.4-0.6-0.5-0.5-0.4l-2.1-1.4l-5.8-5.1l-10.9,2.1l-0.3,0.1l-0.3,0.3l0.4,0.6l0.4-0.1l0.7,0.9l0.3,0.6l0.6,0.8
							c0,0.2-0.3-0.1-0.9-0.6c-0.4-0.4-0.8-0.8-1.2-1.4l1.5,2l0.5,0.4c0.3,0.4,0.4,0.6,0.3,0.7c-0.1,0.1,0.1,0.4,0.5,0.8
							c0,0,0.6,0.5,1.7,1.4c0.7,0.6,1.3,1.2,1.6,1.6H129l2.2,2.2l2.3,1.8l0.2,0.2l2.2,1.9l-0.2-0.1l-0.1-0.1l0.4,0.4l4,3.3
							c-0.3-0.3-0.4-0.4-0.4-0.5c0-0.1,0.2,0,0.7,0.4l4.8,3.6l1.6,0.8l1.6,1.1c0.2,0.1,0.6,0.3,1,0.6l6.6,3.6
							c1.1,0.6,2.2,1.1,3.3,1.6l-0.5,0.8l-1.1,1.6l0.4,0.3c-0.1,0.2-0.3,0.3-0.5,0.3c-0.2-0.1-0.3,0-0.4,0.3
							c0.2,0.2,0.1,0.5-0.2,0.7c-0.3,0.3-0.4,0.4-0.4,0.6c-0.2,0.2-0.3,0.2-0.4,0.1c0.1,0.1,0.1,0.2,0.1,0.3
							c-0.1,0.1-0.2,0.1-0.3,0.3c0,0.1,0.1,0.1,0.1,0.1c0,0,0.1,0,0.2-0.1l-0.2,0.4c-0.1,0.1-0.2,0.1-0.3,0c-0.1,0-0.1-0.1-0.1-0.1
							l-0.4,0.5h-0.1v0.1l-1.8,2v0l-0.1,0.1l-3.1,3.1c0.1,0,0.2,0,0.4-0.1c0.2-0.1,0.4-0.1,0.5,0c0,0.1-0.1,0.2-0.3,0.3
							c-0.1,0.1-0.1,0.1-0.1,0.2c-0.2-0.1-0.4-0.1-0.6,0.1c-0.3,0.1-0.5,0.1-0.7,0.1l0.1,0.4l-0.3-0.1l-0.5,0.8
							c-0.3,0.2-0.6,0.4-0.7,0.4c-0.2,0.2-0.3,0.4-0.5,0.8c-0.1,0.3-0.3,0.4-0.4,0.5c0.3,0,0.3,0.1,0.3,0.3c-0.1-0.1-0.2,0-0.3,0.1
							c-0.1,0.2-0.2,0.3-0.3,0.2c0,0.1-0.1,0.2-0.3,0.4c-0.1,0.2-0.1,0.3,0.2,0.4c-0.5,0.2-0.7,0.1-0.7-0.1
							c-0.2,0.2-0.3,0.4-0.3,0.4l0.3-0.1c-0.1,0.1-0.3,0.3-0.7,0.5c-0.2,0.1-0.3,0.3-0.3,0.6h0.3c-0.3,0.2-0.4,0.3-0.4,0.3
							c-0.2,0.1-0.4,0.1-0.6-0.1l0.3-0.4c-0.5,0.5-0.9,0.9-1,1.3l0.1-0.1c0,0.1-0.2,0.4-0.5,0.9l-1,1.3c-0.9,1.3-1.4,2-1.4,2.3
							l0.5,0l-0.3,0.6c0,0-0.1-0.4-0.4-1l-5.3,4.6l-1.4,1c-0.2,0.1-0.3,0-0.4-0.1c0-0.1-0.1-0.2-0.1-0.3c-0.1,0.2-0.2,0.3-0.2,0.4
							c0,0.1-0.1,0.2-0.2,0.3c-0.1,0-0.1-0.1-0.1-0.3c0,0.1-0.1,0.1-0.2,0.2c-0.1,0-0.1,0.1-0.1,0.1c0.2,0,0.4,0.1,0.8,0.5l-0.5,0.4
							l-0.2-0.3v0.5c0,0.3-0.1,0.5-0.3,0.6c-0.6,0.4-1.4,1-2.5,1.9c-0.1-0.1,0-0.3,0.1-0.6l-0.4,0.2c0.1,0,0.2,0.1,0.1,0.3
							c-0.1,0.1-0.1,0.2-0.1,0.2c0,0.2-0.1,0.4-0.3,0.6l-0.9,0.9l-0.2,0.3l-0.1,0.3l5,8.7l-0.1,0h-0.2l-0.3,0l0.3,0.1h0.1l0.4-0.1
							l-0.2-0.3c0.1-0.1,0.3-0.1,0.4,0c0.1,0.1,0.2,0.1,0.4,0c0.1,0.1,0.1,0.2-0.1,0.3l-0.3,0.1l-0.3,0.1h0.6c0.2,0,0.3-0.1,0.3-0.2
							c0.1,0,0.3,0.1,0.4,0.1l0.1,0.1h0.3l0.4-0.4l0.1-0.1l0.3-0.1v0.1l0.3-0.1l0.1-0.1l0.1-0.1l0.1-0.1l0.1-0.1l0.1-0.1l0.1-0.2
							c0.2-0.4,0.5-0.6,0.7-0.6v0.1c0.1,0,0.2-0.1,0.4-0.3c0.2-0.2,0.4-0.3,0.6-0.4c-0.1,0-0.2,0-0.3-0.1c-0.1,0-0.1-0.1,0.1-0.2
							c0.2-0.1,0.4-0.2,0.6-0.4c0.2-0.1,0.4-0.2,0.6-0.3l0.1-0.4l8.4-7.6v0.1l7.5-7.7l0.1,0.1l0.1,0l0.1,0.1
							c0.3,0.1,0.5,0.2,0.6,0.2l1.1,0.3l-0.1,0.1c0.7,0.2,1.4,0.4,2.3,0.5l4.3,0.6l1.5,0.5H165c0.4,0.2,1.1,0.4,2.2,0.6l2.7,1
							c-0.3-0.2-0.5-0.3-0.5-0.4c0-0.1,0.2-0.1,0.8,0.1l3.8,1.4l1.1,0.6l1.6,0.3c1.2,0.5,2.3,1,3.3,1.6l4.7,2.6l1.9,1.4l0.1,0.1
							l0.2,0.1l0.3,0.3l0.3,0.2l0.3,0.3l0.4,0.3l0.1,0.2l0.5,0.4c0.6,0.6,1.2,1.3,1.7,2l1.3,2.1l0.6,1.4v0.1l0.1,0.2v0.1l0.2,0.5
							l2.4,14.4l0.4,5.1l-0.1-0.3l0.1,7.4c-0.1,0.9-0.2,1.8-0.3,2.6l-0.1,0.1v0.1l0,0.3l-0.1,0.1v0.1l-0.1,0.1l-0.2,0.8v0.1v0.1
							l-0.7,2.5l-0.1,0.3l-0.4,1.8l-0.1,0.5c-0.5,2.5-0.7,5.3-0.6,8.4l0.1,3.1l0.1,0.3v0.3l0.6,4.6v0.3l1.8,9.4l0.1,0.9v0.3l0.1,0.3
							v2.3l-0.1,0.2v0.1l-0.1,0.6v0h-0.1l0,0h0l-0.3,0.3l-0.2,0.2l-0.6,0.6l-0.3,0c-0.3,0-0.5,0-0.5,0h-0.2l-0.4,0l-2.7-0.7
							c-0.8-0.2-2-0.5-3.5-1l-17.1-5.5c-2.2-0.8-4.1-1.5-5.7-2.3l-4.9-2.4c-1.2-0.7-2.4-1.4-3.4-2.3l-1.1-0.9l-0.6-0.7
							c-0.4-0.3-0.7-0.6-1-1l-0.4-0.9v-0.6l0.1-0.1v-0.2l0.1,0l0-0.1v-0.1l0.6-2.2v0.4l1.3-6.1c0.3-2,0.4-3.8,0.4-5.2l-0.3-3.1
							l-0.7-2.8l-0.3-0.6v0l-0.2-0.4v0l-0.1-0.1l-0.1-0.2L153,258l-0.1,0l-0.1-0.1l-0.1-0.1l-0.2-0.4l-1.5-2.4
							c-0.4-0.7-1-1.4-1.6-2.1l-1.6-1.8c-0.9-1-1.8-1.9-2.8-2.8l-1.4-1.3l-0.3-0.1l-0.3-0.3l0.4,0.4l-0.5-0.4l-0.1-0.1v-0.1
							l-0.1-0.1l-0.1-0.1l-0.5-0.4l-0.1-0.1l-0.1-0.1l-0.8-0.5l-0.1-0.1l-0.7-0.4l-0.4-0.2l-1.1-0.7l-0.2-0.1l-0.2-0.1l-0.4-0.2
							c-0.5-0.2-1.2-0.5-2.1-0.8c0.1,0.1,0,0.2-0.4,0.2h-0.6l-0.3,0h-0.4l-3-0.3l0-0.1c-0.7-0.1-1.3-0.1-1.9-0.1h-2.5
							c-0.4,0-2.2,0.1-5.3,0.1l0.1-0.3l-17.9,1.4l1.4-1l1.4-1.5l-0.1-1.3l0.1-4.6c0.1-1,0.3-2.1,0.6-3.2c0.3-0.9,0.4-1.3,0.3-1.4
							c0.5-0.1,1-0.1,1.4-0.1l-1.5,0.1l-0.9,0.2l-0.1,0.3c-0.8,0.2-1.3,0.3-1.5,0.3c-0.3,0-0.8,0.1-1.4,0.4c0,0,0-0.1,0.1-0.3
							l0.6-0.3h0l0.1-0.1l0.2-0.1l2.3-0.5l-2.1,0.3l-0.5,0.2l-0.3,0l-0.2,0.1c-0.3,0.1-0.5,0.2-0.6,0.4l-0.7,0.1l-0.2-0.1
							c-0.1-0.1-0.4-0.1-1,0.2l-2.4,1.4l-0.1,0.1l-1.6,0.9v-0.1l-1.6,1.1l-0.2,0.2l-0.3,0.2l-0.8,0.8l-0.2,0.2l-0.2,0.2l-0.4,0.4
							l-3.4,3l0.2-0.4l-4.5,3.8c0.3-0.2,0.5-0.4,0.6-0.4c0.1,0-0.1,0.3-0.5,0.7l-4.6,4.1l-1,1.5l-3,3.2l-0.2,0.1l-0.1,0.2l-1.8,1.9
							l-0.1,0.1l-3.5,4.2l-0.3,0.3l-1.3,1.7l-0.3,0.3l-5.7,6.5c-3.5,3.8-6.8,7-9.9,9.5l-2.3,1.8l-0.1,0.1l-0.7,0.4l-0.3,0.2l-1.5,1
							h0l0,0l-2.5,1.5l0.3-0.2l-4.3,2.3l-5,2c-1.9,0.6-3.7,0.9-5.4,1.1c-1.2,0.1-2.1,0.1-2.7,0.1h-0.3l-0.4-0.1h-0.4l-0.1,0h-0.3
							l-0.7-0.1l0,0h-0.1l-16.1-3l-0.1,0l0,0h-0.2l-1.9-0.6l-4.4-1.8L3.9,282l-1.1-0.5l-0.6-0.4l-4.6-2.8l-0.1-0.1l0.1,0.1l0.2,0.1
							c0.1,0.1,0.1,0.1,0,0.1l-0.3,0l-3.1-1.8c-0.3-0.1-0.5-0.2-0.6-0.2c-0.1,0-0.3-0.1-0.6-0.2l-4.7-2c-0.3-0.2-1.1-0.5-2.2-0.9
							c-2.2-0.7-4.2-1.2-6-1.5c-1.1-0.2-2.3-0.3-3.8-0.4h-1.3l-0.3,0l-1.3,0.1l-0.2,0h-0.1l-0.1-0.5l-0.1-1c0-0.8,0-1.7,0-2.6l0.2-2
							v-0.3l0.1-0.7l0-0.1v-0.3l2.2-10.2l0.1-0.3v-0.1l0.8-2.8l2.5-5.9l-0.1,0.3l0.8-1.7h0.1v0l2.7-4.2l0.1-0.2l1-1.4
							c1.1-1.4,2-2.4,2.6-3.1c0.8-0.9,1.7-1.7,2.6-2.4l0.1-0.1l0.1-0.1l0.1,0h0.1V232l0.5-0.3l0.1-0.1h0.1c0.3-0.1,0.6-0.1,1,0h0.3
							l0.8,0.2c0.1,0,0.7,0.1,1.8,0.4l-0.4-0.2l1.8,0.4l0.3,0.1l0.3,0.1l0.5,0.2l2.3,1.3c0-0.2,0.1-0.2,0.4-0.1l0.4,0.1l0.6,0.1
							c0.8,0.2,1.6,0.5,2.3,0.9l-0.1,0.1l2.9,1.2l1.7,1.4c0.7,0.5,1.6,1.2,2.6,1.9l-0.3,0.1l2.3,1.3c1.3,0.6,2.2,1.1,2.9,1.3
							c0.8,0.4,1.9,0.7,3.1,1c0.8,0.2,1.7,0.3,2.6,0.4c0.8,0.1,1.6,0.1,2.4-0.1c1-0.1,1.9-0.3,2.6-0.6c1.1-0.4,1.9-0.7,2.6-1.1
							l0.3-0.1l2-1.5l2-2l1-1.3l0.1-0.1l0.5-0.7c0.6-1,1-1.8,1.3-2.3l0.2-0.3l0.1-0.3l0.2-0.4c0.1,0,0.1,0.1,0.2,0.1
							c0-0.4,0.1-0.8,0.3-1.1c0.2-0.5,0.5-0.8,0.8-1l0-0.6l0.1-0.1L37,230l0.5-1.2l0,0.5l0,0.1v0.4l0.1-0.4l-0.1-0.8l0.3-0.4
							l0.1-0.3l0-0.3l-0.5-0.7l0-2.3l0-0.3v-0.8l0-0.1v-0.2l-0.1-0.4l0.1,2.9l0,0.1v0.9l-0.4-0.6l0.1-0.9l0.1,0.2l-0.1-1.8v-0.1
							l-0.1-0.2l0-0.7l0-0.3l0-1.3c0-0.1,0-0.2,0-0.2v0.1l0.3,1.9l-0.3-3.9c0-0.1,0,0.2,0,1l-0.6-4.6l0-3.1c0-0.2,0.1-0.3,0.1-0.4
							l0.1-0.4l0.5-11.6l0.3-2.2c0.4-2,0.8-3.9,1.4-5.8l1.6-5l0.2-0.4l0.1-0.3l1.5-3.6l0-0.1l2.8-5.4l0-0.1l0.1-0.2l1.2-1.9l7.3-10
							l5.5-11.9c0.1-0.2,0.2-0.2,0.2,0c0,0.1-0.1,0.3-0.3,0.8c3.6-8.3,6.1-14.1,7.4-17.4l1.4-2.3l1.8-4.6c1.6-4,3-7.7,4.2-11.1
							c0.7-1.8,1.4-3.9,2.1-6.2c0.8-2.4,1.3-4.3,1.7-5.6c0.4-1.2,0.7-2.6,1.1-4.2l0.4-1.8l-0.3-0.5l0.9-4.7l0.2-0.4l0.2-0.9v-0.3
							l0-0.3v-0.4c0-1.2,0-2.1-0.1-2.6l-0.1-0.3l0-0.2l-0.1-0.1v-0.1l-0.2-0.5v-0.1l0-0.2L79.5,88l-0.2-0.6v-0.1h0v0l-0.2-0.8
							l-0.2-0.4l0-0.2v-0.1l-0.1-0.1l-0.3-1.2v-0.1l0-0.1l-0.1-0.2l-1-6.2l-0.1-1.3c0-0.9,0-1.3,0.1-1.3l-0.3-0.8l-0.1-0.8L77,70.8
							c-0.1-0.3-0.1-0.3-0.1,0.1c0,0.5-0.1,0.8-0.1,0.9l-0.2-4.1l0.1-0.9l0.1-0.4c0.1-0.1,0.1,0,0.1,0.2l0.1,0.3l1.6-19
							c0.1-1.3,0.4-3.1,0.8-5.4l1-4.8l0.1-0.5v-0.1l0.3-1.1v-0.2l0.1-0.1l1.3-3.8c1.2-3.2,2.8-6.5,4.8-9.9l2.3-3.8l0.2-0.3l0.7-1.1
							l0,0v0l0,0l1-1.5h0v0l0.1-0.1l0.8-1l0.1-0.1l0-0.1l3.1-3.4l0.1-0.1l0.1-0.1l2.3-2.1l0.2-0.1L98,7.8c1.6-1.3,3.1-2.5,4.4-3.4
							l-0.6,0.3l-1.7,1.1l-0.2,0.2L99.9,6l-1.3,0.9c-0.5,0.3-0.8,0.5-1.1,0.6l1.1-1l0.2-0.1l2.8-2.2l0.2-0.2
							c0.3-0.1,0.8-0.3,1.4-0.6l4.8-2.6l1.5-0.5l0.3-0.3L109.9-0.2 M180.5,107.8C180.5,107.8,180.5,107.8,180.5,107.8h0.7H180.5z"/>
					</g>
				</g>
			</g>
		</g>
	</g>
</g>
</svg>
