<?xml version="1.0" encoding="utf-8"?>
<!-- Generator: Adobe Illustrator 24.1.2, SVG Export Plug-In . SVG Version: 6.00 Build 0)  -->
<svg version="1.1" id="Layer_1" xmlns="http://www.w3.org/2000/svg" xmlns:xlink="http://www.w3.org/1999/xlink" x="0px" y="0px"
	 viewBox="0 0 256 256" style="enable-background:new 0 0 256 256;" xml:space="preserve">
<style type="text/css">
	.st0{fill:#FFFFFF;}
</style>
<g id="jump4">
	<g transform="matrix( 0.6996917724609375, 0, 0, 0.6996917724609375, 57.25,20.7) ">
		<g id="jump">
			<g transform="matrix( 1, 0, 0, 1, 0,0) ">
				<g>
					<g id="jump_3_Layer0_0_FILL">
						<path class="st0" d="M55.9-13.2L55.6-13l-0.4,0.2l-0.3,0.3l-0.2,0.1l-0.2,0.1L54.2-12l-0.9,0.7l-0.1,0.1L51.7-10
							c-1.2,0.9-2.1,1.8-3,2.6c-0.9,0.8-1.8,1.8-2.9,3l-3.5,4.4L42.3,0l-3.5,6l-3.2,6.7l-2.3,6.4l-0.2,0.6c-0.1,0.3-0.2,0.7-0.3,1.1
							l-0.1,0.4v0.1l-0.3,0.9v0.1l-0.1,0v0.2l0.3-1l-0.2,0.6v0.1l0,0.1l-0.2,0.7v0l0,0v0.2l-1.5,7v0.2l0,0v0.2l-0.2,1.6
							c0.1-0.1,0.2,0.1,0.3,0.6l0.3,6.4l-0.1,0l0.5,9.6l0,0.1v0.5l0.5,5.1l-0.2-0.1l0.2,1.8v0.3h0v0l0,0l0,0.1L33,69.5
							c0.1,3.4,0.2,7.5,0.2,12.3v3l-0.1,0.4l-0.1,10.3l-0.4,2.5l0,0.2l-0.3,0.4l-0.2,0L31.8,99l-0.1,0.3l-0.2,0.2l-0.2,0.4l-0.1,0.2
							l0,0.1h-0.1l0.4-0.6c0.1-0.1,0.2-0.2,0.2-0.3l-0.1,0.1c0,0-0.1,0-0.1,0l0.1-0.5l-0.3,0.5L31,99.8c0,0.1,0,0.1,0.1,0l0.2-0.2
							l-0.4,0.8l-0.6,0.9l-0.3,0.3l-0.1,0.1c-0.1,0-0.1,0-0.1,0l-0.2,0.1l-2.1,1.9l-0.3,0.2l-0.3,0.3l-1.5,1.1l-0.4,0.2l-0.6,0.5
							c-1.6,1.1-3.4,2.2-5.3,3.3l-11.6,6.3c-0.2,0-0.2,0,0.1-0.2l-6.5,3.8c-0.5,0.2-0.8,0.3-1.1,0.3c0.2,0-1.8,1.2-5.8,3.5l-6.4,3.7
							l0,0.4c-0.8,0.5-1.3,0.7-1.6,0.7c-0.1,0-0.3,0-0.4,0.1c-0.4,0.2-0.8,0.4-1,0.6l-0.4,0.4l-0.1,0.1l0,0c0,0,0,0.1-0.1,0.1v0.1h0
							l-0.3,0.2l-0.8,0.5h-0.1l0,0.1l-2.5,1.5l-0.4,0.4l-0.9,0.5c-0.1,0.1-0.2,0.1-0.2,0c0,0.2-0.3,0.4-0.6,0.7l-1,0.8
							c-0.1,0.1,0,0.2,0.1,0.1c0.2-0.1,0.3-0.2,0.4-0.3l-1.5,1.4l-0.4,0.3l-0.2,0c-0.1,0,0-0.1,0.3-0.4l-5,4.8
							c-1.3,1.5-2.4,2.8-3.3,3.9l-0.1,0.1l-0.8,0.9l-0.1,0.2l-0.1,0.1v0l0,0.1l-0.8,1.1l-0.1,0.1l-1.3,1.9c-2.1,3.1-3.8,6.1-5.2,9
							l-2.8,6.4c0.1-0.1,0.3-0.6,0.7-1.4c0.3-0.7,0.6-1.1,0.9-1.3l-0.5,1.6l-0.3,0.5l-0.1,0.5c-0.2,0.1-0.3,0.3-0.5,0.6l-0.8,1.8
							l0,0.1l0,0.1v0.1l-0.2,0.3c-0.1,0.3-0.3,0.6-0.5,0.8v0.1l0.1,0.2l0,0.3l-0.4,0.8l-0.2,0.4v0.1l-0.1,0.6l-0.7,3.7l0,0.2v0.1
							l0,0.1l-0.3,2.4c-0.1,1.5,0,2.9,0.3,4.3l0.4,2.8c0-0.1,0.1-0.2,0.1-0.3c0-0.2,0.1-0.1,0.2,0.4c-0.1,0.1-0.1,0.2,0,0.5l0,0.4
							l0.1,0.2l0.3,1.2l0,0.2v0.4l0.8,2.5l0.2,0.3c0.1,0.1,0.2,0.1,0.2-0.2l0.2,1.1v0.1l0.1,0v0.1l0,0.2c0,0.2,0,0.4,0,0.4
							c0,0-0.1-0.1-0.3-0.4l0.7,1.9l-0.3-1l1.6,4.3l0.7,1.1l-0.3-1l0.9,2l0.3,0.8l0.1,0.6l-0.3-0.3l-0.5-1l-0.1-0.1
							c0.2,0.5,0.5,1.1,0.8,1.6l0.4,0.8l0.1,0.2l0.1,0.2l0.3,0.3l0.2,0.4l0.9,1.3l0,0.1l0.1,0.1l0.3,0.4l0.1,0.2l0.4,0.4l0.1,0.1
							l0-0.1l-0.5-0.6l0.1,0.1l0.1,0.1l0.3,0.4l0.2,0.3l0.3,0.2l0.1,0.2l0.4,0.3l0.1,0.1l0.4,0.4l1.1,0.8c0.8,0.5,1.4,0.9,1.6,0.9
							c1.2,0.6,2.3,1,3.4,1.4c0.8,0.2,1.9,0.5,3.4,0.9l3.7,0.5h0.3c0.1,0,0.2,0,0.2,0.1h0.8l0.3,0.1l1.4-0.1l0.3-0.1l0.5,0l0.1-0.1
							h0.1l1.5-0.4c0.7-0.2,1.1-0.4,1.3-0.5c0.6-0.2,1.1-0.5,1.7-0.8l-1.5,0.3c0.7-0.3,1.5-0.8,2.3-1.3c-0.1,0.1-0.3,0.3-0.4,0.8
							l-0.3,0.5c0,0,0,0.1-0.1,0.1l2-0.9l2.3-1.6c1-0.7,1.6-1.2,1.8-1.4c1.2-1,2.5-2.1,3.8-3.5c0.6-0.6,1.8-1.9,3.6-4l5.8-7.4l0-0.1
							l3.3-3.6l0.9-0.7l0.2-0.1l0.3-0.1c0.1,0,0.1,0,0.1,0.1l-0.2,0.4c0.5-0.5,0.7-0.8,0.8-1c0.1-0.2,0.4-0.4,0.8-0.8l0.1,0
							c0.1,0,0.1,0,0,0.1l-0.2,0.4l0.3-0.4l0.4-0.3c0.2-0.1,0.3-0.3,0.3-0.4c-0.3,0.2-0.5,0.2-0.7,0.2c-0.2-0.1-0.4-0.2-0.5-0.2
							l1.6-1.3l0.1,0.3c0.1-0.1,0.2-0.2,0.2-0.3l0.3-0.6l1.1-1.1l0.3-0.1l0.3-0.2c1.3-0.8,2.8-1.7,4.5-2.7c1.9-1,3.5-1.8,4.7-2.3
							l-0.1,0.2l-0.3,0.3c-0.3,0.2-0.5,0.4-0.9,0.5l1.2-0.5l0,0l-1.1,6.6c-0.4,3.1-0.6,6.1-0.7,8.9v7.6l0.1,0.3l0,1.1
							c0.2,3.2,0.5,6.2,1,9.1c-0.1,0.1-0.1,0.1-0.2-0.3l1,5.4l0.1,0.3l1,4.3c0.1,0.5,0.1,1,0,1.4c0,0,0.1,0.3,0.2,0.7l3.5,10.6v0.1
							l0.1,0.2l0-0.1l1.9,5.7l0.5,0.1l0.4,1.6c0,0.2,0,0.3,0,0.5v0.5l0.1,0.5l0.3,0.9l0.4,0.4l0.5,1.5l0.7,3.3l0.2,0.5l0,0.7
							c0.1,0.5,0,0.7,0,0.6l0.3,0.4l0.1,0.3l0.1,1l0.1,0.3v0.2l0.1,0.1c0.1,0.1,0.1,0.1,0.1-0.1c0-0.2,0-0.4,0-0.4l0.5,1.9
							c-0.1,1-0.2,1-0.4,0.2l0.1,0.5l0.1,1.8l0,0.2v0.1l0-0.4v2.2l0,0.3l-0.1,1.6c-0.1,1.3-0.4,2.9-0.8,4.8c-0.5,1.9-1,3.7-1.5,5.3
							c-0.5,1.6-1.2,3.4-2,5.3l-3,7.2l-0.2,0.7l-0.1,0.3l-0.3,1.1l0,0.1v0l-0.3,0.9v0.1l0,0.1l-0.1,0.6c-0.4,1.6-0.6,3-0.7,4.2
							l0.1-0.5l0-0.3l0.7-2.7c0.1-0.3,0.2-0.6,0.5-0.9l-0.5,2.4c-0.2,0.7-0.2,1.2-0.2,1.6l-0.2,0.4l-0.3,1.1l-0.1,2.5l-0.1,0.3v0.8
							c0,0.9,0,1.5-0.1,1.8l0.5,0.7v1.3l0.3,1l0.1,0.1c0.5,1.3,1,2.3,1.5,3.3l1.8,3.8l1.3,2.2l1,1.3l0,0.1v0l0.1,0.1v0l0.3,0.4
							l0,0.1l2.9,2.9l0.2,0.2h0l0.1,0.1l0.1,0.1l0.1,0.1l0.1,0l0.6,0.6l-0.1-0.2l-0.1-0.2c-0.1-0.1-0.1-0.2,0-0.1l0.2,0.1l0.3,0.3
							c0,0.1,0.4,0.5,1.4,1.2l1,0.6c0.3,0.2,0.5,0.4,0.6,0.6l2.3,1.4c0.4,0.2,0.7,0.3,0.9,0.4c0.2,0,0.2-0.1,0-0.3l1.7,1.3l0.1,0
							l0.1,0h0l0.1,0.2h-0.2v-0.1h-0.1l-0.3-0.1l2.5,1.2l-1.2-0.7l3.9,1.9l0.8,0.3l0.3,0.1h0.1l0.4,0.2l0.3,0.1l0.3,0.1l1.3,0.3
							l-1.3-0.6l3.6,1.1l1.4,0.6l-2.5-0.3l3,0.6h0.3l0.6,0.1l4.1,0.1l0.6-0.1h0.3l0.1-0.1h0.1l0.3,0h-0.5l0.1,0h0.1l0.3-0.1h0.1
							l0.1,0h0.2l1.3-0.3l0.5-0.1c1.7-0.4,3.2-0.8,4.4-1.3l0.6-0.2l0.1,0h0l0.1,0l0.1-0.1l0.3-0.1l2.7-1.1l0.3-0.1l0.1,0l0.1,0l0,0
							h0.1h-0.1l2.9-1.2l0.4-0.1v-0.1c0.3,0,0.6-0.1,0.8-0.2l0.7-0.3l0.3-0.2l0.3-0.1l0.2-0.1l0.1-0.1l0.2-0.1l0.1-0.1l0-0.1l0.1,0
							l0-0.1l0.2-0.1l0.3-0.3l3.4-5c0.9-1.5,1.5-2.5,1.7-2.9l-1.1,0.9l1.3-2.3c0,0.1,0,0.4,0,0.9c0,0.4,0,0.6,0,0.8l2-2.8l0.1,0
							l0-0.1l0.4-0.6l0.1-0.1l0.5-0.9l0.1-0.1l0.1-0.1l0.1-0.1l4.2-7.6c0.4-0.8,0.9-1.8,1.4-3l7.5-19.4l0.1-0.3l0.1-0.1v0l0-0.1v0
							l0.8-2.7v-0.1l0.1-0.1l0.1-0.2l0.1-0.3l0.2-0.4c0.1-0.1,0.1-0.1,0.2,0c0,0.1,0.1,0.4,0.1,0.8c0.1-0.8,0.2-1.4,0.2-2
							c0-0.2,0-0.8,0.2-1.7c0.1-0.3,0.1-0.3,0.2-0.1c0,0.2,0.1,0.4,0.1,0.7c0.2-1.4,0.3-2.2,0.2-2.2c-0.1,0.5-0.3,0.8-0.4,0.9
							c-0.3,0.2-0.5,0.3-0.6,0.4l0.2-1.6l0-0.1v-0.2l0.2-1.2l0.2,0.2v-0.3l-0.4-2.7l-0.5-7.8l-0.3-1.9c-0.3-1.9-0.9-4.4-1.8-7.5
							l0.4,0.6l0.5,1.4c-0.4-1.2-0.6-2-0.6-2.3c0,0.2,0,0.3-0.1,0.2l-0.3-0.6c-0.2-0.6-0.3-0.8-0.3-0.6l-0.8-1.7l0.1-0.1l-0.2-0.2
							v-0.1l-0.1-0.1l-0.1-0.1l-0.1,0c0,0,0.1-0.1,0.1-0.1l0.1,0.4v-0.2l0.1-0.1h0.3l-0.1-0.3c0,0.1-0.1,0.1-0.1,0.1
							c-0.1,0-0.2-0.1-0.3-0.1c-0.1-0.1-0.2-0.1-0.2-0.3c0-0.1,0-0.1,0.1-0.2c0.1-0.1,0.2-0.2,0.1-0.3l-1.3-3.8l-0.4-0.8h0.2
							c-0.2-0.3-0.3-0.6-0.4-0.8l0.9-0.3c0-0.1-0.1-0.1-0.3-0.2c-0.2,0-0.3-0.1-0.3-0.2c0.1-0.1,0.2-0.1,0.3-0.1
							c0.1,0,0.2-0.1,0.2-0.2c0.1,0.2,0.2,0.3,0.4,0.3c0.2,0,0.4,0.1,0.6,0.3l-0.1-0.3l0.2,0.2l0.7-0.4c0.1,0,0.3,0,0.7,0
							c0.2-0.1,0.4-0.2,0.7-0.5c0.2-0.2,0.3-0.2,0.4-0.2c0,0,0,0-0.1-0.1c0-0.1,0-0.1,0-0.2l0.1,0.1l0.3-0.2l0.2,0.1
							c0.2-0.1,0.3-0.1,0.3-0.1c0.1-0.1,0.2-0.2,0.1-0.4c0,0,0.1,0.1,0.3,0.2c0.1,0.1,0.1,0.1,0.1,0.3l0.4-0.2l-0.2,0
							c0.1,0,0.3-0.1,0.6-0.1c0.2,0,0.4-0.1,0.5-0.3l-0.3-0.1c0.4-0.1,0.6-0.1,0.8,0.2l-0.3,0.2l0.7-0.2c0.3-0.1,0.5-0.3,0.6-0.4
							l-0.1,0l0.1-0.1h0v-0.1l-0.3,0.1l0.2-0.2l1.9-0.9h0.1l0.2-0.1l0.1,0l0.1-0.1l0.3-0.2c0.3-0.2,0.6-0.4,0.7-0.5l-0.3-0.3
							l0.4-0.4c0,0.6,0,0.9,0,1l1.7-0.4l0.6-0.1l0.9,0.1l0.7,0.1l0.3,0.1l0,0h-0.1l0,0.1h0.1c0.2,0.2,0.1,0.4-0.1,0.6h0.1l0.1-0.1
							h0.1l0.2,0c0,0,0.1-0.1,0.2-0.1h0.2l0.1,0.1h0.1c0.1,0.1,0.1,0.1,0,0.1l-0.1,0.1h-0.1l0.1,0h0.1l0.1,0.1c0.1,0,0.2,0,0.2-0.1
							c-0.1-0.1-0.1-0.2-0.1-0.4c0-0.3,0-0.4,0-0.4l0.7,0.1l-0.1,0.3c0,0,0.2,0,0.3-0.3l0.3-0.2l1.2,0.2h0.3l0.4,0.1h0.8l0.6,0.1
							l0.7,0.3h-0.3l0.3,0.2l3.9,1.1c-0.3-0.1-0.4-0.2-0.4-0.3c0-0.1,0.2-0.1,0.6,0l2.2,0.8c0.7,0.2,1.2,0.5,1.5,0.8l1.1,0.1
							l0.1,0.1l0.4,0.2l0.1,0.1l0.1,0.1l0.1,0.1l0,0.1v0.1h0.1l0.2,0.1l0,0.2l0.6,0.9c0.2,0.3,0.6,1,1.1,2.1l0.8,1.4l0.1,0.1
							l0.1,0.2l1.6,3.6l0.1,0.4l2.1,6.4v0.1l0.3,1.3l0.1,0.4c0.2,0.7,0.3,1.7,0.6,2.9c0.2,1.6,0.4,3.5,0.6,5.6l-0.3,8.3l-0.1-0.3
							l-0.5,5c-0.1,1.2-0.1,2.5,0,3.8c0.2,1.5,0.4,2.9,0.8,4.1c0.5,1.6,1.1,3,1.8,4.3l0.1,0.3l0.2,0.3l0.3,0.5l0.1,0.1l0.1,0.1
							l1.1,1.5l0.2,0.2l0.4,0.5l0.4,0.4c1,1.1,2.1,2.1,3.4,3c1.2,0.9,2.4,1.6,3.6,2.3c1.1,0.6,2.4,1.1,3.7,1.6l0.9,0.4l0.3,0.1
							l0.2,0.1l2.2,0.7c1.2,0.3,2.4,0.6,3.7,0.9c1.4,0.3,2.6,0.5,3.8,0.6c1.5,0.1,2.8,0.1,3.9,0c1.5-0.1,2.8-0.3,3.8-0.5
							c1.4-0.3,2.5-0.7,3.5-1.1c1.2-0.5,2.1-1,2.9-1.6l2.1-1.1l0.1-0.1l0.6-0.4l2.5-2.3l1.4-1.7c-0.5,0.5-0.8,0.7-0.8,0.6l0.5-0.8
							l0.1-0.1l0.1-0.1l0.3-0.4l0.1-0.1v-0.1l0.2-0.1l1.1-1.6c0.1-0.2,0.2-0.4,0.2-0.5c0-0.1,0.1-0.3,0.2-0.5l1.4-2.5
							c1.8-3.1,3.1-5.7,4.1-7.7c1-2,1.8-3.8,2.4-5.6l0.6-1.5l0.1-0.2l0.1-0.2l0.9-2.6v-0.1l0.5-1.6c0.6-1.9,1.2-4,1.7-6.3
							c0.5-2.1,0.8-4.1,1-5.9l0.5-7l0-0.2l0-0.4v-1.1l-1-5.8c-0.3-2.2-0.8-4.1-1.3-5.5l0.2,0.3l-0.4-1.4l-0.1-0.3l-2.4-8.2l-0.1-0.3
							l-2-5.4l-3-5.9c-1.3-2.2-2.4-3.9-3.2-5l0.3,0.5l-0.8-0.9l-2.8-4.2c0,0.2-0.5,0-1.4-0.8l-1.9-1.8l0.1-0.1l-0.4-0.4l-0.2-0.1
							l-0.7-0.7l-0.4-0.3l-0.2-0.2l-0.2-0.2l-0.8-0.8l-0.3-0.1l-0.1-0.1v-0.1h-0.1l-0.1-0.1l-0.8-0.7l-1.9-1.8l0.3-0.1
							c-0.9-0.8-1.8-1.9-2.6-3.1l-2.8-4.5l-2.9-6.4c0.2-0.8,0.2-1.4,0.2-1.6l0.3-0.9c0-0.1,0.1-0.1,0.2-0.1c0.1,0,0.1-0.1,0.1-0.2
							l0.1-0.1l0.1-0.1l0.1-0.3l0.2-0.6v-0.1l0.1-0.1c0.3-3.2,0.7-5.6,1.1-7.2l0.1,0.1c0-0.2,0.1-0.3,0.1-0.5l0.5,0.1l2.4,0.4
							l1.3,0.5l-0.2,0.1l1.3,0.6c0.8,0.3,1.3,0.5,1.7,0.8c-0.2-0.1-0.2-0.2-0.3-0.3c0-0.1,0.1-0.1,0.4,0.1l2.4,1.3l0.3,0.2
							c0.1,0,0.2,0.1,0.4,0.3l1,0.2l1.5,0.9l4.8,3.3c0.2,0.1,0.3,0.3,0.4,0.3l1.6,1.3l0,0c0,0,0,0,0,0v0.1l0.1,0.1l0.1,0.1l4.1,3.4
							l0.3,0.2c1,0.7,1.9,1.3,2.8,1.8c0.9,0.5,1.9,1,2.9,1.5l3.2,1.1c1,0.3,2.1,0.5,3.2,0.6c1.2,0.1,2.2,0.1,3.1,0.1l3.6-0.5l3-0.9
							l-0.3,0.1l0.9-0.4l0.1-0.1l0.6-0.3h0.1l0-0.1l0.7-0.3l0.1-0.1l0.5-0.3l0.1-0.1l0.1-0.1l1.3-0.8l3.8-2.9
							c0.7-0.6,1.4-1.4,2.1-2.2c0.7-0.8,1.4-1.7,1.9-2.6c0.7-1.1,1.2-2.1,1.6-3c0.4-1,0.8-2,1.1-3.2c0.3-1.1,0.5-2.2,0.6-3.3
							l0.1-0.2l0.1-1l0.1-0.3V161c0-0.9-0.1-1.9-0.2-2.9l-0.4-3.1l-0.1-0.3l-0.1-0.7l-0.9-3.5l-0.1-0.1l-2.9-8.2l-0.1-0.1l-0.1-0.2
							l-0.3-0.6c0.2,0.4,0.2,0.6,0.1,0.6c-0.1,0-0.2-0.2-0.4-0.6l-0.2-0.4l-0.1-0.1l0-0.1v0l-0.7-1.1l-0.1-0.1l0,0l-0.1-0.2l-0.1,0
							l-0.3-0.3l-1.3-1.9c-1.6-2.3-2.9-4.1-4-5.3l-5.4-5.9l-0.1-0.1l-3.5-3.4l-0.3-0.1l-2.4-2.1l-0.1-0.1v0l-0.1-0.1l0,0l-0.3-0.2
							l-4.6-3.3l-0.2-0.1l-1.9-1.2c-0.8-0.3-2.1-0.9-3.8-1.8c-1.9-0.8-3.2-1.4-3.9-1.6h0.3c-1.3-0.5-2.6-1-3.7-1.5
							c-2.2-0.9-4.1-1.6-5.9-2.2l-10.1-3.1l0.4,0.1l-0.9-0.1l-2.2-0.8l-0.2,0l-0.1-0.1h-0.1v0l-0.8-0.3c0.1,0.2-0.3,0.3-1.1,0.2
							l-0.9-0.1l-0.8-0.2l0.1,0l-2.7-0.6c-1.3-0.3-2.4-0.6-3.1-0.9l0.2-0.1l-0.7-0.2l-0.3-0.2l-0.4-0.1l-3.8-1.9
							c-0.7-0.5-1.3-0.9-1.7-1.3l-1.7-1.6c-0.6-0.6-1-1.2-1.3-1.7l-0.1-0.2l0.3-0.3l0.1-0.1h0.1l0.6-0.7h0.1l0.1,0l0.1-0.1l0.4-0.3
							l0.2-0.1l0.1-0.1h0l0.1-0.1l0.4-0.2c0.5-0.3,1.1-0.6,1.9-0.8l0.3-0.1l0.3,0l0.4-0.2h0.1l0.3-0.1h0.1l0.7-0.2h-0.1h0.1h0.1
							h-0.1l9.3-0.8h1l0.1-0.1l2.2-0.1c2.1-0.1,3.6-0.3,4.6-0.4l2-0.3l0.7-0.2h0.1l0.1,0l0.5-0.1l-0.2,0.1h0.2l0.1-0.1l0.3-0.1
							l-0.3,0.1l0.3,0h0.1l0.3-0.1h0.1l0.9-0.3l0.1,0l0.3-0.1l0.1,0c0.6-0.2,1.5-0.5,2.7-1c0.8-0.4,1.8-0.8,2.8-1.4
							c0.9-0.5,1.8-1.2,2.8-2l1.3-1.2l0.1-0.1l0.5-0.5v0h0.1l0.1-0.2l0.2-0.2l0.1-0.2l0.1-0.1v0l0.1-0.1l1.7-2.5l0.4-0.9l0.1-0.2
							l1-2.6l0.1-0.5l0.2-0.4c0.3-1.1,0.4-2.4,0.5-3.8v-2.1l0-0.3v-0.7l-0.1-0.1v-0.4l-0.1-0.2v-0.3l-0.1-0.5l-0.1-0.4v-0.2
							l-0.1-0.2v-0.1l-0.4-1.8c-0.2-0.8-0.4-1.3-0.4-1.7l-0.6-1.7c-0.4-1.2-0.9-2.3-1.4-3.3l-1.4-2.5v0l-0.3-0.5v0.1l-0.1-0.1
							l-0.3-0.3l-1.8-2.6l-5.4-6.4l-0.1-0.1H183v-0.1l-1.3-1.3l-0.1-0.1l-6.4-7.3l-0.1-0.1l-0.6-0.8l-0.1-0.1l-0.6-1l-0.2-0.3
							l-0.8-1.3l-0.1-0.3l-1.3-2.5l-4.7-11.3l-0.1-0.1l-2.4-6c-0.6-1.8-1.3-3.6-2.2-5.5c-0.1-0.1-1-1.9-2.8-5.4l0.4,1
							c0.3,0.4,0.3,0.5,0,0.2c-0.1-0.1-0.4-0.5-0.9-1.2l-1.4-2.4l-0.1-0.1l-0.4-0.7l-0.1-0.2l-0.1-0.1v-0.1L156.6-2l-0.4-0.6
							c-0.3-0.5-0.6-0.7-0.6-0.7l-1.2-1.3l-0.1-0.2L154.2-5l-0.6-0.7l-4.8-4.6l-3-2.3c-1.3-0.9-2.6-1.7-3.7-2.4l-8.1-4.1l-0.3-0.1
							l-9.6-3.6l-6.6-1.8l-13-1.9l-1.4,0l-0.3-0.1l-8.2,0.1l-0.1,0.1h-0.4l-2.9,0.3l-0.3,0h-0.3l-6.6,1H84l-8.6,2.5L75-22.5
							l-6.4,2.4h-0.1l0,0.1l-0.2,0l-1.7,0.8c-1.4,0.7-2.8,1.4-4.3,2.2l0.1-0.1l0.1-0.1l0.3-0.2L55.9-13.2 M60.2-1.8L60.5-2v-0.5
							c0.9-0.6,1.5-1.1,2-1.3l1.3-0.5l1.8-1.1c0.3-0.4,0.8-0.8,1.6-1.2l0.3-0.2l0.1-0.1h0.1l0.8-0.4c0.4-0.2,0.8-0.4,1.3-0.6
							l4.3-1.9l1-0.3c0.7-0.2,1-0.3,1-0.2l0.5-0.4l3-1c0.1-0.1,0.1-0.1-0.1-0.1l-0.4,0.1l-0.3,0.1l3.1-1.1l0.7-0.1
							c0.2,0,0.4,0,0.4,0.1c0,0-0.3,0.1-0.8,0.3c2.6-0.6,4.1-0.9,4.5-1c2.6-0.5,4.9-0.8,6.8-1l2-0.2l0.1-0.1L101-15l0.1,0.1h1.4
							l0.3,0.1l3.9,0.3l0.3,0.1h0.3l3.5,0.5c1.8,0.3,3.3,0.6,4.5,0.9l2.8,0.7l10.3,3.7l0.7,0.3l0.2,0.1l0.1,0.1l0.2,0l4.5,2.3
							c1.5,0.9,2.8,1.7,3.8,2.4c-0.4-0.5-1-1-1.9-1.5L134.5-6l-0.4-0.3c0.8,0.4,1.6,0.8,2.4,1.3l0.8,0.5l0.7,0.3l0.3,0.5l1.3,1.3
							l0.1,0.1l0.4,0.4c0.7,0.6,1.1,1,1.4,1.3c0.4,0.6,0.7,1,0.9,1.3l0.6,0.2l0.5,0.9l0.3,0.3l0.4,0.5V2.6l0.1,0.1l0.1,0l1.6,2.2
							l0.1,0.1l0.6,0.8V6l0.1,0.1l0.5,0.8l0.3,0.7c0.5,0.8,1.2,2.1,2,3.8l2.7,5.2l0.3,0.6c0.7,1.3,1.2,2.5,1.6,3.8
							c0-0.1,0-0.1,0-0.2c0-0.3,0.1-0.1,0.4,0.5c-0.1,0.1,0,0.3,0.1,0.7l0.1,0.5l0.1,0.2v0.1l0.8,1.9l0.1,0.4
							c0.2,0.5,0.3,0.9,0.3,1.1l1.4,3.4c0.7,1.7,1,2,0.8,1.1l1.1,3.5c0,0.1-0.2-0.2-0.5-0.8l1.4,3.1l0.5,0.8
							c-0.4-0.8-0.6-1.5-0.8-1.9l1.3,2.5l0.1,0.4l2.8,4.8l0.1,0.1l0.1,0.1l0.1,0l0.1,0.2l1.3,1.5l0.2,0.1l0.1,0.1h0l0.2,0.3l0.5,0.5
							l-0.5-0.6l-0.1-0.2l-0.1-0.1l-0.1-0.2l-0.2-0.2l-0.3-0.5l2.8,3.3c0.8,1.1,1.3,1.8,1.5,2.3l-1.1-1.1l4.7,5.1l0.1,0v0h0v0.1
							l2.4,2.4l-0.9-1c0.6,0.5,1.2,1.2,1.9,2l3.3,4.2l0.1,0.2l0.2,0.2l0.1,0.1l0,0v0c0.4,0.7,0.8,1.4,1.1,2c0.3,0.7,0.6,1.5,0.8,2.2
							c0.2,0.4,0.3,0.7,0.3,1.1l0.1,0.6v0.1l0.1,0.1l0.1,0.3v0.3l0.1,0v0.2l0.1,0.4v0.3l0,0.1v0.8c0,0.7-0.1,1.3-0.1,1.8
							c-0.1,0.6-0.3,1.1-0.4,1.5l-0.1,0.1l-0.1,0.2l-0.1,0.2h-0.1v0.1h-0.1v0l-0.3,0.5v0l-0.2,0.3l-0.1,0.1v0h-0.1v0.1l-0.2,0.1
							l0,0.1l-0.4,0.4c-0.2,0.2-0.5,0.5-1,0.8l-0.7,0.4l-0.2,0.1l-0.4,0.3l-0.2,0.1l-0.1,0.1l1.6-0.4c-0.6,0.4-1.1,0.7-1.3,0.8
							l-1,0.5v0h-0.1l-0.4,0.2l0.2-0.2l0.2-0.1v0l-0.2,0l0.1,0l0.8-1c0-0.1,0.1-0.1,0.1-0.2l0,0l-0.3,0l-0.2,0.1l-0.3,0.1l-0.3,0
							l-0.1,0.1h-0.1l-1.9,0.4l-7.1,0.7h-1.2c-0.1,0-0.3,0-0.3,0h-0.1c-0.2,0-0.4,0.1-0.8,0.1c-0.7,0.1-1.2,0.1-1.6,0.1l-6.9,0.6
							l-0.3,0.1h-0.3l-1.6,0.3l0,0H155l-0.4,0.1l-0.1,0h-0.1l-0.3,0.1l-0.6,0.1l-0.1,0l-0.1,0.1l-0.3,0l-2.1,0.6l-3.6,1.7l-1.6,0.9
							l-2.7,2.3v0.1l-0.1,0.1l-0.4,0.3v0l0,0.1l-0.1,0.1l-1.1,1.3l-0.1,0.1l-0.1,0.1l-1.1,1.6L140,90l-0.9,1.7l0,0.1l-0.1,0.2
							l-0.2,0.3l-1,3l0,0.3l-0.1,0.2v0.2l-0.3,2.4v1.5l0.1,0.3v0.6l0.1,0.6v0.4l0.1,0.4c0.2,1,0.5,2.2,0.9,3.5
							c0.5,1.2,0.9,2.2,1.3,3c0.6,1.2,1.1,2,1.4,2.5l1.8,2.8l0.1,0.1v0.1h0l0.1,0.1l3,4.2l0.3,0.3l0.6,1.3c0,0.1,0,0.2-0.1,0.2
							l-0.4-0.3l-0.3-0.3l2.1,2.5c0.1,0.2,0.4,0.6,0.9,1.3c0.3,0.5,0.1,0.4-0.6-0.4c0.2,0.3,0.5,0.8,1,1.7c0.3,0.5,0.5,0.7,0.5,0.8
							l-0.3-0.9c0-0.2,0-0.3,0-0.4c0.1-0.1,0.1-0.2,0.1-0.3c0.1-0.1,0.1-0.3,0.1-0.4l2.1,3.6h-0.3l0.1,0.1v0.1l1.3,1.5
							c0.8,1.1,1.6,2.4,2.2,3.9l0.9,2l0,0.1v0.1l0.4,0.9v0.1l0.3,0.6l1.9,6.2c0.2,0.8,0.4,1.6,0.4,2.5l0.1,0.3l0.1,0.1v0.1l0.1,1.3
							l0.1,0.2v0.4l0.1,0.3l0.1,0.9l-0.1,3.8c-0.1-0.1-0.1-0.2-0.1-0.4l-0.1-0.3l-0.1-2.2l-0.1,1.5l0,0.4v0.4l-0.2,0.7
							c0.1-0.3,0.1-0.4,0.2-0.2v1c-0.1,1.1-0.1,1.4,0,0.9c0.1,1.1,0.1,2.5,0,4.3l-1.2,12.1c-0.1,0.4-0.2,0.7-0.3,1
							c-0.1,0.3-0.1,0.7-0.1,1.3l-0.2-0.1l0.4,2.5l0.2,0.8c0.1,0.3,0.2,0.5,0.1,0.5l-0.3-1.3l-0.2-0.8c0.1,0.8,0.1,0.9,0,0.6
							l-0.3-0.9l0.3,1.9c0.1,0.2,0.1,0.1,0-0.6l0.8,2.4l0.4,1.6l-0.1,0.2c-0.1,0.1,0,0.5,0.2,1.2c0.6,2.3,1.6,4.9,3,7.8
							c1.2,2.5,2.5,5,4.1,7.4l1.6,2.2l0.3,0.4l0.3,0.4l2.8,3.1l0.1,0.1l0,0l0.1,0v0l2.3,2.5l0.1,0.1l2.5,3.1c0,0.1-0.1,0-0.3-0.2
							l4.4,6.4c0.1,0.4,0.2,0.7,0.2,1.2c0-0.1,0.1,0.1,0.3,0.4l0.4,0.6l2.8,6.4l0.2,0.7l0.2,0.3v0.1l0.1,0.2l1.3,4.1l0.1,0.3
							l0.1,0.4l0.6,0.1l0.3,1.3l-0.1,0.5c-0.1,0.1-0.1,0.3-0.1,0.4c0,0.2,0.1,0.6,0.3,1.2c0.2,0.1,0.3,0.5,0.6,1.1l0.6,3l0.3,1v0.1
							l0.1,0.4c0,0.4,0,0.6-0.1,0.6c0.2,0.1,0.3,0.4,0.3,0.9l0.2,1.1c0.1,0.2,0.1,0,0.1-0.4l0.4,1.7l-0.1,0.2v0.1l-0.1,0.2l-0.1,0.2
							c-0.1,0-0.2-0.1-0.2-0.4l0.1,2.9l-0.1,0.2v0.9l-0.1,1.4v0.6c-0.1,1.3-0.4,2.8-0.7,4.5c-0.3,1.4-0.7,3-1.2,4.9l-1,3.4l0,0.1
							l-0.1,0.2l-0.4,1v0l-0.1,0.1l-0.3,0.9v0.1l-0.1,0l-1.4,3.4c-0.2,0.4-0.7,1.6-1.6,3.5l-1.2,2.4l0.8-1l0.1-0.2l0.5-0.6l0.5-0.5
							l-0.1,0.3l-0.6,1.2c-0.3,0.5-0.4,0.8-0.4,0.9c-0.3,0.1-0.7,0.5-1.3,1.4l-0.7,1c-0.2,0.3-0.5,0.5-0.8,0.7l0.1,0.6l-0.3,0.2
							l-0.3,0.3l-1.9,3.1l-0.1,0.2c0,0,0,0,0,0l-0.1,0l-0.1,0.2l-0.2,0.1l-0.1,0.1l-0.3,0.3v0H175l-0.1,0.1l-0.1,0.2l-1.3,1.3
							l-0.2,0.2l-0.6,0.7l-0.6,0.4l-0.2,0.1l-0.2,0.1h0.1l0.1,0.1l0,0.1l-0.1,0.1c0,0-0.1,0-0.3,0l-0.2,0l-0.3,0.1l-0.4,0.2h-0.1
							c-0.1,0-0.3,0-0.4,0l-1.3,0.2l-0.1,0.1h-0.1l-0.2,0.1c-0.1,0.1-0.1,0.1,0.1,0.3l-0.1,0l-0.1,0h-0.1l-0.1-0.1l-0.3,0l-0.1-0.1
							h-0.1c-0.4-0.1-0.4-0.2,0-0.3l-0.3,0H167l-0.4,0h-0.2l-0.2-0.1h-0.4l0.4,0.1l0.2,0.1h0.1l0.1,0l-4.8-0.9l0.8,0.5l-1.8-0.6
							l-0.1-0.1v0.1l-0.1-0.1h0l-0.6-0.3l-0.2-0.1l-0.1-0.1l-0.1-0.2l1.2,0.3h0.1l-0.6-0.2L160,283h-0.2v0h0l-1.6-0.5l-0.3-0.2
							l-1.7-0.6l-0.3-0.1l0.6,0.4l-0.7-0.3l-0.1-0.1l-0.4-0.1l-1.5-0.9l-1.5-1.3c-0.3-0.3-0.7-0.9-1.1-1.6c-0.3-0.5-0.5-1.1-0.8-1.9
							c-0.1-0.6-0.2-1.3-0.3-2l-0.1-3.5l-0.5,1.2V269c0,0.2,0.2,0.4,0.5,0.8l0.2,0.3l0.1,0.2c0,0,0.1,0.1,0.1,0.1v0l0.1-0.1
							l0.6-10.4l-0.1-0.4v-1.3L151,258v-0.8c-0.2-2.4-0.4-4.5-0.7-6.3l-0.9-4.7l-0.1-0.4h-0.1v-0.2l-0.1-0.1l-1.8-6.2
							c-0.5-1.5-1-3-1.6-4.3l-1.4-3.3l0-0.4c0-0.1,0.1-0.1,0.1-0.1l0.5,0.5l-0.4-0.7l-0.9-1.1l-0.6-0.9c-0.1-0.2-0.1-0.3,0.1-0.2
							c0.1,0.1,0.3,0.3,0.4,0.5l-0.6-1.2c-0.2-0.3-0.4-0.5-0.4-0.5c0.2,0.4,0.3,0.8,0.1,0.9c-0.2,0.3-0.3,0.4-0.3,0.5l-1.4-2.4
							l0.3-0.1l-0.1-0.1h-0.1l-0.1-0.1v-0.1h0l-0.6-0.6l-4.1-2.9c-1-0.6-2.2-1.2-3.6-1.8c-1.4-0.5-2.6-0.9-3.6-1.1l-6.1-1.2h-0.1
							l-0.1-0.1h0l-0.1-0.1c-0.1-0.1-0.2,0-0.3,0.1h0c0,0,0-0.1-0.1-0.2c0.1,0,0.3,0,0.5,0h1.3l-1.9-0.3c0,0-0.1,0-0.1-0.1h0
							l-0.1,0.1l-0.3,0.1l-0.2-0.1v-0.1c-0.1-0.1-0.2-0.1-0.3-0.1l-0.3,0.2l-0.2,0l-0.1,0.1c-0.1,0-0.2,0-0.3-0.1l0-0.1l-0.3-0.1
							c-0.2,0-0.3,0-0.3-0.1c0,0,0,0.1,0,0.1c0,0.1,0,0.1-0.1,0.1l-0.2-0.1l-0.2-0.1c-0.1,0-0.2-0.1-0.3-0.2l0,0.1l-0.1,0.1
							l-0.1,0.2l-0.2-0.1h-0.3l-0.2-0.1h-0.3l-0.1-0.1h-0.1l-0.3-0.1h0l-1-0.2c-0.8-0.1-1.8-0.2-2.8-0.2s-2,0.1-2.7,0.2l-0.7,0.1
							l-1.4,0.4l-0.1,0.1H109v0.1h-0.1l-0.2,0.1l0.1-0.1l-1.4,0.4l-0.1,0l0,0l-2.1,0.6l-0.3,0.1h0v0.1l-0.3,0.1h-0.1l0,0h-0.1
							l-3.4,1.2l-0.1,0.1h-0.1l-0.2,0l-0.4,0.2c-0.2-0.1-0.4-0.1-0.6-0.1c-0.3,0-0.5,0.1-0.7,0.1c0.1,0,0.2,0.1,0.2,0.1
							c0,0.1-0.1,0.1-0.2,0.1c-0.4,0.1-0.6,0.2-0.6,0.3c0,0.1-0.2,0.2-0.5,0.4l-1.5,0.6l-0.5,0.1l-0.3,0.1h-0.1l-1.5,0.4l-0.3,0.1
							l-0.7,0.2l-0.2,0.1l-0.2,0.1h-0.1l-0.2,0.1h-0.1l0,0.1l-0.2,0.1l-0.3,0.1l0,0.1h-0.1l-0.1,0.1l-0.1,0.1l-0.1,0.1h-0.1
							l-0.2,0.1l-0.1,0.1h0l-0.1,0.1l-0.4,0.3l-0.1,0l-0.1,0.1l-0.2,0.1l-0.1,0.1l-0.2,0.1l-0.2,0.3l-0.4,0.4l-0.2,0.2l-0.1,0.1
							l0,0.1l-0.3,0.3l-0.1,0.2l-0.7,1.1l-0.1,0.1l-0.1,0.5l-0.1,0.4l-0.5,1.4c-0.1,0.2-0.2,0.4-0.2,0.6v0.1
							c-0.2-0.1-0.4-0.1-0.4-0.1l-0.1-2.4l0,2.6l0.1,0.4l0,0.4h0.1v0.4l0.1,1.1l-0.4-2.2l0.3,2.8l0.1,0.4c0,0,0,0.1,0,0.1
							c0,0.4,0.1,0.8,0.2,1.2c0,0,0,0-0.1,0.1l-0.1,0.1v0.3l0.1,0.5l0.7,1.9c0.3,0.7,0.5,1.3,0.6,1.6c0.1,0.2,0.1,0.3,0.1,0.3h0
							l0.3,1.1l2.2,4.3l0.3,0.9l0.2,1.1l-0.2-0.3l0.2,0.9l0.1,0.3l0.2,0.9c0.3,0.9,0.4,1.7,0.6,2.6c0-0.2,0-0.4,0.1-0.5
							c0.1-0.1,0.2,0.2,0.3,0.7l0.1,0.8v0.3l0.2,1.3l0.1,2.5l0.4,1.5l-0.1,4l0,0.3v0.3l-0.7,4.1l-0.1,0.3l-0.3,1.4l-0.1,0.3v0.1
							l-0.1,0.1L85.9,287l-5.4,10.9l-0.3,0.5l-0.1,0.1l-0.1,0.1l-0.1,0.2l-0.7,1.1l-0.1,0v0.1l-0.8,1.1l0.2-0.3l-3,4.5l-0.1,0
							l-0.1,0.1l-1.8,2.3l-2.7,1h-0.1l-0.3,0.1h-0.1l-0.2,0.1l-4.6,1.6l-2,0.4h-0.3l-0.2,0l-1.5,0.1c-1.3,0-2.6-0.2-3.9-0.6
							l-0.3-0.1l-0.3,0l-0.3-0.1l-0.3,0l-1-0.4l-0.3-0.1h-0.1v-0.1l-0.8-0.3l-3.5-1.6l0-0.1h0l-0.2,0l-1.5-0.8
							c-1.2-0.6-2.3-1.3-3.3-2l-0.3-0.2l-0.2-0.1l-0.1-0.1l-0.1-0.1h0v-0.1l-0.1,0l0-0.1h-0.1v0l0,0l-0.2-0.2l0,0v0h0l-1-1l-0.7-1.1
							l-0.1-0.1l-0.1-0.2v-0.1l-0.1-0.1l-0.1-0.1l0-0.1l-0.2-0.3l-0.7-1.3c-0.3-0.5-0.5-0.9-0.6-1.3l0.1,0.3v0.2
							c0.1,0.1,0,0.2,0,0.2c-0.1,0-0.1-0.1-0.2-0.2l-0.3-0.4l-1-2.3l-0.3-0.6l-0.2-0.2l-0.5-1.1c0,0.1,0,0.2,0,0.2l-0.2-0.4l0.1,0.2
							c0-0.2-0.1-0.4-0.1-0.5l0-0.1v-0.1l0-0.3v-0.3l0-0.3l0.1-2.4l0.7-3.1l0-0.1v-0.1l0.2-0.5l0.1-0.3l0.5-1.7
							c0.2-0.6,0.6-1.5,1.1-2.8l1.3-3l0.2-0.4l1.3-3c1-2.7,1.8-5,2.3-6.9c0.6-2.2,1-4.5,1.3-6.7l0.5-4.6l0-0.1l0-2.8l0-0.3l-0.1-2.1
							l-1.3-6.3c-0.4-2.1-1-4.1-1.6-6l0.2,0.4l-4-12.7l-0.1,0l0-0.3l-4.9-15.2l0.1,0.6l-0.3-0.9l-0.5-2.3l0-1.4l-0.1-0.2v-0.2
							l-0.1-0.9c-0.1,0.1-0.2,0.1-0.3-0.2l-0.5-1.1l-0.6-2.6l0.1,0.1l-0.9-4.9V197l-0.3-1.6v-0.3l-0.2-1.8l0.3,0.1l0-0.4l-0.2-6.8
							l1.9-17.9l1-3.4l0-0.5l-0.8-1.1c0,0-0.1-0.1-0.1-0.1l0.5-2c-0.2-0.2-0.4-0.4-0.7-0.6v0.1l-0.6,0.1l-0.1,0.1h-0.5l-0.3-0.1
							c-0.3,0-0.6,0-0.9,0.1c-0.1-0.1,0-0.1,0.2-0.2l0.7-0.3l1.1-0.2c0,0,0,0,0-0.1l-1.7,0.2l-0.5,0.3c-0.4,0-0.6,0-0.6-0.1
							c0-0.1-0.3-0.1-0.9-0.1l-3.6,1.2v-0.1l-2,0.6l-4.1,1.8l-1,0.3l0.3-0.2l-0.4,0.1l-4,1.8c0.3-0.1,0.5-0.1,0.5-0.1
							c0.1,0.1-0.1,0.2-0.5,0.4l-4.6,2.3l-1.1,1.1l-3,2.1c-1.2,0.8-2.5,2-4,3.4c-1.4,1.3-2.9,2.8-4.4,4.5l-4,5.2
							c-1.1,1.5-2.3,3-3.5,4.5l-0.2,0.3l-0.3,0.3l-0.4,0.5l-2.5,2.8c-0.9,0.9-1.9,1.8-3,2.7c-0.6,0.4-1.3,0.9-2.1,1.4l0.1-0.1
							l-0.3,0.2l-0.1,0.1l-0.1,0.1l-0.1,0.1l-0.1,0.1h0l-0.3,0.1c-0.4,0.2-0.8,0.4-1.1,0.4l-0.1,0.1h-0.1l-0.1,0.1h-0.3l-0.1,0.1
							h-0.2l-0.1-0.1h-0.2l-3.8-0.7c-0.8-0.2-1.5-0.4-2-0.6l-1.5-0.6l0-0.1l0-0.1v0.1l-0.1-0.1c0,0-0.1,0-0.1-0.1l0,0l0-0.1l0-0.1
							l-0.2-0.1l-0.7-1.1l-0.2-0.3l-0.5-0.9l-0.1-0.2l-2.3-4.7l-0.1-0.4l-1.1-2.3l-0.1-0.3l-0.1-0.1l-0.8-2.1l-0.7-2.8l0-0.1v-0.1
							l0-0.2l-0.2-1.3l0-1.1l0.1-0.3l0.1-2.2l0-0.1l0.1-0.8c-0.1,0.4-0.2,0.5-0.2,0.4c-0.1-0.1-0.1-0.3,0-0.6l0.3-1.9
							c0-0.2,0-0.4,0-0.4v-0.4l0-0.3l0-0.1l0.2-0.8l0.1-0.3v-0.1l0-0.1v-0.1l0.4-1.1V169l0-0.2l2-5.2c0.5-1.1,1.2-2.5,2-4.2
							c1.1-1.9,1.9-3.4,2.5-4.4l2.2-3.3v0l0-0.1l0.6-0.8l0.1-0.3l1.3-1.6c0.1-0.2,0.3-0.3,0.4-0.4l1.4-1.6l0.2-0.2l0.1-0.2l3.7-3.6
							c0.9-1,1.9-1.9,3.1-2.8l2.6-1.9l0.2-0.1l0.1-0.2h0.1l0.4-0.3l-0.2,0.3l0.8-0.6h0.1l0.1-0.1l19.3-11.1l-0.4,0.2
							c1-0.7,1.8-1.1,2.4-1.4c1-0.4,1.7-0.7,2.1-0.9c-0.2,0,0-0.3,0.7-0.9l1.8-1.3v0.1l6.2-4.3l0.1,0.2l8.8-6.3
							c1.4-1.2,2.3-2,2.7-2.4c1-1,1.9-2,2.6-3.1c0.3-0.4,0.6-0.8,0.8-1.3l0.3-0.3l2.6-3.8l0.1,0.2l1.7-5.6c0.1-0.7,0.2-1,0.3-0.8
							l-0.5,2l-0.1,0.3l-0.1,0.3l-0.2,0.7l0.2-0.7l0,0.1l-0.4,1.7l1.1-3.4c0-0.2,0-0.2-0.1,0l-0.3,0.8l0.2-0.6l0.9-5.3
							c0.2-1,0.3-1.6,0.5-1.7c0.1-0.1,0.1-0.2,0.2-0.4l0.1-0.3V88l0-0.2l0.5-15.2c0-4.6-0.2-9.2-0.5-13.7l-0.7-10l-0.1-0.3
							l-0.1-12.7c0-1.1,0-2.1,0.1-3.2c0.1-0.3,0.1-0.3,0.1,0v0.6l0.1-1.8l0-0.2v-0.2l0.2-1.3c0.1-1.1,0.3-2.2,0.6-3.4l0.1-0.3
							l0.2-0.7v-0.1l0.1-0.1v0l0.1-0.5v-0.2l0,0l1.4-4.5l0.3-0.7l0.7-1.1l3-6.8l0.1-0.1l0.1-0.3l1.1-1.9c0.4-0.8,0.8-1.5,1.2-2
							l0-0.1v0l0-0.1l0.5-0.7l0,0V6l0.3-0.4l0.1-0.1l1.5-1.8l0.2-0.2c1-1.1,1.9-2.1,2.8-2.9L60.2-1.8 M203.7,130.4l1.1,1
							c2.1,2,3.9,3.8,5.3,5.5l3.1,3.8c0-0.1-0.2-0.4-0.5-0.9l-0.2-0.3l-0.1-0.3c-0.1-0.1-0.1-0.3-0.1-0.5l0.5,0.5l0.3,0.4
							c0.2,0.3,0.4,0.5,0.5,0.6c0,0.1,0,0.2,0,0.3l0.1,0.4l0.8,1.5c0.1,0.3,0.2,0.5,0.2,0.8l0.4,0l0.1,0.6l0.8,1.1l0.1,0.1l0.1,0v0
							c0,0,0,0.1,0,0.1l0.1,0.2l0.5,0.8v0.1l0.1,0.1l0.1,0.3l2.3,4.8l0.3,0.8c0-0.1,0-0.2,0-0.3c0.1-0.1,0.1-0.1,0.3,0.2
							c0,0-0.1,0.1-0.1,0.3l0.2,0.5c0.2,0.6,0.3,0.9,0.2,1l0.4,1.3c0.1,0.6,0.3,0.7,0.4,0.3l-0.1,1c0,0.4-0.1,0.5-0.2,0.1l0.1,0.4
							v0.4l0.1,0.6l0.1-0.7l0.1,3.1l0.1,0.4l0.1,0.4l0.1-0.3l0.1-0.4c0,0.4,0,0.9-0.1,1.4v0.1l-0.1,0.2l0,0.3l-0.2,0.2l-0.1,0.1
							l-0.1-0.2v-0.6l-0.1,0.1v0.6l-0.1,0.1v0.3l-0.1,0.2l-0.3,2l0.2-0.4l-0.2,0.8l-0.1,0.3l-0.1,0.3l-0.1,0.1v0.1l-0.1,0.1
							l-0.1,0.4L219,168c-0.2,0.3-0.6,0.8-1.1,1.5l-2.9,2.7l-0.2,0.1l-0.6,0.5l-0.1,0.1l-0.5,0.3l0,0h0.1l-0.1,0.1v-0.1l-0.5,0.4
							l0.5-0.1l0.1-0.1h0.1l-0.1,0.1l0.3-0.1l-0.1,0.1h-0.1l-0.1,0.1l-0.4,0.3l-0.1,0.1l0,0.1l-0.1,0l-0.1,0.1l-0.1,0.1l0.1-0.2
							v-0.6l0-0.1v-0.1l0.2-0.2l-0.2,0.1h-0.1v0.1h-0.1l-0.3,0.1l-0.1,0.1h-0.1l-0.1,0.1l-0.2,0.1l-0.2,0.1l-0.2,0.1l-0.2,0.1
							l-0.3,0l-0.1,0.1L211,174l-1.4,0.3h-0.3l-0.4,0.1l-1.6-0.2h-0.2l-0.2,0h-0.1l-1.1-0.3l-0.2-0.1c-0.5-0.1-1-0.3-1.5-0.6
							l-1.6-0.8l-1.4-1c-0.6-0.4-1.5-1.2-2.7-2.2l-1.9-1.8h-0.1v-0.1l-0.1-0.2l-2-1.8c-0.5-0.5-0.6-0.7-0.4-0.7l0.5,0.1l-0.5-0.4
							l-0.7-0.3c-0.2,0-0.5-0.2-0.9-0.6c-0.3-0.3-0.2-0.3,0.4-0.1l-0.8-0.5c-0.2-0.2-0.4-0.2-0.4-0.2c0.3,0.2,0.4,0.4,0.4,0.6
							c0,0.3-0.1,0.5-0.1,0.5l-1.7-1.2l0.2-0.1l-1.4-0.4l-0.5-0.2l-1.1-0.6c-1.4-0.9-3-1.7-4.7-2.5l-0.6-0.3l-0.3-0.2l-3.9-1.6
							c0.1-0.1,0.6-0.1,1.5,0.2l-1.4-0.6c0.2,0.2,0.1,0.2-0.4,0.1l-0.4-0.1c-0.7,0-2-0.3-4-0.8c-0.7-0.2-1.2-0.3-1.8-0.4l0.2-2.8
							l0.1,0.6l0.1-0.4v-0.3l0.1,0l0-1.3c0.1-0.8,0.1-1.7,0-2.7v-0.7l0-0.4v-0.7l-0.1-0.1l-0.4-3.9c0.1,0.6,0.1,0.9,0,0.9
							c-0.1,0.1-0.2-0.4-0.3-1.4l-1.3-5.8c-0.3-1.1-0.8-2.7-1.4-4.7l-0.9-1.7l-0.1-0.1l0-0.1v-0.1H167v-0.1l-0.4-0.7
							c-0.7-1.7-1.7-3.6-2.8-5.8l-2.1-3.8c-0.4-0.8-0.8-1.5-1.2-2l-4.9-7.2l-0.1,0l-0.1-0.3l-0.9-1.2c0.4,0.2,0.7,0.4,1.1,0.6
							c1.8,1,3.8,1.8,5.8,2.6c1.1,0.4,2.1,0.8,2.9,1l1.5,0.5l0.4,0.2l1.1,0.3c0.1,0.1,0.1,0.1,0,0.1c-0.1,0-0.2,0-0.3,0l6.3,1.6
							c0.2,0.1,0.5,0.3,0.8,0.6c-0.2-0.2,1.6,0.3,5.4,1.6l5.6,2l0.3-0.3c0.7,0.3,1.1,0.5,1.3,0.7c0.1,0.1,0.1,0.2,0.2,0.3l0.9,0.4
							c0.2,0,0.5,0,0.9,0.1l2.6,1.3l0.4,0.1c0.6,0.3,0.8,0.5,0.7,0.6c0.2,0,0.4,0,0.7,0.2l0.8,0.4c0.1,0,0.1,0,0.1,0
							c-0.1-0.1-0.2-0.2-0.3-0.3l1.3,0.5c0.2,0.2,0.3,0.3,0.3,0.4c0,0.1-0.1,0-0.4-0.1l6.1,4l0.2,0.2l0.1,0.1l1,0.9l0.1,0.1l0.1,0.1
							l0.7,0.7L203.7,130.4 M167.3,177.2l0.1-0.6c0.1,0,0.1,0.1,0.1,0.4l-0.1,0.6L167.3,177.2 M131.6,232.8h0.4l-0.7,0.3l0.1-0.1v0
							L131.6,232.8L131.6,232.8z"/>
					</g>
				</g>
			</g>
		</g>
	</g>
</g>
</svg>
