<?xml version="1.0" encoding="utf-8"?>
<!-- Generator: Adobe Illustrator 24.1.2, SVG Export Plug-In . SVG Version: 6.00 Build 0)  -->
<svg version="1.1" id="Layer_1" xmlns="http://www.w3.org/2000/svg" xmlns:xlink="http://www.w3.org/1999/xlink" x="0px" y="0px"
	 viewBox="0 0 256 256" style="enable-background:new 0 0 256 256;" xml:space="preserve">
<style type="text/css">
	.st0{fill:#FFFFFF;}
</style>
<g id="jump5">
	<g transform="matrix( 0.6996917724609375, 0, 0, 0.6996917724609375, 57.25,20.7) ">
		<g id="jump">
			<g transform="matrix( 1, 0, 0, 1, 0,0) ">
				<g>
					<g id="jump_4_Layer0_0_FILL">
						<path class="st0" d="M45.9-4.7c-0.8,0.9-1.7,2-2.8,3.3L40,3.2l-0.1,0.3L39.6,4l-0.1,0.2l0,0.2l-0.1,0.1l-0.3,0.4l-0.3,0.7
							l-0.1,0.1l0,0.1c-1.2,2.2-2.2,4.5-3.2,6.7c-0.8,1.8-1.5,3.7-2.2,5.8l-0.8,3l0,0.3l-0.1,0.3l-0.5,2.4l0,0.4l-0.6,2.8L31,27.7
							l-0.2,1l0,0.1V29l-0.1,0.8l-0.1,0.3v0.3l0,0.2l-0.2,1.6c0.1-0.1,0.2,0,0.3,0.5l0.1,0.4l0.2,6.1l-0.1-0.1l1.2,15.3l-0.3-0.2
							l0.8,7.9L33,95l0,0.3l0,0.2v0.2l-0.3,1.6l-0.5,0.6l-0.1,0l-0.2,0.7l-0.2,0.3l0.1-0.3l-0.3,0.3c0,0,0,0,0,0l0.1-0.5l-0.4,0.7
							l-0.1,0.2c0,0.1,0,0.1,0,0.1l0.2-0.2l-0.4,0.8l-0.6,0.9l-0.3,0.2l-0.1,0.2h-0.1l-0.2,0l-4.5,3.6l-0.6,0.4
							c-1.2,0.9-3,2-5.3,3.3l-11.7,6c-0.1,0,0-0.1,0.2-0.3l-6.7,3.7c-0.3,0.1-0.7,0.2-1,0.2c0.2,0-1.8,1.1-5.9,3.3l-6.4,3.4l0.1,0.4
							c-0.8,0.4-1.3,0.6-1.6,0.6c-0.2,0-0.7,0.2-1.4,0.7l-0.3,0.3h-0.1l0,0.1l-0.1,0l-0.1,0.1l-2.1,1.1l-0.2,0.1l-0.9,0.5
							c-0.5,0.3-0.8,0.5-0.9,0.7c0-0.1-0.2,0-0.5,0.3c-0.4,0.2-0.6,0.3-0.6,0.2c-0.1,0.2-0.3,0.4-0.7,0.6l-1.1,0.8
							c-0.1,0.2,0,0.1,0.5-0.1l-0.4,0.3l-1.1,1c-0.3,0.2-0.5,0.3-0.6,0.3c-0.1,0,0-0.2,0.3-0.5l-5.2,4.7c-0.9,0.9-2.1,2.2-3.4,3.8
							l-2.3,2.9l-0.3,0.3l-0.8,1.1c-1,1.5-2,3-2.9,4.5c-1.1,1.8-1.9,3.3-2.4,4.4l-0.5,1l-0.2,0.2l-2.3,5.1c0.1-0.2,0.4-0.6,0.8-1.3
							c0.3-0.7,0.6-1.1,0.9-1.3l-0.2,0.5l-0.5,1.1l-0.1,0.3l-0.1,0.3l-0.1,0.5c-0.1,0-0.3,0.2-0.5,0.6l-0.5,1.1l-0.1,0.3l-0.1,0.1
							v0.1l0,0.1l-0.2,0.3l0,0.2l0,0l-0.4,0.6l-0.1,0.1l0,0.1l-0.2,0.2l0.1,0.5l-0.4,0.7l-1.2,5.5l-0.3,2.8l0.2,3.6
							c0.2,1.4,0.3,2.3,0.3,2.7c0-0.1,0.1-0.1,0.1-0.2c0-0.4,0.1-0.2,0.2,0.4l0,0.4l0.5,1.8c0.1,0.3,0.1,0.5,0,0.6l0.5,1.5l0,0.3
							l0.5,1c0.1,0.1,0.2,0.1,0.2-0.1l0.3,1.5c0.2,0.6,0.1,0.6-0.2,0.1l0.3,1.1l0.1,0.2l0.3,0.6l-0.1-0.5l-0.1-0.2v-0.1l1.3,3.5
							l0.5,1.1l0.4,0.6l-0.2-0.4l-0.1-0.5l0.8,1.9l0.1,0.4l0.2,0.4l0,0.3v0.3l-0.8-1.4l1.2,2.4l0.8,1.3l0.1,0.2l0.8,1.2l0.1,0.1
							l0.1,0.1l0.1,0.2l0.2,0.2v0.1l0.5,0.6l-0.3-0.5l-0.2-0.1v-0.1l-0.1-0.3l0.1,0.2l0.5,0.5l0.1,0.2l0.5,0.5l0.1,0.1l0,0.1h0
							l0,0.1l0,0.1l0.2,0.1l0.2,0.3l0.1,0.1l0,0.1l0.1,0.1l0.1,0.2l0.6,0.4l0.2,0.1l0.2,0.1l1.7,0.9c1,0.5,2.1,0.9,3.3,1.3
							c0.7,0.2,1.8,0.5,3.4,0.9l3.5,0.6h0.1l0,0.1h0.3l0.2,0.1l1.3,0.1l0.1,0.1h0l0.2-0.1l1.5-0.1l2.4-0.6l0.3-0.1l0.3-0.2
							c0.6-0.2,1.1-0.4,1.7-0.8l-1.5,0.2l2.2-1.2c-0.1,0.1-0.2,0.3-0.4,0.8l-0.3,0.4c-0.1,0.1-0.1,0.1-0.1,0.2l3.1-1.6l0.4-0.3
							l0.1-0.1l2.7-1.9c1.3-1,2.6-2.1,3.9-3.4c1.1-1.1,2.4-2.4,3.7-3.9c1.3-1.4,2.4-2.8,3.3-4.1l1.8-2.3l0.6-0.7l0.1-0.2l3.3-3.4
							l0.7-0.6l0.4-0.3l0.2-0.1c0.1,0,0.2,0,0.2,0.1l-0.2,0.5l0.2-0.3l0.2-0.1l0.4-0.6c0-0.1,0.3-0.4,0.8-0.8
							c0.3-0.2,0.3-0.1-0.1,0.4l0.7-0.5c0.2-0.1,0.3-0.3,0.3-0.4c-0.3,0.2-0.5,0.2-0.7,0.1c-0.2-0.1-0.4-0.2-0.4-0.2l1.2-0.9
							l0.4-0.3l0.1,0.3c0.2-0.3,0.4-0.6,0.6-0.9l1.3-1.2l0.3-0.1c1.6-0.9,3.1-1.8,4.5-2.4c1.8-0.8,3.4-1.5,4.8-2.1l-0.1,0.1
							l-1.2,0.7l0.8-0.3l0.6-0.1l-1.4,7.3c-0.3,2.8-0.6,5.8-0.6,9.1l0.1,7.1l0,0.3l0.1,1.7c0.3,3.1,0.7,6.1,1.2,9.2
							c0,0.1-0.1,0-0.2-0.3l2.1,8.8l0.4,1.2c0.1,0.5,0.1,1.1,0,1.6c0,0,0.1,0.2,0.3,0.6l3.5,9.7l0.4,1l0,0c0,0,0,0,0.1,0l0.8,1.8
							l0.1,0.4l1.3,3.6l0.6,0l0.5,1.5c0,0.2,0,0.4,0,0.6l0.2,1l0.3,0.9c0.2,0.2,0.4,0.5,0.7,1.1l1,3.4c0.1,0.5,0.2,0.8,0.4,1.1
							l0,0.2l0.1,0.4c0.1,0.5,0,0.7-0.1,0.7c0.1,0,0.2,0.2,0.3,0.4l0.4,1.8c0.1,0.2,0.2,0,0.2-0.5l0.5,1.9v0.5l-0.1,0.2l-0.1-0.1
							l-0.1-0.1l-0.1-0.3l0.4,4.8l-0.1,1.4c-0.1,1.4-0.4,3-0.8,4.6c-0.4,1.6-0.9,3.3-1.6,5.3c-0.6,1.8-1.4,3.6-2.2,5.3l-2,4.3
							l-2.4,7.2l-0.7,3.8c0.1-0.1,0.3-0.9,0.6-2.2l0.4-1.2c0.1-0.3,0.3-0.6,0.5-0.8l-0.1,0.3l-0.1,0.4l-0.2,1.1l-0.1,0.5
							c-0.1,0.8-0.2,1.3-0.2,1.6c-0.3,0.3-0.6,1.3-0.7,2.9l-0.1,0.5v0.3l0,0.3v1.1l0,0.3v0.3l-0.2,1.4l0.5,0.7v0.8l0.1,0.2v0.3
							l0.1,0.3l0,0.3l1.1,2.8l0,0l0.7,1.3l0.1,0.2l3,5.4l5.3,5.8h0v0.1l0.2,0.1l0.4,0.4l-0.5-0.5l-0.1-0.1c0-0.1,0-0.1,0.1-0.1h0.1
							l0,0.1l0.4,0.3l0.1,0.3l0.4,0.3l2,1.4c0.3,0.3,0.5,0.5,0.6,0.6l2.3,1.4c0.5,0.2,0.8,0.3,1,0.3c0.2,0.1,0.2,0,0-0.3
							c0,0,0.5,0.4,1.5,1.1l0.4,0.3l0.1,0.1c0,0-0.2,0-0.6-0.1l2.5,1.2l-1.1-0.7c2.3,1.1,3.6,1.7,3.9,1.8l0.4,0.1v0h0l0.2,0.1h0
							l0.1,0l0.9,0.3l0,0.1h0l0.1,0l1.2,0.3l0.5,0l-1.4-0.6l0.8,0.3h0.1l0.1,0.1l3.2,0.9l0.8,0.4l-2.4-0.3l1,0.2l0.3,0.1l4.8,0.5
							l3.5-0.3h-0.6l-0.3,0.1h-0.3l2.7-0.5l5.3-1.5l0.3-0.1l5.5-2.1l0.7-0.2l0-0.1c0.6,0,1.1-0.1,1.5-0.2c0.3-0.1,0.6-0.2,0.8-0.4
							l0.7-0.4l0.3-0.3l0.2-0.1l0.1-0.1l0.1-0.1l0.1-0.1l0.1-0.1l0-0.1l0.2-0.2l0-0.1l0.2-0.1l0.2-0.3l0.7-1.1l0.1-0.1
							c2.9,1,3.1,0.9,0.8-0.3c0.1-0.3,0.1-0.7,0.2-1.1l0.4-0.6c1.3-2,2.2-3.3,2.5-3.9l-1.2,1l1.3-2.3c0,0.1,0,0.4,0,0.9
							c0,0.4,0,0.6,0,0.8l1.8-2.4l0.2-0.3l0.1-0.1l0.1-0.1l0,0l0.7-0.9l0.2-0.3l0.1-0.1v-0.1l1-1.4l0.3-0.5l0.4-0.6l3.1-5.5
							c1.1-2.2,2.1-4.2,2.9-6.1c1.8-3.9,3.3-7.9,4.8-11.8l2.7-7.7l0.1-0.2l0.1-0.5l0.2-0.3c0.1-0.1,0.1-0.1,0.2,0l0.1,0.8
							c0.2-0.8,0.3-1.5,0.3-2.1c0-0.2,0-0.8,0.2-1.8c0.1-0.3,0.1-0.3,0.2-0.1c0,0.2,0,0.5,0,0.7c0.3-1.4,0.3-2.1,0.3-2.3
							c-0.1,0.6-0.3,0.9-0.5,1l-0.3,0.1c-0.1,0-0.2,0.1-0.3,0.2v-0.2l0-0.2l0.3-2.8l0.3,0.1v-0.3l-0.1-0.4l-0.3-1.6l-0.2-2.7
							c0-2.5-0.4-5.1-1-7.9c-0.6-2.6-1.3-5.1-2.2-7.5c0.1,0,0.2,0.2,0.4,0.6l0.3,0.7l0.1,0.1l0.3,0.6l-0.7-2.2
							c0.1,0.4-0.1,0.3-0.4-0.4c-0.2-0.6-0.3-0.8-0.3-0.6l-0.2-0.4c0,0,0,0,0.1,0.1l0.1-0.4l-0.1-0.4l-0.1,0.2v0.2c0,0,0,0.1,0,0.1
							l-0.3-0.4c0,0,0.1-0.1,0.1-0.1c0,0,0.1,0,0.3,0l-0.1-0.4c0,0,0,0.1,0,0.2c-0.2-0.1-0.3-0.2-0.4-0.3l-0.1-0.2
							c0-0.1,0-0.1,0.1-0.2c0.1-0.1,0.1-0.2,0-0.3l-1.1-2.5c-0.7-1.4-1.1-2.2-1.2-2.3h0.2c-0.4-0.5-0.6-0.9-0.8-1.2v0
							c0.1,0.1,0.2,0.1,0.3,0.1c0.2,0,0.4,0.1,0.5,0.3v-0.4l0.2,0.2l0.6-0.4c0,0,0.2,0,0.6,0c0.2-0.1,0.4-0.2,0.6-0.4
							c0.2-0.2,0.3-0.2,0.5-0.2c0,0,0,0-0.1-0.1c-0.1-0.1-0.1-0.1,0-0.2c0,0.1,0.1,0.1,0.3,0c0.1-0.1,0.2-0.1,0.3,0
							c0.2-0.1,0.3-0.1,0.3-0.1c0.1-0.1,0.2-0.2,0.1-0.4c0,0,0.2,0.1,0.3,0.2c0.1,0.1,0.1,0.2,0,0.3l0.3,0h0.2l0.1-0.1l-0.1-0.1
							h-0.2l0.1-0.1h0.1l0.2,0h0.3c0.2,0,0.3-0.1,0.4-0.3l-0.3-0.1c0.4-0.1,0.6-0.1,0.7,0.2l-0.3,0.2c0.5-0.2,0.9-0.4,1.2-0.6h-0.2
							c0.1-0.2,0.7-0.5,1.8-1.1c1-0.6,1.6-0.9,1.7-1.1l-0.3-0.3l0.4-0.4c0,0.6,0,0.9,0,1l0.5-0.1l0.1,0l0.1-0.1h0l0.2-0.1h0.1v-0.1
							h0.2l0-0.1h0.2l0.2,0h0.1l0.2-0.1h0.8l0.4,0.1l0,0h0.1l0.1,0.1h0.1l0,0.1v0.1h0.1l0.1,0.1h0.1v0c0.1,0.1,0.1,0.3-0.2,0.6h0.3
							l0-0.1h0.1l0.1,0c0.2,0,0.4,0,0.5,0c0.1,0.1,0,0.2-0.2,0.3l0.3,0.1c0.1,0,0.2,0,0.2-0.1c-0.1-0.1-0.2-0.2-0.2-0.4
							c0-0.3,0.1-0.4,0.1-0.5l0.7,0.2l-0.1,0.3l0.5-0.4l0.2-0.1c0.1,0,0.2,0,0.4,0.1l0.6,0.1h0.2l0.8,0.1h0.2l1,0.3
							c0,0.1-0.1,0.1-0.2,0.1c0.2,0,0.3,0,0.4,0.1c-0.1-0.1-0.1-0.1,0-0.2l1.2,0.4h-0.3l4,1.3l0.3,0.1l-0.3-0.2l-0.1-0.1l0.1-0.1
							l0.5,0.1l0.6,0.3l1.8,0.7l0.3,0.1l0.7,0.4l0.1,0.1l0.4,0.3l0.5,0l0.3,0.1l0.1,0.1h0.1l0.1,0.1l0.2,0.1l0,0.1h0.1v0.1l0.1,0.1
							h0.1v0l0.1,0.1l0.1,0.1l0,0l0.2,0.2l0.1,0.2l0.4,0.4l0.9,1.2c0.2,0.3,0.7,0.9,1.3,1.9l1.3,2.3l0.2,0.3l2.6,6.3l0.1,0.2v0
							l0.1,0.1l0.1,0.1l0.4,1.6c0.6,1.9,1.1,3.9,1.4,5.9c0.3,1.9,0.4,3.8,0.5,5.7l-0.1,4.1l-0.1,0.3l-0.3,4l-0.1-0.3l0,0.5v0.3
							l-0.5,3.5l0,1.4c0,1.1,0.1,2.5,0.3,4c0.2,1.5,0.6,2.9,1.1,4.3c0.5,1.4,1.3,2.8,2.2,4.1c0.9,1.3,1.9,2.5,3.1,3.5
							c1.1,1,2.3,1.9,3.6,2.8c1,0.7,2.3,1.4,3.8,2.1l2.1,0.9l0.3,0l3.2,1.1l0.1,0h0.1l0.1,0.1l0.3,0l0.4,0.1l4.7,1.1
							c1.2,0.2,2.5,0.3,3.9,0.4l2,0c0.2,0,0.5,0,0.9,0l1-0.1c1.4-0.2,2.6-0.4,3.8-0.8l1.6-0.5l0.2-0.1l1.7-0.7
							c1.1-0.6,2.1-1.2,2.9-1.8l1.6-1l2-1.6l2.9-3.4l-0.6,0.6c-0.1,0.1-0.2,0.1-0.2,0l0.2-0.5l0.6-0.9l0.1-0.1l0.1,0l1.1-2
							c0.2-0.3,0.3-0.5,0.3-0.6c0,0,0-0.2,0.1-0.5l3-5.8c1-2,1.7-3.5,2.1-4.6c0.7-1.5,1.5-3.4,2.4-5.6l1.1-3.1l0.1-0.2l0.1-0.2
							l0.9-2.8l0.1-0.1l0.3-0.8l1.4-5.6c0.5-2.4,0.9-4.4,1.1-6c0.2-1.6,0.4-3.3,0.5-5.1l0.1-3.6l-0.1-0.4v-0.3l-0.1-1v-0.3l-0.1-0.2
							l-0.6-4c-0.4-2.4-0.9-4.4-1.5-5.9l0.2,0.3l-2-5.4l-3.4-7.1l-0.1-0.1v-0.1l-0.1-0.1l-0.7-1.2l-0.1-0.1l-0.1-0.1l-0.1-0.1
							l-4.5-6.7c-1.4-1.9-2.7-3.5-3.8-4.6l0.4,0.5l-4-4.9c0,0.1-0.2,0.1-0.4,0c-0.4-0.3-0.8-0.5-0.9-0.6l-2.1-1.7l0.1,0l-2.8-2.2
							l-0.2-0.1l-0.1-0.1h0l-1.4-1l-0.1-0.1h-0.1l0-0.1l-0.4-0.3l-0.1-0.1l-0.1-0.1l-0.6-0.4l-0.8-0.8l0.3-0.1l-0.2-0.2l-0.1-0.1
							l-0.4-0.3l-0.6-0.7l-1.3-1.7c-0.5-0.7-1.1-1.7-1.8-3.1l-0.8-2l-0.1-0.4l-0.3-0.8l-0.4-1.6v-0.1l0.1-0.3l0-0.9l-0.3-0.2
							l0.1-1.4l0.3-0.8l0.3-1.5c0.1,0,0.1,0.1,0.1,0.4l-0.4,4.3l0.4-2.8c0.2-1.2,0.3-1.9,0.2-2.2l0.3-0.9c0-0.1,0.1-0.1,0.2-0.1
							c0.1,0.1,0.1,0,0.1-0.1l0.1-0.4l0.2-0.8l0.4-3.5c0.3-1.7,0.5-2.8,0.6-3.4l0.1,0.1v0.1l0.8,0.2l1.9,0.2h0.6l1.3,0.2l0.6,0.3
							l-0.2,0.1l0.3,0.1l0.7,0.2l0.4,0.1l1.3,0.4l0.3,0.1c-0.1-0.1-0.2-0.1-0.2-0.2c0-0.1,0.2-0.1,0.4-0.1l2.4,1l0.7,0.4l1,0.1
							l1.8,0.8l0.3,0.2c0.8,0.4,1.8,0.9,2.9,1.7l1.5,1.1l0.4,0.3l0.1,0.1v0.1h0l0.5,0.4l0.1,0.1l0.1,0.1v0l2.9,2.3
							c1,0.7,1.9,1.3,2.7,1.8c1,0.6,2,1.1,2.9,1.6c1.2,0.6,2.3,1,3.1,1.3c1.5,0.4,2.6,0.7,3.3,0.8l3.3,0.3c1.3,0,2.3-0.1,2.9-0.2
							c0.9-0.1,1.8-0.3,2.6-0.4c0.3-0.1,1-0.3,2.1-0.6l0.8-0.3l0.1-0.1h0.1l0-0.1l0.2-0.1l0.3-0.1l-0.3,0.1l0.6-0.3h0.1l0.1-0.1
							l0.6-0.3h0.1l0.1-0.1h0l0.1-0.1l3.6-2.1l1.1-0.8c0.8-0.6,1.6-1.2,2.2-1.8c0.7-0.6,1.4-1.4,2.1-2.3c0.7-0.8,1.4-1.7,1.9-2.7
							c0.5-0.8,1-1.8,1.6-3.1c0.5-1.2,0.8-2.2,1-3.2l0.4-1.6v-0.2l0.1-0.2l0-0.4v-0.2l0.1-0.2l0.1-0.9l0.1-0.3l-0.1-4.4l-0.7-4.8
							l-0.3-1.3l-0.1-0.3l0-0.3l-2.9-8.3l-0.1-0.1l0-0.2l-1.1-2.2c0.2,0.4,0.2,0.6,0.1,0.6c-0.1,0-0.2-0.2-0.4-0.6l-0.3-0.6
							l-0.1-0.2l-0.6-1.1v0h-0.1v-0.1l-0.1-0.1l-0.1-0.2l-0.1-0.1l-0.3-0.3l-4.3-5.9l-0.2-0.2l-0.8-1c-1.5-1.7-2.5-2.8-3.1-3.4
							l-1.7-1.8l-7.8-6.5l-0.1,0h-0.1v-0.1h0l-1.3-0.9c-0.9-0.6-2-1.3-3.3-2l-2.2-1.3c-1-0.3-2.3-0.9-3.9-1.7
							c-1.8-0.7-3.1-1.2-3.9-1.4h0.3l-15.9-5.1l-4.1-0.9l0.4,0.1l-2.2-0.5l-0.1-0.1l-1.3-0.5h-0.1v-0.1h-0.1l-0.4-0.1
							c0,0.1-0.1,0.2-0.3,0.3l-1.8-0.1l-0.8-0.1l0.1-0.1l-5.9-1.3l0.1-0.2l-2.9-1l-2.4-1.2l-1.7-1.2c-0.7-0.5-1.2-1-1.7-1.4
							l-1.4-1.7l-0.1-0.3l0.2-0.2l0.1-0.2l0.3-0.3l0.1-0.1l0.1-0.1c0.4-0.4,0.8-0.7,1.3-1c0.6-0.4,1.2-0.6,1.6-0.8l0.5-0.2l0.3,0
							l0.5-0.2l0.3,0l0.1-0.1h0.1l0.3-0.1l0.1,0h0.1v-0.1l0.4,0l0.3-0.1l-0.1,0.1h0.1l0.2-0.1l0.8-0.1h0.3l8.9-0.8l0.1-0.1l2.7-0.2
							c3-0.2,5.5-0.5,7.5-0.9l-0.3,0.1l0.5-0.1l0.3-0.1l0.4,0h0.1l0.1-0.1l0.2-0.1l0.4,0l0.1-0.1h0l0.2,0l0.3-0.1l0.1-0.1h0l0.1,0
							l1.5-0.5l0.1-0.1l0.6-0.2c1.3-0.6,2.3-1,2.8-1.3c1.1-0.6,2.1-1.3,2.9-1.9c1-0.8,1.9-1.7,2.6-2.6l0.1-0.2l0.1-0.1l0.1-0.1
							l0.5-0.7l0.1-0.1v-0.1l0.5-0.7l0.4-0.7l0.1-0.2l0.2-0.4c0.7-1.2,1.2-2.5,1.5-3.7c0.4-1.3,0.6-2.6,0.7-3.8
							c0.1-1.3,0.1-2.6,0-3.8l-0.1-0.2v-0.3l-0.1-0.8v-0.2l-0.1-0.3l-0.3-1.8c-0.5-2.3-1.3-4.5-2.3-6.8c-0.6-1.2-1.1-2.2-1.7-3.1
							l-0.4-0.8l-0.2-0.2l-0.1-0.2l-0.3-0.5l-0.1-0.1l0-0.1l-0.1,0l-0.3-0.4l-0.6-0.7c-0.6-0.8-1.3-1.6-2.1-2.5l-5.1-5.5l-0.1-0.2
							l-2.9-3.1c-0.8-0.9-1.4-1.6-1.8-2l-0.9-1l-0.1-0.2l-0.1-0.1l-0.4-0.5l-0.1-0.1l-0.1-0.1L175,36l-0.1-0.1l-0.2-0.3l-0.1-0.2
							l-0.7-0.9l-0.1-0.1l-0.1-0.1c-0.7-1.1-1.5-2.5-2.4-4.2l-3.8-8.6l-0.1-0.3l-1.6-4.3c-0.7-1.8-1.2-3.1-1.7-4.1
							c-0.4-1.5-1.2-3.3-2.2-5.5c-0.8-1.6-1.7-3.4-2.8-5.4l0.4,1c0,0.2,0,0.2,0,0.2c-0.1-0.1-0.4-0.5-0.8-1.2l-2.7-4.2
							c-0.3-0.5-0.5-0.7-0.7-0.8l-0.2-0.2l-0.1-0.2l-0.2-0.1l-0.6-0.8l-0.1-0.2l-0.1,0v-0.1h-0.1L154-4.8c-0.2-0.2-0.3-0.4-0.4-0.5
							l-1-1.2l-6.7-5.9c-1.2-0.9-2.4-1.7-3.6-2.4l-4.3-2.3c-1.8-0.9-3.4-1.6-4.7-2.2l-0.9-0.3l-0.3-0.2l-0.9-0.3l-0.3-0.2l-1.9-0.7
							l-0.3-0.1l-9.2-2.8L107-26.3h-0.4l-1.4-0.2h-0.4l-0.3,0l-8.1-0.1l-0.2,0l-1.9,0.1l-0.2,0l-9.2,1.1c-0.7,0.1-1.3,0.2-1.6,0.3
							l-1.3,0.3l-0.1,0h-0.2l-0.3,0.1L81-24.5l-11,3.8l-5.4,2.5L64.3-18L64-17.9l-0.5,0.3l-1,0.5l0.5-0.4l-8.7,5.3l-0.1,0.1l0,0.1
							l-4.7,3.8l-0.1,0.1l-3.2,3.1L45.9-4.7 M59.1-1l0.1-0.1l0.1-0.1l0.2-0.2l1-0.7v-0.5l0.3-0.2l0.1,0v0L61-3l0.2-0.1l0.1,0l0,0h0
							l0.1-0.1l0.1-0.1l0.1,0l0.8-0.4l0.7-0.3c0.1,0,0.3-0.1,0.6-0.3l1.8-1c0.3-0.3,0.8-0.7,1.5-1.2l0.3-0.1l1.9-0.9l0.1,0l1-0.5
							l0.3-0.1l2.5-1.1l0.7-0.4c1.4-0.5,2.1-0.7,2-0.6c0.1-0.1,0.3-0.3,0.6-0.4l1.1-0.4l0.1-0.1h0.2l1.5-0.5
							c0.1-0.1,0.2-0.1,0.1-0.1h-0.2l-0.7,0.1l3.1-1.1c0.7-0.1,1-0.1,1.1-0.1c0.1,0-0.1,0.1-0.6,0.3l2.2-0.5l0.3-0.1l1.7-0.3
							c2.6-0.5,4.9-0.8,6.8-1l1.9-0.2c0.5,0,0.9,0,1.1-0.1h0.6l0.2,0h3.5c0.5,0,0.9,0,1.1,0h0.9l0.3,0.1l1.4,0.1l0.3,0.1l1.1,0.1
							h0.3l4.9,0.7c3.1,0.5,6.1,1.3,9,2.2l0.5,0.2l0.3,0.1l3.7,1.3h0.1l6.9,3c0.7,0.3,1.6,0.8,2.8,1.5l3.1,1.9l0.4,0.3l0.3,0.2
							l-0.3-0.3l-2.7-1.9l-0.8-0.7l1.9,1l1.1,0.7L138-4c0.1,0.2,0.2,0.4,0.3,0.4l0.9,0.8h0l0.3,0.3l0.1,0.1v0h0.1v0l0.2,0.1l0.1,0.1
							l0.2,0.2l1.4,1.3c0.4,0.5,0.7,0.9,0.9,1.3l0.3,0L143,1l0.1,0.2l0.3,0.4l0.1,0.2l0.3,0.3l0.2,0.3l0.1,0v0.1L144,2.6l0.7,0.8
							l0.1,0.2l0.1,0l0,0.1l2.2,3l6.4,13l0.6,1.7c0-0.1,0-0.2,0-0.3c0-0.3,0.1-0.1,0.3,0.5c0,0,0.1,0.3,0.2,0.8l0.1,0.2v0.1l0.1,0
							l0.1,0.4l0.9,2.2l0.2,0.6l0.1,0.5l1.8,4.3l0.3,0.5c0.2,0.2,0.2,0.2,0.2-0.1c0.1,0.2,0.2,0.6,0.3,1l0.3,0.8l0.1,0.4l0.1,0.4
							c0.2,0.5,0.3,0.8,0.3,0.8c0,0.1-0.1-0.2-0.4-0.8l1.7,3.5l0.3,0.4l-0.8-2l1.8,3.4c0.7,1.2,1.2,2.2,1.6,2.8l0.9,1.4l0.1,0.1h0.1
							l0.1,0l0.1,0.3l0.5,0.6c0.5,0.6,1.1,1.2,1.8,1.9l-1.1-1.7l2.8,3.3c0.8,1,1.4,1.8,1.6,2.3l-2.3-2.3l4.3,4.6v0h0.1l0.1,0.1
							l0.1,0.1l3.8,3.9l-0.2-0.3l-0.7-0.8c0.6,0.5,1.2,1.2,1.9,2l1.6,2l0.1,0.1l0.1,0.1l0.1,0.2l0,0c0,0,0,0-0.1-0.1h0.1l0.1,0.2
							l0.3,0.4l0,0.1l0.9,1.3l1.3,2.4c0.3,0.7,0.6,1.5,0.8,2.2l0.5,2.3v0.3l0.1,0.3v0.3l0.1,0.3v1.5l-0.1,0.2v0.2l-0.1,0.2v0.2
							l-0.1,0.3l-0.1,0.1v0.1c-0.2,0.7-0.4,1.1-0.5,1.4l-0.1,0.2l-0.4,0.6v0.1l0,0v0.1h-0.1v0.1l-0.1,0.1l-0.1,0.1
							c-0.3,0.3-0.6,0.7-1,1l-1,0.8l-1.7,0.9l1.7-0.3c-0.8,0.5-1.7,0.9-2.8,1.3l0-0.1h0.1v0l0.1-0.1l0.3-0.3h0.1v-0.1l0-0.1l0.5-0.7
							l0.3-0.2l-0.4,0.2l-0.1,0h-0.1l-0.4,0.2H177l-0.3,0.1h-0.1l-0.2,0.1v0.1h-0.2l-0.3,0.1l-1.3,0.2h-0.1l-0.2,0.1
							c-0.7,0.1-1.8,0.3-3.2,0.3l-0.9,0.1c-0.4,0-0.8,0-1,0.1l-9.2,0.6c-1.1,0.1-2,0.2-2.6,0.3l-2.2,0.3h0v0.1h-0.2l-0.1,0h-0.2
							l-0.3,0.1h-0.2l-0.1,0h-0.1l-2.7,0.8c-1.1,0.4-2.1,0.8-3.1,1.2c-1.1,0.5-2.1,1.1-2.9,1.8l-1.1,0.8l-0.2,0.1l-1.2,1.2l0,0.1
							H143l-0.2,0.2l-0.1,0.2l-0.4,0.4v0.1l-0.3,0.3l-2.2,3.2c-0.4,0.8-0.7,1.4-0.8,1.7c-0.5,1.2-0.9,2.3-1.2,3.4
							c-0.2,1.2-0.3,2.4-0.3,3.6l0.3,2.5l0,0.1v0.2l0.1,0.2l0.1,0.3l0.1,0.2v0.2l1.3,4.1l0.1,0.3l0.2,0.6c0.6,1.3,1.3,2.6,2.1,4.1
							l5.3,8.2l0.2,0.5c0.1,0.2,0,0.2-0.1,0.1l-0.7-0.5l-0.1-0.1l2.1,2.6l0.9,1.3c0.3,0.4,0.3,0.5,0,0.3l-0.6-0.7l0.3,0.5l0.3,0.4
							l0.4,0.8c0.3,0.5,0.5,0.8,0.6,0.8l-0.4-0.9c0-0.2,0-0.3,0-0.4c0.1-0.3,0.2-0.5,0.2-0.7l2.1,3.7l-0.3,0
							c0.2,0.3,0.6,0.8,1.3,1.6l1.4,2l1.6,3.4l0.1,0.2v0.1l1.3,3c0.7,1.8,1.2,3.5,1.5,4.9c0.4,1.5,0.6,3.2,0.8,4.9l0.1,2.9l-0.1,0.2
							v0.8l-0.1,0.1l-0.1,1c0,0-0.1-0.4-0.1-1.1l-0.1-1.8v1l0,0.4v0.3l-0.2,1.3l0.1-0.3l0.1-0.1c0,0,0.1,0,0.1,0.1l0,0.2l-0.1,1.8
							c0,0.4,0,0.4,0.1-0.1c0,1.2,0,2.6-0.1,4.2l-0.9,10.2l-0.1,0.1l-0.2,0.2l-0.5,1.3l-0.2,1l-0.2-0.1l0.1,3.4
							c0.1,0.4,0.1,0.6-0.1,0.6l-0.1-1.8v0.3c0,0.1-0.1,0.1-0.1,0l-0.2-1l0,2.1c0,0.1,0,0.1,0-0.1v-0.3l0.1-0.3l0.3,2.6l0.1,0.3
							l0.1,1.5c0,0.1,0,0.2-0.1,0.2l-0.1,0.3l0.1,1c0,0.2,0.1,0.6,0.1,1.1l1.3,5.9l0.6,1.6c0.5,1.5,1.1,2.9,1.8,4.2
							c0.8,1.5,1.6,2.9,2.4,4.1l0.3,0.4l0.2,0.3l2.5,3.1l3.2,3l0.1,0.1l0.1,0.1l4.9,5c0,0.1-0.1,0.1-0.3-0.2l5.3,6.3l0.3,0.8l0,0.4
							l3.9,6.1l0.7,1.3l0.1,0.1l0.1,0.1v0.1l2.6,5.2l0.5-0.1l0.4,1.3c0,0.2,0,0.3-0.1,0.4v0.4l0.4,1.1l0.2,0.1l0.1,0.3
							c0.1,0.2,0.2,0.4,0.3,0.6l0.2,0.3l0.5,2.1v0.2l0.1,0.8l0.2,0.3v1c0,0.1,0,0.1-0.1,0.1c0.2,0.2,0.3,0.4,0.3,0.8l0,0.3v0.3
							l0.1,0.6c0.1,0.1,0.1,0.1,0.2-0.1l0-0.4l0.2,1.2l0,0.1v0.3c-0.1,0.4-0.1,0.6-0.2,0.7c-0.1,0-0.1-0.1-0.1-0.6l-0.4,6.4
							c-0.2,1.5-0.4,3.1-0.8,4.6c-0.3,1.8-0.7,3.5-1.2,5.1l-0.6,2v0.1l-0.1,0.2l-0.3,1l-0.1,0.1v0l-2.4,6.3
							c-0.7,1.7-1.6,3.9-2.8,6.4c0.2-0.1,0.5-0.6,0.9-1.3c0.1-0.3,0.3-0.5,0.4-0.7l0.5-0.5l-0.3,0.9l-0.4,0.6
							c-0.2,0.5-0.3,0.8-0.3,1c-0.2,0-0.4,0.2-0.7,0.6l-1.3,2.1c-0.3,0.4-0.6,0.6-0.8,0.8l0.1,0.5l-0.6,0.5l-1.6,3l0,0v0.1l-0.4,0.6
							l-0.1,0.1l-0.1,0.1l-0.3,0.3l-0.7,0.9l-0.1,0.1l-0.1,0.1l-0.1,0.1l-0.1,0.1l-0.2,0.3l-0.1,0.1l-0.1,0.1l-0.2,0.2l-0.1,0.2
							l-0.1,0l-0.6,0.7l-0.1,0l-0.3,0.2l-0.2,0.1l-0.1,0.1h-0.1l-0.2,0h0.3c0.1,0.1,0.1,0.1,0.1,0.1l-0.1,0.2l-0.1-0.1h-0.1
							l-0.4,0.2l-0.1,0l-0.3,0.1H173l-0.1,0.1h-0.1c-0.2,0.1-0.3,0.1-0.4,0l-0.3,0l-0.5,0.1h-0.2l-0.4,0.1l-0.3,0.1l-0.2,0.1
							c-0.1,0.1-0.1,0.2,0.1,0.3l-0.8-0.1l-0.1,0h-0.2c-0.2-0.1-0.3-0.1-0.3-0.1c0-0.1,0.1-0.1,0.3-0.1l-0.3-0.1h-0.6l-0.4,0H168
							l0.8,0.2h-0.4l-0.4-0.1h-0.2l-3.7-0.6h-0.3l0.8,0.4l-1.4-0.4l-0.8-0.3l-0.1-0.1l-0.2-0.1l-0.6-0.4l0.9,0.2h0.1v0.1h0.1l0.2,0
							l0.4,0.1l-0.4-0.1l-0.1-0.1h-0.1l-0.9-0.3l-0.1,0h-0.1l-0.6-0.2l-0.1,0h-0.1l-0.1-0.1l-0.3-0.1l-2.5-0.9l0.6,0.3l-0.6-0.2
							l-0.3-0.1l-0.2,0l-1-0.5l-2.1-1.4l-0.2-0.2l-0.1,0l-0.1-0.1c-0.6-0.6-1-1.1-1.3-1.5c-0.4-0.5-0.7-1.1-0.9-1.8
							c-0.2-0.6-0.3-1.3-0.4-1.9l-0.1-0.3v-0.5l-0.1-0.1v-1.4l-0.1-0.4v-0.7l-0.1,0.3l-0.1,0.1v0.1l-0.1,0.1l-0.3,0.5l0.1-2.3
							c0,0.1,0.1,0.3,0.4,0.8c0.2,0.3,0.3,0.5,0.4,0.6l0.1-1.1l0.1-0.2v-0.2l0.2-1.4v-0.3l0.1-0.3l0.4-8.9l-0.1-0.4v-0.8
							c-0.1-2.3-0.3-4.4-0.6-6.4c-0.4-2.2-0.8-4.4-1.4-6.4l-0.3-0.9v-0.1l-0.1-0.1v-0.1l-1.5-4.4c-0.4-1-1-2.5-1.8-4.4l-0.9-1.9
							l-0.1-0.2l-0.1-0.1l-0.3-0.5l-0.2-0.6c-0.1-0.1-0.1-0.2-0.1-0.3c0-0.1,0-0.2,0.2-0.1l0.3,0.3l0.3,0.1l-0.8-1.1l-0.7-0.7
							l-0.6-1c-0.3-0.5-0.1-0.4,0.6,0.2l-0.4-0.6l-0.2-0.3l-0.2-0.3c-0.2-0.3-0.4-0.5-0.4-0.5c0.2,0.4,0.3,0.8,0.3,1
							c-0.2,0.2-0.2,0.4-0.2,0.6l-1.8-2.4l0.3-0.1l-0.5-0.4l-1.5-1.1l-0.2-0.2c0-0.1-0.1-0.1-0.1-0.1h-0.1l-0.1-0.1l-0.8-0.6
							l-0.3-0.3l-0.1-0.1l-0.1-0.1l-0.1-0.1l-0.5-0.4c-1.2-0.8-2.4-1.5-3.6-2.1l-0.9-0.4l-4.5-1.4l-5.1-1.1c0,0,0,0,0.1-0.1
							c0.1,0,0.3,0,0.5,0l1.4,0l-0.3,0h-0.3l-1.6-0.4c0.4,0.1,0.3,0.2-0.2,0.1h0c-0.1-0.1-0.1-0.1-0.2,0c0,0,0,0,0,0
							c0-0.1-0.1-0.1-0.1-0.2c0-0.1,0-0.2-0.2-0.3h0l-0.1,0.1l-0.3,0.1l-0.2-0.1v-0.1c-0.1-0.1-0.2-0.1-0.3-0.1l-0.3,0.1l-0.2,0.1
							l-0.2,0.1c-0.1,0-0.2,0-0.3-0.1l0.1-0.1c0-0.1-0.1-0.1-0.3-0.1c-0.2,0-0.3,0-0.3-0.1c0,0,0.1,0.1,0.1,0.2c0,0.1,0,0.1-0.1,0.1
							l-0.2-0.1l-0.2-0.1c-0.1,0-0.2-0.1-0.3-0.2l-0.2,0.3l-0.1,0h-0.2l-0.1-0.1h-0.3l-0.3-0.1l0-0.1l-0.3-0.1l-1.2-0.3l-2.3-0.3
							c-0.5,0-1.3,0-2.2,0.1l-1.8,0.3l-0.4,0.1h-0.2l-0.6,0.2h-0.1l0,0.1H109l-0.1,0l-0.2,0.1h-0.1l0,0.1h-0.1l-0.3,0.1l0-0.1
							l-6.1,1.8l-0.3,0.1h-0.2l-0.1,0.1c-1.1,0.4-1.8,0.6-1.9,0.7c-0.2-0.1-0.4-0.1-0.7,0s-0.5,0-0.6,0c0.1,0,0.2,0.1,0.2,0.2
							c0,0.1,0,0.1-0.1,0.1c-0.4,0.1-0.6,0.2-0.6,0.3c0,0.1-0.2,0.3-0.5,0.4l-1.3,0.4l-0.3,0.1l-2.6,0.8l-0.3,0.1l-0.1,0.1h-0.2
							l-0.9,0.4l-0.1,0h-0.1l0,0.1l-0.3,0.1h-0.1l-0.1,0.1l-0.2,0.1l-0.1,0.1l-0.1,0.1h0l-0.8,0.6l-0.8,0.8l-0.2,0.3l-0.2,0.3
							l-0.1,0.1l-0.1,0.2l-0.2,0.3l-0.1,0.1l-0.1,0.1l-0.1,0.2l-0.4,0.6l-0.1,0.3l-0.3,0.5c0.1,0.2,0.1,0.4,0,0.6l-0.1,0.1v0.2
							l0,0.1v0.1l-0.1,0.1v0.1l-0.2,0.3l0,0.4l-0.1,0.3v0.1l-0.2-1.3L87,231l-0.1,0.3v0l0-0.2l0,0.3v0.4l0,0.1v0.3l0,0.2v0.2
							l0.1,0.3v0.2l0.1,0.1l0,0.3l-0.1-0.1l0.2,0.8v0l0,0.1v0.1l0.1,0.3l0.1,0v0.1l0,0.2l0.1,0.3l0.4,1.1l0.1,0.4l0.8,2.2l0.6,1
							v-0.1l0.3,0.6h-0.1l0.1,0.3v0.3c0,0,0,0,0.1-0.1l0.5,1.1l0.2,0.2l0.1,0.3l1.3,2.2l0.2,0.2l0.6,1.3l0.4,1.5l-0.2-0.3
							c0,0.2,0.2,0.9,0.6,2.1l0.4,1.6l0.2,1c0-0.3,0-0.5,0.1-0.6c0.1-0.1,0.2,0.1,0.3,0.6v0.2l0.1,0.2l0.4,3.4v1.1l0.4,1.4l-0.1,4.3
							l-0.1,0.3l-0.3,2.8l-0.1,0.3l-0.4,2l-0.2,0.6l-0.1,0.3l0,0v0.1l-0.1,0.1l-0.3,1.1l0,0.1l-0.1,0.2l-6.1,15.9
							c-1.1,2.3-2,4.3-2.9,6l-1.4,2.6l-0.2,0.3l0,0.1l-0.1,0.1l-1.2,2l-0.2,0.2l-0.1,0.2l-0.1,0.1l-0.7,0.9l-0.2,0.3v0h0v0.1
							l-0.8,1.1l0.2-0.3l-4.9,6.6l-6.4,2.1l-0.3,0.1l-0.7,0.2l-0.3,0l-0.2,0l-0.1,0.1h-0.1l-0.7,0.1c-0.8,0.2-1.7,0.3-2.6,0.4
							c-0.8,0-1.6,0-2.6-0.1l-1.7-0.3l-0.5-0.1h-0.2l-0.6-0.2h-0.1l-0.1,0l-0.2-0.1l-0.3,0l-0.1,0l0-0.1h-0.1l-0.1,0l-0.8-0.3
							l0.1,0.1h0l-0.3-0.1l-3.2-1.4c-1.7-0.8-3.3-1.7-4.7-2.6l-0.3-0.1l-1-0.8l-0.2-0.2h0l-0.3-0.3l-0.1-0.1l0-0.1h0l-1.1-1
							l-1.5-2.4c-0.7-1-1.2-1.9-1.5-2.6c0.2,0.5,0.2,0.7,0.1,0.6c-0.1,0-0.2-0.2-0.5-0.6l-0.3-0.6l-0.1-0.1l-0.1-0.4l-0.1-0.1l0-0.1
							l-0.7-1.2l0,0h0l0-0.1l-0.1,0l0-0.1l-0.2-0.4l-0.3-1v-0.1l0,0v-2.3c0.1-1.1,0.4-2.5,0.9-4.2l4.8-11.6c0.8-2,1.7-4.3,2.5-6.9
							c0.7-2.5,1.1-4.8,1.4-6.9l0.4-4.7l0-2.3l-0.1-0.3l0-0.9l0-0.3l-0.2-1.7L45.1,238l0.2,0.3l-10.2-27.8l0.1,0.6l-0.7-2
							c-0.1-0.7-0.2-1.1-0.2-1.3l-0.3-2.7c-0.2,0.2-0.5-0.2-0.8-1.3l-0.7-2.5h0.1l-0.3-1.2l-0.1-0.3l-1.2-7.3l0.3,0.1l-0.3-2.2v-0.3
							l-0.1-0.3v-6.2c0.2-2.1,0.5-4.6,0.9-7.4l1.1-8.5l0.6-1.7l0-0.3l0.1-0.2l0.5-1.3v-0.5l-0.2-0.4l-0.5-0.7l0.7-2.1
							c-0.4-0.2-0.8-0.4-1.3-0.7h-0.2l-0.5-0.1l-0.9,0.1c0-0.1,0.1-0.2,0.2-0.2l0.7-0.2l0.1-0.1c-0.1,0-0.1-0.1-0.2-0.1l-0.4,0.1
							c-0.2,0-0.4,0.1-0.6,0.3c-0.4,0-0.6,0-0.6-0.1c0-0.1-0.3-0.2-0.8-0.1l-2.8,0.9l-0.9,0.1v-0.1l-1.6,0.3l-4.7,1.8l-1,0.3
							l0.3-0.2l-0.4,0.1l-4.2,1.6c0.3-0.1,0.5-0.1,0.6-0.1c0.1,0-0.1,0.2-0.5,0.4l-4.7,2.2l-1.1,1l-0.7,0.4l-2.4,1.7
							c-1.6,1.1-3,2.2-4.1,3.3c-1.8,1.7-3.3,3.2-4.5,4.5l-1.1,1.3l-0.3,0.4l-0.2,0.1l-2.6,3.4c-1.1,1.5-2.3,3-3.5,4.5l-1.3,1.5
							l-0.3,0.2l-0.2,0.3l-0.8,0.9l-0.3,0.2l-0.2,0.3l-0.4,0.4c-1.1,1.1-2.1,1.9-3,2.6c-0.8,0.6-1.5,1.1-2.1,1.3l0.1-0.1l-0.4,0.3
							l-0.3,0.1l-0.2,0.1l-1.4,0.5h-0.1l-0.1,0.1H-22l-0.1,0h-0.3l-0.3,0h-0.1l-6-1.5l-0.9-0.3l-0.4-0.2h-0.1v-0.1h0l-0.1-0.1h0
							l0-0.1h-0.1l-0.2-0.2v-0.1l-0.1-0.1l-0.1-0.1l-0.1-0.1l-0.1-0.1l-0.1-0.2l-0.2-0.4l0-0.1l-0.9-1.6l-3.8-8.6l0-0.3l-1.1-3.9
							v-0.3l-0.1-0.4l-0.1-0.8l0.2-2.3c0.1-1,0.2-1.8,0.3-2.3l-0.1,0.4l-0.1,0.1c-0.1-0.1-0.1-0.3,0-0.6l0.4-2.3c0,0,0-0.2,0-0.4
							l0.1-0.7l0.1-0.3l0-0.3l0.2-0.7l0-0.1l0.1-0.5v-0.1h0.1v-0.1l0.1-0.4l0-0.2v-0.1l0.1-0.1l0.4-1.1c0.5-1.4,1.1-2.6,1.6-3.6
							c0.6-1.4,1.3-2.8,2.1-4.1c0.7-1.2,1.5-2.6,2.6-4.3l1.9-2.7l0-0.1l1.4-1.8l0-0.1h0v-0.1l0.2-0.2l0.4-0.4l0.1-0.3l1.6-1.8
							c0.7-0.7,1.6-1.6,2.6-2.6l0.5-0.4l0.3-0.3l1.1-0.9c0.7-0.8,1.8-1.7,3.2-2.7l0.2-0.1l2.8-1.9l0.2-0.1l0.2-0.2l-0.2,0.2l20.7-11
							l-0.4,0.1c1-0.7,1.8-1.1,2.4-1.3c1.1-0.4,1.8-0.7,2.1-0.8c-0.2-0.1,0.1-0.4,0.8-1l1.8-1.2v0.1l6.3-4.1v0.2
							c1.5-1,2.6-1.7,3.4-2.3l5.5-3.9c1.2-0.9,2.1-1.7,2.7-2.3c1-0.9,1.9-1.9,2.7-3c0.1-0.2,0.3-0.4,0.4-0.6l0.5-0.4l0.9-1l2-2.8
							l0.3-0.5l0.1,0.2l1.5-3.9c0.1,0,0.1,0,0,0.1l-0.3,1.7l1.1-3.4c0-0.2,0-0.2-0.1,0L41.6,96l1.3-7.3c0-0.1,0.1-0.3,0.2-0.3
							c0.1-0.1,0.1-0.2,0.1-0.4l0.1-0.6l0.3-6l0-0.1l0-9.1c0-4.6-0.2-9.1-0.6-13.7l-0.9-13.2c-0.1-2.4-0.1-4.6-0.1-6.5l0.2-6.5
							c0.1-0.2,0.1-0.2,0.1,0v0.3l0-0.3l0.1-1.8l0.1-0.3v-0.2l0.1-0.8l1.3-5.7l0.1-0.2l1.2-3.9l0.7-1.2l0.4-0.6c0,0,0-0.2,0.3-0.8
							l2.6-5.8V11l0-0.1l0.1-0.1l0.5-0.9V9.9l0-0.1l0.1-0.2l1.7-2.8c0.8-1.2,1.7-2.4,2.7-3.5c0.9-1,1.8-2,2.8-2.8l0.3-0.3L59.1-1
							 M212.4,135.8l0.2,0.3l0.3,0.3l0.4,0.5l0.2,0.2l0.2,0.3l0.9,1.1c0-0.1-0.2-0.4-0.5-0.9l-0.3-0.6c-0.1-0.1-0.1-0.3-0.1-0.4
							c0.1,0.1,0.4,0.4,0.8,0.9c0.2,0.3,0.3,0.5,0.5,0.6c-0.1,0.2,0.1,0.6,0.5,1.3l0.4,0.8l0.1,0.4v0.4l0.4,0.1l0.1,0.5l0.1,0.2
							l0.1,0.2l0.6,0.8l0.1,0.1v-0.1v0.1h0.1l0.1,0.2l0.6,0.8l0.1,0.2l1.8,3.7l0.3,0.4l0.6,1.6c0-0.1,0-0.2,0-0.3
							c0.1-0.1,0.2-0.1,0.3,0.2c-0.1,0.1,0,0.3,0.2,0.8c0.2,0.5,0.3,0.8,0.2,0.9l0.1,0.1v0.1l0.1,0.1l0.1,0.3l0.2,0.7
							c0.1,0.5,0.3,0.6,0.4,0.3l0,0.5v0.3l-0.1,0.3c0,0.4-0.1,0.4-0.2,0l0.1,0.8c0,0.3,0,0.5,0.1,0.6v-0.6l0.1-0.1v0.3l0,0.3
							l0.1,2.6l0.2,0.6l0.1-0.6v1.1l-0.1,0.4c-0.1,0.3-0.1,0.5-0.1,0.5l-0.1,0.1v-0.1l-0.1,0.1c0,0.1,0,0.2-0.1,0.2l-0.1-1v0.8
							l-0.1,0.4v0.3l-0.1,0.2v0.1l0,0.3l-0.2,1.6l0.1-0.2l0.1-0.1v0.3l-0.4,1.6c-0.3,0.7-0.6,1.2-0.7,1.5l-1,1.4l-1.3,1.3l-3.5,2.7
							l0.9-0.1l-0.3,0.3l-0.5,0.3l0,0.1l0.1-0.1l-0.1,0.1l-0.1,0l-0.4,0.3c0.1,0,0.2-0.3,0.3-0.7l0.1-0.1l-0.1,0v-0.1l0.1-0.2
							l0.1-0.2l-0.8,0.4l-0.1,0.1h-0.1l-0.2,0.1l-0.1,0.1h-0.1l-0.1,0.1l-0.1,0.1c-0.9,0.3-1.6,0.5-2.2,0.5l-1.3,0.2l-1.4-0.1
							l-1.5-0.3l-0.8-0.2l-1.6-0.6l-0.4-0.2l-0.2-0.1l-1.7-0.9c-0.6-0.4-1.5-1-2.8-1.9l-3.3-2.9l-0.4-0.3l-0.3-0.3
							c-0.5-0.5-0.6-0.7-0.4-0.7c0.1,0,0.3,0,0.6,0.1l-0.5-0.3l-1.1-0.4l-0.7-0.4c-0.2-0.1-0.1-0.2,0.1-0.2c0.1,0,0.2,0,0.3,0.1
							l-0.7-0.5c-0.3-0.2-0.4-0.2-0.5-0.2c0.3,0.2,0.5,0.5,0.4,0.7v0.5l-1.8-1.2l0.2-0.1c-0.1,0-0.4-0.1-1.1-0.3
							c-0.4-0.1-0.7-0.1-0.9-0.3l-0.5-0.2l-4.4-2l-6.4-1.8l0.2-0.1h0.3l1,0.1l-1.5-0.4c0.3,0.2,0.2,0.2-0.4,0.1
							c-0.5-0.1-0.6-0.1-0.4,0c-0.9,0-2.2-0.1-4.1-0.4c-0.5-0.1-0.9-0.1-1.3-0.2l0.3-3.8l0.1,0.6l0.1-0.8l0.1-0.2l-0.4-8.4l-0.1-0.2
							v-0.2l-0.1-0.8c0.1,0.7,0.1,1.1,0,1.2c0,0.2,0,0.1-0.1-0.3l-0.9-4.3l-2.3-7.3l-0.6-1.1l-0.1,0l-0.8-1.3l-0.1-0.1l-0.1-0.1
							c-1-2.2-2.1-4.3-3.2-6.3c-1.6-3-3.4-5.9-5.3-8.6l-1.7-2.4l-0.3-0.3l-0.1-0.2l-0.1-0.1l-1.3-1.8l-0.1-0.1l-0.9-1.3l-0.1-0.2
							l3.9,1.9l7.4,2.7l3,0.8c0.1,0.1,0,0.1-0.3,0.1l6.4,1.4c0.3,0.2,0.6,0.3,0.8,0.5c-0.2-0.2,1.6,0.2,5.5,1.4l5.7,1.8l0.3-0.3
							c0.6,0.2,0.9,0.4,1,0.5c0.2,0.1,0.3,0.2,0.3,0.3c0.1,0.1,0.2,0.2,0.3,0.2l0.9,0.3c0.4-0.1,1,0.1,2,0.6l1.1,0.5
							c0.3,0.2,0.6,0.3,0.8,0.3l0.4,0.3c0.3,0.2,0.4,0.3,0.3,0.3c0.1-0.1,0.4,0,0.7,0.1l0.8,0.4c0.1,0,0.1,0,0.1-0.1
							c-0.1-0.1-0.2-0.2-0.3-0.3l1.4,0.5c0.2,0.2,0.3,0.3,0.3,0.4c0,0.1-0.1,0.1-0.4,0l5.6,3.3l0.5,0.4h0.1l0.1,0.1l1.2,0.8l0,0.1
							l1.9,1.5L212.4,135.8 M167.4,181.7L167.4,181.7l-0.1-0.1c0,0,0.1,0,0.1,0L167.4,181.7 M-30.7,194l0,0.1h0v0.1l-0.3,0.4h-0.1
							l0,0.1h-0.1l-0.2,0.1h0C-31.4,194.6-31.1,194.3-30.7,194z"/>
					</g>
				</g>
			</g>
		</g>
	</g>
</g>
</svg>
