<?xml version="1.0" encoding="utf-8"?>
<!-- Generator: Adobe Illustrator 24.1.2, SVG Export Plug-In . SVG Version: 6.00 Build 0)  -->
<svg version="1.1" id="Layer_1" xmlns="http://www.w3.org/2000/svg" xmlns:xlink="http://www.w3.org/1999/xlink" x="0px" y="0px"
	 viewBox="0 0 256 256" style="enable-background:new 0 0 256 256;" xml:space="preserve">
<style type="text/css">
	.st0{fill:#FFFFFF;}
</style>
<g id="jump6">
	<g transform="matrix( 0.6996917724609375, 0, 0, 0.6996917724609375, 57.25,20.7) ">
		<g id="jump">
			<g transform="matrix( 1, 0, 0, 1, 0,0) ">
				<g>
					<g id="jump_5_Layer0_0_FILL">
						<path class="st0" d="M54.2-8.2l-3.4,2.6c-2.2,1.9-4.3,3.8-6.1,5.9c-0.9,1.1-1.8,2.2-2.7,3.4L41,5.2l-0.1,0.2l-0.7,1.1
							l-0.1,0.1l0,0.2L39.3,8l-0.2,0.4l-0.5,0.8l-2.4,5c-0.9,1.9-1.6,3.8-2.3,5.7c-0.6,1.7-1,3.1-1.3,4.1l0.4-1L32.5,25l-0.1,0.3
							l-0.5,2.3l-0.1,0.3l-1.1,4.7l-0.1,0.7l0,0.2v0.3l-0.1,0l0,0.5c0.1-0.2,0.2,0,0.3,0.6l0.1,1.7l0,0.3l0,4.6l-0.1-0.1L31.8,57
							l-0.3-0.2l1.1,12.1L33,97.3c0,0.2-0.1,0.4-0.1,0.6l-0.2-0.1l0.1,1l0,1.1c0,0.3,0,0.4-0.1,0.3l0-0.9v0.1c0,0.1,0,0.1,0,0
							l-0.2-0.6c0,0.5,0,0.8-0.1,1.2c0,0,0.1,0,0.1,0l0-0.3v0.9c-0.1,0.4-0.2,0.7-0.3,0.8c-0.1,0.2-0.2,0.3-0.3,0.3l-0.1,0l-0.2,0.2
							v0l0,0.1l-0.6,0.6l0,0.1h-0.1l0,0.1l-0.1,0l-0.3,0.3l-0.2,0.2l-1.2,0.7l-2,0.7l-2.7,0.7l-1.4,0.2c-1,0.2-2,0.3-3,0.3
							c-0.3,0-0.6,0-0.8,0l-4.6,0.1L14,106h-0.9c-0.2,0-0.5,0.1-0.9,0.1l-2.6,0.2c-0.1,0-0.1-0.1-0.1-0.1c0,0,0.1,0,0.3-0.1l-8.1,1
							c-0.4,0-0.7,0-0.8,0l-0.4-0.1l-0.5,0.2l-7.3,1.3l-7.1,1.9l-0.1,0.5l-1.4,0.4h-0.7l-0.3,0.1l-1.3,0.5l-0.2,0.2l-0.8,0.5
							l-3.5,1.6l-0.4,0.3l-0.6,0.2c-0.4,0.2-0.6,0.3-0.6,0.2c0,0.1-0.3,0.3-0.8,0.6l-1.1,0.6c-0.2,0.2-0.2,0.2,0,0.1l0.4-0.2
							l-1.6,1.1c-0.4,0.2-0.6,0.2-0.7,0.2c-0.1,0,0.1-0.2,0.4-0.4l-2.4,1.4c-1.3,0.9-2.5,1.7-3.4,2.4c-1.1,0.8-2.5,1.9-4,3.3
							l-0.3,0.2l-3.7,3.7c-1.4,1.5-2.6,2.9-3.6,4.1c-1.2,1.5-2.2,2.9-3,4.1l-3.4,5.2l-0.1,0.1l-0.1,0.2l0,0.1l-0.2,0.5l0.2-0.2
							l0.1-0.1l0-0.1v-0.1h0l0-0.1v-0.1l0.5-0.7c0.5-0.7,0.8-1,1-1.1l-0.4,0.9l-0.7,1.1l0,0.1v0.1l-0.1,0.1v0.1l0,0.1l0,0.2
							c-0.1,0-0.3,0.2-0.5,0.5l-0.2,0.2l0,0.1l-0.8,1.4l-0.1,0.2l-0.7,1.1l-0.4,0.4l0.1,0.5l-0.4,0.5l-0.1,0.2l-1.6,5.8l-0.6,4.2
							l0,4.7c0-0.1,0-0.2,0.1-0.4c0.1-0.2,0.2-0.1,0.2,0.4l0,0.1l0,0.3l0.1,1.3l0.1,0.3v0.2c0.1,0.3,0,0.5-0.1,0.6l0.1,0.4l0,0.1
							v0.4l0,0.3v0.1l0,0.2l0,0.6c0.2,0.8,0.3,1,0.4,0.6c-0.1,0.3-0.1,0.8,0,1.4c0,0.6-0.1,0.7-0.3,0.1l0.4,2.3l-0.1-1.1l0.7,3.5
							l0.4,1.4l0.2,0.4l0.1,0.3l0.4,0.7l-0.2-1.1l1,2.9l0.2,0.9l0,0.1v0.2l-0.9-1.9c0.3,0.9,0.7,1.6,0.9,2.1
							c0.4,0.7,0.8,1.3,1.2,1.8c0.4,0.6,0.9,1.2,1.4,1.7l0.2,0.3l0.5,0.5h0v0.1l0.1,0.1l0.5,0.4l-0.1-0.1l0-0.1l-0.3-0.3l0.3,0.2
							l0.1,0.1l0.8,0.6l0.1,0.1l0.4,0.3l2.6,1.6c1.1,0.6,2.1,1.1,3.3,1.4c0.9,0.4,2,0.7,3.4,1.1l2.6,0.6h0.1l0.2,0.1h0l0.7,0.1h1.8
							l0.8-0.1c0.1,0,0.7-0.1,1.7-0.3c0.8-0.2,1.7-0.5,2.6-0.8l0.3-0.1l1.2-0.6l-1.3,0.1l2.1-0.9c-0.1,0-0.2,0.3-0.5,0.7
							c-0.2,0.3-0.4,0.5-0.5,0.6l10.9-4.6l4.7-2.4c0.8-0.4,3.8-2,8.8-4.8l5.4-3.1c0.6-0.3,0.9-0.3,0.8-0.1c0,0.1-0.1,0.3-0.3,0.4
							l0.8-0.6v0h0.1l0.1-0.1l0.1-0.1l0.3-0.3l0.7-0.4c0.2-0.1,0.2-0.1,0.2,0.1s-0.2,0.3-0.3,0.4l0.8-0.5l0.4-0.3
							c-0.4,0.1-0.6,0.1-0.7,0c-0.2-0.2-0.4-0.3-0.4-0.3l0.2-0.2l0.3-0.1l1.4-0.8l0,0.3l1.5-1.4l3.6-1.7c0.7-0.3,1.5-0.7,2.4-1.1
							l2.9-1.1l0.5-0.1l0.3-0.1l0.8-0.1l-0.1,0.1l-0.1,0.1l-0.1,0.1l-0.1,0l-0.6,0.3l0.5-0.1l0.5-0.1l0.3,0.1
							c-0.1,0-0.2-0.1-0.1-0.1l0.3-0.1l0.1-0.1h0.1l0.1-0.1h0l-0.1,0l0-0.1h0.1l0.1-0.1h0.1l0-0.1h0.1l0.1,0l0,0l0,0v0.1l0.1,0.3
							l0.9,0.4l-0.7,2.5c-0.2,0.6-0.4,0.9-0.5,1l-0.2,0.3c-0.1,0.1-0.2,0.5-0.4,1.1l-0.2,1.1l-0.1,0.3l-0.4,2l-0.1,0.3v0.3l-0.7,5.2
							c-0.2,3.1-0.3,6.1-0.1,9.1v0.3l0,0.1l0.1,1.9l0,0.3v0.3l1,6.3c0.5,2.8,1.3,5.8,2.3,8.9c0,0.2-0.1,0.1-0.3-0.3
							c1.3,3.8,2.6,7,3.9,9.6l0.3,1.5c0-0.1,0.1,0.1,0.4,0.8l4.6,8.6c0.2,0.4,0.3,0.6,0.4,0.8l1.9,5.1H34l0.4,1l0.1,0.5
							c0,0.2,0,0.4,0,0.6v0.4l0.5,1.4c0.1,0.1,0.3,0.3,0.3,0.4c0.1,0.1,0.2,0.3,0.3,0.7l0.3,0.8l0.6,2.5l0.4,1.1l0.1,0.9v0.2
							c0,0.1,0,0.2-0.1,0.2l0.3,0.4l0.1,0.3l0.2,1.2l0,0.2l0,0.1c0.1,0.1,0.1,0.1,0.1,0c0-0.2,0-0.4,0-0.5l0.5,1.8l0,0.4l-0.1,0.2
							l-0.1-0.1c-0.1-0.1-0.1-0.2-0.1-0.4v0.4l0.1,0.1l0,1.2l0,0.3v0.8l0,0.1v0.6l-0.2,1.1l0,0.2v0.3l-0.1,0.5
							c-0.5,2.7-1.6,5.7-3.4,9l-1,1.9l0,0l-4.7,9.6l-0.5,1.6l-0.2,0.8l-0.1,0.4L27,279l0,0.5v0.2l0,0.2l-0.1,2.3l0,0.3l0.1,1.1
							l0,0.2v0.2l0,0.2l0.1,0.4l0,0.2v0.2l0.1-0.2l-0.1-3.4l0.1-0.2l0.1-0.8l0.3-0.8l-0.1,3.3l0.1,0.2v0.4l0,0.3v0.2l0.1,0.2
							l0.1,0.3l-0.1,0.2l0,0.3l-0.1,0.6l0.1,1.5c0.2,1.6,0.3,2.6,0.2,3.1l0.5,0.4l0,0.9l1.4,4.2l0.1,0.2v0l0,0.1v0.1l0.2,0.8l0,0.1
							l0.1,0.5l1.5,3.3c0.6,1,1.3,2,2,2.9l3.7,3.5l0.1,0.1l0.8,0.6l0.2,0.2l0.2,0.2c-0.1-0.1-0.2-0.2-0.3-0.4l0-0.1l0.5,0.3
							c0,0.1,0.1,0.3,0.5,0.5l1.8,1.1l0,0.1l0.2,0.1h0l0.1,0c0.2,0.1,0.4,0.3,0.5,0.5l2.1,1.1l1,0.4l0.4,0.1c0.3,0.1,0.3,0,0-0.3
							l1.7,1c0.4,0.2,0.6,0.3,0.6,0.3c0,0-0.2,0-0.6-0.1c0.5,0.2,1,0.4,1.5,0.6c0.7,0.2,1.2,0.3,1.4,0.4l-1-0.4l-0.3-0.1l1.6,0.5
							l0.3,0l0.5,0.2l1.6,0.4l0.4,0.1l2.3,0.3h0.4c0.4,0,0.7,0,0.9,0l-1.3-0.3c0.2,0,0.4,0.1,0.8,0.1l0.4,0H57l0.2,0.1l1,0h0
							l1.3,0.2l0.7,0.3l-2,0l1.1,0.1c0.5,0,0.8,0,1,0h1.9c1.1,0,2.4,0,3.7-0.1h-1l6.1-0.5h0.4l0.9-0.1l0.1-0.1h0.1l1.8-0.4l0.5-0.2
							l0.1,0h0.1c0.7-0.3,1.5-0.7,2.4-1.1c0.9-0.5,1.6-0.9,2.1-1.3c0.6-0.3,1.2-0.8,1.8-1.3l1.6-1.3c1.1-0.9,2-1.8,2.8-2.5l3.1-3.5
							l-1.3,0.8l1.7-2.1c-0.1,0.1-0.1,0.5-0.1,0.9c-0.1,0.4-0.1,0.7-0.2,0.8l0.9-0.9l0.1-0.2l0.1,0l1.1-1.1l0.1-0.2l0.2-0.2l1.3-1.5
							c0.1,0,0.1-0.1,0.2-0.3l1.1-1.4l0.1-0.1l0.1-0.1l2.1-2.8l0.2-0.3l0.3-0.3l1.1-1.7l5.3-10.1l0.2-0.4l0.2-0.4l1.6-3.7l0.1-0.4
							l0.1-0.2l3.1-8.8V268l0.4-1.5l0.1-0.3c0.3-0.9,0.5-1.2,0.6-1c0.1,0.1,0.1,0.4,0.1,0.8l0.2-1.5l-0.1-0.6c0-0.5,0-1.1,0.2-1.7
							l0.1-0.3l0.1,0.1l0.1,0.6l0.2-1.5c0.1-0.5,0.1-0.7,0-0.8c-0.1,0.5-0.2,0.8-0.5,1c-0.1,0.1-0.3,0.2-0.5,0.3l0.3-2.7v-0.4
							l0.3,0.1c0-0.3,0-0.5-0.1-0.6l-0.4-2.3l-0.3-4.3l-0.1-0.1v-0.1l-0.9-5.1c-0.6-2.2-1.4-4.7-2.4-7.3l0.2,0.1l0.6,1.1l0.3,0.7
							l0-0.3l-0.2-0.3l-0.5-1.4l-0.1-0.2c0.1,0.5,0,0.4-0.3-0.1h0.1l-0.1-0.1c0,0-0.1-0.1-0.1-0.2l0-0.1l0.1,0.1
							c0.1,0.1,0.2,0.3,0.2,0.4l0.2-0.4v0.3h0.7l0.1,0.1c0.1,0,0.2,0,0.3-0.1c0.1-0.1,0.2-0.1,0.2,0l0.1-0.1l0.1-0.1
							c0.1,0,0.1,0,0.1,0.1c0,0,0.1,0,0.2,0c0.1,0,0.1-0.1,0.2-0.3l-0.1,0.3c0,0.1,0,0.2-0.1,0.2c0.1,0.1,0.1,0.1,0.2,0.1v-0.2
							c0.1,0,0.1,0.1,0.2,0.2c0.1,0.1,0.2,0,0.3-0.1l0-0.1c0.2,0,0.2,0.1,0,0.4l-0.2,0.1l0.1,0l1.3,0.5l1.1-2.9l0.1-0.1l0-0.1
							l0.1-0.1l0.1-0.2l0.1-0.1l0-0.2l0.1-0.1l-0.1,0.2l0.1-0.3l0.1-0.2l0.8,1l-0.2,1l-0.1,0.1v0.1l-0.1,0.3l-0.1,0.1l0,0.1v0
							l-0.2,0.5l-0.1,0.3l-0.1,0.1v0.1l-0.1,0.1l0.4-0.4l0.2-0.3l0.1-0.1l0.2-0.1l-0.2,0.1l-0.2,0.3c-0.1,0.1-0.2,0.3-0.3,0.4h0.1
							l0,0.1h0.1l1.1,1.1l0.1,0.2l1.5,1.5c0.1,0.2-0.1,0.3-0.3,0.4c0.1,0.1,0.2,0.1,0.3,0c0.1,0,0.1,0,0.2,0.1
							c0.1,0.1,0,0.2-0.3,0.2c0,0,0.1,0.1,0.2,0.1c0,0,0.1,0,0.1-0.1c0-0.1,0-0.2,0.2-0.3c0.1-0.2,0.2-0.3,0.3-0.4l0.2,0.1l0.1,0.1
							l-0.2,0.2c0,0,0.2,0,0.3-0.1c0,0,0.1,0,0.1-0.1l1.1,1.8l-0.3-0.1l2.3,3.6c-0.1-0.2-0.1-0.4-0.1-0.5c0,0,0.2,0.1,0.4,0.4
							l2.1,3.6l0.8,0.8l0.1,0.1l0.2,0.5l0.1,0.1l0.2,0.6l0.1,0.1l0.1,0.1l0,0.1v0.1l0.1,0.1v0.1l0.1,0.1v0.1l0,0v0.1l0.1,0.3l0,0.1
							v0.1l0,0v-0.1l0.1,0.2l-0.1-0.1l3.3,17.6l1.4,10.4c0.1,0.9,0.2,2.5,0.4,4.9l0.1,1.5l0,0.2v1l0.1,0.4v0.4l-0.1-0.3l0.1,2l0,0.4
							c0.1,1,0.2,2.1,0.5,3.3c0.3,1.2,0.6,2.4,1,3.6c0.5,1.2,1.1,2.5,1.9,3.7c0.7,1.1,1.6,2.2,2.8,3.3l2.9,2.4l0.4,0.3
							c1,0.7,2.2,1.3,3.6,2l1.5,0.6h0.1l0.3,0.1l0.5,0.1l0.2,0.1l0.2,0.1l0.3,0.1l0.2,0h0.1l0.2,0.1c1.5,0.4,2.7,0.8,3.6,1
							c1.6,0.3,2.8,0.5,3.8,0.6c1.1,0.1,2.4,0.2,3.9,0.2c1.4,0,2.7-0.1,3.8-0.3c1.3-0.2,2.6-0.5,3.8-0.9c1.3-0.5,2.4-1,3.4-1.5
							l1.2-0.8l0.1,0l0.1,0l0.4-0.3l0-0.1l0.1,0v-0.1l0.1,0l0.1-0.1l0.6-0.4l0.3-0.1l1.7-1.4l1.4-0.9l1.4-1.1
							c0.8-0.7,1.7-1.5,2.6-2.5c-0.5,0.4-0.7,0.5-0.7,0.4c0-0.2,0.2-0.4,0.6-0.7l1.3-1.5l0.1-0.2l0.1-0.1l0.2-0.3l0.5-0.8v-0.1
							l1.6-2.8c0-0.1,0.1-0.2,0.1-0.3c0,0,0-0.1,0.1-0.1l2.9-5.3l1.1-2.6l1.4-4.4l0.1-0.2v-0.1l0.1-0.1l0.1-0.8l0.1-0.1v-0.1
							l0.6-3.5c0.1-0.8,0.1-1.9,0.1-3.5c0-1.2-0.1-2.4-0.2-3.4l-0.8-4.8l-0.4-1.5l0-0.3l-0.1-0.3l-2.1-8.7c-0.2-0.5-0.5-1.2-0.8-2.3
							l-0.7-2.4c-0.9-3.1-1.3-4.7-1.3-4.8l0.1,0.3l-3.1-13.6l-0.2-0.4l-2.8-10.6l0.1,0.5c-0.4-1.3-0.7-2.3-0.8-2.9
							c-0.1-1-0.2-1.9-0.3-2.5c-0.2,0.2-0.4-0.1-0.9-1c-0.3-0.7-0.6-1.4-0.8-2.2h0.1l-2.6-7.6l0.3,0.1c-0.2-0.4-0.4-1.1-0.6-1.9
							l-3.6-13.6l0-1.1c0.1-0.3,0.1-0.6,0-0.9c0-0.4,0.1-0.6,0.2-0.8c0-0.1,0.1-0.1,0.1-0.1s0.1,0,0.1-0.1l0.2-0.4l0.6-4
							c0.2-1.5,0.4-2.8,0.6-3.8l0.1,0c0.4-2.2,0.7-4.7,0.8-7.5l0.4-7.3l0.1,0.6l0.1-0.8v-8.9l-0.1,1.2c-0.1,0.1-0.2-0.4-0.3-1.4
							c0-0.6,0-1.2-0.1-1.8h1.1l1.5,0.3l-0.3,0.1l0.6,0.1l1.8,0.3l0.9,0.3c-0.2-0.1-0.3-0.1-0.4-0.2c0-0.1,0.1-0.1,0.5-0.1l0.3,0.1
							l0.3,0.1l2.2,0.6l0.3,0.2l0.2,0l0.1,0.1h1.1l2.3,0.9c1.1,0.4,2.1,0.9,3.2,1.4l0.2,0.1l0.2,0.1l0.4,0.2l0.2,0.2l0.3,0.1
							l2.4,1.8l0.2,0.2l0.4,0.3l0.1,0.1l0.1,0.1l0.4,0.4l0.2,0.1l0.4,0.5h0.1l0,0v0h0v0.1l0,0l0.1,0.1l3.1,3.1l0.4,0.3
							c0.3,0.3,1.2,0.9,2.6,2l2.8,1.7c0.8,0.4,1.7,0.9,2.8,1.4l3.6,1.3h0.2l0.3,0.1l0.3,0.1l0.3,0.1l0.6,0.1
							c1.3,0.2,2.5,0.4,3.7,0.4l0.6,0l4.2-0.4l0.3-0.1l2-0.5l0.4,0l0.2-0.1l0.2-0.1l0.8-0.3h0.1l0.1-0.1h0.1l0.8-0.3l0.1-0.1
							l0.8-0.3l5.3-2.8c1-0.7,1.9-1.3,2.6-1.9c1-0.9,1.8-1.7,2.5-2.4c0.8-1,1.5-1.9,2.1-2.9l0.4-0.8l0.1-0.2l1-2.1v-0.2l0-0.1
							l0.5-1.7l0.5-3l0.1-2c0-1.5-0.1-3.2-0.3-5.1c-0.1-1.5-0.4-2.9-0.7-4.4v-0.3l-1.1-5.2c0.1,0.5,0.1,0.7,0,0.6
							c-0.1,0-0.2-0.3-0.3-0.6l-0.4-1.3l-0.1-0.1l-0.3-0.8l-2.1-4.1v-0.1l-0.1-0.1l-0.1-0.1l-0.5-0.9l-0.1-0.2l-2.2-3.5
							c-0.6-0.9-1.5-2.2-2.8-3.9c-1.1-1.4-2.3-2.7-3.4-3.9l-2.1-2.3l-0.3-0.2l-0.2-0.3l-4.9-4.7l-0.2-0.2l-0.2-0.2l-3.7-3L210,107
							c-1.8-0.9-3.2-1.6-4.2-2.1c-1.6-0.8-3.1-1.3-4.3-1.6h0.3l-10.7-3c-2.3-0.5-4.5-0.9-6.7-1.2l-4.4-0.5l0.4,0.1l-1.6-0.1
							l-0.9-0.2c-0.7-0.2-1.4-0.3-2.1-0.4c0.1,0.1,0,0.2-0.2,0.3c-0.2,0.1-0.5,0.2-0.9,0.2l-1.9,0.1l0.1-0.1h-1l-0.3,0.1
							c-0.3,0-0.9,0-1.7,0.1c-1.6,0.1-2.8,0.1-3.6,0.1l0.1-0.2c-1,0.1-2.1,0-3.4-0.2l-5.5-0.8h0.1h0.1l0.2-0.1l2.7-0.3
							c2-0.1,3.5-0.2,4.3-0.3l1-0.1c0.4,0,0.7,0,1-0.1l1.8,0c0.3,0,1.4-0.1,3.3-0.2l-0.6,0.1l7.3-0.8l0.4-0.1h0.1l0.1-0.1l0.4-0.1
							h0.2v-0.1l0.5-0.1l1.3-0.4c1.2-0.4,2.3-0.8,3.2-1.3c1.1-0.5,2.2-1.2,3.2-2c1.1-0.8,2.1-1.7,2.9-2.8l0.8-1l0.1-0.1l0.1,0
							l0.3-0.5c0,0,0.1,0,0.1-0.2v0l0.1-0.1l0.7-1.3l0.1-0.2l0.1-0.2l0.1-0.1c0.6-1.2,1.1-2.6,1.5-4c0.3-1.1,0.5-2.4,0.6-4l-0.3-4.4
							l-0.1-0.3l-0.1-0.2v-0.2l-0.1-0.1l-0.1-0.5l-0.4-1.8c-0.6-2.2-1.4-4.5-2.6-6.9l-1.1-2l-0.1-0.2l-0.1-0.2l-0.3-0.4l-0.1-0.2
							l-0.3-0.4l-0.1-0.2l-0.1-0.1v0h-0.1l-0.1-0.1l-1.6-2.1c-0.6-0.8-1.2-1.6-2-2.5L175,42.4l-0.1-0.1l-0.3-0.3l-0.1-0.1l0.1,0
							l-0.4-0.5l0-0.1l-0.5-0.8l-0.1-0.1l-1.9-3.2l0-0.2l-3.1-6.4l-2.9-7.6c-0.4-1.7-1.1-3.6-1.9-5.6c-0.8-1.9-1.6-3.8-2.5-5.6
							c0.4,0.9,0.5,1.3,0.4,1.2c-0.1-0.1-0.4-0.5-0.8-1.3l-3-5.3c-0.1,0-0.3-0.3-0.6-0.8L155.4,3l-0.3-0.3L155,2.4l-0.1-0.1
							l-0.1-0.1l-0.8-1l0,0c0,0,0-0.1-0.1-0.1L154,1l-0.1-0.1L152.3-1l-5.9-5.3l-4.6-3.1c-1.2-0.8-2.8-1.7-4.7-2.6
							c-1.9-1-3.6-1.7-5-2.3l-2.2-0.9h0l-0.1-0.1l-1.1-0.4l-0.2-0.1l-5.8-2l-12.7-3l-8.7-0.8l-0.3,0l-4.4-0.1l-0.3,0.1l-1.6,0
							c-0.5,0-1.3,0-2.2,0.1l-8,0.9c-4.6,1.2-7.9,2.1-9.8,2.8L66-14.7l-0.3,0.1l-0.6,0.3l0.6-0.3L64.3-14l-0.2,0.1l-0.1,0.1h0
							l-0.2,0.1L62.4-13c-2.1,1.1-3.9,2-5.4,2.9l-2.7,1.8L54.2-8.2L54.2-8.2 M70.6-4.3l0.2-0.1l0.1-0.1l0.4-0.1l0.6-0.3L72.3-5
							l4-1.6L78.1-7c0.2-0.1,0.3,0,0.3,0.1L79-7.4L81.1-8h0.2l0.3-0.1L82-8.2c0.2-0.1,0.1-0.1-0.1-0.1c-0.4,0-0.7,0.1-0.8,0.1
							l3.2-0.9c0.7-0.1,1.1-0.1,1.2,0c0.1,0.1-0.2,0.1-0.7,0.3c1.9-0.3,3.4-0.6,4.4-0.7l1.6-0.2h0.4l0.2-0.1h0.2l1.8-0.1
							c0.2,0,0.5-0.1,1-0.1l0.4-0.1l4.5,0c0.5,0,0.8,0,1.1,0c0.5,0,0.9,0,1.1,0.1h0.6l0.3,0.1h0.3l6.8,0.9c2.1,0.4,3.6,0.7,4.7,1
							c1.3,0.3,2.8,0.7,4.6,1.3l5.5,1.9l0.1,0.1l2.3,0.9l0.3,0.2l4.2,2c1,0.5,2.1,1.1,3.3,1.8c0.9,0.5,1.8,1.1,2.6,1.7l1.1,0.8
							l0.3,0.2l1.1,0.8l0.1,0.2l0.4,0.3l0.7,0.6c-0.1-0.2-0.3-0.4-0.7-0.8l-0.2-0.2l-0.1-0.1l-0.1,0l-0.1-0.1l-2-1.8L137,1.1
							l0.7,0.4c0.2,0.1,0.4,0.2,0.6,0.4l1.7,1.3l0.1,0.2l0.3,0.2l0.2,0.1c0,0.1,0.1,0.3,0.2,0.4c0.1,0.1,0.1,0.2,0.2,0.3l0.2,0.3
							l2.3,2.8l0.4,0.8v0.1l0.1,0.2l0.2,0.4l0.6,0.3l0.1,0.1h0.1l0.4,1.1l0.8,1.1l0.2,0.4l0.4,0.6l1.5,2.4l0.1,0.2l0.9,1.8l0.1,0.3
							l1.2,2.6l0.1,0.2l0.1,0.1l3.5,8.2l0,0.1h0.1v0.1l0.1,0.1l1.2,3.4l-0.2-0.9c0-0.3,0.1-0.1,0.4,0.6c0,0.1,0,0.3,0.2,0.8l1.3,3
							l0.2,0.7c0.1,0.1,0.1,0.3,0.1,0.5l1.9,4l0.6,0.9c0.1,0.2,0.1,0.2,0.1,0.1c0,0,0-0.2,0-0.4l1.1,2.8c0.8,1.5,0.7,1.5-0.2,0.1
							l1.8,3.2l0.1,0.1l0.2,0.3l0.3,0.4l-1.1-2l2,3l0.1,0.1l3.9,4.8c1,1,1.6,1.6,1.8,1.8l-1.2-1.5l3.3,3.8l0.1,0.2l0.1,0.1l0.1,0.1
							l0.6,0.8l0.2,0.5l-2.3-2.3l1.1,1.2l0.1,0.1l6.6,7.3l-0.6-0.8l0.2,0.2l0.6,0.7l0.1,0.1v0h0.1l0.1,0.1l0.3,0.3l0,0.1l0.2,0.2
							l0.1,0.2l0.1,0.1l0.1,0.1l0.6,1.1c0.4,0.6,0.7,1.1,0.9,1.7c0.6,1.2,1.1,2.5,1.3,4v0.1l0.1,0.2l0.1,0.3V75l0.1,0v0.1l0,0.3v0.3
							l0.1,0.3v0.3l0.1,0.3c0,0.9,0,1.5-0.1,1.9l-0.4,1.6l-0.1,0.2l-0.1,0.2l-0.1,0.2l-0.1,0.1l0,0.1l-0.2,0.3l0,0.1h-0.1l-0.1,0.1
							v0h-0.1l-0.1,0.1l-0.1,0.1l-0.2,0.2l-0.1,0.1l-0.2,0.1l0,0.1L181,82l-0.1,0.2l-0.2,0.1l-0.1,0.2c-0.5,0.4-0.9,0.6-1.4,0.8
							l-1.6,0.7l-0.4,0.1l-0.1,0l-0.1,0.1l-0.3,0l-0.2,0.1l-0.1,0.1l-2.3,0.5l-0.4,0.1l2,0.1l-3.8,0.8c0.2-0.1,0.6-0.3,1.1-0.7
							c0.4-0.3,0.7-0.5,0.9-0.6l-8.1,0.4c-0.2,0-0.6,0.1-1,0.1l-8.9,0.7h-0.2l-0.4,0.1h-0.1l-0.1,0l-0.6,0.1h-0.1l-0.1,0.1l-0.2,0.1
							l-0.4,0l-3,0.9c-1,0.3-2,0.8-3.1,1.3c-1,0.5-2,1.1-2.9,1.9l-1.6,1.4h-0.1l0,0.1l-0.9,0.9c-0.9,1-1.6,2-2.1,2.8
							c-0.6,1.1-1.2,2.2-1.7,3.5c-0.4,1.1-0.6,2.4-0.8,3.8c-0.1,1.2-0.1,2.4,0.1,3.7l0.1,0.5v0.3l1.8,6.4l0.2,0.3l0.1,0.3l0.3,0.6
							c0.6,1.4,1.3,2.9,2.1,4.5c0.5,1.2,1.2,2.5,2,3.8l3.8,7.3c0.6,1.4,0.7,1.9,0.4,1.5l-0.7-0.8c0.5,0.9,0.9,1.7,1.4,2.4l0.3,0.6
							l0.8,1.5c0.1,0.4,0.1,0.5-0.1,0.3c-0.2-0.2-0.3-0.4-0.5-0.8c0.1,0.2,0.4,0.8,0.8,1.8c0.3,0.5,0.4,0.8,0.5,0.9l-0.2-0.6l0-0.3
							c0-0.2,0-0.3,0-0.4c0.1-0.1,0.1-0.2,0.2-0.3c0.1-0.1,0.1-0.2,0.1-0.4l1.7,4l-0.3-0.1c0,0.2,0.2,0.4,0.4,0.8l0.5,0.8l0.1,0.2
							v-0.1l0.1,0.1l1.3,2.8l0.4,1.4c1,3.4,1.6,6.9,2.1,10.4l0.3,4.4l0,0.4l-0.1,6.1L157,164l-0.1,2.6l-0.1,0.8
							c0.1-0.4,0.1-0.5,0.2-0.3v2.3l0.1-0.3c0.1,1.3,0.1,2.8,0,4.3l-1.2,12.4v0.5c0,0,0.1,0.1,0.3,0.3c0,0.1,0,0.2,0,0.3l-0.2,0
							l0.6,2.9c0,0.3,0,0.5,0,0.4l-0.3-1.6c0,0.3,0,0.4,0,0.3c-0.1-0.4-0.2-0.6-0.3-0.8l0.2,1.8c0,0.1,0.1-0.1,0.1-0.5
							c0.4,1.4,0.7,2.4,0.7,3c0.1,0.4,0.1,0.7,0,0.9l-0.1,0.2l0.1,0.9c0.3,1.6,0.7,4,1.4,7.1l4.4,21.2c0,0.1-0.1,0-0.2-0.3l1.8,8.1
							c0,0.5,0,0.9-0.1,1.3c0,0,0.1,0.1,0.2,0.5l3.1,14.3l0.6,0.1c0.2,0.9,0.3,1.6,0.1,1.9c-0.1,0.3,0,0.8,0.3,1.7
							c0.3,0.3,0.6,1.2,0.9,2.7c0.3,1.5,0.5,2.4,0.6,2.6c0.2,0.9,0.2,1.3,0,1.2c0.3,0.2,0.5,0.9,0.7,2.1c0.1,0.1,0.1,0.1,0.1,0
							c0-0.3,0-0.4,0-0.5l0.6,1.9c0.1,0.4,0.1,0.6,0,0.7c-0.1,0.1-0.2-0.1-0.3-0.5l2.3,9.5v0l0.3,0.8v0.2l0.1,0.1l0.2,0.7
							c0.3,1.3,0.6,2.8,0.6,4.3l0.1,0.3v0.3l0.1,0.5v1c0,0.7-0.1,1.3-0.2,1.9v0.2l-0.3,1.9v0.1l-0.1,0.3v0.1l-0.1,0v0.1l-0.1,0.5
							l-0.7,2l-1.5,3.3c0.1-0.1,0.3-0.2,0.4-0.4l0.2-0.3l0.1-0.3c0.3-0.5,0.6-0.8,0.8-0.9l-0.2,0.7l-0.5,0.9l-0.1,0.4l-0.3,0.1
							l-0.5,0.6l-0.3,0.4l-0.6,0.8c-0.2,0.3-0.4,0.5-0.7,0.6l-0.3,0.5l-0.3,0.1l0.2,0.4l-0.4,0.3l-0.1,0.2l-0.1,0.1l-0.5,0.9
							l-0.1,0.1l-0.1,0.2l-0.2,0.3c-0.2,0.3-0.3,0.5-0.4,0.5l-0.3,0.4l-0.3,0.2l-0.4,0.5l-0.3,0.2l-0.5,0.5
							c-0.7,0.6-1.4,1.4-2.2,2.3l-1.3,1.1l-0.5,0.3c0.2-0.1,0.3-0.1,0.4-0.1c0.1,0,0.1,0.1-0.1,0.4c-0.1-0.1-0.2,0-0.4,0.1l-0.1,0
							l0,0l-0.3,0.2l0,0.1h-0.1l-0.2,0.2l-0.2,0.1l-0.1,0.1c-0.1,0-0.2,0-0.2,0l-0.2,0.1l-0.1,0.1l-0.2,0.1l-0.3,0.1l-0.3,0.1
							l-0.4,0.3c-0.1,0.1-0.1,0.2,0.1,0.3c-0.1,0-0.4-0.1-0.9-0.1c-0.4,0-0.4-0.1-0.1-0.3c-0.7,0.1-1.1,0.1-1.3,0.3h0.3l0.4,0.1
							l-1.2,0.1c-0.5,0-0.8,0-1.1-0.1c-0.7-0.1-1.3,0-1.9,0.1l0.7,0.3c-1.5-0.1-2.4-0.4-2.7-0.8l1,0l0.3,0l-4.6-0.9h0l0.1,0h-0.1
							l-0.1,0l-0.6-0.1l0.7,0.3h-0.1l-0.2-0.1l-0.3,0l-0.6-0.1l-1.7-0.6c-0.6-0.3-1.2-0.6-1.8-0.9l-0.1-0.1l-0.1-0.1l-0.1,0l-0.1,0
							h0l-1.2-1l-0.3-0.3l-0.1-0.1l-0.1-0.1H142l-0.1,0l-0.9-1.4l-0.1,0v-0.1l-0.5-1.1c-0.2-0.4-0.4-1-0.5-1.6l-0.3-1.1l-0.2,0.7
							l-0.1,0.3l-0.3-1.3v-0.3l-0.1-0.3l0.1,0.3l0.3,0.3v0.1h0.1l0.1,0.1c0.3,0.2,0.5,0.3,0.5,0.4v-0.4l-0.1-0.1l-0.7-11.4
							l-3.4-22.6c0-0.7,0-1,0.2-0.9c0.1,0.1,0.2,0.2,0.4,0.4c-0.2-0.7-0.3-1.2-0.5-1.4c-0.1-0.2-0.3-0.6-0.4-1.3
							c0-0.2,0.1-0.3,0.2-0.1c0.1,0.1,0.2,0.3,0.3,0.4c0-0.1-0.1-0.5-0.2-1.1c-0.1-0.3-0.1-0.5-0.2-0.5c0,0.4,0,0.7-0.2,0.8
							c-0.3,0.2-0.4,0.3-0.4,0.4l-0.4-2.1v-0.1l-0.1-0.2V252l0.3,0.1l-0.1-0.3l-0.1-0.1v-0.1l-0.1,0l-0.4-0.8l-0.1-0.1l-0.1-0.1
							l-1-2l-0.3-0.9c-0.9-1.9-2-3.9-3.4-5.9l-4.1-5.1l0.2,0.1l1.3,1.1l-1.3-1.5c0.2,0.4,0.1,0.3-0.4-0.2c-0.3-0.3-0.5-0.4-0.5-0.4
							l0,0.1l0-0.1c0,0,0,0,0-0.1c0-0.1,0-0.1-0.1-0.1l-0.1,0.1l0,0l-0.1-0.1c0-0.1,0-0.1,0-0.2c0.1-0.1,0.2-0.1,0.3-0.1h0v0.1
							l0.1,0.1l0-0.2v-0.1c-0.1-0.1-0.1-0.1-0.2,0c0.1-0.2,0.2-0.4,0.2-0.6h-0.3l-0.1-0.2l0.1,0l-0.1-0.2l-0.3,0.1
							c-0.2,0-0.3,0-0.3-0.1l0-0.1c0,0,0-0.1-0.1-0.1c-0.1-0.1-0.1-0.2-0.2-0.2c0,0.2-0.1,0.3-0.2,0.3c0-0.1,0-0.2-0.2-0.3
							c-0.1-0.1-0.1-0.2,0-0.3l-0.3,0.2c-0.1-0.1-0.3-0.3-0.6-0.4l-0.8-0.5l0.3,0.4l-1.7-1.6l-1.2-0.8l-0.1-0.2l-0.1-0.1h0.1
							l-0.8-0.5l-0.3-0.1l-0.8-0.4l0-0.1l-0.1-0.1l-0.2-0.1l-0.7-0.3l-0.1-0.1l-1.6-0.6c0.1,0.1,0.3,0.1,0.4,0.2h0l-0.5-0.3
							c-0.7-0.3-1.3-0.5-1.9-0.6l-0.2-0.3l-0.1-0.1l-0.3-0.1v-0.1h0l-0.4-0.1l-0.1-0.1c0,0.1,0,0.2,0,0.3c0,0.1-0.1,0.1-0.1,0.1
							c-0.2-0.1-0.3-0.1-0.3,0c-0.1,0.1-0.2,0.1-0.4,0.1c-0.2,0-0.4,0-0.6-0.1l-0.6-0.2c-0.5-0.1-1.1-0.3-1.8-0.6l-1.3-0.5l-0.5-0.3
							l-0.3,0.1H105l-0.2-0.1l-0.1-0.1c-0.4-0.1-0.7-0.1-0.8-0.1l0.1-0.1l-1-0.2l-0.4-0.1l-0.7,0h-0.1l-0.3-0.1h-0.3l0-0.1l-0.5-0.1
							h-1.3l-0.7,0.2l-0.2,0h-0.1l-0.2,0.1l-0.2,0.1l-0.1,0.1l-0.2,0.1l-0.2,0.1h0.2l-0.3,0.2l-0.3,0.1h-0.1l-0.3-0.1
							c-0.1,0-0.2,0-0.3,0l0.1,0.3l-0.1,0.3l-0.3,0.3l0-0.1l-0.2,0.2l-0.2,0.3l0,0l-0.2,0l-0.2,0.1l-0.1,0.1l-0.2,0.1h0v0h-0.1
							l-0.6,0.4l-0.1,0.1h-0.6c-1.2-0.1-2.3-0.2-3.2-0.4c-0.3,0.3-0.5,0.6-0.8,0.9l0.3,0.9v0.7l0.3,0.9c0,0.1-0.1,0-0.2-0.2
							l-0.2-0.3l0-0.2l-0.1,0V230l-0.4-1.5c0,0,0,0,0,0.1l0.3,1.6l0.2,0.6l0.3,0.4c0.1,0.4,0.1,0.6,0,0.6l0,0.1
							c-0.1,0-0.1,0.1-0.1,0.2l0.1,0.5l0.4,1.1l0.3,0.4l0.2,0.5l0.1,0.2l0.1,0.1l0.3,0.6l0.3,1h-0.1l0.2,0.6l1.8,2.9l0.3,0.3
							l0.8,1.6l0.4,1.2l0,0.3l-0.2-0.3l1,3.3l0.3,1.3c0-0.3,0-0.5,0-0.6c0.1-0.1,0.2,0.1,0.3,0.6l0.6,3.1l0.1,1.7l0.1,0.3l0.2,0.3
							l0.2,0.7l0.1,4.4l-0.1,0.9v0.3l-0.1,0.6v0.3l0,0.1v0.1l-0.1,0.6v0.1l-0.1,0.2l-0.3,1.6v0.1l-0.1,0.1l0,0.3l-0.4,1.5l-0.1,0.2
							v0.1l-0.7,2c-0.7,2.1-1.5,4.4-2.5,6.7c-1.1,2.6-2,4.8-2.9,6.4l-0.7,1.3l-3.8,6.3l-0.1,0.1l-2.1,2.7l-0.2,0.1l-0.6,0.7
							l-0.1,0.2l-0.1,0h0l-0.1,0.1l-0.9,0.9l0.2-0.3l-0.4,0.5h0v0l-3,2.9c-0.4,0.4-1.1,1-2.1,1.8l-1.1,0.9l-0.3,0.3l-0.8,0.6
							c-0.4,0.3-0.7,0.6-1.1,0.8l-0.3,0.2l-0.4,0.2l0,0.1l-0.1,0l-0.2,0.1l-0.2,0l-1.4,0.6l-12.7-0.1c-2.1-0.2-3.9-0.5-5.4-1
							c-0.7-0.2-1.5-0.5-2.4-0.9l-0.3-0.1l-0.3-0.1l-1-0.5l0,0h0l0,0l-0.2-0.1l-0.5-0.3l-0.9-0.6l-0.2-0.1l-1.8-1.4l-0.6-1
							c0-0.1-0.1-0.2-0.1-0.2l0-0.1l-0.1-0.1l-0.1-0.3l-0.1-0.3l-0.5-0.8v-0.1l0-0.1l0-0.1l-0.3-0.9v0.3l-0.1,0.1l-0.2-0.1v0
							l-0.1-0.1l-0.8-2.5c-0.1-0.3-0.1-0.4-0.2-0.5l-0.3-0.5l-1.5-6.3l0-0.5l0-0.1v-0.1l-0.1-0.3v-0.9l0.8-3l3.2-6.9l0.6-1
							c1.3-2.3,2.4-4.5,3.3-6.6l0.7-1.6l1.5-5l0.9-5.3v-0.6l0.1-0.1v-0.8l0-0.4v-1.7l0-0.3l-0.1-1.3l-1.4-6.4
							c-0.7-2.5-1.3-4.5-1.9-5.9l0.2,0.3l-1.8-5.1c-0.7-2-1.8-4.7-3.1-8l-0.1-0.3l-3.8-6.5l-3.6-7.2l0.1,0.5l-0.9-1.8l-1-3.8
							c-0.1,0.2-0.5-0.2-1-1.1l-0.9-2.3l0.1,0l-0.6-1.6l-1.9-6.7l0.3,0l-0.4-2.3l-0.1-0.2v-0.1l-0.3-3.5l-0.1-0.1V181l0.1-0.9v-0.7
							l0.1-0.2l0.3-3.4l0.1-0.4c0.1-0.7,0.3-1.9,0.5-3.4l0.9-0.9l0.3-0.5l0.1-0.2l0.3-0.5v-0.1c0.1-0.2,0.1-0.4,0.1-0.7l0.3-0.7
							l0.3-0.1l0.1-0.3l0.1-0.6c0.1-0.9,0-1.8,0-2.9v-0.3l0-0.1l0-0.5v-0.2l-0.3-1.7l-0.1-0.3v-0.1l0-0.1V161l-0.2-0.6l0.1,0.1
							c-0.3-0.9-0.8-1.8-1.4-2.7l-2.1-2l-1.1-0.7l-0.1,0l-0.1-0.1l-0.3-0.1l-0.3-0.1l-1.3-0.4l-2.7-0.4H21l-0.4,0.1
							c-1.3,0.1-2.2,0.2-2.8,0.2l0.4-0.1h-0.4l-0.1,0.1l-0.6,0.1l-0.4,0.1l-0.4,0.1l-1.1,0.3l-0.4,0.1l-0.6,0.1L14,155l-1.5,0.4
							l0.4-0.1c0.1,0,0.2,0,0.2,0c0.1,0,0.1,0-0.1,0.1l-0.6,0.3c-0.8,0.2-1.7,0.6-2.7,1.1l-2.2,0.9l-1.2,0.9L0,162.4l-0.2,0.2
							l-10.9,6.6c-4.1,2.3-7.5,4.2-10.2,5.6l-6.9,3.1l0.2-0.1l-3.5,1.1l-1.5,0.3h-0.1l-0.2,0.1h0l-2.8-0.6l-2.1-0.8
							c-0.7-0.3-1.3-0.6-1.8-0.9l-0.8-0.6v-0.1h0l0-0.1l-0.2,0V176h0l-0.4-0.4l-0.1-0.1l-0.3-0.4l-0.5-0.6l-0.9-1.9l-0.8-2.3
							l-1.1-5.3v-0.3l-0.1-0.1l0-0.3v-0.3l-0.1-0.8c-0.2-1.2-0.3-2.4-0.3-3.8l0.3-1.8v-0.3l0-0.2v-0.1l0.5-2.4l-0.2,0.4l-0.1,0
							l0-0.2l0.5-2.1l0-0.3c0-0.1,0-0.2,0-0.4c0-0.4,0.2-1.2,0.7-2.3l0.5-1.1l0-0.2l0.1-0.1l0.3-0.6l0.1-0.1l0-0.1v-0.1l0.5-0.9
							l0-0.1l0.4-0.7l0.3-0.4l0.8-1.4c1-1.5,1.9-2.8,2.7-3.9c1.2-1.6,2.2-2.9,3.2-4l3.5-3.8l0.1-0.1l0.8-0.7v0l0.1-0.1l1.6-1.4
							l0.1-0.1l0.2-0.2l0.5-0.3c0.9-0.7,1.9-1.5,3-2.2l3.9-2.6c0.7-0.5,1.3-0.8,1.9-1.1l3.8-2.1l-0.1,0.1h0.1l0,0l2.3-1l0.1-0.1
							l7.6-2.1c2-0.4,4.3-0.8,6.9-1.2l4.6-0.7H5.9l1.7-0.3c0.4,0,0.7,0,1,0c0.4,0,0.7,0,0.9,0.1h1.3c-0.1-0.2,0.3-0.4,1.1-0.6
							l2.1-0.3l0,0.1l7.7-1.2l-0.1,0.3l9.7-2.7c1-0.5,1.5-0.8,1.6-0.8c0.5-0.3,1.1-0.7,1.8-1.2c0.7-0.5,1.2-1,1.7-1.5
							c0.6-0.6,1.1-1.2,1.6-2l0.6-1.1l0-0.2l0.9-1.3l0.1,0.2l0.5-1.2l0.2-0.3l0.5-1.7l0.1-0.3v-0.1l-0.1,0.4l-0.2,0.7l0.5-1.6v0.2
							l-0.3,1.4l0.4-1.2l0.1-0.2v-0.1l0.5-1.8c0-0.1-0.1,0.2-0.3,0.9l1.1-6.9l0.2-0.5l0.2-0.3c0.2-0.3,0.3-1,0.4-2.2l0.2-1.8l0-12.4
							c-0.1-3.9-0.3-8.6-0.7-14l-0.3-3.5v-0.4l0-0.3l-0.5-9.3c-0.1-2.5-0.1-4.7-0.1-6.7v-1.2l0-0.4l0.2-4.6l0-0.2
							c0.1-0.3,0.1-0.3,0.1-0.1v0.2l0-0.5l0.1-0.3v-0.3l0.1-0.8l0-0.1v-0.1l0.5-2.8l2.5-8.3l0.7-1.2l0.5-0.6l0.3-0.8l3-6.2v-0.1h0.1
							l0-0.1l1-1.6l0.2-0.2l0.1-0.3l1-1.4c0.8-1.1,1.8-2.2,3-3.4l4.9-4.1l0.3-0.1L61,1.3L61.4,1l0.1-0.1l0.1-0.1l0.6-0.4V0
							c0.9-0.6,1.6-1,2-1.1c0.1,0,0.3-0.1,0.7-0.2l0.7-0.2l2-1l1.3-0.9L70.6-4.3 M202.9,114.9C203,114.9,203,114.9,202.9,114.9
							c-0.1-0.2-0.2-0.3-0.2-0.3l0.3,0.1l0.9,0.4c0.2,0.2,0.3,0.3,0.3,0.4c0,0.1-0.2,0-0.4-0.1l1.1,0.7l0.4,0.4l0.3,0.1l2.6,2.2
							l0.6,0.6l0.1,0l0.1,0.1l2.2,2l0.2,0.2l1.1,1.1l0.2,0.2l0.8,0.8l5.5,6.7l2.3,3.5l-0.3-0.8l-0.1-0.3l-0.3-0.6l-0.1-0.5l0.3,0.3
							l0.7,1.1l0.3,0.3c-0.1,0.2-0.1,0.4,0.1,0.6l0.1,0.4l0.3,0.6v0.1l0.1,0.1v0.1l-0.1-0.1l0.2,0.5l0.1,0.5v0.4l0.4,0.1v0.5
							l0.1,0.1v0.1l0.1,0.2l0.9,2.1l1.6,5.8l0.1,0.9c0-0.2,0-0.3,0.1-0.3c0.1-0.1,0.1,0,0.2,0.2l-0.1,0.1v0.3l0.1,0.6
							c0.1,0.6,0.2,0.9,0.1,1v0.3l0.1,1.1l0.1,0.2v0.1l0.1,0.2c0.1,0.1,0.2,0.1,0.3-0.1l-0.1,0.4l-0.1,0.6l-0.1,0.3
							c0,0-0.1-0.1-0.1-0.3l-0.1,0.8l-0.1,0.1v0.1v0.6l0.1-0.1v-0.2l0.1-0.4l0-0.1v0.1l0,0.2v0.4l-0.1,0.2v0.1l-0.1,0l-0.1,0.3v0.2
							l-0.1,0.2l-0.3,1.1v0.4l0.3-0.4v0.1l-0.3,0.7l-0.1,0.1l-0.2,0.3l-0.1,0.1l-0.1,0.1l-0.2,0.1l0.1-0.1v-0.1l0.1-0.2l0.1-0.3
							c-0.3,0.6-0.5,1-0.8,1.4l-0.9,1.4l0.3-0.3l-0.2,0.3l-0.1,0.1l-0.1,0.1l-0.1,0.2l-1,1c-0.7,0.5-1.2,0.9-1.6,1.1
							c-0.4,0.3-1,0.6-1.9,1.1l-1.5,0.8l-0.2,0.1v0.1h-0.1l-4.4,1.4l0.8,0.3l-1.4,0.4c0,0,0.2-0.2,0.4-0.5c0.2-0.3,0.3-0.4,0.3-0.4
							H211c-0.8-0.1-1.6-0.2-2.4-0.4l-0.4,0l-0.4-0.1l-0.5-0.1l-0.2-0.1l-0.4-0.1l-0.4-0.2l-0.2-0.1l-2.1-1.1l-1.6-1.1
							c-0.9-0.7-1.9-1.5-2.9-2.5l-0.5-0.5l-0.2-0.2l-2.4-2.4c-0.7-0.7-1.7-1.5-2.9-2.4l-1.7-1.2l-0.2-0.1l-0.2-0.1
							c-0.6-0.4-0.7-0.6-0.5-0.7l0.6,0.1l-1-0.5l-0.4-0.1c-0.1,0-0.2,0-0.3-0.1l-0.8-0.4c-0.2-0.1-0.2-0.2,0-0.2
							c0.1,0,0.3,0,0.4,0.1l-0.9-0.5c-0.2-0.1-0.4-0.2-0.5-0.2c0.3,0.2,0.5,0.4,0.5,0.6c0,0.3,0,0.5,0,0.6l-0.5-0.3l-1.5-0.7
							l0.2-0.2c-0.1-0.1-0.5-0.1-1.1-0.1l-1.6-0.4l-0.4-0.1l-0.4-0.1c-1.6-0.6-3.3-1.1-5.3-1.6l-5.4-0.9c0-0.1,0.2-0.1,0.5-0.1h1.1
							l-1.6-0.3c0.5,0.3,0.2,0.3-0.9,0.2c-0.7,0.1-2.1,0.1-4.2,0.1H167l-2.1-6.4l-0.1,0v-0.1l-0.3-0.8l-0.1-0.4l-0.1-0.2
							c-1.4-3.3-2.7-6.4-4.1-9.2c-1-2.1-1.8-3.8-2.6-5.2l-5.5-10.4l-2-5.3l-0.1-0.3l-0.1-0.5l-0.1-0.3v-0.1l-0.1-0.1v-0.2l-0.1-0.4
							V105c-0.1-0.4-0.1-0.8-0.1-1.2v-0.2l0.3,0.2l0.5,0.3l1.7,0.6l0.2,0.1l0.2,0.1l0.8,0.3l6.8,1.7l15.3,1.7c0.1,0.1,0,0.1-0.3,0.1
							l6.6,0.5c0.3,0.1,0.6,0.2,0.9,0.4c-0.1-0.1,0.1-0.1,0.4,0l9.7,1.8l0.1,0h0.2l1.1,0.3l0.3-0.3c0.7,0.2,1.1,0.4,1.3,0.7l0.3,0.2
							l0.3,0.2l0.6,0.2h0.4l0.5,0.1l2.4,1.1l0.2,0l0.4,0.1c0,0,0.1,0.1,0.3,0.3c0.3,0.1,0.4,0.2,0.4,0.3h0.3l0.3,0.2L202.9,114.9
							 M165.8,191.3c0.1,0,0.1,0.1,0.1,0.4v0.6c-0.1-0.2-0.1-0.3-0.1-0.5L165.8,191.3 M30,171.1l0.2-0.3l0.3-0.4l0.1-0.1l0.3-0.5
							l0.3-0.7c0.1-0.1,0.1,0,0.1,0.3v0.3l-0.1,0.1l-0.4,1l-0.1,0.1v0.1l0,0.1l-0.4,0.6l-0.3,0.3C30,171.7,30,171.4,30,171.1
							 M71,302.8l-0.1,0.1l-0.1,0.3l-0.1,0.1l0.1-1.2l0,0.1l0.2,0.4l0.1,0.1V302.8 M-33.7,180.1l-0.1,0.2c0.1-0.1,0.2-0.4,0.3-0.9
							l0,0.3v0.1h0L-33.7,180.1z"/>
					</g>
				</g>
			</g>
		</g>
	</g>
</g>
</svg>
