<?xml version="1.0" encoding="utf-8"?>
<!-- Generator: Adobe Illustrator 24.1.2, SVG Export Plug-In . SVG Version: 6.00 Build 0)  -->
<svg version="1.1" id="Layer_1" xmlns="http://www.w3.org/2000/svg" xmlns:xlink="http://www.w3.org/1999/xlink" x="0px" y="0px"
	 viewBox="0 0 256 256" style="enable-background:new 0 0 256 256;" xml:space="preserve">
<style type="text/css">
	.st0{fill:#FFFFFF;}
</style>
<g id="jump7">
	<g transform="matrix( 0.6996917724609375, 0, 0, 0.6996917724609375, 57.25,20.7) ">
		<g id="jump">
			<g transform="matrix( 1, 0, 0, 1, 0,0) ">
				<g>
					<g id="jump_6_Layer0_0_FILL">
						<path class="st0" d="M49.3-0.6l-0.4,0.4l-0.4,0.3l-5,5.3C42.3,7,41.4,8.2,40.9,9l-2.2,3.8l0,0.1l-1.6,3.1
							c-1.1,2.3-1.9,4.2-2.5,5.8l-1.4,4l0.4-1l-1.5,5L32,30.1l0,0.3l-1.2,4v0.3l-0.2,1v0.1l-0.1,0v0.3c0.1-0.2,0.2,0,0.3,0.5v6.8
							l-0.1-0.1l1,15.9l-0.3-0.2l1.6,21.4v16.3l0-0.2v-0.2l-0.3-1.3v0.3l0.4,2.1v3.9l0,0.3l0,0.2v0.1l-0.3,1.9h-0.2l0,0h-0.1
							l-0.1,0.1h-0.1l-0.2,0h-0.3l-0.1,0.1l-1.3-0.1c-0.5,0-1,0-1.5-0.1c-0.5-0.1-1-0.2-1.5-0.3l-10-3.3l-0.4-0.2l-5.9-1.8
							c-0.1-0.1,0.1-0.1,0.4,0L6,97.2l-0.3-0.1L2,96.4l-0.9-0.3l-0.4-0.3H0.6l-1.2-0.2h-0.2l-0.2-0.1l-3.4-0.3
							c-0.7-0.1-1.8-0.1-3.3-0.2c-2.4,0-4.6,0.1-6.6,0.4c-1.3,0.2-2.4,0.4-3.3,0.7l-0.1,0.4l-1.9,0.5H-20l-0.1,0.1h-0.1l-0.2-0.1
							l-0.4,0.1l-0.7,0.2l-0.2,0.1l-0.5,0.1l-0.5,0.4l-5.1,2.1c-0.9,0.4-1.4,0.5-1.4,0.4c-0.2,0.2-0.5,0.4-0.9,0.5l-1.3,0.6
							c-0.1,0.1-0.1,0.1,0.1,0.1c0.2-0.1,0.4-0.1,0.5-0.2l-1.9,1c-0.4,0.2-0.6,0.2-0.7,0.2c-0.1,0,0-0.2,0.5-0.4l-8.2,4.5h0v0h-0.1
							l-0.1,0.1l-0.3,0.2l-0.5,0.3l-0.1,0.1l0,0.1l-0.5,0.3l-0.3,0.3l-1.5,1.1c-1.4,1-3,2.3-5,4c-1.1,0.9-2.6,2.4-4.5,4.3l-2.8,3
							l-0.1,0.2h0v0l-0.1,0.2l-0.6,0.8l-0.1,0.2v0.1l-0.1,0l-0.8,1.1l-0.2,0.2l-2.6,4.2l-0.5,0.9l-0.1,0.2l-0.5,1.3l1.6-2.5
							c0.2-0.3,0.4-0.5,0.5-0.7l-0.3,0.6l-0.1,0.3l-0.1,0.3l-0.6,1.1l-0.1,0.3c-0.1,0.3-0.2,0.5-0.2,0.6c-0.2,0.1-0.5,0.4-0.6,0.7
							l-0.5,1l-0.1,0.1l-0.1,0.2l-1.3,2.6l0.1,0.6l-0.4,0.8l-0.1,0.3l-1.2,6.1v0.1l0,0.2l-0.2,1.3v0.3l0,0.1l-0.1,0.9l0,0.4v1.3
							c0,0.4,0,0.8,0,1.1l0,0.9c0,0.9,0.1,2,0.2,3.5l0.1-0.6c0.1-0.2,0.1-0.1,0.2,0.4l-0.1,0.5l0.2,1.1c0.2,1.1,0.3,1.7,0.3,1.9
							l0.2,0.5l0.1,0.3l0.8,2.4l0.3,0.3c0.1,0.2,0.1,0.1,0.1-0.2l0.1,0.4l0.7,2.3c0,0.1-0.1-0.1-0.4-0.5l0.8,1.5
							c0.3,0.6,0.6,1,0.9,1.3l-0.8-1.4c0.4,0.7,1,1.5,1.7,2.3l0.7,0.8l1.9,1.8l0.2,0.1l0.7,0.5l0.7,0.4l-0.9-0.9l3,2.3l0.5,0.6
							l-0.1-0.1l-0.1-0.1l-0.3-0.1l-1.3-0.9c0.8,0.6,1.5,1,2,1.3l0.5,0.3l2.5,1.3l0.1,0.1l0.1,0.1l2.5,0.8l-0.8-0.3l2.6,0.6h0.1
							l0.2,0.1h0.2l0.2,0.1l0.5,0h0.1l0.2,0.1l2.3-0.1l3.8-0.7c0.9-0.2,2.2-0.5,3.7-0.9l6.5-2.1c1.6-0.6,2.9-1.1,3.9-1.6l-1.3,0.1
							l2.1-1c-0.1,0.1-0.2,0.3-0.5,0.7c-0.2,0.3-0.4,0.5-0.5,0.6c2-0.6,4.4-1.4,6.9-2.4c2.6-0.9,6.1-2.2,10.7-3.9l10.3-3.8
							c0.9-0.3,2.2-0.6,3.8-1.1l2.4-0.4h0.5l0.3,0.1c0.1,0,0.1,0.1,0.1,0.2l-0.4,0.3l1-0.3l0.3-0.2c0.1-0.1,0.2-0.1,0.3-0.1l0.8-0.1
							h0.1l0.1,0.1l-0.1,0.1c-0.2,0.1-0.3,0.1-0.4,0.2h0.9l0.3-0.1l0.2-0.1l-0.4-0.1c-0.1,0-0.2-0.1-0.2-0.2
							c-0.1-0.2-0.2-0.4-0.3-0.4h1c0.4,0,0.7,0,0.9,0.1l-0.1,0.3h0.2l0.1-0.1h0.1l0.4-0.1l0.9-0.1l0.4,0.1h0.1l0.1,0h0.1l0.3,0.1
							l0.1,0.1l0.2,0.1l0,0.1l0.1,0.1l0.6,0.6l0.4,0.6l0.4,0.8l0,0.3l0.1,0.2l0.1,0.6l0,0.1l0,0.1l0.1,0.3v0.3l0,0.2v0.1
							c0.1,0.7,0.1,1.6,0.1,2.6l-0.1-0.2l-0.1-0.2v-0.2l-0.1-0.4l-0.1-0.5v0.8l-0.1,0.8c0.1-0.3,0.2-0.2,0.2,0.3c0,0.6,0,0.7,0,0.5
							c0.1,0.8,0.1,1.6,0,2.2l0,0.3v0.3l-0.3,1.4l-0.1,0.3c-0.5,2.5-0.8,4-0.9,4.4l0.4,0.5l-0.5,3.4v0.6l-0.1,0.4v1.5
							c0,1.6,0,3.2,0.2,4.8c0.2,1.8,0.4,3.4,0.6,4.7l1,4.6c0.4,1.5,0.9,3,1.4,4.5c1.1,3,2.3,5.8,3.7,8.6c0,0.2-0.1,0.1-0.4-0.3
							l2.6,4.7c0.9,1.6,1.8,3,2.6,4.3c0.2,0.5,0.3,0.9,0.4,1.4c0,0,0.1,0.1,0.4,0.5l4.2,6.1l2.8,7.4l0.5,0.1l0.2,0.5l0.3,1v0.6
							c-0.1,0.3,0.1,0.9,0.4,1.8c0.2,0.2,0.4,0.5,0.6,1.1l0.3,0.8l0.7,3.1l0.2,0.4v0.4l0,0.2c0,0.4,0,0.6-0.1,0.6
							c0.1,0,0.1,0.1,0.1,0.2l0.1,0.1l0.1,0.5v0.3l0,0.3v0.3l0,0.3c0,0.1,0.1,0.1,0.1-0.1v0l0.1-0.1l0-0.1v0.1l0,0.1v0.1l0.1,0.6
							v0.6c-0.1,0.2-0.1,0.3-0.3,0.3c-0.1,0-0.1-0.1-0.1-0.3v0.4l0,0.1v0.2l-0.3,1.1l-0.1,0.3l0,0.3l-0.1,0.2l-0.2,0.5l-0.3,0.6
							l0,0.2l-0.5,1l0,0.1l-0.7,1.2l0,0.2l-0.4,0.6l0,0.1l-0.6,0.9c-0.1,0.1-0.1,0.2-0.2,0.3l-0.2,0.3l-8,10.7l0,0.1h-0.1l0,0.1
							l-0.1,0.1l-0.2,0.2l-0.1,0.3l-0.2,0.1v0l-0.6,1.2l-0.3,0.6l-0.1,0.3l0,0.1l-0.1,0.1l-0.1,0.3c-0.3,0.7-0.5,1.4-0.6,2.1l-0.8,5
							l-0.1,5.6l0,0.7l0-0.4l0.1-0.2v-0.3l0.1-1.1c0.1-0.9,0.2-1.6,0.4-1.9c0.1,0.9,0.1,1.6,0,2.1v1l0,0.1l0.1,0.3l-0.2,0.4l0,0.3
							v0.1l-0.1,0.2v2.2l0.1,0.2v1.1l0,0.2v0.3l-0.1,1.2l0.5,0.5v1.1l0.1,0.4l1.2,3.4l0.8,1.6l0.3,0.4l0,0.2l0.5,0.9l1.7,2.5
							l0.5,0.5v0l0.1,0v0.1l1.3,1.4l1.2,1l0.3,0.3l0.5,0.4l0.1,0.1l0.2,0l4.3,3l-0.5-0.5c0-0.1,0-0.1,0-0.1l0.5,0.2
							c0,0.1,0.1,0.2,0.4,0.4l2,1.1c0.3,0.2,0.5,0.4,0.5,0.5l2,1l0.1,0.1h0l0.2,0.1h0l0,0l0.7,0.2l0,0h0.1c0.1,0,0.2,0,0.2,0
							l-0.1-0.1l-0.1-0.1h0l0.2,0.2l0.8,0.4l0.2,0.1l0.1,0l1.1,0.6c0,0-0.1,0.1-0.2,0.1l-0.5-0.2l0.8,0.4l1.6,0.5l0.6,0.1l-0.3-0.1
							l-0.7-0.3c-0.2,0-0.3-0.1-0.3-0.1l5.5,1.4l0.9,0.1h1.8l-0.5-0.2h-0.2l-0.7-0.2l4,0.4l0.8,0.3l-2.3,0.1c1.8,0.1,3.3,0.1,4.6,0
							l2-0.2h0.2l0,0h0.1l0.2-0.1l0.9-0.1l0.3-0.1l0.6-0.1l-0.6,0l0,0.1h-0.3l-0.3,0l0.7-0.1l0.3-0.1l1.3-0.3c1.4-0.4,2.5-0.7,3.3-1
							c1.3-0.4,2.6-0.9,3.8-1.5c1.2-0.5,2.5-1.2,3.8-1.9c1.2-0.7,2.4-1.4,3.5-2.2l6.8-5.3l-1.4,0.6l2-1.9c0,0-0.1,0.4-0.3,0.9
							c-0.1,0.4-0.2,0.7-0.3,0.8l4.4-3.7l5-5.2l1.3-1.6c1.1-1.5,1.8-2.5,2.1-2.9l1.9-2.9l0.1-0.2l3.1-5.9c0.3-0.7,0.8-1.7,1.3-3
							l1.2-2.8c0.7-1.7,1.2-3.2,1.6-4.7l0.3-0.9l0.1-0.2l0.8-2.7l0.2-0.4c0.1-0.1,0.1-0.1,0.2,0c0.1,0.1,0.1,0.4,0.1,0.8l0.2-1.5
							l0-1.1l0.1-1.3c0.1-0.2,0.1-0.3,0.2-0.1l0,0.4l0.1,0.2v-0.3l0.2-1.1l0-0.1v-0.4l0-0.3c-0.1,0.6-0.3,0.9-0.5,0.9
							c-0.3,0.2-0.5,0.3-0.5,0.4l0.2-1.6v-0.4l0.1-1.2l0.3,0.2c0-0.2,0-0.4-0.1-0.6l-0.4-2.3l-0.1-0.8c0.1,0,0.1,0.1,0.2,0.1
							c0.1,0,0.2,0.1,0.2,0.2c0,0-0.1,0.1-0.3,0.1c0,0,0.1,0.1,0.1,0.2c0,0.1,0,0.1,0.1,0.1c0-0.1,0.1-0.2,0.3-0.3
							c0.2-0.1,0.4-0.2,0.4-0.3l0.1,0.4l-0.3,0.1l0.4,0.1c0.3,0.1,0.4,0.2,0.4,0.3l0.1,0.3l0,0.3l0.7,1.6c-0.1,0-0.3,0-0.4-0.2
							c0.1,0.1,0.1,0.2,0,0.3c0.1-0.1,0.2,0,0.3,0.1c0.1,0.1,0.1,0.1,0.1,0.1l0.3,0.2l0.2,0.9c0-0.3,0-0.5,0.1-0.6l0.1,0l0,0.2
							l0.2,0.4l0.7,5l0.5,1.4l0.7,5.2v0.3l0.1,0.9v0.6l0.1,0.3l-0.1,4l0,0.1v0.3l-0.1,0.1v0.4l0,0.1v0.2l-0.1,0.4v0
							c0,0,0-0.1,0.1-0.1v0l-0.1,0.1l-2.4,14.7l-0.4,8.1l0.6,5.4c0.2,1.5,0.5,2.9,0.8,4.3l-0.1-0.3l0.7,2.5l0.1,0.4l0.8,2.4v0.1
							l0,0.1l0.1,0.2l1.9,4.6l1,1.8c0.8,1.3,1.7,2.5,2.8,3.5c1.1,1.1,2.3,2.1,3.7,3l2.5,1.3h0l0.2,0.1l0.5,0.2l0.1,0l0.2,0l0.1,0.1
							l0.2,0l0,0.1l3.7,1.3c2.7,0.9,4.8,1.6,6.5,2.1l4.3,1.3h0.1l0.4,0.1l1.7,0.4c1.1,0.3,2.2,0.6,3.3,0.8c1.3,0.2,2.4,0.4,3.5,0.4
							l0.4,0.1h2.5l0.6-0.1h0.4l0.1-0.1h0.2l0.3-0.1h0.1l0.3-0.1h0.1l2.4-0.7l0.5-0.1l0.1-0.1h0.1l0.3-0.1l0.3-0.1l0.8-0.3
							c0.6-0.2,1.3-0.5,2.1-0.9c0.8-0.4,1.5-0.9,2.1-1.4l1-0.8l0.2-0.2l0.6-0.4l0.1-0.2h0l-0.2,0.2l-0.6,0.4l-0.1,0h-0.1
							c0,0,0,0,0,0v-0.1l0.6-0.6V329h0.1l0.3-0.3v0l0.1-0.2h0.1l0.1-0.1l0.5-0.5l1-1.2l0.3-0.4c0.2-0.3,0.3-0.4,0.3-0.5l0.3-0.6
							l0.6-0.9l2.4-4.7v0l0.2-0.5l0.1-0.1l0.3-0.8l0.1-0.2l0.3-1.1l0.1-0.1v0l0.1-0.4V316l0.1-0.1v-0.1l0.3-2.1v-0.4l0.1-0.8v-0.4
							l0.1-0.4v-0.2l0.1-0.2l0.9-31.1c-0.2-1.1-0.3-2.9-0.4-5.4l-0.1-3.4l-0.1-0.4V271l-0.1-1.3l0.1,0.4l-0.8-15.3l-1.7-12.4
							l0.1,0.6c-0.1-0.4-0.3-1-0.4-2L174,237c-0.1,0.1-0.2,0-0.4-0.3l-1.2-3.4l0.2,0l-2.5-8.4l0.3,0.1l-5.4-17.3l-0.9-2.1v-0.1
							l0.1-0.3c0,0,0.1-0.1,0.1-0.1c0.1,0,0.1-0.1,0.1-0.2l0.1-0.1l0.1-0.5v-0.2l0-0.2l0.3-4l0.1-0.4v-0.2l0.1-0.4v-0.3l0.3-1.4
							l0.1,0.1l0.6-3.1l0.8-11v-0.3l0-0.3l0.1-0.5l0.1,0.6l0.3-9.4l-0.1,0.3c0,0.2,0,0.3-0.1,0.4c0,0.1,0,0.1-0.1-0.2l-0.1-0.5v-1.5
							l-0.1-0.4v-1.1l0-0.4l-0.1-2l-0.1-0.1v-0.3l-0.1-0.6v-0.4l-0.1-0.1v-0.2l-0.4-4l-1.3-6.1c-0.2-0.9-0.5-2.3-0.8-4.1l-2.3-8.1
							c0.2,0,0.3,0.1,0.6,0.1l2.2-0.1l0.7-0.1h0.7c0.4,0,0.9,0,1.5,0.1l-0.3,0.1l3.2,0.3l0.5,0.1l-0.4-0.2l0.1-0.1h0.4l3.4,0.6
							l0.4,0.2l1.1-0.1l2.6,0.6c1.2,0.3,2.3,0.7,3.4,1.2l3.3,1.6l0.2,0.2l0.2,0l0.1,0.1l2.6,1.9l0.4,0.4l0.2,0.1l0.5,0.6l0.1,0.1v0
							l0.6,0.6l0.1,0.1l0.1,0.1v-0.1l3.8,4.2l3.6,3.1l4.3,2.7l0.2,0.1l0.3,0.2c1.3,0.7,2.6,1.2,3.8,1.5l-0.3,0l0.3,0.1l0.3,0.1
							l0.9,0.3l0.3,0.1l1.6,0.4l3.2,0.4h3.1l0.8-0.1h0.4l0.2-0.1h0.2l0.8-0.1l3.5-0.8h0.1v0h0.1l1.9-0.6c0.8-0.2,1.7-0.6,2.9-1.1
							c0.9-0.4,1.9-0.8,3-1.4s2.1-1.2,2.9-1.8l1.8-1.4l0.2-0.1l0.2-0.2l0.5-0.4l0.1-0.2l0.4-0.3l0.1-0.2l0.2-0.1l1.1-1.3l0.1-0.2
							l0.6-0.8c0.7-1.2,1.3-2.3,1.6-3.4l0.2-0.4l0.1-0.4l0.1-0.2l0.6-3.2l0.1-2.3l-0.1-0.2l-0.3-6.4l-0.1-0.8c0-0.5,0-1-0.1-1.5
							l-0.2-1.4c0,0.5,0,0.7-0.1,0.6c-0.1-0.1-0.2-0.3-0.2-0.7l-0.3-1.8l-0.2-0.6c0-0.2-0.1-0.4-0.1-0.4c-0.1,0-0.1-0.1-0.2-0.4
							l-1.2-4l-0.1-0.2l-0.1-0.2l-0.6-1.8l-0.1-0.1v-0.1h-0.1v-0.1l-0.3-0.8l-0.1-0.3l-0.1-0.3l-0.8-1.7c-1.5-2.9-3.5-5.8-5.9-8.8
							l-6.6-7.5l-5.2-4.9l-4.4-2.5c-1.7-0.9-3.3-1.5-4.6-1.9l0.3,0l-5.7-1.7l-6-1.1c-1.2-0.1-2.3-0.2-3.4-0.3l0.2-0.3
							c0.6-1.3,1.1-2.7,1.5-4.3c0.3-1.4,0.4-2.9,0.4-4.3l-0.1-2.3l-0.1-0.1v-0.1l-0.1-0.8v-0.3l-0.9-4.1c-0.7-2.4-1.6-4.7-2.9-7
							l-1.2-2.1l-0.1-0.1l-0.1-0.2l-0.2-0.3l-0.1-0.1l0-0.1l-0.1-0.1l-0.1-0.2l-0.1-0.2l-0.1-0.2l-7.1-8.4l-0.3-0.3l-0.1-0.1h-0.1
							l-0.1-0.1l-6.6-7.6l-0.1-0.1l-0.1-0.1l-0.1-0.2l-0.1-0.1h-0.1v0l-1.6-2.5c-0.8-1.4-1.6-2.8-2.2-4.2c-0.8-1.6-1.4-3-1.9-4.1
							c-0.3-0.6-0.8-1.9-1.6-3.9l-3.7-10.7c0.2,0.5,0.2,0.8,0.1,0.7l-0.3-0.5l-0.2-0.4l-0.2-0.5c-0.6-1.4-1.4-3-2.2-4.6l-0.6-0.8
							c-0.1,0-0.3-0.3-0.6-0.9l-0.3-0.7l-0.2-0.2L154,7.1L154,7l-0.1-0.1l0-0.1l-0.5-0.7l-0.2-0.2L153,5.7c-1-1.2-2.1-2.4-3.3-3.5
							l-2.1-1.9l-0.2-0.1l-0.1-0.1L147-0.1l-1.3-1c-2.8-2.2-6-4.2-9.6-6l-7.4-3.3l-0.1-0.1l-0.1-0.1h-0.1l-4.1-1.6l-10.7-3.1h-0.2
							l-7.4-1.3c-1.2-0.1-2-0.2-2.5-0.3l-7.1-0.3c-0.4,0-0.8,0-1,0l-7.2,0.4l-4.9,0.9c-1.6,0.3-3.3,0.6-5.2,1.1l-7.5,2.3
							c-0.2,0-0.6,0.2-1.2,0.4l-1.1,0.4l0.5-0.3L62.4-9L62.3-9l-0.1,0.1L62-8.8l-2.3,1.2c-1.3,0.7-2.4,1.3-3.3,1.8l-2.1,1.3
							l-0.1,0.1l-0.3,0.2l-4.4,3.4L49.3-0.6 M79.1-3.2l1.8-0.3h0.3l0.1,0c0.2-0.2,0.8-0.4,1.6-0.5l2.2-0.4c0.2-0.1,0.2-0.1-0.1-0.1
							h-0.8L86.2-5L86.6-5l0.8-0.2h0.8l0.3,0.1c0.1,0.1,0,0.1-0.2,0.1l-0.8,0.2L94-5.4h0.8L95-5.5l3.6,0.1c0.4,0,0.8,0,1,0h0.8
							l0.3,0.1l8.8,1.1l4.7,1.1l0.6,0.2l0.3,0l8.4,2.9c0.1,0,0.3,0,0.6,0.1l0.3,0.1h0.1l0.2,0.1l0.9,0.3l0.2,0.1l0.7,0.2l0.3,0.1
							l0.3,0.1c1.9,0.9,3.2,1.5,4.1,2l7.9,5.2l0.2,0.1l0.2,0.2l0.1,0.1l0.1,0.1l0.1,0.1l0.3,0.2l3.3,3.3c-0.2-0.4-0.7-1-1.4-1.8
							l-0.9-1L140,9l1.2,0.9l0.8,0.8c0.6,0.7,1,1.1,1.2,1.2l0.2,0.5l0.1,0.3l0.1,0.4l0.6,0.9v-0.1l0.1,0.1l0.1,0.1l0.6,1v0h0.1v0.1
							l0.1,0.2l0.1,0.2l0.3,0.4l0.1,0.1l0.2,0.4l0.6,1.7l0.7,0.4l0.4,1.2l2.1,3.6l0.1,0.3l1.1,2l3.4,9v0.1l0.1,0.1l0.1,0.1l0.1,0.2
							l0.2,0.4l3,7.5l-0.3-1c-0.1-0.4,0-0.2,0.4,0.6c0,0.1,0,0.3,0.2,0.8l1.4,3.1c0.3,0.5,0.4,0.9,0.4,1.2L160,48l2.3,4.1l0.4,0.5
							c0.2,0.3,0.3,0.3,0.2-0.2c0,0.1,0.1,0.2,0.1,0.4l0.9,1.7l0.2,0.2l0.2,0.4l0.2,0.3v0h0.1v0.1l0.1,0.1l0.1,0l0,0.1l0.1,0.1v0.1
							l-0.1-0.1l-0.2-0.2l-0.4-0.5l0.2,0.3l0.1,0l0.1,0.2l0.1,0.1l0.1,0.3l0.3,0.3l0.2,0.3l0.4,0.5l0.2,0.3l1.3,1.5l-1.3-1.8
							l6.4,7.6h0V65l0.1,0.1l0.1,0.1l0.2,0.3l0.9,0.8l-0.8-1.2l-0.2-0.2v-0.1l2.6,2.9c0.8,1,1.2,1.7,1.4,2.2l-2.1-2.2l4,4.9l0.2,0.3
							l0.1,0.2v0l0.1,0.1v-0.1l0.1,0.1h-0.1l0.1,0.2l0.3,0.3l0,0.1v0.1l0.1,0.1l0.1,0.2l0.1,0.1l1.3,2.2l-0.5-1.1l1.1,2.1l1.1,3.3
							l0.1,0.7v0.2l0.1,0.1v0.1l0.1,0.8c0.1,0.6,0.1,1.3,0,1.8v0.3l-0.1,0.1v0.3l-0.1,0.2l-0.1,0.1v0.1l0,0.2l-0.1,0.1v0.1l-0.1,0.1
							V86l-0.1,0.1l-0.1,0.3l-0.2,0.4l0,0l-0.1,0.1l-0.1,0.2v0.1l-0.1,0.2l-0.1,0.2h-0.1l-0.1,0.1l-0.1,0.2l-0.3,0.3l-0.1,0.1
							l-0.1,0.1l-0.1,0.1l-0.4,0.3l-0.1,0.2l-0.4,0.3l-0.5,0.3l-0.1,0.1l-0.5,0.3l-0.2,0.1l-0.2,0.1h-0.1l0,0.1l-0.2,0l-0.2,0.1
							l-0.8,0.3h-0.1h-0.1c0,0,0,0-0.1,0.1h0.1l-0.4,0.1h-0.1l-0.1,0.1h-0.1l-0.1,0l-1.1,0.2h-0.1l-0.2,0l-6.8,0.7l2.2,0.3l-2.6,0.2
							l-0.3,0.1h-0.3l-1,0.1c0.2,0,0.6-0.2,1.3-0.6h0.1l0.1-0.1l0.1,0l0.1-0.1l0.4-0.2c0.1-0.1,0.2-0.1,0.3-0.1l-11.4,0.4l-0.3,0.1
							h-0.3l-1,0.2h-0.3l-0.1,0h-0.1l-0.3,0.1l-0.1,0.1h-0.1l-0.4,0.1l-0.4,0l-1.8,0.5c-0.9,0.2-1.8,0.6-2.9,1
							c-1.2,0.6-2.1,1.1-2.9,1.5c-1,0.7-1.9,1.4-2.9,2.3l-0.2,0.2l-0.1,0l-0.1,0.1l-0.6,0.5l-0.1,0.1h-0.1l-0.2,0.2l-1.1,1.3
							c-0.8,1.1-1.5,2.1-2,3.2c-0.6,1.2-1,2.5-1.3,3.7c-0.1,0.4-0.2,1.1-0.3,2c-0.1,0.6-0.1,1.3,0,2l0.2,1.9l0.1,0.3v0.2l0.9,4
							c0.5,1.9,1,3.7,1.6,5.4l8,20.8l0.3,1l0.1,0.5c0,0.2-0.1,0.2-0.1,0.1L148,144l1.6,3.9l0.1,0.4l0.2,0.6c0.1,0.5,0.1,0.5-0.1,0.2
							l-0.2-0.4l0,0v0.1l0.2,0.6l0.1,0.3l0,0.1v0.2l0.3,0.8l0.1,0.3l0.2,0.3l-0.1-0.9c0-0.2,0.1-0.3,0.1-0.4l0.2-0.3
							c0.1-0.1,0.1-0.3,0.1-0.4l1.1,4.3l-0.4-0.2l1.5,3.9c0.2,0.9,0.4,1.8,0.6,2.7l1.1,8.1v0.1l0.1,0.2l0.1,1.1l0.1,0.2l0,1.2
							l0.1,0.1l0.1,1.5l0.1,0.2l0.1,4.3c0,1.9-0.1,3.8-0.2,5.6c-0.1-0.1-0.2-1.1-0.3-3.3l-0.2,3.4c0.2-1.1,0.3-0.9,0.1,0.8v1.1
							c0,0.1,0,0.2,0,0.2l0.1-0.3v3.2l-1.3,14.6c0,0,0.2,0.2,0.5,0.5l0.4,1.5l-0.3-1.3c0.1,0.1,0.2,0.2,0.3,0.3l0.8,2.7
							c0.1,0.3,0.1,0.5,0.1,0.5l-0.6-2.1c0.2,0.7,0.2,0.9,0.1,0.8c-0.2-0.3-0.3-0.6-0.4-0.8l0.4,1.9c0,0.1,0-0.1-0.1-0.6l0.6,1.4
							c0.3,0.6,0.4,1.1,0.5,1.5c0.1,0.5,0.2,0.8,0.1,1c-0.1,0.1-0.1,0.1-0.1,0.3l2.1,8.1c0.6,2.2,1.2,4.6,1.7,7.3
							c1,4.6,1.8,9.6,2.6,14.8c0,0.1-0.1,0-0.2-0.3l1.3,8.4c0,0.4-0.1,0.9-0.3,1.3c0,0,0.1,0.1,0.1,0.5c0.1,0.3,0.1,0.9,0.2,1.7
							l0.9,13.4l0.5,0.1c0,1.1,0,1.7-0.2,2c-0.1,0.3-0.2,0.9-0.1,1.8l0.2,0.5l0.1,0.7v3.4c0,0.6,0,1,0.1,1.1c0,0.9-0.1,1.3-0.3,1.3
							c0.3,0.3,0.4,1,0.3,2.3c0.1,0.2,0.1,0.1,0.2-0.5l0.2,2c-0.1,0.4-0.1,0.6-0.2,0.7c-0.1,0-0.1-0.1-0.2-0.5l-0.3,18l-0.7,14.7
							l-0.1,0.4l0,0.2v0.1l-0.1,0.3v0.1l-0.1,0.1l-0.1,0.6c0.1-0.1,0.2-0.2,0.2-0.3v-0.1l0.1,0v-0.1l0.1-0.3c0.1-0.6,0.3-1,0.5-1.2
							v0.9l-0.1,0.3l0,0.1v0.1l-0.1,0.4l-0.2-0.1l-0.4,0.8l-0.1,0.1v0.1l-0.1,0l-0.3,0.5l-0.1,0.2l-0.4,0.4l-0.3,0.3l0.1,0.5
							l-0.3,0.2l-0.3,0.1l-1.6,2.5l-0.1,0.1l-0.3,0.3l0.1-0.2l-0.3,0.3h-0.1l-0.1,0.1h0l-0.1,0.1l-0.1,0l-0.1,0l-1.3,0.9l-0.1,0.1
							l-0.2,0.1l-0.3,0.1l-0.9,0.4l-0.3,0.1l-0.2,0.1H156l-0.1,0.1v0h0.1c0.1,0.1,0.1,0.1,0.1,0.1h-0.3l-0.1,0h-0.1l-0.3,0.1h-0.3
							l-0.3-0.1l-0.2-0.1h-0.1l-0.2-0.1h-0.1l-0.2,0l-0.9-0.1h-0.6c-0.1,0.1-0.1,0.2,0,0.3l-0.2-0.1l-0.3-0.1l-0.6-0.3
							c-0.3-0.1-0.4-0.2-0.4-0.2c0-0.1,0.1-0.1,0.4,0l-2-0.5l1,0.4l-0.5-0.1l-0.4-0.1l-4.8-1.4l0.9,0.5c-1.9-0.5-3.1-1-3.4-1.5
							l1.7,0.4l-3.4-1.1c-1-0.3-2-0.6-3.1-0.8l0.8,0.3c-0.2,0-0.8-0.2-1.6-0.4c-0.5-0.1-0.8-0.2-1.1-0.3l-0.6-0.2l0,0h-0.1l-0.2,0
							l-0.1-0.1h-0.2l0,0h-0.1l-0.2-0.1l-0.2,0l-1-0.6c-0.7-0.5-1.2-0.9-1.6-1.3c-0.5-0.6-1-1.2-1.4-1.9c-0.4-0.6-0.8-1.3-1.1-2.1
							l-0.3-0.6l-0.1,0v-0.1l-0.2-0.3l-0.9-2.4l0,1.2l-0.8-2.1c0.1,0.1,0.3,0.3,0.7,0.5c0.3,0.2,0.5,0.3,0.6,0.4l-0.6-2.4
							c-0.3-1.6-0.5-2.9-0.6-3.8l-0.1-0.5l-0.2-4.6l0.4-4.4v-0.4l0.8-5.5c0.4-2.1,0.7-3.8,0.9-5.1l0.4-2.1l0.1-0.1v0l0-0.2v0l0.4-2
							c0.1-0.7,0.2-1.8,0.3-3.2l0.1-1c0.1-0.1,0.2-0.1,0.2,0l0.3,0.6c0-0.9-0.1-1.5-0.3-1.9l-0.1-0.4l-0.1-0.4v-0.7
							c0-0.5,0.1-0.4,0.4,0.5c0-0.6-0.1-1.1-0.1-1.3c0-0.4-0.1-0.6-0.1-0.6c0,0.5-0.1,0.8-0.3,0.9c-0.3,0.2-0.4,0.3-0.4,0.3
							l-0.2-2.7l0.3,0.1c-0.2-0.5-0.3-0.9-0.4-1.3c-0.1-0.3-0.3-0.6-0.4-1.1l-0.3-1.6c-0.3-2.2-0.6-4.5-1-6.6
							c-0.4-2.2-1-4.3-1.6-6.4c0.1,0,0.2,0.2,0.4,0.6l0.4,1.2l-0.3-1c-0.1-0.5-0.2-0.8-0.2-0.9c0,0.4-0.1,0.2-0.3-0.4l-0.3-0.6v0
							l-0.8-1.7l-0.1-0.3l-0.1-0.1l-0.1-0.1l-1.1-2.5c-1.3-3-2-4.5-2-4.5l-1.5-0.8c-0.2-0.5-0.5-0.9-0.8-1.3l-0.1-0.2L119,236
							l-0.1-0.1l-0.1-0.1v-0.1l-0.1-0.1l-0.1-0.1l-0.1-0.1l-0.8-1.1l-1.3-1.3c0-0.2,0-0.4-0.2-0.6l-0.2-0.3L116,232
							c0,0.1,0,0.2-0.1,0.3c-0.1,0-0.1,0-0.2-0.1l-0.1,0l-0.1-0.1l-0.1-0.1l-0.2-0.1c-0.1,0.1-0.3-0.1-0.6-0.4l-2.4-2.7v-0.1h-0.1
							v-0.1l-0.2-0.2l-0.1-0.1l-0.1-0.1l-0.8-0.8l-0.1-0.1l-2.3-2c-0.3,0-0.6-0.2-1-0.4c-0.4-0.2-0.7-0.4-0.9-0.4l0.1-0.1l-0.3-0.1
							l-0.1-0.1l-0.2,0l-0.2-0.2l-0.1-0.1v0h0L106,224l-3.1-2l0.1,0.1c-0.3,0-0.4-0.1-0.5-0.3c-0.1-0.3-0.2-0.5-0.3-0.6
							c-0.1,0.2-0.2,0.3-0.5,0.4c-0.2,0-0.3,0-0.4-0.1c0,0-0.1,0-0.1,0l0-0.1l-1.1-0.1h-0.2l-0.1-0.1l-0.3-0.1h-0.1l0-0.1h-0.1
							l0-0.1h0c-0.7-0.1-1.5-0.3-2.4-0.4c-1.4-0.2-2.6-0.3-3.5-0.3l-0.8-0.1l-0.3,0.1h-0.4c-0.4,0.1-0.8,0.2-1,0.4l-0.3-0.1l0,0v0.4
							c0,0.1,0,0.3,0,0.4c0,0.1,0,0.1-0.1,0.1v-0.3l0.1-0.3l-0.1,0.2h-0.1l-0.1-0.1l-0.1-0.1l0,0v0l-0.2,0.4c0,0,0.1,0,0.1,0
							l0.1-0.2l0.2,0.5c0.1,0.2,0.1,0.3,0,0.4c0,0.1-0.1,0.2-0.2,0.3l-0.2,0l-0.1,0.3c0,0.6,0,1,0.1,1.4c0.1,0.6,0.2,1.1,0.4,1.7
							c0.2,0.7,0.5,1.4,0.9,2c0.4,0.6,0.8,1.2,1.3,1.6l0.2,0.5c0.1,0.1,0.3,0.4,0.5,0.9l0.1,0.3l0.1,0.1l0.7,1.5h-0.1
							c0.1,0.3,0.3,0.6,0.5,1.1l0.3,0.6l0.1,0.1l0.1,0.3l1.1,1.6c0.4,0.5,0.7,1.1,0.9,1.6l0.6,1.5l0,0.1l0.1,0.3l-0.2-0.3l1.3,3.9
							l0.1,0.7c0-0.3,0-0.5,0-0.6c0.1-0.1,0.2,0.1,0.3,0.6l0.1,0.4l0.1,0.4l0.5,2.8l0,1.4l0.5,1.3c0.2,2.7,0.1,5.4-0.4,8.1l-0.1,0.7
							l-0.1,0.3l-0.1,0.6l0,0v0.1l-0.3,1v0.1l-0.9,3c-0.4,1.2-0.8,2.3-1.2,3.3c-0.4,1.2-0.9,2.3-1.3,3.3c-0.2,0.5-0.7,1.5-1.5,3.1
							l-1.7,3c-1.1,1.9-2.3,3.6-3.6,5.1l-1.6,1.9l-0.3,0.2l-2.3,2.4l-0.2,0.1l-0.4,0.4l-0.1,0l-0.5,0.5l-0.1,0l0,0.1l-0.8,0.6
							l0.1-0.1h0l-0.1,0l-3.7,2.9c-2.3,1.5-3.9,2.5-4.8,3c-1.8,1-3.6,1.9-5.4,2.6l-3.1,1l-0.3,0l-0.5,0.1h-0.2l-0.7,0.1l-0.1,0h-0.2
							l-0.1,0.1h-0.2l-0.5,0H63c-0.2,0-0.4,0.1-0.8,0.1c-0.2,0-0.4,0-0.8,0H61l-0.4,0l-3-0.1c-1.9-0.1-3.7-0.4-5.5-1l-0.6-0.1
							l-0.5-0.3h-0.1l0-0.1l-0.1,0l-0.3,0l-0.1-0.1l0,0h-0.1l-0.7-0.4h0l-0.8-0.4l-5.2-3.2l-2-2l0-0.1h0v0l-0.1-0.1l-0.3-0.2
							l-0.6-0.8l0-0.1l0-0.1l-0.1-0.1l-0.1-0.2l0,0.2l0,0.1c0,0,0,0.1-0.1,0.1l-0.2-0.1l-0.3-0.5l-0.1-0.2v-0.1l-0.1-0.2l-0.3-0.6v0
							l-0.2-0.5l-0.1,0c-0.1-0.1-0.2-0.2-0.3-0.4l-0.1-0.1l-0.8-3.3v-0.2l0-0.2v-0.4l0-0.3v-0.2l0-0.5l0.3-7.3l0.5-2.1l0.3-0.5h0
							v0.1l0-0.1l-0.1-0.2l-0.1-0.1v-0.1l0.3,0.3l0.1-0.1l7.4-9.9l0-0.1l0.1-0.1l1.3-1.9l0.1-0.2l0.2-0.2l2.1-3.7l0.2-0.4l0.2-0.4
							l1.1-2.8l0-0.1l0.1-0.1l0.3-1.1l0.8-3.8v-2.1l0-0.2v-0.5c0-0.1,0-0.1,0-0.2v-0.2l-0.2-1.9l0-0.2v-0.3l-0.2-0.9l0-0.2v-0.3
							l-0.2-0.8l0-0.5l-1-4.1l-0.1-0.1l-0.4-1.1l0.2,0.3l-2-6.1c-1.1-3.1-2.3-6.2-3.5-9.3l-0.3-0.6l-0.5-0.7c-2.3-3-3.9-5.1-4.9-6.5
							l-2.9-4.3l0.3,0.5c-0.8-1.1-1.4-2-1.7-2.8l-1-2.5c-0.1,0.1-0.2,0.1-0.4-0.1c-0.2-0.1-0.4-0.4-0.8-0.9
							c-0.5-0.7-0.9-1.4-1.3-2.1h0.1l-2.8-5.8l-0.8-2.2l0.3,0.1c-0.5-1.2-1-2.7-1.3-4.4l-0.6-3.9c-0.1-1.4-0.1-2.5-0.1-3.3v-0.2
							c0,0,0.1,0,0.1,0c0.1,0.1,0.3-0.2,0.5-0.8l0.1-0.5l0.3-1.6c0.1-0.8,0.3-1.5,0.6-2.3l0,0.1l0.6-2.4l0.6-6.3l0.3-0.5l0.1-0.5
							l-0.2-0.3l-0.1,0l0-3.2l-0.4-2.6l0,0.9c0,0.1-0.1,0-0.1-0.1l-0.3-0.9V157l-0.1-0.2l0-0.3l-0.1-0.3l0-0.1V156l-0.9-2.3
							l-1.8-2.9l-0.8-0.9c-0.4-0.5-0.6-0.8-0.8-0.9l-0.3-0.3l-0.1-0.1l0-0.1l-0.9-0.5l-0.1-0.1l-0.3-0.1l-0.3-0.2l-0.1-0.1h-0.1
							l-0.1-0.1l-1.2-0.6l-0.2-0.1l-0.1-0.1l-0.8-0.4h-0.1l-0.2-0.1l-0.4-0.1l-0.4-0.2l-2.5-0.5c-1-0.2-2.2-0.3-3.5-0.3
							c-1.1,0-2.3,0.1-3.7,0.3c-1.7,0.3-2.9,0.5-3.6,0.7c-0.9,0.2-2.2,0.5-3.7,0.9l-7.1,2.6c-4.2,1.7-8.4,3.4-12.6,4.9
							c-1.5,0.6-4.4,1.7-8.7,3.2l0.3-0.1l-4.6,1.6c-1.4,0.5-3.2,1.1-5.4,1.7l-6.6,1.6h-0.3l-0.1,0h-0.6h-0.1l-0.2,0h-0.2l-1.2-0.4
							c-0.9-0.4-1.6-0.7-2.3-1.1l-3.9-2.6v-0.1h0l-0.1-0.1l-0.1-0.1l-0.3-0.3l-0.1-0.1l-0.1,0l-0.1-0.1l-0.1-0.1l-0.3-0.3l-0.5-0.6
							l0-0.1l-0.1-0.1l0-0.1l0-0.1l-0.1-0.2l-0.1-0.2l-0.4-0.9l-0.5-1.5l-0.1-0.5c-0.2-1.1-0.4-2.5-0.5-4.1l0.4-2.8v-0.1l0-0.2
							l0-0.4v-0.3l0.3-1.8c-0.1,0.5-0.2,0.6-0.3,0.6c-0.1-0.1-0.1-0.3,0-0.7l0.5-2.8l0-0.2V140l0.2-1.1l1.4-4.4
							c0.6-1.4,1.2-2.6,1.9-3.7l0.4-0.6l0.1-0.1l0.4-0.6l0.1-0.1l0.3-0.4l0.2-0.2l0-0.1l0-0.1l0.1-0.1l0.4-0.5l0.2-0.2h0l0-0.1v0.1
							l0.2-0.3l0.5-0.5c1.3-1.4,2.6-2.8,4-4.2c1.2-1.1,2.6-2.4,4.3-3.8l3.2-2.4l0.3-0.2l0.1,0h0l0.1-0.2l1.1-0.7l0.5-0.3l5.4-2.9
							c1.1-0.7,2.6-1.5,4.5-2.4c2.6-1.1,4.2-1.8,4.7-2.1l-0.3,0.2l1.8-0.7l0.3-0.2l2.1-0.7l0.1-0.1h0.2c0.8-0.3,1.8-0.5,3.1-0.7
							c1.3-0.2,2.6-0.3,3.8-0.3c0.9,0,2.2,0.1,3.9,0.2c0.4,0,1.6,0.2,3.7,0.5c1.4,0.2,3.1,0.5,5.1,0.9l-0.5-0.2
							c1.1,0.2,2.1,0.4,3,0.7l2.4,0.9c-0.1-0.2,0.4-0.2,1.4-0.1l2.3,0.5l-0.1,0l3.7,0.9l0.1,0l0.1,0.1l0.9,0.2l0.5,0.2h0.1l3,0.8
							l-0.1,0.1c0.8,0.2,2.5,0.5,4.9,1l4.9,0.5l2.8-0.3h0.2l0.1-0.1l0.3,0l0.3-0.1l0.2,0l0,0c0.2,0.3,0.3,0.5,0.5,0.5
							c0.2,0,0.5-0.1,0.8-0.4l0.7-0.7l0.4-0.5c0.1-0.1,0.2-0.1,0.3-0.2l0.3-0.3l0.2-0.1l0.1-0.1l0.3-0.3l0.3-0.3
							c0,0,0.1-0.1,0.1-0.1l-0.3,0.6l-0.1,0.2l0.6-1c0.2-0.2,0.5-0.6,0.8-0.9l0.8-1.5l0.1-0.3l0-0.2l0.1-0.2l0.2-0.8
							c0.1-0.4,0.2-0.7,0.2-1.1l1-3c0-0.3,0-0.3-0.1,0l-0.3,0.8l0.1-0.3l1-5.8c0.1-1.1,0.3-1.7,0.5-1.8c0.1-0.1,0.1-0.2,0.1-0.4
							l0.2-1.2l0.2-15.2c-0.1-4.5-0.3-9.3-0.7-14.3l-0.8-13.6c-0.1-3-0.1-5.2,0-6.7l0-1.3l0-0.4l0.1-2.5l0.1-0.4v-0.3l0.1-0.8l0-0.3
							V37l0-0.3c0.1-0.1,0.1-0.1,0.1,0v0.5l0.1-0.8v-0.2l0-0.2l0.2-1.3l1.5-5.5l1.8-5l0.1-0.2l0-0.2l1.1-1.7c-0.1,0,0.5-1.2,1.7-3.6
							h0l0.1-0.1l0.9-1.7l0.1-0.1l0-0.1l0.4-0.6l0.2-0.2l0.3-0.4c0.8-1.2,1.7-2.4,2.7-3.6c1.1-1.3,2.2-2.3,3.3-3.2
							c1-0.9,2.1-1.8,3.3-2.6l0.4-0.3l0-0.1h0l0.1,0L61.3,5l0.2-0.2l0.2-0.1l2.5-1.5l0.1-0.5c1-0.5,1.7-0.9,2.2-1l0.9-0.3l0,0h0
							l0.1,0l0.5-0.1L69,0.7h0.1l0,0l0.2,0l1.4-0.8l3.1-1.3l0.3-0.1l0.3-0.1c0.2-0.1,1.1-0.3,2.7-0.8C78.1-2.8,78.7-3,79.1-3.2
							L79.1-3.2 M204.7,104.8l0.1,0.1l1.8,0.8l0.6,0.2c-0.1,0,0,0,0.1,0.1l0.1,0.1l0.2,0.1c0.2,0.2,0.3,0.3,0.3,0.3h0.3l1.1,0.7
							c0.1,0,0.1,0,0.1-0.1c-0.1-0.1-0.2-0.2-0.2-0.3l1.2,0.7c0.2,0.2,0.3,0.3,0.3,0.4c0,0-0.1,0-0.4-0.1l1.9,1.5l0.2,0.2l0.1,0
							l0.1,0.1l9.4,10.8l0.2,0.3l0.2,0.2l1.9,2.9l0.1,0.1l0.1,0l0.9,1.6l0.1,0.1l0.1,0.2l0.2,0.3l0.7,1.5l0.1,0.2l0.1,0.1h0l0.2,0.5
							v-0.3l-0.1-0.1v-0.1l-0.2-0.6v-0.1l-0.1-0.1l-0.1-0.3c0-0.1,0-0.3,0-0.5l0.4,0.6l0.1,0.1l0.1,0.3l0.2,0.5l0.2,0.1
							c-0.1,0.1-0.1,0.4-0.1,0.7v0.1l0.1,0.1v0.2l0.1,0.4l0.1,0.1l0.1,0.2l0.1,0.7c0.1,0.4,0.1,0.6-0.1,0.8l0.4,0.3l-0.1,0.6
							l0.6,2.2l1,7.3v1c0-0.1,0-0.3,0.1-0.4c0.1-0.1,0.1,0,0.1,0.3c0,0-0.1,0.1-0.1,0.3l0.1,1v0.2l-0.1,0.5v0.1l-0.1,0.1v0.4l0,0.3
							v0.2l0,0.2c0,0.1,0.1,0.1,0.2,0l-0.1,0.1l-0.2,0.1l-0.1,0.2l-0.1,0.2l-0.1,0.1l-0.1-0.3l-0.1,0.3l-0.1,0.2l-0.1,0.3l-0.1,0.2
							l0.1-0.2l0.2-0.2c-0.1,0.3-0.4,0.8-0.9,1.3c-0.4,0.4-0.6,0.8-0.8,1.1l0.3-0.1l0.2-0.1c-0.2,0.3-0.5,0.6-0.9,0.8l-0.2,0.2
							l-0.1,0.1l-0.2,0l-0.4,0.1l0.4-0.3l0.1-0.2l0.1,0l0.1-0.1l-0.1,0.1l-0.1,0l-0.2,0.2L226,150l-0.1,0.1l-0.1,0l-0.2,0.2
							l-0.1,0.1l-0.1,0.1l-0.4,0.3l-1.8,1.1l0.5-0.2l-0.9,0.6l-3.7,1.6h0.1h-0.1v0h-0.1l-0.7,0.2l-0.1,0h0l-0.3,0.1l-1.1,0.3
							c-1.4,0.3-2.7,0.5-4.1,0.5l-1.2-0.1l-0.4-0.1h-0.6l-0.4,0l0.2,0.1l0.2,0.1l0.4,0.3h-0.6l-0.2-0.1l-0.4-0.1h-0.2l-0.1-0.1
							c0,0,0.1,0,0.1-0.1l0.2-0.1l0.2-0.1c0.3-0.2,0.5-0.3,0.5-0.3l-1.7-0.6c-1-0.4-1.9-0.8-2.6-1.2c-1-0.6-1.9-1.3-2.9-2.1
							l-0.8-0.6l-4.1-4.4l-0.3-0.5l-1.2-1.3l-0.1-0.1l-0.1-0.2l-0.5-0.5l-0.3-0.2l-0.2-0.3l-6.5-4.8l-0.2-0.1l-0.1-0.1l-0.3-0.2
							l-0.9-0.5c-0.6-0.4-0.8-0.7-0.6-0.7c0.1,0,0.3,0,0.6,0l-1.1-0.4l-0.8-0.1l-0.3-0.1l-0.5-0.2c-0.4-0.2-0.2-0.3,0.5-0.2
							c-0.4-0.1-0.8-0.2-1.1-0.4c-0.3-0.1-0.5-0.1-0.6-0.1l0.3,0.2l0.1,0.1l0.2,0.3c0,0.2,0,0.4,0.1,0.5l-1.9-0.7l-0.1-0.1l-0.1-0.1
							l0.1-0.3h-1.2c-0.4,0-0.7,0-1-0.1l-1.4-0.3c-1.7-0.5-3.6-0.8-5.7-1.1c-1.7-0.2-3.6-0.4-5.7-0.5c0-0.1,0.6-0.2,1.6-0.3
							l-1.7-0.1c0.2,0.1,0.3,0.1,0.1,0.1l-1.1,0.1c-0.1,0-0.1,0,0.1,0.1l-1.1,0.1l-5.5,0.3c-0.7,0.1-1.4,0.2-1.9,0.3l-0.1,0.3
							l-5.1-12.7l-0.1-0.3l-0.7-1.8c-0.8-2-1.3-3.9-1.8-5.5l-0.4-1.9l-0.1,0v-0.1l0-0.2l-0.1-0.4v-0.1l-0.1,0v-0.3l-0.1-0.4v-0.6
							c0-0.3,0.1-0.7,0.3-1.1c0.1-0.3,0.3-0.7,0.6-1.2l0.5-0.7l0.1-0.2l0.1-0.1h0.1v-0.1l0.1,0v-0.1l0.4-0.3l0.1-0.1l0.4-0.4
							l0.1-0.1l0.1,0l0.1-0.1l0.1-0.1c0.5-0.3,0.9-0.5,1.4-0.7l1.6-0.5l0.6-0.2h0.1l0.2-0.1l0.1,0h0.1l1.3-0.2h0.3l0.1,0
							c1.2,0,2.4,0,3.7,0l9.6-0.5c1.5-0.1,2.5-0.1,3.2-0.2c0.4,0,0.6,0,0.8-0.1c0.3,0,0.6,0,0.8,0h0.4l0.2-0.1l4-0.3
							c0.1,0,0,0.1-0.3,0.2l1.8-0.1c0.2,0,0.5-0.1,0.9-0.1l3.4-0.1l0.4-0.1h0.4c0.3,0,0.6,0.2,1,0.4c0,0,0.1-0.1,0.4-0.1h1.3
							c0.2,0,0.5,0.1,0.9,0.1l6.8,0.8l2.6,0.6l0.2-0.3l0.7,0.1l0.4,0.2c0.1,0,0.2,0.1,0.3,0.2c0.1,0.2,0.5,0.4,1.1,0.5
							c0.2-0.1,0.5-0.1,0.9,0l0.3,0.1H204.7 M41.6,101.5c0.1-0.8,0.2-1.1,0.3-0.9l-0.7,2.5c0-0.1,0-0.1,0-0.2L41.6,101.5
							 M41.2,103.4L41.2,103.4l0.1-0.3v0.2l-0.2,0.7C41.2,103.9,41.2,103.7,41.2,103.4 M111.5,244.9
							C111.5,244.9,111.5,244.8,111.5,244.9L111.5,244.9L111.5,244.9 M112.2,250l0-0.6l0.5,1.5c0.1,0.1,0.1,0.3,0.1,0.4
							c0,0.2-0.2,0.3-0.4,0.3l-0.1-1.4L112.2,250z"/>
					</g>
				</g>
			</g>
		</g>
	</g>
</g>
</svg>
