<?xml version="1.0" encoding="utf-8"?>
<!-- Generator: Adobe Illustrator 24.1.2, SVG Export Plug-In . SVG Version: 6.00 Build 0)  -->
<svg version="1.1" id="Layer_1" xmlns="http://www.w3.org/2000/svg" xmlns:xlink="http://www.w3.org/1999/xlink" x="0px" y="0px"
	 viewBox="0 0 256 256" style="enable-background:new 0 0 256 256;" xml:space="preserve">
<style type="text/css">
	.st0{fill:#FFFFFF;}
</style>
<g id="jump2">
	<g transform="matrix( 0.6996917724609375, 0, 0, 0.6996917724609375, 57.25,20.7) ">
		<g id="jump">
			<g transform="matrix( 1, 0, 0, 1, 0,0) ">
				<g>
					<g id="jump_1_Layer0_0_FILL">
						<path class="st0" d="M44.1-0.2L44.1-0.2l-4.2,7.4c-1.2,2.4-2.3,4.7-3.2,7c-0.7,1.8-1.4,3.8-2,6.1l-0.5,2.4l-0.1,0.1V23
							l-0.3,1.5v0.1l0.3-1.1l-0.1,0.7l0,0.1v0.1l-0.2,1.2v0.4l0,0.2l-1.2,8.3c0.1-0.2,0.2,0,0.3,0.5l0.3,6.5l-0.1-0.1L33.6,57
							l-0.3-0.2c0.2,1.8,0.3,4.5,0.3,8c0,2.5,0,4.8,0,7.1l-0.3,6.5l0,0.1l-1,15.4v5.3l-0.1,0.2l-0.2,4.4c0,0.1-0.1,0.1-0.1,0.2
							c0,0.1,0,0.1,0.1,0l0-0.1v0.1l-0.3,0.7c-0.3,0.6-0.5,0.9-0.6,1.1l-0.4,0.4c0,0,0,0.1-0.1,0.1l-0.2,0.1l-4.9,5.2L8.7,124.4
							c-0.1,0-0.1-0.1,0.1-0.3l-6.3,5.4L1.8,130l-0.4,0.1l-1.2,1.2l-0.3,0.3l-9.6,9.3l0.1,0.5c-0.7,0.8-1.2,1.2-1.4,1.3
							c-0.3,0.2-0.7,0.6-1.3,1.3l-0.3,0.5l-2,2.5l-0.1,0l-0.1,0.1l-0.4,0.4c-0.4,0.5-0.6,0.8-0.7,0.9c-0.6,0.7-0.9,1-0.9,0.9
							c0,0.4-0.4,1-1.3,1.9c0,0.2,0,0.2,0.1,0.1l0.4-0.3l-0.3,0.4l-0.8,1.3l-0.1,0.2l-0.2,0.1l-0.1,0.2c-0.1,0-0.1-0.1,0-0.4
							l-3.8,5.7c-1,1.7-1.9,3.2-2.6,4.5l-4.1,9.1l-0.1,0.1l-3.3,10.4l-0.2,0.9l0,0.4l-0.3,1.7l0.3-0.7l0.2-0.9
							c0.3-0.8,0.5-1.3,0.6-1.4l-0.1,1l-0.2,0.8c-0.1,0.6-0.2,0.9-0.2,1.1c-0.2,0.1-0.3,0.3-0.4,0.7l-0.4,1.9l-0.1,0.4l-0.1,0.4
							l-0.4,1.1l0.3,0.4l-0.3,0.8v1.4c0,0.1,0,0.1,0,0.1v6.4l0,0.6l0.3,2v0.2l0,0.1l1.1,4.5c0-0.2,0-0.4,0-0.6
							c0-0.2,0.1-0.1,0.3,0.3c-0.1,0.1-0.1,0.3,0,0.5l0.8,2.4v0.1l0.9,2.1l0.4,0.7c0.2,0.2,0.2,0.1,0.1-0.1l0.1,0.3l0.1,0.2v0.1l0,0
							v0.1l0,0.1l0.3,0.8v0.1l0.1,0.1l0.1,0.4l-0.1-0.1l-0.1-0.1l-0.1-0.1l0.4,0.8l0.1,0.1l0.1,0.1l0.5,0.9l-0.5-1.1l2.2,3.8
							l0.6,0.9l0.2,0.3l0.5,0.5l-0.5-1l1.4,2l0.5,0.8l0.3,0.7l-1.2-1.4l2.4,3c1,1.1,1.8,1.9,2.4,2.4l-0.6-0.6l0.7,0.6l0.1,0.1h0v0.1
							l0.1,0.1h0.1v0.1l0.4,0.3l0.3,0.3l0.6,0.4l0.4,0.2l0.1,0.1l3,1.8l2,0.8c0.8,0.3,1.5,0.5,2.2,0.6l2.3,0.3c0.5,0,1.3,0,2.2-0.1
							c0.6,0,1.3-0.2,2.1-0.4l1-0.2l0.2-0.1h0l0.2-0.1l0.1-0.1l0.4-0.1l0.8-0.3l0.1-0.1l0.7-0.3l0.7-0.5l0.4-0.2l0.5-0.4l0.1-0.1
							l0.3-0.2l0.1-0.1l0.1-0.1l1.6-1.4l0.2-0.3L2.2,227l1.8-1.8c-0.1,0.1-0.1,0.4-0.2,0.9c-0.1,0.4-0.2,0.7-0.3,0.8l1.5-1.4
							l0.3-0.4l0.4-0.3c1.1-1.1,2.1-2.2,3-3.3c0.9-1,2-2.4,3.3-4.1l9.1-13.2l0-0.1l0.1-0.1l3.6-4.4c0.5-0.5,0.8-0.6,0.8-0.4
							c0,0.1-0.1,0.3-0.2,0.6c0.5-0.6,0.7-1.1,0.8-1.3l0.1-0.3l0.5-0.6c0.2-0.2,0.2-0.2,0.2,0c0,0.2-0.1,0.3-0.2,0.4
							c0.3-0.4,0.6-0.6,0.7-0.8c0.2-0.2,0.3-0.4,0.3-0.4c-0.3,0.3-0.5,0.4-0.7,0.3c-0.3-0.1-0.5-0.1-0.5-0.1l1.5-1.7l0.1,0.3
							c0.2-0.4,0.3-0.7,0.5-1l0.5-0.9l9-8.7l0,0.3c-0.1,0.2-0.3,0.4-0.6,0.7c0.2-0.2,0.4-0.4,0.6-0.5L36,213.8
							c-0.1,0.1-0.1,0-0.1-0.4l-0.4,5.1c-0.1,1.1-0.2,2.7-0.3,4.8c-0.1,0.5-0.3,0.9-0.5,1.4c0.1-0.1,0,0.8-0.2,2.5l-1.4,15.2
							l0.5,0.3c-0.1,1.1-0.3,1.8-0.5,2.1l-0.2,0.5l-0.2,1.4c0.1,0.4,0.1,0.9,0.1,1.4l-0.2,1.3l-0.1,0.5c-0.3,1.8-0.4,2.8-0.4,3.1
							l-0.1,0.4l-0.1,0.3c-0.1,0.5-0.2,0.7-0.3,0.7c0.2,0.3,0.1,1.2-0.1,2.5c0,0.2,0.1,0.2,0.1,0c0.1-0.3,0.2-0.4,0.2-0.5l-0.3,2.1
							c-0.1,0.4-0.3,0.7-0.4,0.7c-0.1,0-0.1-0.2-0.1-0.6l-3.9,19.6c-0.6,2.6-1,4.6-1.4,6l-1,3.7v0l-0.1,0l-0.1,0.5v0l-0.4,0.9
							l-0.7,2.1l-0.2,0.9c-0.2,1-0.4,2-0.6,3.2c-0.1,1.4-0.1,2.8,0,4.3l0.1-0.7v-0.3l0.1-1.3v-0.4l0.2-1c0.1-0.5,0.2-0.8,0.3-0.9
							v1.1l0,0.3l0,2.3l0.1,0.3c-0.3,0.3-0.4,1.3-0.3,2.8l0.1,1.4l0,0.4v0.5l0,0.1v0.3l-0.1,0.5l0.1,0.1v0.1l0.3,0.3l-0.1,1l0.9,3.9
							l0.1,0.3l0.4,1.2l0,0.3l0.1,0.2l0.3,1.2l0.1,0.2l0,0.1l0.1,0.1l0.1,0.5l0.3,0.6l0.1,0.2l0.3,0.7v0.1l0.3,0.6l0.1,0.1l0.4,0.6
							l0,0l0.2,0.4l0.1,0.1l0.6,0.8l0.1,0.1l0,0.1l0.6,0.6l0,0.1l0.1,0.1l0.5,0.4l0.1,0.1l0.6,0.6l0.1,0l0.1,0.1l1.2,0.9l0.1,0.1
							l0.1,0.1l2.4,1.8c0-0.1-0.1-0.1-0.1-0.2c-0.1-0.1-0.1-0.1,0-0.1l0.2,0.1l0.3,0.1c0,0.2,0.4,0.5,1.3,1l0.9,0.6
							c0.2,0.1,0.4,0.3,0.5,0.5l2,1.3c0.8,0.5,1.1,0.5,1,0.1c0,0.1,0.1,0.1,0.1,0.2l0.3,0.3l0.1,0.1l0.3,0.3l0.5,0.3l0.1,0.1
							l0.2,0.1l0.1,0.1c0.1,0.1,0,0.1-0.1,0l-0.5-0.1l2.5,1.4l-1.1-0.8l5.6,3l1.8,0.5l-1.3-0.7l3,1.1c1.1,0.4,1.8,0.7,2.1,0.9
							c-1.1-0.2-2-0.4-2.6-0.5c0.8,0.3,1.8,0.5,2.8,0.7l0.3,0.1l3.9,0.2l0.4-0.1h0.2l0.1,0h0.1l1.4-0.2l0.2,0h0.2l0.9-0.3h-0.1
							l-0.2,0l-0.6,0.1l0.5-0.1l0.3-0.1l2.6-0.8l2.9-1.3l2.1-1.3l1-0.8l0.3-0.2l1.3-1l0-0.1l0.1-0.1h0.1l0.1-0.1l0.2-0.2l0.8-0.8
							l5.3-6.8l0.5-0.9l0.2-0.2c0,0,0.1-0.1,0.2-0.3L80,318l0.1-0.3l0-0.1v0l0.1-0.1l0.2-0.4c0.2-0.3,0.3-0.8,0.5-1.4l0.5-1.5
							l0.1-0.4l-0.9,1.3l0.8-2.8v0.4l0.2,0.6c0.1,0.4,0.2,0.7,0.2,0.8l6.6-20.6l0.1-0.2v-0.1l0.1-0.1l1.3-5.3l2.4-14
							c0.2-0.9,0.4-1.2,0.5-1c0.1,0.1,0.1,0.3,0.2,0.7c0.1-0.9,0.1-1.5,0-1.9c-0.1-0.3,0-0.9,0.1-1.6c0.1-0.4,0.2-0.2,0.3,0.5
							l0.1-1.3c0.1-0.4,0.1-0.6,0-0.7c-0.1,0.5-0.2,0.8-0.4,0.9c-0.3,0.1-0.4,0.2-0.5,0.3l0.3-2.9L93,267c0-0.1-0.1-0.6-0.3-1.5
							c-0.1-0.9-0.1-1.9,0-3c0.2-2.4,0.5-7.3,0.8-14.7c0.1,0.1,0.2,0.8,0.3,2.1c0-1.1,0.1-1.8,0.2-2.2c-0.1,0.5-0.2,0.4-0.2-0.4
							c0-0.7,0-0.9-0.1-0.6l-0.2-1.4l0.1-7.2l-0.1-0.5l0.2-0.2l0.1-0.2l0.1-0.3l0.4,0.1c-0.1-0.1,0.1-0.4,0.6-0.9L95,236l0.1-0.1
							l0.7-0.6l-0.3-0.4c0.1-0.1,0.2-0.1,0.3,0c0.1,0.1,0.2,0.1,0.3,0c-0.1-0.2,0-0.4,0.2-0.5c0.2-0.1,0.3-0.1,0.3-0.3h0.1
							c0.1,0,0.2,0,0.2,0.1c-0.1-0.1,0-0.2,0-0.3c0.2-0.1,0.3-0.1,0.3-0.1l-0.2-0.1l0-0.1l0.1-0.1l0.1-0.2c0.1,0,0.1,0,0.2,0.1
							s0.1,0.1,0,0.1l0.2,0l0.7-0.4l0.2-0.1l0.2-0.1l1.7-0.7h0v-0.1l0-0.1l-0.2-0.6v-0.1l0.3,0.9h0.2l1.7-0.4
							c-0.1-0.1-0.2-0.1-0.4-0.1c-0.2,0-0.4-0.1-0.5-0.2c0.1-0.1,0.2-0.2,0.4-0.2c0.1,0,0.2,0,0.2-0.1c0.1,0.2,0.3,0.3,0.5,0.3
							c0.3,0,0.5,0.1,0.6,0.3v-0.4l0.2,0.1l0.8-0.4c0.2,0,0.5,0,0.8-0.1c0.2-0.1,0.5-0.2,0.7-0.4c0.2-0.2,0.4-0.3,0.6-0.3
							c0,0,0,0-0.1-0.1c-0.1-0.1-0.1-0.1,0-0.2c0,0.1,0,0.1,0.1,0.1h0.1l0.1-0.1c0.2-0.1,0.3-0.1,0.3,0l0.3-0.2
							c0.2-0.1,0.2-0.2,0-0.3l0.4,0.1c0.1,0,0.2,0.1,0,0.3l0.3-0.1l0.2-0.1l-0.3-0.1c0.1,0,0.3-0.1,0.7-0.1c0.2,0,0.3-0.1,0.4-0.3
							l-0.2-0.2h0.1l0.1-0.1h0.3l0.1,0.1l0.1,0.1l0,0.1l-0.1,0.1h-0.1l0,0.1h0.1l0.1-0.1h0.1v-0.1h0.1l0.3-0.2h-0.2
							c0.1-0.1,0.8-0.3,2-0.8l0.2-0.1h0.1v-0.1h0.2l0.1,0l0.7-0.2l0.3-0.1c0.4-0.2,0.7-0.3,0.9-0.5l-0.3-0.3l0.5-0.4l-0.1,0.5
							c0,0.2,0,0.4-0.1,0.5l2.3-0.5l0.2,0h0.1l0.2-0.1h0.1l0.2-0.1l0.8-0.1c1.1-0.2,1.8-0.3,2.3-0.4l1.5-0.1
							c0.3,0.1,0.3,0.3,0.2,0.6c0.2-0.1,0.3-0.2,0.3-0.3c0-0.1,0.1-0.1,0.3-0.1c0.1,0,0.1,0.2,0,0.4c0.2,0,0.3-0.1,0.3-0.2
							c-0.1,0-0.2-0.1-0.2-0.3c-0.1-0.3-0.1-0.4-0.1-0.5h0.5v0.3c0.1-0.1,0.1-0.2,0.2-0.3c0.1-0.3,0.3-0.4,0.5-0.4l0.3-0.1h0.3
							l1.4-0.3h0.2l-0.3,0.1c0.1,0,0.3,0,0.5,0.1c0,0.1-0.1,0.1-0.2,0.1c0.2,0,0.4,0,0.4,0.1c-0.1-0.1-0.1-0.1-0.1-0.2
							c0.4,0,0.9,0.1,1.4,0.1c1,0,1.7,0,2.3,0.1c-0.1,0-0.1-0.1-0.1-0.1c0-0.1,0.2-0.1,0.7-0.1l2.3,0.2l0.3,0.1h0.3l1.9,0.3l1.3-0.2
							h0.2l0.1,0.1l0.7,0.1l0.2,0.1h0.2l1.6,0.3l0.3,0.2l0.6,0.1l0.1,0.1l0.1,0.1h0.1c-0.8,2.6-1.5,4.9-2.1,6.8l-1.5,4.5l-0.1,0.4
							l-1.8,4.3l-0.1,0.3l-0.1,0.2l-0.1,0.3v0.1h-0.1v0.1l-0.3,0.5l-0.1,0.1v0.1l-0.7,1.3c-0.6,1.1-1.1,2.4-1.5,3.9l-0.4,1.3
							l-0.7,4.8v0.5l-0.1,0.1l0,1.4l-0.1-0.4l0.3,7.4l0,0.2v0.3l0.2,0.9v0.3l0.9,3.6l0.1,0.3l0.1,0.3l2.3,4.8l0.3,0.5l0.1,0.3
							l0.1,0.1l0.1,0.1l1.4,2.1v0l0.2,0.1l1.3,1.6l0.1,0.1h0.1l0.1,0.1h0.1l1.4,1.5l0.6,0.5l0.2,0.2l2.8,2c2.6,1.7,5.3,2.9,8.3,3.5
							l1.8,0.4h0.2l0.1,0l2.7,0.4h0.4c0.2,0,0.4,0,0.8,0l0.2,0.1h1.9c1.3,0,2.6-0.1,3.9-0.3l2-0.4c0.4-0.1,1.1-0.3,2-0.6
							c0.4-0.1,1.1-0.4,1.9-0.8l0.9-0.4l2.6-1.8c0.7-0.6,1.2-1.1,1.5-1.4l0.9-0.9l0.6-0.8l0.1-0.1c0,0,0.1-0.1,0.1-0.1h0.1v0
							l2.8-3.5l-0.2,0.1l-0.2,0.1c-0.1,0.1-0.1,0.1-0.1,0l0.1-0.3c0.1-0.2,0.2-0.3,0.3-0.4l1.4-1.6v-0.2l0.2-0.2h0.1v0
							c-0.1,0-0.1,0-0.1,0l0,0l0.1,0l0.3-0.2l0.1-0.1l0.1,0l0.6-0.6l0.1-0.1l0.2-0.2l2.1-3l0.2-0.4l0.1-0.2l0.1-0.2l3.6-6.3
							c2.5-4.4,4.5-8,6.1-10.8l5.9-11c1.3-2.7,2.5-5.4,3.5-8.1c0.6-2.6,1.1-4.5,1.4-5.9l0.9-5.6v-0.2l0.1-0.2v0.2l0.1,0.2v-0.4
							l0.1-0.6l0.4-8.7l-0.1-0.3l-0.1-2.5l-0.1-0.3v-0.4l-0.6-4.1l-0.7-2.4c0.2-0.1,0.4-0.2,0.7-0.3l1.8-0.8c-0.2,0.1-0.3,0.1-0.3,0
							c-0.1,0,0-0.1,0.3-0.3h0l0.1,0l0.1-0.1l0.4-0.2l3-1.6l0.8-0.9c0.9-0.7,1.7-1.3,2.3-1.8c1-0.9,1.9-2,2.8-3.1l1.1-1.4l0-0.1
							l0.1-0.1l0.5-0.8l0.1,0v-0.1l0.4-0.6l0-0.1c0-0.1,0.1-0.1,0.1-0.1v-0.1l0.1-0.1l0.2-0.3l0.3-0.7c0.3-0.5,0.5-0.9,0.6-1.4
							l0.3-0.7l0.6-2.2l0.5-3.3l-0.1-4.3l-0.1-0.2v-0.1l-0.6-3.3v-0.1l0-0.1v-0.1l-0.2-0.8v-0.1l0-0.1v-0.1l-0.1-0.1l-1.3-4.6
							l0.1,0.2l-3.1-8.9l-0.1-0.1l-0.1-0.2l-0.2-0.4l-0.1-0.3l-0.2-0.3l-0.2-0.6l-3.3-6.1l-8.1-12.8v0.1l0.1,0.1l-0.1,0.1l-0.2-0.1
							l-0.1-0.1v0L204,139l-0.1-0.1l-1-1.4l-0.3-0.3c-0.1,0-0.2-0.1-0.3-0.2l-0.4-0.5l-0.1-0.2l-0.6-0.7c-1.6-1.8-2.8-3.1-3.6-3.9
							l-0.6-0.7l-0.6-0.6l-0.3-0.4l-5.9-5.4l-7.2-5.6l-2.8-1.6c-1.3-0.8-2.2-1.3-2.8-1.7l0.2,0c-2.6-1.6-4.9-2.9-6.9-4.1l-6.6-4
							l0.2,0.2l-1-0.6l-0.3-0.2l-1.3-1.3c0,0.1-0.3,0.1-0.9-0.1l-1.2-0.7l0.1,0l-1.8-1.1c-0.8-0.5-1.4-1-2.1-1.5l0.2-0.1
							c-0.5-0.3-1.1-0.9-1.8-1.6l-1.3-1.6l-1.8-3.3h0.1l0.2-0.1l0.2-0.1l0.1-0.1l0.1,0l0.4-0.3l0.1-0.1h0.1l0.1,0l0.2-0.1
							c0.7-0.3,1.3-0.5,1.8-0.6l0.5-0.2l0.3-0.1l0.3-0.1l0.3-0.1h0.1l0.3-0.1h0.2l0.1,0l0.4-0.1h0.2l0.1-0.1h0.3l0.1,0h0.4l0.9-0.1
							l14.9-0.3l1-0.1h0.3l0.3-0.1l1,0l0.3-0.1h0.2l0.5-0.1l0.5-0.1l0.2,0h0.2l0.4-0.1l0.5,0l-0.3,0.1l0.3-0.1l0.2,0h0.1l0.1-0.1
							l0.3,0h0.1l0.2-0.1h0.1l0.6-0.2h0.2l2.6-0.9l0.3-0.1c1-0.4,2-0.9,3-1.5c1.1-0.7,2.1-1.4,2.8-2.1l0.2-0.1l0.2-0.2l0.7-0.7
							l0.3-0.3l0.1,0l0.1-0.1v-0.1l0.2-0.2l0.4-0.4l0.1-0.2v-0.1l0.1-0.1l0.2-0.3l0.1-0.1l0.1-0.2v-0.1l0.1,0l0.9-1.4l0.2-0.4
							l0.3-0.4l0-0.2l0.1-0.1l0.2-0.2L194,82c0.5-1.1,0.9-2.4,1.3-3.8c0.3-1.2,0.4-2.4,0.5-3.8V72l-0.1-0.9v-0.5l-0.1-0.1v-0.2
							l-0.1-0.7v-0.2l-0.4-2.3c-0.5-2.3-1.3-4.6-2.4-6.8l-1.1-2.3l-0.2-0.2l-0.1-0.3l-0.1-0.2l0-0.1l-0.1,0c0,0-0.1-0.1-0.1-0.2
							h-0.1l-0.2-0.4l-13-16.5l-0.3-0.4l-0.1-0.1l0-0.1l-0.2-0.3l0,0l-1.8-3.2c-0.8-1.6-1.5-3.2-2.1-4.6l-2.8-7.7l-0.1-0.3l-0.6-1.6
							v-0.1l-5.2-14.4c-0.5-1.1-1.4-2.9-2.6-5.3c0.3,0.7,0.4,1,0.3,0.9c-0.2-0.2-0.4-0.6-0.9-1.3L159.9-1l0-0.1v-0.1l-0.1-0.1
							l-0.6-1L159-2.4v0l-0.1,0l-0.2-0.3l-1.5-1.6c-0.6-0.7-1.1-1.2-1.4-1.5c-0.5-0.6-1.4-1.5-2.5-2.6c-1.3-1.1-2.1-1.8-2.4-2
							c-1.4-1.1-2.4-1.8-3.1-2.2c-1.1-0.8-2.4-1.6-3.8-2.4c-0.8-0.5-1.5-0.8-2.1-1.1l-5.8-2.9l-0.3-0.1l-6.1-2.5
							c-2.1-0.8-3.9-1.4-5.4-1.9l-5-1.4l-0.3-0.1l-1.8-0.4l-8.3-1.3h-0.2l-0.2,0l-3.9-0.3l-0.2,0l-12.5,0.4L81.7-25L80-24.4l-0.3,0
							l-12.4,4.8c-1.4,0.7-2.9,1.4-4.3,2.3l0.5-0.4L55-12c-2.2,1.8-4.1,3.6-5.7,5.3c-0.8,0.8-1.7,1.9-2.8,3.2l-0.2,0.2L44.1-0.2
							 M66.3-5.7c0.6-0.7,1.9-1.6,4-2.5l4-1.8l0.3-0.2c0,0,0.3-0.1,1-0.4l0.8-0.2c0.2,0,0.3,0,0.3,0l0.6-0.4l1.9-0.7l0.3-0.1
							l0.8-0.3c0.2-0.1,0.2-0.1,0-0.1c-0.4,0.1-0.6,0.2-0.8,0.2l2-0.8l0.4-0.1l0.7-0.3l0.8-0.1c0.2-0.1,0.3-0.1,0.3,0
							c0.1,0-0.2,0.2-0.8,0.4l4.6-1.1c2.3-0.5,4.6-0.8,7-1.1l2.5-0.2h0.3l0.3-0.1c0.5,0,0.9,0,1.1-0.1h1.6l0.3-0.1l3.7,0.1l0.1,0.1
							l3.4,0.3c1.7,0.2,3.3,0.4,4.7,0.6l9.2,2.2l0.8,0.3l0.3,0.1l10.6,4.5c0.9,0.4,1.9,1,2.9,1.5l4.1,2.5c-0.3-0.4-1-0.9-2-1.6
							L136-6.5c0.8,0.3,1.6,0.8,2.5,1.4l1.2,0.7l0.2,0.1l0.2,0.1c0.1,0.2,0.9,0.9,2.3,2.2l1.2,1l0.1,0.2l0.8,0.8l0.4,0.6l0.7,0.2
							l0.5,0.9l2.2,2.6l0,0l0.1,0.1l0.7,1l0.1,0.2l0.4,0.7l0.1,0.2l0.4,0.8c0.6,1,1.2,2.3,1.9,3.9l4.2,9.4l0.2,0.8
							c0-0.2-0.1-0.3-0.1-0.5c0-0.3,0.2-0.1,0.4,0.5c-0.1,0.1-0.1,0.1,0,0.3l0.1,0.5l0.9,2.4l0.1,0.4c0.2,0.6,0.2,0.9,0.2,1.1
							l1.2,3.7c0.5,1.5,0.8,1.9,0.8,1.1l0.1,0.5l0.8,2.9l0,0.3c0,0.1-0.1-0.1-0.4-0.8c0.8,2.2,1.3,3.5,1.6,4.1l-0.7-2l3,7.1l0.2,0.3
							l0.2,0.3l1.1,1.8l0.4,0.6v0l0.1,0.1h0.1l0.1,0.1l0.1,0.1l0.5,0.5l0.1,0.2l0.2,0.2l-0.5-0.8v-0.1h0v0l-0.2-0.3l0,0V46l-0.2-0.1
							l-0.3-0.6l0.4,0.6l0,0.1l0.1,0.1v0l0.1,0l2.1,3c0.8,1,1.3,1.8,1.5,2.5l-0.6-0.7l6.6,7.7l-0.9-1.1l4.4,5.3l0.3,0.5l0.1,0.1
							l0.1,0.1l-0.1-0.1l0.1,0l0.1,0.3l0.2,0.3l0.1,0.2l0.1,0.2l0.1,0.1l0.1,0.2l1,2.1c0.7,1.5,1.1,3,1.3,4.5l0.1,0.3V72l0.1,0.6
							v0.7l0.1,0.1l-0.1,1.4l-0.1,0.1v0.3l-0.1,0.3v0.2c-0.2,0.6-0.3,1.2-0.5,1.5l-0.3,0.7l-0.1,0.1l-0.1,0.2l-0.1,0.1l-0.2,0.3v0.1
							l0,0H182v0.1l-0.4,0.5l-1.2,1c-0.4,0.3-1,0.6-1.6,0.9c0.6-0.1,1.1-0.2,1.6-0.3l-1.2,0.6l-0.1,0.1l-1.6,0.6l0.4-0.3l0.8-1
							c0.1-0.1,0.1-0.2,0.2-0.2l-1.3,0.4l-0.3,0h-0.1l-0.1,0.1l-0.4,0.1l-0.2,0h-0.1l-0.1,0.1h-0.2l-0.1,0l-1.8,0.2H174l-0.2,0
							L158.3,82l-3,0.3H155l-0.2,0l-0.3,0.1h-0.2l-0.6,0.2h-0.2l-0.2,0h-0.1l-1.2,0.3c-1.2,0.3-2.3,0.6-3.2,1
							c-1,0.4-2.1,0.9-3.1,1.5c-1.2,0.8-2.2,1.5-3,2.2l0,0.1l-0.1,0l-0.1,0.1l-2.2,2.3c-0.8,1-1.5,2-2,3c-0.6,1-1,2.2-1.4,3.4
							c-0.3,1.2-0.5,2.4-0.6,3.6c0,0.6,0,1.2,0,1.8l0.1,0.8l0.1,0.2v0.3l0.1,0.6v0.1l0.1,0.1l0.7,2.7c0.3,0.9,0.8,1.9,1.4,3l0.4,0.7
							l0.1,0.2l0.5,0.7l0,0.1l0.1,0l1.3,1.5l3.3,2.5l0.9,0.5l0.2,0.1l0.1,0l0.1,0.1l0.2,0.2c0.3,0.2,0.8,0.6,1.4,1.2l0.9,1.1
							l0.6,1.1c0,0.2,0,0.2-0.2,0.1l-0.6-0.4l-0.1-0.1l1.6,2l0.1,0.1l0.9,1.5c0.1,0.3,0.1,0.4-0.1,0.2l-0.5-0.7
							c0.2,0.3,0.5,0.9,0.8,1.7c0.2,0.5,0.4,0.8,0.4,0.8l-0.1-0.5l-0.1-0.3c0-0.1,0-0.3,0.1-0.4c0.2-0.2,0.2-0.4,0.2-0.7l1.6,3.8
							l-0.3,0l0.4,0.8l0.3,0.4l0.5,0.9l0.6,1.3l0.6,2.5c0.4,2.1,0.6,3.8,0.8,5.1c0.2,1.8,0.3,3.6,0.3,5.4c0,1.8-0.1,3.7-0.1,5.5
							l-0.5,5.6c-0.1-0.1-0.1-0.4-0.1-1.1l0.1-2.1l-0.4,3.3c0.2-0.5,0.2-0.3,0.2,0.8c-0.1,0.9-0.1,1.3,0,1l-0.1,2.1
							c0,0.8-0.1,1.5-0.1,2.2c-0.2,2.1-0.4,3.6-0.6,4.5c-0.6,4.8-1,7.5-1.1,8.3l0.3,0.4c-0.1,0.2-0.1,0.3-0.2,0.4
							c-0.4,0.9-0.4,1.7-0.1,2.4c0.2,0.4,0.6,0.8,1.1,1.2l0.8,0.6l1.1,0.6l-0.1,0.2l1.3,0.3l0.2,0.3c-0.1,0-0.1,0-0.2,0l0.3,0.1
							l0.7,0.8l0.4,0.3l0.1,0.1h0l0.1,0.1h0.1l0.1,0.1h0.1l-0.1,0.1l1.8-0.3h-0.1l-0.6,0.1h0l0.4-0.1h0.2l0.3-0.1l1-0.1l0.1-0.1h0.1
							c0.3,0.1,0.5,0.2,0.5,0.3c0.1,0.1,0.4,0.3,1.1,0.4l4.1,1.3l0.4,0.1l7.3,2.8l3.9,2.1l0.1,0.1l4.1,2.8l0.3,0.3l0.6,0.5l2.5,2.4
							l0.1,0.1l0.1,0l0.6,0.8l0.1,0.2c0.1,0.1,0,0.1-0.1,0l-0.1,0c0.8,1,1.5,1.9,2,2.8l0.2,0.4l0.2,0.2l1.1,2.1l0.2,0.4l0.1,0.4
							v-0.1l0,0.1h0v0.2l-0.1,0.5c0-0.1,0.1,0.1,0.3,0.5v0.1l0,0.1l0.1,0.1l0.2,0.7l0.1,0.1v0.1l0.1,0.2c0.2,0.6,0.3,1.3,0.5,2.1
							h-0.1l0.1,0.1c0.2,0.8,0.4,1.6,0.6,2.6l0.5,2.9l0,0.9l0.1,0.3l0.1,3.2l0.5,0.2v0.3l-0.1,0.2v0.4l-0.1,0.5
							c0,0.2-0.1,0.3-0.2,0.4c0,0.1-0.1,0.2-0.2,0.4l-0.1,1.3l0.1,0.2l0.1,0.3v0.6c0,0.3-0.1,0.8-0.2,1.6l-0.4,1.4
							c-0.1,0.5-0.1,0.9-0.1,1.1c-0.3,0.8-0.5,1.2-0.6,1.1c0.1,0.1,0.1,0.3,0.1,0.4l-0.1,0.5c-0.1,0.2-0.2,0.6-0.4,1.2
							c0,0.2,0.1,0.1,0.4-0.4l-0.4,1.9c-0.2,0.3-0.3,0.5-0.4,0.5c-0.1,0-0.1-0.1,0-0.6l-2.4,6l-0.1,0.1l-0.1,0.1l-2.6,5.1l-0.2,0.3
							l-0.1,0.4l-11.4,20.3c0.1-0.1,0.3-0.2,0.5-0.5l1-1.5l0.6-0.5c-0.2,0.5-0.5,1-0.8,1.6c-0.3,0.4-0.5,0.8-0.5,1
							c-0.2,0-0.4,0.2-0.7,0.5l-1.5,2c-0.3,0.4-0.6,0.6-0.8,0.6l0.1,0.3l0.1,0.3l-0.2,0.1l0,0h-0.1l-0.1,0.1h0l-0.2,0.1l-0.1,0.1
							h0.1l0,0l-0.3,0.3l-0.1,0l-0.1,0.1v0l-0.3,0.3l-0.1,0l-3.9,4.5l-0.4,0.5c-0.4,0.5-0.8,1.2-1.4,2.2l-0.1,0.3l-0.1,0.1v0
							l-0.2,0.2h0.1v0.1h-0.1v0.1l-0.2,0.4c-0.1,0.1-0.2,0.2-0.3,0.2l0.1,0c0.1,0.1,0.1,0.1,0,0.3l-0.1,0l-0.1,0l-0.1,0h-0.1v0.1
							l-0.3,0.1l-0.1,0.1l-0.1,0h-0.1l-0.1,0.1h-0.1l-0.2-0.1l-0.2,0.1l-0.1,0h-0.2l-0.7,0.2c-0.6,0.1-0.7,0.3-0.4,0.5l-0.2-0.1
							l-1-0.1c-0.4-0.1-0.4-0.1,0-0.3c-0.9,0-1.5,0-1.8,0l0.8,0.2h-0.8l-0.3-0.1h-0.1l-0.7-0.1h-0.3l-0.1,0l-1.3-0.2h-0.1l-0.1,0
							h-1.1l0.8,0.4l-0.5-0.1l-0.1,0h-0.1l-0.7-0.2l-0.7-0.3l-0.3-0.2l-0.3-0.3l1.3,0.3l-0.7-0.2l-0.3-0.1l-0.9-0.3l-0.5-0.3h-0.1
							l-0.1,0l-0.1,0l-0.3-0.1l-0.8-0.4l-0.1-0.1l-0.2,0l-0.3-0.1l-0.1-0.1l0.1,0.1l0.3,0.1l-0.2-0.1l-0.1,0h-0.1l-0.1,0l-0.3-0.2
							l-1.9-1.5h-0.1l-0.2-0.3l-0.4-0.4l-0.1-0.1l-0.3-0.4c-0.2-0.2-0.3-0.4-0.4-0.5c-0.5-0.6-1-1.3-1.5-2.1
							c-0.3-0.6-0.7-1.4-1.1-2.4c-0.2-0.5-0.4-1.3-0.7-2.4l-0.3-1.3v-0.1l-0.1-0.1l0-0.4v-0.3l-0.1-0.1v-0.1l-0.1-0.9l-0.1,0v-0.2
							c-0.1,0.1-0.1,0.3-0.2,0.6l-0.1,0.5l-0.1,0.1l-0.1-0.1v-0.1l-0.2-1.4v-0.3l-0.1-0.3l0.1,0.3l0.8,0.7c0,0,0.1,0.1,0.1,0.1
							l0.2-4.1l0.1-0.5v-0.3l0.3-1.1c0.2-0.9,0.4-1.5,0.5-1.9l0.5-1v-0.1l0.1-0.1l0-0.1l0.1-0.1v-0.1c0,0,0-0.1,0.1-0.1l0.1-0.1
							l0-0.1l0.1-0.1l0.7-1.2v-0.1l0.1-0.1l0.1-0.1l0.1-0.2l1.2-2.6l0.1-0.2l5.4-15.6l0.1-0.3l0.1-0.3v-0.1l0-0.1l0.3-1.1v-0.2
							l0.1-0.1v-0.1l0.1-0.4v-0.2l0.1-0.2l0.1-1.6l-0.3-1.8l-0.2-0.6l-0.7-1.9l-0.3-0.5l-0.3-0.6c-0.1-0.2-0.1-0.3,0.1-0.2l0.3,0.3
							l0.5,0.6l0.1,0.1l-0.1-0.2l-0.1-0.2l-1.5-1.8l-1.6-1.3l-0.4-0.3l-0.2-0.2l-0.3-0.1c-0.2-0.1-0.3-0.2-0.3-0.3s0.1,0,0.2,0
							l0.4,0.1l0.4,0.3l-0.3-0.1c-0.1-0.1-0.2-0.1-0.3-0.1l-0.7-0.5l-0.2-0.1l-0.3-0.3l-0.6-0.3l-0.3-0.1c0.6,0.4,0.9,0.7,0.9,0.9
							c0,0.1,0.1,0.2,0.1,0.3s0.1,0.3,0.2,0.4l-0.5-0.3l-2.7-1.3l-0.2-0.1l0.3-0.2c-0.1,0-0.3-0.1-0.7-0.1h-0.4l-0.3-0.1h-0.3
							l-3.3-0.5c-1.4-0.3-2.6-0.4-3.7-0.6c-1.1-0.1-2.3-0.2-3.7-0.2c-1.6,0-3.3,0-5,0.1v-0.1c0-0.1-0.1-0.2-0.3-0.3h-0.1l-0.1,0.1
							l-0.4,0.2l-0.2-0.1v-0.1c0,0-0.1,0-0.1-0.1l1.1-0.1c-1,0.1-1.8,0.1-2.2,0.1c0.5,0.1,0.4,0.2-0.4,0.3c-0.2,0-0.3,0.1-0.4,0.1
							c-0.3,0.1-0.5,0.1-0.6,0c0.1,0,0.1,0.1,0.2,0.1l-0.7,0.2h0c-0.2,0-0.4,0-0.5-0.1l-0.2,0.2l-0.1,0.1l-7.9,1.8l-0.1,0.1h-0.1
							l-0.1,0.1h-0.1v0.1l-0.3,0.1l-0.6,0.1l0-0.1l-1.7,0.4h-0.3l-2.6,0.3h0.3h-0.5h0.2l-0.4,0.1h-0.1l-0.1,0.1h-0.1l-0.4,0.1
							l-0.1,0h-0.2l-0.2,0.1l-0.4,0.1l-2.2,0.7l-0.3,0.1l-0.6,0.2h-0.1l-0.5,0.3c-0.2-0.1-0.4-0.1-0.7,0c-0.4,0.1-0.6,0.1-0.7,0.1
							c0.1,0,0.2,0.1,0.2,0.2c0,0.1,0,0.1-0.1,0.1c-0.4,0.1-0.6,0.2-0.6,0.3c0,0.1-0.2,0.2-0.5,0.3c-0.4,0.2-0.9,0.3-1.6,0.5
							l-0.5,0.1l-0.3,0.1l-0.6,0.1c-0.8,0.2-1.5,0.5-1.9,0.7l-2.3,1l-0.3,0.2l-2,1.1l-0.4,0.6l-0.3,0.1l-0.2,0.2l-0.6,0.4l-0.4,0.5
							v-0.2l-2.6,2.4c-0.3,0.3-0.7,0.7-1.2,1.3l-0.1-0.1c0.5-1,0.9-1.7,1-2l-1.2,2.1v0.1l0,0.1l-0.1,0.1l0,0.3l0,0
							c-0.1,0.1-0.2,0.2-0.3,0.3l0.3-0.6l-0.4,0.8c-0.2,0.3-0.3,0.5-0.4,0.6l0.1-0.1c-0.1,0.3-0.3,0.6-0.5,0.7l-0.3,0.1
							c-0.2,0.1-0.3,0.2-0.3,0.3c0.2,0.1,0.3,0.3,0.3,0.6l-0.1,0.2v0.1l-0.1,0.2l-0.1-0.1l0,0.2v0.1l-0.6,2.5l-0.3-0.1l-0.2,2.3
							l0.1,2.5l0.1,0.3c0,0.4,0,0.7,0,1l0.2,4.1c0.1,0.7,0,1.4-0.2,2.3l-0.1-0.4c-0.1,0.4-0.1,1.2-0.2,2.4c-0.1,1.4-0.1,2.5-0.3,3.1
							c0.1-0.4,0.1-0.6,0.2-0.6c0.1-0.1,0.1,0.2,0.1,0.8l-0.7,5.7l0.2,1.7l-1.9,16.9c-0.4,2.8-0.8,5.2-1.3,7.3l-0.9,3.9l-0.1,0.3
							l-4.5,15.4c-0.3,0.8-0.7,2.1-1.3,3.9l0.1-0.3l-1.8,4.4l0,0.1h-0.1v0l-0.1,0.2l0,0v0l-0.1,0.1l-0.2,0.3l-0.1,0v0l-0.6,0.9
							c-0.5,0.8-1.1,1.5-1.7,2.3l-2.7,3l-0.4,0.4l0,0v0h0l-0.2,0.2l-0.2,0.1L63,320l-0.8,0.5l-1.5,0.6l-0.3,0.1l-0.1,0h0l-0.2,0
							l-0.8,0.2l-0.2,0h-0.1l-0.2,0l-1,0.1c-0.4,0-0.7,0-0.9-0.1c-0.8-0.1-1.6-0.3-2.4-0.6c-1-0.4-1.9-0.7-2.6-1.1l-3.9-2.1l-8-5.5
							l-0.2-0.3l-0.2-0.1l0,0l0-0.1l-0.4-0.5l-0.1-0.1l-0.1,0V311h0l-0.2-0.2l-0.1-0.1l0,0l0,0v-0.1l0-0.1l-0.6,0.3l-0.4,0.1
							l0.9-0.4v0l0-0.1l0-0.1v-0.1l0-0.1v0l-0.2-0.3l-0.1-0.5l0,0.3v0.2l-0.1,0.1l-0.1-0.1l-0.2-0.4l-0.3-1.3l0-0.1v0l-0.2-0.9
							c-0.1-0.3-0.1-0.5-0.2-0.5c-0.1-0.1-0.1-0.2-0.2-0.5l-0.4-1.6l-0.1-0.4l0-0.2v-0.1l-0.3-1.4V302l0-0.2l-0.3-3.8l0.2-2l0.2-1
							l0-0.1l0-0.1v-0.1l0-0.1l0-0.1v-0.1l0.2-0.4v0l0.4-0.9l0-0.1v0l0-0.1l0.3-0.8l0-0.1v-0.1l0.3-0.9l0.1-0.2l0.1-0.3l0.5-2.2
							l0.2-0.4l1-4.4c0.8-3.3,1.7-7.6,2.7-12.9l1.6-7.9v-0.2l0.2-0.6c0-0.2,0.1-1.2,0.3-3l1-8l0-1.1l0,0.4l2.3-30.5l-0.1,0.6l0-2.3
							c0-0.5,0.1-0.9,0.2-1.3c0.2-0.9,0.3-1.9,0.4-2.9c-0.2,0.2-0.3-0.3-0.4-1.5s-0.2-2.1-0.1-2.7l0.1,0.1l-0.2-4.3
							c-0.1-2.4-0.1-4.2,0-5.3l0.2,0.1c-0.1-1.4-0.1-3.1,0-5.1l0.3-21.5l0.4-3.8l-0.1-0.6l-1-0.8c-0.8-0.6-1.6-1.1-2.2-1.3
							c-0.1,0-0.3-0.1-0.4-0.2l0-0.3l1.7-0.8l-0.4,0.1l-1,0.4l-0.1,0.1l-0.2,0.1l-0.4,0.2c-0.1,0-0.2,0-0.3,0l0.5-0.3l-0.5,0.3
							l-0.1,0.1c-0.4,0-0.8,0.1-1.2,0.3c-0.4,0.3-0.8,0.7-1.1,1.2c0,0,0,0.1-0.1,0.1c-0.3,0.1-0.4,0.2-0.5,0.1c0,0-0.2,0-0.4,0.1
							l0.1-0.6c-0.1,0.2-0.1,0.4-0.2,0.7c-0.1,0.1-0.2,0.1-0.3,0.2l-1.3,1.3c-0.6,0.5-1.1,0.9-1.6,1.3v-0.1c-0.5,0.3-1,0.7-1.7,1.3
							l-3.7,3.4l-0.5,0.3l0.2-0.3c-0.3,0.2-0.9,0.7-1.7,1.4l-2,1.8c0.2-0.2,0.4-0.3,0.5-0.3c0.1,0,0,0.2-0.4,0.6l-3.3,3.1l-0.5,0.4
							l-0.8,1.3l-1.2,1.1l-6.8,7.9l-4.4,6.2l-0.1,0.2l-0.1,0.1L6,207.3c-1.3,2-2.4,3.5-3.2,4.6l-2.8,3.6c-0.9,1-1.6,1.8-2.1,2.2
							l0.2-0.2l-0.6,0.6l-0.2,0.1l-0.4,0.4l-1.4,1.1l-0.1,0.1l-0.1,0.1l-0.2,0.1h0l0,0.1l-0.1,0.1h-0.1l-0.1,0.1h0.1l-0.1,0h-0.1
							l-0.2,0.1l0,0h-0.1l-0.3,0.1h-0.1l-0.1,0.1l-0.8,0.1c-0.5,0.1-1,0.1-1.5,0L-10,220c-0.6-0.2-1.1-0.5-1.5-0.9l-0.4-0.3
							l-0.1-0.1H-12v-0.1l-0.2-0.1v-0.1h-0.1l-0.1-0.1l-0.1-0.1l-0.7-0.7c-2.4-2.5-4.6-5.3-6.5-8.5l-0.4-0.5l0-0.1l-0.1-0.1
							l-1.6-3.3c-0.4-1-0.8-2.2-1.1-3.7l-0.3-5c0,0.4,0,0.6-0.1,0.5l0-0.2l-0.1-0.4v-2.1l-0.1-1v-0.7l0-0.3l0.1-1.8l1.1-6.3
							c0.5-1.8,1-3.4,1.4-4.8l2.3-6l0-0.1v-0.1l0.1-0.2l1.6-3.6c0.6-1.3,1.4-2.7,2.3-4.3l3.7-5.7l0.5-1l3.5-4.9l0-0.1l0.1-0.1
							l0.9-1.2l0.1-0.1v-0.1l0.1,0l0.2-0.2l-0.1,0.3l2.1-2.5L11.7,135l-0.4,0.3l1.3-1.2l2.9-2c-0.2,0,0-0.4,0.6-1.1l1.6-1.6v0.1
							l5.9-5.3l0,0.2l8.3-7.9c0.8-0.8,1.6-1.7,2.6-2.8c1-1.3,1.8-2.5,2.4-3.5c0.4-0.7,0.7-1.3,1-1.9c0.3-0.6,0.6-1.3,0.8-2.1
							c0.3-0.6,0.6-1.3,0.8-1.9l0-0.4l0.4-0.9l0-0.2l0.1-0.2l0.1-0.4l-0.1,0.3l-0.1,0.2l-0.3,0.6l0.2-1v-0.2l0,0l0.3-0.8l-0.2,0.6
							c0.3-1.2,0.5-1.7,0.5-1.3c0,0.2-0.1,0.7-0.3,1.6l0.9-3.3c0-0.1-0.1,0.2-0.3,0.9l0.9-5.8c0.2-0.8,0.3-1.3,0.3-1.3l0.2-0.3
							c0.1,0,0.2-0.2,0.2-0.4l0.1-0.6l1.3-11.6v-0.4l0.1,0v-0.5l0.2-2.7c0.3-4.4,0.4-9.1,0.5-14.1l-0.3-13.9
							c-0.1-5.3,0-9.8,0.2-13.4c0-0.2,0-0.2,0,0c0,0.4,0.1,0.6,0.1,0.6c0.1-1.8,0.1-3.1,0.3-3.9l0.3-3.2l0-0.2v-0.1l0.4-2.1v-0.2
							l0.8-3l0.1-0.4l0.2-0.8c0.3-0.7,0.7-1.3,1-1.7c-0.1,0,0-0.2,0.2-0.8l1-2.7l4.1-8.2v0l0-0.1l0-0.2L53.5,7l0.1-0.1l0.1-0.1v0
							l0.3-0.5l0-0.1l1.7-2.4c0.9-1.1,1.8-2.1,2.6-3c1.1-1.1,2.1-2.1,3-2.8l0-0.5l1.2-0.9l0.8-0.4c0.3-0.2,0.5-0.3,0.7-0.3l0.9-0.4
							L66.3-5.7 M164.5,123.3l-0.1-0.2l0-0.1l-1.4-3.5c-0.1-0.1-0.1-0.3-0.2-0.4l6.6,3.8l0.3-0.3c0.5,0.3,0.8,0.6,0.9,0.8
							c0.1,0.2,0.3,0.4,0.8,0.7c0.1,0,0.4,0,0.7,0.2l1.6,1.1c0.3,0.2,0.5,0.3,0.6,0.3c0.4,0.3,0.6,0.5,0.5,0.6
							c0.3-0.1,0.7,0.1,1.2,0.6c0,0,0-0.1-0.1-0.3l1.1,0.5c0.2,0.2,0.2,0.3,0.2,0.4c0,0.1-0.1,0-0.4-0.1l3.2,2.4
							c1.6,1.2,3.2,2.5,4.7,3.9l7.1,6.9c0-0.1-0.2-0.3-0.5-0.8l-0.3-0.4l-0.1-0.4c0.2,0.2,0.5,0.4,0.7,0.6c0.2,0.2,0.3,0.4,0.4,0.4
							c0,0.1,0,0.3,0.1,0.5l0.8,1.2l0.1,0.3l0,0.3h0.4l0.1,0.5l0.4,0.4l0.6,0.8l0.1,0.1l0.1,0.1l0.3,0.4l0,0.1l0.1,0.1l0.1,0.1
							l0.1,0.1l0.5,0.9l1.4,1.8c0.4,0.4,0.7,0.8,0.9,1.3c0,0,0-0.1,0-0.2c0-0.1,0.1-0.1,0.2,0.1c0,0.1,0.1,0.3,0.4,0.6
							c0.3,0.4,0.4,0.7,0.4,0.8l0.7,0.9c0.3,0.5,0.4,0.6,0.4,0.2l0.3,0.9c0,0.2,0.1,0.3,0.1,0.3c0,0-0.1,0-0.3-0.2
							c0.3,0.6,0.5,1,0.6,1.2l-0.2-0.6l0.9,1.8c0.3,0.5,0.6,1,0.9,1.3l-0.2-0.6l0.6,1.2c0.2,0.3,0.2,0.6,0.1,0.9l-0.5-0.8l1.4,2.5
							l0.6,0.8l-0.2-0.4l0.3,0.3l0.3,0.4l0.2,0.3l0.3,0.6l0.1,0.2l0.5,0.8l0.2,0.4l0.1,0.1l0.7,1.5l0.2,0.4l2.4,5.5l0.1-0.8l0.6,1.3
							c0,0-0.2-0.1-0.6-0.3c-0.3-0.1-0.5-0.2-0.5-0.3l1.5,5.4v0l0.1,0.6v0.2l0.1,0.1v0.1l0.1,0.6l0.1,0.1v0.3l0.2,2
							c0,0.8,0,1.6-0.1,2.5c-0.1,0.6-0.3,1.3-0.6,2l-0.6,1.2l-0.3,0.4v0.1l-0.1,0.1l-0.1,0.3l-0.6,0.6l-0.1,0.1c0,0-0.1,0-0.2-0.1
							v-0.2l-0.1-0.1l0,0.1l-0.1,0.1l-0.1,0.3v0.1l0,0.1l-0.3,0.4c-0.1,0.1-0.2,0-0.2-0.1l0.1-0.3l-0.5,0.6c0.2-0.1,0.3-0.1,0.3-0.1
							l0.2,0.1c0.1,0,0.3,0.1,0.4,0.2l-0.3,0.2l-0.6,0.6l-0.2-0.3l-0.1,0.3l-0.1,0.4l-0.3,0.5l-0.3,0.3l-0.3,0.2
							c-1.4,0.9-2.3,1.4-2.6,1.6l-0.4,0.2l-0.1,0.1l-1.8,0.8l-0.1-0.2l0.1-0.1l-0.1,0.1l-0.4-0.6l0.3,0.5l-3.2-4.9l-0.7-0.9
							c0,0.1-0.2,0.1-0.5-0.1l-0.5-0.3l-1.6-1.4l-0.1-0.1l-1.1-0.9l0.1-0.1l-1.6-1.2l-3.9-2.4l-0.2-0.1l-0.1-0.1l-1.2-0.6l-0.2-0.1
							l-0.1-0.1l-1.2-0.6l0.3-0.2l-1.6-0.7c-0.2-0.1-0.4-0.2-0.6-0.3l-1.3-0.6l-0.1,0l-0.1-0.1l-12.7-4.1l-3.5-0.6l0.6-2.8l0.1,0.1
							c0.5-2.2,0.9-4.7,1.1-7.5l0.7-7.2l0,0.6l0.5-5.6l0.1-0.2l0.3-3.8c-0.1,0.6-0.1,1-0.2,1.1c-0.1,0.1-0.1-0.4-0.1-1.4l0.1-1.6
							l-0.3-7.4l-0.1-0.3l0-1.2l-0.8-3.1l-0.1-0.4l-1.3-5.2l-0.1-0.1l-0.1-0.3l-0.4-1.3l-0.1-0.2L164.5,123.3 M159.8,180.9l-0.3,0.1
							h-0.1l-0.2,0.1l0.1-0.1h0.1l0.2-0.1H159.8 M108.6,223.9v-0.1h0.1l0.6,4.8l-0.4-2.2v-0.3l-0.1-0.1v-0.2l-0.2-0.8v-0.6l0-0.1
							L108.6,223.9z"/>
					</g>
				</g>
			</g>
		</g>
	</g>
</g>
</svg>
