<?xml version="1.0" encoding="utf-8"?>
<!-- Generator: Adobe Illustrator 24.1.2, SVG Export Plug-In . SVG Version: 6.00 Build 0)  -->
<svg version="1.1" id="Layer_1" xmlns="http://www.w3.org/2000/svg" xmlns:xlink="http://www.w3.org/1999/xlink" x="0px" y="0px"
	 viewBox="0 0 256 256" style="enable-background:new 0 0 256 256;" xml:space="preserve">
<style type="text/css">
	.st0{fill:#FFFFFF;}
</style>
<g id="jump3">
	<g transform="matrix( 0.6996917724609375, 0, 0, 0.6996917724609375, 57.25,20.7) ">
		<g id="jump">
			<g transform="matrix( 1, 0, 0, 1, 0,0) ">
				<g>
					<g id="jump_2_Layer0_0_FILL">
						<path class="st0" d="M43.1-0.2L43-0.1L43,0l-3.9,6.6c-1.1,2.2-2.2,4.5-3.1,6.8l-2.4,7.1c-0.1,0.2-0.2,0.6-0.3,1.1l0,0.3l0,0.1
							l-0.1,0.2l-0.3,1.1v0.1l0.1-0.3L33,23l0.2-0.5L33,23.1v0.1l0,0.1l-0.2,0.7v0.2l0,0.2l-1.3,6.9c0,0,0,0.1,0,0.1v0l-0.1,0.1v0.1
							l-0.2,1.7c0.1-0.1,0.2,0,0.3,0.5l0.3,6.5l-0.1-0.1c0.1,2.4,0.2,4.7,0.4,6.9l0.2,2.2V50l0,0.1v0.4l0.4,5.2l-0.3-0.2l0.2,2.2v0
							l0.1,0l0.3,5.6c0,0.5,0.1,2.9,0.3,7l-0.3,14.9l-0.1,0.4l-0.2,10.8L32.6,97v0.2l0,0.2l-0.1,2.5l-0.1-0.1l-0.2,0.7l-0.5,1
							l-0.1,0.2c0,0,0,0,0,0l0.6-1.2l-0.1,0.1l0,0.1l-0.1,0.1c0,0-0.1,0-0.1,0l0.1-0.3v-0.1c-0.2,0.4-0.4,0.6-0.6,0.8c0,0,0,0,0.1,0
							l0.1-0.2l0.1-0.1l-0.4,0.9c-0.2,0.4-0.4,0.7-0.6,0.9l-0.4,0.4c-0.1,0-0.1,0-0.1,0l-0.2,0.1l-0.3,0.3l-0.2,0.2l-1.3,1.3
							l-3.2,2.7c-1.7,1.3-3.4,2.5-5.2,3.7L8,118.7c-0.1,0,0-0.1,0.2-0.3l-6.6,4.5c-0.2,0.1-0.6,0.2-1.1,0.4c0.2,0-0.4,0.4-1.6,1.3
							l-9.7,6.9l-0.6,0.4l0.1,0.4c-0.8,0.6-1.3,0.9-1.6,0.9l-0.4,0.1l-0.9,0.7l-0.1,0.1c-0.2,0.4-0.4,0.7-0.8,0.9l-0.1,0.1l-1.1,0.9
							l-0.1,0.1h0l-0.1,0.2l-1.3,1l-0.2,0.3c-0.1,0.1-0.2,0.2-0.3,0.3l-0.6,0.4c-0.3,0.3-0.5,0.4-0.5,0.3c0,0.2-0.2,0.4-0.6,0.8
							l-0.9,0.9c-0.1,0.1,0,0.1,0.1,0.1l0.3-0.3l-1.2,1.5l-0.3,0.1l-0.1,0.1l-0.2,0.1c-0.1,0,0-0.1,0.3-0.4l-7.2,8.7l-2.4,3.8
							l-0.2,0.3l-0.3,0.6l-0.2,0.3l-0.5,0.9l-0.2,0.3l0,0.1l-0.1,0.1l-1.9,3.6c-0.4,0.8-1.2,2.4-2.2,4.6l-2.4,6.7l0.4-0.7l0.3-0.8
							c0.3-0.7,0.6-1.2,0.8-1.3l-0.3,1.3l-0.2,0.3c-0.2,0.4-0.3,0.8-0.3,1.1c-0.2,0.1-0.3,0.3-0.5,0.6l-0.8,2.4l-0.5,0.9l0,0.1v0.1
							l0.1,0.4l-0.3,0.6l0,0.3v0.1l0,0.1v0.1l-0.4,3.1v0.3l-0.4,2.9l0,2.4l0,0.1v0.3l0.3,2.4l0.2,0.8l0.1,0.4l0,0.2v0.1l0.2,1.5
							v-0.6l0.1-0.1l0.2,0.4c-0.1,0.1,0,0.5,0.3,1.3l0.3,1.3v0.3l0.7,2.1l0.2,0.4l0.2,0.3c0.1,0.2,0.1,0.1,0.1-0.1l0.1,0.6l0.1,0.3
							v0.1h0v0.1l0.1,0.4c0.1,0.3,0.1,0.4,0,0.4c0,0-0.1-0.1-0.3-0.4l0.3,0.7l0,0v0.1l0.1,0.3l0.5,0.9l-0.3-1l1.9,4.3l0.8,1.1
							l-0.3-0.9l1.1,1.9l0.3,0.8l0.2,0.7l-1-1.4l2.5,3.8l0.3,0.3l0.1,0.1l0.1,0.1l0,0.1l0.3,0.3l0.1,0.2l0.1,0.1l0.1,0.1l0.5,0.6
							l-0.5-0.6l1.1,1.1l0.3,0.2l0.4,0.3l0.1,0.1l0.1,0.2l1.6,1.1l0.2,0.1l0.6,0.4c1.2,0.7,2.4,1.2,3.6,1.5c1.3,0.4,2.6,0.7,3.8,0.9
							c1.4,0.2,2.6,0.3,3.6,0.3l2.6-0.1l0.1-0.1h0.1l0.8-0.1l1.4-0.4l0.2-0.1l0.2-0.1l0.7-0.3l1.3-0.7l0.1-0.1l0.4-0.3L-8,215
							l0.2-0.1l0.3-0.2L-9,215c0.5-0.3,1.2-0.8,2.1-1.5l-0.4,0.8l-0.1,0.3l-0.1,0.2c-0.1,0.1-0.1,0.2-0.2,0.2l2.5-1.7
							c1.2-0.8,2.3-1.8,3.3-2.8l3.5-3.7c1.4-1.5,2.5-2.9,3.5-4.2l5.4-7.3l0.2-0.2l0.9-1.1l3.1-3.4l0.1-0.1c0.5-0.4,0.7-0.5,0.8-0.3
							l-0.1,0.5l0.6-0.8l0.1-0.4l0.2-0.3l0.5-0.6c0.2-0.1,0.2-0.1,0.1,0.1c0,0.1-0.1,0.3-0.2,0.4l0.9-0.9l0.1-0.1
							c-0.3,0.2-0.5,0.3-0.7,0.1c-0.3-0.1-0.5-0.1-0.5-0.1l0.6-0.5l0.2-0.2l0.8-0.7l0.1,0.3c0.2-0.3,0.4-0.6,0.5-0.9l0.5-0.8l1-0.8
							c1.7-1.3,3.2-2.4,4.4-3.2c1.5-1.1,3-2,4.5-2.9v0.1c-0.1,0.1-0.1,0.2-0.3,0.3l-0.8,0.7l1-0.6l-0.7,4.9
							c-0.3,2.6-0.6,5.5-0.8,8.7l-0.3,8.8c0,3.4,0.1,6.4,0.3,8.9c0,0.1-0.1,0-0.1-0.4l1,10.1v0.6l0,0.4l-0.2,0.5l2.2,11.3v0.1
							c0-0.1,0-0.1-0.1-0.2l0.3,1.6l0.1,0.4l0.7,4.5l0.5,0.1l0.2,1.6c0,0.2,0,0.4-0.1,0.6c-0.1,0.1-0.1,0.3-0.1,0.4l0.2,1.4
							c0.2,0.2,0.3,0.6,0.4,1.3l0.1,0.4l0.2,3.1c0.1,0.6,0.1,0.9,0.2,1.1c0,1,0,1.4-0.2,1.4l0.1,0.2l0.2,0.8c0,0.8,0,1.2,0,1.4
							s0.1,0.1,0.1,0c0.1-0.3,0.1-0.5,0.1-0.5l0.2,2c-0.1,0.4-0.2,0.6-0.3,0.7c-0.1,0-0.1-0.2-0.2-0.6v1l0,0.2l-0.1,1.8l0,0.3v0.3
							l-0.5,3.3c-0.1,1-0.4,2.7-0.9,5.1c-0.4,1.6-0.8,3.5-1.4,5.6c-0.5,1.8-1.2,3.5-1.9,5.4l-0.1,0.1v0l-0.1,0.3v0.1l-2.6,7.4v0.1
							l0,0.1l0,0.3l-0.2,0.4l-0.6,2.5c-0.3,1.7-0.5,3.2-0.5,4.4l0.7-3.6l0.4-0.9l-0.3,2.5l-0.1,0.5v0.8l0,0.4
							c-0.4,0.4-0.5,1.4-0.4,3l0,2c0,0.8,0,1.4-0.1,1.6l0.5,0.6l0,0.3l0.1,0.5l0,0.7l1.8,4.9l0.1,0.2l0.6,1.6l0.2,0.4l0,0.1l0.2,0.4
							l0.1,0.3l1,1.8l0.1,0.2l0.1,0.2l0.1,0.2l0.1,0.1l0,0.1l0.3,0.4v0l0.1,0.1v0.1h0.1l0,0l0.1,0.1l0,0l0.1,0.2l0.1,0.1l0.2,0.2
							l0.1,0.1c0.6,0.7,1.3,1.3,1.9,1.9l2.9,2.5c-0.1-0.1-0.2-0.2-0.4-0.4c-0.1-0.1,0-0.1,0-0.1l0.5,0.3c0,0.2,0.5,0.5,1.4,1.1
							c1,0.6,1.5,1,1.5,1.1l3,1.7c0.2,0,0.2-0.1,0-0.3c0.1,0.2,0.3,0.4,0.6,0.5l0.6,0.5l0.1,0l0.1,0.1h0v0h0
							c0.3,0.2,0.4,0.3,0.4,0.4H44l-0.2-0.1l-0.3-0.1l2.4,1.3l-1-0.8l3.6,1.9h0v0.1l0.2,0l0,0.1l0.4,0.1l0.2,0l1,0.5h0.1l0.9,0.3
							l0.9,0.1l-1-0.4l-0.3-0.2l4.6,1.6l0.4,0.2l2.8,0.5c0.8,0.1,1.6,0.1,2.5,0h0.3l0.6-0.1h0.3l0.9-0.1h0l0.1-0.1h-0.2l-0.3,0.1
							h-0.3l-0.3,0l0.3,0h0.1l0.5-0.1h0l0-0.1h0.2l2.2-0.4L69,326l0.9-0.4l0.2,0h0l0.1-0.1c0,0-0.1,0-0.1,0l0.2,0l0.4-0.2
							c1.5-0.7,2.6-1.4,3.4-1.9l-0.4,0.3l0.6-0.3c0,0-0.1,0-0.1,0l2.8-1.5l0.2-0.1l0.2-0.1l0.2-0.1l0.2-0.1l0.2-0.1l0.6-0.4l0.2-0.1
							l0.1,0l0.2-0.2l0.1,0v0h0l0.4-0.4c0,0,0.1,0,0.3-0.3l0-0.1l0.2-0.2l0.1-0.1l0.1-0.1l0.1-0.1c0.1,0,0.1-0.1,0.2-0.3l2.3-3.4
							l0.2-0.4l0.2-0.2v-0.1l0.2-0.2l1.8-3.6l-1.1,1.1l1.2-2.5c0,0.1,0,0.4,0.1,1c0.1,0.4,0.1,0.7,0.1,0.8l1.9-3.4l0-0.1l0.3-0.7
							l0.1-0.1l0.1-0.1l0.1-0.3l1.3-2.5c1-2.2,1.8-4.1,2.4-5.6c0.7-1.7,1.5-3.8,2.4-6.1l2-5.5l4-14.3c0.3-0.9,0.5-1.3,0.6-1
							c0.1,0.1,0.1,0.4,0.2,0.7l0.1-1.4l0-1l0.2-1.1c0.1-0.3,0.1-0.3,0.2-0.1c0,0.2,0.1,0.4,0.1,0.6l0.2-1.4c0.1-0.4,0-0.7-0.1-0.7
							c-0.1,0.5-0.2,0.8-0.4,0.9l-0.3,0.1c-0.1,0-0.2,0.1-0.3,0.2l0.3-3l0.3,0.2c-0.1-0.5-0.2-1-0.3-1.5c-0.1-0.7-0.2-1.1-0.2-1.3
							l0-0.8l0.1-2l-0.3-6.6c-0.1-1.8-0.5-4.3-1-7.5c0.1,0,0.2,0.3,0.4,0.7l0.3,1.3l-0.3-2.3c0,0.3,0,0.4-0.1,0.3l-0.2-0.6
							c-0.1-0.7-0.2-0.9-0.2-0.6l-1.2-4.8l0.1-0.1h0.2v-0.3c0,0.1-0.1,0.1-0.1,0.1c-0.1,0-0.2,0-0.3,0l-0.1-0.3c0,0,0.1,0,0.2-0.1
							c0.1-0.1,0.1-0.2,0.1-0.2l-0.1-0.2v-0.1l0-0.1V238l0-0.1v-0.1H98v-1.4l-0.1-0.7l0.2,0.1c-0.1-0.4-0.1-0.7-0.2-0.9l0.4,0
							l-0.1-0.1v-0.1l-0.1-0.1v-0.3l-0.8-0.3h-0.1l0-0.1l-0.3-0.1v-0.1l-0.3-0.1l0-0.1h-0.1l-0.1-0.1h0v-0.1l-0.1,0l1.7,0.5l0.2-0.2
							l1.2-0.2h0.1l0.3-0.1l0.5-0.1c0.5-0.1,1-0.2,1.3-0.4c-0.1-0.1-0.2-0.1-0.3-0.1c-0.1,0-0.3-0.1-0.3-0.2
							c0.1-0.1,0.2-0.2,0.3-0.2c0.1,0,0.2-0.1,0.2-0.1c0.1,0.2,0.2,0.3,0.4,0.3c0.3,0,0.5,0.1,0.6,0.3v-0.4l0.2,0.2
							c0.4-0.3,0.7-0.4,0.7-0.4c0.4,0,0.6,0,0.7,0c0.2-0.1,0.4-0.2,0.7-0.4l0.2-0.1l0,0v-0.1c0.1,0,0.1,0,0.2-0.1l-0.1-0.1
							c0-0.1,0-0.2,0-0.2c0,0.1,0.1,0.1,0.3-0.1c0.1-0.1,0.2-0.1,0.3,0c0.2-0.1,0.3-0.1,0.3-0.1c0.1-0.1,0.2-0.2,0.1-0.4
							c0,0,0.1,0.1,0.3,0.2c0.1,0.1,0.2,0.1,0.1,0.2c0.2,0,0.4,0,0.4-0.1l-0.2-0.1c0.6,0,0.9-0.1,1.1-0.4l-0.3-0.1
							c0.4-0.1,0.6-0.1,0.8,0.2l-0.3,0.2l0.6-0.2l0.1-0.1l0.2-0.1h0.1v-0.1h0v-0.1l0.1-0.1h-0.1l0.1-0.1l0.1-0.1l0.3-0.2l1.1-0.4
							l0.2-0.1h0.1v-0.1h0.2l0.8-0.4c0.3-0.1,0.6-0.3,0.7-0.5l-0.3-0.3l0.3-0.3l0.3-0.1v0.1c0,0-0.1,0.1-0.3,0.1v0.4
							c0,0.2,0,0.4,0,0.5l0.5-0.1l0-0.1h0.2l0.6-0.1l0.3-0.1v-0.1h0.1h0.2l0.1,0h0.4l0.2-0.1l1.8-0.1l0.9,0.1l0.2,0.1
							c0.2,0.1,0.3,0.2,0.2,0.4c0,0.1-0.1,0.2-0.2,0.3l0.3-0.1l0.2-0.2h0.2c0.1,0,0.1,0.1,0,0.2c0,0.1-0.1,0.1-0.1,0.1
							c0.1,0,0.2,0,0.3,0.1c0.1,0,0.1,0,0.1-0.1c-0.1-0.1-0.1-0.2-0.1-0.3c0-0.3,0-0.4-0.1-0.5l0.6,0.1l0,0.3l0.3-0.3
							c0.1-0.2,0.3-0.3,0.6-0.2l0.3,0.1l1.7-0.1c0.1,0.1,0.3,0.1,0.6,0.2c-0.1,0.1-0.2,0.1-0.3,0.2c0.2,0,0.4,0,0.4,0.1
							c-0.1-0.1,0-0.2,0.1-0.2l0,0c0.3,0,0.7,0.1,1.1,0.1c0.9,0.1,1.7,0.3,2.2,0.4c-0.1-0.1-0.2-0.1-0.2-0.2c0,0,0-0.1,0.1-0.1
							l0.5,0l2.3,0.5c0.8,0.2,1.4,0.4,1.8,0.6h1.1l1.2,0.4l0.1,0l0.3,0.1l0.6,0.3l0.1,0.1h0l0.1,0h0.1l0,0l1.9,16.8v0.4l0.2,2.6v0.4
							l0.1,0.3l0.1,2.8c0,2.7,0,5.5-0.2,8.5l-0.1-0.3l-0.1,3l-0.1,0.3l-0.2,4.8c0.1,1.4,0.2,2.8,0.5,4c0.3,1.4,0.8,2.8,1.4,4.1
							c0.7,1.5,1.4,2.8,2.3,3.9c0.8,1.1,1.8,2.2,3,3.3l0.4,0.4l1.3,1l3.1,2l0.2,0.1l0.2,0.1l0.5,0.3l0.3,0.1l0.7,0.4h0.1l0,0.1h0.1
							l0.6,0.3h0.1l0.1,0h0.1l2.9,1.3c1.3,0.5,2.6,0.9,3.8,1.2l3.7,0.6h0.3c1.3,0.1,2.6,0.1,3.9,0c1.2-0.1,2.4-0.3,3.8-0.6
							c1.2-0.4,2.3-0.8,3.3-1.3c1.2-0.6,2.1-1.1,2.8-1.5l1.9-1.1l0.1-0.1h0.1l0.1-0.1l1.8-1.4c0.4-0.3,0.6-0.5,0.7-0.6l1.3-1.1
							l-0.5,0.3c-0.1,0-0.2,0-0.2,0c0.1-0.2,0.3-0.4,0.6-0.7l2.1-2.1l0.3-0.5c0-0.1,0.1-0.3,0.3-0.5l1.8-2.5
							c0.2-0.2,0.5-0.6,0.9-1.4l1.4-2.4l0.1-0.1l0.1-0.1l1.1-2.1l0.1-0.1l0.6-1.4v0l0.1-0.1l0.1-0.3l0.1-0.3l0.1-0.1v-0.1l0.1-0.1
							l0.1,0l2.4-7.1l0.1-0.4l1.7-6.6v-0.2l0.3-1.6l0.1-0.1v-0.2l0-0.2l1.9-13.8c0-1.1,0.1-2.8,0.4-5.1l0.4-4.8l0.1-0.3l0.1,0.3
							l0.3-9.7c-0.1-2.1-0.3-3.6-0.4-4.6c-0.1-1.1-0.3-1.8-0.4-2.3l-0.2-0.9l-0.1-0.3l-0.3-1.1c-0.4-1.4-0.8-2.8-1.3-4.1l-0.4-0.9
							l-0.2-0.4l-0.3-0.9l-1.5-3.3l0.2,0.6l-2.8-5.6l-0.2,0.1l-0.1-0.1l-0.1-0.1l-0.9-0.9l-0.4-0.5l-0.3-0.3v-0.1h-0.1v-0.1
							l-0.2-0.2l-0.7-0.8l0.1-0.1l-0.5-0.6c-0.1-0.2-0.3-0.4-0.6-0.7l-4.6-5.1l0.3-0.1l-11.2-11.6l-3.1-2.4c0.4-3,0.8-5.2,1.1-6.8
							l0.1,0c0.2-0.8,0.4-1.8,0.5-2.8c0.3,0.2,0.6,0.4,0.8,0.6l-0.3-0.1l0.5,0.5l2.3,1.8c-0.1-0.1-0.2-0.2-0.2-0.3
							c0-0.1,0.2,0,0.5,0.2l1.6,1.3c0.7,0.6,1.1,1,1.3,1.2l1,0.5l3.1,2.6c0.1,0,0.2,0.1,0.4,0.3l13.6,12.7l0.2,0.1l0.2,0.1l0.3,0.3
							c0.7,0.6,1.7,1.2,2.9,1.9c1,0.6,2,1.1,3,1.4c0.9,0.4,1.9,0.7,3.1,0.9l2.1,0.4l1.7,0l0.3,0c0.5,0,0.9,0,1.1-0.1l-0.4,0.1
							l2.1-0.3l2.1-0.7l1.4-0.6l0.2-0.1l0.9-0.5h0.1l0.1-0.1l0.3-0.1l0.4-0.3l0.2-0.1l0.1,0h0.1l0.1-0.1l0.4-0.4h0.1l0.1-0.1l2-1.6
							c1.5-1.3,2.8-2.7,4.1-4.3c0.7-0.9,1.3-1.8,1.8-2.6c0.7-1.2,1.2-2.2,1.5-3c0.4-1,0.8-2.1,1.1-3.3c0.3-1.3,0.5-2.4,0.5-3.3
							l0.1-0.4v-0.5l0.1-0.4v-1.1l-0.1-0.5v-0.3l-0.2-2.2l-0.1-0.2l-0.1-1l-0.1-0.1v-0.2l-0.7-3.7l-0.1-0.3l-0.9-3.2l-0.1-0.3
							l-0.3-0.7l-0.4-1.9l-0.8-2l-0.1-0.3l-0.4-0.9c0.1,0.4,0.1,0.6,0.1,0.6c-0.1,0-0.2-0.2-0.4-0.6l-0.6-1.4l-0.1-0.1v-0.1
							l-0.1-0.1l-0.3-0.4c-0.1-0.1-0.1-0.2-0.3-0.3l0-0.1h-0.1v-0.1l-0.1-0.1l-0.1-0.2l-0.6-0.9l-0.1-0.3l-4.2-6.2l-10.1-11.9
							l-0.1-0.2l-2-2c-0.6-0.5-1.5-1.4-2.9-2.5l-2.1-1.6c-0.2-0.1-1.5-0.9-3.7-2.2c-1.5-1-2.7-1.6-3.7-2l0.3,0l-9.4-4.8
							c-2.6-1.2-4.6-2.1-5.9-2.6l-3.3-1.3l-0.7-0.2l0.4,0.2l-1.5-0.5l-1.1-0.6l-0.1-0.1h-0.1l-0.1-0.1l-1.1-0.5
							c0,0.1-0.1,0.2-0.3,0.2c-0.3,0-0.6,0-0.8-0.1l-1.7-0.5l0-0.1l-5.7-2.1l0.2-0.2c-0.6-0.2-1.5-0.6-2.8-1.4
							c-0.7-0.4-1.5-1-2.3-1.6l-0.4-0.3l-2.8-2.8c-0.6-0.8-1-1.4-1.3-1.9l-0.1-0.1l0.1-0.1v0l0.2-0.1l0.1-0.2l0.2-0.1l0.2-0.2
							l0.1-0.1l0.1-0.1l0.3-0.1l0.2-0.2l0.6-0.3c0.8-0.4,1.5-0.6,2.1-0.8l0.3-0.1l0.3,0l0.3-0.1l0.3-0.1l0.1-0.1h0.1l0.4-0.1h0
							l0.3,0l2.7-0.3c1.8-0.1,3.6-0.2,5.5-0.3l2.3-0.1l0.3,0l2.6-0.1c2.1-0.1,3.7-0.3,4.7-0.4l2.9-0.5h0.1l0.1,0l0.1-0.1h0.2
							l0.3-0.1l0.4-0.1l-0.3,0.1l-0.1,0.1h0.1l0.9-0.3l0.1-0.1l0.3-0.1h0.1l0.7-0.2c1-0.3,1.9-0.7,2.8-1.1c0.8-0.3,1.7-0.9,2.8-1.6
							c1-0.7,1.9-1.4,2.8-2.3l0.6-0.6h0.1l0.1-0.1l0.3-0.4l0.3-0.3l0.2-0.3l0.1,0l0.1-0.2v-0.1l0.1-0.1l1.1-1.5V82l0.1-0.1l1.3-2.6
							l0.1-0.2l0.7-2.1l0.3-1.4c0.2-1.2,0.4-2.5,0.4-3.8v-1.4l-0.1-0.5v-0.3l-0.1-0.2V69l-0.1-1.3l-0.1-0.3v-0.3l-0.1-0.2V67
							l-0.1-0.7c-0.1-0.7-0.3-1.3-0.4-1.8c-0.3-1.2-0.6-2.3-1-3.4c-0.4-0.9-0.9-2-1.5-3.3l-0.8-1.5l-0.1-0.1L191,56l-0.2-0.2
							l-0.1-0.2l-0.5-0.8l-0.2-0.4l-6.6-8.1l-0.3-0.3v0l-0.1,0l-1.3-1.5l-0.1-0.2l-0.5-0.5l-5.6-6.7l-0.1-0.3l-0.1-0.1l-1.3-2.2
							l-4.1-9.2l-5-13.1c-0.5-1.6-1.2-3.4-2.2-5.5c-0.7-1.6-1.7-3.4-2.8-5.5c0.4,0.9,0.6,1.3,0.4,1.2l-0.6-0.7L159,0.1l-0.2-0.1
							l-0.2-0.4l-2.4-3.5L156-4.1l-0.3-0.3l-0.3-0.4l-0.2-0.2L155.2-5h-0.1l-1.6-1.7l-5.1-4.5l-0.6-0.4l-0.1-0.1l-1.6-1.1
							c-0.6-0.4-1.8-1.2-3.7-2.3l-8.4-4.2l-0.2,0l-0.1-0.1h-0.1l-0.9-0.4l-0.1,0h-0.1l-0.1-0.1l-3-1.2h0l-0.1-0.1
							c-0.1,0-0.1,0-0.2,0l-9.1-2.9l-13.2-2.3h-0.3l-1.7-0.1h-9.9L95-26.8h-0.2l-8,0.9c-0.8,0.1-2.8,0.5-5.9,1.2l-12,4.3l-0.3,0.1
							L68.4-20l-1.3,0.6l-0.2,0.1l-0.3,0.1c-0.7,0.3-1.4,0.7-2.3,1.1l-1.6,0.9l-0.1,0.1l-0.2,0l0,0.1l-0.1,0l0,0l0.1-0.1l0.1-0.1h0
							l0.1-0.1l-1.3,0.7l-6.3,4L54.6-12l-0.2,0.1l-0.2,0.1l-2.5,2C50.9-9,49.9-8.1,48.8-7c-0.9,0.9-1.9,1.9-2.8,3.1l-0.4,0.4
							l-1.3,1.7l-0.3,0.4L43.1-0.2 M60.6-1.9v-0.5l0.6-0.5l0.3-0.2l0.2-0.2l0.1-0.1l0.1,0l0.2-0.1l0.3-0.2l0.7-0.3
							c0.1,0,0.4-0.1,0.7-0.3c0.1-0.1,0.7-0.4,1.8-1.1c0.4-0.4,0.9-0.8,1.6-1.2L68-7l0.1,0l0.1-0.1l3.7-1.7l0-0.1H72L72.1-9
							c0.9-0.4,1.5-0.7,1.8-0.9l1-0.3c0.7-0.3,1.1-0.4,1-0.2c0.2-0.2,0.4-0.3,0.6-0.4l2.9-1c0.2-0.1,0.2-0.2,0-0.1l-0.8,0.1l1.9-0.8
							l0.2,0l0.2-0.1l0.8-0.3l0.7-0.1c0.2,0,0.3,0,0.3,0c0,0,0,0.1-0.1,0.2l-0.7,0.3l3.3-0.9l0.2-0.1l1-0.2l0.3-0.1l9-1.2h0.5
							c0.2,0,0.6,0,1.1,0l4.4-0.1c0.5,0,0.8,0,1,0.1l2.8,0.1l0.3,0.1h0.3l10.3,1.8L117-13l0.3,0.1l11,3.8l0,0l0.1,0.1l3.2,1.5
							c0.8,0.4,1.7,0.9,2.9,1.5c0.9,0.5,1.6,0.9,2.3,1.3c0.9,0.6,1.5,0.9,1.7,1.1c-0.2-0.2-0.4-0.5-0.8-0.8l-2.8-2l-0.4-0.3l1.4,0.7
							l1.8,1.2c0.4,0.2,0.6,0.3,0.7,0.3l0.3,0.5l1.4,1.2h0v0l0.5,0.4h0v0h0.1l0.4,0.3l0.1,0l1.7,1.7l0.2,0.3l0.1,0.3l0.7,0.2
							l0.5,0.9l1,1.1l0,0v0l0.1,0h-0.1l0.1,0l0.1,0.1l1.4,1.8l0.1,0.1v0.1l0.1,0.1l0.3,0.5l0.2,0.2l0,0.1l0.1,0.1l5.6,11.1
							c0.8,1.7,1.4,3.1,1.6,4.2c0-0.2-0.1-0.4-0.1-0.6c0-0.3,0.1-0.1,0.4,0.5c0,0,0,0.3,0.1,0.7l0.3,0.8l0.1,0.1v0.1l0.1,0l0.1,0.4
							l0.3,0.8l0.3,0.5l0.1,0.1l0.3,1.1l1.3,3.5c0.6,1.4,0.9,1.8,0.8,1.1c0,0.2,0.1,0.6,0.3,1.1l0.6,2c0.1,0.2,0.1,0.3,0.1,0.3
							c0,0.1-0.1-0.1-0.4-0.8c0.9,2.2,1.5,3.5,1.8,4l-0.8-2l2,4.5l0.1,0.2l0.4,0.9l0.1,0.1l0.6,1.2l1.6,2.5l0.9,1.1l0.2,0.2v0h0.1
							l0,0.1l0.2,0.2l-1.2-1.9l1,1.4l0.2,0.2l1.6,2c0.8,1.2,1.3,2,1.5,2.4l-2.2-2.4l4.6,5.3l0.1,0.1l0.1,0l0.1,0.2l3.4,3.5l-0.9-1.1
							l3.9,4.3l0.4,0.6l0.2,0.2l0.8,1.1l0.1,0v0l-0.1-0.1v0l0.3,0.5l0.1,0v0l0.1,0.1l0.1,0.3l0.4,0.7l1.6,3.8l0.1,0.3l0.1,0.3v0.2
							l0,0.2l0.1,0.3l0.2,0.5l0,0.5l0.1,0.2V70l0.1,0.3v0.3l0.1,0v0.5l0.1,0.3l-0.1,1.9l-0.4,1.6l-0.1,0.2l-0.3,0.5l-0.1,0.2
							l-0.2,0.4l-0.1,0v0.1h-0.1v0.1l-0.1,0.1l-0.1,0.2l0,0.1l-0.1,0.1l-0.2,0.2l-0.1,0.2l-1,0.9c-0.4,0.3-0.9,0.7-1.6,1
							c0.4,0,0.9-0.2,1.6-0.3l-1.3,0.8l-0.2,0.1l-0.2,0l-0.4,0.2l-0.1,0l-0.2,0.1l-0.2,0.1l0.8-1l0.2-0.3c0.1-0.1,0.1-0.1,0.1-0.2
							l-0.5,0.3l-0.1,0h-0.2l-0.6,0.2l0,0h-0.1l-0.1,0.1l-0.8,0.2v0h-0.2l-0.1,0.1h-0.1l-0.2,0h-0.1l-0.1,0.1l-2.6,0.3
							c-1.5,0.1-3.3,0.2-5.3,0.3h-1.6c-0.2,0-0.4,0-0.8,0s-0.6,0-0.9,0.1c-1.1,0-2.2,0-3.4,0.2l-5.2,0.4l-0.3,0l-0.1,0.1h-0.1
							l-0.9,0.2h-0.1l-0.1,0.1l-0.8,0.2l-0.3,0.1c-1.7,0.4-3.1,0.9-4.2,1.3c-1.6,0.6-3,1.4-4.2,2.3l-1.8,1.4v0.1
							c-0.1,0-0.1,0.1-0.2,0.1l-0.1,0.1l-0.1,0.2l-0.1,0.1h0l-0.1,0.1l-0.1,0.1l-0.4,0.4H142l-0.1,0.1l-0.2,0.3l-0.4,0.4l-0.2,0.3
							l-0.1,0.3l-0.8,1l-1.6,2.7l-0.1,0.3l-0.1,0.2l-0.7,1.9l-0.6,3.1v3.3l0.1,0.3v0.4l0.1,0.4c0.2,1.3,0.5,2.4,0.9,3.5
							c0.3,1,0.8,2,1.4,3.2c0.5,1,1.1,1.9,1.6,2.7c0.6,0.8,1.2,1.5,1.7,2.1l0.2,0.3l1,1.1l0.1,0.2l0.1,0.1l1.8,2.1l0.2,0.3l0.1,0.2
							l0.1,0.2l0.1,0.1l0.1,0.1l0.4,0.7l0.1,0.4c0.1,0.2,0.1,0.2-0.1,0.2l-0.7-0.5l1.1,1.4l0.5,0.5c0.3,0.3,0.8,0.9,1.3,1.8
							c0.2,0.4,0.2,0.5-0.1,0.3l-0.6-0.6c0.2,0.2,0.5,0.8,0.9,1.6l0.4,0.5l0.2,0.2l-0.4-0.8l0.1-0.4c0.1-0.1,0.1-0.2,0.1-0.3
							c0-0.1,0-0.3,0-0.5c0.7,1.3,1.4,2.5,2,3.7h-0.3l0.1,0.3l0.1,0.1v0.1h0.1l0.3,0.4l0.2,0.2l0,0.1l0.3,0.4c0.8,1,1.4,2.3,1.9,3.9
							l1.1,3.2l0.1,0.1v0.1l0.1,0.1l1.5,6.6l0.3,2.6c0.1,0.9,0.2,1.8,0.2,2.6l0,0.7l-0.1,4.3l-0.1,0.2l-0.1-0.3l-0.1-2.7l-0.1,2.9
							c0,0,0,0,0,0v-0.1l0.1,0.1l-0.1,2.1c0,0.4,0,0.4,0.1-0.1v2.1l-1.4,14.9l0.5,0.7c0,0.2-0.1,0.3-0.1,0.5c0,0.4,0,0.9,0.2,1.5
							l0.9,1.9l-0.1,0.1l1.3,1.5c0,0.1,0,0.1-0.1,0.1l-0.6-0.5l1.1,1.3c0.1,0.1,0-0.1-0.3-0.4l1.7,1.4l0.5,0.6
							c0.3,0.4,0.5,0.6,0.5,0.8c0,0.1,0,0.2,0,0.3c0,0.1,0.2,0.3,0.6,0.7l7.1,8l0.1,0.2l0.1,0.2l1.1,1.4l0.1,0.2l0.1,0.1l1.3,1.6
							l0.1,0.1l6.9,9.9l0.1,0.1l0.1,0.1l0.2,0.4c0,0.1,0,0.1-0.1,0.1c-0.1-0.1-0.2-0.2-0.3-0.3c0.7,1.1,1.3,2.2,1.8,3.3
							c0.4,0.7,0.9,1.8,1.4,3.2c0.1,0.3,0.1,0.5,0,0.7l-0.1,0.4l0.1,0l0.1,0.4l0.8,3.1l0.1,0.1v0.2l0.1,0.5l0.1,0.3l0.7,5.1l0.1,3.3
							l0.5,0.2c0,0.8-0.1,1.4-0.3,1.7l-0.2,0.3l-0.1,0.7v0.4l0.1,0.5v0.3c0,0.1,0,0.2,0,0.3v0.5l-0.1,0.2l-0.1,0.8
							c-0.3,1.5-0.4,2.4-0.3,2.7c-0.2,0.9-0.3,1.3-0.4,1.2c0.1,0.2,0.2,0.5,0.1,1c-0.1,0.8-0.2,1.3-0.2,1.3c0.1,0.2,0.2,0.1,0.3-0.4
							l-0.1,1.9c-0.1,0.4-0.2,0.6-0.3,0.7c-0.1,0-0.1-0.1-0.1-0.6l-2,14.9v0.2l-0.2,1.2v0.1h-0.1v0.2l-0.1,0.3l-2.7,9l-0.8,2
							l-0.1,0.1l-0.4,1.1l-0.2,0.3l-0.1,0.5l-0.1,0.1l-0.5,1l-0.1,0.3l-0.1,0.1c0,0,0.1-0.1,0.2-0.1l0.2-0.3l0.5-0.9l0.1-0.1
							l0.1-0.1l0.1,0c0.1-0.1,0.2-0.2,0.4-0.3c0,0.4-0.2,0.8-0.5,1.2L177,269l-0.1,0.4c-0.2,0-0.4,0.1-0.6,0.3l-0.6,0.8l-0.2,0.2
							l-0.5,0.6c-0.2,0.3-0.4,0.4-0.8,0.4l0.1,0.5l-0.3,0.2l-0.3,0.1l-0.4,0.7l-0.3,0.3l-1.2,1.5l-1.8,1.5c-0.1,0.1-0.3,0.2-0.4,0.3
							l-1.6,1.5l-0.1,0.1h-0.1v0l-0.3,0.4l-0.2,0.1l-0.3,0.3l-0.2,0.1l-0.1,0.1l-0.2,0l-0.2,0.1c0,0,0.1,0,0.1,0.1
							c0.1,0,0.1,0.1-0.1,0.3c-0.1-0.1-0.1-0.1-0.3,0l-0.6,0.3h-0.1l-0.1,0.1h-0.1l-0.2,0l-0.2,0l-0.8,0.1l-0.3,0.1h-0.2l-0.3,0.1
							l-0.1,0.1l0.1,0.1l-0.4-0.1h-0.2l-0.1-0.1l-0.3,0l-0.3-0.1c0,0,0.1-0.1,0.3-0.1c-0.9-0.1-1.4-0.1-1.4-0.1l0.5,0.1h0.1l0.1,0.1
							l-1.3-0.2l-0.2,0h-0.1l-0.4-0.1H160l-0.3-0.1c-0.9-0.3-1.5-0.4-2-0.4l0.7,0.4l-1.6-0.6l-0.6-0.4c-0.2-0.2-0.3-0.4-0.4-0.5
							l0.3,0.1l0.2,0.1l0.8,0.3L157,279l-0.2,0l-4.2-2.1l0.4,0.4l-0.4-0.2l-1.6-1l-0.4-0.3c-0.5-0.5-0.9-0.9-1.3-1.4l-0.1-0.1
							l-0.1-0.1l-0.3-0.4l-0.4-0.8l-0.1-0.1l-0.3-0.5l-0.4-1.1v-0.1l0-0.1l-0.1-0.3c-0.1-0.4-0.2-1.1-0.3-2.1l-0.1-3.9L147,266
							l-0.1-2.4c0,0.1,0.2,0.4,0.5,0.8c0.3,0.3,0.4,0.5,0.5,0.6l0.3-7.1c0.1-1.6,0.1-3.4,0-5.4l-0.3-5.6l-0.1-0.2v-0.1l-1-10.8
							c-0.4-3.7-0.6-6-0.7-6.8v-0.6l-0.1-0.1v-0.1l0.1-0.2V228c0-0.3,0.1-0.4,0.2-0.1l0.1,0.2l0.1,0.1c0,0,0,0.1,0,0.2v0.1h0.1v0.1
							l0.1,0l-0.1-0.2v-0.3l-0.1-0.1V228l0-0.1v-0.1l-0.3-0.9l-0.6-1.2l-0.2-0.3l-0.2-0.4c-0.3-0.6-0.6-1.1-1-1.6l-0.1-0.1l-0.1-0.2
							l0.2,0.1l0.7,0.8c-0.5-0.7-0.9-1.3-1.4-1.8l-0.4-0.5c-0.2-0.1-0.3-0.2-0.3-0.1l0.4,0.4l0.2,0.4c0.1,0.1,0.1,0.3,0.1,0.4
							l-0.1,0.3l0,0.4c-0.4-0.5-0.8-1-1.4-1.6c-0.4-0.4-0.9-0.8-1.4-1.2l0.3-0.1l-0.6-0.3l-0.5-0.2l-0.3,0l-1.3-0.4l-0.4-0.1
							c-0.3-0.1-0.9-0.3-1.8-0.7c-2-0.8-4.4-1.4-6.9-1.7c-1.2-0.2-2.8-0.4-5-0.5c0-0.1,0-0.1-0.1-0.1l-0.1,0.1H124l-0.2,0.1h-0.1
							c-0.1,0-0.1,0-0.3,0l-0.1,0v-0.1c-0.1,0-0.2-0.1-0.3-0.1l0.7-0.1h0.7c-0.2,0-0.5-0.1-1-0.1l-1-0.1c0.4,0.1,0.3,0.2-0.4,0.2
							l-0.7,0.1c-0.1,0-0.1,0,0.1,0.1l-0.9,0.1c0,0-0.1-0.1-0.1-0.1l-0.1,0.1l-0.8,0.2h-2.1l-0.5,0.1c-0.5,0-0.8,0-1,0l-2.7,0.3
							l-0.8,0.2h-0.3l-0.2,0.1h-0.1l-1.7,0.4h-0.2v0.1h-0.1l-1.6,0.3l-0.1,0l-2.6,0.6h-0.1l-0.1,0.1h-0.1l-3.3,1.1l-0.5,0.2h-0.1
							l-0.1,0.1h-0.1v0.1l-0.2,0c-0.2-0.1-0.6-0.1-1.3,0.1c0.1,0,0.2,0.1,0.2,0.2c0,0.1,0,0.1-0.1,0.1c-0.4,0.1-0.6,0.2-0.6,0.3
							c0,0.1-0.2,0.2-0.6,0.4c-0.4,0.2-0.8,0.4-1.4,0.5l-1.1,0.3l-0.3,0.1l-0.8,0.2l-0.3,0.1l-1.9,0.6l-0.1,0.1l-0.3,0.1l-0.9,0.4h0
							v0l-0.1,0.1l-0.2,0.1l-0.1,0.1v0.1h-0.1l0,0l-0.3,0.3l-0.2,0.1l-0.2,0.1l-0.3,0.2l-1,0.9l-0.1,0.2l-0.2,0.2
							c0,0.1-0.2,0.5-0.6,1.3c-0.2,0.3-0.4,0.5-0.5,0.8c0,0,0,0,0,0c0,0.1,0,0.1-0.1,0.2l-0.1,0.1v-0.1l-0.2,0.3l-0.7,1.2l-0.3,0.6
							l-0.1,0.2l-0.1,0.3l0,0.1c-0.5-0.2-0.7-0.3-0.8-0.3l0.2-1.4l-0.3,1.5l0,0.1v0.8l0.3,0.1l0,0.4v0.3l-0.1,0.8L86,233v1
							c-0.1,0.1-0.1,0-0.2-0.2l0-0.4l-0.1-0.2l0.1-2.9l-0.2,3.3l0.2,0.7l-0.1,0.6c0,0.1-0.1,0.1-0.1,0.1l-0.1,0.1l0,0.8l0.8,4.1
							h-0.1c0,0.6,0.2,1.3,0.5,2.2l1.2,3.7c0.2,0.7,0.3,1.4,0.3,2.1l-0.2-0.3l0.5,5.1c0-0.3,0.1-0.5,0.1-0.6c0.1,0,0.1,0.2,0.2,0.7
							l0.1,4.1l-0.1,1.2l0.3,1.5l-0.4,5.5v0.3l-0.8,4.7v0.2l-0.1,0.3l-0.1,0.4v0.1l0,0v0.1l-0.9,3.7c-0.7,2.7-1.4,5.1-2,7.1
							l-1.9,5.6l-0.2,0.4l-4.5,11.1l-0.7,1.4l-0.1,0.3l-0.7,1.2v0.1l-0.1,0l-0.9,1.6l0.1-0.3l-2.4,4l-0.1,0.1l0,0.1l-0.1,0l-0.1,0.2
							h-0.1v0l0,0.1l-2.3,3l-2.7,1.4l-0.2,0.1l-2.2,1.1l-0.4,0.1l-0.2,0l-0.2,0.1l-0.2,0.1c-1.1,0.4-2.2,0.6-3.3,0.7h-1.6
							c-0.4,0-0.9-0.1-1.7-0.2l-3-0.9l-0.2-0.1l-0.2,0l-0.2-0.1h-0.1l-0.2-0.1l-0.3-0.1l-0.1,0l0,0l-4.1-2.1h-0.1v0l-0.1,0l-5.7-3.6
							l-0.3-0.3l-0.2-0.1v0h0l-0.3-0.3l-0.3-0.2l-0.5-0.5l-1-1.3l0-0.1v0l0-0.1l0,0v0l0,0.1v0l0-0.1l-0.1-0.1l-0.8-1.6l-0.2-0.6
							c0.1,0.4,0.1,0.6,0,0.6l-0.1-0.2l-1.4-3.3c-0.1,0-0.1-0.1-0.2-0.3l-0.1-0.3l0-0.2l-0.1-0.2l-0.4-1.3l0.1,0.4l-0.1-0.3
							l-0.1-0.6l0-0.1v-0.1l-0.1-0.7l-0.1-1.8l0-0.1v-0.5l0.1-0.9c0.1-0.9,0.3-1.6,0.4-2.1l0.1-0.3l0.1-0.3l0-0.3l0.2-0.4l2.3-6.8
							l0.1-0.2l3.4-10.8c0.5-2.1,1-4.3,1.4-6.4l0.6-4.5v-0.4l0.2-1.4v-0.3l0.1-1v-0.2l0.1-0.1l0-1.6l-0.5-6.3
							c-0.2-2.5-0.4-4.6-0.7-6.1l0.2,0.4l-2.2-13.4v-0.1l0-0.3v-0.1l0-0.1l-2.4-12.4l-0.1-0.3l-0.4-2.7v0.6l-0.4-2.1v-4
							c-0.2,0.2-0.4-0.2-0.6-1.4l-0.4-2.6l0.1,0.1l-0.9-9.1l0.2,0.1l-0.1-6.1l1.3-19.4l0.8-3.5l0-0.3v-0.3l-0.9-0.9
							c-0.3-0.3-0.6-0.6-1-0.9l0.1-1.1v-0.1c-0.3-0.1-0.5-0.2-0.8-0.3v0.3l-0.9,0.3c-0.3-0.1-0.5-0.2-0.8-0.2l1.1-0.5l0.2-0.1
							l-1.8,0.5l-0.2,0.1c-0.2,0-0.4,0.1-0.6,0.2c-0.1,0-0.2,0.1-0.3,0.1c0,0,0,0-0.1,0c-0.1-0.1-0.4-0.1-0.8,0.1l-1,0.5l0-0.1
							l-0.1,0.2l-1.5,0.9l-0.9,0.3v-0.1l-6.7,3.7l0.3-0.3c-0.4,0.2-1,0.5-1.9,1l-1.8,1.1l-0.6,0.3c0.3-0.1,0.5-0.2,0.5-0.2
							c0.1,0-0.1,0.2-0.5,0.5l-4.2,2.8l-1,1.1l-6.6,6c-1.2,1.2-2.6,2.8-4.2,4.7l-9.1,12.3l-2.8,3.2l-0.2,0.2l-0.2,0.2l-0.7,0.8
							l-0.2,0.1l-0.5,0.4c-0.7,0.7-1.4,1.3-2,1.7l0.1-0.1l-0.1,0.1l-0.1,0.1l-1.1,0.7c-0.2,0.1-0.6,0.3-1.1,0.6l-0.1,0h-0.1
							l-0.1,0.1h-0.1l-0.1,0.1h0l-0.1,0.1h-1.5l-0.3-0.1H-17l-0.1-0.1h-0.1l-1.5-0.3c-0.6-0.1-1.2-0.3-1.8-0.5
							c-0.4-0.2-0.9-0.4-1.4-0.7l0-0.1h-0.1l-0.3-0.3l0-0.1v0.1l-0.1-0.1l0.1,0l0,0l-0.2-0.1l-0.1-0.1v0l-0.3-0.3l-0.1-0.2
							c-0.5-0.6-1-1.2-1.4-1.9l-3.4-5.9l0-0.2l-0.1-0.1l-0.3-0.6l-0.1-0.1V195l-0.5-1V194h0v-0.1l-0.1-0.4l-0.3-0.4l-0.3-0.8
							l-0.1-0.1l0-0.1l-0.2-0.5l-0.1-0.5c-0.4-1.1-0.6-2.3-0.8-3.5V187l0-0.3l0.1-3.2l0-0.1l0-0.6c-0.1,0.4-0.1,0.5-0.2,0.4
							c-0.1-0.1-0.1-0.3-0.1-0.6v-0.4l0.2-1.6v-0.4l0-0.4l0-0.3v-0.2l0-0.1v-0.1l0.2-0.7l0-0.4l0-0.2l0.1-0.3
							c0.2-1.1,0.5-2.1,0.7-2.8l1.2-3.8c0.6-1.5,1.2-3,1.8-4.4c0.8-1.8,1.6-3.3,2.3-4.6l1.1-2l0-0.1l0.6-1.1l0.1-0.1v0l0-0.1
							l0.6-1.1c0.9-1.4,1.7-2.6,2.6-3.8l4.2-4.9c0.1-0.2,0.2-0.3,0.3-0.4l0.3-0.4l5.5-5.4l-0.2,0.3l0.5-0.4l8.6-6.5l10-6.8l-0.4,0.2
							c0.7-0.6,1.5-1.1,2.3-1.6c0.9-0.4,1.6-0.7,2-1c-0.2,0,0.1-0.4,0.8-1l1.7-1.3v0.1l6.1-4.7l0,0.3l3.3-2.6
							c1.2-0.9,2.2-1.7,2.9-2.4l5-4.5c1-1.1,1.8-2.1,2.5-3.2c0.3-0.4,0.6-1,1.1-1.8l0.5-1.3l1.3-1.9l0.3-0.6l0.1,0.3
							c0.4-1.1,0.7-1.9,0.8-2.4l0.5-1.4l0.5-2.5c0-0.1,0-0.2,0.1-0.1l-0.6,2.6l-0.4,1.4l0.5-1.5l0,0.1l-0.4,1.7l1-3.4
							c0-0.2-0.1,0.1-0.4,0.9l1.3-7.2c0-0.2,0.1-0.3,0.2-0.3c0.1-0.1,0.1-0.2,0.2-0.4L43,89l0.4-3.8V85V85h0l0.5-11
							c0.1-4.4,0.1-9-0.1-13.9l-0.1-3.1l0-0.4l-0.4-23.1c0.1-0.3,0.1-0.3,0.1-0.1v0.6l0.8-7.1l0-0.2v-0.1l0.2-0.7l0-0.1v-0.1
							l1.5-5.2l0.3-0.8l0.7-1c-0.1,0.1,0-0.2,0.3-0.9c0.3-0.8,0.6-1.6,1-2.6l1.8-3.8l0.2-0.3l0.1-0.3l0.8-1.5c0.3-0.6,0.7-1.3,1.2-2
							l0.3-0.5l0.6-0.9l0.1-0.1V5.7l0.3-0.2c0.3-0.4,0.7-1,1.3-1.7c0.8-1,1.7-2,2.7-2.9l0.6-0.6L60.6-1.9 M205.7,142.6l3.9,5.3
							l-0.2-0.5l-0.3-0.6c-0.3-0.5-0.4-0.8-0.4-1.1c0.3,0.3,0.6,0.7,0.8,1c0.2,0.3,0.3,0.5,0.5,0.6c0,0.1,0,0.3,0.1,0.6l0.8,1.6
							l0.1,0.8l0.4,0.1l0.1,0.6l1.1,1.8v0.1l0,0.1l0.1,0.2l0.1,0.1l0.1,0.4l0.3,0.6l0.1,0.2l0.4,0.9l0,0.2l0.1,0.1l0.1,0.4l0.1,0.4
							l0.4,0.8l0.2,0.3l0.6,1.6v0.1l0.1,0.1c0,0,0-0.1,0.1-0.1c0-0.1,0.1,0,0.2,0.2c-0.1,0-0.1,0.1,0,0.3l0.1,0.3l0.1,0.3
							c0.2,0.5,0.2,0.8,0.1,1l0.1,0.6l0.1,0.4l0.1,0.3c0.1,0.6,0.3,0.7,0.4,0.4l-0.1,0.4l-0.1,0.8c0,0-0.1,0-0.1,0l-0.1-0.2v0.4
							l0.1,0.4v0.4l0,0.3l0.1-0.7v0.4l0.1,0.3v0.9l-0.1,0.3v1.6l0.1,0.4l0.2-0.5c0,0.5-0.1,0.9-0.2,1.2c-0.1,0.3-0.3,0.5-0.5,0.6
							l0.1-0.2v-0.6l-0.3,1.8v0.1l-0.1,0.1l-0.4,1.4l0.2-0.3l-0.4,1.1l-0.1,0.3l-0.1,0.2l-0.1,0.1l-0.2,0.4c-0.2,0.4-0.6,0.9-1,1.4
							c-0.5,0.7-1,1.2-1.4,1.6l-1.5,1.5l-0.2,0.1l-0.2,0.2l-0.1,0.1l-0.2,0.1l-0.3,0.2l-0.1,0.1l-0.1,0.1h-0.1l-0.2,0.2h-0.1
							l-0.1,0.2l-0.7,0.4l-0.1,0.1l-0.1,0.1l-0.4,0.3l0.6,0.2l-0.3,0.1l-0.2,0.2l-0.1,0.1l-0.1,0l-0.1,0.1l-0.1,0.1l0.1-0.1l0.3-0.9
							l-0.1,0.1h-0.1l-0.4,0.1h-1l-1.3-0.3c-0.6-0.2-1.1-0.4-1.8-0.8c-0.5-0.3-1.2-0.7-2-1.3c-0.9-0.7-1.5-1.2-2-1.7l-0.3-0.2
							l-3.4-3.7l-0.1-0.2l-5.2-5.1c-0.4-0.5-0.5-0.7-0.3-0.8c0.1,0,0.3,0.1,0.4,0.2l-0.7-0.6l-0.4-0.2c-0.2-0.1-0.5-0.3-0.8-0.6
							c-0.2-0.3-0.1-0.3,0.4,0c-0.6-0.6-1-0.9-1.1-0.9c0.2,0.3,0.3,0.5,0.2,0.7c-0.1,0.3-0.1,0.4-0.1,0.5l-1.5-1.3l0.3-0.1
							c-0.3-0.1-0.6-0.3-0.9-0.4l-0.8-0.4l-0.9-0.8c-1.4-1.3-4-3.4-7.8-6.4c0.1-0.1,0.6,0.1,1.3,0.6c-0.6-0.4-1-0.7-1.2-0.9
							c0.2,0.2,0.1,0.2-0.4-0.1c-0.4-0.2-0.5-0.3-0.4-0.2c-0.6-0.2-1.2-0.5-1.8-0.9l-3.6-2.3l0.1-6.4l-0.1-0.3L170,143v0.8l-0.1,0.4
							c-0.1,0.1-0.1,0-0.1-0.3l-0.2-1.1v-0.4l-1.5-8.4l-0.1-0.3l-0.2-0.9v-0.1l0-0.1v-0.1l-0.3-0.9l-0.1-0.1l-0.1-0.1v-0.1l-0.3-0.6
							l0-0.2H167v-0.1l-0.1,0l-3.5-8.6l-5.2-9l-0.5-0.7c1.1,0.6,1.9,1,2.3,1.2c0.7,0.4,1.7,0.8,2.8,1.3l2.9,1.3c0.1,0.1,0,0.1-0.3,0
							l6.3,2.3c0.3,0.2,0.5,0.4,0.7,0.7c0-0.1,0.5,0.1,1.6,0.5l9.1,4.2l0.3-0.3c0.7,0.4,1.1,0.7,1.1,0.8c0.1,0.2,0.5,0.5,1.1,0.8
							c0.3,0,0.6,0.1,0.9,0.3l2,1.3c0.4,0.2,0.6,0.3,0.8,0.3l0.4,0.3c0.3,0.2,0.4,0.4,0.3,0.4c0.3-0.1,0.8,0.2,1.4,0.7
							c0.2,0,0.1-0.1-0.1-0.3l1.2,0.8c0.2,0.2,0.3,0.3,0.3,0.4c0,0.1-0.2,0-0.4-0.1l6.3,5.4l1.1,1.1l0.1,0.2L205.7,142.6 M159.6,178
							c0.3,0.2,0.4,0.4,0.3,0.4l-0.8-0.8L159.6,178 M122.8,216.6c-0.1,0-0.1,0-0.2,0H122.8C122.9,216.6,122.8,216.6,122.8,216.6
							 M31,232.9L31,232.9C31,233,31,232.9,31,232.9L31,232.9z"/>
					</g>
				</g>
			</g>
		</g>
	</g>
</g>
</svg>
