<?xml version="1.0" encoding="utf-8"?>
<!-- Generator: Adobe Illustrator 24.1.2, SVG Export Plug-In . SVG Version: 6.00 Build 0)  -->
<svg version="1.1" id="Layer_1" xmlns="http://www.w3.org/2000/svg" xmlns:xlink="http://www.w3.org/1999/xlink" x="0px" y="0px"
	 viewBox="0 0 256 256" style="enable-background:new 0 0 256 256;" xml:space="preserve">
<style type="text/css">
	.st0{fill:#FFFFFF;}
</style>
<g id="idle8">
	<g transform="matrix( 0.6996917724609375, 0, 0, 0.6996917724609375, 57.25,20.7) ">
		<g id="idle">
			<g transform="matrix( 1, 0, 0, 1, 0,0) ">
				<g>
					<g id="idle_7_Layer0_0_FILL">
						<path class="st0" d="M78.1-4.3L78.1-4.3l-0.2,0l-0.1,0.1l-1.9,0.5l-6.3,2.2l0.6-0.3l-9.7,4.3c-2.4,1.3-4.7,2.6-7,4.1L53,6.8
							l-3.6,2.5l-0.2,0.1l-0.1,0.1l-1.5,1.1l-0.1,0.1h0l-0.1,0.1L47.1,11l-0.9,0.7c-2.3,1.8-4.6,3.9-6.8,6.1c-2,2.1-3.8,4.3-5.5,6.6
							c-1.3,1.8-2.5,3.8-3.7,6l-1.4,3l-0.4,0.8l0.3-0.5l-1,2.6v0l0,0.1v0.1l-3,8.6c0.1-0.1,0.2,0.1,0.2,0.6l-1,7.3L23.9,53l-0.4,7.6
							l1,10.2l-0.3-0.2c0.3,1.6,0.9,4.6,1.6,9l3.2,14.1c0.1,0.4,0.6,2.8,1.6,7.2l3.1,14.8l0,0.3v0.4l0.4,3.9v0.4l0.1,0.4l0.1,0.7
							l-0.9,2.1c-0.7,1.5-1.5,2.9-2.2,4.1l-5.5,8.3c-0.1,0.1-0.1,0,0-0.3l-3.4,4.8c-0.2,0.2-0.5,0.4-0.8,0.5c0.1,0-0.2,0.4-0.8,1.3
							l-0.5,0.7l-0.1,0.2l-4.9,7l0.3,0.4c-0.4,0.6-0.8,0.9-0.9,0.9c-0.3,0.1-0.5,0.4-0.8,1c0,0.4-0.3,1-0.9,1.9
							c-0.7,1-1,1.5-1.1,1.7c-0.4,0.5-0.6,0.8-0.6,0.7l-0.1,0.3l-0.2,0.3c-0.1,0.2-0.3,0.5-0.4,0.8c-0.1,0.1-0.1,0.1,0,0.1
							c0.1-0.1,0.2-0.2,0.3-0.2l-0.6,1.3c-0.2,0.2-0.3,0.4-0.4,0.4c-0.1,0-0.1,0-0.1-0.1l-6.9,12.8L2,174.6l0,0.3l-2.6,7.3v0.1
							l-0.3,1.1c0.1-0.1,0.2-0.4,0.5-1v-0.1l0.2-0.4c0.2-0.3,0.3-0.4,0.3-0.4L0,182.1v0.2l0,0.1v0l-0.1,0.2
							c-0.1,0.4-0.1,0.7-0.1,0.8c-0.2,0.1-0.4,0.5-0.7,1.3c-0.3,0.8-0.5,1.3-0.8,1.5l0.2,0.4l-0.4,0.4l-0.6,2.8
							c-0.3,0.7-0.5,1.5-0.7,2.2c-0.2,0.7-0.4,1.6-0.6,2.8c-0.2,0.8-0.3,1.4-0.5,1.8c0.1-0.1,0.1-0.1,0.2-0.1c0.1-0.1,0.1,0,0.1,0.3
							c-0.1,0-0.2,0.3-0.3,0.8c-0.1,0.6-0.2,0.9-0.3,1c-0.5,1.5-0.5,2.2-0.2,1.9c-0.6,1.3-0.9,1.6-0.7,0.9c-0.3,0.7-0.5,1.2-0.5,1.5
							l0.4-0.7c-0.2,0.6-0.4,1.4-0.8,2.3l-0.2,0.4v0.1l-0.1,0.1l-0.1,0.3v0.1l0,0.2l-0.2,0.9l0.4-0.9l-0.5,1.9l-0.3,0.6
							c0,0.2-0.1,0.3-0.3,0.5l0.2-1.4l-0.7,4l-0.1,1.3l0.1-0.6l-0.2,13.1c0.1,1.4,0.3,2.5,0.5,3.4l0.2-1l0.5,1.9l-0.6-0.6
							c-0.3-0.3-0.5-0.4-0.5-0.5l0.6,4.1l0.6,2c0.5,1.5,1.1,3.1,1.9,4.6l1.5,2.5l0.2,0.2l0.2,0.3l0.4,0.4v0.1l0.8,0.9
							c1.1,1.3,2.3,2.5,3.6,3.7c1.1,1,2.4,1.9,3.7,2.9c1.1,0.7,2.1,1.3,3.2,1.8l0.9,0.4h0.1c0,0,0.1,0.1,0.1,0.1h0.1l0.6,0.4h0.1
							l0.3,0.1c0.4,0.2,0.6,0.3,0.6,0.4c0.1,0.1,0.1,0.2,0,0.2l-0.5,0.1c0.3,0.1,0.7,0.2,1,0.3l0.3,0c0.1,0,0.5,0.1,1,0.3
							c0.2,0.1,0.2,0.1,0.1,0.2l-0.4-0.1l0.9,0.3c0.3,0.1,0.4,0.1,0.4,0.1c-0.3-0.1-0.5-0.3-0.6-0.5c-0.1-0.3-0.1-0.5-0.1-0.6
							l1.9,0.7L15,254c0.2,0.1,0.5,0.1,1,0c0.6-0.1,1.3,0,2.1,0.3c1.1,0.3,2.7,0.7,4.9,1.1l4.6,0.7c0,0.1-0.5,0.2-1.3,0.1
							c0.3,0.1,0.7,0.2,1.3,0.3c-0.3-0.1-0.2-0.2,0.3-0.1c0.4,0,0.6,0,0.4,0c0.7-0.1,1.8,0,3.3,0.1l-0.5,6.2l0.5,0.3
							c-0.1,0.8-0.2,1.3-0.3,1.5c0,0.1-0.1,0.3-0.2,0.5c-0.2,0.2-0.3,0.8-0.4,1.8c0.2,0.4,0.3,1.4,0.1,2.9l-0.3,1.6
							c-0.1,0.5-0.1,0.9,0,1.2c-0.1,0.9-0.3,1.3-0.4,1.3c0.1,0.2,0.2,0.5,0.1,1c-0.1,0.7-0.1,1.2-0.1,1.3c0,0.2,0.1,0.1,0.3-0.4l0,2
							c-0.1,0.4-0.2,0.6-0.3,0.6s-0.1-0.1-0.1-0.5l-3.7,32.8l0,3.6l0.1,0.4v0.4l0,0.4c0.1-0.3,0.1-1,0.1-2l0.1-1.1l0.3-0.8l0.1,2.8
							l0.2,0.6c-0.1,0.1-0.2,0.3-0.2,0.5l-0.1,0.6v0.1c0,0.1,0,0.1,0,0.1v0.2l0,0.3l0,0.9l0.1,0.3v0.3l0.3,2.2l0,0.7l0.5,0.5
							l0.1,0.3v0.3l0.1,0.5c0.4,0.9,0.8,1.8,1.3,2.7l2.9,4l0.4,0.4h0l0,0.1l0.2,0.3l0.7,0.6l0,0.1h0v0.1l0.2,0.1l0.9,0.7
							c0.1,0.1,0.3,0.2,0.4,0.3c1,0.7,2,1.2,3,1.6l1.3,0.5l0.6,0.1l0.2,0.1l0.1,0l3.8,1v-0.1h-0.1l-0.3-0.1c0,0,0-0.1,0-0.1H44l0,0
							h0.2c0,0.1,0.1,0.1,0.2,0.1l0.2,0.1h0l0.6,0l0.1,0.1h0.4c1,0.1,1.6,0.1,1.8,0.3l2,0.1c0.1,0.1,0.2,0.1,0.3,0
							c0.5,0,0.8,0,0.9,0c0.2-0.1,0.2-0.1-0.1-0.3c0,0,0.6,0.1,1.6,0.3c0.3,0.1,0.5,0.1,0.5,0.2c0,0-0.1,0.1-0.5,0.1l2.3,0.1v-0.1
							h-0.1l-0.9-0.1l3.7,0.1c1.3,0,2.3-0.1,3-0.3l-1.1-0.1c0.6,0,1.4-0.1,2.5-0.1l1,0.1c0.4,0.1,0.6,0.1,0.8,0.2l-0.5,0.1l4.1-0.6
							l0.3-0.1h0.2v0h0.1l1.7-0.5l0.1,0l-0.9,0.2l0.4-0.1l0.3,0l0.2-0.1l0,0h0.1l4.3-1.8c1.3-0.6,2.5-1.4,3.6-2.3l0.9-0.8l1.8-1.8
							l0.2-0.1v0l0.2-0.1l0.3-0.5l0.3-0.3l0.1-0.1l0.1-0.1l1-1.5l1.1-1.9c0.2-0.3,0.5-1,0.9-1.9l1.1-3.4l0-0.4l0.1-0.1v0l0.1-0.1
							v-0.1l0.1-0.6v-0.2l0.1-0.1l0.1-0.3v-0.3l0-0.2l0.1-0.8l-0.7,1.3l0.3-2.6c0,0.1,0.1,0.4,0.4,0.8c0.2,0.4,0.3,0.6,0.3,0.8
							l0.6-3c0.2-1.5,0.4-3,0.6-4.6l2.4-29.2c0.1-0.8,0.3-1.1,0.4-0.9c0.1,0.1,0.2,0.3,0.3,0.5c0-0.6-0.1-1.1-0.2-1.6
							c-0.1-0.3-0.1-0.7-0.1-1.4c0.1-0.4,0.2-0.3,0.3,0.5c0-0.2,0-0.6,0.1-1.2c0-0.3,0-0.5-0.1-0.5c-0.1,0.4-0.2,0.6-0.4,0.8
							c-0.3,0.1-0.5,0.2-0.5,0.3l0.2-2.5l0.3,0.1c0,0-0.1-0.5-0.3-1.3c-0.2-0.7-0.2-1.6-0.1-2.7c0.1-1.4,0.1-2.5,0.1-3.2l0.2-9.8
							c0.1,0.1,0.2,0.7,0.3,1.8c0-1.1,0-1.7,0.1-1.9c-0.1,0.4-0.2,0.3-0.2-0.4l-0.1-0.6c-0.1-0.7-0.2-1.5-0.2-2.4l0-5.8l0.3-0.3
							h-0.1l0.3-0.3l0,0.1H90v-0.1l0.1-0.1l0-0.1l0.1-0.2l0.1,0l0.1-0.1l0.3,0.3c-0.1-0.1,0-0.3,0.3-0.4l0.5-0.3l-0.2-0.4
							c0,0,0.1,0,0.2,0.1l0.1,0.1l0.1,0.1h0.1c-0.1-0.3,0-0.4,0.1-0.3h0.2l0.1-0.1l0.1,0.1h0.1l0.1,0.1c0-0.1,0-0.2,0.1-0.2h0.2
							v-0.1l-0.1-0.2V243l0.1-0.1v-0.1c0.2,0.2,0.2,0.3,0.1,0.4l4.1,0.1l0.2-0.1l-0.1-0.1l-0.1-0.1l-0.1,0l-0.2-0.1l0-0.1l-0.1,0
							h0.2v-0.1h-0.1l0-0.1h0.2c0.1,0.1,0.1,0.1,0.1-0.1c0,0.2,0.1,0.3,0.3,0.4c0.2,0,0.4,0.2,0.4,0.4l0-0.3l0.2,0.3
							c0.4-0.1,0.6-0.2,0.7-0.2l0.6,0.2c0.2,0,0.4-0.1,0.6-0.2c0.2-0.1,0.4-0.2,0.5-0.1c0,0,0,0,0-0.1c0-0.1,0-0.2,0-0.2
							c0,0.1,0.1,0.1,0.2,0.1c0.2-0.1,0.3,0,0.3,0.1c0.1,0,0.2,0,0.3,0c0.1,0,0.2-0.2,0.2-0.4c0,0,0.1,0.1,0.2,0.3
							c0.1,0.1,0.1,0.2,0,0.3c0.2,0.1,0.3,0.1,0.4,0l-0.2-0.1c0.1,0,0.3,0,0.6,0.1c0.2,0,0.3,0,0.4-0.1l-0.2-0.2h0.2l0,0.1h0.2
							l0.1,0.1c0.1,0,0.2,0.2,0.2,0.4l-0.3,0.1h0.6l0.6-0.2h-0.2c0.1-0.1,0.5-0.2,1.1-0.4l0.9-0.2h0.1l0.1-0.1h0.2v0l0-0.6l0.1-0.1
							v-0.4l0.1-0.6l0.2-2l0.1-0.1v-0.3l0.2-1l-0.4,5c0.4-0.1,0.6-0.2,0.8-0.4l-0.2-0.3l0.3-0.2c0,0.1-0.1,0.3-0.1,0.5
							c-0.1,0.2-0.1,0.3-0.2,0.4l1.4,0.2h0c-0.1,0.1-0.1,0.2-0.1,0.4l0.1,0.3l1.1-0.1l0.2,0.2v0.1c-0.1,0.2-0.1,0.3-0.2,0.3
							l-0.2,0.2l0.3-0.2l-0.1,0.2h-0.1l0.1,0.1h-0.1v0l0.1,0.1c0.1,0.1,0.1,0.1,0.1,0.1c0-0.1,0-0.2,0.2-0.4
							c0.2-0.2,0.3-0.3,0.3-0.3l0.1,0.1l0.1,0.1v0.1l-0.2,0.1l0.3-0.1l0.2-0.1c0.1-0.1,0.1,0,0.1,0.1v0.1l0.1,0v0.1l0.1,0.1l0.1,0.3
							h-0.3l-0.1,0.1l0.3,0c0,0,0.1,0,0.1,0l0.2,0l0.1,0.1l0.5,0.4l-0.2,5.7L111,250l-0.1,1l0.1,4.1l0.2-0.5c0.1-0.1,0.1,0,0.1,0.1
							c0.1,0.1,0.1,0.3,0.1,0.6l0.1,2.9c0.1,1.1,0.1,2,0,2.5l0.5,1.5l3.4,46.6l0-0.3l0.6,5.8l0.5,2.5v0.1l0.1,0.1v0.1l0.3,0.9v0.1
							l0.1,0.1l0.3,1l0.3,0.5c0.3,0.8,0.6,1.4,0.9,2l1.1,1.9l2.2,2.8l0.3,0.2l0.2,0.3l1.8,1.7c1,0.9,2.3,1.8,3.9,2.8
							c1.2,0.7,2.6,1.3,4.2,1.8l0.6,0.2l0.3,0.1l0.8,0.2l0.3,0.1l0.3,0l0.7,0.2h0.1l0.6,0.1h0.1l0.1,0h0.1l0.1,0.1l0.3,0l0.6,0.1
							l1,0.2l2.4,0.3c1.3,0.1,2.5,0.1,3.7,0.1c0.2,0,0.4,0.1,0.9,0.1h4.3c0.4,0,0.6,0,0.8-0.1h0.8c1.4-0.1,2.5-0.1,3.2-0.2
							c1.4-0.1,2.4-0.3,3.1-0.4l0.4-0.1l0.2,0h0.2l0.4-0.1l0.2,0h0.1l0.4-0.1h0.1l3.2-0.8l2.2-0.9c0.5-0.2,1.3-0.6,2.3-1.3l1.9-1.4
							l-0.4,0.3l-0.3,0.1c-0.1,0.1-0.2,0.1-0.2,0l2.1-2v0l0.4-0.4l0.6-0.8l0.2-0.1l0.1-0.2l0.5-0.7l0-0.1l0.2-0.4l0-0.2l1.3-3.1
							l0.2-0.3l1-4.6v-0.1l0-0.1v-0.1l0.1-0.4v-0.4l0.1-0.2l0.1-1.1l0.1-0.4v-0.8c0-0.7,0-1.7-0.1-3l-0.7-7.5l-0.1-0.4l-0.6-4.6
							c-1.2-8.8-2-15.4-2.3-19.8l-1.7-10.8l0.1,0.4l-1.1-10l0.7,0c0.5-0.1,0.9-0.2,1.3-0.2l0.8-0.1c0.3,0,0.6,0,0.8,0l-0.3,0.1
							c0.6,0,1.9-0.1,3.9-0.4l-0.5,0c0-0.1,0.2-0.2,0.6-0.3l4.1-0.5l1.1-0.6l4-1l0.5-0.2l0.3,0l1.1-0.4h0.1l0.1-0.1l0.3,0l3.5-1.6
							l0.3-0.3c0.8-0.4,1.7-0.9,2.7-1.6c0.9-0.6,1.7-1.3,2.5-2l4.1-4.5v0l0.1-0.1l1.6-2.4l0.5-1l1.3-3.1l0.7-2.9
							c0.3-1.7,0.4-3.3,0.4-4.8l-0.1-3.3l0.1,0.3l-0.1-0.4v-0.7l-0.2-1.2v-0.3l-0.1-0.3v-0.3l0-0.2v-0.1l-1.9-10.4l-1.8-6l0-0.1
							v-0.1l-0.1-0.1l-5.6-13.2c-0.1-0.4-0.5-1.8-1.3-4.3c0.1,0.4,0.1,0.5,0,0.5c-0.1,0-0.2-0.2-0.3-0.5c-0.3-1-0.6-1.6-0.9-2
							c-0.1-0.1-0.5-0.7-1-2l-1.3-3.4l-0.1-0.2l-3.4-7.4l-5.2-9.5c-0.9-1.6-1.8-3.1-2.8-4.7l-3.4-4.6c-0.4-0.6-0.8-1-1.1-1.4
							l0.2,0.1l-2.6-3.4l-0.2-0.3l-8.7-11.3l0.2,0.3c-0.6-0.6-1-1.1-1.3-1.6c-0.4-0.8-0.6-1.4-0.8-1.6c-0.1,0.2-0.4,0-0.9-0.4
							l-1.2-1.2l0.1-0.1l-1.3-1.6l-6.3-18.4l-0.1-0.1v-0.1l-0.1,0v-0.1l-0.1-0.1v-0.1l-0.1-0.2l-0.1-0.9l0.1,0.5
							c-0.2-1.2-0.4-2.3-0.4-3.4l0.1-1.9l0.3-1.3v-0.1l0.1-0.1l0.3-0.9l0.3-0.7l0.2-0.3l0.1-0.2l0.1-0.1l0.1-0.1l0.1-0.1l0.1-0.2v0
							l0.1-0.1l0.1-0.2l0,0l0.1-0.1l0.3-0.3l0.1-0.2l0.3-0.3l1.5-1.2l1.8-1.1l0.3-0.1l0.1-0.1h0.1l0.1-0.1l0.2-0.1l0.2-0.1l0.1,0
							h0.1l1.1-0.5l11.8-3.1c0.7-0.2,1.8-0.5,3.3-0.9l5.2-1.8h0l0.1-0.1l0.4-0.2l0.1-0.1h0.1l0.1-0.1l0.4-0.1l0.1-0.1l0-0.1l0.2,0
							l0.7-0.4c1.3-0.7,2.5-1.5,3.7-2.4c1.1-0.9,2.2-2,3.3-3.3l0.4-0.4l0.2-0.3l0.2-0.3l1.4-2.6l0.1-0.2l0.1-0.3v-0.1l0.1-0.1
							L190,83c0.6-1.5,1.1-3,1.3-4.5c0.2-1.6,0.3-3.1,0.1-4.6l-0.8-4.5v-0.2l-0.1-0.1v0l-0.1-0.6l-0.1-0.1l-0.1-0.2v0l-0.8-2.3
							c-0.5-1.2-1.1-2.3-1.7-3.4c-0.5-0.8-1.2-1.8-2-3l-1.4-1.7l-0.1-0.1l-0.1,0l-0.2-0.2l-0.8-0.8l-0.2-0.3l-1.3-1.3l-15.2-12.4
							l-0.6-0.6l-0.3-0.2l-0.1-0.1l-0.1-0.1l-0.4-0.4l-0.3-0.5l0.5,0.8c0.1,0.1,0.1,0.2,0,0.2l-1.2-1.2l-1-1.2l-0.3-0.3l-1.1-1.5
							l-0.1-0.3l-1.3-1.5c-1.2-1.8-2.1-3.2-2.7-4.1l-0.7-1.1l-0.1-0.3l-4.8-8.2c-0.8-1.2-1.7-2.7-2.9-4.4l-4.1-5.5L140,6.4l-0.2-0.1
							L139.5,6c-0.6-0.6-1.5-1.4-2.7-2.3c-0.7-0.6-1.7-1.2-2.9-1.9c-1.1-0.6-2.1-1.2-3-1.6c-2.1-1-4.1-1.8-6.1-2.5l-10.5-2.8
							l-1.8-0.3l-0.4-0.1l-4.8-0.7c-3.4-0.4-6.5-0.6-9.5-0.6h-2.8c-0.2,0-0.5,0-0.9,0c-0.4,0-0.6,0-0.8,0.1l-2,0.1L84-5.6l-0.3,0.1
							L78.1-4.3 M167.7,60c0.6,0.5,1.1,0.9,1.5,1.2c-0.1-0.1-0.1-0.1-0.1-0.2c-0.1-0.3,0.1-0.2,0.6,0.3c0,0.1,0.6,0.6,1.8,1.5l1.3,1
							l0.2,0.3l0.9,0.9l0.1,0.2l0.1,0.1l0.8,0.8l0.1,0.1l1.4,1.5c0.1,0.1,0.1,0.1,0.2,0.1l-0.1-0.3l0.9,2l0.1,0.1l0.1,0.1l0.1,0.4
							c0,0.1-0.1-0.1-0.4-0.5L178,72l0.1,0.1v0l0,0v-0.1l-0.3-1.1l0.1,0.3l0.1,0.4l0.1,0.1l0.1,0.4v0l0.2,0.7v0.1l0.1,0.3l0.1,0.1
							v0.2c0.1,0.6,0.2,1.3,0.2,1.8l-0.4,2.8l0.1-0.1l0.1-0.2l0.1-0.2l0.2-0.5l-0.3,1.2h-0.1l-0.1,0.2l0,0.1v0.1l-0.1,0.1v0
							l-0.1,0.1l-0.3,0.4l-0.2,0.2l-0.2,0.2l-0.1,0.2l-0.2,0.1l-0.2,0.1l-0.3,0.1l0.3-0.3l0.1-0.1l0.1-0.2l0.1-0.2l0.1-0.1l0-0.1
							l0.2-0.4l-0.1,0.1l-0.1,0.1l-0.1,0.1v0l-0.1,0.2l-0.9,0.8l-0.1,0.1l-0.1,0.1l-0.4,0.3c-0.1,0.1-0.2,0.2-0.2,0.2l-0.8,0.6
							l-0.1,0.1l-0.1,0.1l-0.3,0.1l-0.1,0.1l-0.2,0l-0.2,0.1l-0.1,0.1v-0.1l-0.1,0.1l-0.1,0.1l-0.2,0.1l-0.1,0.1l-0.3,0.1l-0.3,0.2
							l-2.3,0.9l1.4-0.4c-0.8,0.4-1.7,0.7-2.7,1L154.6,88l-0.5,0.2l-0.3,0.1l-1.1,0.4h-0.1l-0.1,0.1l-1.6,0.7l-0.1,0.1l-0.2,0.1
							l-0.5,0.2l-0.4,0.3l-0.2,0.2l-2,1.3c-1.1,0.8-2.3,1.7-3.4,2.8l-2.1,2.5l-0.2,0.3c0,0.1-0.1,0.1-0.1,0.1l-0.1,0.1l-0.1,0.1
							l-0.1,0.2l-0.1,0.1l-0.1,0.1l-0.1,0.3l-0.1,0.2l-0.1,0.1l-1.5,3.2l-0.9,3.4c-0.2,1-0.3,2-0.4,2.9v2.3l0.1,0.3v0.2l0.2,1.2
							c0.1-1,0.2-2,0.3-3c0,1.7,0.2,3.5,0.6,5.5l-1.2-2.5l-0.2-0.7c0.1,1.3,0.2,2.2,0.3,2.8l0.6,3.2l0.1,0v0.2l0.1,0.1v0.2l0.1,0.1
							v0.2l0.1,0.5l0.1,0.1L147,141c0.6,1.8,1.1,3.6,1.5,5.3c0.6,2.2,1,4,1.3,5.3l0.1,0.3v0.2l0.2,0.8v0.2l0,0.2l1.7,17.6l0.1,9
							c-0.1,1.5-0.2,2.1-0.4,1.8c-0.2-0.7-0.3-1.1-0.3-1.1c0.1,1.1,0.1,2.2,0.3,3.1l0.1,0.8l0.1,1.9c0,0.5-0.1,0.5-0.2,0.2
							c-0.1-0.2-0.1-0.6-0.1-1c0,0.3,0,1.1,0,2.3c0,0.7,0,1,0.1,1.1c0-0.8,0.1-1.3,0.3-1.5c0.3-0.3,0.5-0.5,0.5-0.6l-0.1,4.8
							l-0.3-0.3c0,0.2,0,0.5,0,1l0.2,1.4c0.2,1.5,0.2,3.2,0.1,5.3l0.9,25.6c-0.1-0.1-0.3-1.3-0.5-3.6c0.1,2.1,0.1,3.4,0.1,3.8
							c0.1-0.7,0.2-0.4,0.3,0.9c0.1,1.1,0.1,1.5,0.1,1.1c0.1,0.4,0.1,0.9,0.2,1.4c0,0.1,0,0.1,0.1,0.2l0.4,8.1c0,0.1-0.1,0-0.1-0.4
							c0.2,2.2,0.4,5.3,0.8,9.2c0,0.5-0.1,0.9-0.3,1.3c0,0.1,0.1,0.3,0.1,0.6l1.5,16.1l0.5,0.2c0.1,1.1,0.1,1.8,0,2.1
							c-0.1,0.3-0.1,0.9,0,1.9c0.3,0.4,0.5,1.4,0.6,3c0.1,1.7,0.3,2.7,0.4,3c0,0.9,0,1.4-0.2,1.4c0.3,0.3,0.4,1.1,0.4,2.4
							c0.1,0.1,0.1,0.1,0.1-0.1c0.1-0.3,0.1-0.5,0.1-0.5l0.3,2.1c0,0.4,0,0.7-0.1,0.8c-0.1,0.1-0.2-0.1-0.3-0.5
							c0.5,5.3,1.2,11.5,2.1,18.6l1.1,8v0.3l0.6,7v1.1l-0.1,0.1v0.8l0.2-0.5l0.1-0.1l0.1-0.6c0.1-0.6,0.2-1.1,0.3-1.3
							c0.1,0.3,0.1,0.8,0.1,1.5l-0.1,0.2v0.4l0.1,0l0,0.3l-0.3,0.3l-0.1,0.4l-0.1,0.6l-0.1,0.1v0.1l-0.1,0.3v0.1l-0.1,0.1l-0.1,0.4
							c-0.2,0.3-0.3,0.5-0.5,0.5l0.3,0.4l-0.2,0.1l-0.2,0.1l-0.3,0.9v0l-0.1,0.2l-0.1,0.1l-0.1,0.2l-0.1,0c0,0,0.1,0,0.1-0.1v0
							l-0.2,0.2l-0.1,0.1h-0.1l-0.1,0.1l-2.8,1.5l-0.9,0.4l-0.2,0h-0.1l-0.1,0.1h-0.6l0.4,0.1c0.1,0.1,0,0.1-0.3,0.3
							c0-0.1-0.1-0.1-0.3-0.1l-1.6,0.3c-0.2,0.1-0.4,0-0.5-0.1l-1.9,0.1c-0.9,0.1-1.1,0.2-0.6,0.4c-0.2-0.1-0.7-0.2-1.4-0.3
							l-0.2-0.1h-0.1l-0.1-0.1l0.1,0h0.2v0h-0.1l-0.3-0.1h-0.6c-0.5,0-0.8,0-1,0.1l1,0.1h-1c-0.2,0-0.5-0.1-0.8-0.1l-1.6-0.1
							c-0.9-0.1-1.7-0.1-2.6,0l0.3,0.1l0.7,0.2c-0.9,0-1.5-0.1-2-0.2l-0.4,0l-0.3-0.2l-0.5-0.3l1.5,0l-1.6-0.2l-0.2-0.1h-0.2l-0.1,0
							h-0.1l-1.6-0.3l-0.1-0.1h-0.1l-0.9-0.2l0.3,0.1l-1.1-0.3l-2.2-1l-0.4-0.3l-0.1-0.1l-0.1-0.1l-0.2-0.1l-0.3-0.3l-0.1-0.1
							l-0.3-0.3l-0.1-0.1l-0.1-0.1l-1-1.1c-0.5-0.6-0.9-1.2-1.3-1.9l-0.4-0.8v-0.1h-0.1v-0.1l-0.2-0.5v-0.2l-0.3-0.8v-0.1l-0.1-0.1
							v-0.1l0-0.3l-0.1-0.3l-0.5-2.3l-0.3,1.3l-0.5-2.3c0,0.1,0.2,0.3,0.6,0.6c0.3,0.3,0.5,0.4,0.5,0.6l-0.1-1.1l-2.3-36.1
							c0-0.8,0.1-1.1,0.3-0.9c0.1,0.1,0.2,0.3,0.3,0.5c-0.1-0.8-0.2-1.3-0.3-1.6c-0.1-0.2-0.2-0.7-0.2-1.4c0-0.4,0.1-0.3,0.3,0.4
							c0-0.6-0.1-0.9-0.1-1.1c0-0.4-0.1-0.6-0.2-0.6c0,0.4-0.1,0.7-0.3,0.8c-0.3,0.2-0.4,0.3-0.4,0.4l-0.2-2.6l0.3,0.1
							c-0.2-0.4-0.3-0.8-0.5-1.3c-0.3-0.9-0.4-1.8-0.4-2.8l-0.5-6.6c-0.3-3-0.5-5.2-0.6-6.6l0.3,0.6l0.3,1.3l-0.2-2
							c-0.1,0.4-0.2,0.3-0.3-0.4c-0.1-0.7-0.2-0.9-0.2-0.6l-0.6-1.8l0-0.3l-0.1-0.3l-0.7-2.8h0.9l-0.3-1.1v-0.4l0.1,0.1V241
							l-0.4-1.4c0,0.1,0,0.2-0.1,0.3c0,0-0.1,0-0.2-0.2l-0.3-1l-0.2-0.4l-0.1-0.4l-0.5-0.3l-0.9-1.1l0-0.1v-0.1l-0.1-0.1l-0.2-0.2
							l-0.7-0.7c-0.5-0.5-1-0.9-1.5-1.3c-0.7-0.5-1.3-0.9-1.8-1.1l-1.1-0.6l-0.2-0.1l-0.1-0.1l-0.3-0.1l-0.1-0.1h0l-0.1-0.1v-1.1
							l0,1.1l-0.1-0.1c-0.1,0-0.2-0.1-0.3-0.1h-0.1l0-0.1h-0.1l-0.1-0.1l-0.1-0.1l-3.3-0.6l0-0.1c-0.5-0.1-1-0.1-1.4-0.1h-0.5
							l-0.3-0.1h-0.5c-0.4,0-0.7,0-0.9,0l-5.1,0.1c-0.1-0.1-0.3-0.2-0.5-0.3c-0.3,0-0.4-0.1-0.5-0.1c0.1,0.1,0.1,0.1,0.1,0.2
							c0,0.1-0.1,0.1-0.2,0.1c-0.3,0-0.5,0-0.6,0.1c0,0.1-0.2,0.2-0.6,0.2l-8.3,0.3l-0.3,0.2h0v0.1l-0.1,0.1l-0.1,0.1l-0.2,0.1h0
							l-0.1,0.1l-0.3,0.1l-0.1,0.1l-0.5,0.1l-0.6,0.3l0.1-0.1l-1.2,0.6c-0.4,0.1-1,0.4-1.8,0.9c-0.8,0.5-1.3,0.9-1.7,1.2l-0.7,0.5
							l-0.3,0.4l0.2-0.1l-0.3,0.4l-0.2,0.1h0l-0.1,0.1l-0.5,0.2l-0.1,0.1h0l-0.1,0.1c0.1,0.1,0.2,0.2,0.3,0.3l-0.4,0.8l-0.1,0.1v0.1
							l-0.2,0.3l-0.1,0.3l0.1,0.1l-0.3,1.1l-0.2-0.2l-0.2,0.5l-0.2,0.4v-0.1l0.1-0.1v0l0.1-0.1c0.2-0.7,0.4-1.4,0.7-2.1l-0.8,1.8
							l0,0.3l-0.1,0.2l-0.1,0.4c0,0.2-0.1,0.3-0.1,0.4l-0.2,0.4c0,0.1-0.1,0.2-0.1,0.3l-0.1,0.1c-0.1,0-0.3,0.3-0.4,0.8l-0.1,0.3
							c0,0.1-0.1,0.2-0.1,0.3c-0.3,0.8-0.4,1.6-0.3,2.2l-0.3,0.3l-0.1,0.1l-0.1,0.1l-0.3,0.6v0h0v0.1h0.7c0,0.1,0,0.1,0,0.2h-0.1
							c-0.1,0.5-0.1,1.2-0.1,2.1l0.2,1.9c0.1,0.6,0.2,1.2,0.2,1.8c0,0.5,0,1.2-0.1,2l-0.1-0.3c-0.1,0.3-0.1,1-0.2,2.2
							c0,1.2-0.1,2.1-0.2,2.8c0.1-0.3,0.1-0.5,0.2-0.6c0.1-0.1,0.1,0.2,0.1,0.7l-0.3,2.8c-0.1,1-0.1,1.8-0.3,2.4l0.2,1.6l-3.2,43.5
							l-0.1,0.6v-0.3l-0.6,2.9l-0.1,0.1l-0.1,0.4v0l-0.2,0.5c-0.3,0.9-0.5,1.5-0.7,1.8l-0.1,0.2l-0.3,0.8l-0.2,0.2l-0.2,0.4
							l-0.7,0.9v0l-0.2,0.1l-0.1,0.1l-0.2,0.2v-0.1l-0.1,0.1l0,0l-0.2,0.1v0l0,0.1l-0.1,0l-0.4,0.4l-0.1,0.1l-0.2,0.1l-0.6,0.4
							l-0.1,0h-0.1l-0.1,0.1l-0.3,0.1l-0.2,0.1l-0.1,0.1l-0.4,0.1l-0.2,0.1l-0.5,0.2l-0.1,0l-0.4,0.1h-0.1l-0.1,0.1l-0.4,0.1l-0.3,0
							l-0.2,0.1l-0.1,0h-0.1l-0.3,0l-0.1,0.1h-0.1l-0.1,0l-0.6,0.1h-0.2l-0.6,0.2l-1.7,0.3h-0.4l-1,0.1h-0.4l-0.3,0h-0.4
							c-1.7,0.1-3.7,0.2-5.9,0.2l-5.7-0.2l-0.3,0h-0.3l-0.2-0.1h-0.3l-0.2,0l0,0h-0.1l-0.2,0l-1.6-0.4l-0.2-0.1l-0.2-0.1l-0.2-0.1
							l-0.3-0.1l-0.8-0.5l-0.7-0.6l-0.1,0l-0.1-0.1v0l-0.1-0.1l-0.1-0.1l0,0v0l0,0.1c0.1,0.1,0.1,0.1,0,0.1l-0.3-0.1l-0.1-0.1v0h0
							l0-0.1l-0.2-0.1l-0.1-0.2l-0.1-0.1l-0.1-0.2l0-0.1l-0.2-0.2c-0.1-0.1-0.1-0.2-0.2-0.2l-0.3-0.3l-0.5-0.9L40,317l-0.1-0.2
							l-0.1-0.5l-0.1-0.3l-0.1-0.6l0-0.2V315l0-0.3v-0.1l0-0.1l-0.1-1.8l0.4-7.1l0-0.4l0-0.2v-0.1l0.7-5.7
							c1.3-10.9,2.1-17.3,2.4-19.4c-0.1-1.1,0-2.9,0.2-5.3l0.4-5.3l0,0.4l1.7-27.1l-0.1,0.6c0-1.4,0-2.4,0.2-3.2
							c0.2-1.1,0.4-2,0.4-2.6c-0.1,0.1-0.2,0-0.3-0.3l-0.2-1.1c-0.1-0.6-0.1-1.4-0.1-2.4l0.1,0l-0.2-3.8c-0.1-1.6-0.2-3.2-0.2-4.7
							l0.3,0.1l-0.1-2.1l0.3-14l0.1-0.5l-0.4-7.1l0.4-3.4l-0.1-0.5l-1-0.8c-1-0.6-1.7-1-2.3-1.2c-1-0.3-1.8-0.2-2.4,0.2
							c-0.4,0.2-0.7,0.6-1.1,1.1c-0.4,0.7-0.8,1.3-1,2l-0.2-0.1l-0.3,3.1c0,0.4,0,0.5-0.1,0.4l0.2-1.9c-0.1,0.5-0.1,0.7-0.1,0.6
							c0-0.2,0-0.4,0-0.5c0-0.2,0-0.3,0-0.4l-0.3,1.9c0,0.1,0-0.1,0.2-0.5v1.5c0,0.6,0,1.2-0.2,1.7c0,0.5-0.1,0.8-0.3,0.9
							c-0.1,0.1-0.2,0.4-0.3,1.1l-2.5,30.6c-0.1,0.1-0.1,0.1-0.1,0.1c0-0.2,0-0.3,0-0.4l-0.5,8.8l-0.3,0l-2.1-0.2
							c-1.1,0-2-0.1-2.8-0.3l0.3-0.1l-0.7-0.2l-2.6-0.5c0.2,0.1,0.3,0.2,0.3,0.3c0,0.1-0.1,0.1-0.4,0l-1.8-0.4h-0.2l-0.1-0.1
							l-0.8-0.2l-0.4-0.1l-1,0.1l-1.3-0.3l-0.3-0.1l-0.7-0.2c-1.6-0.5-2.7-0.8-3.2-1.1l-0.4-0.1l-0.6-0.3h-0.1v0h0l-0.7-0.3h-0.1
							l-0.4-0.2l-0.1-0.1l-0.8-0.4l-3.1-2.1c-0.6-0.5-1.1-0.9-1.4-1.3l-0.2-0.1l-2.2-2.6l-0.7-1.2c-0.4-0.8-0.7-1.7-0.9-2.6
							c-0.2-0.5-0.3-1.2-0.4-2l0.1,0.1l-0.2-1.3L2,224.2l0.3-5.8c0.1-2,0.3-3.4,0.4-4.4l0.4-2.6v-0.3l0.3-1.6v-0.2l0.1-0.3l2.6-10.5
							c0.1-0.3,0.6-1.7,1.5-4.2c-0.1,0.4-0.2,0.5-0.3,0.4c0-0.1,0-0.3,0-0.6c0.4-1.3,0.6-2.1,0.6-2.2c-0.1-0.1,0.1-0.8,0.4-2.2
							l1.1-3.8l0.1-0.1v-0.2l0.4-1.3c0.8-2.4,1.7-4.8,2.7-7.2c0.9-2.1,2.1-4.3,3.4-6.8l2.6-4.4c0.1-0.3,0.2-0.6,0.3-0.8l3-5.4l0,0.3
							c0-0.1,0.3-0.5,0.7-1.2l9.7-13.6l-0.3,0.3c0.4-0.8,0.8-1.4,1.3-1.8c0.7-0.7,1.1-1.1,1.3-1.3c-0.2,0-0.2-0.4,0.1-1.1
							c0.2-0.5,0.5-1,0.8-1.6l0,0.1l2.6-5.5l0.1,0.2l1.3-3c0.5-0.9,0.9-1.8,1.2-2.7l1.6-4.3l0.2-0.7l0.3-1.7L43,119l-0.3-3.4
							c-0.1-0.3-0.1-0.6-0.2-0.9l0.1-0.8l0-0.2l0,0.3l0,0.6c0-0.1,0-0.2,0-0.3l-0.4-5.9c-0.1-1-0.1-1.7,0-2c0.1-0.1,0.1-0.2,0.1-0.5
							v-0.5l-0.1-0.2v-0.2l-5.9-30.4c-0.3-2-0.7-4.4-1-7l-0.3-2.7l0-7L35,57v-0.4l0.1-0.9l0.1-0.2v-0.2l0-0.5l1.3-7l0.2-0.6
							c0.1-0.1,0.1-0.1,0.1,0l1.7-5.8l0-0.3v0l0.1,0v0l0-0.1l0.2-0.6l0-0.1l0-0.2l0.2-0.4v0l0-0.1l0-0.1l0-0.2l0.5-1.3l0.2-0.5l2-4
							l0.7-0.9l0.2-0.2c0.2-0.2,0.4-0.4,0.5-0.5c-0.1,0,0-0.1,0-0.2l0.4-0.6c0.3-0.5,0.9-1.3,1.8-2.4c0.8-1,1.8-2.1,2.8-3.3l7.5-6.5
							l0.1-0.1h0l0.1-0.1l8.3-5.3l0.1-0.6l2.4-1.2c0.1-0.1,0.4-0.2,0.8-0.3c0.3,0,1.3-0.4,3-1.2C72,9.7,73.6,9,75.9,8.3
							c0.5-0.2,1.4-0.5,2.8-0.9c1-0.3,1.7-0.5,2-0.6l0.1-0.1H81l1.3-0.3h0.3l0.1,0c0.2,0,0.3,0,0.3,0l0.7-0.3L87,5.5
							c0.2-0.1,0.2-0.1-0.1-0.1c-0.5,0-0.7,0-0.8,0l3.6-0.6c0.8,0,1.2,0,1.3,0.1C91.1,5,90.8,5,90,5.1l2.8-0.2l0.3,0l1.9-0.1
							c2.3-0.1,4.8,0,7.7,0.2l7.5,0.9l0.1,0.1h0.2l0.3,0l0.4,0.1h0.1l0.2,0.1l3.1,0.7c0.6,0.1,1.4,0.3,2.5,0.6l4.8,1.6
							c1.5,0.6,2.9,1.2,4.4,1.9c1.5,0.8,2.7,1.6,3.7,2.4c0.5,0.4,1,0.8,1.5,1.3l0.1,0.1l0.1,0.1l0.1,0.1l1.6,1.7l0.4,0.5l0.4,0.4
							l1.8,2.1c0.5,0.6,1.3,1.7,2.4,3.3l2.1,3c1.1,1.8,2,3.3,2.7,4.7l-0.2-0.6l-1.8-3.5c-0.1-0.3-0.2-0.5-0.3-0.6l-0.1-0.5
							c0.5,0.7,1.1,1.6,1.7,2.7l0.5,1l0.6,0.8c0,0.3,0.1,0.8,0.4,1.4l0.4,1l0.2,0.3v0.1h0.1v0.1l0.1,0.1l0.6,1.2l0.1,0.2l0,0.1
							l1.3,2.7c0.2,0.6,0.4,0.9,0.4,1l0.8,0.6l0.6,1.5c1.5,2.3,2.7,4.1,3.8,5.5l2.4,3.2l0.2,0.2l0.6,0.6l0.1,0.2l0.1,0.1l0.3,0.3
							l0.9,0.9l0.2,0.2l1.8,1.7L167.7,60 M164.6,159.5l0.7,0.6l1.5,2.3l0.3,0.3c0.3,0.5,0.4,0.8,0.3,0.8c0.3,0.1,0.6,0.5,1,1.3
							c0.1,0,0.1,0,0-0.1c0-0.1-0.1-0.2-0.1-0.3l0.9,1.1c0.1,0.2,0.1,0.4,0.1,0.5c-0.1,0.1-0.2,0-0.4-0.3l6.7,11.8l4.1,8.8l0.3,0.8
							v-0.4l-0.2-0.3v-0.1l0-0.2c-0.2-0.4-0.2-0.8-0.2-1.1c0.1,0.2,0.3,0.6,0.5,1.1c0.2,0.3,0.3,0.6,0.4,0.7
							c-0.2,0.2-0.1,0.6,0.1,1.3v0.1l0.1,0.1v0.1l0.1,0.2l0.1,0.5c0,0.3,0,0.6,0,0.8l0.4,0.1v0.6l1.2,2.6l0.7,2.3
							c0.2,0.6,0.6,1.5,1.2,2.5c0.3,0.6,0.5,1.2,0.7,1.6c0,0,0-0.1,0-0.1c0-0.1,0.1,0,0.3,0.2c0,0.1,0.1,0.4,0.3,0.9
							c0.3,0.5,0.4,0.9,0.3,1c0.6,1.4,0.9,2,1,1.6c0,0.2,0,0.5,0.1,1.1c0,0.4,0,0.4-0.2,0.1c0.2,0.9,0.4,1.4,0.5,1.5l-0.1-0.8
							c0,0.1,0.3,0.9,0.8,2.3l0.3,0.9l0.5,0.8l-0.2-0.8l0.6,1.5c0.1,0.5,0.1,0.9,0.1,1.1l-0.6-1.1l0.8,2.2l0,0.1l0.7,1.8l-0.1-0.6
							l0.9,2.6c0.4,1.1,0.7,2.5,1.1,4.2l1.1,5.2l0.1,0.4l0.3,1.3l0.3-0.9l0.4,1.5c0,0-0.2-0.1-0.6-0.3l-0.4-0.4l0,0.9l0.1,0.3v3.1
							c-0.1,1-0.2,2-0.4,2.9c-0.2,1-0.6,1.9-1,2.7l-0.4,0.6l-0.1,0.1l-0.3,0.6l-0.6,0.5l-0.1,0.1l-0.4,0.6c-0.6,0.7-1.3,1.4-2.1,2
							c-0.8,0.6-1.4,1-1.9,1.3l-1.4,0.6c-0.4,0.1-0.6,0.1-0.6-0.1l0.2-0.3c-0.2,0.1-0.4,0.2-0.6,0.3l-0.4,0.4h-0.1l-0.4,0.2
							c-0.3,0-0.2-0.1,0.2-0.4l-0.5,0.2h0l-0.1,0.1h-0.1l-0.3,0.2c0.2,0,0.4,0,0.5,0.2l0.1,0.2l0.2,0.2h0l-1.5,0.4l0.1-0.3l-0.7,0.6
							l-0.6,0.3l-0.4,0.2l-0.6,0.1c-2.5,0.4-3.9,0.7-4.1,0.8l-4.3,0.5c0-0.1,0.1-0.1,0.4-0.3l0.8-0.2l-1.3,0.1
							c0.3,0.1,0.2,0.2-0.3,0.2c-0.4,0.1-0.5,0.1-0.4,0.2l-0.8,0.3l-2.5,0.3l-0.7-6.8v0.6c-0.1-0.3-0.1-0.6-0.2-0.9
							c0-0.4,0-0.7,0.1-1.1l0,0.1c0-1.1,0-2.5,0-4.3l-0.3-3.7c-0.3-3.1-0.5-5.7-0.4-7.6l0.1,0.7c0-0.6-0.1-2-0.1-4.3
							c-0.1-2.1-0.2-3.8-0.2-5.1c0,0.4-0.1,0.6-0.1,0.7c-0.1,0.1-0.2-0.3-0.3-1.3c0-0.4-0.1-2.3-0.2-5.6l0-4.6l-0.1-0.7v-0.2l0-0.1
							v-0.1l-0.1-0.4v-0.1l0-0.1v-0.1L164,201l0.2-12.4c0.1-1.8,0.1-3.7,0-5.6l-0.2-12.8c-0.1-3.1-0.3-5.5-0.4-7
							c-0.2-2.4-0.4-4.3-0.6-5.8l0.4-0.1c0.4,0.6,0.6,1,0.7,1.2C164,158.7,164.2,159,164.6,159.5 M81,237.4L81,237.4l-0.2,0.5
							l-0.1-0.1l0,0.1l0,0c0.1-0.3,0.3-0.5,0.4-0.8c0,0.1,0,0.1,0,0.1L81,237.4 M108.4,242.5L108.4,242.5L108.4,242.5L108.4,242.5z"
							/>
					</g>
				</g>
			</g>
		</g>
	</g>
</g>
</svg>
