<?xml version="1.0" encoding="utf-8"?>
<!-- Generator: Adobe Illustrator 24.1.2, SVG Export Plug-In . SVG Version: 6.00 Build 0)  -->
<svg version="1.1" id="Layer_1" xmlns="http://www.w3.org/2000/svg" xmlns:xlink="http://www.w3.org/1999/xlink" x="0px" y="0px"
	 viewBox="0 0 256 256" style="enable-background:new 0 0 256 256;" xml:space="preserve">
<style type="text/css">
	.st0{fill:#FFFFFF;}
</style>
<g id="idle5">
	<g transform="matrix( 0.6996917724609375, 0, 0, 0.6996917724609375, 57.25,20.7) ">
		<g id="idle">
			<g transform="matrix( 1, 0, 0, 1, 0,0) ">
				<g>
					<g id="idle_4_Layer0_0_FILL">
						<path class="st0" d="M53.5-2.7L53-2.5L49.4,0l-0.2,0l-0.1,0.1l-1.5,1.1l-0.1,0.1h0l-0.1,0.1l-0.3,0.1l-0.9,0.7
							c-2.3,1.8-4.6,3.9-6.8,6.1c-2,2.1-3.8,4.3-5.5,6.6c-1.3,1.8-2.5,3.8-3.7,6l-1.6,3.5l-0.2,0.4l0.3-0.6l-1,2.6v0l0,0.1v0.1
							l-3,8.6c0.1-0.1,0.2,0.1,0.2,0.6l-1,7.3l-0.1-0.1l-0.4,7.6l1,10.2l-0.3-0.2c0.3,1.6,0.9,4.6,1.6,9l3.2,14.1
							c0.1,0.4,0.6,2.8,1.6,7.2l3.1,14.8l0,0.4v0.4l0.4,3.9v0.4l0.1,0.4l0.1,0.8l0.1,0.2l-0.8,2.1c-0.7,1.5-1.4,2.9-2.2,4.3
							l-5.3,8.6c-0.1,0.1-0.1,0,0-0.3l-3.3,4.9c-0.2,0.2-0.5,0.4-0.8,0.6c0.1,0-0.2,0.4-0.9,1.4l-0.4,0.6l-0.1,0.2l-0.1,0.2
							l-4.7,7.1l0.3,0.4c-0.4,0.7-0.7,1-0.9,1c-0.2,0.1-0.5,0.5-0.8,1.1c0,0.4-0.3,1-0.9,1.9c-0.7,1-1,1.6-1,1.8
							c-0.3,0.5-0.6,0.8-0.6,0.6l-0.1,0.4l-0.2,0.4c-0.1,0.2-0.3,0.5-0.4,0.8c0,0.1,0,0.1,0.1,0.1c0.1-0.1,0.2-0.2,0.2-0.2l-0.6,1.3
							c-0.2,0.2-0.3,0.3-0.4,0.3s-0.1-0.1,0-0.3l-6.8,13.3L3,167.1l0,0.3l-2.5,7.5v0.1L0.2,176c0.1-0.1,0.2-0.4,0.5-1v-0.1l0.1-0.2
							l0.1-0.3c0.2-0.2,0.3-0.4,0.3-0.4l-0.1,0.8v0.2H1v0.1l-0.1,0.2c-0.1,0.5-0.1,0.7-0.1,0.8c-0.2,0.1-0.4,0.5-0.7,1.3
							c-0.3,0.9-0.5,1.4-0.8,1.6l0.2,0.4l-0.3,0.4l-0.5,2.8c-0.3,0.7-0.5,1.5-0.7,2.3c-0.2,0.7-0.4,1.6-0.5,2.8
							c-0.1,0.8-0.3,1.3-0.4,1.7c0,0,0.1,0,0.1,0c0.1-0.1,0.1,0,0.1,0.3c-0.1,0-0.2,0.3-0.3,0.8c-0.1,0.6-0.2,0.9-0.3,1
							c-0.4,1.6-0.5,2.2-0.2,1.9c-0.6,1.3-0.8,1.6-0.7,0.9c-0.3,0.7-0.5,1.3-0.5,1.6l0.3-0.8c-0.2,0.7-0.4,1.4-0.8,2.3l-0.1,0.4v0.2
							l-0.1,0.1l-0.1,0.3v0.1l0,0.1l-0.1,0.9l0.4-0.9l-0.5,1.9l-0.3,0.6c0,0.2-0.1,0.3-0.3,0.5l0.2-1.4l-0.6,4.1l0,1.3l0.2-0.7v13.1
							c0.1,1.4,0.3,2.5,0.6,3.3l0.2-1l0.5,1.9l-0.6-0.6c-0.3-0.3-0.4-0.4-0.4-0.5l0.7,4l0.6,1.9c0.5,1.5,1.2,3,2,4.5l1.6,2.4
							l0.2,0.2l0.1,0.3l0.4,0.4l0,0.1l0.7,0.9c1.1,1.2,2.4,2.4,3.7,3.5c1.2,0.9,2.4,1.7,3.8,2.6c1.1,0.6,2.2,1.2,3.3,1.7l0.9,0.3h0
							c0,0,0.1,0.1,0.1,0.1l0.1,0.1l0.6,0.3h0.1l0.1,0.1l0.2,0c0.4,0.2,0.6,0.3,0.6,0.4c0.1,0.1,0.1,0.1,0,0.2l-0.5,0.1
							c0.3,0.1,0.7,0.2,1,0.2l0.4,0.1c0.2,0,0.5,0,1.1,0.2c0.2,0.1,0.2,0.1,0.1,0.1l-0.4,0.1l0.9,0.3c0.3,0.1,0.4,0.1,0.4,0.1
							c-0.3-0.1-0.5-0.3-0.5-0.5c-0.1-0.3-0.1-0.5-0.1-0.5l1.9,0.6l-0.1,0.3c0.2,0,0.5,0,1-0.1c0.6-0.1,1.3,0,2.1,0.2
							c1.1,0.3,2.7,0.6,4.9,0.9l4.7,0.5c0,0.1-0.5,0.2-1.3,0.2c0.3,0,0.7,0.1,1.4,0.2c-0.3-0.1-0.2-0.2,0.3-0.2c0.4,0,0.6,0,0.4-0.1
							c0.3-0.1,0.7-0.1,1.1-0.1l-0.8,10.4l0.5,0.3c-0.1,1.1-0.2,1.8-0.4,2c-0.2,0.2-0.3,0.9-0.3,1.9c0.2,0.4,0.2,1.5,0,3.1
							c-0.2,1.7-0.3,2.7-0.2,3c0,0-0.1,0.2-0.1,0.6c-0.1,0.5-0.2,0.7-0.3,0.6c0.1,0.2,0.2,0.5,0.1,1c-0.1,0.7-0.1,1.2-0.1,1.4
							c0,0.2,0.1,0.1,0.3-0.5l-0.1,2.1c-0.1,0.4-0.2,0.7-0.3,0.7c-0.1,0-0.1-0.2-0.1-0.6l-3.4,29v0.4l-0.1,0.8l-0.3,5.4
							c0,1.5,0,2.7,0,3.6c0.1-0.2,0.1-0.9,0.2-2c0.1-0.9,0.2-1.5,0.4-1.9c0.1,0.6,0.1,1.3,0,2.1v0.7l0,0.4l0.1,0.3l-0.2,0.4
							l-0.1,0.6v1.5h0l0.1,2.8l-0.1,0.7l0.5,0.5l0,1.1l0.8,2.3l0.1,0.2l0.8,1.7l0.2,0.3l0.3,0.5l2,3l0.6,0.7l0.1,0.1v0.1l0.2,0.1
							l0,0.1l1.1,1.1c0.9,0.8,2,1.5,3.1,2.1c0.5,0.3,1.3,0.6,2.5,1.1l0.8,0.3l0.3,0l2.9,0.9l-0.6-0.3c-0.2-0.2,0-0.2,0.5-0.1
							l0.1,0.1l0.9,0.2h0.1l1.3,0.1h0.3l0.3,0c0.4,0.1,0.6,0.1,0.8,0.2l0.8,0.1h0.3l0.3,0l1,0.1c1.1,0,1.4-0.1,0.9-0.4l0.8,0.2
							l0.5,0.1l0.4,0.1c0.3,0.1,0.5,0.1,0.6,0.1c0,0-0.2,0.1-0.6,0.1c1.3,0.1,2.1,0.1,2.5,0l-1.2-0.2h1.1l0.5,0.1h2.3
							c1.2,0.1,2.3,0,3.2-0.3l-1.3-0.1c0.7,0,1.5-0.1,2.7-0.2c0.8,0,1.4,0.1,1.8,0.2l-2,0.4l2.3-0.3c0.7-0.1,1.4-0.2,2-0.3l1.8-0.4
							h0.1l0.1,0l1.8-0.6h-0.1l-0.1,0h-0.1l-0.3,0.1l0.2-0.1l1.9-0.8c1.3-0.6,2.3-1.1,3.2-1.6c1.4-0.8,2.6-1.7,3.7-2.7l1.5-1.5
							l0.6-0.8l0.1,0l0.7-1l0.1,0v0L81,325l1.4-2.3c0.5-1,0.8-1.7,0.9-2.1L85,316l0.1-0.4l0-0.1v-0.1l0.1-0.1v-0.1l0.2-0.8l0-0.2
							v-0.2l0.1-0.3l0.2-1.9l-0.6,1.4l0.2-2.7c0,0.1,0.1,0.4,0.4,0.9l0.3,0.5c0,0.1,0.1,0.2,0.1,0.3l0.5-3.1l2.9-35.6
							c0.1-0.8,0.3-1.1,0.4-0.9c0.1,0.1,0.1,0.3,0.2,0.6c0-0.9-0.1-1.5-0.2-1.7c-0.1-0.3-0.1-0.8-0.1-1.4c0-0.2,0.1-0.3,0.2-0.1
							c0.1,0.2,0.1,0.3,0.1,0.5c0-0.1,0-0.5,0.1-1.1c0-0.4,0-0.6-0.1-0.6c-0.1,0.5-0.2,0.7-0.4,0.8c-0.3,0.1-0.5,0.2-0.5,0.3
							l0.2-2.6l0.3,0.1c-0.1-0.5-0.2-0.9-0.3-1.3c-0.2-0.8-0.3-1.8-0.2-2.9l0.3-13.7c0.1,0,0.2,0.7,0.3,2c0-1,0-1.7,0.1-2.1
							c-0.1,0.4-0.2,0.3-0.2-0.4l-0.1-0.7c0-0.1,0-0.1,0,0.1c-0.1-0.7-0.2-1.6-0.2-2.6l0-6l-0.3-1.5l0.6-0.6l0-0.1l0.2-0.2l0,0.1H90
							v-0.1l0.1-0.1l0-0.1l0.1-0.2l0.1-0.1l0.1-0.1l0.3,0.3c-0.1-0.1,0-0.3,0.3-0.4l0.5-0.3l-0.2-0.4c0,0,0.1,0,0.2,0.1l0.1,0.1
							l0.1,0.1h0.1c-0.1-0.3,0-0.4,0.1-0.3h0.2l0.1-0.1l0.1,0.1h0.1l0.1,0.1c0-0.1,0-0.2,0.1-0.2h0.2v-0.1l-0.1-0.2v-0.1l0.1-0.1
							v-0.1c0.2,0.2,0.2,0.3,0.1,0.4l4.1,0.1l0.2,0l-0.1-0.1l-0.1-0.1l-0.1-0.1l-0.2-0.1l0-0.1l-0.1-0.1h0.2v-0.1h-0.1l0-0.1h0.2
							c0.1,0.1,0.1,0.1,0.1-0.1c0,0.2,0.1,0.3,0.3,0.4c0.2,0,0.4,0.2,0.4,0.4l0-0.4l0.2,0.3c0.4-0.1,0.6-0.2,0.7-0.1l0.6,0.1
							c0.2,0,0.4-0.1,0.6-0.2c0.2-0.1,0.4-0.2,0.5-0.1c0,0,0,0,0-0.1c0-0.1,0-0.2,0-0.2c0,0.1,0.1,0.1,0.2,0.1
							c0.2-0.1,0.3,0,0.3,0.1c0.1,0,0.2,0,0.3-0.1c0.1,0,0.2-0.1,0.2-0.3c0,0,0.1,0.1,0.2,0.3c0.1,0.1,0.1,0.2,0,0.3
							c0.2,0.1,0.3,0.1,0.4,0l-0.2-0.1c0.1,0,0.3,0,0.6,0.1c0.2,0,0.3,0,0.4-0.2l-0.2-0.2h0.2l0,0.1h0.2l0.1,0.1
							c0.1,0,0.2,0.1,0.2,0.3l-0.3,0.1h0.6l0.6-0.2h-0.2c0.1-0.1,0.5-0.2,1.1-0.4l0.9-0.2h0.1l0.1-0.1h0.2v-0.1l0-0.6l0.1-0.1v-0.4
							l0.1-0.6l0.2-2l0.1-0.1v-0.3l0.2-0.9l-0.4,4.9c0.4-0.1,0.6-0.2,0.8-0.4l-0.2-0.4l0.3-0.2c0,0.1-0.1,0.3-0.1,0.5
							c-0.1,0.2-0.1,0.3-0.2,0.4l1.4,0.2h0c-0.1,0.1-0.1,0.2-0.1,0.3l0.1,0.4l1.1-0.1l0.2,0.2v0c-0.1,0.2-0.1,0.3-0.2,0.3l-0.2,0.2
							l0.3-0.2l-0.1,0.2h-0.1l0.1,0h-0.1v0.1l0.1,0.1c0.1,0.1,0.1,0.1,0.1,0.1c0-0.1,0-0.2,0.2-0.4c0.2-0.2,0.3-0.3,0.3-0.3l0.1,0.1
							l0.1,0.1v0.1l-0.2,0.1l0.3-0.1l0.2-0.1c0.1-0.1,0.1-0.1,0.1,0.1v0.1l0.1,0.1v0.1l0.1,0.1l0.1,0.3h-0.3l-0.1,0.1l0.3-0.1
							c0,0,0.1,0,0.1,0l0.2,0.1l0.1,0.1l0.6,0.5l-0.1,0.4l-0.3,6.4l-0.1-0.4v3.9c0.1,0.4,0.1,0.8,0,1.2c0-0.1,0.1-0.1,0.2-0.2
							c0,0,0.1,0,0.1,0.1l0.1,0.7l0,0.8l0.1,2.3c0.1,1.2,0.1,2.1,0,2.7l0.5,1.6c0.4,5.8,0.7,9.2,0.7,10l2.7,39.4l-0.1-0.4l0.6,6
							l0.1,0.4l0.5,3.2v0.1l0.2,0.5l0.1,0.4l0,0.1l0.1,0.1v0.1l0.1,0.4l0.1,0.1v0.1l0.1,0.2l0.3,0.9l0.4,1c0.5,1.3,1.3,2.6,2.3,4.1
							l1.4,1.8l0.2,0.3l0.6,0.6l0,0.1l0.8,0.8l0.3,0.2l0.2,0.2l2.7,2.3l3.5,2l2.6,1.1l0.3,0l1.1,0.4l0.3,0.1l0.3,0.1l0.6,0.1h0.1
							l0.1,0h0.1l0.7,0.2l1.2,0.2l0.1,0.1h0.2l0.8,0.1l2.1,0.2c1.5,0.2,2.8,0.3,3.9,0.3h6.4c0.4,0,0.7,0,0.9-0.1
							c1.5-0.1,2.7-0.1,3.4-0.3l3.7-0.5h0.2l3.4-1l0.3-0.1l1.4-0.5c0.8-0.3,1.5-0.7,2.3-1.1l2.3-1.6l1.8-1.7l-0.3,0.2l-0.1,0.1
							l-0.1,0.1c-0.1,0.1-0.2,0.1-0.2,0l0.1-0.1l0.1-0.1l0.1-0.1l0.3-0.4l0.2-0.2v0l0.4-0.4l1.6-2.6l0.4-0.8
							c0.2-0.4,0.3-0.6,0.3-0.8l1.4-5.4l0.4-3.6c0.1-1.3,0.1-2.2,0.1-2.9l-0.1-3.1l-3.8-34.1c-0.2-0.9-0.5-2.8-0.9-5.7l-0.8-5.7
							l0.1,0.3l-1.4-14.4c0-0.1,0-0.2-0.1-0.3c0.3,0,0.5-0.1,0.7-0.1l-0.1,0.1h0.8l2-0.4c0.5-0.2,0.9-0.3,1.3-0.3l0.8-0.1
							c0.3-0.1,0.6-0.1,0.8-0.1l-0.3,0.1c0.6,0,1.9-0.1,3.9-0.5h-0.4c0-0.1,0.1-0.2,0.6-0.3l4.1-0.7l1.1-0.6l4-1.3l0.5-0.3l0.3-0.1
							l1-0.4h0.1l0.1-0.1l1.8-0.8l0.3-0.2l1.6-0.9l0.4-0.3c0.8-0.5,1.7-1.1,2.6-1.8c0.9-0.7,1.7-1.4,2.4-2.1l4-4.7V232l0.1-0.1
							l1.5-2.4l0.3-0.6l0.3-0.4l1.1-3.3l0.6-2.9c0.2-1.7,0.4-3.3,0.4-4.8l-0.1-3.3l0-0.2v-0.7l-0.2-1.2v-0.3l-0.1-0.5l-0.1-0.1v-0.1
							l-2.1-10.3l-1.9-5.9l-0.1-0.1v-0.1l-5.9-13c-0.1-0.4-0.5-1.8-1.4-4.2c0.1,0.4,0.1,0.5,0,0.5c-0.1,0-0.2-0.2-0.3-0.4
							c-0.4-1-0.7-1.6-0.9-2c-0.1-0.1-0.5-0.7-1.1-1.9l-1.4-3.3l-0.1-0.1l-3.5-7.2l-5.3-9.3c-0.9-1.5-1.9-3-2.9-4.5l-3.4-4.4
							c-0.4-0.5-0.8-1-1.2-1.3l0.2,0.1l-2.6-3.3l-0.2-0.3l-8.7-10.5c-0.6-0.5-1.1-1-1.3-1.5c-0.4-0.8-0.7-1.3-0.9-1.5
							c-0.1,0.2-0.4,0-0.9-0.4l-1.2-1.1l0.1-0.1l-2.1-2.3l-5.8-17l-0.1-0.1v-0.1l-0.1,0V105l-0.1-0.1v-0.1l-0.1-0.2l-0.1-0.9
							l0.1,0.4c-0.2-1.2-0.4-2.3-0.4-3.4l0.1-1.9l0.3-1.3v-0.1l0.1-0.1l0.3-0.9l0.5-1.1l0.1-0.1l0.1-0.2l0.1-0.1l0.1-0.1l0.1-0.1
							v-0.1l0.1-0.1l0.1-0.1l0-0.1l0.1-0.1l0.3-0.3l0.1-0.2l0.3-0.3l1.5-1.2l1.8-1.1l0.3-0.1l0.1-0.1h0.1l0.1-0.1l0.2-0.1l0.2,0
							l0.1-0.1h0.1l0.6-0.3l12.3-3.3c0.7-0.2,1.8-0.5,3.3-0.9l5.2-1.8h0l0.1-0.1l0.4-0.2l0.1-0.1h0.1l0.1,0l0.4-0.2l0.1-0.1l0,0
							l0.2-0.1l0.7-0.4c1.3-0.7,2.5-1.5,3.7-2.4c1.1-0.9,2.2-2,3.3-3.3l0.4-0.4l0.2-0.3l0.2-0.3l1.4-2.6l0.1-0.2l0.1-0.3v-0.1l0.1,0
							l0.1-0.2c0.6-1.5,1.1-3,1.3-4.6c0.2-1.6,0.3-3.1,0.1-4.6l-0.8-4.5v-0.2l-0.1,0v0l-0.1-0.5l-0.1-0.1l-0.1-0.1v0l-0.8-2.3
							c-0.5-1.2-1.1-2.3-1.7-3.4c-0.5-0.8-1.2-1.8-2-3l-1.4-1.7l-0.1-0.1l-0.1-0.1l-0.2-0.2l-0.8-0.9l-0.2-0.3l-1.3-1.3l-15.2-12.4
							l-0.6-0.7l-0.3-0.2l-0.1-0.1l-0.1-0.2l-0.4-0.4l-0.3-0.5l0.5,0.8c0.1,0.1,0.1,0.2,0,0.2l-1.2-1.2l-1-1.3l-0.3-0.3l-1.1-1.5
							l-0.1-0.3l-1.3-1.5c-1.2-1.8-2.1-3.2-2.7-4.1l-0.7-1.1l-0.1-0.4l-0.2-0.3l-4.5-7.9c-0.8-1.2-1.7-2.7-2.9-4.4l-4.1-5.5L140-2.9
							L139.8-3l-0.3-0.3c-0.6-0.6-1.5-1.4-2.7-2.3c-0.7-0.6-1.7-1.2-2.9-1.9c-1.1-0.6-2.1-1.2-3-1.6c-2-1-4-1.8-6.1-2.5l-9.8-2.6
							l-7.6-1.3c-3.4-0.4-6.5-0.6-9.5-0.6h-2.8c-0.2,0-0.5,0.1-0.9,0.1c-0.4,0-0.6,0-0.8,0l-2.7,0.1L84-15l-0.3,0.1l-5.5,1.2
							L78-13.7h-0.1l-0.1,0.1l-8.3,2.7l0.6-0.3l-9.7,4.3C58.1-5.6,55.8-4.2,53.5-2.7 M80.7-2.5L80.7-2.5l0.3,0l1.3-0.3h0.3l0.1,0
							c0.2,0,0.3,0,0.3,0l0.7-0.3L87-3.8c0.2-0.1,0.2-0.1-0.1-0.1c-0.5,0-0.7,0-0.8,0l3.6-0.7c0.8,0,1.2,0,1.3,0.1
							c0.1,0.1-0.2,0.2-0.9,0.3l2.1-0.2h0.7l0.3,0l1.9-0.1c2.3-0.1,4.8,0,7.7,0.2l7.5,1l0.1,0h0.2l0.3,0l0.4,0.1h0.1l0.2,0.1
							l3.1,0.6c0.6,0.1,1.4,0.3,2.5,0.6l4.8,1.5c1.4,0.5,2.8,1.1,4.4,1.9c1.5,0.8,2.7,1.6,3.7,2.4c0.5,0.4,1,0.8,1.5,1.3l0.1,0.2
							l0.1,0.1l0.1,0.1l4.1,4.7c0.5,0.6,1.3,1.7,2.4,3.3l2.1,3c1.1,1.8,2,3.3,2.7,4.7l-1.9-4.1c-0.1-0.3-0.2-0.5-0.3-0.6l-0.1-0.5
							c0.5,0.7,1.1,1.6,1.7,2.7l0.5,1l0.6,0.8c0,0.3,0.1,0.8,0.4,1.4l0.4,1l0.2,0.3v0.1h0.1v0.1l0.1,0.1l0.6,1.2l0.1,0.1l0,0.1
							l1.3,2.7c0.2,0.6,0.4,0.9,0.4,1l0.8,0.6l0.6,1.5c1.5,2.3,2.7,4.1,3.8,5.5l2.4,3.1l0.2,0.2l0.6,0.6l0.1,0.1l1.3,1.4l0.2,0.2
							l1.8,1.8l9,6.7c0.6,0.5,1.1,0.9,1.5,1.2c-0.1-0.1-0.1-0.1-0.1-0.2c-0.1-0.3,0.1-0.2,0.6,0.2c0,0.1,0.6,0.6,1.8,1.5l1.3,1
							l1.1,1.2l0.1,0.2l0.1,0l0.8,0.8l0.1,0.1l1.4,1.5c0.1,0.1,0.1,0.1,0.2,0l-0.1-0.3l0.9,2l0.1,0.1l0.1,0.1l0.1,0.4
							c0,0.1-0.1-0.1-0.4-0.5l1.1,2.5l0.1,0.1v0l0,0l-0.3-1.2l0.1,0.3l0.1,0.4l0.1,0.1l0.1,0.4v0l0.2,0.6v0.1l0.1,0.2l0.1,0v0.2
							c0.1,0.6,0.2,1.3,0.2,1.9l-0.4,2.8l0.1-0.1l0.1-0.1l0.1-0.2l0.2-0.5l-0.3,1.2h-0.1l-0.1,0.2l0,0.1v0.1l-0.1,0.1v0.1l-0.1,0.1
							l-0.3,0.4l-0.2,0.1l-0.2,0.2l-0.1,0.2l-0.2,0.1l-0.2,0.1l-0.3,0.1l0.3-0.3l0.1-0.1l0.1-0.1l0.1-0.2l0.1-0.1l0-0.1l0.2-0.4
							l-0.1,0.1l-0.1,0.1l-0.1,0.1v0.1l-0.1,0.2l-0.9,0.8l-0.1,0.1l-0.1,0.1l-0.4,0.3c-0.1,0.1-0.2,0.1-0.2,0.1l-0.8,0.6l-0.1,0
							l-0.1,0.1l-0.3,0.1l-0.1,0.1l-0.2,0l-0.2,0.1l-0.1,0l-0.2,0.1l-0.1,0.1l-0.2,0l-0.1,0.1l-0.3,0.1l-0.3,0.1l-2.3,0.9l1.4-0.4
							c-0.8,0.4-1.7,0.7-2.7,1L155,78.5l-0.9,0.3l-0.3,0.1l-1.1,0.4h-0.1l-0.1,0.1l-1.6,0.7l-0.1,0.1l-0.2,0.2l-0.5,0.2l-0.4,0.3
							l-0.2,0.2l-2,1.2c-1.1,0.8-2.3,1.7-3.4,2.8l-0.4,0.4l-0.7,0.8l-0.2,0.2l-0.8,1.1l-0.2,0.3c0,0.1-0.1,0.1-0.1,0.2l-0.1,0
							l-0.1,0.1l-0.1,0.2l-0.1,0.1l-0.1,0.1l-0.1,0.3l-0.1,0.1l-0.1,0.1l-0.8,1.4l-1.3,3.6l-0.4,1.7c-0.2,1-0.3,2-0.4,2.9v2.3
							l0.1,0.3v0.2l0.2,1.1c0.1-1,0.2-2,0.3-3c0,1.7,0.2,3.5,0.6,5.5l-1.2-2.4l-0.2-0.6c0.1,1.3,0.2,2.2,0.3,2.8l0.6,3.1l0.1,0.1
							v0.1l0.1,0.1v0.2l0.1,0.1v0.2l0.1,0.5l0.1,0.1l7.8,22.8c0.6,1.8,1.1,3.6,1.5,5.3c0.6,2.2,1,4,1.3,5.4l0.1,0.3v0.1l0.2,0.9v0.2
							l0,0.1l1.2,8.6l0.6,18.1c-0.1,1.5-0.2,2.1-0.4,1.8c-0.2-0.7-0.3-1.1-0.3-1.1c0.1,1.1,0.1,2.2,0.3,3.1l0.1,0.8l0.1,1.8
							c0,0.5-0.1,0.5-0.2,0.2c-0.1-0.2-0.1-0.6-0.1-1c0,0.3,0,1.1,0,2.3c0,0.7,0,1,0.1,1.1c0-0.8,0.1-1.3,0.3-1.4
							c0.3-0.3,0.5-0.5,0.5-0.6l-0.1,4.9l-0.3-0.3c0,0.2,0,0.5,0,0.9l0.2,1.4c0.2,1.5,0.2,3.2,0.1,5.3l0.9,25.6
							c-0.1-0.1-0.3-1.3-0.5-3.6c0.1,2.1,0.1,3.4,0.1,3.8c0.1-0.7,0.2-0.4,0.3,0.9c0.1,1.1,0.1,1.5,0.1,1.1c0.1,0.7,0.2,1.6,0.3,2.7
							l0.3,8.9c0,0.2-0.1,0.1-0.1-0.4l0.8,9.7c0,0.4-0.1,0.8-0.3,1.4c0,0.1,0.1,0.3,0.1,0.6l1.4,17.1l0.5,0.2l0.1,1.6l-0.1,0.6
							c-0.1,0.3-0.1,0.9,0.1,1.9c0.3,0.4,0.5,1.5,0.6,3.2l0.1,1.9c0.1,0.7,0.2,1.1,0.3,1.3c0,1,0,1.5-0.1,1.4
							c0.3,0.3,0.4,1.1,0.4,2.6c0.1,0.2,0.2,0,0.2-0.6l0.4,2.2c0,0.4,0,0.7-0.1,0.8c-0.1,0.1-0.2-0.1-0.3-0.6l3.9,36.8v1.8
							c0.1-0.2,0.2-0.6,0.3-1.4v-0.4l0.1-0.4l0.1-0.3l0.1-0.3c0.1,0.3,0.1,0.9,0.1,1.6c0,0.5,0,0.9,0.1,1l-0.3,0.3l-0.1,0.4
							l-0.1,0.1v0.1l-0.1,0.4v0.3l-0.1,0.4v0.1l-0.1,0.3l-0.1,0.3l-0.1,0.3l-0.1,0.3l-0.1,0.1l-0.3,0.3l0.3,0.4l-0.1,0.1l-0.1,0.1
							l-0.2,0.2l-0.4,1.3l-0.1,0.2l0,0.1l-0.1,0.1l-0.1,0.1l-0.1,0.2l-0.3,0.4l0.1-0.2l-0.2,0.2l-0.1,0.1h0v0.1h-0.1l-0.1,0
							l-0.1,0.1c0,0.1-0.1,0.1-0.3,0.3l-0.1,0H159l-0.1,0.1l-0.1,0.1l-0.1,0.1l-0.3,0.2l-0.4,0.3l-0.1,0.1l-0.2,0.1l-0.8,0.4l-0.1,0
							l-0.4,0.2l-0.2,0l-0.3,0.1v0h-0.3l0.1,0.1l0.1,0.1l-0.1,0l0,0h-0.1l-0.1,0h-0.3l-0.3,0.1l-1.2,0.2c-0.3,0.1-0.5,0.1-0.6,0
							l-1.9,0.2c-0.8,0.1-1.1,0.2-0.7,0.4l-0.6-0.1l-0.9-0.1c-0.3-0.1-0.5-0.1-0.5-0.1c0-0.1,0.1-0.1,0.5-0.1l-1.8-0.1l-0.5,0.1
							l0.6,0l0.3,0.1h0.1l0.1,0h-1c-0.2,0-0.5,0-0.9,0l-1.6-0.1c-1.1-0.1-2-0.1-2.7,0l1,0.3c-1-0.1-1.7-0.2-2.1-0.3l-0.8-0.2
							l-0.4-0.4h0.3l0.2,0.1h0.6l0.4,0l-1.7-0.3l-0.3-0.1h-0.2l-1.4-0.3h-0.1l-0.4-0.2l-0.3,0l-0.2,0h0l-0.1-0.1l-0.6-0.1l0.6,0.3
							l-0.3,0l-0.9-0.3l-1.8-0.9l-0.4-0.3l-0.1-0.1l-0.4-0.3l-1.3-1.4l-1.7-2.4l-0.3-0.6l-0.1-0.3l-0.1-0.1l-0.1-0.1l-0.2-0.5
							l-0.1-0.5l0,0v-0.1l-0.1-0.3V312l-0.1,0v-0.1l-0.9-4.5l-0.1-0.3l-0.3,1.4l-0.5-2.5c0,0.1,0.3,0.4,0.7,0.8
							c0.3,0.2,0.5,0.4,0.5,0.6c-0.3-3.7-0.4-6.2-0.5-7.5l-1.8-32c0-0.9,0.1-1.2,0.3-1c0.1,0.1,0.2,0.3,0.3,0.6
							c-0.1-0.8-0.2-1.4-0.3-1.8c-0.1-0.3-0.2-0.8-0.3-1.5c0-0.2,0-0.3,0.2-0.1c0.1,0.2,0.2,0.4,0.2,0.5c0-0.2,0-0.6-0.1-1.3
							c0-0.4,0-0.6-0.1-0.6c0,0.5-0.1,0.8-0.3,0.9c-0.3,0.2-0.4,0.3-0.4,0.4l-0.2-2.8l0.3,0.1c0-0.1-0.2-0.6-0.4-1.4
							c-0.3-0.8-0.4-1.8-0.4-2.9l-1.2-14.1c0.1,0,0.2,0.2,0.3,0.6l0.3,1.4l-0.1-1.1c-0.1-0.5-0.1-0.8-0.1-1.1
							c-0.1,0.4-0.2,0.3-0.3-0.4c-0.1-1-0.2-1.2-0.2-0.6l-0.6-1.9l0-0.4l-0.4-1.8c-0.1-0.6-0.2-1.1-0.3-1.4l-0.2-0.9l1.1-0.1
							l-0.3-1.1v-0.4l0.1,0.1v-0.3l-0.4-1.4c0,0.1,0,0.2-0.1,0.3c0,0-0.1,0-0.2-0.2l-0.3-0.9l-0.2-0.4l-0.1-0.4L120,230l-0.9-1.2
							l0,0v-0.1l-0.1-0.1l-0.2-0.2l-0.7-0.7c-0.5-0.5-1-0.9-1.5-1.3c-0.7-0.5-1.3-0.9-1.8-1.1l-1.1-0.5l-0.2-0.1l-0.1-0.1l-0.3-0.1
							l-0.1,0h0l-0.1-0.1l-0.2-0.1c-0.1,0-0.2-0.1-0.3-0.1h-0.1l0,0h-0.1l-0.1-0.1l-0.1-0.1l-2.4-0.5l-0.9-0.1l0,0
							c-0.5-0.1-1-0.1-1.4-0.1l0.1,0.1l0.3,0.1l-0.6-0.1h-0.2l-0.3-0.1h-0.5c-0.4,0-0.7,0-0.9-0.1l-5.1,0.1
							c-0.1-0.1-0.3-0.2-0.5-0.3c-0.3,0-0.4-0.1-0.5-0.1c0.1,0.1,0.1,0.1,0.1,0.2c0,0.1-0.1,0.1-0.2,0.1c-0.3,0-0.5,0-0.6,0.1
							c0,0.1-0.2,0.2-0.6,0.2l-8.3,0.3l-0.3,0.2h0v0.1l-0.1,0.1l-0.1,0.1l-0.2,0.1h0l-0.1,0.1l-0.3,0.1l-0.1,0.1l-0.5,0.1l-0.6,0.3
							l0.1-0.1l-1.2,0.6c-0.4,0.1-1,0.4-1.8,0.9c-0.8,0.5-1.3,0.9-1.7,1.2l-0.7,0.5l-0.3,0.4l0.2-0.1l-0.3,0.4l-0.2,0.1h0l-0.1,0.1
							l-0.5,0.1l-0.1,0.1h0l-0.1,0.1c0.2,0.1,0.3,0.3,0.3,0.5l-0.1,0.1v0.1l-0.2,0.4l-0.1-0.1l0,0.2l-0.1,0.2l-0.6,1.6l-0.2-0.1
							l-0.2,0.5l-0.7,1.5c-0.1,0.3-0.4,0.9-0.8,1.7c-0.3,0.8-0.4,1.6-0.3,2.2l-0.3,0.3l-0.1,0.1l-0.1,0.1l-0.3,0.5v0.1h0v0.1h0.9
							c0,0.5-0.1,1.2-0.2,2h-0.1c-0.1,0.6-0.1,1.3-0.1,2.3l0.2,2c0.1,0.6,0.2,1.2,0.2,1.9c0,0.6,0,1.3-0.1,2.2l-0.1-0.4
							c0,0.1-0.1,0.9-0.2,2.3l-0.2,2.9c0.1-0.3,0.1-0.5,0.2-0.6c0.1,0,0.1,0.2,0.1,0.8c0,0.2-0.1,1.2-0.2,2.9c0,0.8-0.1,1.7-0.3,2.5
							l0.3,1.6l-3.2,46.8v-0.3l-0.6,3.5l-0.1,0v0.1l-0.1,0.2v0l0,0.1l-0.1,0.3l-0.4,1.3l0,0.1l-0.7,1.7l-0.2,0.2l0,0.1l-0.4,0.7
							l-0.1,0.1l-0.3,0.5l-0.2,0.2l-0.1,0.1l0,0.1l-0.3,0.4v0l-0.1,0.1l-0.1,0.1l-0.1,0.1l0.1-0.1l-0.1,0.1l-0.2,0.1l-0.5,0.5
							l-0.6,0.5l-0.1,0.1l-0.1,0l-0.1,0.1h-0.1l0,0l-0.5,0.3l-0.3,0.1l-0.3,0.2l-0.2,0l-0.3,0.2l-1.8,0.7h-0.2l-0.3,0.1h-0.1v0
							l-0.7,0.2h0l-0.2,0l-1.7,0.3c-0.9,0.1-1.9,0.2-3,0.3c-1,0.1-2.1,0.2-3.2,0.2l-0.8,0l-8-0.3l-0.3,0h-0.2l-0.1-0.1h-0.3l-0.2,0
							h-0.1l-0.3-0.1l-2-0.5l-0.2-0.1l-0.2-0.1l-0.2-0.2l-0.2-0.1l-0.7-0.6l-0.7-0.7v-0.1l-0.2-0.2l0-0.1l0-0.1
							c0.1,0.2,0.1,0.3,0,0.3l-0.2-0.1l-0.2-0.2l-0.2-0.4l-0.1-0.1l-0.3-0.5V318l0,0l-0.1-0.2c0-0.1-0.1-0.2-0.2-0.3l-0.1,0
							l-0.1-0.2c-0.2-0.4-0.4-1.1-0.6-1.9l0-0.1l0-0.1l0-0.3l0-0.1v-0.1l-0.1-0.3v-0.1l0-0.1v-0.3l-0.1-1.2c-0.1-1.2-0.1-2.7,0-4.5
							l0.2-2.7v-0.4l1-9c1.3-11.4,2.1-18.2,2.3-20.4l0.5-11.2l0,0.4l1-14c0.2-1.5,0.3-3.1,0.3-4.6l0.3-9.9l-0.1,0.6
							c-0.1-1.4,0-2.6,0.1-3.4c0.2-1.4,0.4-2.3,0.4-2.8c-0.2,0.2-0.4-0.3-0.5-1.4c-0.1-0.8-0.2-1.7-0.2-2.6l0.1,0l-0.2-4
							c-0.1-1.6-0.2-3.3-0.2-4.9l0.3,0.1l0.3-17.5L45,193l0.4-3.6l-0.1-0.6l-0.3-0.2l-0.8-0.6c-1-0.6-1.8-1-2.3-1.2
							c-1-0.3-1.8-0.3-2.4,0.2c-0.4,0.3-0.8,0.6-1.1,1.1c-0.4,0.7-0.7,1.4-1,2.1l-0.2-0.1l-0.3,3.4c0,0.4,0,0.5-0.1,0.5l0.2-2.1
							c-0.1,0.5-0.1,0.7-0.1,0.6c0-0.1,0-0.3,0-0.4l0.6-3.5c-0.1,0.3-0.2,0.9-0.3,1.7l-0.3,1.8c0-0.2,0-0.3,0-0.4l-0.3,2
							c0,0.1,0-0.1,0.2-0.5v1.6c0,0.8,0,1.3-0.1,1.7c-0.1,0.6-0.2,0.9-0.3,1c-0.1,0.1-0.2,0.5-0.3,1.2l-2.5,32.2
							c-0.1,0.2-0.1,0-0.1-0.4l-0.3,5.9h-0.3c-1.1,0-2,0-2.7-0.2l0.3-0.1l-0.7-0.2l-1.8-0.1l-0.9-0.2c0.2,0.1,0.3,0.2,0.3,0.3
							c0,0.1-0.1,0.1-0.4,0.1l-1.8-0.3h-0.2l-1.3-0.4l-1,0.1l-1.4-0.3h-0.3l-0.7-0.2c-1.6-0.4-2.7-0.7-3.3-0.9l-0.4-0.1l-0.6-0.2h0
							v-0.1h-0.1l-0.7-0.3H15l-0.2,0l-1.3-0.6l-3.2-1.9c-0.6-0.5-1-0.9-1.4-1.2l-2.4-2.6l-0.8-1.2c-0.4-0.8-0.7-1.6-1-2.4
							c-0.2-0.6-0.3-1.2-0.4-2l0.1,0.1l-0.3-1.3l-0.2-3.2v-0.2l0-0.2L4,211c0.1-2,0.2-3.5,0.3-4.4l0.2-1.1v-0.3l0.2-1.3v-0.3
							l0.4-1.6v-0.2l0.1-0.3l2.4-10.7c0.1-0.2,0.6-1.6,1.4-4.2c-0.2,0.3-0.3,0.5-0.4,0.4c0-0.1,0-0.3,0.1-0.6
							c0.3-1.3,0.5-2.1,0.5-2.2c-0.1-0.1,0-0.8,0.3-2.3l1-3.8l0.1-0.1v-0.1l0.4-1.4c0.7-2.5,1.6-4.9,2.6-7.4c0.9-2.1,2-4.5,3.3-7
							l2.5-4.5c0.1-0.3,0.2-0.6,0.3-0.8l2.9-5.6v0.3c0-0.1,0.3-0.5,0.6-1.2l9.5-14.1l-0.3,0.3c0.4-0.8,0.8-1.4,1.2-1.8
							c0.7-0.7,1.1-1.2,1.3-1.4c-0.2,0-0.2-0.4,0-1.1c0.2-0.5,0.5-1,0.8-1.6l0,0.1l2.5-5.7l0.2,0.3l1.3-3c0.5-1,0.8-1.9,1.1-2.8
							l1.6-4.4l0-0.4l0.1-0.4l0.3-1.6l0.1-3.5l-0.3-1.8v-0.4l-0.2-1.2c0-0.3-0.1-0.7-0.2-1l0-0.4l0-0.2l0,0.3v0.1
							c0-0.1-0.1-0.1-0.1-0.2L42,98.9c-0.1-1-0.1-1.7,0-2c0.1-0.1,0.1-0.2,0.1-0.5v-0.5l-0.1-0.2v-0.2l-5.9-30.4c-0.3-2-0.7-4.4-1-7
							l-0.4-8l0.2-2.4v-0.4l0.1-0.8l0.1-0.2V46l1.6-8.1c0.1-0.1,0.1-0.1,0.1,0l1.7-5.9l0-0.3l0.1,0l0-0.1l0.2-0.6l0-0.1l0-0.2
							l0.2-0.4v0l0,0l0-0.1l0-0.2l0.5-1.3l0.2-0.4l2-4l0.7-0.9l0.2-0.2c0.2-0.2,0.4-0.4,0.5-0.5c-0.1,0,0-0.1,0-0.2l0.4-0.6
							c0.3-0.5,0.9-1.3,1.8-2.4c0.8-1,1.8-2.1,2.8-3.3l7.5-6.5l0.1-0.1h0l0.1-0.1l8.3-5.3l0.1-0.5l2.4-1.2c0.1-0.1,0.4-0.2,0.8-0.2
							c0.3,0,1.3-0.4,3-1.2c0.8-0.7,2.4-1.3,4.8-2c0.5-0.2,1.4-0.4,2.8-0.8C79.7-2.2,80.4-2.4,80.7-2.5 M162.7,146l0.9,1.1l0.4-0.2
							c0.4,0.6,0.6,1,0.6,1.2c0,0.2,0.2,0.5,0.6,1l0.6,0.6l1.3,1.9l0.3,0.3l0.3,0.2c0.3,0.5,0.4,0.8,0.3,0.9c0.3,0,0.6,0.4,1.1,1.2
							c0.1,0,0.1,0,0-0.1c-0.1-0.1-0.1-0.2-0.1-0.3l0.9,1.1c0.1,0.3,0.2,0.4,0.2,0.5c-0.1,0-0.2-0.1-0.4-0.3l7,11.3l4.3,8.6l0.3,0.8
							v-0.4L181,175v-0.2l-0.1-0.1c-0.2-0.4-0.2-0.7-0.2-1c0.2,0.2,0.3,0.5,0.6,0.9c0.2,0.4,0.3,0.6,0.3,0.7
							c-0.2,0.2-0.1,0.6,0.2,1.3v0.1l0,0.1v0.1l0.1,0.2l0.1,0.5c0,0.3,0,0.5,0,0.8l0.4,0.1l0.1,0.6l1.2,2.4l0.8,2.3
							c0.2,0.6,0.7,1.5,1.3,2.5c0.4,0.7,0.6,1.3,0.7,1.8c0-0.1,0-0.2,0.1-0.3c0-0.1,0.1-0.1,0.3,0.1c-0.1,0.1,0,0.4,0.3,0.9
							c0.2,0.5,0.3,0.8,0.3,1c0.5,1.4,0.9,1.9,1,1.6c0,0.1,0,0.5,0.1,1.1c0,0.4,0,0.4-0.2,0.1c0.3,0.9,0.4,1.4,0.6,1.5l-0.2-0.8
							c0.1,0.1,0.3,0.9,0.8,2.4l0.4,0.9l0.5,0.8l-0.2-0.8l0.6,1.4c0.1,0.5,0.2,0.9,0.1,1.1l-0.6-1.1l0.9,2.1l0,0.1l0.8,1.7l-0.1-0.5
							l0.9,2.4c0.4,1.1,0.8,2.4,1.2,4.2l1.2,5.1l0.1,0.4l0.1,0.3v0.2l0.1,0.1l0.1,0.7l0.3-0.9l0.4,1.4c0,0-0.2-0.2-0.6-0.4l-0.4-0.3
							l0.1,0.9l0.1,0.3v3.1c0,1.1-0.1,2.1-0.4,2.9c-0.2,1-0.6,1.9-0.9,2.7l-0.3,0.6l-0.1,0.1l-0.1,0.2l-0.3,0.4l-0.6,0.6l0,0.1
							l-0.5,0.6c-0.6,0.7-1.3,1.4-2.1,2.1c-0.7,0.6-1.3,1.1-1.9,1.4l-1.4,0.7c-0.4,0.2-0.6,0.1-0.6-0.1l0.2-0.4
							c-0.2,0.1-0.4,0.3-0.5,0.4l-0.2,0.1l-0.2,0.3h-0.1l-0.4,0.2c-0.3,0.1-0.2-0.1,0.1-0.4l-0.4,0.2l-0.1,0.1l-0.1,0.1h-0.2
							l-0.2,0.2c0.2,0,0.4,0,0.5,0.2l0.1,0.2l0.1,0.1h0.1l-1.5,0.6l0.1-0.3l-0.7,0.6l-0.6,0.4l-0.4,0.2l-0.6,0.1
							c-2.5,0.6-3.9,0.9-4.1,1l-4.3,0.8c0-0.1,0.1-0.2,0.4-0.3l0.4-0.1l0.4-0.1l-1.3,0.1c0.3,0.1,0.2,0.1-0.3,0.3
							c-0.4,0.1-0.5,0.1-0.4,0.1l-0.8,0.3l-2.7,0.5c-0.9,0.1-1.7,0.2-2.3,0.3l-0.4-3.8v0.5c0-0.1,0-0.2-0.1-0.3
							c-0.1-1.7-0.1-3.1,0-4l0,0.1c0-1.1,0-2.5,0-4.3l-0.3-3.7c-0.3-3.1-0.5-5.7-0.4-7.6l0.1,0.6c0-0.6-0.1-2-0.1-4.3
							c-0.1-2.1-0.2-3.8-0.2-5.1c0,0.4-0.1,0.6-0.1,0.7c-0.1,0.1-0.2-0.4-0.3-1.4c0-0.4-0.1-2.3-0.2-5.6l0-4.7l-0.1-0.6v-0.2l0-0.1
							v-0.1l-0.1-0.4v-0.1l0-0.1v-0.1l-0.1-1.1l0.2-12.3c0.1-1.8,0.1-3.7,0-5.7l-0.2-12.8c-0.1-3.1-0.3-5.5-0.4-7
							c-0.3-3.2-0.5-5.6-0.8-7.3L162.7,146 M108.3,235L108.3,235L108.3,235L108.3,235z"/>
					</g>
				</g>
			</g>
		</g>
	</g>
</g>
</svg>
