<?xml version="1.0" encoding="utf-8"?>
<!-- Generator: Adobe Illustrator 24.1.2, SVG Export Plug-In . SVG Version: 6.00 Build 0)  -->
<svg version="1.1" id="Layer_1" xmlns="http://www.w3.org/2000/svg" xmlns:xlink="http://www.w3.org/1999/xlink" x="0px" y="0px"
	 viewBox="0 0 256 256" style="enable-background:new 0 0 256 256;" xml:space="preserve">
<style type="text/css">
	.st0{fill:#FFFFFF;}
</style>
<g id="idle4">
	<g transform="matrix( 0.6996917724609375, 0, 0, 0.6996917724609375, 57.25,20.7) ">
		<g id="idle">
			<g transform="matrix( 1, 0, 0, 1, 0,0) ">
				<g>
					<g id="idle_3_Layer0_0_FILL">
						<path class="st0" d="M60.5-5.2c-2.4,1.3-4.7,2.6-7,4.1l-3.6,2.4l-0.4,0.3l-0.2,0l-0.1,0.1l-1.5,1.1l-0.1,0.1h0L47.4,3
							l-0.3,0.2l-0.9,0.7c-2.3,1.8-4.6,3.9-6.8,6.1c-2,2.1-3.8,4.3-5.5,6.6c-1.3,1.8-2.5,3.8-3.7,6l-1.6,3.5l-0.2,0.3l0.3-0.5
							l-1,2.6v0l0,0.1v0.1l-3,8.6c0.1-0.1,0.2,0.1,0.2,0.6l-1,7.3l-0.1-0.1l-0.4,7.6l1,10.2l-0.3-0.2c0.3,1.6,0.9,4.6,1.6,9L29.1,86
							c0.1,0.4,0.6,2.8,1.6,7.2l3.1,14.8l0,0.3v0.4l0.4,3.9v0.4l0.1,0.4l0.1,0.8l0.1,0.3l-0.8,2.3c-0.6,1.6-1.3,3-2.1,4.4l-5.2,8.8
							c-0.1,0.1-0.1,0,0-0.3l-3.2,5.1c-0.2,0.3-0.5,0.5-0.8,0.6c0.1,0-0.2,0.4-0.8,1.4l-5.3,8.4l0.3,0.4c-0.4,0.7-0.8,1-0.9,1.1
							c-0.2,0.1-0.5,0.5-0.8,1.1c0,0.4-0.3,1-0.9,1.9c-0.6,1.1-1,1.7-1,1.9c-0.3,0.6-0.6,0.8-0.7,0.7v0.4l-0.2,0.3
							c-0.1,0.2-0.3,0.4-0.4,0.8c0,0.1,0,0.1,0.1,0.1c0.1-0.1,0.2-0.2,0.2-0.3l-0.6,1.3c-0.2,0.3-0.3,0.4-0.4,0.4
							c-0.1,0-0.1-0.1,0.1-0.4l-6.6,13.9l-0.8,2l0,0.3l-2.4,7.6v0.1l-0.2,1.2c0.1-0.1,0.2-0.5,0.4-1.1v-0.1l0.1-0.2l0.1-0.3
							c0.2-0.3,0.3-0.4,0.3-0.4l-0.1,0.8v0.2l-0.1,0.1v0.1l-0.1,0.2c-0.1,0.5-0.1,0.7-0.1,0.8c-0.2,0.1-0.4,0.5-0.7,1.3
							c-0.3,0.8-0.5,1.4-0.8,1.6l0.2,0.4l-0.3,0.4l-0.5,2.8c-0.3,0.8-0.5,1.5-0.7,2.3c-0.2,0.8-0.4,1.7-0.5,2.8
							c-0.2,0.8-0.3,1.5-0.4,1.9c0-0.1,0.1-0.2,0.1-0.2c0.1-0.1,0.1,0,0.1,0.3c-0.1,0-0.2,0.3-0.3,0.8c-0.1,0.6-0.2,0.9-0.3,1
							c-0.4,1.6-0.4,2.3-0.1,2c-0.6,1.3-0.8,1.6-0.7,0.9c-0.3,0.7-0.4,1.3-0.4,1.6l0.4-0.8c-0.2,0.7-0.4,1.4-0.7,2.3l-0.2,0.4v0.2
							l-0.1,0.1l0,0.3v0.1l-0.1,0.1l-0.2,1l0.5-0.9l-0.5,1.9l-0.3,0.6c0,0.2-0.1,0.3-0.3,0.5L-5,204l-0.5,4.1v1.3l0.1-0.6l0.2,13.1
							c0.1,1.4,0.3,2.5,0.6,3.3l0.2-1.1l0.5,1.9l-0.6-0.5c-0.3-0.2-0.5-0.4-0.5-0.4l0.8,3.9l0.6,1.9c0.5,1.5,1.2,2.9,2,4.4l1.6,2.3
							l0.2,0.2l0.5,0.6l0,0.1l0.8,0.8c1.1,1.2,2.4,2.3,3.7,3.3c1.2,0.8,2.4,1.6,3.8,2.4c1.1,0.6,2.2,1.1,3.3,1.5l0.8,0.3h0
							c0,0,0.1,0,0.1,0h0.1l0.6,0.3h0.1l0.1,0.1l0.2,0.1c0.4,0.1,0.6,0.3,0.6,0.3c0.1,0.1,0.1,0.1,0,0.2l-0.6,0.1
							c0.3,0.1,0.7,0.1,1,0.1H16c0.2,0,0.5,0.1,1.1,0.2c0.2,0,0.2,0.1,0,0.1l-0.4,0.1l0.9,0.2c0.3,0.1,0.4,0.1,0.5,0
							c-0.3-0.1-0.5-0.2-0.6-0.4c-0.1-0.3-0.1-0.5-0.1-0.5l2,0.4l-0.1,0.3c0.2,0,0.5,0,1-0.1c0.6-0.1,1.3-0.1,2,0.1
							c1.1,0.2,2.7,0.4,4.9,0.5l4.8,0.3c0,0.1-0.5,0.2-1.3,0.3c0.3,0,0.7,0.1,1.3,0.2l-0.6,9.1l0.5,0.3c-0.1,1.1-0.2,1.8-0.4,2.1
							c-0.2,0.2-0.3,0.8-0.3,1.8c0.2,0.4,0.2,1.5,0,3.1c-0.2,1.7-0.3,2.6-0.3,2.9c-0.1,0.9-0.3,1.4-0.4,1.3c0.1,0.2,0.2,0.6,0.1,1.1
							c-0.1,0.7-0.1,1.2-0.1,1.4c0,0.2,0.1,0.1,0.3-0.5l-0.1,2.1c-0.1,0.4-0.2,0.7-0.3,0.7c-0.1,0-0.1-0.2-0.1-0.6l-3.3,27.7v0.3
							l0,0.2l-0.1,1v0.4l-0.1,0.7l-0.3,7l0,1.3l0.1,0.3l0.3-3l0.3-0.8l0.1,1.1l0,0.9c0,0.7,0.1,1.1,0.1,1.4c-0.1,0.1-0.2,0.5-0.3,1
							l0.3,4.3l-0.1,0.8l0.1,0.1l0.1,0.2l0.3,0.3v1.1l1.1,2.8l0.1,0.3l0.1,0.3l0.8,1.4l0.1,0.2l2,3l0.4,0.4l0.1,0.2l0,0l0.2,0.3h0
							l0.2,0.1l0.1,0.2l1,0.9c1,0.8,2,1.5,3.1,2c0.8,0.4,1.6,0.8,2.5,1.1l2,0.6l0.5,0.1l1.4,0.4l-0.7-0.3c-0.2-0.2-0.1-0.2,0.5-0.1
							c0.1,0.1,0.3,0.2,0.5,0.3l0.2,0.1l0.5,0.1l0.8,0.1l0.1,0l0.8,0.1l0.3,0l0.5,0.1l2.4,0.1c1,0,1.3-0.1,0.8-0.3l0.7,0.2l1.5,0.3
							c0,0.1-0.2,0.1-0.5,0.1c1.2,0.1,2.1,0.1,2.5,0l-1.2-0.1l3.8,0.1c1.2,0.1,2.2,0,3.1-0.3l-1.2-0.1c0.6,0,1.5-0.1,2.6-0.1
							c0.8,0,1.4,0.1,1.8,0.3l3.3-0.4l0.5-0.2h0.2c0.1,0,0.1,0,0.1,0h0.1l0.2,0l0.4-0.2l0.3,0l0.8-0.3l0,0h0.1l0.5-0.2l-0.5,0.1
							l-0.3,0.1l0.2-0.1l0.2-0.1l1.5-0.6c1-0.4,2.1-0.9,3.2-1.5l3.6-2.6l2.2-2.2l0.1-0.1H80l0,0l0.1-0.1l0.2-0.1l0.1-0.3l0.3-0.3
							l0.1-0.1l0.3-0.4c0.9-1.3,1.7-2.6,2.3-4.1c0.4-0.9,0.7-1.5,0.8-1.9l0.8-2.6L85,316l0.1-0.2c0,0,0,0,0-0.1v-0.1l0.3-1.4
							c0.1-0.8,0.2-1.4,0.2-1.9l-0.7,1.4l0.2-2.8c0,0.2,0.2,0.5,0.5,0.9c0.2,0.4,0.3,0.6,0.3,0.8c0.2-0.9,0.4-2,0.5-3.1l2.9-35.2
							c0.1-0.8,0.3-1.1,0.4-0.9c0.1,0.1,0.2,0.3,0.3,0.6c0-0.8-0.1-1.4-0.2-1.7c-0.1-0.3-0.1-0.8-0.1-1.5c0-0.2,0.1-0.3,0.2-0.1
							c0.1,0.2,0.1,0.3,0.1,0.5c0-0.1,0-0.5,0.1-1.1c0-0.4,0-0.6-0.1-0.6c-0.1,0.4-0.2,0.7-0.4,0.8c-0.3,0.1-0.4,0.2-0.5,0.3
							l0.2-2.7l0.3,0.1c-0.1-0.5-0.3-0.9-0.4-1.3c-0.2-1.1-0.2-2-0.1-2.8l0.3-13.6c0.1,0.1,0.2,0.7,0.3,1.9c0-1,0-1.7,0.1-2.1
							c-0.1,0.5-0.2,0.4-0.2-0.4l-0.1-0.7c0-0.1,0-0.1,0,0.1c-0.1-0.8-0.2-1.6-0.2-2.6l0-5.9l-0.3-1.3l0.6-0.5h-0.1l0.3-0.3l0,0.1
							H90v-0.1l0.1-0.1l0-0.1l0.1-0.1l0.1-0.1l0.1-0.1l0.3,0.3c-0.1-0.1,0-0.3,0.3-0.5l0.5-0.3l-0.2-0.4c0,0,0.1,0,0.2,0.1l0.1,0.1
							l0.1,0.2h0.1c-0.1-0.3,0-0.4,0.1-0.3h0.2l0.1-0.1l0.1,0.1h0.1l0.1,0.1c0-0.1,0-0.2,0.1-0.2h0.2v0l-0.1-0.2v0l0.1-0.1v-0.1
							c0.2,0.2,0.2,0.3,0.1,0.4l4.1,0.1l0.2-0.1l-0.1-0.1l-0.1-0.1l-0.1-0.1l-0.2-0.1l0-0.1l-0.1-0.1h0.2v-0.1h-0.1l0-0.1h0.2
							c0.1,0.1,0.1,0,0.1-0.1c0,0.2,0.1,0.3,0.3,0.4c0.2,0,0.4,0.2,0.4,0.4l0-0.4l0.2,0.3c0.4-0.1,0.6-0.2,0.7-0.1l0.6,0.1
							c0.2,0,0.4-0.1,0.6-0.2c0.2-0.1,0.4-0.2,0.5-0.1c0,0,0,0,0-0.1c0-0.1,0-0.2,0-0.2c0,0.1,0.1,0.1,0.2,0c0.2-0.1,0.3,0,0.3,0.1
							c0.1,0,0.2,0,0.3-0.1c0.1,0,0.2-0.1,0.2-0.3c0,0,0.1,0.1,0.2,0.3c0.1,0.1,0.1,0.2,0,0.3c0.2,0.1,0.3,0.1,0.4,0l-0.2-0.1
							c0.1,0,0.3,0,0.6,0.1c0.2,0,0.3,0,0.4-0.2l-0.2-0.2h0.2l0,0.1h0.2l0.1,0.1c0.1,0,0.2,0.1,0.2,0.3l-0.3,0.1h0.6l0.6-0.2h-0.2
							c0.1-0.1,0.5-0.2,1.1-0.4l0.9-0.2h0.1l0.1-0.1h0.2v-0.1l0-0.6l0.1-0.1v-0.4l0.1-0.6l0.2-2l0.1-0.1v-0.3l0.2-0.9l-0.4,4.9
							c0.4-0.1,0.6-0.2,0.8-0.4l-0.2-0.4l0.3-0.2c0,0.1-0.1,0.3-0.1,0.5c-0.1,0.2-0.1,0.3-0.2,0.4l1.4,0.2h0
							c-0.1,0.1-0.1,0.2-0.1,0.3l0.1,0.4l1.1-0.1l0.2,0.1v0.1c-0.1,0.2-0.1,0.3-0.2,0.3l-0.2,0.1l0.3-0.1l-0.1,0.1h-0.1l0.1,0.1
							h-0.1v0.1l0.1,0.1c0.1,0.1,0.1,0.1,0.1,0.1c0-0.1,0-0.2,0.2-0.4c0.2-0.2,0.3-0.3,0.3-0.4l0.1,0.1l0.1,0.1v0.1l-0.2,0.1
							l0.3-0.1l0.2-0.1c0.1-0.1,0.1-0.1,0.1,0.1v0.1l0.1,0.1v0.1l0.1,0l0.1,0.3h-0.3l-0.1,0.1l0.3-0.1c0,0,0.1,0,0.1,0l0.2,0.1
							l0.1,0.1l0.6,0.5v0.1l-0.3,6.6l-0.1-0.4v3.9c0.1,0.4,0.1,0.8,0,1.1c0-0.1,0.1-0.1,0.2-0.2c0,0,0.1,0,0.1,0.1l0.1,0.6l0,0.9
							l0.1,2.3c0.1,1.2,0.1,2.1,0,2.6l0.5,1.6c0.4,5.5,0.6,8.8,0.7,9.9l2.7,39l-0.1-0.3l0.6,5.6v0.2l0,0.2l0.1,0.8l0.1,0.4l0.1,0.7
							l0,0.2l0.1,0.5l0.1,0.1v0.1l0.1,0.3l0,0.3v0.1l0.1,0v0.1l0.2,0.7l0,0.2l0.1,0v0.1l0.2,0.5l0,0l0.6,1.8l0.3,0.6
							c0.2,0.6,0.6,1.2,1,2l3.2,4.4l0.4,0.4l0,0.1l2.5,2.3l2,1.5l0.6,0.3l0.3,0.2l1.3,0.7l0.1,0.1l0.1,0.1l0.6,0.3l0.3,0.1l1.6,0.7
							l3.6,1h0.2v0h0.1l3.8,0.6h0.3l0.3,0.1c1.8,0.1,3.1,0.2,3.9,0.2h7.2c0.7-0.1,1.3-0.1,1.7-0.1l2.9-0.3l0.2,0h0.2l0.4-0.1
							l0.8-0.1l0.2,0l0.1-0.1h0.1l0.8-0.1l0.1,0c-0.1,0,0,0,0.2,0v-0.1h0l4.4-1.3c0.9-0.4,1.7-0.7,2.3-1.1c0.7-0.4,1.4-0.9,2.3-1.5
							l1.8-1.6h-0.1l-0.4,0.4c-0.2,0.1-0.3,0.1-0.3,0l0.3-0.4l0.2-0.2v-0.1l0,0l0.2-0.3l0-0.1h0.1l0.1-0.1l0.2-0.2l0.4-0.5l0.1-0.2
							l0.4-0.5l1.2-2l0.1-0.4l0.2-0.9l0.4-0.9l1-3.6l0.3-2.1l0-0.1V316l0.1-0.7l0.1-1.3l0.1-0.4l-0.1-5.3c-0.1-1.8-0.3-3.9-0.6-6.5
							l-0.9-6.6c-1-7.7-1.7-14.6-2.3-20.8l-1.6-11.4l0.1,0.4c-0.1-0.6-0.3-2.4-0.6-5.4l-0.8-7.9l1.1-0.1c0.5-0.1,0.9-0.2,1.3-0.2
							l0.8-0.1c0.3,0,0.6,0,0.8,0l-0.3,0.2c0.6,0,1.9-0.1,3.9-0.4l-0.5-0.1c0-0.1,0.2-0.2,0.6-0.3l4.1-0.5l1.1-0.5l4-1.1l0.5-0.2
							l0.3-0.1l1.1-0.4h0.1l0.1,0l0.3-0.1l1.6-0.7l0.3-0.2l1.7-0.8l0.3-0.3c0.8-0.4,1.7-0.9,2.7-1.6c0.9-0.6,1.8-1.3,2.6-2l4.1-4.4
							v-0.1l0.1-0.1l1.6-2.4l0.3-0.6l0.3-0.3l1.3-3.2l0.7-2.9c0.3-1.7,0.4-3.3,0.4-4.8l-0.1-3.3l0.1,0.3l-0.1-0.4V218l-0.2-1.2v-0.3
							l-0.1-0.3V216l0-0.2v-0.1l-1.9-10.4l-1.8-6l0-0.1v-0.1L200,199l-5.6-13.2c-0.1-0.4-0.5-1.8-1.3-4.3c0.1,0.4,0.1,0.5,0,0.5
							c-0.1,0-0.2-0.1-0.3-0.4c-0.3-1-0.6-1.7-0.9-2.1c-0.1-0.1-0.5-0.7-1-2l-1.3-3.4l-0.1-0.2l-3.4-7.4l-5.2-9.5
							c-0.9-1.6-1.8-3.1-2.8-4.7l-3.4-4.6c-0.4-0.6-0.8-1-1.1-1.4l0.2,0.2l-2.6-3.5l-0.2-0.3l-8.7-11.3l0.2,0.3
							c-0.6-0.6-1-1.1-1.3-1.6c-0.4-0.8-0.6-1.4-0.8-1.6c-0.1,0.2-0.4,0-0.9-0.4l-1.2-1.2l0.1-0.1l-1.3-1.6l-6.3-18.4l-0.1-0.1v-0.1
							l-0.1-0.1v-0.1l-0.1-0.1v-0.1l-0.1-0.1l-0.1-0.9l0.1,0.4c-0.2-1.2-0.4-2.3-0.4-3.4l0.1-1.9l0.3-1.4v-0.1l0.1-0.1l0.3-0.9
							l0.5-1l0.1-0.2l0.1-0.2l0.1-0.1l0.1-0.1l0.1-0.2v-0.1l0.1,0l0.1-0.2l0-0.1l0.1-0.1l0.3-0.3l0.1-0.1l0.3-0.3l1.5-1.2l1.8-1
							l0.3-0.1l0.1-0.1h0.1l0.1,0l0.2-0.1l0.2,0l0.1-0.1h0.1l0.6-0.3l12.3-3.3c0.7-0.2,1.8-0.5,3.3-0.9l5.2-1.8h0l0.1-0.1l0.4-0.1
							l0.1-0.1h0.1l0.1,0l0.4-0.2l0.1-0.1l0,0l0.2-0.1l0.7-0.4c1.3-0.7,2.5-1.5,3.7-2.4c1.1-0.9,2.2-2,3.3-3.3l0.4-0.4l0.2-0.3
							l0.2-0.3l1.3-2.2l0.1-0.4l0.1-0.1l0.1-0.3v-0.1l0.1,0l0.1-0.2c0.6-1.5,1.1-3,1.3-4.6c0.2-1.6,0.3-3.1,0.1-4.6l-0.8-4.5v-0.1
							l-0.1,0v-0.1l-0.1-0.5l-0.1-0.1l-0.1-0.2v0l-0.8-2.3c-0.5-1.2-1.1-2.3-1.7-3.4c-0.5-0.8-1.2-1.8-2-3l-1.4-1.7l-0.1-0.1l-0.1,0
							l-0.2-0.2l-1.4-1.5l-16.9-14l-0.1-0.1l-0.1-0.1l-0.4-0.4l-0.3-0.5l0.5,0.8c0.1,0.1,0.1,0.2,0,0.2l-0.3-0.3l-1.8-2.2l-0.3-0.3
							l-1.1-1.5l-0.1-0.3l-1.3-1.5c-1.2-1.8-2.1-3.2-2.7-4.1l-0.7-1.1l-0.1-0.4l-0.2-0.3l-4.5-7.9c-0.8-1.2-1.7-2.7-2.9-4.4
							l-4.1-5.5L140-1.3l-0.2-0.2l-0.3-0.3c-0.6-0.6-1.5-1.4-2.7-2.3c-0.7-0.6-1.7-1.2-2.9-1.9c-1.1-0.6-2.1-1.2-3-1.6
							c-2-1-4-1.8-6.1-2.5L114.2-13l-6.9-1.1c-3.4-0.4-6.5-0.6-9.5-0.6h-2.8c-0.2,0-0.5,0.1-0.9,0.1c-0.4,0-0.6,0-0.8,0.1l-2.7,0.1
							l-6.5,1l-0.3,0.1l-5.5,1.2l-0.1,0h-0.1L77.8-12l-8.3,2.7l0.6-0.3L60.5-5.2 M80.7-1L80.7-1L81-1l1.3-0.3h0.3l0.1-0.1
							c0.2,0,0.3,0,0.3,0.1l0.7-0.3L87-2.2c0.2-0.1,0.2-0.1-0.1-0.1c-0.5,0-0.7,0-0.8,0l3.6-0.6c0.8,0,1.2,0,1.3,0.1
							c0.1,0.1-0.2,0.1-0.9,0.3l2.1-0.2h0.7l0.3,0l1.9,0c2.3-0.1,4.8,0,7.7,0.2l7.5,0.9l0.1,0h0.2l0.3,0.1l0.4,0.1h0.1l0.2,0
							l3.1,0.6c0.6,0.1,1.4,0.3,2.5,0.6l4.8,1.5c1.5,0.6,2.9,1.2,4.4,1.9c1.5,0.8,2.7,1.6,3.7,2.4c0.5,0.4,1,0.8,1.5,1.3l0.1,0.1
							l0.1,0.1l0.1,0.2L136,12c0.5,0.6,1.3,1.7,2.4,3.3l2.1,3.1c1.1,1.8,2,3.3,2.7,4.7l-1.9-4.1c-0.1-0.3-0.2-0.5-0.3-0.7l-0.1-0.5
							c0.5,0.7,1.1,1.6,1.7,2.7l0.5,1l0.6,0.8c0,0.3,0.1,0.8,0.4,1.4l0.4,1l0.2,0.3V25h0.1v0.1l0.1,0.1l0.6,1.2l0.1,0.1l0,0.1
							l1.3,2.7c0.2,0.6,0.4,0.9,0.4,1l0.8,0.6l0.6,1.5c1.5,2.3,2.7,4.1,3.8,5.5l2.4,3.1l0.2,0.2l0.6,0.6l0.1,0.2l1.3,1.3l0.2,0.2
							l1.8,1.8l9,6.7c0.6,0.5,1.1,0.9,1.5,1.2c-0.1-0.1-0.1-0.1-0.1-0.2c-0.1-0.3,0.1-0.2,0.6,0.3c0,0.1,0.6,0.6,1.8,1.5l1.3,1
							l0.2,0.3l0.9,1l0.1,0.1l0.1,0l0.8,0.8l0.1,0.1l1.4,1.5c0.1,0.1,0.1,0.1,0.2,0l-0.1-0.3l0.9,2l0.1,0.2l0.1,0.1l0.1,0.4
							c0,0.1-0.1-0.1-0.4-0.5l1.1,2.5l0.1,0.1v-0.1l0,0l-0.3-1.2l0.1,0.4l0.1,0.3l0.1,0.2l0.1,0.3v0.1l0.2,0.6V65l0.1,0.3l0.1,0v0.2
							c0.1,0.6,0.2,1.2,0.2,1.8l-0.4,2.8l0.1-0.1l0.1-0.2l0.1-0.2l0.2-0.5l-0.3,1.2h-0.1l-0.1,0.2l0,0.1v0.1l-0.1,0.1v0.1l-0.1,0.1
							l-0.3,0.4l-0.2,0.2l-0.2,0.1l-0.1,0.2l-0.2,0.1L177,72l-0.3,0.1l0.3-0.3l0.1-0.1l0.1-0.2l0.1-0.2l0.1-0.1l0-0.1l0.2-0.4
							l-0.1,0.1l-0.1,0.1l-0.1,0v0.1l-0.1,0.2l-0.9,0.8l-0.1,0.1l-0.1,0l-0.4,0.3c-0.1,0.1-0.2,0.2-0.2,0.2l-0.8,0.6l-0.1,0
							l-0.1,0.1l-0.3,0.1l-0.1,0.1l-0.2,0.1l-0.2,0.1l-0.1,0l-0.2,0.1l-0.1,0.1l-0.2,0l-0.1,0.1l-0.3,0.1l-0.3,0.2l-2.3,0.9l1.4-0.4
							c-0.8,0.4-1.7,0.7-2.7,1.1l-14.5,4.2l-0.5,0.2l-0.3,0.1l-1,0.4l-0.1,0h-0.1l-0.1,0.1l-1.6,0.7l-0.1,0.1l-0.2,0.2l-0.5,0.2
							l-1.6,1l-0.2,0.1l-0.9,0.6c-1.1,0.8-2.3,1.7-3.4,2.8L142,89l-0.2,0.3c0,0.1-0.1,0.1-0.1,0.2l-0.1,0l-0.1,0.1l-0.1,0.1
							l-0.1,0.1l-0.1,0.1l-0.1,0.3l-0.1,0.2l-0.1,0.1l-1.5,3.2l-0.9,3.4c-0.2,1-0.3,2-0.4,2.9v2.3l0.1,0.3v0.2l0.2,1.2
							c0.1-1,0.2-2.1,0.3-3.1c0,1.7,0.2,3.5,0.6,5.5l-1.2-2.4l-0.2-0.7c0.1,1.3,0.2,2.2,0.3,2.8l0.6,3.2l0.1,0.1v0.2l0.1,0v0.2
							l0.1,0.1v0.2l0.1,0.5l0.1,0.1l7.8,22.8c0.6,1.8,1.1,3.6,1.5,5.3c0.6,2.2,1,4,1.3,5.4l0.1,0.3v0.2l0.2,0.8v0.2l0,0.1l0.6,3.5
							l1.1,14.1l0.1,9c-0.1,1.5-0.2,2.1-0.4,1.8c-0.2-0.7-0.3-1.1-0.3-1.1c0.1,1.1,0.1,2.2,0.3,3.1l0.1,0.8l0.1,1.9
							c0,0.5-0.1,0.5-0.2,0.2c-0.1-0.2-0.1-0.6-0.1-1c0,0.3,0,1.1,0,2.3c0,0.7,0,1,0.1,1.1c0-0.8,0.1-1.3,0.3-1.4
							c0.3-0.3,0.5-0.5,0.5-0.6l-0.1,4.9l-0.3-0.3c0,0.2,0,0.5,0,0.9l0.2,1.4c0.2,1.5,0.2,3.2,0.1,5.3l0.9,25.6
							c-0.1-0.1-0.3-1.2-0.5-3.5c0.1,2.1,0.1,3.4,0.1,3.8c0.1-0.7,0.2-0.4,0.3,0.8c0.1,1.1,0.1,1.5,0.1,1.1c0.1,0.9,0.3,2.1,0.4,3.5
							l0.2,7.9c0,0.1-0.1,0.1-0.1,0.1c0-0.2-0.1-0.3-0.1-0.4l0.8,9.6c0,0.4-0.1,0.9-0.3,1.4c0,0,0.1,0.2,0.1,0.6l1.4,16.9l0.5,0.1
							l0.1,1.6l-0.1,0.6c-0.1,0.3-0.1,0.9,0.1,1.9c0.3,0.4,0.5,1.4,0.6,3.1l0.1,1.8c0.1,0.5,0.2,1,0.3,1.3c0.1,1,0,1.5-0.1,1.4
							c0.2,0.2,0.3,0.5,0.3,1.1c0.1,0.8,0.1,1.3,0.2,1.4c0.1,0.1,0.1,0.1,0.1,0c0.1-0.3,0.1-0.5,0.1-0.5l0.4,2.2
							c0,0.4,0,0.7-0.1,0.8c-0.1,0.1-0.2-0.1-0.3-0.6l3.4,29.1v0.3l0.5,6.1v0.5l0.1,0.4v1.8c0.1-0.2,0.2-0.6,0.3-1.4v-0.4l0.1-0.2
							v-0.2l0.1-0.4l0.1-0.3c0.1,0.6,0.2,1.1,0.1,1.6v0.8l0,0.2l-0.2,0.3l-0.1,0.2l0,0.1v0l-0.1,0.1l-0.1,0.6v0.1l-0.1,0.1l0,0.2
							v0.1l-0.1,0.1l-0.1,0.5l-0.1,0.3c-0.1,0.3-0.3,0.5-0.5,0.6l0.3,0.4l-0.4,0.4v0.1l-0.4,1.3l-0.3,0.5l-0.5,0.5h-0.1l-0.2,0.2h0
							l-0.2,0.1l-0.2,0.1l-0.9,0.6c-0.2,0.2-0.5,0.4-1,0.6l-0.9,0.4h-0.1l-0.1,0h-0.3l-0.1,0.1h-0.3h-0.1l0.1,0h0.1l0.1,0
							c0.1,0.1,0.1,0.1,0,0.1l-0.1,0.1h-0.1l-0.1,0c-0.1-0.1-0.4-0.1-1.1,0.1c-0.8,0.1-1.2,0.2-1.4,0.1l-2,0.2
							c-0.8,0.1-1,0.2-0.6,0.4l-0.7-0.1l-1.1-0.1l-0.1,0h0l0.1-0.1l0.4-0.1l-1.3,0c-0.5,0-0.9,0-1.1,0l1.1,0.2h-1
							c-0.2,0-0.6-0.1-1-0.1l-1.5-0.1c-1.1-0.1-2-0.1-2.7,0l0.9,0.3c-1-0.1-1.7-0.1-2.1-0.3c-0.6-0.1-1-0.3-1.3-0.5h0.3l0.4,0h0.3
							l-0.4-0.1l-0.8-0.1h-0.1l-0.1-0.1h-0.2l-0.1,0h-0.1l-0.9-0.2h-0.2l-0.1,0l-0.3,0l-0.3-0.1l-0.3-0.1l-0.3-0.1l-0.3-0.1
							l-0.6-0.2l0.2,0.1l0.4,0.2l-0.5-0.1l-0.3-0.1l-0.1,0h-0.1l-0.2-0.1c-0.4-0.1-0.9-0.4-1.6-0.8l-0.4-0.3l-0.1-0.1l-0.1-0.1
							l-0.2-0.1l-0.2-0.2l-0.1,0l-1.3-1.4l-0.9-1.2c-0.5-0.8-0.9-1.5-1.1-2.1h-0.1v-0.1l-0.1-0.3v-0.1l-0.1,0v-0.1l-0.1-0.1
							l-0.1-0.3l-0.3-1.7l-0.1-0.3l-0.2-1.3l-0.1-0.5l-0.2-1l-0.2-0.6l-0.2,1.4l-0.5-2.5c0,0.1,0.2,0.3,0.6,0.7
							c0.3,0.2,0.5,0.4,0.5,0.5l-2.3-39c0-0.9,0.1-1.2,0.3-1c0.1,0.1,0.2,0.3,0.3,0.6c-0.1-0.8-0.2-1.4-0.3-1.8
							c-0.1-0.2-0.2-0.7-0.3-1.4c0-0.3,0.1-0.3,0.2-0.1c0.1,0.2,0.1,0.4,0.2,0.6c0-0.2,0-0.6-0.1-1.3c0-0.4,0-0.6-0.1-0.6
							c0,0.5-0.1,0.8-0.3,0.9c-0.3,0.2-0.4,0.3-0.4,0.4l-0.2-2.8l0.3,0.1c0-0.1-0.2-0.5-0.4-1.3c-0.3-0.9-0.4-1.8-0.4-2.9l-1.1-14
							l0.3,0.6l0.3,1.3l-0.1-1.1c-0.1-0.5-0.1-0.8-0.1-1.1c-0.1,0.4-0.2,0.3-0.3-0.4c-0.1-1-0.2-1.2-0.2-0.6l-0.6-1.9l0-0.3
							l-0.1-0.3l-0.9-3.7l1.2,0l-0.3-1.1v-0.4l0.1,0.1v-0.3l-0.4-1.5c0,0.1,0,0.2-0.1,0.3c0,0-0.1,0-0.2-0.2l-0.3-0.9l-0.2-0.4
							l-0.1-0.5l-0.5-0.3l-0.9-1.2l0-0.1v0L119,230l-0.2-0.2l-0.7-0.7c-0.5-0.5-1-0.9-1.5-1.3c-0.7-0.5-1.3-0.9-1.8-1.1l-1.1-0.6
							l-0.2,0l-0.1-0.1l-0.3-0.1l-0.1-0.1h0l-0.1,0l0.1-1.4l-0.1,1.4l-0.1-0.1c-0.1,0-0.2-0.1-0.3-0.1h-0.1l0-0.1h-0.1l-0.1,0
							l-0.1-0.1l-2.4-0.5l-0.9-0.1l0-0.1c-0.5-0.1-1-0.1-1.4-0.1h-0.5l-0.3-0.1h-0.5c-0.4,0-0.7,0-0.9-0.1l-5.1,0.1
							c-0.1-0.1-0.3-0.2-0.5-0.3c-0.3,0-0.4-0.1-0.5-0.1c0.1,0.1,0.1,0.1,0.1,0.2c0,0.1-0.1,0.1-0.2,0.1c-0.3,0-0.5,0-0.6,0.1
							c0,0.1-0.2,0.2-0.6,0.2l-8.3,0.3l-0.3,0.2h0v0.1l-0.1,0.1l-0.1,0l-0.2,0.1h0l-0.1,0.1l-0.3,0.1l-0.1,0l-0.5,0.2l-0.6,0.3
							l0.1-0.1l-1.2,0.6c-0.4,0.1-1,0.4-1.8,0.9c-0.8,0.5-1.3,0.9-1.7,1.2l-0.7,0.5l-0.3,0.4l0.2-0.1l-0.3,0.4l-0.2,0.1h0l-0.1,0.1
							l-0.5,0.1l-0.1,0.1h0l-0.1,0.1c0.2,0.1,0.3,0.3,0.3,0.5l-0.1,0.1v0.1l-0.2,0.4l-0.1-0.1l0,0.2l-0.1,0.2l-0.6,1.6l-0.2-0.1
							l-0.2,0.5l-0.7,1.5c-0.1,0.3-0.4,0.9-0.8,1.7c-0.3,0.8-0.4,1.6-0.3,2.2l-0.3,0.3l-0.1,0.1l-0.1,0.1l-0.3,0.6v0.1h0v0.1h0.9
							c-0.1,0.5-0.1,1.1-0.2,1.8h-0.1c-0.1,0.5-0.1,1.3-0.1,2.3l0.2,1.9c0.1,0.7,0.2,1.3,0.2,1.9c0,0.6,0,1.3-0.1,2.1l-0.1-0.4
							c0,0.2-0.1,0.9-0.2,2.3l-0.2,2.9c0.1-0.3,0.1-0.5,0.2-0.6c0.1,0,0.1,0.2,0.1,0.8c0,0.3-0.1,1.2-0.2,2.9
							c-0.2,1.5-0.3,2.3-0.3,2.5l0.3,1.6l-3.3,46.3v-0.3l-0.5,3.2v0.1l-0.1,0.1v0.1l-0.1,0.2v0.1l0,0.1v0.2l-0.1,0.2l0,0.1l-0.7,2
							l-0.2,0.3l-0.4,1l-0.9,1.5l-0.2,0.2l-0.1,0.2l-0.1,0.1v0h0l-0.6,0.6l-0.2,0.2h0l-0.2,0.2l-1,0.8l-0.2,0.1l-0.2,0.2l-0.4,0.2
							l-0.1,0.1l-0.4,0.2l-0.1,0.1l-0.1,0.1l-0.5,0.2l-0.1,0l-0.6,0.2l-0.1,0l-0.8,0.3l-0.3,0.1h0l-0.1,0l-0.6,0.1h-0.1l-0.1,0.1
							h-0.2l-0.1,0l-1.4,0.2l-0.1,0h-0.2l-2.7,0.3c-1,0.1-2.1,0.1-3.1,0.1l-8.4-0.1l-0.3,0h-0.3l-0.2-0.1H47l0,0l-0.4,0l0.2,0h-0.1
							l-2.2-0.6l-0.2-0.1l-0.2-0.1l-0.2-0.1l-0.1-0.1l-0.1,0l-0.8-0.6l-0.2-0.1l-0.1,0l0-0.1l-0.1,0l-0.3-0.4v0c0,0-0.1-0.1-0.1-0.2
							l0,0l-0.2-0.3l0.1,0.3l0,0.1c-0.1,0-0.2,0-0.3-0.3c-0.2-0.2-0.3-0.5-0.5-0.8l-0.1-0.3l-0.1-0.3l-0.2-0.2l-0.1-0.1l0,0l-0.1,0
							l0-0.2l-0.2-0.3l-0.1-0.3l0-0.3l-0.1-0.3l-0.3-1l-0.1-0.3v-0.3l0-0.1l-0.1-0.3v-0.2l0,0v-0.1l0-0.5v0l0-0.1v-0.4l0-0.2
							c-0.1-1.2-0.1-2.6,0-4.4l0.3-4.9l0-0.2v-0.1l3.1-26.9l0.5-11.1l0,0.3l1-13.9c0.1-2,0.2-3.5,0.3-4.5l0.3-7.9c0,0,0.1,0,0.1,0.1
							l-0.1-0.1l0-1.9l0,0.6c-0.1-1.4,0-2.5,0.1-3.3c0.2-1.3,0.4-2.3,0.4-2.8c-0.2,0.2-0.4-0.3-0.5-1.4c-0.1-0.8-0.2-1.6-0.2-2.5
							l0.1,0l-0.2-4c-0.1-1.6-0.2-3.2-0.2-4.9l0.3,0.2l-0.1-2.2l0.4-15.2l-0.4-7.4l0.4-3.6l-0.1-0.5l-1-0.8c-1-0.6-1.8-1-2.3-1.2
							c-1-0.3-1.8-0.3-2.4,0.1c-0.4,0.3-0.8,0.7-1.1,1.2c-0.4,0.6-0.7,1.3-1,2.1l-0.2-0.1l-0.3,3.3c0,0.4,0,0.5-0.1,0.5l0.2-2.1
							c-0.1,0.5-0.1,0.7-0.1,0.6c0-0.2,0-0.3,0-0.4c0-0.2,0-0.4,0-0.5l-0.3,2c0,0.1,0.1-0.1,0.2-0.6l-0.1,3.3
							c-0.1,0.6-0.2,0.9-0.3,1c-0.1,0.1-0.2,0.4-0.3,1.1l-2.5,31.9c-0.1,0.2-0.1,0.1-0.1-0.3l-0.4,6.5c-0.5,0-1,0-1.3-0.1l0.3-0.1
							l-0.7-0.1l-2.7-0.2c0.2,0.1,0.4,0.1,0.4,0.2c0,0.1-0.1,0.1-0.5,0.1l-1.9-0.2h-0.2l-0.1-0.1l-0.8-0.1l-0.4-0.2l-1,0.2l-1.4-0.2
							h-0.3l-0.7-0.1c-1.6-0.3-2.7-0.5-3.2-0.7l-1-0.3h0v-0.1h-0.1l-0.7-0.2h-0.1l-0.2-0.1l-0.3-0.1l-0.2-0.1l-0.8-0.3L12,234
							c-0.6-0.4-1.1-0.8-1.5-1.1l-0.2-0.2L8,230.4l-0.8-1.1c-0.4-0.8-0.8-1.6-1-2.4c-0.2-0.5-0.3-1.2-0.5-2l0.1,0.2l-0.3-1.3
							l-0.3-3.1v-0.2l-0.1-0.2l0.1-5.8c0.1-2,0.2-3.4,0.3-4.4l0.1-1.1v-0.3l0.2-1.3v-0.3l0.3-1.6v-0.2l0.1-0.3l2.3-10.8
							c0.1-0.3,0.6-1.7,1.4-4.3c-0.1,0.4-0.2,0.5-0.3,0.4c0-0.1,0-0.3,0.1-0.6c0.3-1.4,0.5-2.1,0.4-2.2c-0.1-0.1,0-0.8,0.3-2.3
							l0.9-3.9l0.1-0.1v-0.2l0.4-1.4c0.7-2.5,1.5-4.9,2.4-7.4c0.9-2.2,1.9-4.6,3.2-7.2l2.5-4.7c0.1-0.3,0.2-0.6,0.3-0.8l2.8-5.8v0.3
							c0-0.1,0.3-0.5,0.6-1.2l9.3-14.6l-0.3,0.3c0.4-0.8,0.8-1.5,1.2-1.9c0.7-0.7,1.1-1.2,1.3-1.4c-0.2,0-0.2-0.4,0-1.1
							c0.2-0.5,0.4-1.1,0.8-1.6l0,0.1l2.5-5.7l0.1,0.2l1.2-3.1c0.4-1,0.8-1.9,1.1-2.8l1.5-4.5l0-0.4l0.1-0.3l0.3-1.7l0.1-3.5
							l-0.4-1.8v-0.4l-0.1-1.2c0-0.2-0.1-0.3-0.1-0.5l0-0.8l0-0.2l0,0.3l0,0.5c0-0.1,0-0.2,0-0.3l-0.4-5.8c-0.1-1-0.1-1.7,0-1.9
							c0.1-0.1,0.1-0.2,0.1-0.5v-0.5l-0.1-0.2v-0.2l-5.9-30.4c-0.3-2-0.7-4.4-1-7l-0.3-9.6l0.1-0.8v-0.4l0.1-0.8l0.1-0.2v-0.2
							l1.6-8.1c0.1-0.1,0.1-0.1,0.1,0l1.7-5.8l0-0.3l0.1-0.1l0-0.1l0.2-0.7l0-0.1l0-0.2l0.2-0.4v0l0-0.1l0-0.1l0-0.2l0.5-1.2
							l0.2-0.5l2-4l0.9-1.1c0.2-0.2,0.4-0.4,0.5-0.5c-0.1,0,0-0.1,0-0.2l0.4-0.6c0.3-0.5,0.9-1.3,1.8-2.4c0.8-1,1.8-2.1,2.8-3.2
							l7.5-6.5l0.1-0.1h0l0.1-0.1l0.3-0.2l2-1.4l0.5-0.3L59.3,9l5.3-3.2l0.1-0.5L67.2,4c0.1-0.1,0.4-0.2,0.8-0.3
							c0.3,0,1.3-0.4,3-1.2c0.9-0.7,2.5-1.4,4.8-2.1c0.2-0.1,1.2-0.3,2.8-0.8C79.7-0.6,80.4-0.8,80.7-1 M163,149.6l0.4-0.1
							c0.4,0.6,0.6,1,0.7,1.2c0,0.2,0.2,0.6,0.6,1.1l0.7,0.6l1.5,2.3l0.3,0.3c0.3,0.5,0.4,0.8,0.3,0.8c0.3,0.1,0.6,0.5,1,1.3
							c0.1,0,0.1,0,0-0.1c0-0.1-0.1-0.2-0.1-0.3l0.9,1.1c0.1,0.2,0.1,0.4,0.1,0.4c-0.1,0.1-0.2,0-0.4-0.3l6.7,11.7l4.1,8.8l0.3,0.8
							v-0.4l-0.2-0.3v-0.1l0-0.2c-0.2-0.4-0.2-0.7-0.2-1c0.1,0.2,0.3,0.5,0.5,1c0.2,0.3,0.3,0.6,0.4,0.7c-0.2,0.2-0.1,0.7,0.1,1.3
							v0.1l0.1,0.1v0.1l0.1,0.2l0.1,0.5c0,0.3,0,0.6,0,0.8l0.4,0.2v0.5l1.9,4.9c0.2,0.6,0.6,1.5,1.2,2.5c0.3,0.6,0.5,1.2,0.7,1.6
							c0,0,0-0.1,0-0.1c0-0.1,0.1,0,0.3,0.2c0,0.1,0.1,0.4,0.3,0.9c0.3,0.5,0.4,0.9,0.3,1c0.6,1.4,0.9,2,1,1.6c0,0.2,0,0.5,0.1,1.1
							c0,0.4,0,0.4-0.2,0.1c0.2,0.9,0.4,1.4,0.5,1.5l-0.1-0.8c0,0.1,0.3,0.9,0.8,2.3l0.3,1l0.5,0.8l-0.2-0.8l0.6,1.5
							c0.1,0.5,0.1,0.9,0.1,1.1l-0.6-1.1l0.8,2.2l0,0l0.7,1.8l-0.1-0.5l0.9,2.5c0.4,1.1,0.7,2.5,1.1,4.2l1.1,5.2l0.1,0.4l0.1,0.3
							v0.1l0.1,0.2l0.1,0.7l0.3-0.9l0.4,1.6c0,0-0.2-0.2-0.6-0.4l-0.4-0.4l0,1l0.1,0.3v3.1c-0.1,1-0.2,2-0.4,2.9
							c-0.2,1-0.6,1.9-1,2.7l-0.4,0.6l-0.1,0.1l-0.3,0.6l-0.6,0.6l-0.1,0.1l-0.4,0.6c-0.6,0.7-1.3,1.4-2.1,2c-0.8,0.6-1.4,1-2,1.3
							l-1.4,0.6c-0.4,0.1-0.6,0.1-0.6-0.1l0.2-0.3c-0.2,0.1-0.4,0.2-0.6,0.3l-0.4,0.4h-0.1l-0.4,0.2c-0.3,0-0.2-0.1,0.2-0.4
							l-0.5,0.2h0l-0.1,0.1h-0.1l-0.3,0.2c0.2,0,0.4,0,0.5,0.2l0.1,0.2l0.2,0.1h0l-1.5,0.4l0.1-0.3l-0.7,0.6l-0.6,0.4l-0.4,0.1
							l-0.6,0.1c-2.5,0.4-3.9,0.7-4.1,0.8l-4.3,0.5c0-0.1,0.1-0.2,0.4-0.3l0.8-0.2l-1.3,0.1c0.3,0.1,0.2,0.2-0.3,0.2
							c-0.4,0.1-0.5,0.1-0.4,0.2l-0.8,0.3l-2.8,0.3h-0.1l-0.4-4.8v0.6c0-0.1-0.1-0.3-0.1-0.4c0-1.6,0-2.8,0-3.7l0,0.1
							c0-1.1,0-2.5,0-4.3l-0.3-3.7c-0.3-3.1-0.5-5.6-0.4-7.6l0.1,0.7c0-0.6-0.1-2-0.1-4.3c-0.1-2.1-0.2-3.8-0.2-5.1
							c0,0.4-0.1,0.6-0.1,0.7c-0.1,0.1-0.2-0.4-0.3-1.4c0-0.4-0.1-2.3-0.2-5.6l0-4.6l-0.1-0.6v-0.2l0,0V195l-0.1-0.4v-0.2l0-0.1
							v-0.1l-0.1-1.1l0.2-12.4c0.1-1.8,0.1-3.7,0-5.6l-0.2-12.8c-0.1-3.1-0.3-5.5-0.4-7C163.4,153.1,163.2,151.1,163,149.6
							 M108.4,236.3L108.4,236.3L108.4,236.3L108.4,236.3z"/>
					</g>
				</g>
			</g>
		</g>
	</g>
</g>
</svg>
