<?xml version="1.0" encoding="utf-8"?>
<!-- Generator: Adobe Illustrator 24.1.2, SVG Export Plug-In . SVG Version: 6.00 Build 0)  -->
<svg version="1.1" id="Layer_1" xmlns="http://www.w3.org/2000/svg" xmlns:xlink="http://www.w3.org/1999/xlink" x="0px" y="0px"
	 viewBox="0 0 256 256" style="enable-background:new 0 0 256 256;" xml:space="preserve">
<style type="text/css">
	.st0{fill:#FFFFFF;}
</style>
<g id="idle1">
	<g transform="matrix( 0.6996917724609375, 0, 0, 0.6996917724609375, 57.25,20.7) ">
		<g id="idle">
			<g transform="matrix( 1, 0, 0, 1, 0,0) ">
				<g>
					<g id="idle_0_Layer0_0_FILL">
						<path class="st0" d="M78.1-2.7L78.1-2.7l-0.2,0l-0.1,0L69.6,0l0.6-0.2c-0.7,0.2-1.9,0.7-3.8,1.5l-5.9,2.8
							c-2.4,1.3-4.7,2.6-7,4.1L53,8.4L49.4,11L49.2,11l-0.1,0.1l-1.5,1.1l-0.1,0.1h0l-0.1,0.1l-0.3,0.2l-0.9,0.7
							c-2.3,1.8-4.6,3.9-6.8,6.1c-2,2.1-3.8,4.3-5.5,6.6c-1.3,1.8-2.5,3.8-3.7,6l-1.6,3.5l-0.2,0.4l0.3-0.5l-1,2.6v0l0,0.1v0.1
							l-3,8.6c0.1-0.1,0.2,0.1,0.2,0.6l-1,7.3l-0.1-0.1l-0.4,7.6l1,10.2l-0.3-0.2c0.3,1.6,0.9,4.6,1.6,9l3.2,14.1
							c0.1,0.4,0.6,2.8,1.6,7.2l3.1,14.8l0,0.4v0.4l0.4,3.9v0.4l0.1,0.4l0.1,0.8v0l-0.8,2.4c-0.7,1.5-1.4,2.9-2.2,4.2l-5.3,8.6
							c-0.1,0.1-0.1,0,0-0.3l-3.3,4.9c-0.2,0.2-0.5,0.4-0.8,0.6c0.1,0-0.2,0.4-0.9,1.3l-0.5,0.7l-0.1,0.2l-0.2,0.1l-4.7,7.1l0.3,0.4
							c-0.4,0.7-0.7,1-0.9,1c-0.2,0.1-0.5,0.5-0.8,1.1c0,0.4-0.3,1-0.9,1.9c-0.6,1-1,1.6-1,1.8c-0.4,0.5-0.6,0.7-0.6,0.6l-0.1,0.4
							l-0.2,0.3c-0.1,0.2-0.3,0.5-0.5,0.8c0,0.1,0,0.1,0.1,0.1c0.1-0.1,0.2-0.2,0.2-0.2l-0.6,1.3c-0.2,0.2-0.3,0.3-0.4,0.3
							c-0.1,0-0.1-0.1,0-0.2l-6.8,13.3l-0.7,1.9l-0.1,0.3l-2.5,7.4v0.1L0,187.1c0.1-0.1,0.2-0.4,0.5-1V186l0.1-0.2l0.1-0.3
							c0.2-0.2,0.3-0.4,0.3-0.4l-0.1,0.8v0.2H0.9v0l-0.1,0.2c-0.1,0.5-0.2,0.7-0.2,0.8c-0.2,0.1-0.4,0.5-0.7,1.3
							c-0.3,0.9-0.5,1.4-0.8,1.6l0.2,0.4l-0.3,0.4l-0.5,2.8c-0.3,0.7-0.5,1.5-0.7,2.3c-0.2,0.7-0.4,1.6-0.5,2.8
							c-0.1,0.8-0.3,1.3-0.4,1.7c0,0,0.1,0,0.1,0c0.1-0.1,0.1,0,0.1,0.3c-0.1,0-0.2,0.3-0.3,0.8c-0.1,0.6-0.2,0.9-0.3,1
							c-0.4,1.6-0.5,2.2-0.2,1.9c-0.6,1.3-0.8,1.5-0.7,0.8c-0.3,0.7-0.5,1.3-0.5,1.6l0.3-0.8c-0.2,0.7-0.4,1.5-0.8,2.4l-0.2,0.4v0.1
							l-0.1,0.1l0,0.3v0.1l-0.1,0.1l-0.1,0.9l0.4-0.8l-0.5,1.8l-0.3,0.7c0,0.2-0.1,0.3-0.3,0.5l0.2-1.4l-0.6,4l-0.1,1.3l0.2-0.6
							v13.1c0.1,1.4,0.3,2.5,0.5,3.4l0.2-1l0.5,1.9l-0.6-0.5c-0.3-0.3-0.4-0.4-0.4-0.5l0.7,4l0.5,2c0.5,1.5,1.2,3,2,4.5l1.6,2.4
							l0.2,0.2l0.1,0.3l0.4,0.4l0.1,0.1l0.7,0.9c1.1,1.2,2.4,2.4,3.7,3.5c1.2,0.9,2.4,1.7,3.8,2.6c1.1,0.6,2.2,1.1,3.3,1.6l0.8,0.4
							h0.1c0,0,0.1,0.1,0.1,0.1l0,0.1l0.7,0.3h0.1l0.1,0.1l0.1,0.1c0.4,0.2,0.6,0.3,0.6,0.4c0.1,0.1,0.1,0.1,0,0.2l-0.5,0
							c0.3,0.1,0.7,0.2,1,0.2l0.4,0c0.2,0,0.5,0,1,0.2c0.2,0.1,0.2,0.1,0.1,0.1l-0.4,0l0.9,0.3c0.3,0.1,0.4,0.1,0.4,0.1
							c-0.3-0.1-0.5-0.3-0.5-0.5c-0.1-0.3-0.1-0.5-0.2-0.5l1.9,0.5l-0.1,0.3c0.2,0,0.5,0,1-0.1c0.6-0.1,1.3,0,2,0.2
							c1.1,0.3,2.7,0.6,4.9,0.9l4.7,0.5c0,0.1-0.5,0.2-1.3,0.2c0.3,0,0.7,0.1,1.4,0.2c-0.3-0.1-0.2-0.2,0.3-0.2c0.4,0,0.6,0,0.4,0
							c0.3,0,0.6-0.1,0.9-0.1l-0.4,5.4l0.4,0.2l-0.2,1.5c0,0.1-0.1,0.2-0.2,0.5c-0.2,0.2-0.3,0.8-0.4,1.8c0.2,0.4,0.3,1.4,0.1,2.9
							l-0.3,1.6c-0.1,0.5-0.1,0.9,0,1.1c-0.1,0.9-0.3,1.3-0.4,1.3c0.2,0.3,0.2,1.1,0,2.3c0.1,0.2,0.2,0.1,0.3-0.4l0,2
							c-0.1,0.4-0.2,0.6-0.3,0.6c-0.1,0-0.1-0.2-0.1-0.6l-3.1,25.3l-0.1,0.2v0.3l-0.5,7.9l0,2.5l0.1,0.8v0.2l0,0.2v-0.2l0.1-0.3
							v-1.6c0.1-1,0.2-1.6,0.4-1.8l0,0.3l0,2.5l0.1,0.2v0.1l0.1,0.3l-0.1,0.2l-0.1,0.5v0.1c0,0,0,0.1,0,0.1l0.4,3.5l0,0.2v0.2
							l0.1,0.4v0.8l0.5,0.5l0.1,1.1l0.6,1.4l0.1,0.1l0.6,1.1c0.2,0.3,0.5,0.8,1,1.5l0.4,0.4l0.3,0.3l1.3,1.6l0,0h0
							c0.1,0.2,0.2,0.2,0.2,0.2v0l0.2,0.2L33,330v0.1h0v0l0.6,0.6l0.1,0l0.2,0.1l1.5,1.1c1,0.7,2,1.2,3,1.6l2.5,0.8h0.1l3,0.7h0.2
							L44,335l-0.1,0c0,0,0-0.1,0-0.2h0.3l0.1,0.1h0.2l0.1,0.1h0.1v0h0l0.3,0h0.3l0.1,0.1h0.4l0.3,0l1.1,0.1
							c0.4,0.1,0.6,0.1,0.7,0.2l2.3,0.1c0.9-0.1,1.1-0.2,0.8-0.4c0,0,0.6,0.1,1.6,0.3c0.3,0.1,0.5,0.1,0.5,0.1c0,0-0.1,0.1-0.5,0.1
							l2.3,0l0.1,0h-0.3l-0.8-0.1l0.5-0.1l3.1,0.1c1.1,0.1,2.1,0,3-0.3l-1.2-0.1l2.5-0.2l1,0.1c0.4,0.1,0.6,0.1,0.8,0.2l-1.9,0.3
							h0.3l3.8-0.5l3.8-1H69l-0.3,0.1l-0.6,0.1l2.1-0.7c1.5-0.6,2.5-1,3.1-1.4c1.1-0.5,2.3-1.2,3.6-2.2l0.9-0.7l1.8-1.6l0.2-0.3h0.1
							l0-0.1l0.2-0.1l1.1-1.4l0.2-0.3l0.2-0.3l1.9-3.4l0.6-1.4l0.2-0.4l0.1-0.3l0.1-0.2l0.6-2l0.1-0.3l0-0.2l0.1-0.1V317l0.2-0.6
							l0.2-1.5v-0.4l-0.7,1.4l0.3-2.5c0,0.1,0.1,0.1,0.2,0.2l0.3,0.5c0.2,0.3,0.4,0.6,0.3,0.8l0.6-3c0.2-1.5,0.4-3,0.6-4.5l2.4-29
							c0.1-0.8,0.3-1,0.4-0.9c0.1,0.1,0.2,0.3,0.3,0.6c0-0.6-0.1-1.1-0.2-1.6c-0.1-0.3-0.1-0.7-0.1-1.4c0.1-0.4,0.2-0.3,0.3,0.4
							c0-0.1,0-0.5,0.1-1.1c0-0.4,0-0.6-0.1-0.6c-0.1,0.4-0.2,0.7-0.4,0.8c-0.3,0.1-0.5,0.2-0.5,0.3l0.2-2.6l0.3,0.2l-0.3-1.3
							c-0.2-0.8-0.2-1.7-0.1-2.7l0.3-12.9c0.1,0,0.2,0.6,0.3,1.8c0-1.1,0-1.7,0.1-1.9c-0.1,0.4-0.2,0.3-0.2-0.4l-0.1-0.6
							c-0.1-0.7-0.2-1.5-0.2-2.4l0-5.4l0.3-0.3h-0.1l0.3-0.3l0,0.1H90V246l0.1-0.1l0-0.1l0.1-0.2l0.1-0.1l0.1-0.1l0.3,0.3
							c-0.1-0.1,0-0.3,0.3-0.4l0.5-0.3l-0.2-0.4c0,0,0.1,0,0.2,0.1l0.1,0.1l0.1,0.1h0.1c-0.1-0.3,0-0.4,0.1-0.3h0.2l0.1-0.1l0.1,0.1
							h0.1l0.1,0.1c0-0.1,0-0.2,0.1-0.2h0.2v-0.1l-0.1-0.2v-0.1l0.1-0.1v-0.1c0.2,0.2,0.2,0.3,0.1,0.4l4.1,0.1l0.2,0l-0.1-0.1
							l-0.1-0.1l-0.1-0.1l-0.2-0.1l0-0.1l-0.1-0.1h0.2V244h-0.1l0-0.1h0.2c0.1,0.1,0.1,0.1,0.1-0.1c0,0.2,0.1,0.3,0.3,0.4
							c0.2,0,0.4,0.2,0.4,0.4l0-0.4l0.2,0.3c0.4-0.1,0.6-0.2,0.7-0.1l0.6,0.1c0.2,0,0.4-0.1,0.6-0.2c0.2-0.1,0.4-0.2,0.5-0.1
							c0,0,0,0,0-0.1c0-0.1,0-0.2,0-0.2c0,0.1,0.1,0.1,0.2,0.1c0.2-0.1,0.3,0,0.3,0.1c0.1,0,0.2,0,0.3-0.1c0.1,0,0.2-0.1,0.2-0.3
							c0,0,0.1,0.1,0.2,0.3c0.1,0.1,0.1,0.2,0,0.3c0.2,0.1,0.3,0.1,0.4,0l-0.2-0.1c0.1,0,0.3,0,0.6,0.1c0.2,0,0.3,0,0.4-0.2
							l-0.2-0.2h0.2l0,0.1h0.2l0.1,0.1c0.1,0,0.2,0.1,0.2,0.3l-0.3,0.1h0.6l0.6-0.2h-0.2c0.1-0.1,0.5-0.2,1.1-0.4l0.9-0.2h0.1
							l0.1-0.1h0.2v-0.1l0-0.6l0.1-0.1v-0.4l0.1-0.6l0.2-2l0.1-0.1v-0.3l0.2-0.9l-0.4,4.9c0.4-0.1,0.6-0.2,0.8-0.4l-0.2-0.4l0.3-0.2
							c0,0.1-0.1,0.3-0.1,0.5c-0.1,0.2-0.1,0.3-0.2,0.4l1.4,0.2h0c-0.1,0.1-0.1,0.2-0.1,0.3l0.1,0.4l1.1-0.1l0.2,0.2v0
							c-0.1,0.2-0.1,0.3-0.2,0.3l-0.2,0.2l0.3-0.2l-0.1,0.2h-0.1l0.1,0h-0.1v0.1l0.1,0.1c0.1,0.1,0.1,0.1,0.1,0.1
							c0-0.1,0-0.2,0.2-0.4c0.2-0.2,0.3-0.3,0.3-0.3l0.1,0.1l0.1,0.1v0.1l-0.2,0.1l0.3-0.1l0.2-0.1c0.1-0.1,0.1-0.1,0.1,0.1v0.1
							l0.1,0.1v0.1l0.1,0.1l0.1,0.3h-0.3l-0.1,0.1l0.3-0.1c0,0,0.1,0,0.1,0l0.2,0.1l0.1,0.1l0.5,0.4c-0.1,0.6-0.1,1.1-0.1,1.7
							l-0.1,0.4l0,3.5l-0.1-0.3l-0.1,0.9l0.1,4c0-0.2,0-0.4,0.1-0.4c0.1-0.1,0.1,0,0.1,0.1c0.1,0.1,0.1,0.3,0.1,0.6l0.1,2.9
							c0.1,1.1,0.1,2,0.1,2.5l0.4,1.5l3.4,46.1l0-0.3c0.2,2.5,0.4,4.3,0.6,5.4v0.2l0.1,0.2l0.1,0.4l0,0.2v0.1l0.2,0.5v0.3l0.1,0.1
							v0.1l0.4,1.8l0.2,0.4v0.1l0.1,0.2l0.1,0.3l0.4,1c0.2,0.5,0.5,1.1,0.9,2l2.5,3.6l0.8,0.9l0.1,0.1l1.4,1.4l0.2,0.1l0.4,0.4
							l1.6,1.3l0.5,0.3l0.3,0.2l1.8,1c1.1,0.6,2.5,1.2,4.2,1.8l0.8,0.3l0.3,0l0.7,0.2h0.1l0.9,0.3h0.1l0.1,0l1.3,0.3
							c1.2,0.2,2.5,0.4,3.9,0.5c1.3,0.1,2.5,0.1,3.6,0.1c0.2,0,0.5,0.1,0.9,0.1l5.8-0.1c1.4-0.1,2.4-0.1,3.1-0.2l3.9-0.5h0.2
							l0.4-0.1h0.1l0.1,0l0.5-0.1h0.1l0.1-0.1h0.2l2.7-0.6c0.8-0.2,1.6-0.5,2.2-0.8c0.7-0.3,1.5-0.7,2.2-1.1
							c0.4-0.2,1.1-0.7,1.9-1.4l-0.4,0.3l-0.3,0.1c-0.1,0.1-0.2,0.1-0.1,0l0.1-0.1l0.8-0.8l0.4-0.3l0.6-0.6l0.2-0.2l0.1-0.1h0.1
							l0.1-0.2h0.1l0.1-0.1l0.3-0.5l0.1-0.1l0.1,0l1.1-1.7l0.1-0.2l0.9-1.8c0.5-1.1,0.8-1.9,0.9-2.4l0.4-1.4l0-0.3l0.1-0.3l0.4-2.1
							v-0.1l0-0.2l0.1-0.8v-0.3l0.1-0.3v-0.4l0.1-0.4v-0.8c0-0.7,0-1.7-0.1-3c0-0.7-0.1-1.7-0.2-3.1l-0.3-2.8v-0.2l-0.1-0.2
							l-3.1-25.9c-0.2-0.6-0.4-1.4-0.6-2.5l-1.2-8.1l0.2,0.3c-0.2-1-0.4-2.8-0.7-5.1l-0.4-3.6h0.2c0.3,0,0.6,0,0.8,0l-0.3,0.1
							c0.6,0.1,1.9,0.1,3.9-0.1l-0.4-0.1c0-0.1,0.1-0.2,0.6-0.2l4.1-0.3l1.2-0.4l5.8-1.4h0.1l0-0.1l3.8-1.5l0.4-0.2
							c0.8-0.4,1.7-0.9,2.7-1.5c0.9-0.6,1.8-1.2,2.6-1.9l1.8-1.7l0.3-0.3l0.3-0.3l1.8-2v-0.1l1.7-2.4l0.3-0.6l0.3-0.4l1.3-3.1
							l0.8-2.9c0.3-1.6,0.4-3.2,0.5-4.8v-3.3l0.1,0.3l-0.1-0.4v-0.7l-0.1-0.3l-0.1-1v-0.3l-0.1-0.3v-0.3l-0.1-0.2V228l-1.7-10.6
							l-1.6-6.1l-0.1-0.1v-0.1l-0.1-0.1l-5.4-13.5c-0.1-0.4-0.5-1.8-1.3-4.3c0.1,0.3,0.1,0.5,0,0.5c-0.1,0-0.2-0.2-0.3-0.5
							c-0.3-1-0.6-1.7-0.8-2.1c-0.1-0.1-0.4-0.8-0.9-2.1l-1.4-3.4l-0.1-0.2l-3.3-7.6l-0.1-0.3l-4.9-9.5c-0.8-1.6-1.7-3.3-2.7-4.9
							l-3.3-4.7c-0.4-0.6-0.8-1.1-1.1-1.5l0.2,0.2l-2.4-3.6l-0.1-0.3l-8.5-11.7l0.1,0.3c-0.6-0.6-1-1.2-1.3-1.7
							c-0.4-0.9-0.7-1.4-0.8-1.6c-0.1,0.2-0.4,0-0.9-0.4L158,137l0.1-0.1l-0.3-0.4l-6.9-20.1l-0.1-0.1v-0.1l-0.1,0V116l-0.1-0.1
							v-0.1l-0.1-0.2l-0.1-0.9l0.1,0.4c-0.2-1.2-0.4-2.3-0.4-3.4l0.1-1.9l0.3-1.3v-0.1l0.1-0.1l0.3-0.9l0.5-1.1l0.1-0.1l0.1-0.2
							l0.1-0.1l0.1-0.1l0.1-0.1v-0.1l0.1-0.1l0.1-0.1l0-0.1l0.1-0.1l0.3-0.3l0.1-0.2l0.3-0.3l1.5-1.1l1.8-1.1l0.3-0.1l0.1-0.1h0.1
							l0.1-0.1l0.2-0.1l0.2,0l0.1-0.1h0.1l2.7-0.9l10.2-2.7c0.7-0.2,1.8-0.5,3.3-0.9l5.2-1.8h0l0.1-0.1l0.4-0.2l0.1-0.1h0.1l0.1,0
							l0.4-0.2l0.1-0.1l0,0l0.2-0.1l0.7-0.4c1.3-0.7,2.5-1.5,3.7-2.4c1.1-0.9,2.2-2,3.3-3.3l0.4-0.4l0.2-0.3l0.2-0.3l1.4-2.6
							l0.1-0.2l0.1-0.3v-0.1l0.1,0l0.1-0.2c0.6-1.5,1.1-3,1.3-4.5c0.2-1.6,0.3-3.1,0.1-4.6l-0.8-4.5v-0.2l-0.1,0v-0.1l-0.1-0.6
							l-0.1-0.1l-0.1-0.2v0l-0.8-2.3c-0.5-1.2-1.1-2.3-1.7-3.4c-0.5-0.8-1.2-1.8-2-3l-1.4-1.7l-0.1-0.1l-0.1-0.1l-0.2-0.2l-1-1.1
							l-16.5-13.6l-0.6-0.7l-0.3-0.2l-0.1-0.1l-0.1-0.2l-0.4-0.4l-0.3-0.5l0.5,0.8c0.1,0.1,0.1,0.2,0,0.2l-0.6-0.5l-1.5-1.9
							l-0.3-0.3l-1.1-1.5l-0.1-0.3l-1.3-1.4c-1.2-1.8-2.1-3.2-2.7-4.2l-0.7-1.1l-0.1-0.4l-0.2-0.3l-4.5-7.9
							c-0.8-1.2-1.7-2.7-2.9-4.4l-4.1-5.5L140,8l-0.2-0.2l-0.3-0.3c-0.6-0.6-1.5-1.4-2.7-2.3c-0.7-0.6-1.7-1.2-2.9-1.9
							c-1.1-0.6-2.1-1.2-3-1.6c-1.8-0.9-3.8-1.7-6.1-2.5l-10.5-2.8l-1.8-0.3L112.1-4l-4.8-0.7c-3.4-0.4-6.5-0.6-9.5-0.6h-2.8
							c-0.2,0-0.5,0-0.9,0c-0.4,0-0.6,0-0.8,0.1l-2,0.1L84-4l-0.3,0.1L78.1-2.7 M169.2,62.8c-0.1-0.1-0.1-0.1-0.1-0.2
							c-0.1-0.3,0.1-0.2,0.6,0.3c0,0.1,0.6,0.6,1.8,1.5l1.3,1l1.1,1.2l0.1,0.1l0.1,0.1l0.8,0.8l0.1,0.1l1.4,1.5
							c0.1,0.1,0.1,0.1,0.2,0.1l-0.1-0.3l0.9,2l0.1,0.2l0.1,0.1l0.1,0.4c0,0.1-0.1-0.1-0.4-0.5l1.1,2.5l0.1,0.1v0l0,0v-0.1l-0.3-1.1
							l0.1,0.4l0.1,0.3l0.1,0.2l0.1,0.3v0l0.2,0.7v0.1l0.1,0.3l0.1,0.1v0.2c0.1,0.6,0.2,1.3,0.2,1.9l-0.4,2.8l0.1-0.1l0.1-0.1
							l0.1-0.2l0.2-0.5l-0.3,1.2h-0.1l-0.1,0.2l0,0.1v0.1l-0.1,0.1v0.1l-0.1,0.1l-0.3,0.4l-0.2,0.1l-0.2,0.1l-0.1,0.2l-0.2,0.1
							l-0.2,0.1l-0.3,0.1l0.3-0.3l0.1-0.1l0.1-0.1l0.1-0.2l0.1-0.1l0-0.1l0.2-0.4l-0.1,0.1l-0.1,0.1l-0.1,0.1v0.1l-0.1,0.2l-0.9,0.8
							l-0.1,0.1l-0.1,0.1l-0.4,0.3c-0.1,0.1-0.2,0.1-0.2,0.1l-0.8,0.6l-0.1,0l-0.1,0.1l-0.3,0.1l-0.1,0.1l-0.2,0l-0.2,0.1l-0.1,0.1
							v-0.1l-0.1,0.1l-0.1,0.1l-0.2,0l-0.1,0.1l-0.3,0.1l-0.3,0.1l-2.3,0.9l1.4-0.4c-0.8,0.4-1.7,0.7-2.7,1l-14.8,4.3l-0.2,0.1
							l-0.3,0.1l-1,0.4l-0.1,0h-0.1l-0.1,0.1l-1.6,0.7l-0.1,0.1l-0.2,0.2l-0.5,0.2l-2.7,1.7c-1.1,0.8-2.3,1.7-3.4,2.8l-0.4,0.4
							l-0.7,0.8l-0.2,0.2l-0.8,1.1l-0.2,0.3c0,0.1-0.1,0.1-0.1,0.2l-0.1,0l-0.1,0.1l-0.1,0.2l-0.1,0.1l-0.1,0.1l-0.1,0.3l-0.1,0.1
							l-0.1,0.1l-1.5,3.2l-0.9,3.4c-0.2,1-0.3,2-0.4,2.9v2.3l0.1,0.3v0.2l0.2,1.1c0.1-1,0.2-2,0.3-3c0,1.7,0.2,3.5,0.6,5.5l-1.2-2.5
							l-0.2-0.6c0.1,1.3,0.2,2.2,0.3,2.8l0.6,3.2l0.1,0.1v0.1l0.1,0.1v0.2l0.1,0.1v0.2l0.1,0.5l0.1,0.1l7.8,22.8
							c0.6,1.8,1.1,3.6,1.5,5.3c0.6,2.2,1,4,1.3,5.4l0.1,0.3v0.1l0.2,0.9v0.2l0,0.1l1.7,18.6l0.1,8c-0.1,1.5-0.2,2.1-0.4,1.8
							c-0.2-0.7-0.3-1.1-0.3-1.1c0.1,1.1,0.1,2.2,0.3,3.1l0.1,0.8l0.1,1.8c0,0.5-0.1,0.5-0.2,0.2c-0.1-0.2-0.1-0.6-0.1-1
							c0,0.3,0,1.1,0,2.3c0,0.7,0,1,0.1,1.1c0-0.8,0.1-1.3,0.3-1.4c0.3-0.3,0.5-0.5,0.5-0.6l-0.1,4.9l-0.3-0.3c0,0.2,0,0.5,0,0.9
							l0.2,1.4c0.2,1.5,0.2,3.2,0.1,5.3l0.9,25.6c-0.1-0.1-0.3-1.3-0.5-3.6c0.1,2.1,0.1,3.4,0.1,3.8c0.1-0.7,0.2-0.4,0.3,0.9
							c0.1,1.1,0.1,1.5,0.1,1.1c0.1,0.8,0.2,1.9,0.4,3.2l0.3,6.4c0,0.2-0.1,0.1-0.1-0.4c0.2,2.1,0.4,5.2,0.8,9.1
							c0,0.4-0.1,0.9-0.3,1.3c0,0,0.1,0.2,0.1,0.6l1.5,15.9l0.5,0.1c0.1,1.1,0.1,1.8,0,2.1c-0.1,0.3-0.1,0.9,0,1.8
							c0.3,0.4,0.5,1.4,0.6,3c0.1,1.6,0.2,2.6,0.4,2.9c0.1,1,0,1.4-0.2,1.4c0.3,0.3,0.5,1.1,0.5,2.4c0.1,0.2,0.1,0,0.2-0.5l0.4,2.1
							c0,0.4-0.1,0.7-0.1,0.7c-0.1,0.1-0.2-0.1-0.3-0.5c0.9,7.9,1.6,14.1,2.2,18.5l1.6,14.7v1l-0.1,0.3l0,1.1l0.2-0.6l0.1-0.1v0
							l0-0.1v-0.4l0.1-0.1v-0.3l0.3-0.9c0.1,0.3,0.1,0.7,0.1,1.4l-0.1,0.5v0.1l0.1,0.3l-0.1,0.1l-0.1,0.1l-0.1,0
							c-0.1,0.1-0.1,0.2-0.1,0.3l-0.1,0.4l-0.2,0.9l0,0.1v0l-0.1,0l-0.1,0.2c-0.1,0.1-0.1,0.2-0.2,0.3l-0.1,0.1l-0.1,0.1l0.1,0.2
							l0.1,0.1l-0.1,0.2l-0.2,0.1l0,0.2l-0.1,0.1l-0.1,0.2l-0.1,0.2l0,0.1l-0.1,0v0.1l-0.1,0.1l-0.1,0.1l0,0.1l-0.3,0.3h-0.1l-0.2,0
							l-0.1,0.1l-2.9,1.5l-0.4,0.2l-0.1,0l-0.4,0.1l-0.1,0h-0.1l-0.9,0.1h0.2l0.2,0c0.2,0.1,0.1,0.1-0.3,0.3c0-0.1-0.2-0.1-0.4,0
							l-0.8,0.1c-0.7,0.1-1.2,0.1-1.3,0l-1.9,0.1c-0.8,0.1-1.1,0.2-0.8,0.4c-0.2-0.1-0.6-0.1-1.3-0.2h-0.1v-0.1h-0.2l-0.1-0.1l0.1,0
							h0.2l0.1,0h-0.2l-0.3-0.1h-1.1l-0.5,0.1l1.1,0.1h-1c-0.2,0-0.5-0.1-0.9-0.1l-1.5-0.1c-0.9-0.1-1.7-0.1-2.6,0l0.9,0.3l-2-0.2
							c-0.6-0.2-1-0.4-1.2-0.5l1.5,0l-2.1-0.3l0,0h-0.2l-0.9-0.2h-0.2l-0.1,0l-0.8-0.1l-0.3-0.1l-0.3,0l-0.1-0.1h-0.2l0.6,0.2
							c-0.8-0.1-1.7-0.4-2.8-1l-0.6-0.4l-0.4-0.3c-0.1,0-0.2-0.1-0.2-0.1l-0.2-0.1h-0.1l-0.3-0.3h-0.1l-0.3-0.4l-0.2-0.1v-0.1h0
							l-1-1.1c-0.5-0.5-0.9-1.1-1.2-1.8l-0.3-0.5v-0.1h0l-0.1-0.2l-0.1-0.3v-0.1h-0.1v0l0-0.3l-0.1-0.1l-0.1-0.5v-0.1l-0.1-0.1
							l-0.8-3.4l-0.3,1.3l-0.1-0.5l-0.1-0.3l-0.3-1.4c0,0.1,0.2,0.3,0.6,0.6c0.3,0.3,0.5,0.5,0.5,0.5l-2.4-36.8
							c0-0.8,0.1-1.1,0.3-0.9c0.1,0.1,0.2,0.3,0.3,0.5c-0.1-0.8-0.2-1.3-0.3-1.6c-0.1-0.2-0.2-0.7-0.2-1.4c0-0.4,0.1-0.3,0.3,0.4
							c0-0.6-0.1-1-0.1-1.2c0-0.3-0.1-0.5-0.2-0.6c0,0.4-0.1,0.7-0.3,0.8c-0.3,0.2-0.4,0.3-0.4,0.4l-0.2-2.6l0.3,0.1l-0.5-1.2
							c-0.3-0.9-0.4-1.8-0.4-2.8l-1.1-13.2l0.3,0.6l0.3,1.2l-0.2-1.9c0,0.2-0.1,0.3-0.1,0.2c-0.1-0.1-0.1-0.3-0.2-0.6
							c-0.1-0.7-0.2-0.9-0.2-0.6l-0.2-0.6l-1.2-4.6h0.9l-0.3-1.1v-0.4l0.1,0.1v-0.3l-0.4-1.4c0,0.1,0,0.2-0.1,0.3c0,0-0.1,0-0.2-0.2
							l-0.3-0.9l-0.2-0.4l-0.1-0.4l-0.5-0.3l-0.9-1.2l0,0v-0.1l-0.1-0.1l-0.2-0.2l-0.7-0.7c-0.5-0.5-1-0.9-1.5-1.3
							c-0.7-0.5-1.3-0.9-1.8-1.1l-1.1-0.5l-0.2-0.1l-0.1-0.1l-0.3-0.1l-0.1,0h0l-0.1-0.1l0.1-1.4l-0.1,1.3h-0.1
							c-0.1,0-0.2-0.1-0.3-0.1h-0.1l0,0h-0.1l-0.1-0.1l-0.1-0.1l-2.4-0.5l-0.9-0.1l0,0c-0.5-0.1-1-0.1-1.4-0.1l0.1,0.1l0.3,0.1
							l-0.6-0.1h-0.2l-0.3-0.1h-0.5c-0.4,0-0.7,0-0.9-0.1l-5.1,0.1c-0.1-0.1-0.3-0.2-0.5-0.3c-0.3,0-0.4-0.1-0.5-0.1
							c0.1,0.1,0.1,0.1,0.1,0.2c0,0.1-0.1,0.1-0.2,0.1c-0.3,0-0.5,0-0.6,0.1c0,0.1-0.2,0.2-0.6,0.2l-8.3,0.3l-0.3,0.2h0v0.1
							l-0.1,0.1l-0.1,0.1l-0.2,0.1h0l-0.1,0.1l-0.3,0.1l-0.1,0.1l-0.5,0.1l-0.6,0.3l0.1-0.1l-1.2,0.6c-0.4,0.1-1,0.4-1.8,0.9
							c-0.8,0.5-1.3,0.9-1.7,1.2l-0.7,0.5l-0.3,0.4l0.2-0.1l-0.3,0.4l-0.2,0.1h0l-0.1,0.1l-0.1,0.1c0-0.1,0-0.1,0-0.2l-0.1,0.2
							l-0.3,0.1l-0.1,0.1h0l-0.1,0.1c0.1,0.1,0.2,0.1,0.3,0.2l-0.4,0.8l-0.1,0.1v0l-0.2,0.3l-0.1,0.4l0.2,0.1L80,241
							c0,0.1-0.1,0.1-0.1,0.1l-0.1-0.1l-0.2,0.5l-0.3,0.5l0-0.2v-0.2l0.1-0.1v-0.1l0.9-2.4l-1,2l0,0.3l-0.1,0.2l-0.1,0.4
							c-0.1,0.3-0.1,0.5,0,0.6l-0.3,0.6l-0.2,0c-0.1,0-0.3,0.3-0.4,0.8l-0.1,0.6c0,0.1-0.1,0.1-0.1,0.2c-0.3,0.8-0.4,1.6-0.3,2.2
							l-0.3,0.3l-0.1,0.1l-0.1,0.1l-0.3,0.5v0.1h0v0.1h0.6c0,0.5-0.1,1.2-0.1,2.1l0.2,1.8c0.1,0.6,0.2,1.2,0.2,1.8
							c0,0.5,0,1.2-0.1,2l-0.1-0.3c-0.1,0.3-0.1,1-0.2,2.2s-0.1,2.1-0.2,2.8c0.1-0.3,0.1-0.5,0.2-0.5c0.1-0.1,0.1,0.1,0.1,0.6
							l-0.3,2.8c-0.1,1.1-0.1,1.8-0.3,2.3l0.2,1.5l-2.3,34.5l-1,9.4l-0.1-0.3l-0.3,1.9l-0.1,0.2l0,0.3v0.1l-0.1,0.1l-0.1,0.1l0,0.3
							l-0.1,0.1v0.1l-0.2,0.5l-0.7,1.8l-0.8,1.5l-0.1,0.2l-0.1,0.2l-0.1,0.1l-0.2,0.2l-0.1,0.1v0l-0.4,0.4l0,0v0.1h-0.1l-0.2,0.1
							c-0.5,0.5-0.9,0.8-1.4,1.1c-0.8,0.4-1.4,0.7-1.9,0.9l-1.4,0.5h-0.2l0,0.1h-0.1l-1,0.3h-0.1l-0.2,0l-4.8,0.5c0,0-1,0.1-3,0.2
							h-0.8l-0.4,0h-1.8c-2.5,0-4.2-0.1-5.2-0.1h-0.3l-1.3-0.1h-0.1l-0.2-0.1h-0.2l-1.6-0.4l-0.2-0.1l-0.2-0.1l-0.2-0.1l-0.2-0.1
							l-1.7-1.1v-0.1h0v0h0l-0.1-0.1L42,320l0.3,0.3v0.1h0v0l0,0.1h-0.1l-0.2-0.1l-0.5-0.6l-0.2-0.2l-0.2-0.3l-0.2-0.1l-0.1-0.1
							c-0.2-0.3-0.4-0.8-0.7-1.5v-0.1l0-0.1l0-0.3l-0.1-0.3l-0.1-0.6V316l-0.1-0.1l-0.1-0.8l0-0.1v-0.3l0-0.4V314l-0.1-0.2v-2.6
							c0-1.4,0.2-3.2,0.4-5.2l0-0.4v-0.3l3-24.5l0.6-10.5l0.1,0.4l1-13.2c0.2-1.4,0.3-2.9,0.3-4.3l0.4-9.3l-0.1,0.5
							c0-1.3,0-2.4,0.2-3.1c0.2-1.1,0.4-2,0.4-2.6c-0.1,0.1-0.2,0-0.3-0.3l-0.2-1.1c-0.1-0.6-0.1-1.4-0.1-2.4l0.1,0l-0.2-3.8
							c-0.1-1.5-0.2-3.1-0.2-4.7l0.3,0.1l-0.1-2.1l0.3-12.4l-0.3-9l0.4-3.3l-0.1-0.5l-1-0.8c-1-0.6-1.7-1-2.3-1.1
							c-1-0.3-1.8-0.3-2.4,0.1c-0.4,0.2-0.7,0.6-1.1,1.1c-0.4,0.6-0.7,1.3-1,2l-0.2-0.1l-0.2,1.6l-0.1,1.6c0,0.3,0,0.5-0.1,0.4
							l0.2-2c-0.1,0.5-0.1,0.7-0.1,0.6c0-0.2,0-0.3,0-0.4c0-0.2,0-0.3,0-0.4l-0.3,1.9c0,0.1,0-0.1,0.2-0.5v1.5c0,0.6,0,1.1-0.2,1.6
							c0,0.5-0.1,0.8-0.3,0.9c-0.1,0.1-0.2,0.4-0.3,1.1l-1.8,22.7c-0.2,2.5-0.3,3.7-0.3,3.8l-0.3,3.8c-0.1,0.1-0.1,0.1-0.1,0.1
							c0-0.2,0-0.3,0-0.4l-0.5,8.7c-0.1,0.2-0.1,0.4-0.3,0.6l0,0c-1.1,0-2,0-2.7-0.2l0.3-0.1l-0.7-0.1l-1.8-0.1l-1-0.2
							c0.2,0.1,0.4,0.2,0.4,0.3c0,0.1-0.1,0.1-0.4,0.1l-1.8-0.3h-0.2l-1.3-0.3l-1,0.1l-1.4-0.3h-0.3L20,246
							c-1.6-0.4-2.7-0.7-3.3-0.9l-0.5-0.1l-0.5-0.2h-0.1v-0.1h-0.1l-0.7-0.3h-0.1l-0.2-0.1l-1.3-0.6l-3.2-1.8
							c-0.6-0.5-1-0.9-1.4-1.2l-2.4-2.7L5.5,237c-0.4-0.8-0.7-1.7-1-2.4c-0.2-0.6-0.3-1.2-0.5-2l0.1,0.1l-0.2-1.3l-0.3-3.2V228
							l0-0.2l0.3-5.8c0.1-2,0.2-3.4,0.3-4.4l0.2-1.1v-0.3l0.2-1.3v-0.3l0.3-1.6V213l0.1-0.3L7.4,202c0.1-0.2,0.6-1.6,1.4-4.2
							c-0.2,0.3-0.3,0.5-0.3,0.4c0-0.1,0-0.3,0.1-0.6c0.3-1.3,0.5-2.1,0.5-2.1c0-0.1,0.1-0.8,0.4-2.3l1-3.8l0.1-0.1v-0.2l0.4-1.3
							c0.7-2.5,1.6-4.9,2.6-7.4c0.9-2.1,2-4.5,3.3-7l2.5-4.6c0.1-0.3,0.2-0.5,0.3-0.8l2.9-5.6v0.3c0-0.1,0.3-0.5,0.6-1.2l9.5-14.1
							l-0.3,0.3c0.4-0.8,0.8-1.4,1.2-1.9c0.7-0.7,1.1-1.2,1.3-1.4c-0.2,0-0.2-0.4,0-1.1c0.2-0.5,0.5-1,0.8-1.6l0.1,0.1l2.5-5.6
							l0.1,0.3l1.3-3.1c0.5-1,0.8-1.9,1.2-2.8l1.5-4.4l0-0.4l0.1-0.3l0.3-1.7l0.1-3.5l-0.3-1.8v-0.4l-0.2-1.2c0-0.2-0.1-0.4-0.1-0.6
							l0.1-1.1l0-0.2l0,0.3l0,0.8c0,0,0-0.1,0-0.1l-0.4-6.3c-0.1-1-0.1-1.7,0-2c0.1-0.1,0.1-0.2,0.1-0.5v-0.5l-0.1-0.2v-0.2
							l-5.9-30.4c-0.3-2-0.7-4.4-1-7l-0.4-8l0.1-1.2v-0.4l0.1-0.8v-0.4l0.1-0.8l0.1-0.2V57l0.1-0.8l1.3-6.6l0.2-0.6
							c0.1-0.1,0.1-0.1,0.1,0l1.7-5.9l0-0.3v0l0.1,0v0l0-0.1l0.2-0.7l0-0.1l0-0.2l0.2-0.4v0l0,0l0-0.1l0-0.2l2.7-5.7l0.9-1.1
							c0.2-0.2,0.4-0.4,0.5-0.4c-0.1,0,0-0.1,0-0.2l0.4-0.6c0.3-0.5,0.9-1.3,1.8-2.4c0.8-1,1.8-2.1,2.8-3.3l7.5-6.5l0.1-0.1h0
							l0.1-0.1l8.3-5.3l0.1-0.5l2.4-1.2c0.1-0.1,0.4-0.1,0.8-0.3c0.3,0,1.3-0.4,3-1.2c0.9-0.7,2.5-1.4,4.8-2.1
							c0.5-0.2,1.4-0.4,2.8-0.8c1-0.3,1.7-0.5,2-0.7l0.1,0H81L82.4,8h0.3L82.8,8C83,8,83.1,8,83.1,8l0.7-0.3L87,7.1
							C87.2,7.1,87.2,7,87,7c-0.5,0-0.7,0-0.8,0l3.6-0.6c0.8,0,1.2,0,1.3,0.1c0.1,0.1-0.2,0.2-0.9,0.3l2.8-0.2l0.3-0.1l1.9-0.1
							c2.3-0.1,4.8,0,7.7,0.2l7.5,0.9l0.1,0.1h0.2l0.3,0l0.4,0.1h0.1l0.2,0l3.1,0.7c0.6,0.1,1.4,0.3,2.5,0.6l4.8,1.5
							c1.5,0.6,2.9,1.2,4.4,1.9c1.5,0.8,2.7,1.6,3.7,2.4c0.5,0.4,1,0.8,1.5,1.3l0.1,0.1l0.1,0l0.1,0.2l4.1,4.7
							c0.5,0.6,1.3,1.7,2.4,3.3l2.1,3c1.1,1.8,2,3.3,2.7,4.7l-0.2-0.6l-1.8-3.5c-0.1-0.3-0.2-0.5-0.3-0.6l-0.1-0.5
							c0.5,0.7,1.1,1.6,1.7,2.7l0.5,1l0.6,0.7c0,0.3,0.1,0.8,0.4,1.4l0.4,1l0.2,0.3v0.1h0.1v0.1l0.1,0.2l0.6,1.2l0.1,0.2l0,0.2
							l1.3,2.7c0.2,0.6,0.4,0.9,0.4,1l0.8,0.6l0.6,1.5c1.5,2.3,2.7,4.1,3.8,5.5l2.4,3.1l0.2,0.2l0.6,0.7l0.1,0.1l1.3,1.3l0.2,0.2
							l0.5,0.5l10.3,7.9C168.3,62.1,168.8,62.5,169.2,62.8 M164.5,162.6l1.4,2.3l0.3,0.3c0.3,0.6,0.4,0.9,0.3,0.9
							c0.3,0.1,0.6,0.5,1,1.3c0.1,0,0.1,0,0.1-0.1c0-0.1-0.1-0.2-0.1-0.2l0.8,1.1c0.1,0.3,0.1,0.4,0.1,0.5c-0.1,0-0.2-0.1-0.3-0.3
							l6.6,12.1l4,9.1l0.3,0.8v-0.4l-0.1-0.3v-0.1l-0.1-0.2c-0.2-0.4-0.2-0.8-0.1-1.1c0.1,0.2,0.3,0.6,0.5,1.1
							c0.2,0.4,0.3,0.6,0.4,0.7c-0.2,0.2-0.1,0.7,0.1,1.4v0.1l0.1,0v0.2l0.1,0.2l0.1,0.5c0,0.3,0,0.6,0,0.8l0.4,0.2v0.6l1.1,2.6
							l0.7,2.3c0.3,0.7,0.7,1.5,1.2,2.6c0.4,0.7,0.6,1.3,0.6,1.8c0-0.1,0-0.2,0.1-0.3c0-0.1,0.1-0.1,0.3,0.1c-0.1,0.1,0,0.4,0.3,0.9
							c0.3,0.5,0.4,0.9,0.3,1c0.5,1.5,0.9,2.1,0.9,1.8c0,0.1,0,0.5,0.1,1.1c0,0.4,0,0.4-0.2,0.1c0.2,0.9,0.4,1.4,0.6,1.6l-0.2-0.8
							c0,0.1,0.3,0.9,0.8,2.4l0.3,0.9l0.4,0.8l-0.1-0.8l0.5,1.5c0.1,0.5,0.1,0.9,0.1,1.2l-0.5-1.2l0.8,2.3l0.1,0.1l0.6,1.8l-0.1-0.6
							l0.8,2.6c0.3,1.1,0.7,2.5,1,4.3l1.1,5.3l0.1,0.4l0.1,0.3v0.1l0,0.2l0.2,0.7l0.3-0.9l0.3,1.5c0,0-0.2-0.1-0.6-0.3l-0.4-0.4
							l0.1,1l0.1,0.3l-0.1,3.1c-0.1,1-0.2,2-0.5,2.9c-0.2,1-0.6,1.9-1,2.6l-0.3,0.6l-0.1,0.1l-0.1,0.1l-0.3,0.5l-0.5,0.5l-0.1,0.1
							l-0.4,0.5c-0.6,0.7-1.4,1.3-2.2,1.9c-0.8,0.5-1.4,0.9-2,1.2l-1.4,0.5c-0.4,0.1-0.6,0.1-0.6-0.1l0.2-0.3
							c-0.2,0.1-0.4,0.2-0.5,0.3l-0.2,0.1l-0.2,0.3h-0.1l-0.4,0.2c-0.3,0-0.2-0.1,0.2-0.4l-0.4,0.2h-0.1l-0.1,0.1h-0.2l-0.3,0.1
							c0.2,0,0.4,0.1,0.5,0.3l0.1,0.2l0.1,0.2h0.1l-1.5,0.3l0.1-0.3l-0.7,0.6l-0.7,0.3l-0.4,0.1l-0.6,0.1c-2.5,0.3-3.9,0.5-4.2,0.6
							l-4.3,0.3c0-0.1,0.1-0.1,0.4-0.2l0.3-0.1l0.4-0.1l-1.3-0.1c0.3,0.1,0.2,0.2-0.3,0.2c-0.4,0.1-0.5,0.1-0.4,0.1l-0.8,0.2h-0.1
							l-0.8-7.6v0.6c-0.1-0.3-0.1-0.6-0.2-1c0-0.3,0-0.6,0.1-0.8l0,0.1c0-1.1,0-2.5,0-4.3l-0.3-3.7c-0.3-3.1-0.5-5.7-0.4-7.6
							l0.1,0.6c0-0.6-0.1-2-0.1-4.3c-0.1-2.1-0.2-3.8-0.2-5.1c0,0.4-0.1,0.6-0.1,0.7c-0.1,0.1-0.2-0.4-0.3-1.4
							c0-0.4-0.1-2.3-0.2-5.6l0-4.7l-0.1-0.6v-0.2l0-0.1v-0.1l-0.1-0.4v-0.1l0-0.1v-0.1l-0.1-1.1l0.2-12.3c0.1-1.8,0.1-3.7,0-5.7
							l-0.2-12.8c-0.1-3.1-0.3-5.5-0.4-7c-0.1-1.6-0.3-3-0.4-4.2c0.1,0.1,0.1,0.3,0.1,0.3c0,0.2,0.2,0.6,0.6,1.1L164.5,162.6
							 M81,238.3c0,0.1,0.1,0.2,0.1,0.3l-0.1,0.1v0.1l-0.2,0.4c-0.1-0.1-0.1-0.1-0.2-0.1C80.8,238.7,80.9,238.5,81,238.3
							 M108.4,243.8L108.4,243.8L108.4,243.8L108.4,243.8z"/>
					</g>
				</g>
			</g>
		</g>
	</g>
</g>
</svg>
