<?xml version="1.0" encoding="utf-8"?>
<!-- Generator: Adobe Illustrator 24.1.2, SVG Export Plug-In . SVG Version: 6.00 Build 0)  -->
<svg version="1.1" id="Layer_1" xmlns="http://www.w3.org/2000/svg" xmlns:xlink="http://www.w3.org/1999/xlink" x="0px" y="0px"
	 viewBox="0 0 256 256" style="enable-background:new 0 0 256 256;" xml:space="preserve">
<style type="text/css">
	.st0{fill:#FFFFFF;}
</style>
<g id="idle3">
	<g transform="matrix( 0.6996917724609375, 0, 0, 0.6996917724609375, 57.25,20.7) ">
		<g id="idle">
			<g transform="matrix( 1, 0, 0, 1, 0,0) ">
				<g>
					<g id="idle_2_Layer0_0_FILL">
						<path class="st0" d="M70.2-5.7l-9.7,4.3c-2.7,1.4-5,2.7-7,4L53,2.9l-3.6,2.5l-0.2,0.1l-0.1,0.1l-1.5,1.1l-0.1,0.1h0l-0.1,0.1
							l-0.3,0.1l-0.9,0.7c-2.3,1.8-4.6,3.9-6.8,6.1c-2,2.1-3.8,4.3-5.5,6.6c-1.3,1.8-2.5,3.8-3.7,6l-1.8,3.9l0.3-0.6l-1,2.6v0l0,0.1
							v0.1l-3,8.6c0.1-0.1,0.2,0.1,0.2,0.6l-1,7.3l-0.1-0.1l-0.4,7.6l1,10.2l-0.3-0.2c0.3,1.6,0.9,4.6,1.6,9.1l3.2,14.1
							c0.1,0.4,0.6,2.8,1.6,7.2l3.1,14.8l0,0.4v0.4l0.4,3.9v0.4l0.1,0.4l0.1,0.8l0.1,0.3l0,0.2l-0.8,2.2c-0.6,1.6-1.3,3-2.1,4.4
							l-5.2,8.9c-0.1,0.1-0.1,0,0-0.3l-3.1,5.2c-0.2,0.3-0.5,0.5-0.8,0.6c0.1,0-0.2,0.4-0.8,1.4l-0.4,0.7l-0.1,0.2l-0.1,0.2
							l-4.5,7.4l0.3,0.4c-0.4,0.7-0.8,1.1-0.9,1.1c-0.2,0.1-0.5,0.5-0.8,1.1c0,0.4-0.2,1-0.8,1.9c-0.6,1.1-1,1.7-1,1.9
							c-0.3,0.6-0.5,0.8-0.6,0.7v0.4l-0.2,0.3c-0.1,0.2-0.3,0.5-0.4,0.9c0,0.1,0,0.1,0.1,0.1c0.1-0.1,0.2-0.2,0.2-0.3l-0.6,1.3
							c-0.2,0.3-0.3,0.4-0.3,0.4c-0.1,0-0.1-0.1,0-0.4l-6.6,14l-0.8,2l0,0.3l-2.3,7.6v0.1l-0.2,1.1c0.1-0.1,0.2-0.4,0.4-1.1v-0.1
							l0.1-0.2l0.1-0.3c0.2-0.3,0.3-0.4,0.4-0.5l-0.2,0.8v0.2l0,0v0.1l-0.1,0.2C2,184.1,2,184.4,2,184.4c-0.2,0.1-0.4,0.5-0.7,1.3
							c-0.2,0.9-0.5,1.4-0.7,1.6l0.2,0.4l-0.3,0.4L0,191c-0.3,0.8-0.5,1.5-0.7,2.3c-0.2,0.8-0.4,1.7-0.5,2.8
							c-0.1,0.8-0.3,1.5-0.4,1.9c0-0.1,0.1-0.2,0.1-0.2c0.1-0.1,0.1,0,0.1,0.3c-0.1,0-0.2,0.3-0.3,0.8c-0.1,0.6-0.2,0.9-0.3,1
							c-0.4,1.6-0.4,2.3-0.1,1.9c-0.6,1.3-0.8,1.7-0.7,1c-0.3,0.7-0.4,1.2-0.4,1.5l0.3-0.8c-0.2,0.7-0.4,1.5-0.7,2.4l-0.1,0.4v0.1
							l-0.1,0.1l0,0.3v0.1l0,0.1l-0.1,0.9l0.4-0.9l-0.4,1.9l-0.3,0.7c0,0.2-0.1,0.3-0.3,0.5l0.1-1.4l-0.5,4.1v1.3l0.1-0.7l0.3,13.1
							c0.1,1.4,0.3,2.5,0.7,3.3l0.1-1.1l0.5,1.9l-0.6-0.5c-0.3-0.2-0.5-0.4-0.5-0.5l0.8,4l0.6,1.9c0.5,1.5,1.2,2.9,2.1,4.4l1.6,2.3
							l0.2,0.2l0.1,0.2l0.4,0.4l0.1,0.1l0.8,0.8c1.1,1.1,2.4,2.2,3.7,3.2c1.2,0.8,2.4,1.6,3.8,2.3c1.1,0.5,2.2,1,3.3,1.4l0.8,0.3H14
							c0,0,0.1,0.1,0.1,0.1h0.1l0.7,0.3h0.1l0.1,0l0.2,0.1c0.4,0.1,0.6,0.3,0.6,0.4c0.1,0.1,0.1,0.1,0,0.2l-0.5,0.1
							c0.3,0.1,0.7,0.1,1,0.1h0.4c0.2,0,0.5,0,1,0.2c0.2,0,0.2,0.1,0,0.1l-0.4,0.1l0.9,0.2c0.3,0.1,0.4,0.1,0.5,0
							c-0.3-0.1-0.5-0.3-0.5-0.4c-0.1-0.3-0.1-0.5-0.2-0.5l2,0.4l-0.1,0.3c0.2,0,0.5,0,1-0.1c0.6-0.1,1.3-0.1,2,0.1
							c1.1,0.2,2.7,0.3,4.9,0.4l4,0.1v0.3c-0.1,0-0.3,0-0.5,0.1c0.1,0,0.3,0,0.5,0.1l-0.5,7.3l0.5,0.3l-0.2,1.5l-0.3,0.5
							c-0.2,0.3-0.3,0.9-0.3,1.8c0.3,0.5,0.3,1.5,0,2.9l-0.2,1.7c-0.1,0.6-0.1,1,0,1.2c-0.1,0.9-0.3,1.4-0.4,1.3
							c0.2,0.3,0.2,1.1-0.1,2.4c0,0.1,0.1,0.1,0.2-0.1l0.1-0.4l0,2.1c-0.1,0.4-0.2,0.6-0.3,0.6c-0.1,0-0.1-0.2-0.1-0.6l-3.2,26.8
							v0.3l0,0.1v0.4l-0.5,7l0.1,3.6c0,0,0-0.7,0.1-2c0.1-1,0.2-1.6,0.4-1.8c0.1,0.6,0.1,1.3,0.1,2.1l0,0.4l0.1,1l-0.1,0.4l-0.1,0.6
							v0.8l0.1,0.1l0.2,2.5c0.1,0.8,0.1,1.3,0.1,1.6l0.5,0.5l0,0.5v0.3l0,0.3c0.3,0.7,0.7,1.6,1.2,2.7l0.2,0.4l0,0.1l1.6,2.5
							l0.2,0.3l0.3,0.4l1,1.3l0,0.1c0.2,0.2,0.2,0.2,0.2,0.3h0l0.1,0l0.1,0.1l0.2,0.2l0.1,0l0.5,0.6h0.1l0,0l0.1,0.1l0.7,0.5
							c0.9,0.7,1.9,1.3,3,1.9l2,0.8l0.5,0.1c0.5,0.2,1.2,0.4,2,0.6l1.8,0.5c-0.3-0.1-0.5-0.2-0.6-0.3c-0.1,0-0.1-0.1,0-0.1l0.5,0
							l0.2,0.1l0.2,0v0.1h0.2l0.1,0h0.2l0.6,0.1h0.3c1,0.1,1.6,0.2,1.8,0.3l0.5,0.1l2.4,0l0.3,0c0.2-0.1,0.1-0.2-0.1-0.3
							c0.1,0,0.6,0.2,1.6,0.4l0.5,0.1c0.2,0,0,0-0.5,0.1c1.2,0.1,2.1,0.1,2.5,0l-1.2-0.1h1.1l0.5,0h2.2c1.2,0.1,2.2,0,3-0.3L59,335
							c0.6,0,1.5-0.1,2.5-0.1c0.8,0,1.4,0.1,1.8,0.3l-1.7,0.3h0.3l3.4-0.5h0.3l1-0.3h0.1l0.2,0l0.5-0.1l0.1,0h0l0.1-0.1l1.6-0.5
							l0.1,0l-0.9,0.2l0.7-0.3l0.3,0l0.5-0.3l0.7-0.2c1-0.4,2-0.9,3.1-1.4l3-1.9l1.3-1.1l0.2-0.1l1.7-1.7l0-0.1h0.1c0,0,0,0,0-0.1
							H80l0.1-0.1l0.8-0.9c0.8-1,1.6-2.3,2.4-4l1.4-3.7l0.4-1.6v-0.1l0.1,0v-0.1l0-0.1l0.1-0.7l0.1-0.1v-0.1l0.1,0l0.2-1.9l-0.7,1.4
							c0.1-0.6,0.2-1.5,0.3-2.7c0,0.1,0.1,0.4,0.4,0.9c0.2,0.4,0.4,0.6,0.4,0.8l0.3-1.3l3.2-36.3c0.1-0.8,0.3-1.1,0.4-0.9
							c0.1,0.1,0.2,0.3,0.3,0.6c0-0.8-0.1-1.4-0.2-1.6c-0.1-0.3-0.1-0.7-0.1-1.4c0-0.2,0.1-0.3,0.2-0.1c0.1,0.1,0.1,0.3,0.1,0.4
							c0-0.1,0-0.5,0.1-1.1c0-0.4,0-0.6-0.1-0.6c-0.1,0.4-0.2,0.7-0.4,0.8c-0.3,0.1-0.5,0.2-0.5,0.3l0.2-2.6l0.3,0.2
							c0-0.1,0-0.3-0.1-0.6l-0.3-0.8c-0.2-0.7-0.2-1.6-0.1-2.8c0.1-1.1,0.1-2.2,0.1-3.3l0.2-10c0.1,0.1,0.2,0.7,0.3,1.9
							c0-1.1,0-1.7,0.1-2c-0.1,0.5-0.2,0.4-0.2-0.4l-0.1-0.6c-0.1-0.7-0.2-1.5-0.2-2.5v-5.3l-0.2-1.3l0.5-0.4h-0.1l0.3-0.3l0,0.1H90
							v-0.1l0.1,0l0-0.1l0.1-0.1l0.1-0.1l0.1-0.1l0.3,0.3c-0.1-0.1,0-0.3,0.3-0.4l0.5-0.3l-0.2-0.4c0,0,0.1,0,0.2,0l0.1,0.1l0.1,0.1
							h0.1c-0.1-0.3,0-0.4,0.1-0.3h0.2l0.1-0.1l0.1,0.1h0.1l0.1,0.1c0-0.1,0-0.2,0.1-0.2h0.2v-0.1l-0.1-0.2v-0.1l0.1-0.1v0
							c0.2,0.2,0.2,0.3,0.1,0.3l4.1,0.1l0.2-0.1l-0.1-0.1l-0.1,0l-0.1-0.1l-0.2-0.1l0-0.1l-0.1-0.1h0.2v-0.1h-0.1l0-0.1h0.2
							c0.1,0.1,0.1,0.1,0.1,0c0,0.2,0.1,0.3,0.3,0.4c0.2,0,0.4,0.2,0.4,0.4l0-0.3l0.2,0.3c0.4-0.1,0.6-0.2,0.7-0.2l0.6,0.2
							c0.2,0,0.4-0.1,0.6-0.2c0.2-0.1,0.4-0.2,0.5-0.2c0,0,0,0,0-0.1c0-0.1,0-0.2,0-0.2c0,0.1,0.1,0.1,0.2,0.1
							c0.2-0.1,0.3,0,0.3,0.1c0.1,0,0.2,0,0.3-0.1c0.1,0,0.2-0.1,0.2-0.4c0,0,0.1,0.1,0.2,0.3c0.1,0.1,0.1,0.2,0,0.3
							c0.2,0.1,0.3,0.1,0.4,0l-0.2-0.1c0.1,0,0.3,0,0.6,0.1c0.2,0,0.3,0,0.4-0.1l-0.2-0.2h0.2l0,0h0.2l0.1,0.1
							c0.1,0,0.2,0.1,0.2,0.4l-0.3,0.1h0.6l0.6-0.2h-0.2c0.1-0.1,0.5-0.2,1.1-0.3l0.9-0.2h0.1l0.1,0h0.2v-0.1l0-0.6l0.1-0.1v-0.4
							l0.1-0.6l0.2-2l0.1,0v-0.3l0.2-0.9l-0.4,4.9c0.4-0.1,0.6-0.2,0.8-0.4l-0.2-0.3l0.3-0.2c0,0.1-0.1,0.3-0.1,0.5
							c-0.1,0.2-0.1,0.3-0.2,0.4l1.4,0.2h0c-0.1,0.1-0.1,0.2-0.1,0.4l0.1,0.3l1.1,0l0.2,0.1v0.1c-0.1,0.2-0.1,0.3-0.2,0.3l-0.2,0.1
							l0.3-0.1l-0.1,0.1h-0.1l0.1,0.1h-0.1v0.1l0.1,0c0.1,0.1,0.1,0.1,0.1,0.1c0-0.1,0-0.2,0.2-0.3c0.2-0.2,0.3-0.3,0.3-0.4l0.1,0.1
							l0.1,0v0.1l-0.2,0.2l0.3-0.2l0.2-0.1c0.1-0.1,0.1-0.1,0.1,0.1v0.1l0.1,0.1v0.1l0.1,0.1l0.1,0.3h-0.3l-0.1,0.1l0.3-0.1
							c0,0,0.1,0,0.1,0l0.2,0.1l0.1,0l0.6,0.5l-0.3,6.3l-0.2-0.3v5.3l0.2-0.6c0.1,0,0.1,0.1,0.1,0.1l0.1,0.6l0.1,3
							c0.1,1.2,0.1,2,0,2.5l0.5,1.6l0.8,9.7c0.1,1.2,0.2,3.5,0.5,6.8l2.2,31.3l1,8l0.1,0.3l0,0.2v0.2l0.1,0.1l0.2,0.8l0.1,0.1v0
							l0.1,0.4l0.1,0.2v0.1l0.2,0.5c0.2,0.6,0.5,1.3,0.9,2.1l2.3,3.8l0.7,0.9l0.4,0.4l0.1,0.1l0.5,0.5v0.1l0.1,0l0.1,0.1l0.2,0.2
							l3.4,3l1.5,1c1.3,0.8,2.7,1.5,4.3,2l1.1,0.4l0.3,0l0.6,0.2h0.1l0.2,0l4.3,0.9h0.3l0.3,0.1l1.5,0.1c1.7,0.1,3,0.2,3.8,0.2
							c0.2,0,0.5,0.1,0.9,0.1l9.3-0.3c1.4-0.1,2.5-0.3,3.3-0.4l4.3-1l0.3-0.1l0.3,0l0.6-0.2c0.8-0.3,1.6-0.6,2.2-0.9
							c0.8-0.4,1.6-0.9,2.3-1.4l1-0.8c0.1-0.1,0.3-0.2,0.5-0.4l0.1,0h0.1v0l0.1-0.1l0.3-0.3l-0.4,0.3l-0.1,0.1l-0.3,0.2
							c-0.1,0-0.2,0-0.2,0l0.3-0.4l0.2-0.1l0.1-0.2l0.6-0.6l0.2-0.2l0.4-0.5l0.2-0.3l0.1-0.1l0.1-0.1l0.6-0.7l0.9-1.5l0.2-0.6l1-2.6
							l1-4.3l0.1-0.6l0-0.1v-0.1l0.1-0.4v-0.4l0.1-0.2l0.1-1.1l0.1-0.4v-1.1l0-0.4l-0.1-3l-1.5-12.8c-1.2-9.5-2-16.2-2.3-20.3
							c-0.3-1.1-0.4-2-0.5-2.7l-0.4-2.9c-0.4-3.3-0.7-5.1-0.8-5.5l0.1,0.3c-0.2-1-0.4-2.7-0.6-5.3l-0.6-5.7h0.4c0.3,0,0.6,0,0.8,0
							l-0.3,0.1c0.6,0.1,1.9,0.1,3.9-0.1l-0.5-0.1c0-0.1,0.2-0.2,0.6-0.2l4.1-0.3l1.1-0.4l4-0.9l0.5-0.1l0.3-0.1l1.1-0.3h0.1
							l0.1-0.1l0.3,0l3.5-1.5l0.4-0.2c0.8-0.4,1.7-0.9,2.7-1.5c0.9-0.6,1.8-1.2,2.6-1.9l1.9-1.7l0.3-0.3l0.3-0.3l1.8-2V243l0.1-0.1
							l1.6-2.3l0.3-0.6l0.3-0.4l1.3-3.1l0.8-2.9c0.3-1.6,0.4-3.2,0.5-4.8v-3.3l0.1,0.3l-0.1-0.4v-0.7l-0.3-1.8v-0.3l-0.1-0.2v-0.1
							l-1.7-10.6l-1.6-6l-0.1-0.1v-0.1l-0.1-0.1l-5.4-13.5c-0.1-0.4-0.5-1.8-1.3-4.3c0.1,0.4,0.1,0.5,0,0.5c-0.1,0-0.2-0.2-0.3-0.5
							c-0.3-1-0.6-1.7-0.8-2.1c-0.1-0.1-0.5-0.8-1-2.1l-1.3-3.4l0-0.2l-3.3-7.6l-0.2-0.3l-4.9-9.5c-0.8-1.6-1.7-3.3-2.7-4.9
							l-3.4-4.8c-0.4-0.6-0.8-1.1-1.1-1.5l0.2,0.2l-2.5-3.6l-0.1-0.3l-8.5-11.6l0.2,0.3c-0.6-0.6-1-1.2-1.3-1.7
							c-0.4-0.9-0.7-1.4-0.9-1.6c-0.1,0.2-0.4,0-0.9-0.4l-1.1-1.3l0.1-0.1l-0.3-0.4l-6.9-20.2l-0.1-0.1v-0.1l-0.1,0v-0.1l-0.1-0.1
							v-0.1l-0.1-0.2l-0.1-0.9l0.1,0.4c-0.2-1.2-0.4-2.3-0.4-3.4l0.1-1.9l0.3-1.3V103l0.1-0.1l0.3-0.9l0.5-1.1l0.1-0.1l0.1-0.2
							l0.1-0.1l0.1-0.1l0.1-0.1v-0.1l0.1-0.1l0.1-0.1l0-0.1l0.1-0.1l0.3-0.3l0.1-0.2l0.3-0.3l1.5-1.2l1.8-1.1l0.3-0.1l0.1-0.1h0.1
							l0.1-0.1l0.2-0.1l0.2,0l0.1-0.1h0.1l0.4-0.2l0.1-0.1h0.1l0.9-0.3l11.5-3c0.7-0.2,1.8-0.5,3.3-0.9l5.2-1.8h0l0.1-0.1l0.4-0.2
							l0.1-0.1h0.1l0.1,0l0.4-0.2l0.1-0.1l0,0l0.2-0.1l0.7-0.4c1.3-0.7,2.5-1.5,3.7-2.4c1.1-0.9,2.2-2,3.3-3.3l0.4-0.4l0.2-0.3
							l0.2-0.3l1.4-2.5l0.1-0.2l0.1-0.3v-0.1l0.1,0l0.1-0.2c0.6-1.5,1.1-3,1.3-4.6c0.2-1.6,0.3-3.1,0.1-4.6l-0.8-4.5v-0.2l-0.1,0
							v-0.1l-0.1-0.6l-0.1-0.1l-0.1-0.2v0l-0.8-2.3c-0.5-1.2-1.1-2.3-1.7-3.4c-0.5-0.8-1.2-1.8-2-3l-1.4-1.7l-0.1-0.1l-0.1-0.1
							l-0.2-0.2l-2.3-2.3l-15.2-12.4l-0.6-0.7l-0.3-0.2l-0.1-0.1l-0.1-0.2l-0.4-0.4l-0.3-0.5l0.5,0.8c0.1,0.1,0.1,0.2,0,0.2
							l-1.2-1.2l-1-1.3l-0.3-0.3l-1.1-1.6l-0.1-0.3l-1.3-1.4c-1.2-1.8-2.1-3.2-2.7-4.1l-0.7-1.1l-0.1-0.4l-0.2-0.3l-4.5-7.9
							c-0.8-1.2-1.7-2.7-2.9-4.4l-4.1-5.5L140,2.5l-0.2-0.1l-0.3-0.3c-0.7-0.7-1.6-1.5-2.7-2.2c-0.7-0.6-1.7-1.2-2.9-1.9
							c-1.1-0.6-2.1-1.2-3-1.6c-2-1-4-1.8-6.1-2.5l-10.5-2.8l-1.8-0.3l-0.4-0.1l-4.8-0.7c-3.4-0.4-6.5-0.6-9.5-0.7h-2.8
							c-0.2,0-0.5,0.1-0.9,0.1c-0.4,0-0.6,0-0.8,0.1l-2,0.1L84-9.5l-0.3,0.1l-1.4,0.3l-0.3,0.1L81.5-9l-3.4,0.8L78-8.2h-0.1
							l-0.1,0.1l-8.3,2.7L70.2-5.7 M172.7,59.8l1.1,1.2l0.1,0.2l0.1,0l0.8,0.8l0.1,0.1l1.4,1.5c0.1,0.1,0.1,0.1,0.2,0l-0.1-0.3
							l0.9,1.9l0.1,0.2l0.1,0.1l0.1,0.4c0,0.1-0.1-0.1-0.4-0.5l0.9,2.3l0.1,0.3l0.1,0.1v0l0,0V68l-0.3-1.1l0.1,0.4l0.1,0.3l0.1,0.2
							l0.1,0.3v0l0.2,0.7v0.1l0.1,0.3l0.1,0.1v0.2c0.1,0.6,0.2,1.3,0.2,1.9l-0.4,2.8l0.1-0.1l0.1-0.1l0.1-0.2l0.2-0.5l-0.3,1.2h-0.1
							l-0.1,0.2l0,0.1v0.1l-0.1,0.1v0.1l-0.1,0.1l-0.3,0.4l-0.2,0.1l-0.2,0.2l-0.1,0.2l-0.2,0.1l-0.2,0.1l-0.3,0.1l0.3-0.3l0.1-0.1
							l0.1-0.1l0.1-0.2l0.1-0.1l0-0.1l0.2-0.4l-0.1,0.1l-0.1,0.1l-0.1,0.1V75l-0.1,0.2l-0.9,0.8l-0.1,0.1l-0.1,0.1l-0.4,0.3
							c-0.1,0.1-0.2,0.1-0.2,0.1l-0.8,0.6l-0.1,0l-0.1,0.1l-0.3,0.1l-0.1,0.1l-0.2,0l-0.2,0.1l-0.1,0l-0.2,0.1l-0.1,0.1l-0.2,0
							l-0.1,0.1l-0.3,0.1l-0.3,0.1l-2.3,0.9l1.4-0.4c-0.8,0.4-1.7,0.7-2.7,1l-15,4.4l-0.3,0.1l-1,0.4l-0.1,0h-0.1l-0.1,0.1l-1.6,0.7
							l-0.1,0.1l-0.2,0.2l-0.5,0.2l-0.4,0.3l-0.2,0.2l-2,1.3c-1.1,0.8-2.3,1.7-3.4,2.8l-2.1,2.5l-0.2,0.3c0,0.1-0.1,0.1-0.1,0.2
							l-0.1,0l-0.1,0.1l-0.1,0.2l-0.1,0.1l-0.1,0.1l-0.1,0.3l-0.1,0.1l-0.1,0.1l-0.3,0.4l-1.3,2.8l-0.9,3.4c-0.2,1-0.3,2-0.4,2.9
							v2.2l0.1,0.3v0.2l0.2,1.1c0.1-1,0.2-2,0.3-3c0,1.7,0.2,3.5,0.6,5.5l-1.2-2.5l-0.2-0.6c0.1,1.3,0.2,2.2,0.3,2.8l0.6,3.2
							l0.1,0.1v0.1l0.1,0.1v0.2l0.1,0.1v0.2l0.1,0.5l0.1,0.1l7.8,22.8c0.6,1.8,1.1,3.6,1.5,5.3c0.6,2.2,1,4,1.3,5.4l0.1,0.3v0.1
							l0.2,0.9v0.2l0,0.1l1.7,17.6l0.1,9c-0.1,1.5-0.2,2.1-0.4,1.8c-0.2-0.7-0.3-1.1-0.3-1.1c0.1,1.1,0.1,2.2,0.3,3.1l0.1,0.8
							l0.1,1.8c0,0.5-0.1,0.5-0.2,0.2c-0.1-0.2-0.1-0.6-0.1-1c0,0.3,0,1.1,0,2.3c0,0.7,0,1,0.1,1.1c0-0.8,0.1-1.3,0.3-1.4
							c0.3-0.3,0.5-0.5,0.5-0.6l-0.1,4.9l-0.3-0.3c0,0.2,0,0.5,0,0.9l0.2,1.4c0.2,1.5,0.2,3.2,0.1,5.3l0.9,25.6
							c-0.1-0.1-0.3-1.3-0.5-3.6c0.1,2.1,0.1,3.4,0.1,3.8c0.1-0.7,0.2-0.4,0.3,0.9c0.1,1.1,0.1,1.5,0.1,1.1c0.1,0.9,0.3,2.2,0.4,3.8
							l0.2,6.9c0,0.1-0.1,0-0.1-0.4l0.8,9.4c-0.1,0.4-0.2,0.9-0.4,1.3c0.1,0,0.1,0.2,0.1,0.6l1.5,16.5l0.5,0.2
							c0.1,1.1,0.1,1.8-0.1,2.1c-0.1,0.3-0.1,0.9,0.1,1.9c0.3,0.4,0.5,1.4,0.6,3.1c0.1,1.6,0.2,2.6,0.4,2.9c0.1,1,0,1.5-0.2,1.4
							c0.2,0.2,0.3,0.5,0.3,1c0.1,0.8,0.1,1.3,0.2,1.4c0.1,0.1,0.1,0.1,0.1,0c0.1-0.3,0.1-0.5,0.1-0.5l0.3,2.1c0,0.4,0,0.7-0.1,0.8
							c-0.1,0.1-0.2-0.1-0.3-0.5c0.5,5.2,1.2,11.6,2.1,19.1l1,7.9l0.1,0.2v0l0.7,8.7v0.9l0.1-0.1l0.1-0.1v-0.2l0.1-0.1v-0.1l0-0.1
							V313l0.1-0.3v-0.4l0.1-0.3v-0.2l0.1-0.2l0.1-0.3l0.1,0.4v1.4l-0.1,0.2l0.1,0.4l-0.1,0.1v0l-0.1,0v0.1l-0.2,0.6v0.1l-0.1,0
							l-0.1,0.2l0,0.4l-0.1,0.2l-0.1,0.5l-0.2,0.4l-0.1,0.1c-0.1,0.2-0.2,0.3-0.3,0.3l0.3,0.4l-0.2,0.2l-0.1,0l-0.1,0.1l-0.1,0.3
							l0,0.3l-0.1,0.3v0.1l-0.1,0v0.1l-0.1,0.3v0l-0.1,0.1v0.1l-0.1,0l-0.1,0.1l0,0c0,0,0,0-0.1,0.1c0,0,0,0-0.1,0s0,0-0.1,0
							l-0.2,0.2h-0.1v0l0,0.1l-2.8,1.6l-0.8,0.3c0,0,0.1,0,0.1,0l-0.1,0l-0.1,0.1h-0.1l-0.3,0l-0.6,0.1h0.3l0.2,0c0,0,0,0.1,0,0.1
							l-0.1,0.1l-0.3,0c0-0.1-0.1-0.1-0.3,0l-0.8,0.1c-0.8,0.1-1.2,0.1-1.4,0l-2.4,0.2l-0.3,0.1c-0.1,0.1-0.1,0.1,0,0.2
							c-0.2-0.1-0.7-0.1-1.4-0.2l-0.3-0.1l0,0h-0.1l-0.1-0.1l0.1,0h0.1l0.3,0h-0.3l-0.3-0.1h-1.5l-0.2,0.1l1.1,0.1h-1
							c-0.2,0-0.5-0.1-0.9-0.1l-1.6-0.1c-1.1-0.1-2-0.1-2.6,0l0.3,0l0.2,0.1l0.5,0.1c-1.9-0.1-3-0.4-3.3-0.8l1.5,0l-1.7-0.2l-0.1,0
							h-0.2l-0.1,0h-0.1l-0.7-0.2h-0.1l-0.3,0l-0.1,0h-0.1l-0.1-0.1l-1.8-0.4l0.3,0.1l0.1,0.1l0.2,0c-0.4-0.1-0.8-0.2-1.2-0.4
							c-0.4-0.1-0.9-0.4-1.6-0.7l-0.4-0.3l-1-0.8l-0.1-0.1h-0.1v0l-0.1,0l-1.7-2c-0.5-0.6-0.9-1.3-1.2-2l-0.1-0.3l-0.1,0v-0.1
							l-0.1-0.3v-0.1l-0.1-0.1v0l-0.1-0.1l0-0.3l-0.1-0.1v0l0-0.1l-0.2-1l-0.1-0.3l-0.7-3.3l-0.3,1.3l-0.5-2.3
							c0,0.1,0.2,0.3,0.6,0.6c0.3,0.3,0.5,0.5,0.6,0.6l-2.4-38.1c0-0.8,0.1-1.1,0.3-1c0.1,0.1,0.2,0.3,0.3,0.5
							c-0.1-0.8-0.2-1.4-0.3-1.6c-0.1-0.3-0.2-0.8-0.3-1.4c0-0.4,0.2-0.3,0.4,0.4c-0.1-1.2-0.2-1.8-0.3-1.8c0,0.5-0.1,0.8-0.3,0.9
							c-0.3,0.2-0.4,0.3-0.4,0.4l-0.2-2.6l0.3,0.1c0-0.1-0.1-0.5-0.4-1.3c-0.3-0.7-0.4-1.7-0.4-2.8c-0.1-2.3-0.3-4.5-0.5-6.8
							l-0.6-6.9l0.3,0.7l0.3,1.3l-0.1-1.1c-0.1-0.5-0.1-0.9-0.1-1.1c-0.1,0.5-0.2,0.4-0.3-0.4c-0.1-0.7-0.2-0.9-0.2-0.6l-0.6-1.9
							l0-0.3l-0.1-0.3l-0.8-3.3l1-0.1l-0.3-1.1v-0.4l0.1,0.1v-0.4l-0.4-1.4c0,0.1,0,0.2-0.1,0.3c0,0-0.1,0-0.2-0.2l-0.3-0.9
							l-0.2-0.4l-0.1-0.4l-0.5-0.3l-0.9-1.1l0-0.1v-0.1l-0.1-0.1l-0.2-0.2l-0.7-0.7c-0.5-0.5-1-0.9-1.5-1.3
							c-0.7-0.5-1.3-0.9-1.8-1.1l-1.1-0.6l-0.2-0.1l-0.1-0.1l-0.3-0.1l-0.1-0.1h0l-0.1-0.1l0.1-1.3l-0.1,1.3l-0.1-0.1
							c-0.1,0-0.2-0.1-0.3-0.1h-0.1l0-0.1h-0.1l-0.1-0.1l-0.1-0.1l-2.4-0.5l-0.9-0.1l0-0.1c-0.5-0.1-1-0.1-1.4-0.1h-0.5l-0.3,0h-0.5
							c-0.4,0-0.7,0-0.9-0.1l-5.1,0.1c-0.1-0.1-0.3-0.2-0.5-0.3c-0.3,0-0.4-0.1-0.5-0.1c0.1,0.1,0.1,0.1,0.1,0.2
							c0,0.1-0.1,0.1-0.2,0.1c-0.3,0-0.5,0-0.6,0c0,0.1-0.2,0.2-0.6,0.2l-8.3,0.3l-0.3,0.2h0v0l-0.1,0.1l-0.1,0.1l-0.2,0.1h0l-0.1,0
							l-0.3,0.1l-0.1,0.1l-0.5,0.1l-0.6,0.3l0.1-0.1l-1.2,0.5c-0.4,0.1-1,0.4-1.8,0.9c-0.8,0.5-1.3,0.9-1.7,1.2l-0.7,0.5l-0.3,0.4
							l0.2,0l-0.3,0.4l-0.2,0.1h0l-0.1,0l-0.5,0.2l-0.1,0.1h0l-0.1,0.1c0.2,0.1,0.3,0.3,0.3,0.5l-0.1,0.2v0l-0.2,0.5l-0.1-0.1l0,0.2
							l-0.1,0.2l-0.6,1.7l-0.1-0.1c0.1-0.3,0.2-0.6,0.3-0.9l-0.4,0.9l0-0.1l-0.2,0.5l-0.7,1.5c-0.1,0.3-0.4,0.9-0.8,1.7
							c-0.3,0.8-0.4,1.6-0.3,2.2l-0.3,0.3l-0.1,0.1l-0.1,0.1l-0.3,0.6v0.1h0v0H78c0,0.3-0.1,0.6-0.1,1h-0.1
							c-0.1,0.5-0.1,1.3-0.1,2.2l0.3,3.8c0,0.6,0,1.3-0.1,2.1l-0.1-0.3c-0.1,0.3-0.1,1-0.2,2.2c0,1.2-0.1,2.2-0.2,2.8
							c0.1-0.3,0.1-0.5,0.2-0.5c0.1-0.1,0.1,0.2,0.1,0.7l-0.3,2.9c-0.1,1-0.1,1.8-0.3,2.4l0.3,1.5l-2.2,34.8l-0.1,0.8v0.4l-1,9.4
							v-0.3l-0.7,3.3v0.1l-0.1,0.4v0l-0.1,0.3c-0.5,1.6-1,2.9-1.6,3.8l-0.4,0.6l-0.1,0.1l-0.1,0.1l-0.1,0.2l-0.1,0.1v0h-0.1l0,0.1
							l-0.8,0.8l-0.2,0.1l-0.2,0.2l-0.1,0l-0.1,0.1l-0.8,0.5l-3.1,1.3l-1.9,0.4l-0.1,0h-0.3l-0.3,0.1l-0.7,0.1h-0.4l-0.7,0.1h-0.2
							l-0.2,0h-0.3l-0.8,0.1h-0.4c-0.1,0-1.1,0-3,0.1h-5.8c-0.9,0-1.7-0.1-2.5-0.1l-0.5-0.1h-0.3l-0.3,0h-0.2l-0.4-0.1l0.2,0.1h-0.1
							l-0.4-0.1c-0.5-0.1-1.1-0.2-1.6-0.4l-0.2-0.2l-0.2-0.1l-0.2-0.2l-0.2-0.1l-1.1-0.8l-0.3-0.3h0l0,0V320l-0.2-0.1h0l0-0.1
							l-0.1-0.1l0.1,0.3v0l-0.2-0.2v0.1h0l0.2,0.2h-0.1l-0.1,0l-0.2-0.1l0-0.1l-0.1-0.1l-0.3-0.4l-0.1-0.1l0,0l-0.2-0.5l-0.3-0.3
							l-0.2-0.2c-0.2-0.3-0.5-0.9-0.7-1.7v-0.1l-0.1-0.1l0-0.3l-0.1-0.3l-0.1-0.6l0-0.1v-0.2l0-0.5l0,0l0.1-8.1l0.2-1.1v-0.4l0-0.2
							v-0.1l3.1-26l0.5-10.9l0.1,0.3c0-0.7,0.1-2.4,0.4-5.2L45,243l0.4,0.1c0.2,0.1,0.4,0.1,0.4,0.2l-0.2-0.2l-0.7-0.3l0.2-2.7
							l0,0.6c-0.1-1.4,0-2.5,0.1-3.3c0.2-1.3,0.4-2.2,0.4-2.7c-0.2,0.2-0.4-0.3-0.5-1.4c-0.1-0.8-0.2-1.6-0.2-2.6l0.1,0.1L45,227
							c-0.1-1.6-0.2-3.2-0.2-4.8l0.3,0.1l-0.1-2.2l0.4-14.9L45,198l0.4-3.4l-0.1-0.5l-1-0.8c-0.7-0.5-1.5-0.9-2.3-1.2
							c-1-0.3-1.8-0.2-2.4,0.2c-0.4,0.2-0.8,0.6-1.1,1.1c-0.4,0.6-0.7,1.3-1,2.1l-0.2-0.1l-0.2,1.7l-0.1,1.6c0,0.4,0,0.5-0.1,0.5
							l0.2-2.1c-0.1,0.5-0.1,0.7-0.1,0.6c0-0.2,0-0.3,0-0.5c0-0.2,0-0.3,0-0.5l-0.3,2c0,0.1,0-0.1,0.2-0.5l-0.1,3.3
							c-0.1,0.5-0.2,0.8-0.3,0.9c-0.1,0.1-0.2,0.5-0.3,1.1l-2.5,31.3c-0.1,0.2-0.1,0.1-0.1-0.3l-0.5,7.8c-0.2,0-0.4,0-0.7-0.1
							l0.3-0.1l-0.7-0.1h-1.8l-0.9-0.1c0.2,0.1,0.3,0.1,0.3,0.2c0,0.1-0.1,0.1-0.4,0.1l-1.9-0.2H27l-0.1,0l-0.8-0.1l-0.4-0.1l-1,0.2
							l-1.4-0.2h-0.3l-0.7-0.1c-1.6-0.3-2.7-0.5-3.2-0.6l-0.4-0.1l-0.6-0.1H18v-0.1h0l-0.7-0.2h-0.1l-0.2-0.1l-0.3-0.1l-0.2,0
							l-0.8-0.3l-3.2-1.6c-0.6-0.4-1.1-0.8-1.5-1.1l-0.2-0.2l-2.3-2.3l-0.7-1.1c-0.4-0.8-0.8-1.6-1.1-2.4c-0.2-0.5-0.3-1.2-0.5-1.9
							l0.1,0.1l-0.3-1.3l-0.3-3.2V225l-0.1-0.2l0.1-5.8c0.1-2,0.2-3.4,0.3-4.4l0.1-1v-0.3l0.2-1.3v-0.3l0.3-1.6v-0.2l0.1-0.3
							L9,198.8c0.1-0.3,0.6-1.7,1.3-4.4c-0.1,0.4-0.2,0.5-0.3,0.4c0-0.1,0-0.3,0-0.6c0.3-1.4,0.5-2.1,0.4-2.2
							c-0.1-0.1,0.1-0.8,0.3-2.3l0.9-3.9l0-0.1v-0.2l0.4-1.4c0.7-2.5,1.5-5,2.4-7.5c0.8-2.2,1.9-4.6,3.1-7.3l2.5-4.8
							c0.1-0.3,0.2-0.6,0.3-0.8l2.8-5.8v0.3c0-0.1,0.2-0.5,0.6-1.3l9.2-14.8l-0.3,0.3c0.4-0.8,0.8-1.5,1.2-1.9
							c0.7-0.8,1.1-1.3,1.3-1.5c-0.2,0-0.2-0.4,0-1.1c0.2-0.5,0.5-1.1,0.8-1.7l0,0.1l2.4-5.8l0.2,0.2l1.2-3.1c0.4-1,0.8-2,1.1-2.8
							l1.5-4.6l0-0.4l0.1-0.3l0.3-1.7l0-3.5l-0.3-1.8v-0.4l-0.2-1.2c0-0.1,0-0.2,0-0.3l0-0.9l0-0.2l0,0.3l0,0.5c0-0.1,0-0.2,0-0.3
							l-0.4-5.8c-0.1-1-0.1-1.7,0-2c0.1-0.1,0.1-0.2,0.1-0.5v-0.5l-0.1-0.2V101l-5.9-30.4c-0.3-2-0.7-4.4-1-7l-0.4-8l0.1-1.2V54
							l0.1-0.8v-0.4l0.1-0.8l0.1-0.2v-0.2l1.6-8.1c0.1-0.1,0.1-0.1,0.1,0l1.7-5.8l0-0.3l0.1,0l0-0.1l0.2-0.7l0-0.1l0-0.2l0.2-0.4v0
							l0,0l0-0.1l0-0.2l0.5-1.3l0.2-0.5l2-4l0.7-0.9l0.2-0.2c0.2-0.2,0.4-0.4,0.5-0.5c-0.1,0,0-0.1,0-0.2l0.4-0.6
							c0.3-0.5,0.9-1.3,1.8-2.4c0.8-1,1.8-2.1,2.8-3.3l3.8-3.5l0.5-0.4l0.3-0.3l3-2.3l0.1-0.1h0l0.1-0.1l8.3-5.3l0.1-0.5l2.4-1.2
							c0.1-0.1,0.4-0.2,0.8-0.3c0.3,0,1.3-0.4,3-1.2c0.9-0.7,2.5-1.4,4.8-2.1c0.5-0.2,1.4-0.4,2.8-0.8c1-0.3,1.7-0.5,2-0.6l0.1-0.1
							H81l1.3-0.3h0.3l0.1,0c0.2,0,0.3,0,0.3,0l0.7-0.3L87,1.6c0.2-0.1,0.2-0.1-0.1-0.1c-0.5,0-0.7,0-0.8,0l3.6-0.6
							c0.8,0,1.2,0,1.3,0.1c0.1,0.1-0.2,0.1-0.9,0.2L92.9,1l0.3,0l1.9-0.1c2.3-0.1,4.8,0,7.7,0.2l7.5,0.9l0.1,0.1h0.2l0.3,0l0.4,0.1
							h0.1l0.2,0l3.1,0.6c0.6,0.1,1.4,0.3,2.5,0.6l4.8,1.5c1.5,0.6,2.9,1.2,4.4,1.9c1.5,0.8,2.7,1.6,3.7,2.4c0.5,0.4,1,0.8,1.5,1.3
							l0.1,0.1l0.1,0.1l0.1,0.1l1.6,1.7l0.4,0.5l0.4,0.4l1.8,2.1c0.5,0.6,1.3,1.7,2.4,3.3l2.1,3c1.1,1.8,2,3.3,2.7,4.7l-1.9-4.1
							c-0.1-0.3-0.2-0.5-0.3-0.6l-0.1-0.5c0.5,0.7,1.1,1.6,1.7,2.7l0.5,1l0.6,0.8c0,0.3,0.1,0.8,0.4,1.4l0.4,1l0.2,0.3v0.1h0.1V29
							l0.1,0.1l0.6,1.2l0.1,0.1l0,0.1l1.3,2.7c0.2,0.6,0.4,0.9,0.4,1l0.8,0.6l0.6,1.5c1.5,2.3,2.7,4.1,3.8,5.5l2.4,3.1l0.2,0.2
							l0.6,0.7l0.1,0.1l1.3,1.4l0.2,0.2l1.8,1.8l9,6.7c0.6,0.5,1.1,0.9,1.5,1.2c-0.1-0.1-0.1-0.1-0.1-0.2c-0.1-0.3,0.1-0.2,0.6,0.3
							c0,0.1,0.6,0.6,1.8,1.5L172.7,59.8 M165.9,159.4l0.3,0.3c0.3,0.6,0.4,0.9,0.3,0.9c0.3,0.1,0.6,0.5,1,1.3
							c0.1,0,0.1-0.1,0.1-0.1s-0.1-0.2-0.1-0.3l0.9,1.1c0.1,0.3,0.1,0.4,0.1,0.5c-0.1,0-0.2-0.1-0.4-0.3l6.6,12.1l4.2,9.9v-0.4
							l-0.2-0.6c-0.2-0.4-0.2-0.7-0.2-1.1c0.1,0.2,0.3,0.6,0.5,1.1c0.2,0.4,0.3,0.6,0.4,0.7c-0.2,0.2-0.1,0.7,0.1,1.4v0.1l0.1,0v0.2
							l0.1,0.2l0.1,0.5c0,0.3,0,0.6,0,0.8l0.4,0.2v0.6l1.1,2.6l0.7,2.3c0.3,0.7,0.7,1.5,1.2,2.6c0.4,0.7,0.6,1.3,0.6,1.8
							c0-0.1,0-0.2,0.1-0.3c0-0.1,0.1-0.1,0.3,0.1c-0.1,0.1,0,0.4,0.3,0.9c0.3,0.5,0.4,0.9,0.3,1c0.5,1.5,0.8,2.1,0.9,1.8
							c0,0.1,0,0.5,0.1,1.1c0,0.4,0,0.4-0.2,0.1c0.2,0.9,0.4,1.4,0.5,1.6l-0.2-0.8c0,0.1,0.3,0.9,0.8,2.4l0.3,0.9l0.4,0.8l-0.1-0.8
							l0.5,1.5c0.1,0.5,0.1,0.9,0,1.2l-0.5-1.2l0.8,2.2l0.1,0.1l0.7,1.8l-0.1-0.6l0.9,2.6c0.3,1.1,0.7,2.5,1,4.2l1.1,5.8l0.1,0.3
							v0.1l0.1,0.2l0.1,0.7l0.3-0.9l0.3,1.4c0,0-0.2-0.1-0.5-0.3l-0.5-0.4l0.1,1l0.1,0.3l-0.1,3.1c-0.1,1-0.2,2-0.5,2.9
							c-0.3,1-0.6,1.9-1,2.6l-0.4,0.7l-0.1,0.1l-0.3,0.4l-0.6,0.5l-0.1,0.1l-0.4,0.5c-0.6,0.7-1.4,1.3-2.2,1.9
							c-0.8,0.5-1.4,0.9-2,1.2l-1.4,0.5c-0.4,0.1-0.6,0.1-0.6-0.1l0.2-0.3c-0.2,0.1-0.4,0.2-0.6,0.3l-0.4,0.4H181l-0.4,0.2
							c-0.3,0-0.2-0.1,0.2-0.4l-0.5,0.2h0l-0.1,0.1h-0.1l-0.3,0.1c0.2,0,0.4,0.1,0.5,0.3l0.1,0.2l0.2,0.2h0l-1.5,0.3l0.1-0.3
							l-0.7,0.6l-0.6,0.3l-0.5,0.1l-0.5,0.1c-2.5,0.3-3.9,0.5-4.2,0.6l-4.3,0.3c0-0.1,0.1-0.1,0.4-0.2l0.3-0.1l0.5-0.1l-1.3-0.1
							c0.3,0.1,0.2,0.2-0.3,0.2c-0.4,0.1-0.5,0.1-0.4,0.1l-0.8,0.2h-0.3l-0.7-6.3v0.6c0-0.2-0.1-0.4-0.1-0.6c0-1,0-1.9,0-2.5l0,0.1
							c0-1.1,0-2.5,0-4.3l-0.3-3.7c-0.3-3.1-0.5-5.7-0.4-7.6l0.1,0.6c0-0.6-0.1-2-0.1-4.3c-0.1-2.1-0.2-3.8-0.2-5.1
							c0,0.4-0.1,0.6-0.1,0.7c-0.1,0.1-0.2-0.4-0.3-1.4c0-0.4-0.1-2.3-0.2-5.6l0-4.7l-0.1-0.6V199l0-0.1v-0.1l-0.1-0.4v-0.1l0-0.1
							v-0.1l-0.1-1.1l0.2-12.3c0.1-1.8,0.1-3.7,0-5.7l-0.2-12.8c-0.1-3.1-0.3-5.5-0.4-7c-0.1-1.4-0.2-2.7-0.4-3.9
							c0,0.2,0.2,0.6,0.6,1.1l0.6,0.6L165.9,159.4 M108.4,239.4L108.4,239.4L108.4,239.4L108.4,239.4z"/>
					</g>
				</g>
			</g>
		</g>
	</g>
</g>
</svg>
