
<svg xmlns="http://www.w3.org/2000/svg" version="1.1" xmlns:xlink="http://www.w3.org/1999/xlink" preserveAspectRatio="none" x="0px" y="0px" width="256px" height="256px" viewBox="0 0 256 256">
<defs>
<g id="walk_3_Layer0_0_FILL">
<path fill="#FFFFFF" stroke="none" d="
M 66 -6.55
L 65.7 -6.45 59.8 -3.5
Q 56.45 -1.65 52.85 0.65
L 45.6 5.95
Q 41.6 9.3 38.85 12.3 35.9 15.55 33.5 19.05 32.15 21.15 31.5 22.3
L 28.2 29.25 28.15 29.5 28.05 29.7 28.15 29.55 28.2 29.4 28.55 28.6 27.6 31.4 27.55 31.5 27.55 31.55 24.65 40.15
Q 24.8 40 24.8 40.2 24.9 40.45 24.8 40.8
L 24.75 41.75 23.9 48.15 23.85 48.05
Q 23.8 48.15 23.7 49.65
L 23.5 53.25 23.55 53.85 23.55 55.7 23.6 56.05 23.65 57.6 23.7 57.65 24.6 65.95 24.35 65.75 27.6 82.1 27.8 82.75 32.55 104.8 32.6 105.3 33.85 111.3 33.85 111.9 33.9 112.1 34.15 115.25 34.15 115.45 34.2 115.65 34.25 116.05 34.25 116.45 34.35 116.8 34.25 117.15 34.2 117.5 33.6 119.35 33.5 119.55 33.4 119.85 33.3 120.05 33.05 120.7 33 120.8 32.95 120.85 32.8 121.2 32.6 121.5 32.25 122.15 32.2 122.3 32.1 122.45
Q 31.6 123.3 30.4 124.9
L 30.15 125.2 30.1 125.3 29.65 125.8 29.55 125.95 25.65 129.65 25.5 129.75 25.35 129.9 24.7 130.4 24.55 130.55 20.35 133.85
Q 20.2 133.9 20.55 133.55
L 14 139.55
Q 13.5 139.95 12.85 140.2 12.95 140.2 12.5 140.65 11.95 141.3 11.3 141.9
L 2.4 152.5 2.25 152.65 2.45 153.05
Q 1.5 154.45 1.15 154.6 0.75 154.8 0 156.05
L -0.1 156.6 -0.25 156.9 -2.3 160.15
Q -2.75 160.95 -2.8 161.2 -3.55 162.45 -3.65 162.25 -3.65 162.55 -4 163.25
L -4.6 164.4
Q -4.65 164.6 -4.25 164.05
L -5.05 165.85
Q -5.35 166.35 -5.5 166.4 -5.6 166.4 -5.35 165.85
L -10.8 176.75
Q -12.05 179.55 -13 182.1
L -14.15 185.35 -14.25 185.75 -14.4 186.1 -15.05 188.6 -15.05 188.7 -15.1 188.75 -15.1 188.85 -15.95 193.5
Q -16.35 196.4 -16.5 197.95
L -16.75 200.95 -16.55 200.25 -16.25 198.45 -16 197.8 -16.1 199.6
Q -16.2 200.4 -16.15 200.7 -16.4 200.95 -16.45 201.5 -16.5 201.6 -16.6 202.7
L -16.8 204.05
Q -16.9 204.75 -17.1 205.1
L -16.8 205.55 -17.05 206.3 -17 208.7 -16.95 209 -16.95 210.05 -16.9 210.35 -16.95 211.15 -16.9 214.1 -16.75 215.4 -15.5 221.15
Q -15.471484375 221.057421875 -15.45 220.95 -15.35 220.65 -15.2 221.25 -15.3 221.35 -14.9 222.6
L -14.55 223.55
Q -14.45 224.1 -14.5 224.2
L -13.75 226.3 -13.35 227.05
Q -13.1 227.45 -13.2 226.9
L -12.8 228.45
Q -12.55 229.4 -13 228.55
L -12.75 229.2 -12.6 229.5 -12.5 229.8 -11.95 230.85 -12.35 229.7 -11.55 231.4 -11.55 231.45 -11.5 231.5 -11.2 232.1 -11.2 232.15 -11.15 232.2 -10.45 233.5 -10.1 234
Q -10 234.25 -9.65 234.7
L -8.6 235.9 -9.2 234.8 -7.6 236.9
Q -6.8 237.9 -6.65 238.4
L -8.1 237 -5.15 240
Q -3.7 241.25 -2.1 242.2
L -2.85 241.6 -2.2 242.05 1.15 244
Q 3.15 245.05 4.25 245.5
L 6.8 246.55 6.85 246.6 6.95 246.6 7.05 246.65 11.45 247.95
Q 13.05 248.25 15.1 248.45 16.35 248.5 18.15 248.4
L 19.7 248.15 20.1 248.05 18.5 247.85
Q 19.9486328125 247.7001953125 21.3 247.25 21.1453125 247.3046875 20.55 247.9 20.125 248.325 19.9 248.4
L 20.45 248.35 22.2 248 22.7 247.85 22.95 247.8 23.25 247.7 23.5 247.65 25.6 246.85
Q 26.95 246.25 28.15 245.55 29.4 244.8 30.65 243.8
L 31.3 243.3 31.3 243.25 31.4 243.15 31.5 243.1 31.6 243 31.85 242.8 31.9 242.75 31.9 242.7 32 242.65 32.5 242.15 32.6 242.1 32.65 242 33.1 241.55
Q 34.0310546875 240.537890625 34.9 239.4
L 37.6 247.4
Q 37.6 247.6 37.35 247.1
L 39.8 252.95 42.65 256.3
Q 43 256.95 43.1 257.45
L 50.95 267.35
Q 51.25 267.65 51.55 268.15
L 52.45 269.35 52.95 269.2
Q 53.55 269.95 53.7 270.4
L 53.9 271.3 54.65 272.3
Q 55.2 272.65 55.5 273.1
L 57.15 275.7
Q 57.6 276.4 57.8 276.55 58.4 277.6 58.2 277.65 58.55 277.8 58.8 278.35 59 278.65 59.4 279.35 59.55 279.45 59.5 279.3 59.4 278.95 59.4 278.9
L 60.4 280.35
Q 60.6 280.9 60.5 281 60.45 281.15 60.15 280.65
L 61.95 284.4 62.05 284.75 62.15 284.9 63.45 288.75 63.45 288.9 63.5 288.95 63.5 289.15 63.65 289.6 65.35 299.4 65.45 301.65 65.35 302.6 65.35 302.75 65.15 303.85
Q 65 305.4 65.1 307.15
L 65.45 309.95 66.3 313.15 66.6 313.9 66.4 312.9 66.4 312.75 66.35 312.65 66.25 312.35 66.15 311.7
Q 65.8 310.2 66 309.55
L 66.3 310.55 66.35 310.85 66.85 312.65
Q 66.9 313 67.15 313.3
L 67.1 313.75 67.2 314.35 68.85 318.6 68.9 318.9 69.2 319.05 69.35 319.1 69.45 319.1 69.45 319.05 69.65 319.85 75.25 326.1 77.45 327.8 77.65 327.9 79.2 328.85 79.5 328.95 81.1 329.7 80.6 329.4 83.55 330.95 83.4 330.85 83.1 330.6
Q 82.8 330.3 83.65 330.65 83.7 330.75 84.25 331
L 84.8 331.2 86.8 331.7
Q 87.4 331.75 87.65 331.95
L 88.65 332.1 88.85 332.15 89.85 332.15 90.05 332.5 90.3 332.8 90.4 332.95 90.55 333.05 91.5 333.95 91.75 334.15 92.05 334.3 92.3 334.5 92.4 334.6 92.55 334.65 93.3 335.15 93.4 335.25 93.5 335.3 93.45 335.3 94.4 335.75 93.45 335.45
Q 94.2 335.85 94.45 335.9
L 95.5 336.25 94.8 336.05 95.95 336.45 96.25 336.5 96.6 336.6 97.25 336.7
Q 97.7 336.75 100 336.9
L 99.55 336.85 99.35 336.75
Q 99.3 336.7 99.45 336.65
L 100.15 336.55 101 336.55 101.4 336.5 101.6 336.5 103.75 336 103.85 335.95 104.3 335.8 104.55 335.75 104.8 335.65 105.35 335.5 105.95 335.1 106.05 335 106.2 334.9 106.45 334.65 106.7 334.55 107.1 334.3
Q 106.7814453125 334.4755859375 106.45 334.6
L 107.45 334.15 107.1 334.3
Q 107.9677734375 333.9705078125 108.8 333.5
L 109.15 333.35 109.75 332.95 109.95 332.85 111.4 331.85
Q 112.9 330.6 113.9 329.55 114.3 329.15 114.45 328.9
L 114.75 328.6 115.9 327.1
Q 115.5845703125 327.4486328125 115.25 327.8
L 116.05 326.9 115.9 327.1
Q 117.4591796875 325.440625 118.5 324.15 120.0486328125 322.1791015625 121.15 320.6
L 120.9 320.9 121.3 320.4
Q 121.229296875 320.5013671875 121.15 320.6
L 127.2 313.65 127.1 313.8
Q 129.15 311.4 130.2 310.25
L 130.8 309.45 134.05 304.2
Q 136.1 300.9 137.4 298.55
L 143 288.65 143.75 287.75 143.9 287.45 143.95 287.4 143.95 287.35 144.05 287.25 145.25 285.1
Q 144.95 285.45 144.9 285.35 144.8 285.2 145 284.85
L 145.7 283.4
Q 145.8 283.15 145.75 283.1 145.75 282.8 146.45 281.2
L 156.4 259.85 156.5 259.7 156.5 259.6 156.55 259.6 156.65 259.3 156.7 259.25
Q 156.75 258.5 157.55 255.95
L 158.4 252.75 158.45 253 160.75 244.2 161.55 238.75 162.1 239 162.25 239.05 163.55 239.65 163.75 239.8 164.2 240
Q 163.9 239.8 163.9 239.7 163.9 239.6 164.4 239.8
L 164.55 239.85
Q 164.65 239.9 164.7 239.9
L 164.7 239.95 164.75 239.95 165.1 240.15 168.5 241.5 169.75 241.55 172.25 242.2 172.7 242.25
Q 173.35 242.45 174.95 242.65 176.65 242.85 177.6 242.85 180.8 242.95 183.6 242.25 185.4 241.85 186.7 241.3 188.1 240.75 189.65 239.95 189.85 239.9 191.05 239.2
L 192.2 238.45 192.25 238.4 192.35 238.35 192.7 238.1 192.9 238 193 237.9 193.55 237.5 193.65 237.4 194.75 236.5
Q 196.65 234.95 198.55 232.85
L 201.85 228.85 201.9 228.75 202 228.65 203.15 227 203.05 227.2
Q 204.15 225.5 205.05 223.65
L 205.6 222.55 207.1 218.2 207.4 216.75 207.4 216.6 207.45 216.4 207.55 215.65 207.6 215.45 207.6 215.25 207.65 214.8 207.65 214.6 207.7 214.5 207.7 211.5 207.6 210.75 207.6 210.35 207.55 210
Q 207.4 208.65 207 207
L 206.5 205.2 205.25 202.15 204.25 200.3 203.85 199.7 203.8 199.55 203.75 199.45 203.7 199.4 202.6 197.8 202.55 197.75 202.5 197.75 202.45 197.6 199 193.05 199 193 198.95 192.9 198.9 192.9 198.85 192.85 198.8 192.75 197.3 190.9
Q 196.8 190 194.65 187.2 194.95 187.65 194.8 187.65 194.7 187.65 194.4 187.3
L 193.2 185.8
Q 193 185.6 192.9 185.6
L 192.6 185.35 181.9 173.55
Q 179.65 170.9 177.05 167.4
L 176.95 167.25 176.85 167.15 174.45 163.2 173.4 161.85 170.65 157.2 170.8 157.35 162.65 140.95 162.5 140.7 162.65 141.05
Q 161.95 139.85 161.7 139.05 161.4 137.9 161.15 137.35 161 137.65 160.35 136.7
L 159.45 135.25 159.55 135.25 158.4 133.3 157.1 128.45 157 128.25 156.75 127.45 156.6 127.1 155.75 124.6
Q 154.8 122 152.25 114.6
L 151 110.75 150.9 110.35 150.8 110.1 150.8 110 150.75 110 150.75 109.8 150.7 109.75 150.7 109.6 150.45 108.4 150.6 108.85
Q 150.2 107 150.2 105.4
L 150.25 103.45 150.3 103.25 150.5 102.05 151 100.6 151.45 99.7 151.5 99.65 151.5 99.6 151.7 99.3 151.75 99.2 151.75 99.2 151.8 99.15 151.8 99.15
Q 152.2603515625 98.59453125 152.8 98.1
L 152.85 98 152.95 97.95 153.1 97.8 153.3 97.65 153.45 97.5 154.25 96.9
Q 155.4 96.2 156.15 95.85
L 156.4 95.7 157.4 95.25 157.45 95.2 157.5 95.2 158.3 94.9 158.4 94.85 170.2 91.7
Q 172.3 91.15 173.6 90.7
L 177.15 89.5 178.3 89 178.4 89 178.45 88.95 179 88.75 179.1 88.65 179.5 88.5
Q 179.65 88.45 179.65 88.4
L 179.7 88.4 179.85 88.3 181.95 87.1 182.1 87.05 182.2 86.95 182.45 86.8 183.35 86.15 183.6 86 183.8 85.8 184.7 85.1 184.9 84.9 185.05 84.8 188.1 81.35 189.75 78.55 189.8 78.35 189.85 78.3
Q 189.9 78.15 189.95 78.05
L 190 78 190.25 77.3
Q 191.2 75 191.4 72.7 191.7 70.4 191.45 68.15 191.4 67.05 191.15 66
L 191.15 65.85 191.1 65.75 190.95 65 190.9 64.85 190.9 64.7 190.8 64.45 190.7 63.9 189.4 60.3
Q 188.65 58.55 187.7 56.9 186.6 55.1 185.7 53.9
L 183.85 51.65 183.8 51.6 183.75 51.6 183.7 51.5 183.35 51.15 183.2 50.95 166.5 36.9 166.4 36.85 166.35 36.75 166.2 36.65 166.15 36.6 166.15 36.6 164.65 34.9 165.15 35.65
Q 165.25 35.75 165.2 35.8 165 35.8 164.25 34.9
L 161.05 30.65 160.25 29.75 149.15 11.2
Q 146.85 7.9 145.75 6.55
L 141.7 1.8 141.05 1.15 141 1.05 140.85 0.95 140.05 0.1 136.65 -2.8
Q 135.1 -3.95 133.75 -4.75
L 130.7 -6.45
Q 127.75 -7.9 124.5 -9.05
L 116.15 -11.4 115.75 -11.45 115.4 -11.55 113.55 -11.9 113.2 -12 106.95 -12.95
Q 101.55 -13.55 97.3 -13.55 93.8 -13.55 90.6 -13.35
L 79.45 -11.25 78.15 -10.9 78.05 -10.9 78 -10.85 77.9 -10.85 70 -8.2 69.85 -8.1 68.95 -7.75 69.55 -8.1 66 -6.55
M 84.45 -0.55
L 84.55 -0.55 86.6 -0.9
Q 87.45 -1.15 86.55 -1
L 85.75 -1 89.8 -1.7 90.2 -1.65
Q 90.55 -1.65 90.6 -1.6
L 90.4 -1.5 90.1 -1.4 94.7 -1.7
Q 98.05 -1.85 102.45 -1.55
L 102.7 -1.55 106.4 -1.15 106.55 -1.15 106.7 -1.1 110.35 -0.55 110.4 -0.55 110.45 -0.5 110.65 -0.5 111.3 -0.35 111.45 -0.35 111.6 -0.3 116.85 0.85
Q 118.95 1.45 119.3 1.6
L 121.7 2.4
Q 123.75 3.2 126.1 4.45 128.05 5.45 129.85 6.85
L 131.4 8.2 131.55 8.4 131.6 8.45 131.7 8.5 132.35 9.25 132.5 9.35 132.55 9.4 132.55 9.45 132.6 9.45 132.95 9.9 133.45 10.4 133.5 10.5 133.7 10.7 138.35 16.65 140.35 19.8
Q 141.25 21.2 143.1 24.5
L 142.9 23.95 141.1 20.4
Q 140.65 19.35 140.65 19.2
L 143.45 23.75
Q 143.45 24.2 143.85 25.15
L 145.25 28.25 145.35 28.4 145.4 28.55
Q 145.8 29.3 146 29.85 146.65 31.1 146.85 32
L 147.6 32.6 148.2 34.1 151.3 38.8 151.5 39.05 151.65 39.3 153.65 42 153.8 42.25 154.05 42.5 156.05 44.95 156.2 45.1 156.35 45.3 156.95 45.9 156.95 45.95 157.1 46.05 157.55 46.5 162.15 50.3
Q 162.8 50.8 165.05 52.45
L 166.15 53.25 166.25 53.3 166.35 53.4 166.95 53.8 169.5 55.85
Q 169.05 55.45 168.85 55.15 168.6 54.8 169.5 55.4 169.5 55.7 171.25 56.95
L 172.5 58 173.95 59.55
Q 173.984375 59.59375 174 59.6
L 174 59.6 174.3 59.9 174.35 60 174.85 60.55 174.95 60.7 176 61.9
Q 176.3 62.1 176.15 61.6
L 176.3 62 176.85 63.1 177.05 63.65
Q 177.3 64.25 177.25 64.3
L 177.15 64.2 176.85 63.75
Q 177.1 64.15 177.55 65.35
L 178.1 66.7 178 66.35 177.95 65.95 177.8 65.6 177.7 65.25
Q 178.1 66.15 178.2 66.6
L 178.25 66.75 178.3 66.85 178.4 67.3 178.4 67.35 178.45 67.35 178.45 67.55 178.5 67.8
Q 178.7 68.8 178.7 69.7
L 178.45 72.6 178.95 71.6 178.6 72.8 178.6 72.85 178.55 72.85 178.55 72.9 178.55 72.9 178.25 73.5 178.15 73.6 178.1 73.7 178 73.8 177.95 73.9 177.85 74 177.8 74.1 177.45 74.4 177.15 74.6 176.95 74.7 176.8 74.75 176.9 74.65 176.95 74.55 177.1 74.35 177.25 74.2 177.45 73.8 177.2 74.05 177.05 74.25 177.05 74.3 176.9 74.45 176.85 74.55 176.75 74.6 176.6 74.8
Q 175.9 75.5 175.05 76
L 174.85 76.15 174.75 76.25 173.95 76.7 173.9 76.75 173.85 76.75 173.8 76.8 173.6 76.9 173.45 76.95 173.3 77.05
Q 171.95 77.7 170.75 78.1 171.3625 77.96875 171.95 77.7
L 170.65 78.3 170.3 78.4 169.4 78.75 164.7 80.15 164.6 80.2 155.3 82.85 154.8 83.05 154.6 83.1 153.35 83.55 152.85 83.8 152.8 83.8 152.75 83.85 152.7 83.85 152.4 84 152.2 84.05 152.1 84.1 152.05 84.15 152 84.15 151.25 84.55 151.15 84.55 151.1 84.6 147.75 86.5 146.9 87.15 146.65 87.3 146.45 87.5 146 87.8 145.3 88.45 145.15 88.55 142.9 90.9 142.55 91.35 142.35 91.55 141.9 92.2 141.9 92.25 141.8 92.4 141.75 92.4 141.75 92.45 141.7 92.5 141.6 92.7 141.55 92.75 140.55 94.55
Q 139.95 95.75 139.75 96.35 139.15 98 138.8 99.8 138.55 101.15 138.45 102.7
L 138.4 105 138.5 105.9 138.5 106.25 138.55 106.6
Q 138.75 104.6 138.95 103.55 138.9 104.85 139.05 106.35 139.25 108.15 139.45 109.05 139.4 108.8 138.7 107.5
L 138.15 106.25 138.4 109.2 138.5 109.6 138.95 112.2 139 112.35 139 112.5 139.05 112.6 139.25 113.3 139.25 113.45 139.35 113.7 139.4 114 146.9 136.35
Q 147.7 138.9 148.4 141.7 148.9 143.5 149.7 147.1
L 149.85 147.75 149.85 147.95 149.9 148.1 150.7 152.4
Q 151.45 157 151.95 162.35
L 152.7 175.75
Q 152.65 178 152.4 177.5 152.15 176.45 152.1 176.4 152.25 178.7 152.45 179.5
L 152.55 180.25 152.6 182.1
Q 152.55 182.75 152.45 182.3
L 152.25 181.3
Q 152.35 182.55 152.25 183.5 152.25 184.5 152.35 184.55
L 152.4 183.9 152.5 183.5 152.7 183.1
Q 153.1 182.8 153.2 182.5
L 153.1 187.35 152.8 187.1
Q 152.8 187.65 153.1 189.55 153.35 191.8 153.15 194.8
L 152.2 212.1 151.35 219.9
Q 151.25 219.8 151.25 218.7
L 151.4 216.3 151.05 219.2 150.85 220.05
Q 151.05 219.4 151.05 219.75 151.05 219.8 151 220.85
L 150.9 222.05 150.95 221.95
Q 150.95 224.0240234375 150.4 228.4
L 150.05 228.5 149.75 228 149.35 226.8 149.4 227.2 149.6 227.9 149.9 228.45 150 228.6 150.1 228.8 150.15 228.85 150.2 228.95 150.2 229 150.25 229.05 150.25 229.1 150.3 229.15 150.35 229.15
Q 150.3208984375 229.3046875 150.3 229.45
L 150.1 229.2 150.1 229.25 150.3 229.55
Q 150.1583984375 230.62421875 150 231.8 149.6130859375 234.7744140625 149.35 237.05 149.2509765625 237.1556640625 149.1 237.25 149.15 237.25 149.1 237.6
L 149.05 238 148.75 239.2 148.7 239.55 148.1 242 148.05 242.4 147.1 246.1 147.55 246.35
Q 147.3 247.2 147 247.35 146.7 247.5 146.55 248.25 146.85 248.7 146.35 249.9
L 145.95 250.8 145.85 251.15 145.85 251.45
Q 145.55 252.15 145.35 252.05 145.5 252.2 145.35 252.65
L 145.25 253 145.1 253.35
Q 145.15 253.45 145.2 253.35 145.35 253.2 145.4 253.15
L 145.15 254.3
Q 144.95 254.6 144.85 254.6 144.7 254.6 144.8 254.25
L 144.65 254.55 144.6 254.6 135.8 273.4
Q 136 273.3 136.4 272.6 136.8 272.05 137.1 271.95 137.05 272.4 136.75 272.9 136.5 273.35 136.55 273.55 136.15 273.55 135.65 274.45 135 275.45 134.6 275.55
L 134.85 275.95 134.45 276.25 133.6 278.4 132.55 280.15 132.1 281.2 132.1 281.3 132.2 281.1 132.25 281 132.3 280.95 132.2 281.1 131.85 282
Q 131.5365234375 282.98515625 131.15 283.45 131.2275390625 283.3806640625 131.35 283.35 131.55 283.3 131.4 283.65 131.25 283.6 130.95 284.3 130.7 285.05 130.45 285.05 129.45 286.85 130 286.65 129.9 286.7 129.3 287.3 128.95 287.65 129.1 287.15 128.85 287.6 128.4 288.35
L 128.85 287.85
Q 128.6 288.3 127.75 289.6 127.15 290.45 127.05 291.1
L 127.55 290.65
Q 126.65 292.3 126 292.4
L 126.45 291.45
Q 125.05 293.75 124.55 295.05
L 124.8 294.65
Q 124.65 295.35 123.2 298.1
L 121.15 301.95 121.2 301.7 121.2 301.5 121.25 301.45 121.25 301.25 121.3 301.15 121.35 300.7 121.35 300.55 121.4 300.4 121.4 300.1 121.45 299.8 121.5 299.65 122.6 277.45 122.65 277.35 121.95 267.5
Q 121.85 266.3 122.1 266.5
L 122.5 267.05 122.35 266.65 122.3 266.35 121.75 265.05 121.45 264.05
Q 121.4 263.4 121.9 264.4
L 121.6 263.2
Q 121.4 262.65 121.35 262.65 121.45 263.3 121.2 263.5 121.1 263.65 120.8 263.95
L 120.15 261.4 120.45 261.45
Q 120.45 261.3 120.2 260.95
L 119.2 259.3 116.35 251.6
Q 114.75 247.9 113.6 245.65 113.7 245.65 114.05 246.1
L 114.75 247.15
Q 114.0580078125 245.815625 113.95 245.35 114.09609375 246.042578125 113.6 245.1 113.15 244.4 113.25 244.65
L 112.55 243.65 108.8 237.15 108.25 236.5 108.05 236.3 102.3 236.3
Q 100.6 236.15 99.3 235.9 98.05 235.75 98 235.75
L 97.95 233.55 97.95 236.05 98 236.25 98.05 236.6 98.35 236.6
Q 98.55 237.7 98.5 237.9
L 98.5 238.2 98.65 239.1
Q 98.6 239.15 98.45 238.95
L 98.3 238.5 98.25 238.45 98.25 238.25 97.85 235.95 98.1 238.55 98.2 238.9 98.45 239.4 98.5 240
Q 98.5 240.05 98.4 240.15 98.3 240.15 98.45 241.05
L 98.75 241.85 99.3 242.9 99.35 243.05 99.8 244.05 99.95 244.5 99.9 244.5
Q 100.3 245.55 100.8 246.3
L 102.5 248.8 102.7 249.15
Q 103.2 250.05 103.45 250.9
L 103.25 250.65 104.9 254.75
Q 104.8216796875 254.4783203125 104.9 254.4 105 254.25 105.3 254.9
L 106.75 259.4 107.45 260.6 107.75 261.65 107.85 261.8 109.55 268.35
Q 110.2 272.05 110.35 273.65
L 110.4 273.95 110.45 275 110.5 275.35 109.65 297.8 109.55 298.65 109.5 298.75 109.5 298.85 109.45 299.05 109.45 299.4 109.35 299.8 109.25 300.6 109.25 300.3
Q 108.8 302.85 108.55 305.2
L 108.25 308.1 108.25 308.45 108.15 309.2 108.15 309.45 108.1 309.55 108.05 309.7 107.75 310.2 106.55 311.55 105.65 312.3 105.45 312.5 105.2 312.65 104.4 313.25 104.35 313.25 104.35 313.3 104.3 313.35 102.4 314.6
Q 99.65 316.3 97.55 317.3
L 94.55 318.55 94.4 318.65 94.3 318.65 94.25 318.7 93.7 318.85 93.6 318.9 93.65 318.9 93.4 318.95 93.15 319.05 91.3 319.4
Q 90.6 319.45 89.95 319.4
L 89.65 319.35 89.4 319.25 89.1 319.2 89.05 319.2 89 319.15 88.95 319.15 88.8 319.1 87.7 318.6 86.95 318.15 85.1 316.7
Q 83.9 315.7 83.45 315.2
L 83.6 315.4 83.65 315.55
Q 83.7 315.6 83.65 315.65 83.6 315.7 83.45 315.6 83.25 315.5 83.15 315.35 82.1 314.2 81.9 314 81.7 313.8 81.6 313.8
L 81.4 313.7 81.3 313.55 81 313.25 80.9 313.1 80.75 312.95 80.55 312.6 80.4 312.45 80.35 312.35 79.95 311.75 79.9 311.6 79.7 311.35 79.35 310.65
Q 79.15 310.3 78.6 309.05 78.3 308.15 78.15 307.1 78.007421875 306.24453125 78.1 305.05
L 77.95 305.8 78.1 304.95
Q 78.0951171875 305.0119140625 78.1 305.05
L 78.3 303.9 78.3 303.55 78.35 303.2 78.35 302.9 78.4 302.75 78.4 300.4
Q 78.35 298.75 77.95 295.75
L 76 285.55 75.55 283.95 75.45 283.7 75.4 283.45
Q 74.85 281.7 74.1 280
L 73.95 279.6 72 275.4
Q 71.25 274.35 69 270.75 67.1 267.75 65.95 266.35
L 66.2 266.55 53.35 249.95
Q 50.6525390625 246.932421875 49.75 246
L 49.9 246.3 49.6 245.85
Q 49.6685546875 245.9185546875 49.75 246
L 49.6 245.7 49.3 244.7
Q 48.85 243.1 48.6 242.4 48.4 242.75 47.65 241.5
L 46.55 239.45 46.7 239.45 43.6 232.2 43.85 232.2
Q 43.1 230.55 42.55 228.25
L 41.3 221.9 41.3 221.7
Q 41.15 220.05 41.15 220
L 41.05 219.35 41.05 219.15 40.8 216.15
Q 40.95 216.1 41 216.15
L 41.2 216.55 41.2 216.05 41.15 215.85 41.15 215.7 41 215.05
Q 40.95 214.9 41 214.75
L 41 214.25
Q 41.05 214 41.2 214.2
L 41.3 214.6 41.3 214.1 41.4 213.7 41.4 213.35 41.35 213.2 41.25 213.5 41.15 213.65
Q 41.1 213.8 40.95 213.8 40.765625 213.8615234375 40.65 213.9
L 40.6 213 40.65 212.7 40.65 212.6 40.7 212.45 40.8 211.95 41 212.05 41 211.65 40.85 211
Q 40.75 209.85 41.15 208.7 42.1 205.3 42.9 203.3 43.95 200.55 45.15 197.9 45.3 198.05 44.8 199.55
L 45.35 198.35 45.6 198
Q 45.25 198.4 45.55 197.6 45.85 196.9 45.7 197.1 46 195.6 47.5 192.85
L 47.95 192.05 48.05 191.8 48.6 190.8
Q 49.15 189.9 49.5 188.95
L 44.45 179.45
Q 44.3 179.15 44.1 178.95
L 44.3 178.65 44.25 178.6 44 178.9 43.55 179.55 43.7 179.85 43.15 180.6 42.95 180.8
Q 42.8 180.9 42.7 181 42.5 181.15 42.15 181.75 42 181.7 42.1 181.45
L 42.45 180.75 43.45 179.35 43.6 179.1 42.45 180.45
Q 42.1 180.9 42 181.15 41.8 181.4 41.8 181.7 41.35 182.2 41.25 182.1 41.1 182 40.55 182.7
L 38.65 186.3 38.6 186.25
Q 37.7 187.5 36.65 189.95
L 35.75 192.1 34.95 193.55 35 193.2 32.8 197.95
Q 33.1 197.5 33.2 197.45 33.3 197.4 33.05 198.2 32.65 198.95 31.95 201
L 31.05 203.4 30.85 205.05
Q 30.25 207.45 29.95 209.15
L 29.55 211.95 29.45 221.35
Q 29.35 224.5 28.85 226.75 28.5 228.3 28.15 229.2 27.8 230.2 27.2 231.35 26.7 232.35 26 233.2
L 25.35 234 25.15 234.2 25 234.4 24.85 234.5 24.8 234.6 24.75 234.6 24.75 234.65 24.7 234.65 24.3 235.05 23.15 235.95
Q 22.25 236.55 21.8 236.75 21.5 236.95 20.65 237.3
L 19.9 237.5 19.65 237.6 19.85 237.5
Q 18.45 237.9 16.85 237.85 15.05 237.85 12.95 237.2
L 12.65 237.15 11.85 236.85 11.65 236.8 10.65 236.4 5.9 234.05 1.75 230.95 1.1 230.25 0.95 230.15 0.05 229.15 -1.6 226.8 -1.65 226.75 -1.65 226.7 -1.8 226.5 -1.85 226.45 -1.85 226.35 -2.15 225.9 -2.15 225.85 -2.2 225.8 -2.25 225.65 -2.55 225.1
Q -3.6 223.15 -4.45 220.65 -5.15 218.65 -5.55 216.6
L -5.9 211.2
Q -5.95 211.9 -6.05 211.8 -6.15 211.7 -6.15 211.1
L -6.2 208.6 -6.25 208.5 -6.25 208.35
Q -6.35 208.25 -6.35 207.9
L -6.35 204.75 -5.05 191.85 -4.95 191.5 -4.9 191.15 -4.85 190.95 -4.8 190.85 -3.95 187.75
Q -2.9 184.85 -1.95 182.7
L 3.4 171.55 3.8 170.45 3.95 170.15 4.05 169.85 4.9 168.1 4.95 168.05 4.95 167.95 5.05 167.85 6.95 164.35 7 164.2 7.75 162.85 7.65 163.15 8.05 162.5 8.15 162.3 10.2 159.3
Q 12.5 156.05 14.8 153.45 17.05 150.8 19.95 147.9
L 20.1 147.75 20.25 147.65 23.5 144.45 23.1 144.75 23.5 144.35 23.65 144.15 23.85 144 24.4 143.5 27.25 141.5
Q 27.1 141.45 27.3 141.1
L 27.9 140.35 29.45 138.85 29.5 138.75 29.55 138.75 29.6 138.8 34.5 133.7 35.25 132.75 35.45 132.55 35.6 132.3 35.7 132.55
Q 37.5 130.05 38.45 128.55
L 38.5 128.4 38.6 128.25 40.25 125.2 40.25 125.1 40.65 124.25 40.7 124.1 40.8 123.9 41.1 123.05 41.2 122.85 41.75 121.25 41.85 120.75 41.95 120.5 42.15 119.5 42.2 119.35 42.2 119.25 42.55 117.1
Q 42.7 114.65 42.5 112.6
L 42.4 112.05 42.6 109.35 42.55 109.15 42.5 109.4 42.45 110.4 42 102.15
Q 42 101.9 42.1 101.8 42.2 101.6 42.2 101.3
L 42.2 101 42.15 100.85 42.15 100.6 42.1 100.1 42.1 100 42.05 99.95 42.05 99.75 36.25 70.15 34.85 56.9 34.8 54 35.3 48.55 35.4 48.15 35.5 47.25 36.6 42.1
Q 36.7 41.85 36.7 42.05 36.7 42.18125 36.6 42.6
L 38.8 34.75 38.95 34.35 39 34.25 39.1 33.85 39.2 33.65 39.25 33.45 40.15 31.35
Q 40.75 29.9 41.75 28.05
L 42.6 26.95 42.9 26.65 43.15 26.45 43.2 26.3 43.35 26 43.6 25.65
Q 44.1 24.85 45.3 23.2
L 50.85 17.1 51.85 16.2
Q 52.5 15.6 53.9 14.5
L 56.1 12.8 56.35 12.55 62.65 8.35 62.95 8.2 64.15 7.45 64.25 6.9 66.7 5.65 67.55 5.4
Q 67.75 5.4 68.3 5.2
L 70.55 4.15 71.35 3.6 71.9 3.3 72.2 3.2 73.85 2.45 74.25 2.35 74.6 2.2 80.25 0.35
Q 80.25 0.4 80.6 0.3
L 80.8 0.25 80.95 0.25 81.4 0.15
Q 82.85 -0.2 82.65 0
L 82.8 -0.05 82.85 -0.05 83.3 -0.25 84.25 -0.5 84.4 -0.5 84.45 -0.55
M 178.55 72.9
L 178.55 72.95 178.5 72.95 178.55 72.9
M 164.6 166.8
Q 164.5 166.5 164.5 166.45
L 165.35 167.7
Q 165.5 168.15 165.45 168.2 165.35 168.3 165.1 167.95
L 167.65 172.15 167.8 172.3 167.9 172.5 168.35 173.1 168.4 173.2 168.45 173.25 168.45 173.3 168.55 173.4 169.05 174.15 176.25 183 176.25 183.05 176.35 183.1 176.5 183.3 181.4 188.7 181.2 188.3
Q 181.1 188.1 181 188.05
L 180.5 187.3 180.45 187.2 180.35 186.85 180.65 187.05 180.85 187.3 181.2 187.65
Q 181.45 188.1 181.75 188.2 181.65 188.45 181.9 188.75
L 182.85 190.2 183.15 190.9 183.55 190.95 183.75 191.45 185.2 193 186.9 195.35
Q 187.6 196.25 188.75 197.4 189.548046875 198.198046875 189.9 198.8 189.85 198.6986328125 189.85 198.55 189.85 198.4 190.15 198.65 190.1 198.8 190.25 198.95
L 190.4 199.2 190.45 199.2 190.55 199.3 190.75 199.55 190.9 199.8
Q 191.1 200 191.05 200.15
L 191.9 201.3
Q 192.4 202 192.4 201.5 192.4 201.6 192.75 202.45 192.95 203 192.6 202.55
L 193.3 203.75 193.35 203.8 193.35 203.7 193.1 203.2 193.5 203.75 193.5 203.8 193.55 203.85 193.8 204.35 193.9 204.45 193.95 204.55 193.95 204.6 194.05 204.75 194.2 205.1 194.25 205.15 194.3 205.25 194.35 205.4 194.55 205.75 194.75 206 194.9 206.15 195 206.3 195 206.15 194.95 206 194.9 205.75
Q 195.7 207.15 195.4 207.7
L 195.2 207.3 195.05 207.1 194.95 206.9 196.2 210.1 196.1 209.7 196.35 210.25 196.4 210.5 196.5 210.75 196.5 210.9 196.55 211.05 196.75 212.5 196.8 212.7 196.8 214.1 196.75 214.5 196.75 214.7 196.7 214.9
Q 196.5 216.3 195.85 218.2 195.5 219.2 195 220.45
L 195.65 219.95 195.15 221.3 194.95 220.65 194.8 220.3
Q 194.7666015625 220.199609375 194.75 220.15
L 194.65 220.4 193.4 222.25 193.2 222.45 193 222.75 192.95 222.85 192.75 223.05 192.3 223.6 192.1 223.9 188.9 227.2 187.1 228.65 187.1 228.7 187.05 228.7 187 228.75 186.9 228.8 186.7 228.95 186.65 229 186.6 229 186.55 229.05 186.4 229.15 186.3 229.2 186.25 229.25
Q 185.35 229.85 184.9 230.05 183.9 230.6 182.3 231.1
L 181.2 231.4 180.65 231.45 180.45 231.5 180.2 231.5
Q 179.9 231.55 178.85 231.55
L 178.4 231.4
Q 178.35 231.35 178.4 231.2
L 178.65 231
Q 178.3 231 178.1 231.1 177.95 231.1 177.85 231.2
L 177.65 231.25 177.15 231.25
Q 177 231.15 177.1 231.05
L 177.4 230.95
Q 176.55 230.75 176.5 230.9 176.85 231 176.85 231.3
L 177 231.75 175.65 231.55 175.75 231.3
Q 175.7 231.25 175.45 231.35
L 174.65 231.5 174.25 231.5 174.05 231.45 173.8 231.45 169 229.75 168.95 229.75 168.9 229.7 168.1 229.4 167.95 229.3 167.9 229.3 167.85 229.25 167.6 229.15 165.85 228.25
Q 165.95 228.15 166.25 228.25
L 167 228.5 166.45 228.2 166.3 228.15 166.2 228.05 165.95 227.85
Q 166.25 228.2 165.65 227.95
L 165.3 227.8
Q 165.2 227.75 165.3 227.85 164.1365234375 227.6560546875 162.6 226.6
L 163.3 220.6 163.35 221.25
Q 163.5 220.55 163.9 216.9
L 164.45 211.6
Q 164.38359375 212.0662109375 164.25 212.3 164.2 212.35 164.15 212.05
L 164.55 207.65 164.55 207.3 164.6 207 164.7 204.95
Q 164.75 202.65 165 200.2
L 164.85 197.15 165.25 185.2 164.5 166.85
Q 164.6 166.95 164.6 166.8
M 49.7 246.05
L 49.6 245.9 49.75 246.1 49.7 246.05
M 119.9 304.95
L 119.9 304.85 119.95 304.85 119.9 304.95
M 120.3 303.45
Q 120.0892578125 303.7271484375 119.9 303.95
L 119.95 302.85
Q 119.95 302.9369140625 120.3 303.45 Z"/>
</g>
</defs>

<g id="walk1">
<g transform="matrix( 0.6996917724609375, 0, 0, 0.6996917724609375, 57.25,20.7) ">
<g id="walk">
<g transform="matrix( 1, 0, 0, 1, 0,0) ">
<use xlink:href="#walk_3_Layer0_0_FILL"/>
</g>
</g>
</g>
</g>
</svg>
