
<svg xmlns="http://www.w3.org/2000/svg" version="1.1" xmlns:xlink="http://www.w3.org/1999/xlink" preserveAspectRatio="none" x="0px" y="0px" width="256px" height="256px" viewBox="0 0 256 256">
<defs>
<g id="walk_7_Layer0_0_FILL">
<path fill="#FFFFFF" stroke="none" d="
M 70 -8.35
L 66.15 -6.75
Q 64.15 -5.85 60.2 -3.85 56.5 -1.85 53.2 0.3
L 49.5 2.85 49.3 3.05 49.15 3.15 49.05 3.2 47.75 4.15 47.55 4.35 47.4 4.45 47.3 4.55 45.95 5.6
Q 42.45 8.35 39.1 11.9 35.95 15.4 33.7 18.65 32.5 20.4 31.65 21.9
L 30.1 24.85
Q 28.75 27.7 28.2 29.25
L 28.55 28.45 28.7 28.2 28.55 28.5 27.9 30.35 27.9 30.45 25.7 36.6
Q 25.25 37.8 24.7 39.8 25 39.5 24.65 42.6
L 23.95 47.8 23.85 47.7 23.65 49.75 23.6 56.6 24.6 65.65 24.3 65.45 33.85 111.6 33.85 111.8 33.9 112 34.1 114.3 33.45 118.85 33.3 119.3 33.1 120.2 32.95 120.65 32.85 121.15
Q 31.8 124.85 30.3 128.5
L 27.45 135 27.4 135.15 24.3 142.65 24.15 143.2 23.75 144.25
Q 23.65 144.35 23.75 143.85
L 20.95 153.6 20.55 154.5 20.3 154.9 20.3 155.05 18.45 167.55 18.45 168 18.4 168.4 18.4 174.1 18.85 174.35 18.9 176.2 18.85 176.75
Q 18.75 176.95 18.75 177.2
L 18.9 178.75
Q 19.1 179.05 19.3 180.1
L 19.8 183.95
Q 19.9 184.85 20.1 185.2 20 185.2 20.1 185.45
L 20.15 186
Q 20.15 186.75 20.1 186.7
L 20.4 187.5 20.45 187.8
Q 20.55 188.3 20.75 189.35 20.8 189.5 20.8 189.3
L 20.8 188.75 21.4 191.05
Q 21.5 191.75 21.4 191.85 21.3 191.95 21.1 191.25
L 23.5 200.25 24.9 204.05 25 204.25 25 204.35 25.05 204.4 27.9 210.55 28.05 210.95 28.25 211.3
Q 30.05 214.65 31.6 217.15 33.15 219.65 35 222.25
L 36.9 224.9 37.1 225.1 37.25 225.35 37.6 225.8 37.45 227 37.7 225.9 37.8 226.05 37.65 227.35
Q 37.6076171875 227.898046875 37.5 227.9
L 37.5 227.9 37.45 227.55 37.45 227.05 37.4 227.05 37.4 227.3 37.15 228.75
Q 37.25 229 37.35 228.3
L 37.4 229.6
Q 37.4 230.6 37.3 231.05 37.25 231.7 37.05 231.9
L 36.95 232.1
Q 36.85 232.3 36.85 232.85 36.65 235.1 36.55 239.55
L 36.4 250.55 37 259.85
Q 36.95 260 36.85 259.55
L 37.4 267
Q 37.3 267.55 37.05 268.1
L 37.1 268.2 37.1 268.35 37.15 268.55 37.65 281.65 38.1 281.8
Q 38.15 283.15 37.9 283.5 37.65 283.85 37.75 285 38.15 285.55 38.05 287.5 37.95 289.45 38.1 289.85
L 38.05 290.45
Q 37.95 291 37.85 290.95 38.05 291.2 38 291.8 37.95 292.75 38 292.95 38.05 293.1 38.15 292.9 38.2 292.65 38.25 292.55
L 38.35 294.25
Q 38.25 294.75 38.15 294.85 38 294.9 38 294.35
L 37.6 304.2 37.55 304.5 37.55 305.85 37.5 306.2 37.65 313.05 38.1 316.8 38.15 316.85 38.15 317.05 38.2 317.1 38.2 317.25 38.25 317.55 38.3 317.7 38.3 317.8 38.35 317.9 39.55 321.95
Q 40.25 323.65 40.8 324.6 41.55 326 42.2 326.85
L 42.4 327.1 42.55 327.35 44.6 329.6 44.65 329.6 44.65 329.65 45 330 45.1 330.05 45.05 329.95 45.05 329.9 45 329.9
Q 44.85 329.75 44.7 329.6
L 44.6 329.5 44.3 329.05 44.1 328.85 43.55 328.15
Q 43 327.4 42.9 327.15
L 42.65 326.7 42.55 326.3 43.9 327.9 44.05 328.05 44.3 328.4 44.55 328.65 45.1 329.05 45.1 329.15
Q 45.35 329.4 45.4 329.45
L 45.4 329.5 45.5 329.7 45.55 329.85 46 330.35 46.2 330.5 46.3 330.6 46.35 330.6 47.6 331.65
Q 47.75 331.7 47.95 331.9
L 48.1 332 48.55 332.4 48.85 332.6 49.3 333.1 49.95 333 50.1 333.2 50.65 333.65
Q 51.05 333.8 52.95 334.45
L 54.95 334.95 55.25 335.05 55.55 335.1 55.75 335.2 55.9 335.25 56.35 335.3 56.4 335.35 56.45 335.35 56.8 335.4 56.9 335.45 57.05 335.45 57.35 335.5 57.7 335.6 59 335.8
Q 59.85 335.9 61.2 335.9
L 62.9 335.85
Q 64.5560546875 335.7650390625 65.4 335.85 65.2974609375 335.823046875 65.2 335.75 65 335.6 65.55 335.55 65.6 335.65 65.95 335.65
L 66.65 335.65 66.85 335.6
Q 67.95 335.5 68.1 335.65
L 70 335.55
Q 71.15 335.45 70.6 335.15
L 71.2 335.3 72 335.4
Q 72.4 335.45 72.45 335.5 72.5 335.55 72 335.65 74.05 335.5 74.15 335.5
L 73.1 335.45 77.15 335.2 78.2 335 78.85 334.8 78.9 334.8 78.95 334.75 79.1 334.75 79.3 334.65 78.1 334.65 78.75 334.55 78.9 334.5 79.1 334.5 79.2 334.45 79.4 334.4 80.35 334.3 80.55 334.25 80.6 334.25 80.95 334.15 81.8 334.15 82.2 334.2 81.3 334.5 81.15 334.6 81.1 334.6 80.7 334.7 80.6 334.7 80.25 334.8 80.65 334.75 80.7 334.75 81.1 334.65 81.15 334.65 81.25 334.6 81.65 334.5 81.7 334.5 81.75 334.45 82.45 334.25 82.55 334.25 82.65 334.2 82.7 334.2 82.9 334.1 83.4 333.95 86.4 332.6 87.7 331.75 86.8 332.25 89.65 330.2 91.4 328.55 91.55 328.35 92.25 327.6 92.25 327.55 92.3 327.5 92.4 327.35 92.95 326.65 93.2 326.2 93.5 325.8 94.9 323.25 96.15 320.05 96.85 316.9 96.85 316.75 96.9 316.6 96.9 316.45 97 315.65 97 315.5 97.05 315.3 97.15 312.85 97.05 311.3 96.6 312.5 96.45 310.25
Q 96.471484375 310.421484375 97 310.95
L 97 311 98.15 314.05 98.25 314.25 98.25 314.3 99.05 315.85
Q 99.6 316.85 100.3 317.75 100.9 318.65 101.7 319.5
L 102.25 320.05 102.3 320.15 103.3 321.1
Q 104.9 322.55 106.8 323.75
L 113.4 327.05 113.5 327.05 113.9 327.2 114.1 327.3 114.2 327.3 114.25 327.35 115.4 327.75 120.8 328.95 121.3 329 121.55 329 121.75 329.05
Q 123.5 329.25 125.45 329.25
L 127.8 329.25 127.9 329.2 128.15 329.2 132.35 328.75 133.9 328.4 134 328.4 134.15 328.35 134.5 328.3 137.7 327.45 137.8 327.4 137.95 327.4 138.05 327.35 138.3 327.35 142.5 326.05 145.2 324.75 144.5 325
Q 144.35 325.1 144.35 324.95 144.4 324.8 145.15 324.4
L 146.65 323.45 146.9 323.35 147.05 323.2 147.3 323.05 147.95 322.55
Q 148.4 322.2 148.4 322.1
L 148.85 321.55 151.05 319.4 151.15 319.25 151.6 318.8 151.6 318.75 153 317.1
Q 154.1365234375 315.63203125 155 314.2
L 155.1 314.05
Q 156.5962890625 312.076953125 157.65 309.75 158.75 307.55 159.8 304.4
L 159.9 303.95
Q 160.8 300.5 161.75 295.55
L 163.15 287.75 163.2 287.55 163.2 287.15 163.75 278.95
Q 163.6 277.3 163.7 273.65 163.8 270 163.7 268.4
L 163.75 268.7 163.8 246.7
Q 163.9654296875 246.5744140625 164.1 245.05
L 164.05 241.15
Q 164.05 238.35 164.15 237.05
L 164.2 237.1
Q 164.45 233.85 164.25 229 164 224.65 164.15 221.3
L 164.25 221.95
Q 164.35 220.9 164.35 217.6 164.303125 214.12421875 164.4 212.2 164.3375 213.01875 164.25 213.15 164.1 213.3 164.05 211.75 164.15 209.75 164.15 206.1 164.15 203 164.3 201.3
L 164.1 199.45 164.1 199 164.05 199 164.05 198.65 164 198.3 164.2 185.85
Q 164.3 183.1 164.2 180.1
L 164 167.2
Q 163.95 164.95 163.65 160.1 163.45 156.85 162.95 152.8
L 161.85 145.85 161.75 145.5 161.75 145.35 157.95 130.95 156.15 125.65
Q 155.2 123.05 152.65 115.65
L 150.8 109.95 150.8 109.9 150.75 109.9 150.7 109.75 150.75 109.75 150.7 109.7 150.7 109.55 150.6 109.25 150.7 109.5
Q 150.2974609375 107.6216796875 150.25 106.15 150.15 104.95 150.2 104.35
L 150.3 103.05 150.35 102.85 150.35 102.65 150.9 100.7 151 100.55 151.05 100.35 151.45 99.55 151.5 99.55 151.5 99.5 151.55 99.45 151.55 99.4 151.6 99.4 151.8 99.1 151.9 98.9 152.2 98.6 152.3 98.45 153.65 97.25
Q 154.45 96.6 155.4 96.1
L 156.75 95.4 159.95 94.25 172.5 90.95
Q 175.05 90.2 176 89.8
L 178.35 88.9 178.4 88.9 178.45 88.85 178.85 88.7 179 88.6 179.05 88.6 179.1 88.55 179.3 88.5 179.5 88.4 179.6 88.3 179.65 88.3 179.7 88.25 179.85 88.2
Q 182.15 87 183.6 85.85 185.35 84.55 187 82.65
L 188.45 80.7 189 79.8 189.05 79.75 189.05 79.7 189.1 79.7 189.55 78.75 189.65 78.6 189.85 78.2
Q 189.9 78.05 189.95 77.95
L 190 77.85 190.25 77.15 190.4 76.9 190.6 76.3 190.65 76.05 190.85 75.45 190.9 75.15 191.15 74.3 191.2 74
Q 191.65 71.8 191.55 69.4 191.5 67.25 191 65.1
L 190.95 64.85 190.9 64.75 190.9 64.6 190.75 64.05 190.65 63.8 190.5 63.2 190.4 62.95 190.35 62.7 189.85 61.3
Q 189.25 59.65 188.25 57.85 187.5 56.35 186.35 54.7
L 184.45 52.3 184.4 52.2 183.85 51.6 183.8 51.5 183.75 51.45 183.6 51.35 183.4 51.05 181.85 49.55 174.05 43.25 174 43.25 173.85 43.1 173.6 42.95 166.75 37 166.65 36.95 165.3 35.55 165.4 35.75 165.6 36.05
Q 165.75 36.2 165.65 36.2
L 165.5 36.15 164.4 35 164.3 34.85 163.75 34.25 161.3 31 161.1 30.85 160.65 30.25
Q 159.65 28.9 157.95 26.05
L 154.75 20.3
Q 151.95 15.3 149.6 11.8 147.55 8.8 146.2 7.05 144.55 4.85 142.25 2.3
L 140.1 0.05 140 0
Q 138.75 -1.25 137.3 -2.4 135.4 -3.8 134.4 -4.45
L 128.3 -7.65 125.2 -8.9
Q 122.65 -9.8 119.05 -10.8
L 107.55 -12.95
Q 102.7 -13.55 97.9 -13.65
L 93.25 -13.6 92.9 -13.55 92.7 -13.55 90.5 -13.4 78.3 -11.05 78.15 -11 78.05 -10.95 77.9 -10.95 69.4 -8 70 -8.35
M 83.75 -0.45
L 84.2 -0.55 84.45 -0.65 87.1 -1.1
Q 87.45 -1.2 87.05 -1.2 86.45 -1.15 86.2 -1.15
L 89.8 -1.85
Q 90.95 -1.85 91.05 -1.75 91.2 -1.65 90.1 -1.5
L 98.8 -1.85 99.8 -1.8
Q 100.5 -1.8 100.85 -1.75
L 102.7 -1.65 102.95 -1.6 110.25 -0.65 110.45 -0.65 110.55 -0.6 111.25 -0.5 111.4 -0.45 111.5 -0.45 111.55 -0.4 112.45 -0.25
Q 118 0.85 122.2 2.5 125.15 3.75 126.6 4.6 128.45 5.65 130.25 7.1
L 131.05 7.75 131.2 7.95 131.3 8.05 131.4 8.1 131.55 8.3 131.6 8.35 131.65 8.35 131.7 8.45 132.4 9.15 132.5 9.3 133.35 10.2
Q 134.5 11.45 136.25 13.7
L 138.45 16.7 138.7 17.15
Q 139.25 17.85 139.75 18.75
L 140.5 19.9 140.6 20.1 140.7 20.25 143.4 25.05
Q 143.35 24.85 142.95 23.8
L 141.8 21.6 141.65 21.2 141.45 20.85 141 19.7 141.55 20.5 143.5 23.9 143.8 24.25
Q 143.75 24.6 144.2 25.7
L 144.55 26.55 144.55 26.6 144.6 26.6 144.6 26.7 144.65 26.75 146.4 30.45
Q 147 31.65 147.25 32.65
L 148 33.25 148.65 34.75 154.65 43.2 157.1 45.95 157.2 46 157.35 46.15 157.4 46.25 166.1 53.15 166.15 53.2 166.2 53.2 166.3 53.3 167.05 53.8 170.15 56.3
Q 169.7 55.9 169.5 55.6 169.25 55.25 170.15 55.85 170.15 56 171.85 57.4 172.75 58.1 173.05 58.45
L 173.45 58.85
Q 173.65 59.15 173.65 59.2
L 173.85 59.4 173.9 59.4 173.9 59.4 174 59.5 174 59.55 174.5 60.05 174.6 60.2 174.75 60.35 174.85 60.5 176.1 62
Q 176.15 62.1 176.4 62.35
L 176.6 62.45 176.55 62.1 176.9 63 177.05 63.3 177.15 63.6 177.4 64.15 177.55 64.8
Q 177.55 64.95 177.45 64.75
L 177.35 64.55 177.15 64.25
Q 177.65 65.35 177.8 65.9
L 177.95 66.25 178.05 66.6 178.1 66.65 178.1 66.7 178.2 66.95 178.25 67.2 178.3 67.3 178.3 67.15 178.2 66.85 178.15 66.6 178.15 66.5 177.95 65.75 178.1 66.1 178.25 66.65 178.3 66.75 178.4 67.2 178.45 67.3 178.45 67.35 178.5 67.5 178.5 67.6 178.55 67.65 178.55 67.75 178.6 68.05 178.6 68.15 178.65 68.3
Q 178.8 69.3 178.7 70.15 178.7 70.95 178.55 71.6
L 178.5 71.75 178.5 71.95 178.45 72.1 178.45 72.2 178.4 72.25 178.4 72.45 178.35 72.5 178.35 72.6 178.3 72.75 178.3 72.85 178.4 72.65 178.35 72.8 178.4 72.7 178.45 72.65 178.35 72.85 178.45 72.7 178.5 72.6 178.55 72.55 178.55 72.5 178.85 72 178.65 72.6 178.5 72.9 178.5 72.95 178.35 73.2 178.35 73.3 178.3 73.3 178.3 73.35 178.25 73.4 178.25 73.45 178.2 73.45 178.2 73.5 178.1 73.6 178.05 73.75 177.95 73.85 177.8 74.05 177.6 74.25 177.45 74.45 177.35 74.5 177.25 74.6 176.75 74.9 176.4 75
Q 177.15 74.25 177.5 73.55
L 176.9 74.35 176.6 74.65 176.55 74.75 176.35 74.9 176.25 75 176.15 75.05 175.75 75.45 175.7 75.45 175.6 75.55 175.15 75.85 175.05 75.9 174.95 76 174.7 76.1 174.6 76.2 174.5 76.25 174.05 76.55 173.9 76.6 173.35 76.9 173.25 76.9 173.25 76.95 172.95 77.05 172.9 77.1 172.85 77.1 172.55 77.25 169.9 78.3 171.3 77.85
Q 170.45 78.3 168.5 78.9
L 157.2 82.1 157 82.2 154.3 83.1 154.05 83.15 153.85 83.25 153.05 83.55 152.8 83.7 152.7 83.7 152.65 83.75 152.1 84 151.95 84.05 151.7 84.2 150.25 84.9
Q 148 86.2 146.6 87.25
L 144.85 88.65 143.65 89.85 141.9 92.05 141.85 92.1
Q 141.9 92.1 141.75 92.25
L 141.75 92.3 141.7 92.35 141.6 92.55 141.55 92.6 140.25 94.9 139.2 97.7 138.6 100.35 138.55 100.75 138.55 100.95 138.5 101.15 138.35 104.05
Q 138.35 106.3 138.65 107.9 138.75 105.85 138.9 104.85 138.95 107.3 139.65 110.3
L 139.55 110 138.85 108.8
Q 138.3943359375 107.9939453125 138.25 107.55
L 138.7 110.9 138.9 111.8 138.95 112.25 139 112.4 139.05 112.45 139.05 112.55 139.1 112.65 139.1 112.8 145.6 132.15
Q 147.55 138 148.75 142.8
L 150.1 148.9 150.1 149.1 150.15 149.25 150.3 150.05 150.3 150.2 150.8 153.45
Q 151.4 158 151.65 163.45
L 151.85 176.95
Q 151.75 179.3 151.5 178.7 151.3 177.65 151.25 177.6 151.25 178.9 151.35 179.9
L 151.45 180.75
Q 151.6 181.35 151.6 183.4 151.55 184.1 151.4 183.6 151.3 183.25 151.25 182.6 151.25 183.3 151.25 184.9 151.2 185.9 151.3 185.95 151.4 184.75 151.7 184.45 151.85 184.35 151.95 184.25 152.1 184.15 152.2 183.85
L 152.1 188.75 151.8 188.55 151.9 189.5 151.95 189.65 151.95 189.8 152.1 190.95
Q 152.25 192.75 152.25 193.15 152.35 194.5 152.25 196.35
L 152.2 222.05
Q 152 221.95 151.8 218.45 151.8 221.8 151.75 222.3 151.9 221.15 152 223.1 152 224.7 152.05 224.2 152.11875 224.7845703125 152.15 225.6
L 152.05 237.05
Q 151.95 237.2 151.95 237.1 151.95 236.85 151.9 236.7
L 151.8 245.5
Q 151.7 246 151.35 246.7 151.4 246.65 151.4 247.25
L 151.1 262.6 151.6 262.8 151.5 264.25 151.3 264.7
Q 151.15 264.85 151.1 265.15
L 151.05 265.65 151.05 266.5
Q 151.45 267.1 151.25 269.35 151.15 271.95 151.2 272.15 151.1 273.5 150.9 273.4 151.25 273.85 151 275.7 151.1 276 151.25 275.25
L 151.3 277.25
Q 151.2 277.85 151.05 277.9 150.9 277.95 150.9 277.35
L 150.4 285.75 147.4 300.75
Q 146.603515625 302.94296875 145.9 304.35 145.55 305.2 145.15 305.7
L 144.6 306.55 144.15 307.1 144.05 307.3 143.6 308.05
Q 143.8 307.95 144.25 307.4
L 144.75 306.65
Q 145.3 306.1 145.65 306 145.55 306.35 145.1 306.95
L 144.6 307.65
Q 144.3 308.15 144.3 308.3 144 308.3 143.1 309.2
L 142.45 309.85 142.25 309.95 142.2 310
Q 142.0927734375 310.1072265625 142.05 310.15
L 142 310.15 141.95 310.2 141.85 310.25 141.8 310.3 141.55 310.3 141.65 310.75 141.15 310.95 139.95 312.15 139.85 312.2 139.7 312.35 139.55 312.45 139.4 312.6 139.35 312.6 139.3 312.65 139.25 312.65 138.8 312.9 138.4 313.05 137.75 313.4 137.45 313.5 134.7 314.8 134.55 314.85 134.45 314.9 134.4 314.9 134.4 314.9 134.3 315 134.15 315.05 134.1 315.05 134 315.1 133.3 315.35
Q 132.5 315.55 132.15 315.55
L 132.6 315.6
Q 132.85 315.7 132.35 315.85 132.25 315.75 131.95 315.85
L 131.6 315.9 131.55 315.9 131.55 315.95
Q 131.5 315.95 131.45 315.95
L 131.4 315.95 131.3 316 131.2 316 131.15 316.05 131.1 316.05 130.95 316.1 130.9 316.1 130.9 316.15 130.8 316.15 130.45 316.25 130 316.2 128.4 316.4
Q 127.35 316.6 127.9 316.85
L 127.35 316.7 127.3 316.7 127.1 316.65 126.85 316.65 126.75 316.6 126.7 316.6
Q 126.35 316.5 126.3 316.5 126.25 316.4 126.65 316.35
L 126.1 316.35 125.95 316.3 125.3 316.3 124.9 316.35 125.75 316.5
Q 124.45 316.5 122.95 316.2 121.55 316 120.85 316.05
L 121.25 316.2 121.45 316.3 121.6 316.35
Q 120.45 316.2 119.95 315.95 119.6 315.9 119.35 315.65
L 119 315.3 119.15 315.3 119.3 315.35 119.95 315.45 120.1 315.5 120.25 315.5
Q 119.75 315.4 118.95 315.1
L 118.8 315.05 118.75 315.05
Q 118.8017578125 315.0986328125 118.85 315.1
L 118.8 315.1 118.75 315.05 118.65 315 118.25 314.9 115.15 313.75 115.75 314.05 115.2 313.9 114.9 313.75 114.7 313.7 112.85 312.75 112.65 312.6 112.45 312.5 112.25 312.35 112.15 312.25 112.05 312.2 111.9 312.1 111.85 312.1 111.55 311.8 111.45 311.75 111.4 311.7 111.35 311.7 111.3 311.6 111.15 311.45 111.05 311.4 110.85 311.2 109.55 309.6 109.4 309.3 109.3 309.2 109.2 308.9 108.65 307.75 108.35 306.9 107.2 302.55 106.95 303.65 106.65 302.4 106.65 302.2 106.6 302.15 106.6 302.25 106.55 301.95 106.55 301.7 106.6 301.8 106.65 301.85 106.7 301.95 106.9 302.1 107 302.2 107 302.15 107.05 302.15 107.5 302.55
Q 107.575 302.625 107.6 302.65
L 107.6 302.45 107.55 302.3 107.65 299.4 108.55 294.35 108.55 294.3 108.6 294.05 108.6 294 108.65 293.9 108.95 292.25 108.95 292.2 109 291.95 109.05 291.8 109.05 291.75 109.1 291.7 109.25 291.15 109.25 291.05 109.3 290.95 109.35 290.75 109.65 289.95
Q 110.15 288.4 110.95 286.7 112.45 283.55 114.45 280.6
L 114.6 280.4 115.35 279 115.45 278.85 115.5 278.65 116.05 277.5 116.2 277.1 116.55 276.4 118.6 269.8 118.75 269.5
Q 118.8 269.4 118.85 269.4 118.9 269.4 118.9 269.5 119.05 269.8 119.05 270.2 119.2 268.75 119.1 268.25
L 119.1 267.35 119.15 267.05 119.15 266.65
Q 119.25 266.3 119.35 266.55
L 119.45 267.05 119.45 267 119.5 266.8 119.5 266.45 119.6 265.35 119.5 265.15 119.35 265.8
Q 119.15 266 119.1 266 118.6 266.3 118.6 266.35
L 118.7 264.15 118.75 263.8 118.75 263.45 119 263.55
Q 118.8 262.85 118.65 262.15
L 118.35 260.95 118.15 259.2
Q 117.95 256.05 116.85 252.15 115.9 248.85 114.4 245.65
L 114.6 245.75 114.9 246.15 115.55 247.3
Q 114.9 245.85 114.75 245.35 114.9 246.2 114.4 245.05 113.9 244.15 114.05 244.55
L 112.7 242.65 112.6 242.55 108.95 237.75 109.8 236 110.05 235.3 110.2 235 110.3 234.65 110.35 234.55 110.7 233.6 110.7 233.55 110.75 233.45 111.9 229.1 112.45 224.5 112.35 220.7 112.3 220.45 112.3 220.2 112.2 219.25 111.05 214.2 110.95 214 110.9 213.75 110.6 212.9 110.55 212.7 110.45 212.5
Q 109.25 209.35 107.55 206.5 106.45 204.65 104.65 202.2
L 102.25 199.1 102.1 198.8
Q 101.9 198.5 102.2 198.65 102.35 198.65 102.55 198.85
L 102.8 199 102.5 198.65 101.8 198 100.95 197.4 100.15 196.6
Q 99.95 196.35 100.15 196.4
L 100.45 196.55 100.7 196.75 99.75 195.75
Q 99.25 195.35 99.2 195.35 99.7 195.95 99.6 196.25
L 99.55 196.45
Q 99.5 196.6 99.55 196.8
L 98.8 196 98.5 195.75 97.5 194.75 97.75 194.65 97.3 194.35 96.55 194 95.85 193.55 95.75 193.45 95.6 193.35
Q 94.9 192.75 94.4 192.2
L 85.15 181.9
Q 85.25 181.85 86.7 183.2
L 85.35 181.55
Q 85.85 182.35 84.95 181.35 84.3 180.7 84.45 180.95
L 83.5 180.1 80.7 177
Q 78.15 173.9 77.25 173.1
L 66.7 174.05 66.1 174.05 65.5 174.15 65.25 173.75 65.2 173.75 65.95 175.05 66.35 174.95 67.1 176.2 67.2 176.5 67.8 177.4
Q 67.65 177.55 66.9 176.65
L 65.35 174.45 65.65 175 67.15 177.25 67.65 177.7
Q 68.05 178.35 67.9 178.4 67.8 178.55 68.3 179.3 68.75 179.8 69.8 180.9 70.75 181.95 71.25 182.7
L 71.2 182.7 72.3 184.2 72.7 184.65
Q 73.15 185.2 74.1 186.15
L 76.95 189.45 76.65 189.25 78.2 191.15
Q 79.1 192.05 80.25 193.55 79.95 193.1 79.95 193 80 192.85 80.6 193.45 81.35 194.45 82.7 195.9
L 84.5 198 85.95 199.05 96.3 209.7 98.25 212.6 98.5 212.9 98.55 213 98.55 213.1 99.4 214.65 99.45 214.7 99.5 214.8 99.55 215 99.7 215.35
Q 99.9 215.65 100 216.05
L 101 218.85
Q 101.4 220.75 101.5 221.65
L 101.6 224.05 101.55 224.4
Q 101.55 225.6 101.3 227
L 101.1 227.95 101.05 228.1 101.05 228.25 100.85 228.85 100.85 229 100.7 229.35 100.6 229.85 100.25 230.85 100.2 230.95 100.2 230.95 100.25 230.9 100.2 231 100.2 230.95 100.15 231.05 99.95 231.55
Q 99.5095703125 232.791015625 98.85 234
L 98.55 233.4 98.6 233.55 98.85 234.05
Q 98.7078125 234.3625 98.55 234.65
L 98.6 234.4 98.4 234.8 98.25 235 98.15 235.25 97.45 236.3 97.4 236.4 97.3 236.5 96.55 237.55 95.45 238.7 95.25 238.85
Q 95.15 239 94.85 239.2 93.9 240 93.1 240.45 92.15 241 91 241.35 89.55 241.75 88.55 241.85 87.3 242 85.8 242
L 84.9 241.95 84.75 241.9 84.2 241.9 84 241.85 82.55 241.65 82.4 241.65 82.3 241.6 82.15 241.6 81.25 241.4 81.15 241.4 76.25 240.3
Q 73.15 239.55 69.9 238.55
L 64.4 236.55
Q 61.7 235.3 60.25 234.4
L 59.8 233.95 59.65 233.85 58.75 233 58.7 233 58.7 232.95 58.45 232.7 58.35 232.65 56 230.25
Q 56.55 230.85 56.35 230.85 56.2 230.85 55.7 230.35
L 54.45 229.05 54.1 228.6 53.4 228
Q 53.25 227.95 52.95 227.65
L 48.65 222.85 42.05 214
Q 39.95 210.8 38.7 208.6 36.9 205.45 35.85 203
L 33.9 198.4 31.55 190.15
Q 30.9 188.25 30.25 184.75
L 29.25 179.25 29.4 179.6 29.05 177.15 29.05 177 29 176.8 28.75 174.25
Q 28.6 172.3 28.65 170.45 28.65 168.55 28.9 166.15 29.3 162.05 30.35 157.75 31.5 153.3 31.75 152.3
L 31.55 152.8 31.85 151.65
Q 31.9 151.3 32.1 150.8
L 33.65 147.1
Q 33.5 147.2 33.5 146.75
L 33.6 145.95 33.7 145.65
Q 33.85 144.75 34.4 143.1
L 34.45 143.2 37.4 134.4 37.55 134.6 41.3 121.55
Q 41.8 119.35 42 117.1
L 42.05 116.8 42.05 114.9 42.15 114.35 42.15 114.1 42.2 113.95 42.2 113.8 42.25 113.3 42.05 114.4 42.2 111.35 42.25 111.15 42.3 113.2 42.45 111.6 42.45 111.35 42.5 111.1 42.6 109.2 42.55 109 42.5 109.25 42.45 110.25 42.15 104.85 42.1 104.45 42 102
Q 42 101.75 42.1 101.65
L 42.15 100.4 35.55 64.95 34.8 53.7 35.1 50.35 35.1 49.95 35.2 49.5 35.4 47.8 35.5 47.4 35.5 47.15 36.65 41.75
Q 36.85 41.4 36.65 42.4
L 38.6 35.3 38.65 35.2 38.65 35.1 38.9 34.35 39 34.15 39.05 33.95 39.15 33.75 39.15 33.65 39.2 33.6 39.2 33.55 39.35 33.1 39.55 32.7 40.05 31.4 41.85 27.7
Q 42.25 27.15 43.3 26.1
L 43.35 25.95 43.75 25.3
Q 44.8 23.75 45.5 22.85
L 50.35 17.45 53.65 14.6 53.9 14.35 56.15 12.65 56.25 12.55 56.35 12.5 56.4 12.45 57.4 11.7 57.65 11.55 57.9 11.35 64.5 7.15 64.6 6.6 65.65 6.05 65.8 5.95 67.05 5.35
Q 67.25 5.35 67.35 5.25
L 67.9 5.15
Q 68.5 5 68.7 4.9
L 70.95 3.9
Q 71.15 3.7 71.75 3.35
L 72.9 2.75 77.3 1.25 77.45 1.15 80.65 0.15 80.75 0.15 80.9 0.1 80.95 0.1 82.75 -0.2 83 -0.2 83.1 -0.15 83.75 -0.45
M 104.2 251.75
L 104.25 251.85 104.8 254
Q 104.7787109375 253.7712890625 104.85 253.7 104.95 253.7 105 253.8
L 105.2 254.25 105.4 255.5 105.5 255.8 105.95 258.55 106.3 259.45 106.45 259.7 106.5 260.25 106.55 260.4 106.55 260.6 106.65 261.25 106.75 264.75 106.7 265 106.6 266.45 106.55 266.7 106.55 266.85 106.5 266.95 106.45 267.45 105.85 270.1
Q 105.27265625 272.1427734375 104.35 273.9 101.7298828125 278.0443359375 100.2 281.4 99.25 283.3 98.55 285.4
L 97.85 287.4 97.85 287.5 97.8 287.6 97.8 287.65 97.7 287.9 97.5 288.6 97.5 288.7 97.4 288.95 97.45 279.85
Q 97.55 278.85 97.8 279.1 97.9 279.2 98.05 279.55
L 97.9 278.55 97.75 278.2
Q 97.6 277.6 97.6 277 97.65 276.7 97.8 276.9 97.9 277.1 97.95 277.35 97.95 275.9 97.8 275.85 97.75 276.4 97.45 276.55 97.05 276.7 97 276.85
L 96.95 274.65 97.2 274.7
Q 97 274.2 96.8 273.65 96.4 272.65 96.45 271.35
L 95.8 260.15
Q 95.95 260.2 96.25 261.7 96.15 260.5 96.2 260.05 96.1 260.55 95.95 259.7 95.85 258.95 95.85 259.2 95.65 258.5 95.45 257.1
L 95.35 254.85
Q 95.25 253.4 95.1 252.7
L 95.05 252.2 94.8 251.5
Q 95.2935546875 251.33046875 95.75 251.15 98.05 250.15 100 248.8 101.4646484375 247.7537109375 102.75 246.45
L 103.5 248.7 103.6 248.9 103.95 250.25 103.75 250 103.8 250.4 104.1 251.35 104.15 251.6 104.2 251.75
M 82.45 253
L 81.65 252.85 81.5 252.85 81.35 252.8 81.55 252.8 81.8 252.85 83.85 252.95
Q 83.837109375 253.920703125 83.75 254.4
L 83.7 254.4
Q 83.65 255.35 83.8 256.25
L 84.1 257.85
Q 84.55 259.7 84.4 261.15
L 84.3 260.85 84.35 265.15
Q 84.4 264.75 84.5 264.65 84.6 264.6 84.65 265.25
L 84.6 267.65
Q 84.7 268.2 84.6 268.7
L 84.55 269.7 84.85 271 85.55 309.35 85.5 309.1 85.15 313.7 85.1 313.9 85.1 314.15 85.05 314.3 85.05 314.3 85 314.5
Q 84.85 315.35 84.55 316.15
L 83.8 317.9 83.55 318.25 83.45 318.45 83.3 318.65 83.25 318.75 83.2 318.8 82.95 319.15 82.95 319.2 82.9 319.2 82.9 319.25 82.85 319.3 82.85 319.35 82.8 319.4 82.65 319.5 82.4 319.75 82.25 319.85 82.15 320 81.65 320.35 81.6 320.4 81.3 320.55 81.15 320.65 80.75 320.85 80.7 320.9 80.65 320.9 79.05 321.6 78.9 321.6 78.85 321.65 78.8 321.65 78.6 321.7 78.5 321.75 78.45 321.75 78.35 321.8 78 321.9 76.95 322.1 76.8 322.15 76.25 322.25 75.95 322.25 75.4 322.35 75.25 322.35 75.1 322.4 63.75 322.9
Q 63.65 322.85 61.4 322.45
L 59 322.05 59.05 322.1 59.1 322.1 59.2 322.15 59.35 322.2
Q 59.5 322.25 59.4 322.35
L 59.2 322.4 58.95 322.4 58.8 322.35 58.7 322.35 58.6 322.35 58.45 322.3
Q 58.6265625 322.3353515625 58.7 322.35
L 57.3 322 57.25 322.05 56.9 322.05 56.4 321.9 56.2 321.8 56 321.75 55.75 321.6 55.5 321.5 54.75 321.1 54.55 320.95 54.45 320.9 54.1 320.65 54.05 320.65 54.05 320.6 54 320.6 53.9 320.5 53.85 320.5 53.85 320.45 53.8 320.4 53.6 320.25 53.6 320.3
Q 53.5556640625 320.2478515625 53.5 320.2
L 53.6 320.25 53.2 319.85 52.4 318.8
Q 51.9 317.75 51.75 317.4 51.6 317.1 51.15 315.75
L 51 315.1 51 314.95 50.95 314.8 50.9 314.5 50.9 314.45 50.85 314.35 50.8 314.1 50.8 313.85 50.7 313.3 50.45 306.8 50.5 306.25 50.5 304.85 50.55 304.55 50.95 295.4
Q 50.75 294.45 50.75 293.15
L 50.65 290.75
Q 50.65 287.55 50.45 286.15
L 50.6 286.45 50.35 277.65 49.2 262.9 49.2 263.4
Q 48.85 261.7 48.95 260.65 49.05 259.55 49 258.35 48.75 258.6 48.35 257.25 48 256.2 47.85 255.15
L 47.95 255.15 46.9 250.1 46.9 250.05 46.85 249.95 46.85 249.85 46.85 249.65 46.75 249.15 46.7 248.2 46.9 248.3 46.5 244.45
Q 46.4 241.7 46.3 241
L 46.05 235.75 47.2 236.95 47.7 237.6 50.95 240.9 51.85 241.65 57.4 245.1 56.9 244.7
Q 56.8 244.55 57.4 244.75 57.4 244.85 57.8 245.1
L 58.25 245.35 59.8 246 60.4 246.4 62.7 247.35 63.6 247.6
Q 63.85 247.6 63.55 247.35
L 65.1 248.2
Q 65.55 248.45 65.6 248.5 65.65 248.55 65.05 248.4
L 66.4 248.95
Q 67.2 249.25 67.55 249.3
L 66.4 248.8 71 250.4 73.3 250.9 72.2 250.4 74.7 251.1
Q 76 251.55 76.3 251.85
L 74.35 251.45
Q 75.75 251.85 78.35 252.4
L 78.8 252.5 78.9 252.55 79.1 252.55 79.75 252.7 80 252.7 80.1 252.75 80.25 252.75 82.45 253
M 108.85 292.55
L 108.9 292.4 108.85 292.6 108.85 292.55 Z"/>
</g>
</defs>

<g id="walk5">
<g transform="matrix( 0.6996917724609375, 0, 0, 0.6996917724609375, 57.25,20.7) ">
<g id="walk">
<g transform="matrix( 1, 0, 0, 1, 0,0) ">
<use xlink:href="#walk_7_Layer0_0_FILL"/>
</g>
</g>
</g>
</g>
</svg>
