
<svg xmlns="http://www.w3.org/2000/svg" version="1.1" xmlns:xlink="http://www.w3.org/1999/xlink" preserveAspectRatio="none" x="0px" y="0px" width="256px" height="256px" viewBox="0 0 256 256">
<defs>
<g id="walk_1_Layer0_0_FILL">
<path fill="#FFFFFF" stroke="none" d="
M 70 -8.35
L 66.15 -6.75
Q 64.15 -5.85 60.2 -3.85 56.5 -1.85 53.2 0.3
L 49.5 2.85 49.3 3.05 49.15 3.15 49.05 3.2 47.75 4.15 47.55 4.35 47.4 4.45 47.3 4.55 45.95 5.6
Q 42.45 8.35 39.1 11.9 35.95 15.4 33.7 18.65 32.5 20.4 31.65 21.9
L 30.1 24.85
Q 28.75 27.7 28.2 29.25
L 28.55 28.45 28.7 28.2 28.55 28.5 27.9 30.35 27.9 30.45 25.7 36.6
Q 25.25 37.8 24.7 39.8 25 39.5 24.65 42.6
L 23.95 47.8 23.85 47.7 23.65 49.75 23.6 56.6 24.6 65.65 24.3 65.45 33.85 111.6 33.85 111.8 33.9 112 34.15 114.95 34.15 115 34.15 115.15 34.1 115.35 34.05 115.8 34.05 115.95 34 116.05 34 116.3 33.9 116.75 33.9 116.85 33.85 116.95 33.45 119.05 29.95 129.3 23.5 144.95
Q 23.38984375 145.1337890625 23.45 144.8
L 22.1 149.6
Q 21.5 151.85 21 154.6 20.9 154.9 20.35 156 20.5 155.75 20.3 156.65
L 20 158.7
Q 19.5 162.2 19.3 165.25
L 19.2 171.75 19.25 172.1 19.45 175.4 19.85 175.6 19.95 176.75 19.95 177.1 20 177.4
Q 20 177.8 19.9 178
L 19.85 178.2 19.85 178.55 20.05 180.05
Q 20.25 180.25 20.3 180.6
L 20.5 181.35 20.75 183.25
Q 21.05 186 21.25 186.35 21.45 187.9 21.25 187.85 21.4 188 21.6 188.9
L 21.8 190.4
Q 21.9 190.6 21.9 190.35 21.9 189.95 21.9 189.85
L 22.4 192.1
Q 22.45 192.8 22.35 192.9 22.25 193 22.1 192.3
L 24.15 203.25 24.4 204.2 24.45 204.25 24.45 204.45 24.5 204.5 24.7 205.25 24.7 205.3 24.75 205.35 24.75 205.45 25.5 207.55 25.55 207.75 25.65 207.95 25.8 208.4 26 208.8 26.15 209.25 28.15 213.3
Q 30.05 216.65 31.75 219.2
L 33.1 221.2 33.6 221.8
Q 33.65 221.9 34.05 222.45
L 35.4 224.3 35.4 224.35
Q 35.4189453125 224.406640625 35.45 224.35
L 35.55 224.5 35.6 224.55
Q 35.6849609375 226.2328125 35.6 226.7 35.55 227.4 35.35 227.5 35.2 227.65 35.15 228.5
L 35.1 229.8 35.05 230.15 35.4 244.55
Q 35.7 248.2 35.95 249.9
L 35.95 250.1 37.35 255.85
Q 37.3 256 37.25 255.9 37.2 255.75 37.15 255.65
L 37.75 259
Q 37.95 260.15 38.15 262.25
L 38.1 262.6 37.9 263.05 37.85 263.1 37.85 263.15 37.8 263.05 37.8 263.1
Q 37.85 263.05 37.9 263.55
L 37.65 269.3 37.6 269.55 37.6 269.8 36.8 273.85 36.8 273.85 36.8 273.95 36.75 274.05 36.75 274.1 36.65 274.3 37.1 274.6 36.65 275.8 36.35 276.15
Q 36 276.3 35.7 277.5 35.85 277.95 35.7 278.6
L 35.25 279.95
Q 34.45 281.85 34.5 282.2 34.1 283.3 33.9 283.15 34.05 283.5 33.8 284 33.7 284.35 33.45 285.05 33.45 285.35 33.8 284.75
L 33.35 286.4
Q 33.1 286.85 32.95 286.9 32.8 286.9 32.95 286.4
L 31.2 290.9 31.1 291.1 31.05 291.3 30.75 291.95 29.9 294.55
Q 29.45 295.9 29.15 297.4
L 28.75 300 28.7 300.1 28.7 300.3 28.65 300.45 28.55 306.7 28.7 308.3 28.75 308.5 28.75 308.6 28.7 308.3 28.7 308.35 28.85 309.45
Q 29 310.95 29.3 312.45
L 29.65 313.75 29.65 313.9 29.7 313.95 29.7 314.05 30.9 317.65 31.75 319.55 31.9 319.8
Q 32.6 321.15 33.75 322.8
L 32.65 320.6 32.5 320.15
Q 32.3 319.55 32.35 319.35
L 33.2 320.7 33.55 321.4 33.75 321.7 34.15 322.15 34.2 322.55 34.4 323.05 34.75 323.65 35.7 324.9 35.7 324.95 35.85 325.1 35.9 325.2 36 325.3 36.15 325.5 36.2 325.55 36.25 325.65
Q 36.75 326.25 37 326.8
L 37.6 326.9 38.15 327.65 39.65 328.7 39.75 328.8 39.8 328.8 39.8 328.85 39.85 328.85 40.4 329.2 40.45 329.2 40.55 329.3 40.7 329.4 44.2 331.4 45.15 331.8 45.15 331.8 45.25 331.85 45.2 331.85 47.8 332.75 48.1 332.8
Q 49.25 333.05 50.3 333.15
L 50.8 333.2 51 333.2 51.25 333.25 51.7 333.25 53.75 333.45 53.15 333.3
Q 53.05 333.2 53.15 333.15
L 53.6 333.1
Q 53.65 333.15 54.1 333.25
L 56.45 333.1
Q 56.55 333.1 56.75 333.2
L 57.2 333.15 57.25 333.15 57.7 333.1 57.75 333.05 57.85 333.05 59.1 332.8
Q 59.65 332.7 59.8 332.55 59.95 332.4 59.65 332.3
L 61.1 332.35
Q 62.15 332.25 61.15 332.6
L 62.85 332.25 63.3 332.1 62.25 332.2 65.6 331.45
Q 67.25 331 68.2 330.4
L 67.1 330.6 69.85 329.65 70.05 329.65 70.15 329.6 70.75 329.6 70.55 329.75 70.15 329.95 70.05 329.95 70.05 330 69.3 330.35 70 330.1 70 330.05 70.1 330.05 74 328.1 74.05 328.05 74.1 328.05 74.15 328 74.2 328 74.2 327.95 75.45 327.15 74.65 327.55 80.75 322.65 80.75 322.6 80.8 322.6 80.8 322.55 80.95 322.45 81.95 321.4 84.4 318.15 85.15 316.75
Q 85.45 316.25 86.45 314.4
L 86.6 314.15 86.65 314.1 86.65 314.05 86.7 313.95 86.7 313.9 86.8 313.8 88.05 310.95 87.15 311.75 87.95 309.75
Q 87.8701171875 309.99375 88.15 310.6 88.305078125 311.14296875 88.25 311.3
L 90.55 307.05 90.6 306.8
Q 91.75 304 93.1 299.7 94.25 295.9 95.4 291.7
L 97.95 280.7 98 280.6 98 280.5 98.05 280.3 98.05 280.25 98.15 279.95
Q 98.4 278.95 98.6 279.25 98.7 279.4 98.8 279.75 98.85 278.75 98.75 278.35
L 98.7 278.2 98.7 278 98.8 277.1
Q 98.9 276.55 99.1 277.5 99.1 277.3 99.25 276.4 99.3 275.95 99.2 275.9 99.05 276.5 98.75 276.6 98.35 276.7 98.25 276.8
L 98.5 274.45 98.75 274.6
Q 98.8 274.45 98.5 273.45
L 98.35 272.45 98.35 271.75 98.4 271.4 98.55 264.05 98.5 263.65 98.3 259.3
Q 98.45 259.35 98.75 260.95
L 98.65 259.6 98.7 259.15
Q 98.55 259.8 98.45 258.85 98.35 257.95 98.3 258.3
L 98.05 257.25 97.4 252.15 96.95 250.6 96.75 250.2 98.05 249.65 98.6 249.35
Q 100.7 248.15 102.6 246.45 103.33828125 245.7908203125 104.1 244.9 104.1 244.9720703125 104.1 245.05 104.1162109375 244.9533203125 104.1 244.85 104.2 244.5064453125 104.2 244.8 104.25 244.95 104.3 244.8
L 104.3 245.1 104.35 244.9 104.4 244.95 104.4 244.7 104.5 244.6 104.45 244.95 104.45 244.95 104.25 245.25 104.35 245.3 104.4 245.3 104.4 245.25 104.5 245.15 104.4 245.3 104.5 245.1 104.55 245.15 104.75 245 104.8 244.95 104.8 244.95 104.95 244.8 104.95 244.85
Q 105.01015625 244.85 105.1 244.75
L 104.95 244.95 105 244.85 105.05 244.85 105.05 244.95 105.15 244.85 106.2 244.8 106.45 245.15 106.5 245.4 106.5 245.5 106.45 245.6
Q 106.3 245.7 105.9 245.7
L 106.2 245.75 106.25 245.75 106.75 245.65 106.05 251.1 106 250.75 105.6 255.6
Q 105.6525390625 255.3974609375 105.75 255.3 105.85 255.3 105.85 255.45
L 105.9 256 105.75 258.9
Q 105.65 261.15 105.6 261.35
L 105.9 262.95 105.85 297.9 105.8 298.25 105.7 305
Q 105.65 307.5 105.7 309.05
L 105.65 308.75 105.7 311.95 105.75 312.3 105.75 312.7 106.05 315.85 106.05 316.2 106.1 316.3 106.2 317 106.2 317.15 106.25 317.3 106.35 317.9 106.4 318.05 106.4 318.15 106.5 318.5 106.5 318.55 106.6 318.9 106.6 318.95 107 320.1
Q 107.5 321.5 107.85 322.15 108.8 324.15 110.15 325.95
L 110.35 326.15 110.4 326.3 110.5 326.4 110.7 326.65 110.8 326.75 110.85 326.85 110.9 326.85 111.2 327.25 112.1 328.2 112.1 328.25 113.35 329.4
Q 114.4 330.25 115.3 330.85 116.2 331.5 117.35 332.05 119.2 333.05 121.55 333.8
L 121.85 333.85 121.95 333.9 122.1 333.95 122.7 334.1 122.95 334.2 123.8 334.4 123.95 334.4 125 334.65 125.15 334.65
Q 125.3 334.7 125.5 334.75
L 125.55 334.75 125.8 334.8 133.25 335.35 144.65 334.85 146.2 334.65 146.55 334.55 146.6 334.55 148.15 334.25 148.3 334.2 148.4 334.2 148.4 334.15 148.5 334.15 149.1 334 149.25 333.9 150.25 333.75 151.3 333.45
Q 152.7 332.95 153.4 332.6 154.7 332 155.5 331.5
L 157.3 330.25 156.6 330.65
Q 156.45 330.75 156.45 330.65 156.45 330.5 156.7 330.35
L 156.95 330.15 157.25 329.85 157.55 329.65 158.15 329.15 158.25 329.05 158.3 328.95 158.5 328.85 158.55 328.75 158.85 328.5 160 327.1
Q 160.15 327.05 160.15 326.9
L 160.4 326.6 160.5 326.4 160.55 326.25 162.55 322.15 163.35 319.7
Q 163.9 317.65 164.1 316.6
L 164.15 316.35 164.15 316.2 164.4 313.85 164.45 289.1 164.5 288.8 164.45 288.45 164.55 280.05
Q 164.25 278.2 164.25 274.7 164.15 270.65 164.05 269.35
L 164.15 269.65
Q 164 267.25 164.2 256.2
L 164.15 242.3 164.1 242.85 164.05 241.15
Q 164.05 240.975 164.05 240.8
L 164.4 237.85 164.4 236.65
Q 164.316015625 236.719921875 164.2 236.65 164.436328125 233.5162109375 164.25 229 164 224.65 164.15 221.3
L 164.25 221.95
Q 164.35 220.9 164.35 217.6 164.303125 214.12421875 164.4 212.2 164.3375 213.01875 164.25 213.15 164.1 213.3 164.05 211.75 164.15 209.75 164.15 206.1 164.15 203 164.3 201.3
L 164.1 199.45 164.1 199 164.05 199 164.05 198.65 164 198.3 164.2 185.85
Q 164.3 183.1 164.2 180.1
L 164 167.2
Q 163.95 164.95 163.65 160.1 163.45 156.85 162.95 152.8
L 161.85 145.85 161.75 145.5 161.75 145.35 157.95 130.95 156.15 125.65
Q 155.2 123.05 152.65 115.65
L 150.8 109.95 150.8 109.9 150.75 109.9 150.7 109.75 150.75 109.75 150.7 109.7 150.7 109.55 150.6 109.25 150.7 109.5
Q 150.2974609375 107.6216796875 150.25 106.15 150.15 104.95 150.2 104.35
L 150.3 103.05 150.35 102.85 150.35 102.65 150.9 100.7 151 100.55 151.05 100.35 151.45 99.55 151.5 99.55 151.5 99.5 151.55 99.45 151.55 99.4 151.6 99.4 151.8 99.1 151.9 98.9 152.2 98.6 152.3 98.45 153.65 97.25
Q 154.45 96.6 155.4 96.1
L 156.75 95.4 159.95 94.25 172.5 90.95
Q 175.05 90.2 176 89.8
L 178.35 88.9 178.4 88.9 178.45 88.85 178.85 88.7 179 88.6 179.05 88.6 179.1 88.55 179.3 88.5 179.5 88.4 179.6 88.3 179.65 88.3 179.7 88.25 179.85 88.2
Q 182.15 87 183.6 85.85 185.35 84.55 187 82.65
L 188.45 80.7 189 79.8 189.05 79.75 189.05 79.7 189.1 79.7 189.55 78.75 189.65 78.6 189.85 78.2
Q 189.9 78.05 189.95 77.95
L 190 77.85 190.25 77.15 190.4 76.9 190.6 76.3 190.65 76.05 190.85 75.45 190.9 75.15 191.15 74.3 191.2 74
Q 191.65 71.8 191.55 69.4 191.5 67.25 191 65.1
L 190.95 64.85 190.9 64.75 190.9 64.6 190.75 64.05 190.65 63.8 190.5 63.2 190.4 62.95 190.35 62.7 189.85 61.3
Q 189.25 59.65 188.25 57.85 187.5 56.35 186.35 54.7
L 184.45 52.3 184.4 52.2 183.85 51.6 183.8 51.5 183.75 51.45 183.6 51.35 183.4 51.05 181.85 49.55 174.05 43.25 174 43.25 173.85 43.1 173.6 42.95 166.75 37 166.65 36.95 165.3 35.55 165.4 35.75 165.6 36.05
Q 165.75 36.2 165.65 36.2
L 165.5 36.15 164.4 35 164.3 34.85 163.75 34.25 161.3 31 161.1 30.85 160.65 30.25
Q 159.65 28.9 157.95 26.05
L 154.75 20.3
Q 151.95 15.3 149.6 11.8 147.55 8.8 146.2 7.05 144.55 4.85 142.25 2.3
L 140.1 0.05 140 0
Q 138.75 -1.25 137.3 -2.4 135.4 -3.8 134.4 -4.45
L 128.3 -7.65 125.2 -8.9
Q 122.65 -9.8 119.05 -10.8
L 107.55 -12.95
Q 102.7 -13.55 97.9 -13.65
L 93.25 -13.6 92.9 -13.55 92.7 -13.55 90.5 -13.4 78.3 -11.05 78.15 -11 78.05 -10.95 77.9 -10.95 69.4 -8 70 -8.35
M 84.2 -0.55
L 84.45 -0.65 87.1 -1.1
Q 87.45 -1.2 87.05 -1.2 86.45 -1.15 86.2 -1.15
L 89.8 -1.85
Q 90.95 -1.85 91.05 -1.75 91.2 -1.65 90.1 -1.5
L 98.8 -1.85 99.8 -1.8
Q 100.5 -1.8 100.85 -1.75
L 102.7 -1.65 102.95 -1.6 110.25 -0.65 110.45 -0.65 110.55 -0.6 111.25 -0.5 111.4 -0.45 111.5 -0.45 111.55 -0.4 112.45 -0.25
Q 118 0.85 122.2 2.5 125.15 3.75 126.6 4.6 128.45 5.65 130.25 7.1
L 131.05 7.75 131.2 7.95 131.3 8.05 131.4 8.1 131.55 8.3 131.6 8.35 131.65 8.35 131.7 8.45 132.4 9.15 132.5 9.3 133.35 10.2
Q 134.5 11.45 136.25 13.7
L 138.45 16.7 138.7 17.15
Q 139.25 17.85 139.75 18.75
L 140.5 19.9 140.6 20.1 140.7 20.25 143.4 25.05
Q 143.35 24.85 142.95 23.8
L 141.8 21.6 141.65 21.2 141.45 20.85 141 19.7 141.55 20.5 143.5 23.9 143.8 24.25
Q 143.75 24.6 144.2 25.7
L 144.55 26.55 144.55 26.6 144.6 26.6 144.6 26.7 144.65 26.75 146.4 30.45
Q 147 31.65 147.25 32.65
L 148 33.25 148.65 34.75 154.65 43.2 157.1 45.95 157.2 46 157.35 46.15 157.4 46.25 166.1 53.15 166.15 53.2 166.2 53.2 166.3 53.3 167.05 53.8 170.15 56.3
Q 169.7 55.9 169.5 55.6 169.25 55.25 170.15 55.85 170.15 56 171.85 57.4 172.75 58.1 173.05 58.45
L 173.45 58.85
Q 173.65 59.15 173.65 59.2
L 173.85 59.4 173.9 59.4 173.9 59.4 174 59.5 174 59.55 174.5 60.05 174.6 60.2 174.75 60.35 174.85 60.5 176.1 62
Q 176.15 62.1 176.4 62.35
L 176.6 62.45 176.55 62.1 176.9 63 177.05 63.3 177.15 63.6 177.4 64.15 177.55 64.8
Q 177.55 64.95 177.45 64.75
L 177.35 64.55 177.15 64.25
Q 177.65 65.35 177.8 65.9
L 177.95 66.25 178.05 66.6 178.1 66.65 178.1 66.7 178.2 66.95 178.25 67.2 178.3 67.3 178.3 67.15 178.2 66.85 178.15 66.6 178.15 66.5 177.95 65.75 178.1 66.1 178.25 66.65 178.3 66.75 178.4 67.2 178.45 67.3 178.45 67.35 178.5 67.5 178.5 67.6 178.55 67.65 178.55 67.75 178.6 68.05 178.6 68.15 178.65 68.3
Q 178.8 69.3 178.7 70.15 178.7 70.95 178.55 71.6
L 178.5 71.75 178.5 71.95 178.45 72.1 178.45 72.2 178.4 72.25 178.4 72.45 178.35 72.5 178.35 72.6 178.3 72.75 178.3 72.85 178.4 72.65 178.35 72.8 178.4 72.7 178.45 72.65 178.35 72.85 178.45 72.7 178.5 72.6 178.55 72.55 178.55 72.5 178.85 72 178.65 72.6 178.5 72.9 178.5 72.95 178.35 73.2 178.35 73.3 178.3 73.3 178.3 73.35 178.25 73.4 178.25 73.45 178.2 73.45 178.2 73.5 178.1 73.6 178.05 73.75 177.95 73.85 177.8 74.05 177.6 74.25 177.45 74.45 177.35 74.5 177.25 74.6 176.75 74.9 176.4 75
Q 177.15 74.25 177.5 73.55
L 176.9 74.35 176.6 74.65 176.55 74.75 176.35 74.9 176.25 75 176.15 75.05 175.75 75.45 175.7 75.45 175.6 75.55 175.15 75.85 175.05 75.9 174.95 76 174.7 76.1 174.6 76.2 174.5 76.25 174.05 76.55 173.9 76.6 173.35 76.9 173.25 76.9 173.25 76.95 172.95 77.05 172.9 77.1 172.85 77.1 172.55 77.25 169.9 78.3 171.3 77.85
Q 170.45 78.3 168.5 78.9
L 157.2 82.1 157 82.2 154.3 83.1 154.05 83.15 153.85 83.25 153.05 83.55 152.8 83.7 152.7 83.7 152.65 83.75 152.1 84 151.95 84.05 151.7 84.2 150.25 84.9
Q 148 86.2 146.6 87.25
L 144.85 88.65 143.65 89.85 141.9 92.05 141.85 92.1
Q 141.9 92.1 141.75 92.25
L 141.75 92.3 141.7 92.35 141.6 92.55 141.55 92.6 140.25 94.9 139.2 97.7 138.6 100.35 138.55 100.75 138.55 100.95 138.5 101.15 138.35 104.05
Q 138.35 106.3 138.65 107.9 138.75 105.85 138.9 104.85 138.95 107.3 139.65 110.3
L 139.55 110 138.85 108.8
Q 138.3943359375 107.9939453125 138.25 107.55
L 138.7 110.9 138.9 111.8 138.95 112.25 139 112.4 139.05 112.45 139.05 112.55 139.1 112.65 139.1 112.8 145.6 132.15
Q 147.55 138 148.75 142.8
L 150.1 148.9 150.1 149.1 150.15 149.25 150.3 150.05 150.3 150.2 150.8 153.45
Q 151.4 158 151.65 163.45
L 151.85 176.95
Q 151.75 179.3 151.5 178.7 151.3 177.65 151.25 177.6 151.25 178.9 151.35 179.9
L 151.45 180.75
Q 151.6 181.35 151.6 183.4 151.55 184.1 151.4 183.6 151.3 183.25 151.25 182.6 151.25 183.3 151.25 184.9 151.2 185.9 151.3 185.95 151.4 184.75 151.7 184.45 151.85 184.35 151.95 184.25 152.1 184.15 152.2 183.85
L 152.1 188.75 151.8 188.55 151.9 189.5 151.95 189.65 151.95 189.8 152.1 190.95
Q 152.25 192.75 152.25 193.15 152.35 194.5 152.25 196.35
L 152.2 222.05
Q 152 221.95 151.8 218.45 151.8 221.8 151.75 222.3 151.9 221.15 152 223.1 152 224.7 152.05 224.2 152.2380859375 225.7982421875 152.35 229.3
L 152.4 237.55
Q 152.3634765625 237.659765625 152.3 237.4
L 152.3 237.5 152.25 238 152.05 245.85
Q 151.9 246.7 151.6 247.1 151.65 247.05 151.65 247.7
L 151.6 249.45
Q 151.45 253.95 151.45 255.1
L 151.4 260.85
Q 151.4 263.55 151.35 263.6
L 151.85 263.85
Q 151.85 265.45 151.6 265.85 151.35 266.25 151.4 267.7 151.85 268.4 151.65 270.7 151.55 273.2 151.7 273.6 151.65 275 151.4 274.9 151.8 275.35 151.6 277.3 151.7 277.5 151.75 277.3 151.8 276.95 151.85 276.8
L 152 278.9
Q 151.9 279.5 151.8 279.6 151.65 279.65 151.6 279.05
L 151.65 304 151.7 304.65 151.35 314.5 151.45 314 151.35 314.45 151.55 314.05 151.7 313.45 151.8 313.15 151.85 312.9 152.1 312.45
Q 152.230859375 313.4533203125 152.05 314.35 152.0423828125 314.4017578125 152 314.45
L 151.85 314.6 151.55 315.15 151.5 315.35 151.3 315.8 151.25 316.05 151.05 316.5 150.7 317 150.55 317.1 150.35 317.2 150.6 317.6 150.4 317.75 150.2 317.85 150.15 318 150.1 318.1 150.1 318.15 150.05 318.3 149.9 318.6 149.8 318.75 149.75 318.9 149.7 319 149.6 319.15 149.5 319.25 149.5 319.3 149.45 319.35 149.4 319.35 149.35 319.4 149.2 319.5 149 319.6 148.9 319.7 148.75 319.8
Q 148.3 320.1 147.9 320.25
L 145.6 321.55 145.45 321.6 145.4 321.6 145.4 321.65 145.25 321.65 145.25 321.7 145.15 321.7 144.8 321.8 144.75 321.8 144.45 321.9 144 321.9 144.05 321.95 144.25 322
Q 144.4 322 144.3 322.1
L 144.25 322.15 144.2 322.15 144.05 322.25 144 322.2 143.9 322.15 143.7 322.15 143.35 322.25 142.2 322.45
Q 141.75 322.45 141.65 322.35
L 139.8 322.55
Q 139.25 322.55 139.1 322.7 138.8 322.8 139.2 322.95
L 138.55 322.8 138.15 322.75 137.95 322.7 137.85 322.7
Q 137.4 322.6 137.35 322.6 137.3 322.5 137.85 322.45
L 136.1 322.4 135.85 322.45 135.75 322.45 135.85 322.5 136.15 322.5 136.4 322.55 136.45 322.55 136.5 322.6 135.25 322.6 135.05 322.55 133.3 322.45
Q 131.6 322.35 130.75 322.5
L 131.2 322.65 131.7 322.75 129.6 322.6
Q 128.75 322.45 128.35 322.05
L 129.85 322.1
Q 128.75 322 128.2 321.9
L 127.85 321.85 127.7 321.85
Q 127.825390625 321.8650390625 128 321.9
L 127.85 321.9 127.65 321.85 127.6 321.85 126.65 321.65 126.6 321.65 125.8 321.5 125.7 321.5 125.55 321.45 125 321.35 124.85 321.3 124.7 321.3 124.8 321.35 125.25 321.5
Q 124.2 321.4 122.55 320.65
L 122.35 320.5 122.25 320.45 122.2 320.4 122 320.3 121.8 320.15 121.6 320.05 121.2 319.75 121 319.55 120.95 319.55 120.9 319.5 120.9 319.45 120.85 319.45 120.65 319.25 120.6 319.25 120.45 319.05 120.05 318.65 119.95 318.5 119.85 318.4 119.5 317.95
Q 118.9 317.2 118.4 316.05
L 118.3 315.85 118.25 315.7 118.25 315.65 118.2 315.6 118.1 315.25 118.1 315.2 118.05 315.15 118.05 315.1 118 314.8 117.95 314.65 117.95 314.5 117.9 314.25 117.8 313.95 117.75 313.65 117.75 313.35 117.35 310.8 117.25 310.55 117.2 310.85 116.95 311.75 116.6 309.45
Q 116.6525390625 309.6525390625 117.15 310.15 117.608984375 310.5255859375 117.65 310.7
L 118.15 274
Q 118.3 272.8 118.55 273.1 118.65 273.3 118.8 273.7 118.75 272.55 118.55 272.05 118.45 271.7 118.45 270.65 118.55 269.8 118.75 271.1 118.75 269.35 118.7 269.35 118.6 270 118.3 270.1 117.9 270.3 117.85 270.4
L 117.9 267.85 118.15 267.95
Q 118.15 267.75 117.8 266.7 117.5 265.45 117.6 263.95 117.7 261.85 117.7 257.4 117.7 257.25 117.55 250.8 117.65 250.8 117.75 251.4
L 117.95 252.65 117.95 250.65
Q 117.8 251.4 117.7 250.25
L 117.55 249.4 117.45 249.1 117.15 247.5 117.1 247.35 117.1 247.2 116.6 244 118.2 243.9 118.1 243.35 117.4 241.5 116.4 239.7 116.45 239.7 115.75 238.65 115.5 238.35 115.4 238.15 115.3 238.1 115.3 238.05 115.15 237.9 114.75 237.4
Q 114.25 236.85 113.6 236.35 113.05 235.9 112.5 235.65 112.5 235.4 112.35 235.25
L 112.1 235
Q 112.15 235.1 112.05 235.2 112 235.3 111.9 235.2 111.65 235 111.55 235.1 111.45 235.2 111.1 235.05
L 110.75 234.95 110.65 234.85 110.5 234.8 110.35 234.65
Q 110.2810546875 234.5724609375 110.2 234.5
L 110.3 234.3 110.35 234.25 110.35 234.1 110.65 233.25 110.7 233.15 110.7 233.1 110.75 232.9 110.9 232.5 111.05 231.9 111.05 231.8 111.1 231.7 111.6 229.35 111.6 229.25 111.65 229.1 111.65 228.9 111.9 226.7 111.9 223.85 111.8 222.9 111.8 222.65 111.4 220.25 111.4 220.1 111.35 220 111.1 218.75 111 218.55 110.4 216.65 108.1 211.8 107.95 211.6 107.85 211.4 106.45 209.3 106 208.75
Q 104.1 206.15 101.65 203.8 99.65 201.9 97.85 200.4
L 95.3 198.35
Q 94.1 197.35 94.65 197.5 94.85 197.5 95.35 197.7
L 94.15 196.95 92.85 196.35 92.75 196.25 92.65 196.2 92.35 196
Q 91.65 195.35 92.9 196
L 91.85 195.25 91.65 195.15 91.55 195.05 91.5 195.05
Q 91.35 194.95 91.3 195 91.65 195.25 91.7 195.45 91.8 195.55 91.8 195.75
L 91.8 196.3 91.1 195.8 91 195.7 89.7 194.75 89.95 194.6 88.75 194.1
Q 87.55 193.6 86.45 192.55
L 86.3 192.4 86.15 192.3 81.65 187.8 81.55 187.65 81 187 80.9 186.85 80.75 186.7 80.1 185.9 80 185.75 79.75 185.45 79.55 185.1 79.4 184.95 78.75 184 78.65 183.8 78.05 182.85 78.2 182.95 78.85 183.65 78.95 183.8 79.05 183.9 79.25 184.15 78.5 182.95 78.35 182.55
Q 78.5 183.15 77.95 182.3 77.85 182.1 77.75 182.05
L 77.65 181.8
Q 77.55 181.7 77.6 181.9 76.75 180.9 76.3 179.9
L 76 179.35 76 179.3 75.75 178.8 75.35 177.65 75.2 177.35 75.15 177.05 74.85 176.2 74.8 175.9 74.05 173.3
Q 73.15 173 72.15 172.55
L 65.45 168.35
Q 65.1751953125 168.1392578125 64.95 167.95 64.32109375 167.871484375 63.7 167.7
L 63.65 168.25 64 168.45 64 168.9 63.95 169.1 63.95 169.7 63.85 170.1
Q 63.7 170.55 63.75 171.7 63.65 171.75 63.55 171.35
L 63.4 169.1 63.45 168.9 63.55 167.65 63.55 167.65 63.25 170.05 63.25 171.15
Q 63.35 171.75 63.45 171.9
L 63.45 172.45 63.4 172.7
Q 63.35 172.8 63.25 172.8
L 63.15 172.95 63.15 173.95 63.25 174.55 63.35 174.9 63.35 175.05 63.4 175.2 64.4 179.3 64.35 179.3 65.2 182.15 65.75 183.35 65.85 183.65 68.75 188.95 68.45 188.65 68.6 188.9 68.7 189.2 72 193.85
Q 71.8 193.5525390625 71.8 193.4 71.9 193.35 72 193.45
L 72.35 193.8 74.3 196.15 74.55 196.5 74.85 196.75 76.95 199 77.75 199.55 77.95 199.65 78.55 200.05 80.1 201.4 80.6 201.75
Q 80.9 202.05 81.1 202.15
L 84.7 204.8 84.8 204.9 84.85 204.9 84.85 204.95 85.05 205.05 88.6 207.45 88.9 207.7 89.25 207.9 91.95 210 92.1 210.15 92.45 210.4
Q 95.35 212.95 97 215.05
L 98.05 216.45 98.15 216.65 98.4 216.95 98.8 217.55 98.95 217.9 99.15 218.2 99.3 218.55 99.5 218.85 100.05 220.1
Q 100.5 221.2 100.85 222.6
L 100.9 222.9 100.9 223.05 100.95 223.2 101.1 224.4 101.1 225 101.15 225.25 101.1 225.55 101.05 226.95 101 227.2 101 227.5 100.55 229.6 100.5 229.7 100.5 229.8 100.15 230.8 100.1 231 99.55 232.4 99.6 232.15 98.35 234.7 98.25 234.95 98.1 235.15 98.05 235.3 97.95 235.4 97.65 235.85
Q 96.95 236.9 96.3 237.55 95.5 238.45 94.65 239 93.65 239.75 92.7 240.15 91.75 240.6 90.35 240.95 89.05 241.3 87.7 241.35 86.1 241.45 84.75 241.3
L 84.35 241.3 84.15 241.25 83.95 241.25 82.5 241.05 82.3 241.05 81.2 240.85 81.1 240.8 81.15 240.85 81.05 240.8 78.25 240.25
Q 74.25 239.4 71.65 238.7
L 69.35 238.1 69 237.95 63.4 236 61.3 235.05 61.15 234.95 61.05 234.85 60.15 234.25 59.85 234 58.35 232.95 57.45 232.15 57.4 232.15 56.75 231.55
Q 57.3 232.15 57.15 232.15 56.95 232.15 56.45 231.65
L 54.45 229.75
Q 54.15 229.45 54.05 229.45
L 53.55 229.1 51.55 227.1
Q 48.95 224.5 45.8 220.55
L 42.1 215.7
Q 40.25 213.2 38.55 210.4
L 35.9 205.45 35.85 205.3 35.7 205 34.75 202.35 34.7 202.3 34.7 202.2 34.45 201.45 34.5 201.55 34.5 201.45 34.45 201.4 34.35 200.9 34.3 200.75 32.6 191.75
Q 32.15 190.1 31.4 186.05
L 30.4 180.35 30.55 180.65 29.95 176.95 29.95 176.7 29.9 176.5 29.75 175.2
Q 29.5 173.2 29.5 171.25 29.4 168.9 29.55 166.9 29.6 164.85 29.95 162.45 30 161.85 30.55 158.35 30.95 156.25 31.75 152.8
L 31.55 153.35 32 151.3 33.5 147.55
Q 33.3 147.6 33.3 147.2
L 34.15 143.55 34.2 143.6 36.35 136.95 36.4 136.85 36.4 136.8 37.15 134.85 37.3 135.05 38.95 130.1
Q 39.85 127.4 40.3 125.6
L 41.3 121.85
Q 41.8 119.7 42 117.35
L 42.1 116.75 42.1 114.45 42.15 114.35 42.15 114.1 42.2 113.95 42.2 113.8 42.25 113.3 42.2 113.7 42.1 114 42.15 113 42.1 112.4 42.2 111.35 42.25 111.15 42.3 113.2 42.45 111.6 42.45 111.35 42.5 111.1 42.6 109.2 42.55 109 42.5 109.25 42.45 110.25 42.15 104.85 42.1 104.45 42 102
Q 42 101.75 42.1 101.65
L 42.15 100.4 35.55 64.95 34.8 53.7 35.1 50.35 35.1 49.95 35.2 49.5 35.4 47.8 35.5 47.4 35.5 47.15 36.65 41.75
Q 36.85 41.4 36.65 42.4
L 38.6 35.3 38.65 35.2 38.65 35.1 38.9 34.35 39 34.15 39.05 33.95 39.15 33.75 39.15 33.65 39.2 33.6 39.2 33.55 39.35 33.1 39.55 32.7 40.05 31.4 41.85 27.7
Q 42.25 27.15 43.3 26.1
L 43.35 25.95 43.75 25.3
Q 44.8 23.75 45.5 22.85
L 50.35 17.45 53.65 14.6 53.9 14.35 56.15 12.65 56.25 12.55 56.35 12.5 56.4 12.45 57.4 11.7 57.65 11.55 57.9 11.35 64.5 7.15 64.6 6.6 65.65 6.05 65.8 5.95 67.05 5.35
Q 67.25 5.35 67.35 5.25
L 67.9 5.15
Q 68.5 5 68.7 4.9
L 70.95 3.9
Q 71.15 3.7 71.75 3.35
L 72.9 2.75 77.3 1.25 77.45 1.15 80.65 0.15 80.75 0.15 80.9 0.1 80.95 0.1 82.75 -0.2 83 -0.2 83.1 -0.15 83.75 -0.45 84.2 -0.55
M 84.15 252.5
L 86 252.45
Q 86.099609375 253.6041015625 86.05 254.1
L 86 254.1
Q 85.95 254.8 86.15 255.85
L 86.55 257.3
Q 86.65 257.8 86.85 258.75 87 259.4 86.9 260.35
L 86.8 260.1 86.75 264.1
Q 86.8 263.7 86.9 263.65 87.05 263.6 87.05 264.2
L 86.95 266.45
Q 86.85 267.7 86.7 268.35
L 86.75 268.5 86.75 268.65 86.85 268.95 86.95 269.55 86.7 272.15 86.7 272.55 86.5 274.3 86.45 274.4 86.45 274.5 86.4 274.75 86.25 276.15 86.2 276.25 86.2 276.4 85.95 278.15 85.9 278.3 85.9 278.35 82.05 294.65
Q 81.95 295.1 80.75 298.95
L 79.6 302.1 79.8 301.75 79.5 302.4 79.6 302.1 78.55 304.15 78.6 303.9 74.25 311.3
Q 73.65 312.2 73.3 312.5
L 72.65 313.2 72.6 313.2 72.6 313.25 72.45 313.35 71.95 313.85 71.85 313.9
Q 71 314.65 70.2 315.2
L 68.4 316.3 68.35 316.35 67.95 316.55 67.9 316.6 67.75 316.65 67.25 316.95 66.2 317.45 65.65 317.65 65.25 317.85 65.2 317.85 65 317.95 64.95 317.95 63.95 318.35
Q 62.25 319 59.55 319.65
L 56.75 320.25 56.6 320.3 56.45 320.3 56 320.35 56.2 320.35 56.15 320.4 56.05 320.4 55.65 320.45
Q 53.8 320.55 52.75 320.4
L 51.25 319.75 51.15 319.65 51.05 319.65 51.05 319.6 50.95 319.6 50.65 319.45 50.6 319.4 50.35 319.3 50.3 319.25 50.2 319.25 49.4 318.8
Q 49.75 319.1 49.65 319.2 49.55 319.3 49.2 319.1
L 48.05 318.45 47.9 318.3 47.8 318.25 47.75 318.25 47.7 318.2 47.45 318.2 46.75 317.8 45.4 316.65 45.35 316.6 45.3 316.6 45.3 316.55 45.3 316.55 45.25 316.55 45.25 316.5 44.8 316 44.65 315.75
Q 44.2 315.2 43.85 314.6 43.4 313.9 43.15 313.25
L 42.35 311.15 42 309.7
Q 41.8 308.75 41.7 307.65
L 41.65 307.4 41.65 307.1 41.6 307.05 41.6 306.75 41.55 306.6 41.55 306.35 41.45 305.35
Q 41.4 304.3 41.45 303.25
L 41.5 302.2 41.55 301.95 41.55 301.7 41.6 301.55 41.6 301.5 41.65 301.25
Q 41.95 299.35 42.5 297.55
L 44.85 291.6
Q 45.25 289.6 46.1 287.1 47.15 283.9 47.4 282.65
L 47.4 282.95 49 277.75 49.05 277.65 49.05 277.55 49.7 274.95
Q 50 273.75 50.4 270.8
L 50.45 270.3 50.45 270 50.5 269.75 50.55 269.2 50.5 263.2 50.4 262.4 50.4 261.9 49.95 258.5 49.75 257.65 49.8 258.15 49.4 256.35 49 252.8
Q 48.85 252.95 48.65 252.6
L 48.4 252.25 48.2 251.75
Q 47.65 250.5 47.35 249.6
L 47.45 249.65 46.6 247.55 46.75 248.2
Q 45.85 244.8 45.6 243.3
L 45.85 243.35 45.65 242.55 45.6 242.1 45.4 241.15 44.9 235.55 49.85 240.3 49.95 240.35 50.5 240.9 50.65 241 51.55 241.75
Q 52.9 242.75 54.15 243.45
L 56.2 244.45
Q 57.45 245.05 59.5 246
L 59.25 245.85 59 245.65
Q 58.8 245.45 59.45 245.7 59.5 245.9 60.9 246.35
L 61.9 246.7 62.55 247.05 64.85 247.85
Q 65.4 248.05 65.75 248.05 65.998046875 248.05 65.75 247.8 65.9625 248.00546875 67.3 248.6
L 67.8 248.85
Q 67.9 248.95 67.25 248.8
L 69.8 249.6 68.6 249.1 72.5 250.3
Q 74.5 250.85 75.65 250.95
L 74.5 250.5 77.05 251.1
Q 78.1 251.4 78.7 251.8
L 76.7 251.5 79.05 252 79.2 252 80.15 252.2 80.25 252.2 80.4 252.25 81.5 252.4 81.75 252.4 82 252.45 85.25 252.6 84.15 252.5 Z"/>
</g>
</defs>

<g id="walk7">
<g transform="matrix( 0.6996917724609375, 0, 0, 0.6996917724609375, 57.25,20.7) ">
<g id="walk">
<g transform="matrix( 1, 0, 0, 1, 0,0) ">
<use xlink:href="#walk_1_Layer0_0_FILL"/>
</g>
</g>
</g>
</g>
</svg>
