
<svg xmlns="http://www.w3.org/2000/svg" version="1.1" xmlns:xlink="http://www.w3.org/1999/xlink" preserveAspectRatio="none" x="0px" y="0px" width="256px" height="256px" viewBox="0 0 256 256">
<defs>
<g id="walk_5_Layer0_0_FILL">
<path fill="#FFFFFF" stroke="none" d="
M 69.1 -7.8
L 69.7 -8.15 58.7 -2.9 51.1 1.8 50.9 2 50.65 2.15 49.25 3.15 49.15 3.25 49.05 3.3 48.85 3.5 47.4 4.55 47.3 4.65 47.05 4.8 45.7 5.9
Q 42.1 8.85 38.95 12.2 35.9 15.45 33.55 19 31.4 22.15 30 25.2
L 28.25 29.15 28.2 29.35 28.25 29.3 28.6 28.5 28.25 29.45 28.2 29.55 28.2 29.6 28.15 29.8 27.75 30.9 27.65 31.35 27.6 31.45 27.55 31.5 27.55 31.6 27.45 31.8 26.4 34.9
Q 24.8 39.5 24.65 40.05 24.85 39.9 24.85 40.7
L 24.6 42.9
Q 24.05 46.9 23.95 48.1
L 23.85 47.95 23.55 55.65 23.6 55.95 23.65 57.55 23.7 57.6 23.7 57.8 24.6 65.9 24.3 65.7
Q 24.75 68.1 26 74.8
L 33.8 111.3 33.85 111.7 33.85 111.9 33.9 112.1 34.25 116.05 34.25 116.45 34.3 116.75 33.65 119.4 33.55 119.55 33.45 119.9 33 120.9 32.95 121.05 32.85 121.2 32.7 121.55 32.5 121.85 32.15 122.5
Q 31.7 123.35 30.5 124.95 29.7 126 28.5 127.3
L 27.1 128.7 21.1 133.6 21.05 133.7 20.95 133.75 20.75 133.95
Q 20.6 134 20.7 133.9 20.85 133.75 20.95 133.6
L 14.8 139.25 14.6 139.4 14.4 139.6
Q 13.9 140 13.3 140.25 13.55 140.15 8 146.05
L 2.75 152.6 2.95 153 2.6 153.45 2.45 153.6 2.35 153.8 2 154.2
Q 1.8 154.45 1.6 154.55 1.4 154.65 1.25 154.85
L 0.9 155.25 0.45 156
Q 0.4 156.2 0 157.15
L -0.3 157.7 -1.85 160.05
Q -2.3 160.85 -2.35 161.15 -3.1 162.35 -3.2 162.2 -3.15 162.4 -3.55 163.2
L -4.05 164.1 -4.1 164.25 -4.15 164.3 -4.15 164.4
Q -4.25 164.7 -4.1 164.4
L -4 164.35 -4 164.25 -3.8 164.05 -3.9 164.3 -3.95 164.35 -3.95 164.4 -4.55 165.85 -5 166.35 -5.05 166.25 -4.9 165.8 -12.85 183.4 -14.75 189.9 -14.8 190.25 -14.9 190.6 -15.4 193.15
Q -15.75 195.2 -16.05 197.5
L -16.4 200.45 -15.85 198.05
Q -15.65 197.55 -15.55 197.4 -15.55 198.15 -15.75 199.15 -15.85 199.9 -15.8 200.25 -16 200.45 -16.15 201
L -16.6 203.5
Q -16.65 204.1 -16.95 204.55
L -16.65 205 -16.95 205.75 -17.1 210.45 -17.2 211.2 -17.2 214.4 -16.9 216.85 -16.85 217.05 -16.85 217.3 -16.45 219.35 -16.35 219.7 -16.35 219.9 -16.2 220.6
Q -16.2330078125 220.432421875 -16.2 220.3 -16.1 220.05 -15.95 220.65 -16.05 220.7 -16 221.15
L -15.75 222
Q -15.35 223.35 -15.45 223.6
L -14.8 225.75
Q -14.3 227.15 -14.3 226.35
L -13.9 228.5
Q -13.9 228.6 -14.2 228.05
L -13.65 229.6 -13.25 230.35 -13.6 229.2 -13.1 230.5 -13.05 230.6 -13 230.65 -13 230.7 -11.8 233.4 -11.65 233.6 -11.05 234.6 -10.9 234.75 -10.8 234.9 -10.25 235.5 -10.7 234.7 -10.8 234.4 -10.05 235.6 -9.65 236.1 -8.8 237.45 -8.5 238.15 -9.85 236.65 -9.5 237.15 -7.1 239.85 -6.4 240.45 -6.3 240.55 -6.25 240.65 -6.05 240.75 -5.15 241.5 -5 241.65 -4.2 242.25 -4.9 241.6
Q -2.4 243.4 -0.95 244.25
L 2.85 246.3 4.4 246.95 4.55 247.05 4.95 247.2 5.05 247.25 5.7 247.5 5.8 247.55 5.9 247.55 5.95 247.6 6.4 247.75 6.65 247.8 9.35 248.55
Q 11.1 248.95 13.05 249.05 14.4 249.1 16.15 248.9
L 18.1 248.5 16.5 248.35
Q 17.8359375 248.1521484375 19.25 247.65 19.0611328125 247.74609375 18.55 248.35 18.1076171875 248.7923828125 17.9 248.85
L 18.45 248.75 18.65 248.75 20.7 248.25 21.2 248.05
Q 21.8 247.9 23.5 247.15 24.45 246.75 25.95 245.85 26.75 245.35 28.35 244.15
L 28.65 243.9 28.75 243.85 28.8 243.85 28.85 243.75 28.9 243.75 29.25 243.4 29.55 243.2 30.75 242.05
Q 33.0705078125 239.8283203125 34.85 237.05
L 36.05 242.45
Q 37.15 246.1 38.85 250.3 38.85 250.4 38.6 250
L 40.3 253.85 43.4 258.7
Q 43.5 258.9 43.7 259.95 43.7 259.9 44 260.4
L 51.8 273.55 52.3 273.45
Q 53.05 274.8 53.05 275.3 53.05 275.65 53.1 275.75
L 53.3 276.2 53.75 276.9
Q 54.4 277.3 55.35 279.3 56.25 281.4 56.65 281.7
L 56.85 282.35
Q 57.15 282.9 56.95 283 57.25 283.1 57.55 283.75 58 284.7 58.15 284.9 58.25 285.05 58.25 284.85 58.15 284.45 58.15 284.4
L 59.1 286.1
Q 59.3 286.7 59.2 286.8 59.15 286.9 58.85 286.4
L 63.35 297.15 63.45 297.3 63.5 297.5 66.25 305.7 73.65 319.8 73.15 318.35
Q 72.7 317.35 72.75 316.85 73.2 317.5 73.6 318.35 73.9 319.05 74.15 319.25 74.05 319.6 74.2 320.05
L 74.25 320.3 74.3 320.4 74.35 320.45 74.35 320.5 74.4 320.65 74.45 320.7 75.75 323.65 75.9 324.3 76.55 324.6 76.95 325.55
Q 77.55 326.35 78.7 327.6
L 79.9 328.75 80.1 328.9 82.3 330.9 84.05 332.15 84.1 332.15 84.15 332.2 84.35 332.35 84.75 332.55 84.85 332.65 84.95 332.65 85 332.7 87.1 333.65 87.8 333.85
Q 88.85 334.2 90.25 334.5
L 93.75 335.05
Q 93.63203125 334.9880859375 93.5 334.9 93.3 334.75 94 334.75
L 94.2 334.85 94.35 334.9 96.3 334.95 96.4 334.9 96.85 334.9 97.15 334.95 97.35 334.95 97.65 335.05 100.05 334.85
Q 101.55 334.65 100.8 334.4
L 101.55 334.5 102.5 334.5 103 334.55
Q 103.05 334.6 102.5 334.75 104.55 334.55 104.95 334.4
L 103.8 334.45 106.7 334.05 106.85 334.05 107.05 334 107.4 334 107.6 333.95 107.8 333.95 109.7 333.5 110.45 333.2 109.25 333.3
Q 110.2 333.1 111.8 332.75 113.05 332.5 113.6 332.65
L 111.65 333.3
Q 113.6 332.85 115.75 332.1
L 119.35 330.45 118.4 330.85 118.7 330.65 120.2 329.85 120.35 329.75 120.35 329.7 120.2 329.8 120.25 329.75 121 329.35 121.05 329.35 121.1 329.3 121.3 329.2 124.7 326.85 126.3 325.25 127.8 323.25 128.85 321.2 129.35 319.75 129.7 317.85 129.7 317.7 129.75 317.6 129.8 316.75 129.7 313.85 129.05 310.45
Q 128.6 308.7 128.05 307.5
L 127.4 306.1 127.95 305.65 129 304 129.05 303.9 129.3 303.45 130.15 302.65
Q 130.8 302 131.05 301.85
L 131.35 301 134.15 297.35 143.1 282.45 143.05 282.6
Q 145.8 277.5 148.2 272.85 151.45 266.4 152.95 262.8
L 153.4 262.25 154.45 259.85 154.6 259.6
Q 154.35 259.9 154.25 259.8 154.15 259.7 154.3 259.4 154.8 258.05 154.7 257.95
L 154.7 257.65 155 256.4
Q 156.65 250.95 157.6 247.05
L 158.3 244.15 158.35 243.8 158.45 243.5 159.25 239.35 159.45 239.4 159.55 239.4 159.95 239.55 160 239.6 160.15 239.6 162.35 240.15 163.1 240.45 162.85 240.5 163.6 240.75 166.75 241.4
Q 166.4 241.25 166.35 241.15 166.3 241.05 166.9 241.1
L 167.2 241.2 168.6 241.4 168.85 241.4 171.05 241.65 172.25 241.35 174.4 241.3 174.65 241.25 175.75 241.15 176 241.1 176.3 241.1 177.5 240.85
Q 178.55 240.65 180.05 240.15 181.6 239.6 182.65 239.05
L 183 238.9 185.9 237.05 185.95 237.05 185.95 237 186 237 186.1 236.9 186.35 236.75 186.4 236.7 186.7 236.45 186.85 236.35 187.1 236.1 187.6 235.7 189.5 233.85
Q 191.2 232.15 192.95 229.9 194.4 228.05 195.65 225.95
L 196.1 225.25 196.15 225.15 196.2 225 196.7 224.2 196.75 224.15 196.75 224.1 197.15 223.35 197.2 223.3 197.4 222.9 198.8 219.45 198.8 219.7 200.2 213.65
Q 200.4 212.05 200.4 211.15 200.45 209.95 200.3 208.45 200.2 207.05 199.85 205.65 199.25 202.95 197.8 200.25 196.95 198.8 196.25 197.85
L 195.2 196.45 194.7 195.95 194.55 195.75 194.4 195.6 194.4 195.55 194.35 195.55 194.3 195.5 194.15 195.3 193.75 194.95 187.25 187.8
Q 186.95 187.2 186.25 186.15 185.3 184.8 185.1 184.5 185.3 184.95 185.2 184.95 185.1 184.95 184.85 184.6
L 183.9 183.3 183.65 183.05
Q 183.45 183.05 182.4 181.55
L 181.2 179.8 181.15 179.75 177.8 175.3
Q 176.3 173.25 174.2 169.7
L 172.75 167.2 172.6 166.85 172 165.85 171.95 165.65 171.9 165.6 171.9 165.55 169.55 160.5
Q 168.85 159.55 168 157.55 166.9 155.2 166.55 154.55
L 166.7 154.7 160.2 138.95
Q 160.03984375 138.278125 159.85 137.55
L 151 110.65 150.9 110.45 150.85 110.3 150.8 110.05 150.8 110 150.75 110 150.75 109.95 150.7 109.85 150.75 109.85 150.75 109.8 150.7 109.75 150.5 108.65 150.65 109.15
Q 150.3 107.45 150.2 105.65
L 150.25 103.5 150.3 103.25 150.3 103.05 150.35 102.95 150.35 102.85 150.4 102.65 150.45 102.25 151.25 100.05 151.35 99.9 151.5 99.6 151.6 99.5 151.65 99.4 151.75 99.3 151.8 99.2 151.85 99.15 152.05 98.85 152.2 98.7 152.35 98.5 152.65 98.2
Q 153.35 97.5 154.05 97.05 154.6 96.65 155.9 95.95
L 157.75 95.1 158.2 94.95 158.3 94.9 159.9 94.35 167.55 92.4 167.8 92.3 169.9 91.8
Q 172.35 91.15 173.3 90.8 175.6 90.1 176.8 89.65
L 178.3 89 178.4 89 178.45 88.95 179 88.75 179.1 88.65 179.2 88.65 179.5 88.5
Q 179.65 88.45 179.65 88.4
L 179.7 88.4 180.2 88.15 180.65 87.85
Q 182.8 86.7 184.35 85.35
L 184.8 84.95 185.05 84.8 187.65 81.95 189 79.95 189.05 79.8 189.15 79.65 189.3 79.35 189.5 79.05 189.55 78.9 189.85 78.35 189.95 78.1 189.95 78.05 190 78 190.9 75.45 191.35 73.1
Q 191.75 70.75 191.5 68.55
L 191 65.1 190.9 64.85 190.8 64.3 190.7 64 190.65 63.9 190.65 63.8 190.5 63.25 190.4 63.05 190.4 62.9 189.55 60.65
Q 188.8 58.85 187.9 57.2 186.6 55.1 185.9 54.15
L 184.5 52.45 184.45 52.35 183.9 51.75 183.85 51.65 183.3 51.1 183.2 50.95 183.15 50.9 183.1 50.9 183.05 50.8 182.45 50.2 182.3 50.1 181.9 49.65 174.7 43.8 174.45 43.65 166.15 36.6 166.1 36.55 166.1 36.5 164.8 35.05 165.3 35.8
Q 165.4 35.9 165.35 35.95 165.25 35.95 165 35.7
L 161 30.65
Q 160.8 30.55 160.35 29.9
L 156.1 22.85 155.85 22.5 152.15 15.85 145.9 6.7 141.3 1.35 141.15 1.2 141.05 1.15 139.95 0 139.9 0 139.55 -0.3
Q 138.5 -1.35 136.85 -2.65
L 133.95 -4.65
Q 132.35 -5.6 130.9 -6.3 128.1 -7.75 124.7 -8.95 121.9 -9.95 118.6 -10.8
L 114.5 -11.75 114.1 -11.8 113.75 -11.9 113.55 -11.9 113.4 -11.95 112.7 -12.05 112.55 -12.1 112.45 -12.1 112.35 -12.15 107.15 -12.9
Q 101.95 -13.55 97.45 -13.55
L 92.45 -13.45 92.1 -13.4 90.75 -13.35 84.25 -12.3 83.9 -12.2 80.1 -11.4 80 -11.35 79.95 -11.35 78.1 -10.9 78 -10.85 77.9 -10.85 69.95 -8.2 69.1 -7.8
M 84.45 -0.55
L 84.65 -0.55 86.75 -0.95
Q 87.05 -1.05 86.7 -1.05
L 85.85 -1 89.45 -1.7 90.35 -1.7 90.7 -1.6
Q 90.9 -1.5 89.75 -1.35
L 94.05 -1.7 94.85 -1.7
Q 98.2 -1.85 102.6 -1.55
L 102.75 -1.55 102.85 -1.5 108.35 -0.85 108.65 -0.85 108.95 -0.75 113.95 0.1 114.25 0.2 114.55 0.25 117.05 0.9
Q 119.3 1.5 121.85 2.5 126.75 4.4 129.95 6.95
L 131.5 8.3 131.65 8.5 131.7 8.55 131.85 8.65 132.5 9.4 132.6 9.45 132.6 9.5 133.1 10 133.25 10.2 134.95 12.15 135.05 12.25 135.1 12.35 136 13.45
Q 137.05 14.75 138.45 16.85
L 140.45 19.95
Q 141.25 21.25 143.2 24.7
L 143 24.15 141.2 20.55 140.75 19.4
Q 141.5 20.4 142.45 22.15
L 143.25 23.55 143.55 23.9
Q 143.55 24.4 143.95 25.35
L 145.25 28.15 145.3 28.3 145.4 28.45 146.65 31.2 146.95 32.2 147.7 32.85 148.3 34.3
Q 150.3 37.45 152.1 39.9
L 153.1 41.2 153.25 41.45 154.8 43.5 155.2 43.95 155.4 44.25 155.95 44.8 156.1 45 157.55 46.5 157.8 46.7 158.65 47.5 167.65 54.35
Q 168.658984375 55.0873046875 169.3 55.65 169.174609375 55.4994140625 169.05 55.3 168.8 54.95 169.65 55.6 169.7 55.8 171.45 57.15
L 171.6 57.25 171.75 57.4 172.1 57.65 173.1 58.6 173.3 58.9 174.3 59.9 174.35 60 174.45 60.1 174.55 60.25 175.1 60.85 175.35 61.2 176.15 62.05
Q 176.3 62.2 176.3 62.1 176.3650390625 62.1 176.3 61.95
L 176.95 63.25 177.2 63.95 177.25 64.05 177.35 64.5
Q 177.35 64.55 176.95 63.95
L 177.8 65.9 177.9 66.25 178 66.45 178.1 66.75 178.1 66.7 178.15 66.8 178.15 66.75 177.8 65.4 177.95 65.75 178.2 66.6 178.25 66.7 178.4 67.35 178.45 67.4 178.45 67.5 178.5 67.7 178.5 67.75 178.55 67.85 178.55 67.95
Q 178.8 69.1 178.7 69.9 178.7 70.9 178.6 71.35
L 178.4 72.7 178.9 71.75 178.6 72.8 178.6 72.85 178.55 72.85 178.55 72.9 178.55 72.9 178.5 72.95 178.55 72.9 178.55 72.95 178.5 72.95 178.5 73.05 178.5 73 178.45 73.15 178.35 73.3 178.35 73.35 178.25 73.45 178.25 73.55 178.2 73.55 178.1 73.75 178 73.85
Q 177.4 74.7 176.7 74.85
L 176.85 74.65 176.9 74.65 176.9 74.6 177 74.5 177.05 74.4 177.15 74.3 177.25 74.15 177.3 74.05 177.4 73.95 177.6 73.55 177.55 73.6 177.25 74 177.25 74.05 177.1 74.2 177.05 74.3 176.45 74.9
Q 176.2 75.2 175.7 75.55
L 174.25 76.55 174 76.65 173.9 76.75 173.85 76.75 173.3 77 173.2 77.1 173.05 77.15 172.95 77.2 172.8 77.25 172.2 77.55 171.85 77.65 170.5 78.2 171.55 77.9
Q 170.04765625 78.5306640625 169.15 78.8
L 154.45 83.15 152.95 83.75 152.85 83.8 152.75 83.8 152.75 83.85 152.7 83.85 152.5 83.95 152.1 84.1 152 84.15 151.85 84.25 151.35 84.45 151.1 84.6
Q 149.4 85.4 147.4 86.75 145.7 87.95 144.05 89.6
L 143.45 90.2 141.95 92.15 141.9 92.2
Q 141.78125 92.378125 141.75 92.4
L 141.7 92.45 141.6 92.65 141.55 92.7 141.5 92.85 141.3 93.1 141.15 93.35 141.05 93.6 140.3 94.95 139.05 98.55 138.75 99.85 138.7 100.25
Q 138.5 101.25 138.4 103.15
L 138.4 105.45 138.6 107 138.9 103.95
Q 138.9 106.45 139.5 109.45
L 139.25 108.8 138.5 107.45 138.3 107 138.15 106.35 138.95 112.1 138.95 112.3 139 112.35 139 112.5 139.05 112.7 139.1 112.75 139.1 112.85 139.25 113.35 139.25 113.5 139.4 113.85 139.4 114 139.45 114.1 147 136.7
Q 147.8 139.25 148.5 142.05 149.15 144.45 149.75 147.45
L 150.1 149.2 150.2 149.5 150.75 152.8
Q 151.5 157.4 152 162.75
L 152.5 177.05 152.4 177.6
Q 152.3 177.85 152.2 177.6
L 151.95 176.6 152 178.7 152.15 179.85 152.15 180.9 152.1 181.35 152.1 181.65 152.05 181.95
Q 152 182.55 151.9 182.1
L 151.8 181.7 151.8 181.2 151.55 183.55 151.55 183.85
Q 151.45 184.1 151.55 184.2
L 151.6 184 151.6 183.85 151.65 183.85 151.7 183.6 151.85 183.25
Q 151.9 183 152.1 182.9 152.55 182.6 152.65 182.4
L 152.55 182.95 152.55 183.25 152.45 183.8 152.45 183.9 152.4 184.05 152.35 184.65 152.3 184.85 152.3 185 152 187.3 151.75 187.05
Q 151.7 187.45 151.75 188.1
L 151.8 189.6
Q 151.9 192 151.6 195 151.15 201.2 151.15 201.35
L 150.85 206.6 150.8 206.65 149.5 217.25
Q 149.4 217.35 149.4 217.1
L 149.35 217.35 149.35 217.55 149.3 217.75 149.3 218 149.25 218.25
Q 149.2923828125 217.55703125 149.35 216.55
L 149.1 218.45
Q 148.91484375 219.746875 148.75 220.2 149.04765625 219.3990234375 148.95 220.25
L 148.85 221.25
Q 148.8 221.5 148.6 221.7
L 148.4 221.95 148.45 222.05 148.45 222.3 148.4 222.6 148.4 223.6 147.4 228.15 147.85 228.35 147.75 228.65 147.6 229.85
Q 147.55 230.2 147.3 230.35 147.05 230.5 147.1 231.1
L 147.3 231.3 147.4 231.6 147.2 233
Q 147.1 233.35 147.25 233.5 147.1 234.05 146.9 234 147.15 234.1 147.05 234.45
L 147 234.7 147 235
Q 147.048046875 235.1443359375 147.2 234.8
L 147.05 235.95
Q 147.033203125 235.95 147 235.95 146.85 235.95 146.85 235.7
L 143.25 250.6
Q 143.5 250.25 143.65 250.05 143.85 249.55 144.15 249.5 144.2 249.85 144 250.25 143.9 250.55 143.95 250.7 143.6 250.75 143.3 251.4
L 143 251.95
Q 142.85 252.2 142.55 252.25
L 142.85 252.55 142.55 252.8 142.15 254.45 141.55 255.8 141.25 256.9 141.5 256.35
Q 141.11796875 257.782421875 140.85 258.15 140.9357421875 258.091015625 141.1 258.05 141.25 258.05 141.2 258.3 141 258.25 140.9 258.8 140.7 259.35 140.55 259.35 140.5 259.55 140.2 260.25 140 260.8 140.4 260.65 140.3 260.7 139.85 261.15 139.55 261.45 139.6 261.05 139.2 261.65 139.15 261.95
L 139.5 261.6
Q 139.2 262.25 138.7 262.95 138.3 263.75 138.3 264.15
L 138.7 263.8
Q 138.35 264.55 138.2 264.7 137.9 265.1 137.55 265.15
L 137.8 264.4
Q 137.25 265.4 137.1 265.85
L 136.6 267.25 136.8 266.95
Q 136.65 267.65 135.05 271.55 133.4 275.6 133.35 276.15
L 133.95 275.8 133.7 276.9
Q 133.7 276.85 133.35 276.35 133.076171875 275.998046875 133.05 275.9
L 129.1 283
Q 127.3 285.9 126.5 287.05
L 125.45 288.55 125.2 288.85
Q 125.1 289.05 125 289.1
L 124.7 289.45
Q 124.3 289.85 124.2 289.55
L 124.15 289.2
Q 123.9 289.65 123.9 289.9 123.9 290.15 123.65 290.45 123.5 290.6 123.5 290.1
L 123.2 290.5
Q 123.1 290.7 123.15 290.75 123.35 290.6 123.65 290.7 123.95 290.9 124.1 290.9
L 123.9 291.1 123.4 291.75 123.25 291.6
Q 123.1640625 291.1060546875 123.05 290.6
L 121.35 280.6 121.25 280.25 119.35 271.25
Q 119.2 270 119.5 270.3 119.65 270.4 119.9 270.8
L 119.5 269.65 119.25 269.25
Q 119.1 269.05 118.8 267.95 118.75 267.6 118.95 267.8 119.1 268 119.2 268.25 119 267.4 118.9 267.1 118.75 266.6 118.65 266.55 118.75 267.2 118.55 267.4 118.2 267.7 118.15 267.85
L 117.7 266.3 117.65 265.95 117.45 265.35 117.75 265.4
Q 117.75 265.35 117.05 264.25
L 116.55 263.25 116.05 261.7
Q 115.25 258.75 111.95 249.15 112.15 249.15 112.9 250.8 112.4 249.4 112.3 248.9 112.35 249.4 111.95 248.6
L 111.7 248.05
Q 111.15 247.25 110.6 245.8
L 109.7 243.3
Q 109.4 242.35 108.75 240.95
L 107.9 239.4 107.6 238.95 101.45 237.85 97.65 236.6 97.9 234.95 97.6 236.7 97.6 237.5 97.9 237.55
Q 97.95 238.6 97.85 238.9
L 97.8 239.2 97.85 240.2
Q 97.8 240.25 97.7 240
L 97.55 239.5 97.5 236.8 97.4 239.5 97.45 239.9 97.6 240.45 97.55 241.1
Q 97.55 241.2 97.45 241.2 97.3 241.2 97.35 242.15
L 98.45 245.95 98.35 245.95 98.85 247.55 100.7 251.3 101.25 253.2 101.05 252.95
Q 101.2 253.65 101.7 255 102.2962890625 256.972265625 102.45 257.6 102.3607421875 257.1892578125 102.45 257.1 102.55 257 102.8 257.7 103.05 258.9 103.5 260.4
L 104 262.7 104.7 264.05 105.15 265.55 105.2 265.85 107.05 272.9 107.15 273.1 107.85 275.95
Q 110.05 284.65 111.2 292.65
L 111.25 293 111.3 293.15
Q 112.55 298.75 113.6 302.15 114.4 304.8 114.75 305.8
L 115.2 307.15 115.3 307.35 115.8 308.65 115.65 308.35 115.8 308.8 116.2 309.65 116.2 309.7 116.3 309.85 116.35 309.95
Q 117.1 311.75 117.4 313.35 117.6 314.55 117.6 315.15
L 117.6 316.1 117.55 316.1 117.55 316.15 117.5 316.3 117.35 316.55
Q 117 317 116.5 317.35
L 115.75 317.8 115.65 317.9 115.5 317.95 115.2 318.1 115.05 318.2 114.95 318.2 114.9 318.25 114.65 318.35 114.5 318.45
Q 113.25 319.1 112.25 319.45 110.25 320.2 107.1 320.9
L 106.45 321 106.35 321.05 106.15 321.05 105.8 321.15 105.65 321.15 105.45 321.2 104.65 321.3 104.3 321.4 101.55 321.8
Q 100.3 322 99.05 322.1
L 98.75 322.15 98.45 322.15 98.35 322.2 97.5 322.2 97.4 322.25 96.05 322.25 95.8 322.2 95.4 322.2 93.65 321.95 92.65 321.45 92.55 321.35 92.1 321.15 92.05 321.1 92 321.1 91.9 321.05 91.75 320.95 91.55 320.85 91.5 320.8 91.45 320.8 91.3 320.7 91.2 320.65 90.9 320.45 90.9 320.45 90.85 320.4 90.65 320.25 90.5 320.1 90.4 320.05
Q 90.6265625 320.315625 90.5 320.4
L 90.35 320.35 90.05 320.2 89.8 319.95 89.6 319.8 88.8 319.05
Q 88.6 318.85 88.5 318.85 88.4 318.85 88.15 318.65
L 87.95 318.45 87.85 318.3 87.7 318.15 86.3 316.15 86.2 315.9 85.8 315.15 85.75 315.15 85.75 315.1 85.7 315.05 85.6 314.8 78.3 300.65
Q 78.370703125 300.930859375 78.45 301.2
L 78.05 300.2 78.3 300.65
Q 76.6775390625 295.3021484375 74.25 289.4
L 71 281.75 65.65 272.25 65.9 272.5 60.3 262.6 51.5 249 51.75 249.5 50.8 248.25
Q 50.8974609375 248.394921875 50.95 248.5
L 50.55 247.85 50.8 248.25
Q 50.6580078125 247.8107421875 50.4 247
L 50.15 246.2
Q 50.1 245.95 49.75 245.05 49.7 245.3 49.35 244.95
L 47.65 242.05 47.75 242.05 44.6 234.65 44.9 234.65 44.7 234.25 43.95 231.75 43.9 231.45 43.8 231.15 43.15 227.65 43.15 227.45 43.1 227.3 43.1 227 43 226.35 43 225.95 42.95 225.55 42.95 224.95 42.3 215.95 42.4 215.5 42.4 215.3 42.45 215.15 42.4 215 42.2 215.35 41.85 213.65 41.9 213.6 42.15 213.75 42.15 213.3 42.05 212.6 42.2 210.95 46.15 199
Q 46.3 199.1 45.9 200.7 46.4390625 199.3076171875 46.55 199.05 46.261328125 199.5140625 46.55 198.6
L 46.7 198.1
Q 46.75 197.95 46.65 198.1 46.8 197.15 47.2 195.9
L 48.1 193.65
Q 49.4 190.75 49.7 189.55
L 43.55 180.7 43.45 180.6
Q 43.2314453125 180.456640625 43 180.3
L 42.65 180.9 42.9 181.2 42.45 182 42.25 182.25
Q 42.15 182.25 42 182.45
L 41.55 183.2
Q 41.35 183.2 41.75 182.2 42.05 181.6 42.85 180.25 41.2 182.6 41.2 183.2 40.9 183.7 40.7 183.7 40.65 183.65 40.55 183.75 40.45 183.8 40.15 184.35
L 38.65 188.05 38.6 188 38.05 189 35.7 195.35 35.7 195 33.85 199.7
Q 34.15 199.2 34.2 199.2 34.45 198.95 34.1 199.9
L 32.55 204.35 32.3 204.9 32.15 206.5 30.35 215.15 30.35 215.35 30.3 215.55 29.9 218.75
Q 29.75 220.1 29.45 221.45 28.95 224.1 27.9 226.8 26.85 229.5 25.5 231.45 24.9 232.35 24.05 233.4
L 23.25 234.2 23.2 234.35 23.1 234.4 22.45 235.05 22.3 235.15 22.05 235.4 21.95 235.45 21.9 235.5 19.5 237.15 19.3 237.25 19.25 237.3 19.15 237.3 18.45 237.65 18.4 237.65 18.25 237.7 18.1 237.8 18 237.85 17.75 237.9 17.5 238 17.3 238.05 17.45 237.95
Q 16.2 238.4 14.6 238.4 13 238.45 10.9 237.85
L 9.65 237.4 9.55 237.35 9.5 237.35 9.45 237.3 9.4 237.3 8.9 237.1 8.85 237.05 8.8 237.05 7.9 236.6 7.75 236.55 7.6 236.45 6.75 236.05 6.45 235.85
Q 4.2 234.7 2.15 232.95
L 0.35 231.25 0.15 231 0.05 230.9 0 230.8 -0.4 230.3 -0.6 230.1 -1 229.6 -1.1 229.5 -1.15 229.35 -1.5 228.85 -1.6 228.75 -2 228.1 -2.1 228 -2.15 227.9 -2.15 227.85 -2.45 227.4 -2.5 227.3 -2.55 227.25 -2.55 227.2 -3.1 226.2 -3.1 226.1 -3.35 225.7 -3.45 225.4 -3.55 225.25 -3.6 225.1 -3.85 224.55 -3.95 224.25 -4.1 223.95 -5.2 220.6
Q -5.75 218.6 -6.1 216.55
L -6.05 215.95 -6.1 211.25 -6.15 211.5 -6.15 211.7 -6.25 211.8 -6.35 211.55 -6.25 208.8 -6.3 208.3
Q -6.4 208.1 -6.25 205.3
L -4.5 192.1 -4.35 191.6 -4.35 191.45 -4.1 190.55 -4.05 190.2 -3.25 187.7
Q -2.35 185.1 -1.3 182.6
L 4.85 169.1 5 168.85 5 168.75 5.05 168.7 5.1 168.55 7.95 163.3 8.05 163.05 8.2 162.8 8.1 163.1 9.2 161.3 9.3 161.2 14.55 154.2 14.9 153.85 15.2 153.45
Q 17.4 150.85 20.35 148
L 23.9 144.55 23.5 144.85
Q 24.1 144.2 24.85 143.55 25.2 143.2 25.7 142.9 26.8 142.25 27.65 141.6 27.25 141.55 28.3 140.4
L 29.35 139.35 29.4 139.35 29.4 139.3 30 138.75 30 138.85 30.6 138.35 32 136.9 32.35 136.45 32.55 136.25 35.35 132.95 35.5 132.7 35.85 132.25 35.95 132.5 36.85 131.15 37.05 130.9 37.55 130.1 37.75 129.85 38.25 129
Q 38.35 128.95 38.45 128.75
L 40.25 125.35 40.55 124.55 40.75 124.2 41.05 123.4 41.1 123.2 41.2 123 41.5 122.1 41.6 121.9 41.65 121.65 41.8 121.15
Q 42.3 119.3 42.55 117.05
L 42.65 114.55 42.6 114.25 42.6 113.7 42.55 113.4 42.55 113.15 42.4 111.95 42.6 109.3 42.55 109.15 42.5 109.4 42.45 110.35 42 102.15
Q 42 101.95 42.1 101.75 42.2 101.65 42.2 101.3
L 42.15 101 42.1 100.05 42.05 99.9 42.05 99.75 42 99.35 37.3 75.85 34.95 59
Q 34.8 57.2 34.8 55.5
L 34.9 52.3 35 51.45 35 51.05 35.1 50.2 35.15 50 35.15 49.75 36.6 42
Q 36.8 41.65 36.6 42.65
L 38.1 37.05 38.15 36.8 38.55 35.6 38.65 35.15 38.95 34.4 38.95 34.3 39 34.2 39.15 33.8 39.2 33.7 39.2 33.6 39.3 33.4 39.8 32.1 40 31.7 40.05 31.45 41.75 28 42.65 26.85 43.2 26.35 43.65 25.55 45.35 23.15
Q 46.55 21.5 48.2 19.75
L 49.5 18.4 49.75 18.2 49.95 17.95 54.5 14 54.65 13.9 54.75 13.8 56.2 12.7 56.25 12.65 56.35 12.6 56.45 12.5 57.7 11.6 57.8 11.5 57.95 11.45 60.1 9.95
Q 63.65 7.65 64.3 7.4
L 64.35 6.85 66.8 5.6 67.35 5.4 67.65 5.35
Q 67.85 5.35 68.45 5.15
L 69 4.9 69.15 4.85 69.25 4.75 72.3 3.1 72.6 3 74 2.4 77 1.45
Q 77.45 1.25 78.4 1 80 0.55 80.35 0.35
L 80.9 0.2 81.05 0.2 81.55 0.1
Q 82.85 -0.1 82.8 0
L 82.85 0 82.9 -0.05 83.05 -0.15 83.45 -0.3 84.4 -0.5 84.45 -0.55
M 172.2 184.5
Q 172.45 184.9 172.65 185 172.60234375 185.333203125 172.95 185.9
L 172.7 185.5 173.2 186.5
Q 173.45 187.1 173.45 187.45
L 173.85 187.55 174 188.1 175.65 190.25
Q 175.75 190.4 176.9 192.2
L 179.4 195.05
Q 179.7390625 195.3890625 179.9 195.75 179.846875 195.5904296875 179.8 195.45 179.8 195.25 180.1 195.55 180 195.65 180.6 196.25 181.2 196.85 181.2 197.05
L 182.1 198.1
Q 182.75 198.85 182.6 198.25 183.65 200 182.9 199.35
L 183.4 200 183.9 200.5 183.5 199.85 184.8 201.5 184.9 201.6 184.95 201.7 185.85 202.7 186.05 202.8 186.1 202.85 186.15 202.85 186.15 202.8 186.1 202.65 185.9 202.35 186.25 202.7 186.25 202.75 186.4 202.85 186.5 203 186.55 203.1 186.6 203.1 186.6 203.15 186.7 203.3 186.75 203.4 186.8 203.45 186.8 203.5 186.85 203.7
Q 186.95 203.9 186.85 204.05
L 186.75 203.9 186.6 203.8 186.5 203.7 186.5 203.65 186.45 203.65 186.3 203.55 186.6 203.85 188.1 205.9 187.95 205.6 188.15 205.8 188.25 206 188.35 206.15 188.85 207.15 189.3 208.4 189.65 211.45 189.45 213.7 189.45 214 189.4 214.25 189.35 215.1 189.6 214.8 189.75 214.7 189.85 214.55 189.7 215.8 189.6 215.6 189.35 215.3 189.05 214.85 188.2 217.2 187.85 217.95 187.8 217.95 187.75 218.05 187.8 218.05 187.4 218.75 187.35 218.8 187.35 218.85 186.15 220.75
Q 185.15 222.25 184.2 223.4 182.12890625 225.91484375 179.85 227.7
L 179.85 227.7 179.7 227.85 179.4 228.05 179.35 228.1 179.3 228.1 179.2 228.15 179.05 228.3 178.6 228.5 178.45 228.65 178.25 228.7 177.9 228.9 177.35 229.1 177.15 229.15
Q 176.8 229.2 176.75 229.15 176.65 229.1 176.65 229
L 176.8 228.7 176.4 228.95 176.1 229.25 175.95 229.3 175.7 229.35
Q 175.55 229.35 175.65 229.2 175.7 229.1 175.8 229.05
L 175.35 229.15 175.2 229.2 175.15 229.25 175.3 229.3 175.4 229.35 175.75 229.95 175.5 230 175.2 230 174.65 230.1 174.65 229.85
Q 174.4 230.05 174.15 230.2
L 173.95 230.35 173.8 230.4 173.7 230.4 173.6 230.45 173.1 230.5 171.6 230.5 171.35 230.45 170 230.4 169.8 230.35 169.6 230.35 165.65 229.65
Q 165.7 229.55 166.05 229.55
L 166.7 229.55 165.7 229.2
Q 166.05 229.45 165.45 229.35 164.95 229.25 165.15 229.35 164.8 229.4 164.45 229.35
L 163.75 229.25 163.65 229.2 163.45 229.15 163.35 229.1 163.3 229.1 160.5 227.9 160.75 226.95 160.8 226.8 161.05 225.45 160.55 225.3 160.85 223.4
Q 160.9234375 223.4033203125 161 223.4
L 161 223.25 160.95 223.15 160.95 222.65 161.2 221.1 161.2 221.8
Q 161.4 221.15 161.55 219.85
L 162.55 211.85
Q 162.5333984375 212.0662109375 162.45 212.4
L 162.3 212.8
Q 162.25 212.8 162.25 212.55
L 162.3 211.35 162.6 209.35 162.6 208.95 162.75 207.45 162.8 207.25 162.9 205.4
Q 163.1 202.4 163.3 200.75
L 163.2 197.75 164.35 185.8 164.35 185.6 164.4 185.4 164.6 183.8 164.6 183.4 164.7 182.65
Q 164.85 181 164.85 179.4
L 164.7 174 169.35 181.6
Q 170.7 183.45 171.15 184
L 172.3 185.5
Q 172.25 185.35 171.85 184.6
L 171.75 184.45 171.7 184.4 171.45 183.65 171.95 184.15 171.95 184.2 172.05 184.3 172.2 184.5
M 126.95 306.45
L 127.25 306.25 127.4 307.3 126.95 306.45 Z"/>
</g>
</defs>

<g id="walk3">
<g transform="matrix( 0.6996917724609375, 0, 0, 0.6996917724609375, 57.25,20.7) ">
<g id="walk">
<g transform="matrix( 1, 0, 0, 1, 0,0) ">
<use xlink:href="#walk_5_Layer0_0_FILL"/>
</g>
</g>
</g>
</g>
</svg>
