
<svg xmlns="http://www.w3.org/2000/svg" version="1.1" xmlns:xlink="http://www.w3.org/1999/xlink" preserveAspectRatio="none" x="0px" y="0px" width="256px" height="256px" viewBox="0 0 256 256">
<defs>
<g id="walk_4_Layer0_0_FILL">
<path fill="#FFFFFF" stroke="none" d="
M 77.95 -2.7
L 74.05 -1.55
Q 70.9 -0.45 69.1 0.25
L 69.7 0
Q 69 0.15 68.1 0.6
L 60.05 4.35
Q 56.9 6 53.1 8.45
L 45.9 13.6
Q 42.2 16.55 39.15 19.8 36 23.1 33.75 26.4
L 30.15 32.45
Q 28.9 34.95 28.25 36.8
L 28.7 35.75 27.1 40.45 26.95 40.75 26.5 42.05
Q 25.35 44.85 24.75 47.15 24.85 47.05 24.9 47.2
L 24.9 47.8 23.95 55.05 23.85 54.95 23.6 58.45 23.6 58.7 23.55 58.85 23.6 63.8 23.65 64.35 23.65 64.5 23.7 64.55 24.6 72.65 24.3 72.5 33.8 117.45 33.85 117.85 33.85 118.05 33.9 118.25 33.95 119.1 33.8 119.75 33.5 120.4
Q 32.4 122.85 30.3 125.2
L 29.25 126.25 29.15 126.4 28.1 127.3
Q 27.5 127.85 25.6 129.2
L 20.7 132.25 20.5 132.4 20.4 132.45 20.3 132.55 19.45 133.1
Q 19.3 133.15 19.7 132.8
L 12.4 138.1
Q 11.65 138.55 11.15 138.65 11.4 138.55 5.15 143.95
L 4.7 144.35 4.6 144.5 -0.9 150 -0.75 150.45
Q -1.75 151.6 -2.25 151.85 -2.4 151.85 -2.65 152.1 -2.9 152.3 -3.55 153.15 -3.65 153.5 -4.2 154.3
L -6.4 157
Q -6.95 157.7 -7.05 158
L -7.2 158.15 -7.5 158.55
Q -8 159.05 -8.05 159 -8.05 159.25 -8.5 159.9
L -9.25 161
Q -9.3 161.2 -9.15 161.05
L -8.85 160.75 -9.85 162.45 -10.2 162.8 -10.4 162.9
Q -10.45 162.9 -10.2 162.35
L -14.15 168.3
Q -17.5 173.45 -19.8 177.95
L -22.7 184.35 -22.75 184.55 -22.85 184.75 -23.1 185.55 -23.1 185.65 -23.15 185.65 -23.15 185.7 -24.1 189.05
Q -24.9 191.9 -25.2 193.4
L -25.85 196.35
Q -25.65 196 -25.35 194.8 -24.95 193.6 -24.7 193.3 -24.75 194.05 -25.05 195.05 -25.25 195.85 -25.2 196.2 -25.55 196.4 -25.95 198.1 -26.5 200.05 -26.8 200.45
L -26.55 200.95 -26.9 201.65 -27.35 205.1 -27.35 205.4 -27.6 206.55 -27.6 206.65 -27.65 206.7 -27.65 206.75 -27.85 208.25 -27.85 208.35 -27.9 208.4 -27.9 208.8 -28 209.35 -28 209.85 -28.05 210.05 -27.9 214.3 -27.85 214.5 -27.85 214.7 -27.7 216.3 -27.7 217
Q -27.690625 216.68125 -27.6 216.5 -27.55 216.25 -27.4 216.9 -27.55 216.95 -27.45 217.4
L -27.15 219.35
Q -27.05 219.85 -27.15 220
L -26.8 221.65 -26.75 221.8 -26.75 221.95 -26.65 222.25
Q -26.326171875 223.5453125 -26.2 223.05 -26.1806640625 223.127734375 -26.15 223.25
L -26 224.6
Q -25.9 225.1 -25.95 225.15 -25.95 225.3 -26.2 224.65
L -25.8 226 -25.8 226.15 -25.75 226.3 -25.4 227.1 -25.7 225.9 -24.7 228.85 -24.7 228.9 -24.65 228.9 -24.65 229 -24.6 229 -24.6 229.05 -24.55 229.15 -24.2 230.15 -24.15 230.2 -24.15 230.25 -23.4 231.65 -22.8 232.45 -23.25 231.3 -23.15 231.5 -23.05 231.65 -21.7 234.1 -21.25 235.3 -22.5 233.65 -22.15 234.15 -22.1 234.3 -22 234.4 -21.85 234.65 -18.35 238.85 -18.15 239 -17.25 239.85 -17.9 239.15 -17.3 239.65 -17.1 239.85 -13.7 242.45 -13.5 242.55 -9.75 244.8 -8.45 245.4 -8.3 245.5 -8.2 245.55 -8.15 245.55 -7.95 245.65 -7.05 246 -6.8 246.15 -6.6 246.2 -3.75 247.2 -0.9 247.8 -0.45 247.85 -0.25 247.85 -0.05 247.9
Q 1.85 248.05 3 248
L 3.3 248 4.95 247.8 4.55 247.7 3.75 247.6 3.4 247.5
Q 4.85 247.4 6.2 247.05
L 4.95 248 4.65 248.15 8.1 247.65
Q 9.05 247.45 10.5 246.95 11.9 246.55 13.1 245.9
L 14.45 245.2 14.5 245.2 14.6 245.1 14.7 245.1 14.8 245 15.2 244.8 15.25 244.75 15.85 244.35
Q 17.2 243.5 18.55 242.3 19.65 241.35 20.95 239.85 21.95 238.7 23 237.15 24.75 234.6 26.15 231.5 27.05 229.4 27.25 228.75
L 29.45 221.8 29.55 221.6 29.65 221.3 29.7 221 30.15 219.8
Q 30.45 219.2 30.55 219.15 30.7 219 30.7 219.15
L 30.8 219.7 30.9 218.95
Q 31.25625 223.2203125 31.8 226.65
L 33.95 236
Q 35.3 240.5 37.35 245.1 37.4 245.3 37.3 245.2 37.15 244.95 37.05 244.8 39.75 250.5 42.45 254.5
L 42.75 255.05 42.9 255.45 43 256 46.05 260.1 46.05 260.15 46.4 260.5
Q 48.15 262.55 52.35 267.05
L 54.7 269.6
Q 55.65 270.65 55.65 270.75
L 56.2 270.55
Q 57.35 271.85 57.5 272.4 57.6 272.85 58.75 274.05 59.6 274.35 61.2 276.35
L 61.5 276.7 61.35 276.85 61.35 276.7
Q 61.1 276.85 60.65 277.35
L 60.3 277.8 60.05 278.05 59.9 278.15
Q 60.0361328125 278.0861328125 60.1 278.15
L 60.15 278.25 60.15 278.35 59.6 278.95 58.8 280.05 58.6 280.25 58.5 280.95 56.55 284.55
Q 55.8 286 55.3 287.2
L 54.1 290.25
Q 53.45 292.15 53.15 293.6
L 53.05 294 53 294.45 52.95 294.65 52.9 294.75 52.9 294.85 52.75 295.6 52.75 295.75 52.7 296.05 52.7 296.3 52.65 296.45 52.2 300.6 52.15 300.5 51.9 304.4 51.85 304.75 51.8 309.4 52 311.7 52 312 52.05 312.2 52.35 314.25
Q 52.65 315.85 53.1 317.3
L 54.65 321.5 54.9 321.95
Q 54.9 322.4 55 322.65
L 55.7 324.75
Q 55.65 324.4 55.8 324.4 55.95 324.35 56.05 324.65
L 56.55 325.75 56.75 325.95
Q 56.85 325.95 57 326.15
L 57.15 326.3 59 328.95
Q 60.4 330.45 61 331 61.5 331.5 62.35 332.1
L 64.35 333.3 65.65 333.85
Q 66.5 334.2 67.5 334.45 68.7 334.75 69.3 334.8
L 69.75 334.9 70.15 334.9 70.4 334.95 70.85 334.95 71.1 335 76.85 335.1
Q 77.4 334.85 79.15 334.65 80.8 334.45 81.5 334.2
L 81.4 334.3 81.75 334.2 83.5 333.85 83.7 333.85 83.75 333.8 83.8 333.8 85.5 333.3 85.65 333.2 86.3 332.95
Q 87.8 332.25 88.75 331.55
L 89.3 331.15 91.15 329.35 92.55 327.4 93.35 325.95 93.5 325.75 93.6 325.55 93.4 325.75 93.85 324.75 94.1 324.35 94.25 324.25 94.35 324.15
Q 94.35 324.1 94.4 324.1
L 94.4 324.05 94.8 323.6
Q 94.6 323.5 94.55 323.35
L 94.5 322.95 94.5 322.7 94.55 322.45 94.7 322.1 94.75 322.15 95.1 320.9 95.25 320.55 95.3 320.35 95.4 320.2 95.6 319.75 96.05 319.9 96.35 320.7 98.45 323.35 98.5 323.4 98.5 323.45 98.6 323.55 98.65 323.65 98.8 323.8 99.75 325.2 102.3 328.25
Q 103.6 329.55 104.95 330.5 106.05 331.3 107.4 332
L 109.9 333.2 110.1 333.25 110.25 333.35 110.3 333.4 110.4 333.4 110.55 333.5 111.7 334 111.2 333.75 111.1 333.65 110.9 333.55
Q 110.85 333.4 110.9 333.4
L 111.6 333.6
Q 111.65 333.9 113.6 334.25
L 115.6 334.65 115.95 334.8 116.6 334.9
Q 116.85 334.95 117.45 334.95 117.75 335 118.35 335
L 119.95 334.95 120.4 334.85
Q 120.796875 334.7619140625 120.4 334.6
L 120.65 334.7 122.7 334.7 122.8 334.75 123.2 334.75 123.05 334.85 122.95 334.85 122.8 334.9 122.55 334.95 122.8 334.95 122.95 334.9 125.05 334.6 125.7 334.4 124.6 334.55 124.2 334.55 128.65 333.65
Q 130.55 333.25 131.85 332.6
L 130.6 332.75 132.95 332.05 133.15 332.05 133.15 332 133.25 332 133.35 331.95 134.35 331.75 135.3 331.7 135.15 331.75 135 331.85 133.45 332.45 133.4 332.45 133.3 332.5 133.25 332.55 133.45 332.5 133.5 332.45 134.05 332.25 134.2 332.25 135.15 331.9 135.2 331.9 135.3 331.85 137.65 330.9
Q 139.85 329.9 141.45 328.9
L 140.45 329.35 147.15 324.95 147.25 324.85 147.3 324.85 147.55 324.6 147.85 324.4 148.6 323.75
Q 149.65 322.85 150.65 321.7 151.6 320.6 152.45 319.05
L 152.85 318.3 153.7 315.8 154.05 312.8 154.05 312.6 154 312.4 154 312 153.95 311.6 153.95 311.2 153.6 309.4 153.4 308.75 153.35 308.65
Q 153.35 308.6 153.35 308.55
L 153.3 308.45 152.8 307 151.4 304.05
Q 150.95 303.2 150.2 302.2
L 150.7 303.9
Q 149.8173828125 302.478125 148.9 301.3 149.0103515625 301.3630859375 149.25 301.5
L 149.85 301.8
Q 150.4796875 301.9966796875 150.65 302.2 149.283203125 299.878125 148.65 299.05
L 148.5 298.8 145.95 295.75 146 295.75 145.95 295.75 145.95 295.7 145.9 295.7 145.95 295.75 145.9 295.7 145.9 295.7 145.85 295.6 145.7 295.45 145.7 295.4 145.6 295.3 144.85 294.25 144.8 294.15 144.7 294.05 144.35 293.4 144.25 293.25 143.05 290.8
Q 141.9 288.3 140.8 285.05 139.65 281.85 138.9 278.95
L 138 275.7 137.95 275.6 137.95 275.45 137.9 275.4 137.85 275.25
Q 138.17109375 274.9783203125 138.5 274.7
L 142.65 270.4
Q 142.75 270.4 142.7 270.6
L 144.6 267.9
Q 145.1 267.75 145.25 267.7 145.15 267.7 145.65 267
L 146.5 265.75 146.7 265.55 146.8 265.3 148.4 262.65 148 262.35
Q 148.3 261.85 148.6 261.85 148.85 261.8 149.05 261.35 148.85 260.95 149.3 260.3 149.85 259.55 149.75 259.35
L 149.95 259.2
Q 150.15 259 150.25 259.05 150.1 258.9 150.2 258.65 150.45 258.3 150.45 258.25 150.45 258.2 150.15 258.3
L 150.4 257.6
Q 150.55 257.45 150.7 257.45 150.8 257.5 150.75 257.7
L 152.05 255.25 152.35 254.85 155.55 248.7 156.2 247.05 156.25 246.8 156.35 246.6 156.55 245.9
Q 156.5 245.95 156.15 246.4 156.05 246.6 155.95 246.65
L 155.65 246.8
Q 155.65 246.45 155.8 246.2 155.9 245.85 155.85 245.75 156.25 245.75 156.5 245.2 156.8 244.6 157.2 244.5
L 156.9 244.2 157.2 244.05 157.45 242.55 157.6 242.35
Q 157.8 241.95 157.95 241.4 158.1 240.95 158.1 239.95 158.1 239.3 158.3 238.9 158 239.2 158 238.85 158.15 238.9 158.15 238.45 158.15 238 158.35 237.95
L 158.5 237.2
Q 158.5 236.8 158.2 236.9 158.3 236.85 158.6 236.45 158.75 236.2 158.8 236.5 159.05 235.85 159 235.7
L 158.8 236.05 158.85 235.7 158.95 235.4 160.5 236.6 160.2 236.5 160.9 237.05 163.6 238.7
Q 163.5 238.6 163.5 238.5 163.5 238.4 164.1 238.65
L 164.65 239 167.95 240.75 169.2 241 171.5 241.9 171.7 241.95 172.05 242.1
Q 174.7 243 176.9 243.4
L 179.85 243.75
Q 180.1 243.8 180.65 243.8
L 183.45 243.8 184.3 243.7 184.5 243.7 184.7 243.65 187.6 243.15 187.75 243.1 187.85 243.1 193.5 241 196.85 239.05 199.15 237.35 199.4 237.1 200.2 236.5 203 233.85 203.05 233.75 203.55 233.3 203.9 232.9 203.95 232.8 204.05 232.75 204.15 232.6 204.75 231.95 204.75 231.9 204.85 231.85 204.95 231.7 205.6 230.9 205.5 231.15
Q 206.75 229.7 208 227.75 209.35 225.8 210.55 223.25
L 210.65 223.1 210.7 222.9 211 222.25 211.35 221.2 211.45 221 211.5 220.85 212.3 217.8 212.4 217 212.5 216.6 212.55 215.75 212.6 215.55 212.6 215.35 212.65 214.95 212.5 211.35 212.45 211.15 212.4 210.7 212.15 209.45 211.3 206.7 210.15 204.15 209.75 203.5 209.65 203.3 209.6 203.25 209.55 203.15 208.45 201.45 208.4 201.4 208.35 201.3 207.85 200.7 207.75 200.55 207.7 200.45 207.65 200.4 207.1 199.75 207.05 199.7 207 199.6 201.65 193.55
Q 201.2 192.8 200.25 191.65 199.15 190.4 198.65 189.8 199 190.25 198.85 190.3 198.7 190.3 198.4 189.9 197.4 188.8 197 188.45
L 196.7 188.2
Q 196.6 188.2 196.35 188
L 191.55 183.4 191.35 183.25 190.5 182.45 190.4 182.4 190.25 182.2 187.2 179.5
Q 185.45 177.9 184.1 176.5 183.05 175.5 181.15 173.4
L 178.55 170.5 178.45 170.3 178.3 170.15 177.85 169.6 177.75 169.5 177.75 169.45 177.7 169.45 176.7 168.1 176.55 167.85 176.35 167.6 171.45 160.25 171.65 160.4 170.7 158.75 170.6 158.5 170.45 158.25 163.1 143.25 162.95 143 163 143.2 163.05 143.3 163 143.25 162.95 143.15 162.85 143 162.4 142.1 162.1 141.25
Q 161.85 140.15 161.55 139.45 161.4 139.7 160.75 138.75
L 159.8 137.2 159.9 137.2
Q 157.75 133.65 156.85 131.8
L 157.05 131.8
Q 156.1 130.2 154.35 126.2
L 153.6 124.55 153.55 124.3
Q 152.4 121.05 151.95 119.7
L 150.8 116.2 150.75 116.15 150.75 116.05 150.7 116 150.75 116 150.65 115.65 150.6 115.3 150.5 114.95 150.35 113.8 150.45 114.2
Q 150.15 112.5 150.2 110.9 150.2 110.15 150.35 109.3
L 150.8 107.5 150.9 107.3 150.9 107.25 151.25 106.5 151.35 106.35 151.45 106.15 151.5 106.1 151.5 106.05 151.65 105.9 151.75 105.75 151.8 105.65 151.7 105.8 151.7 105.75 151.8 105.6 153.25 104.15
Q 154.1 103.5 154.85 103.05
L 154.95 103 155.05 102.9 155.3 102.8 156 102.4 156.3 102.3 156.35 102.25 156.4 102.25 156.75 102.1 156.8 102.05 156.85 102.05 156.85 102 157.05 101.95 157.45 101.75 157.45 101.8 157.6 101.75 157.7 101.7 176.25 96.5 176.45 96.4 176.65 96.35 177.1 96.15 177.6 96 178.4 95.65 178.55 95.6 179.45 95.15 179.5 95.15 179.6 95.1 179.75 95 181.85 93.85
Q 183.55 92.8 185.45 91.1
L 186.9 89.65 187.05 89.4 187.45 88.95 189.05 86.65 189.05 86.6 189.55 85.75 189.55 85.7 189.6 85.6 189.7 85.45 189.8 85.25 189.8 85.2 189.95 84.9 190.65 83.1
Q 191.4 80.8 191.55 78.45 191.7 76.35 191.35 74
L 190.95 71.9 190.95 71.75 190.9 71.65 190.8 71.35 190.7 70.8 190.4 69.95
Q 189.75 67.9 189 66.35 188.35 65 187.15 63.05 186.05 61.3 185.05 60.15
L 184.5 59.5 184.35 59.35 184.2 59.15 183.85 58.8 183.8 58.7 183.75 58.7 182.7 57.6
Q 181.9 56.8 180.4 55.5
L 166.8 44.5 166.65 44.4 166.55 44.3 166.3 44.1 166.15 43.95 166.1 43.85 165.9 43.65
Q 165.048828125 42.798828125 164.45 42.05
L 164.6 42.25 164.75 42.55
Q 164.9 42.75 164.8 42.75
L 164.45 42.5 164.35 42.35 163.85 41.85 161.1 38.15
Q 160.7 37.55 160.5 37.45
L 159.9 36.7
Q 158.65 34.85 157.25 32.5
L 152.3 23.8 145.3 13.85 145.15 13.7 145.05 13.55 144.8 13.3 143.85 12.1 139.95 8 139.75 7.85 138.8 6.95
Q 137.65 5.95 136.05 4.75
L 133.1 2.9
Q 131.1 1.8 130.1 1.35 127.45 0.05 123.95 -1.05
L 116.8 -3.05 106.6 -4.75
Q 101.3 -5.35 97.1 -5.35 94.45 -5.35 90.45 -5.1
L 86.5 -4.5 86.3 -4.45 86.15 -4.45 85.8 -4.35 82.35 -3.7 82.15 -3.7 79.95 -3.2 79.8 -3.15 79.5 -3.1 78.2 -2.75 78.1 -2.75 78 -2.7 77.95 -2.7
M 166.95 61.05
Q 167.15 61.15 167.2 61.25
L 167.45 61.4 168.45 62.25
Q 168.3744140625 62.130078125 168.3 62 168.05 61.6 168.95 62.25 168.95 62.35 170.75 63.75
L 172.45 65.2 172.7 65.5 175.7 68.55
Q 176 68.7 175.85 68.25
L 176 68.65 177 70.65 177.05 70.85
Q 177.05 70.9 176.95 70.8
L 176.8 70.65 176.6 70.35 177.3 71.7 177.35 71.9 177.95 73.2
Q 177.65 72.25 177.5 71.75
L 177.6 71.9 177.65 72.1 177.8 72.4 178.1 73.2 178.1 73.3 178.15 73.35 178.45 74.35 178.45 74.55 178.5 74.65 178.5 74.8 178.55 75.05 178.6 75.15 178.6 75.3 178.65 75.5 178.65 75.75 178.7 76.15 178.6 79 178.65 78.9 178.7 78.85 178.7 78.75 178.85 78.5 178.95 78.25 178.75 79.2 178.55 79.75 178.5 79.8 178.4 80 178.35 80.05 178.35 80.1 178.2 80.25 178.2 80.3 178.05 80.5 177.75 80.8 177.45 81 177.3 81.05 177.2 81.1 177.15 81.1 177.25 80.95 177.35 80.85 177.35 80.8 177.4 80.75 177.5 80.6 177.8 80.05 177.8 80 177.75 80 177.75 80.1 177.5 80.45 177.4 80.55 177.3 80.75 176.9 81.15 176.75 81.35 176.65 81.4 176.65 81.45 176.1 81.95 175.9 82.1 175.8 82.2 175.7 82.25 175.5 82.4 175.45 82.45 175.4 82.45 175.3 82.55 175.1 82.7 174.9 82.8 174.8 82.9 174.75 82.9 174.7 82.95 174 83.35 173.95 83.4 173.8 83.45 172.75 84 172.6 84.05 172.5 84.1 172.45 84.1 171.8 84.4 172.75 84.1 165.1 86.7 164.75 86.75 155.95 89.25 155.7 89.3 155.5 89.4 152.8 90.4 152.6 90.45 152.15 90.7 152 90.75 151.15 91.15 151 91.2 148.95 92.3
Q 146.95 93.55 145.5 94.8
L 145.1 95.15
Q 144.8 95.35 144.7 95.5
L 144.1 96.05 143.95 96.25 143.2 97.05 143.05 97.25 142.85 97.45 142.05 98.5 142 98.6 141.95 98.65 141.85 98.8 141.8 98.8 141.35 99.6 141.25 99.7 141.2 99.8 141.2 99.85 141.05 100.05 140.4 101.35
Q 139.9 102.35 139.65 103.1
L 139.15 104.7
Q 138.8 106.1 138.6 107.65
L 138.45 109.95 138.5 111.2 138.55 111.55
Q 138.75 109.8 139.05 108.5 138.95 109.95 139.05 111.35 139.05 112.4736328125 139.25 113.8
L 138.65 112.5
Q 138.191015625 111.4568359375 138.15 111.05 138.1541015625 112.69453125 138.25 113.75
L 138.65 117 139 118.5 139 118.7 139.05 118.8 139.05 118.9 139.1 119 139.25 119.55 139.25 119.65 139.3 119.7 146.65 141.25
Q 147.4 143.5 148.15 146.5 149 149.85 149.4 151.8
L 149.65 153.1 149.65 153.2 149.7 153.2 149.7 153.4 149.75 153.75 149.85 154.05 149.85 154.25 149.9 154.4 150.25 156.9
Q 150.85 161.4 151.1 166.7
L 151.3 179.95
Q 151.25 180.85 151.1 181.6 151.05 181.85 150.9 181.65 150.7 180.6 150.65 180.6
L 150.85 183.65
Q 151 184.25 150.95 186.25 150.85 187.05 150.75 186.45
L 150.6 185.45
Q 150.6 186.2 150.55 187.6 150.5 188.6 150.6 188.7 150.7 187.9 150.8 187.65 150.9 187.35 151.05 187.25 151.5 186.8 151.55 186.7
L 151.3 191.4 151 191.2 151.05 192.15 151.15 192.75 151.2 195.65
Q 151.2 196.35 151 198.85 150.844140625 201.3046875 150.75 203.85 150.7232421875 204.5431640625 150.7 205.25
L 150.65 205.45 150.55 205.65 150.7 205.95 150.7 206.95 148.8 221.1 148.8 221 148.65 221.6
Q 148.7578125 220.8271484375 148.9 219.6
L 148.3 222.4 148.05 223.2
Q 148.65 221.65 148.1 224 148.1 224.15 147.9 225.15 147.8 225.5 147.95 225.1 147.940234375 225.1828125 147.9 225.25
L 146.3 233.15
Q 146.1408203125 233.87265625 145.95 234.6
L 145.5 236.45 145.4 236.65 144.8 238.05
Q 145 237.85 145.1 237.9 145.2 238 145.1 238.2 144.8 239.1 144.9 239.2
L 143.65 243.7 142.8 245.6 139.35 251.7
Q 139.3 252.45 138.8 253.35 138.25 254.5 138.15 254.9
L 138.1 254.75 137.85 255.35 137.35 256.2
Q 137.3 256.45 137.05 256.75
L 136 258.45 135.85 258.75 135.65 259.05 134.5 261.2 134.35 261.4 133.95 262.2 134.05 262.1
Q 133.9 262.7 133.55 262.95 133.42109375 263.014453125 133.3 263.05
L 133.2 262.9 132.5 262.15 131.85 261.15
Q 131.65 260.75 131.9 260.95 132.15 261.1 132.4 261.4 131.25 259.65 131.2 259.65 131.55 260.35 131.4 260.65 131.15 261 131.2 261.2
L 129.55 258.6 129.85 258.55 129.4 258.1 128.7 257.55 124.4 252
Q 122.4 249.55 121.95 249
L 117 243.2
Q 117.15 243.15 118.7 244.6 117.55 243.35 117.2 242.8 117.4 243.2 117.25 243.05
L 116.75 242.6
Q 115.95 241.8 116.25 242.15 116.05 242.05 115.15 241.25
L 112.1 237.95
Q 110.35 236.2 110 235.9
L 109.5 235.4 107.95 234.25 101.05 235.35 97.3 235.4 96.5 233.05 97.25 235.5 97.3 235.6 97.3 235.65 97.35 235.75 97.5 235.95 97.7 236.35 97.95 236.3
Q 98.6 237.45 98.6 237.65
L 98.85 238.4 99.2 239
Q 99.2 239.1 98.95 238.85
L 98.6 238.35 98.5 238.25 98.45 238.1 97.2 235.65 98.45 238.45 98.7 238.85 99.1 239.35 99.4 240 99.35 240.15
Q 99.25 240.15 99.3 240.35
L 99.7 241.1 101.3 243.05 101.35 243.15 101.85 243.7 102.55 244.65 102.5 244.65
Q 103.25 245.7 104.15 246.5
L 107.25 249.25 108.65 251.05 108.35 250.8
Q 108.65 251.3 109.9 252.75 111.1212890625 254.1591796875 111.7 255.05 111.5068359375 254.7294921875 111.55 254.6 111.55 254.45 112.15 255.1
L 115.45 259.8 116.65 261 120.1 266 124.45 273.8 124.5 274 125.55 276.45 125.65 276.85 125.7 276.9 125.75 277 125.9 277.5 125.95 277.6 125.95 277.65 126.05 277.9 127.1 281.8
Q 128.5 286.5 129.7 289.8
L 132.85 297.4 134.85 300.9 134.95 301 135 301.1 136.05 302.6 136.45 303.05 136.55 303.2 137.45 304.15 139.2 306.5
Q 139.2693359375 306.6041015625 139.3 306.7 140.443359375 308.40703125 141.15 310.15
L 141.4 310.85 141.55 311.15 141.55 311.25 141.6 311.3 141.75 311.9 141.8 311.95 141.75 311.95 141.8 312 141.8 312.1 141.85 312.5 141.85 312.8 141.8 312.85 141.8 312.9 141.75 312.95 141.75 313 141.7 313.05 141.7 313.1 141.55 313.3
Q 141.25 313.7 141 313.9
L 140.8 314.05 140.6 314.25 140.5 314.3 140.45 314.4 140.4 314.4 140.35 314.45 140.15 314.6 140.05 314.65 140 314.7 137.45 316.35
Q 135.55 317.45 134.55 317.9
L 130.3 319.7 130.25 319.7 130.2 319.75 130.05 319.75 129.6 319.9 129.5 319.95 129.45 319.95 129.45 319.95 129.3 320 122.35 321.9 121.65 322 121.6 322 121.55 322.05 121.3 322.05 121.25 322.1 120.95 322.1 120.9 322.15 118.8 322.25 118.55 322.2 118.05 322.2 117.55 322.1 117.3 322.1 116.65 321.95 116.45 321.85 116 321.75 115.9 321.7 115.85 321.7 115.7 321.65 115.65 321.6 115.6 321.6 115.4 321.5 115.25 321.45 115.2 321.45 115.2 321.4 115 321.35 114.25 320.95 114.05 320.8 113.55 320.3 113.4 320.2 111.3 318.05 110.9 317.5 110.8 317.4 110.95 317.7
Q 110.95 317.85 110.9 317.85
L 110.7 317.7 110.55 317.55 110.4 317.35 110.15 317.1 110.1 317 109.9 316.7 109.85 316.7 109.85 316.65 109.75 316.55 109.65 316.35 108.6 314.95 108.5 314.85
Q 108.45 314.75 108.35 314.75
L 107.9 314.3
Q 107 313.2 106 311.8
L 92.1 293.3
Q 87.95 287.95 83.6 282.75
L 77.85 275.8
Q 76.35 274.45 73.55 271.4 70.65 268.1 69.4 266.95
L 69.75 267.15 57.85 254.1
Q 56.481640625 252.614453125 55.95 252.05
L 56 252.15 55.7 251.85
Q 55.7873046875 251.9263671875 55.95 252.05
L 55 250.95 54.9 250.8 54.75 250.65 50.45 244.45 50.7 244.95 49.55 243.2 49 242.05 48.55 240.7 48.45 240.55 48.4 240.35 48.05 239.45
Q 48 239.7 47.65 239.35
L 47.3 238.95 46.95 238.4
Q 46.3 237.45 45.7 236.1
L 45.8 236.1 45.75 235.95 44.35 232.95 44.25 232.65 44.1 232.35 43.6 231.05 43.5 230.9 42.45 227.6 42.7 227.65 42.1 225.8 42.05 225.5 41.7 224.25 41.65 223.9 41.55 223.6 40.9 219.9 40.2 208.65 40.15 208.35 39.95 201.95 40.4 198.8
Q 41.0640625 197.5728515625 42.2 195.95
L 44.15 193.05 44.65 192.15 40.4 182.2
Q 40.25 181.8 40.1 181.7
L 40.45 181.35
Q 40.4236328125 181.3455078125 40.4 181.3
L 40 181.65 39.5 182.25 39.7 182.55 39.05 183.3 38.55 183.6 37.95 184.3
Q 37.8 184.25 38.35 183.35
L 39.4 182.05 38.35 183.05 37.85 183.7
Q 37.6 184.05 37.6 184.25 37.2 184.7 37 184.6 36.9 184.5 36.3 185.15
L 34.7 187.75 34.05 188.55 34.05 188.5 32.7 190.25 30.25 194.35
Q 30.1 194.6 29.65 195.2
L 29.75 194.9
Q 29 195.7 26.95 199.2 27.2 198.8 27.35 198.8 27.5 198.75 27.1 199.45
L 24.65 203.6 24.3 204.1 23.8 205.65
Q 22.75 207.75 22.1 209.25
L 19.3 216.6 18.1 221.05
Q 17.25 224.4 16.25 226.65
L 14.2 230.7 14 230.95 13.85 231.25 13.75 231.35 13.65 231.5
Q 13.1 232.35 12.2 233.35 11.5 234.1 10.65 234.8
L 10.45 234.95 10.3 235.1 10.1 235.25 10 235.3 9.95 235.3 9.95 235.35 9.9 235.35 9.75 235.45 9.7 235.5 9.55 235.6 9.25 235.75 9.3 235.75 9.2 235.8 9.15 235.85 7.6 236.6 6.25 237.05
Q 5.9 237.2 5.2 237.3
L 5.4 237.25
Q 3.75 237.5 2.25 237.45
L 0.4 237.15 -2.4 236.25 -2.45 236.2 -2.55 236.2 -2.75 236.1 -2.8 236.05 -2.9 236.05 -3.25 235.85 -3.4 235.8 -3.45 235.8 -3.5 235.75 -5.2 234.85 -5.35 234.75 -5.5 234.7 -7.1 233.65 -9.6 231.6 -10.05 231.15 -10.2 231.05 -10.3 230.9 -10.85 230.35 -10.95 230.2 -11.35 229.7 -11.45 229.6 -11.55 229.45 -11.95 228.95 -12.05 228.85 -12.5 228.2 -12.55 228.1 -12.6 228.05 -13.55 226.55 -13.6 226.45 -13.7 226.3 -13.8 226.05 -14 225.7 -14.05 225.65 -14.05 225.6 -14.45 224.8 -14.5 224.65 -14.55 224.55 -14.6 224.5 -15.75 221.6 -15.8 221.3 -16.1 220.45 -16.15 220.15 -16.35 219.55 -16.45 219 -16.55 218.7 -16.7 217.85
Q -17 216.45 -17.2 213.7
L -17.05 212.4 -17.05 212.1 -16.85 209.6 -16.8 209.45 -16.8 209.3 -16.65 208.4
Q -16.8 209 -16.9 208.9
L -16.95 208.65 -16.95 208.3 -16.9 208.2 -16.8 207.3 -16.75 207.1 -16.75 206.95 -16.55 205.75 -16.55 205.3
Q -16.6 205.2 -16.55 204.75
L -16.2 202.25
Q -15.7 199.05 -14.7 194.65
L -12.55 187.1 -12.45 186.95 -12.3 186.45 -12.15 186.15 -12.05 185.85 -11.45 184.6
Q -10.6 182.7 -8.9 179.7 -8.5 179 -6.2 175.2
L -0.55 166.35 -0.35 166.1 2.1 162.5 2.2 162.4 2.25 162.25 3.3 160.85 3.15 161.1 7.95 155.55 11.5 152.1
Q 13.55 150.2 17.3 147.1
L 21.3 144.05 20.9 144.3 21.55 143.75 21.7 143.6 25.45 141.45
Q 25.3 141.4 25.5 141.1
L 25.65 140.95 25.7 140.85 25.8 140.75 27.75 139.2 27.85 139.15 27.9 139.1 27.95 139.1
Q 28 139.05 28.15 138.95
L 28.15 139.05 33.45 134.55 33.65 134.3 34.3 133.65 34.45 133.55 34.95 133 35 133.25 38.7 128.5 38.85 128.2
Q 39.35 127.5 39.5 127.15
L 39.95 126.4 41.7 122.2 41.65 122.4 41.65 122.5 40.8 125.45 41.5 123.55 41.6 123.05 41.7 122.85 42.05 121
Q 42.53984375 119.181640625 42.7 117.7
L 42.75 116.85 42.8 116.55 42.55 112 42.1 110.05 42 108.4
Q 42 108.15 42.1 108.05
L 42.15 106.95 42.1 106.85 42.05 106.35 37.45 83.35 34.95 66.3 34.8 60.95 34.85 60.75 34.85 60.1 34.9 59.7 34.9 59.3 36.65 49.2
Q 36.8349609375 48.8763671875 36.65 49.7 36.8744140625 48.82734375 37.7 45.8
L 38.65 42.75 38.65 42.7 39.05 41.55 39.15 41.35 39.15 41.25 39.2 41.15 39.35 40.75 41.85 35.5 42.75 34.4 43.3 33.9 43.35 33.75 43.75 33.1
Q 44.4 32.1 45.45 30.75
L 49.15 26.55 53.55 22.65 62.45 16.45 62.8 16.3 63.05 16.1 63.95 15.6 64.3 15.45 64.4 14.85 66.8 13.65 67.65 13.4
Q 68 13.4 68.4 13.2
L 70.65 12.2 71.45 11.65 75.4 10.05 75.8 9.95 76.15 9.8 79.15 8.9 79.4 8.85 80.25 8.5
Q 80.25 8.55 80.6 8.45
L 80.75 8.4 80.95 8.4 80.95 8.35 81.35 8.3
Q 82.65 8 82.6 8.2
L 83.25 7.85 86.55 7.2
Q 87.1 7.05 85.65 7.15
L 89.2 6.5 90.1 6.5 90.45 6.55
Q 90.55 6.65 90.3 6.65
L 89.95 6.75 94.55 6.45
Q 98.65 6.35 102.2 6.6
L 104.4 6.8 104.7 6.8 106.15 7 106.4 7 106.55 7.05 106.7 7.05 110.3 7.6 110.45 7.65 110.6 7.65 110.95 7.7 111.25 7.8 120.1 10 121.3 10.4 125.7 12.35
Q 127.75 13.35 129.5 14.65
L 131.1 15.95 131.25 16.15 131.35 16.2 135.55 20.8
Q 136.75 22.25 138 24.1
L 138.3 24.45 139.85 26.75 140.05 27.1
Q 141.9 30.05 142.8 31.75 142.65 31.15 142.3 30.55
L 141.15 28.35 141 28 140.8 27.7
Q 140.4 26.75 140.35 26.55 141.35 27.75 142.05 29.2
L 143.15 30.95 143.25 31.55 144.55 34.4 144.55 34.45 144.6 34.5 144.65 34.6 144.7 34.75 145.15 35.65 145.25 35.95 146.2 38.05 146.5 39 147.3 39.6 147.85 41.1 152.3 47.6 156.95 53.3 166.95 61.05
M 163.3 166.05
L 163.65 166.85 163.8 167.1
Q 164.15 167.7 164.35 167.85 164.3 167.85 164.55 168.3
L 164.65 168.65
Q 164.75 168.8 164.65 168.8 164.9 168.95 165.15 169.4
L 165.7 170.3
Q 165.8 170.4 165.75 170.25 165.7 170 165.65 169.85
L 166.6 171.15 166.75 171.55 166.75 171.7
Q 166.75 171.9076171875 166.5 171.55
L 168.9 175.1 168.95 175.2 169.05 175.3 169.5 175.9 169.7 176.1 169.75 176.2 169.85 176.3 170.45 177 170.5 177.1 175.45 182.6
Q 178.65 185.95 181.5 188.5
L 185.3 192
Q 185.25 191.8 184.65 191.1
L 184.45 190.85 184.35 190.75 184.25 190.6 184.05 190.2
Q 184.1 190.25 184.6 190.55
L 184.95 190.95
Q 185.5 191.4 185.55 191.4 185.55 191.6 185.75 192
L 186.9 193.35
Q 187.15 193.7 187.25 194.1
L 187.7 194.1 187.9 194.6 189.9 196.55 191.4 198.45 193.45 200.5
Q 194.4 201.35 194.8 202 194.7 201.8 194.65 201.65 194.65 201.45 194.95 201.75 194.9 201.85 195.5 202.5 196.2 203.15 196.15 203.35 197.7296875 205.324609375 197.65 204.65 197.68046875 204.8107421875 198.1 205.65 198.4 206.25 197.95 205.8
L 198.35 206.35 198.35 206.4 198.4 206.45
Q 198.8 206.95 198.9 207.05
L 198.5 206.3 198.95 206.9 199 207 199.05 207.05 199.2 207.35 199.3 207.5 199.3 207.55 199.35 207.6 199.7 208.25 199.75 208.4 200.15 209 200.4 209.25 200.4 209.15 200.35 209 200.3 208.7 200.6 209.25 200.8 209.8 200.85 210.25 200.75 210.6 200.65 210.4 200.55 210.25 200.35 209.85 200.7 210.7 200.7 210.8 200.75 210.9 200.85 211.3 200.95 211.45 201.35 212.9 201.35 212.5 201.5 213 201.5 213.1 201.55 213.25 201.55 213.5 201.6 213.65 201.6 213.8 201.65 214.1 201.55 215.95 201.5 216.15 201.5 216.2 201.45 216.25 201.45 216.35 201.25 217.25 201.2 217.35 201.2 217.45 201.1 217.7 201.05 217.9 200.6 219.05 200.55 219.25 199.95 220.55 199.8 220.75 198.35 223.4 199.15 222.95 198.35 224.3
Q 198.4 224.25 198.3 223.65
L 198.2 223.25
Q 198.15546875 223.1609375 198.15 223.1
L 197.05 224.45 196.8 224.7 196.8 224.75 196.65 224.85 195.55 226.05 195.5 226.15 195.4 226.2 195.15 226.45
Q 193.75 227.85 192.6 228.7 191.05 229.9 189.7 230.65 188.3 231.45 186.65 232
L 184.8 232.45 184.65 232.5 184.45 232.5 183.95 232.6 183.8 232.6
Q 182.55 232.75 181.45 232.65
L 181 232.6 180.8 232.6 180.6 232.55 179.95 232.45 179.65 232.3 179.5 232.2
Q 179.45 232.15 179.5 232.05
L 179.85 231.85 179.05 231.85 178.95 231.9 178.7 231.95 178.2 231.8
Q 178 231.75 178.15 231.65 178.3 231.6 178.5 231.6
L 177.65 231.35 177.5 231.4
Q 177.85 231.6 177.85 231.85 177.85 232.25 177.9 232.35
L 177.55 232.2 176.85 232 176.5 231.85 176.65 231.65
Q 176.5 231.6 176.3 231.65
L 176.2 231.65 176.1 231.7 175.8 231.7 175.4 231.65 175.2 231.65 174 231.25 170.1 229.35
Q 167.9 228.25 166.45 227.2 166.55 227.15 166.9 227.25
L 167.65 227.55 167.1 227.25 166.65 226.85
Q 166.9 227.2 166.3 226.85
L 166 226.65
Q 165.9 226.65 165.95 226.75
L 164.55 226.05 164.25 225.8 164.05 225.7 161.2 223.05 160.95 223.15
Q 161.1529296875 222.3525390625 161.35 221.4
L 162.45 215.55 162.25 216.35 162.05 216.75 162 216.45 162.45 213.05 162.5 212.85 162.5 212.6 162.55 212.2 162.55 211.95 162.6 211.85 162.6 211.4
Q 162.72578125 211.2455078125 162.9 211.35 163 211.4 163.1 211.55 163.1 211.15 162.95 210.95 162.85 210.8 162.9 210.5 163 210.3 163.2 210.7 163.2 210.65 163.25 210.3 163.3 210.15 163.2 210.1 163.1 210.3 162.8 210.3 162.71875 210.3 162.65 210.3
L 162.65 209.5 162.75 209.55
Q 162.75 209.52109375 162.65 209.35
L 162.65 208.7
Q 162.65 207.3806640625 162.7 206.2
L 162.7 205.65
Q 162.7791015625 204.9083984375 162.85 204.2
L 162.8 203.7
Q 162.9623046875 203.78984375 163.15 204.4 163.15 203.9 163.25 203.7 163.05 203.95 163.05 203.55
L 163 203.5 163 203.35
Q 162.95 203.3 162.95 203.35
L 162.75 203 162.65 201.35 162.95 196.9 162.95 196.65 163 196.45 163 195.95 163.05 195.7 163.05 195.45 163.1 195.15 163.1 195 163.15 194.85 163.5 170.35
Q 163.39453125 167.8732421875 163.3 166.05
M 68.35 287.35
L 69.3 285.8 72.45 289.6
Q 75.75 293.5 80.25 299.2
L 83.45 303.3 83.65 303.65 84.8 305.15 84.95 305.3 87.7 309.05
Q 88.6693359375 310.358203125 89.45 311.4
L 88.7 312.1
Q 87.45 313.35 86.05 315.1 85.3 316.15 84 318.25 83.95 318.25 83.95 318.05
L 83.75 318.55 83.65 318.65 83.6 318.75 83.65 318.7 83.35 319.25 83.3 319.3 83.3 319.35 83.25 319.4 83.2 319.5 82.9 319.9 82.65 320.35 82.35 320.4 82.15 320.3 82.1 320.45 82.1 320.5 81.9 320.7 81.8 320.75 81.75 320.85 81.55 320.95 81.5 321.05 81.4 321.1 81.35 321.15 81.3 321.15 81.2 321.25 81.15 321.25 81.05 321.35 81 321.35 80.95 321.4 80.85 321.4 80.95 321.85 80.75 321.85 80.5 321.7 80.4 321.6 80.35 321.6 80.2 321.55 80.15 321.6 80 321.6
Q 79.95 321.85 79.65 321.95
L 79.15 322.05 78.6 322.05
Q 78.35 322.05 78.2 322.2 77.75 322.15 77.75 321.95 77.7 322.15 77.45 322.15 77.1 322.15 77 322.2 76.9 322.25 77 322.3
L 77.15 322.4 76.45 322.6
Q 76.25 322.5 76.2 322.4 76.2 322.25 76.4 322.2
L 71.55 322.15 71.3 322.1 71.15 322.1 71.05 322.05 70.85 322.05 70.8 322 70.7 322 70.65 321.95 70.5 321.95 70.45 321.9 70 321.7 69.85 321.55 69.25 321.05 69.2 321.25 69.2 321.3 69.25 321.35 69.25 321.5 69.15 321.75 68.95 321.7 68.9 321.6 68.85 321.55 68.7 321.55
Q 68.95 321.3 68.85 321.05 68.75 320.7 68.95 320.45
L 68.6 320.55 68.7 320.3 68.65 320.2 68.55 320.15 68.35 319.95 68.3 319.85 68.3 319.9 68.1 319.55 68 319.25 68 319.2 67.95 319.15 67.95 319.1 67.9 318.95 67.85 318.7 67.75 318.4 67.35 317.75 66.95 317.25
Q 66.5 316.7 66.5 316.4 66.4 316.8 66.2 316.55 66.45 316.5 66.1 316.15 65.9 315.75 66 315.65
L 65.75 315.05 65.55 314.85
Q 65.45 314.8 65.3 314.95
L 65.45 314.4
Q 65.45 314.1 65.65 314.35
L 65.6 313.95 65.45 313.65 65.45 314 65.35 313.7 65.25 313.2 65.25 312.95
Q 65.15 312.4 64.9 312.15
L 64.8 312.5 64.7 312.15 64.7 311.7 64.75 311.55 65 311.35 65.2 311.85 65 310.8 65 310.7 64.95 310.65 64.9 310.3 64.85 310.15 64.85 310.1 64.8 310.05 64.7 309.8 64.7 310.05 64.6 309.85 64.6 309.75 64.55 309.65 64.55 309.6 64.35 308.75 64.05 306.45
Q 63.7 302.65 63.65 302.5
L 63.25 302.95 63.05 302.05
Q 63.90390625 302.476953125 64 302.6
L 64.5 298.05 64.55 297.8 64.55 297.65 64.6 297.55 64.6 297.5 64.65 297.15 64.85 296.3
Q 65.3 294.55 66.05 292.9
L 66.35 292.2 67.15 290.75
Q 67.5 290.4 67.6 290.65
L 67.75 290.95
Q 67.9 290.45 67.8 290.35 67.75 290.2 67.9 289.85 68.15 289.6 68.15 290.15 68.2 290.1 68.35 289.8 68.45 289.6 68.35 289.55 68.2 289.7 67.9 289.6 67.55 289.5 67.45 289.5
L 67.9 288.7 68.1 288.85
Q 68.15 288.85 68.05 288.3 67.95 287.8 68.35 287.35 Z"/>
</g>
</defs>

<g id="walk2">
<g transform="matrix( 0.6996917724609375, 0, 0, 0.6996917724609375, 57.25,20.7) ">
<g id="walk">
<g transform="matrix( 1, 0, 0, 1, 0,0) ">
<use xlink:href="#walk_4_Layer0_0_FILL"/>
</g>
</g>
</g>
</g>
</svg>
