
<svg xmlns="http://www.w3.org/2000/svg" version="1.1" xmlns:xlink="http://www.w3.org/1999/xlink" preserveAspectRatio="none" x="0px" y="0px" width="256px" height="256px" viewBox="0 0 256 256">
<defs>
<g id="walk_0_Layer0_0_FILL">
<path fill="#FFFFFF" stroke="none" d="
M 78 -2.7
L 77.9 -2.7 69.8 0 70.4 -0.3 66.55 1.25
Q 63.4 2.6 60.7 4 57.4 5.7 53.65 8.1
L 51.85 9.25 51.4 9.6 51.05 9.8 50.95 9.9 49.55 10.9 49.3 11.05 49.2 11.15 49.05 11.2 47.6 12.3 47.5 12.35 47.45 12.4 47.3 12.5 46.4 13.2
Q 42.4 16.4 39.55 19.35 36.55 22.5 34.1 25.9 32.85 27.65 32 29.1
L 31.75 29.45 30.75 31.3 30.65 31.45 30.4 32 30.2 32.3 28.4 36.3 28.55 36.05 28.65 35.8 28.95 35.25 27.95 37.9 27.9 38 27.9 38.05 27.85 38.1 27.75 38.55 24.85 46.7
Q 25.1 46.45 25 47.35
L 24 54.65 23.95 54.55
Q 23.8 55.6 23.6 58.05
L 23.7 64.95 24.45 71.55 24.45 71.8 24.55 72.35 24.25 72.15
Q 24.7 74.55 25.9 81.2
L 33.8 117.4 33.8 117.75 33.8 118.3 32.9 122.35
Q 31.85 126.55 30.45 130.55
L 25.8 144.9 25 148.5
Q 24.85 148.75 24.95 148.05
L 24 153.6
Q 23.75 155.4 23.45 159 23.35 159.65 23.05 160.55
L 23.1 169.05 23.65 174.35 23.65 174.6 24.6 179.7 24.75 180.15 24.95 181.15 25.2 181.25 25.4 181.3
Q 25.9 183.1 25.8 183.6 25.75 184.1 26.2 185.7 26.65 186.3 27.35 189
L 27.8 190.95
Q 28.1 191.95 28.25 192.25 28.65 193.85 28.45 193.8 28.85 194.2 29.35 196.45 29.45 196.65 29.45 196.4 29.35 195.95 29.35 195.85
L 30.15 198.15 30.25 199
Q 30.15 199.1 29.9 198.4
L 32.8 207.5 33.7 209.6 33.7 209.65 33.75 209.7 33.9 210
Q 34.0421875 210.319921875 34.85 211.85 34.664453125 213.380078125 34.55 213.8 34.4 214.55 34.2 214.65 34.1 214.8 34.05 214.85
L 28.45 244.45
Q 28.310546875 244.6359375 28.35 244.15
L 26.9 252.3 26.55 253.05 26.25 253.4
Q 26.3 253.4 26.2 253.9
L 24.9 259.9 24.8 260.6 23.1 268.25 23.55 268.5
Q 23.2 269.9 22.85 270.25
L 22.6 270.65 22.45 271.1 22.3 271.9
Q 22.5 272.45 21.9 274.6
L 21.45 276.1
Q 21.25 277 21.3 277.2 20.9 278.45 20.7 278.3 20.85 278.5 20.65 279.25
L 20.45 279.85 20.4 280.15 20.3 280.45
Q 20.35 280.65 20.45 280.5 20.6 280.2 20.65 280.1
L 20.3 281.95
Q 20.05 282.5 19.9 282.5 19.75 282.55 19.9 281.95
L 19.2 284.35 19.15 284.45 13.35 304.15 13.35 304.35 13.05 305.5 13.05 305.75 13 305.95 12.95 306.05 12.95 306.2 12.9 306.45 12.9 306.6 12.85 306.75 12.85 307 12.8 307.1 12.8 307.5 12.75 307.8 12.75 309.25 14.05 316.65 14.3 317.55 14.35 317.85 14.55 318.4 14.65 318.85 15.1 320.05 15.05 319.65 14.8 318.5 14.75 318.35 14.75 318.3 14.7 318.25 14.7 318 14.65 317.8 14.6 317.7 14.6 317.55 14.55 317.1
Q 14.5 316.75 14.6 316.35
L 14.95 317.3 14.95 317.45 15.15 318.1 15.15 318.25 15.4 319.05 15.5 319.2 15.65 319.5 15.6 319.9 15.75 320.85 17.05 324.1 17.35 325.15 18 325.45 18.35 326.45
Q 19.3 327.65 20.2 328.55
L 21.5 329.75 21.95 330.1 22.15 330.3 22.3 330.4 23.55 331.5 25.4 332.75 25.55 332.8 25.7 332.9 27.15 333.65 29.3 334.4
Q 30.45 334.75 31.7 334.9
L 31.95 334.95 32.25 334.95 32.75 335.05 32.95 335.05 33.2 335.1 33.7 335.15 34 335.15 34.15 335.2 34.5 335.25 34.7 335.25 35.05 335.3
Q 34.8875 335.275 34.7 335.15 34.55 335 35.2 335 35.2 335.1 35.35 335.1
L 35.4 335.15 36.6 335.2
Q 36.95 335.15 37.65 335.15 38.25 335.25 38.3 335.3 40.2 335.3 40.55 335.25 41.95 335.15 41.25 334.85 41.45 334.9 42.9 335.05 43.35 335.1 43.4 335.15 43.45 335.2 42.9 335.3 44.55 335.3 45.35 335.1
L 44.2 335.1 46.2 334.9 46.3 334.85 46.7 334.85 46.9 334.8 47.15 334.8 47.95 334.7
Q 49.6 334.55 50.75 334.05
L 49.6 334.05
Q 51.8 333.65 52 333.65 53.15 333.5 53.65 333.7
L 51.85 334.2 56.05 333.15 56.5 333 56.7 332.9 56.8 332.9 56.85 332.85 56.9 332.85 57.1 332.8 57.3 332.7 57.35 332.7 57.55 332.6 57.85 332.5 58.15 332.35 58.2 332.3 58.3 332.3 58.4 332.2 60.15 331.1
Q 60.25 330.95 60.55 330.75
L 60.9 330.4 61.05 330.2 60.35 330.85 59.95 331.15 59.7 331.3 61.45 329.65 61.75 329.25 61.95 329.05 62.15 328.7 62.25 328.6
Q 62.9 327.65 63.3 326.75
L 64.55 322.8 65.2 316.9 65.2 315.05 65.25 314.75 65.25 314.45 65.3 314.15
Q 65.3 313.95 65.6 311.65
L 66.2 308.15 65.55 309.1 65.9 307
Q 65.9 307.3 66.25 307.8 66.510546875 308.2837890625 66.5 308.4
L 70.7 298.05 80.9 277.4
Q 81.45 276.35 81.55 276.7 81.6 276.9 81.6 277.3 81.65 277.15 82 275.75 82 275.35 82.35 274.45 82.7 273.75 82.5 274.95 83.15 273.45 83.05 273.3 82.75 273.85 82.45 273.9 81.95 273.95 81.85 274
L 82.3 272.85 82.45 272.55 82.75 271.7 83 271.9
Q 83 271.2 83.05 270.6
L 83.2 269.5 85.6 262
Q 86.05 260.6 87.35 255.85 87.45 255.95 87.35 256.5
L 87.2 257.7
Q 87.6 256.25 87.75 255.9 87.45 256.4 87.65 255.45 87.9 254.45 87.7 254.9
L 88.4 251.45 93.85 252.65 94.3 252.65 94 252.55 93.9 252.55 93.9 252.5 93.85 252.5 93.05 252.25 95.65 252.7 95.95 252.8 97.15 253.05 97.95 253.35 95.6 253.15
Q 97.9 253.5 100.55 253.6
L 102.8 253.5
Q 103.95 253.45 105.2 253.2
L 103.95 253.3
Q 106.15 252.9 106.35 252.85 108.3 252.5 110 251.85 112.1337890625 251.1689453125 113.95 250.05
L 114.35 253.5 114.2 253.2
Q 114.2 253.8 114.3 254.2
L 114.95 258.35 115 257.75
Q 115.05 257.7 115.15 257.85
L 115.3 258.4 116.25 263.8 116.9 265.3 123.35 294.7 123.35 294.9 123.8 297.2 123.8 297.3 123.85 297.4 123.85 297.55 124.15 299.1 124.15 299.3 124.2 299.5 124.35 300.7 124.45 301.05 124.45 301.2 124.5 301.4
Q 124.85 304.35 125.35 307.1
L 126.05 311.2 125.9 310.9 127.3 317.05 127.35 317.15 127.35 317.25 127.9 318.85 127.9 318.9 127.95 318.9 127.95 318.95 128 319.05 128.05 319.2 128.1 319.3 128.1 319.35 128.15 319.5 128.2 319.55 128.5 320.25
Q 129 321.3 129.55 322.15
L 132 325.6 133.1 326.75 133.25 326.95 134.05 327.75 134.2 327.85 136.4 329.75 136.55 329.8 136.65 329.9 139.35 331.6 140.9 332.35
Q 142.75 333.25 145.05 333.9
L 145.85 334.1 145.95 334.15 146.1 334.2 146.7 334.3 146.85 334.35 146.95 334.35 146.95 334.4 147.15 334.4 147.6 334.5 147.7 334.55 147.9 334.55 147.95 334.6 149.2 334.8 153.75 335
Q 156.25 334.9 157.55 334.8
L 167.25 333.45
Q 169.9 333.05 172.6 332.45
L 173.2 332.45 173.4 332.4 173.85 332.4 174.25 332.35 174.3 332.35 174.3 332.3 174.5 332.3 175.05 332.15 175.4 332.1 176.15 331.9 176.3 331.8 176.5 331.75 177.15 331.5
Q 178.35 331 178.45 330.9
L 178.75 330.75 178.9 330.7 180.4 329.75 180.5 329.65 180.65 329.6 181.55 328.9 180.85 329.35
Q 180.55 329.45 180.65 329.35
L 180.9 329.05 184.1 326.05 184.45 325.5
Q 184.65 325.1 184.8 324.9
L 185.55 323.9 185.6 323.8 185.65 323.75 185.75 323.55 186.55 322.5 186.85 321.95
Q 187.3 321.3 187.95 319.85
L 188.1 319.5 188.2 319.15 188.5 318.4 189.05 315.6 189.05 314.5
Q 189.05 313.15 188.8 312.2 188.6 311.15 188.1 309.9 187.55 308.7 186.95 307.85
L 185 305.45 184.85 305.35 184.7 305.15 184.65 305.15 184.6 305.05 184.5 304.95 184.4 304.8 184.25 304.65 184.2 304.55 184.15 304.5 184.15 304.45 183.55 303.5
Q 182.9 302.35 182.4 301.15 181.9 300.1 181.3 298.45
L 179.35 292.8
Q 178.6 290.45 177.8 287.4 176.95 284.2 176.6 282.9
L 173 269.35 173.15 269.65 168.4 242.35 168.45 242.9
Q 168.05 241.25 167.95 239.7
L 168 238.6 167.9 236.95
Q 167.65 237.25 167.2 235.7 167.187109375 235.6595703125 167.15 235.6 167.037109375 234.33203125 166.85 232.85 166.15 228.1 166 225.3
L 166.2 225.9
Q 166.2 225 165.85 221.65 165.539453125 218.5458984375 165.4 216.6 165.4216796875 217.142578125 165.35 217.25 165.2 217.45 165.05 215.9 164.95 213.5 164.65 210.35
L 164.4 205.75 164.35 205.4 164.35 205.2 164.3 205.05 164.2 204.5 164.15 204.45 164.15 204.15 164.05 203.8 164.05 203.55 164 203.25 164.2 190.95
Q 164.3 188.2 164.2 185.25
L 164 172.45
Q 163.75 164.65 162.95 158.2
L 161.8 151.35 161.75 151.15 161.75 151.05 161.7 150.85
Q 161.1 148 160 143.9 159.3 141.3 158.1 137.4
L 156.8 133.5 156.65 133.15 156.55 132.75 150.95 116.8 150.95 116.7 150.9 116.6 150.85 116.45 150.8 116.2 150.75 116.15 150.7 115.95 150.7 115.8 150.6 115.5 150.55 115.2 150.7 115.65
Q 150.25 113.75 150.2 112.2
L 150.2 110.25 150.25 110.05 150.25 109.85 150.3 109.65 150.4 108.85 150.45 108.75 150.45 108.65 150.7 107.75 150.8 107.55 150.8 107.45 150.85 107.35 150.9 107.2 151 107 151.05 106.85 151.45 106.2 151.45 106.1 151.55 106 151.55 105.95 151.6 105.9 151.7 105.75 151.75 105.65 151.75 105.65 151.8 105.6 151.95 105.45 152.05 105.3 152.1 105.3 152.1 105.25 152.2 105.15 152.3 105 152.45 104.85
Q 153.15 104.15 153.85 103.7 154.5 103.15 155.65 102.6
L 155.9 102.5 156.25 102.3 156.4 102.25 156.6 102.15 156.75 102.05 156.8 102.05 156.85 102 157.4 101.8 157.45 101.75 157.45 101.75 157.6 101.7 157.7 101.7 157.7 101.65 172.75 97.6
Q 173.65 97.35 176.25 96.5
L 178.1 95.75 178.3 95.65 178.35 95.65 178.45 95.6 179 95.4 179.1 95.3 179.45 95.15 179.5 95.15 179.6 95.1 179.65 95.05 180 94.85 180.5 94.65 180.95 94.35 181.2 94.25 181.9 93.8 182 93.75 183.3 92.9 183.5 92.7 183.75 92.55
Q 185.75 90.95 187.1 89.35
L 189.05 86.65 189.55 85.75 189.7 85.35 189.8 85.2 189.95 84.9 189.95 84.85 190 84.8 190.55 83.25 190.6 83.15 190.65 83 191.25 80.65
Q 191.65 78.65 191.55 76.1 191.4 73.9 190.95 71.85
L 190.7 71 190.7 70.9 190.65 70.8 190.65 70.75 190.1 69 189.8 68.3 189.75 68.1
Q 189 66.3 188.1 64.65 187.4 63.35 186.1 61.6
L 183.8 58.75 183.75 58.75 183.75 58.7 183.6 58.55 183.4 58.3 183.25 58.2 183.15 58.05 183.1 58 183 57.95 182.75 57.65 167.15 44.8 166.85 44.6 166.75 44.45 166.65 44.4 165.95 43.75 165.75 43.5 165.35 43.1 165.15 42.85 165.05 42.75
Q 165.1166015625 42.8330078125 165.15 42.9
L 165.3 43.05 165.5 43.35 165.55 43.5 165.5 43.55 164.9 43.05 161.75 39.1
Q 161.3 38.45 161.15 38.4 160.85 38.1 160.55 37.7 159.25 35.85 157.85 33.55
L 152.3 23.85
Q 150.8 21.35 149.45 19.45 147.55 16.75 146.05 14.8
L 141.45 9.55 141.15 9.25 141.05 9.1 139.75 7.8
Q 138.65 6.75 137.05 5.5 135.5 4.35 134.15 3.55 132.15 2.35 131.15 1.85 128.7 0.55 125 -0.7
L 118.2 -2.75 117.8 -2.8 115.25 -3.4 114.85 -3.45 114.5 -3.55 112.55 -3.9 112.5 -3.9 112.4 -3.95 107.6 -4.65
Q 102.75 -5.25 98 -5.35
L 91.4 -5.2 90.75 -5.1 90.55 -5.1 90.4 -5.05 84.25 -4.1 83.9 -4 82.45 -3.75 82.1 -3.65 81.75 -3.6 80.3 -3.25 80.1 -3.25 80 -3.2 79.95 -3.2 78.3 -2.8 78.15 -2.75 78.1 -2.75 78 -2.7
M 167.7 61.65
L 168 61.85
Q 168.8302734375 62.4181640625 169.7 63.25 169.4857421875 63.0037109375 169.35 62.8 169.1 62.45 170 63.05
L 170.15 63.3 171.7 64.6
Q 172.5 65.15 172.9 65.6 173.5 66.1 173.55 66.35
L 174.05 66.8 174.2 67 174.8 67.6 175.05 67.95 175.35 68.25 176 69.1 176.35 69.45
Q 176.55 69.6 176.45 69.15
L 177.05 70.45 177.1 70.6 177.35 71.15
Q 177.55 71.75 177.5 71.8 177.5 71.85 177.4 71.75
L 177.3 71.55 177.1 71.3
Q 177.55 72.25 177.75 72.85
L 177.9 73.2 178 73.55 178.05 73.65 178.1 73.7 178.1 73.8 178.3 74.25 178.15 73.75 178.2 73.75 178.15 73.65 177.9 72.75 178.05 73.05 178.25 73.75 178.3 73.85 178.35 74.1 178.45 74.3 178.45 74.45 178.5 74.65 178.55 74.7 178.55 74.95 178.6 75.2
Q 178.8 76.1 178.7 77 178.7 77.8 178.55 78.4
L 178.55 78.6 178.5 78.75 178.5 78.9 178.45 79.05 178.4 79.4 178.35 79.55 178.35 79.7 178.45 79.5 178.55 79.4 178.6 79.3 178.7 79.15 178.75 79.05 178.8 78.9 178.8 78.85 178.6 79.55 178.6 79.6 178.55 79.7 178.55 79.75 178.5 79.75 178.5 79.85 178.35 80.1 178.35 80.15 178.25 80.25 178.25 80.3 178.1 80.45 178.05 80.6 177.9 80.8
Q 177.15 81.65 176.55 81.7
L 176.7 81.55 176.85 81.35 177 81.2 177.25 80.85 177.3 80.75 177.4 80.65 177.45 80.55 177.5 80.5 177.6 80.3 177 81.1 176.9 81.15 176.8 81.25 176.65 81.45 176.55 81.5 176.45 81.6 176.4 81.7 176.3 81.75
Q 175.55 82.45 174.65 82.95
L 173.95 83.35 173.9 83.35 173.75 83.45 173.25 83.7 170.1 84.95 171.5 84.55
Q 170.6 84.95 168.75 85.55
L 164.7 86.75 164.55 86.75 155.9 89.2 155.7 89.3 155.45 89.35 153.6 90 153.4 90.1 153.1 90.2 152 90.7 151.7 90.8 148.9 92.3 148.2 92.75 148 92.85 146 94.3 145.8 94.5 145.35 94.85 143.45 96.65 143.35 96.8 142.9 97.3 142.85 97.4 142.65 97.6 142.5 97.85 142.3 98.05 142 98.5 141.9 98.6 141.9 98.65 141.8 98.8 141.75 98.85 141.2 99.7 141.2 99.75 141.15 99.8 140.55 100.85 139.4 103.6 138.6 107.05
Q 138.45 108 138.35 109.95
L 138.6 113.75
Q 138.7 112.25 138.9 110.75 138.95 113.2962890625 139.55 116.2 139.4890625 115.9296875 138.8 114.65
L 138.35 113.8
Q 138.2703125 113.580859375 138.2 113.4
L 138.5 115.95
Q 138.55 116.2 138.65 116.75
L 138.95 118.35 138.95 118.55 139 118.55 139 118.75 139.05 118.95 139.1 119 139.1 119.05 139.25 119.55 139.25 119.6 139.3 119.7 139.3 119.8 145.35 137.3 149.35 151.05 149.75 153.1 149.9 153.6 149.9 153.7 150.8 158.9
Q 151.4 163.4 151.65 168.75
L 151.85 182.15
Q 151.75 184.45 151.5 183.85 151.3 182.8 151.25 182.75 151.25 184.1 151.35 185
L 151.45 185.9
Q 151.6 186.5 151.6 188.5 151.55 189.2 151.4 188.7 151.3 188.35 151.25 187.7 151.25 188.35 151.25 189.95 151.2 190.95 151.3 191.05 151.4 189.85 151.7 189.55 151.85 189.45 151.95 189.35 152.1 189.25 152.2 188.95
L 152.1 193.8 151.8 193.6 152.1 196
Q 152.25 197.8 152.25 198.2 152.35 199.5 152.25 201.35
L 152.2 204.25 154.15 227.1
Q 153.95 226.95 153.45 223.55 153.75 226.85 153.75 227.35 153.8 226.25 154.05 228.15 154.25 229.85 154.25 229.25 154.85 232.15 155.55 239.05
L 156.8 248.3 156.95 248.4
Q 156.8951171875 248.8517578125 156.75 249.2 156.8 249.05 156.9 249.75
L 159.4 266.1 159.95 266.2
Q 160.25 267.85 160.05 268.3 159.9 268.7 160.25 270.25 160.55 270.55 160.8 271.5
L 161.15 273.25
Q 161.55 275.75 161.85 276.25 162.1 277.7 161.9 277.65 162.2 277.95 162.3 278.65
L 162.65 280.1
Q 162.75 280.25 162.75 280
L 162.75 279.55 163.4 281.55
Q 163.5 282.2 163.4 282.35 163.25 282.45 163.05 281.8
L 164.9 289.2
Q 166.7 295.95 168.3 300.6
L 170.75 306.75
Q 171.4 308.3 172.3 309.85
L 172.5 310.25 172.65 310.45 172.75 310.65 173 311.05 173.1 311.25 173.95 312.45 174.05 312.55 174.1 312.65 174.45 313.1 174.55 313.2 174.6 313.3 175.65 314.4 175.65 314.45 175.8 314.6 175.95 314.7 175.95 314.75 176 314.8 176.05 314.8 176.05 314.85 176.1 314.9 176.05 314.9 176 314.95 175.7 315.05 175.8 315.2 175.85 315.35 175.7 315.45 175.4 315.7 174.6 316.85 174.55 316.95 174.25 317.35 174 317.6 173.95 317.7 173.75 317.9 173.65 318.05 173.25 318.3 173.05 318.4 172.95 318.5 172.8 318.6 172.75 318.65 172.7 318.65 172.7 318.7 172.65 318.7 172.5 318.8 172.4 318.85 172.35 318.9 172.25 318.95 172.15 318.95 171.7 319.3 171.7 319.3 171.55 319.35 171.35 319.45 170.35 319.7
Q 168.5 320.25 167.55 320.3 168.6 320.35 167.75 320.6 167.65 320.45 166.45 320.75 165.2 321.05 164.95 320.9
L 162.9 321.25
Q 161.55 321.55 162.25 321.75 162.1 321.7 160.75 321.7 159.85 321.65 160.7 321.45
L 160.35 321.45 160.2 321.5 159.3 321.55 159.2 321.6 158.95 321.6 158.5 321.7 159.55 321.7 159 321.8 156.2 321.95
Q 154.6 322.05 153.75 322.25
L 154.7 322.45 152.7 322.45 152.3 322.35 152.15 322.35 152 322.3 151.7 322.15 151.5 322 151.85 322 152.2 321.95 152.55 321.95 152.9 321.9 151.1 321.85 151 321.8 150.6 321.8 150.5 321.75 150.5 321.8 150.4 321.75 150.45 321.75 149.4 321.6 149.25 321.55 149.1 321.55 147.85 321.3 148 321.35 148.05 321.4 148.15 321.4 148.45 321.5 148.2 321.5 147.9 321.4 147.55 321.35 147.2 321.25
Q 146.25 321 145.4 320.6 144.3 320.15 143.5 319.55
L 142.9 319.1 140.65 316.9 139.35 315 139.3 314.9 139.25 314.85 139.25 314.8 139.2 314.8 139.25 314.9 139.2 314.8 139.2 314.8 139.1 314.5 139.05 314.45 139.05 314.4 139 314.35 139 314.3 138.95 314.3 138.95 314.2 138.2 312.15 138.15 311.95 138.05 311.7 137.95 311.3 137.7 310.7 137.6 312 136.85 309.75 137.1 310.05 137.55 310.35
Q 138.0857421875 310.7072265625 138.15 310.85
L 138.05 310.4 137.95 310.1 135.9 296.85 131.35 273.65
Q 131.25 272.4 131.55 272.65 131.7 272.8 131.9 273.15 131.55 271.85 131.3 271.6 131.1 271.2 130.9 270.2 130.85 269.85 131.05 270.05 131.2 270.25 131.3 270.55 131.25 270.35 131.05 269.4 130.9 268.85 130.8 268.85 130.9 269.5 130.65 269.7 130.3 270 130.25 270.1
L 129.7 267.5 130 267.6
Q 130 267.45 129.4 266.4 128.75 265.15 128.55 263.7 128.05 260.9 127.1 257.1
L 125.45 250.55 125.8 251.15 126.3 252.35 125.8 250.35
Q 125.8 250.9 125.5 250 125.05 248.65 125.25 249.45
L 124.4 247.7 124.25 247.25 124.15 247.1 122.15 242.15 122.95 240.85
Q 123.5 239.95 123.9 239
L 124.65 237.3 125.75 233.75 124.85 235.25 125.55 232.6 125.55 232.45 125.6 232.35 125.65 232.45 125.65 232.65 125.8 233.25
Q 126.004296875 233.794921875 126 234.05
L 126.3 233.15 126.35 232.9 126.4 232.8 126.4 232.7 126.45 232.65 126.55 232.25 126.6 232.15 126.65 232 126.7 231.7 126.8 231.4 126.8 231.25 126.85 231.1 127 230.5
Q 127.3 229.2 127.45 227.7 127.65 226.35 127.65 224.4 127.65 222.35 127.4 220.7
L 126.55 216.85
Q 125.95 214.85 125.05 213
L 124.1 211.2 121.25 207 120.65 206.25
Q 119.25 204.6 118.1 203.45 115.9 201.25 112.95 198.95
L 108.6 195.8
Q 106 194.15 105.75 193.95
L 104.9 193.3
Q 104.8 193.15 104.95 193.15
L 105.4 193.2 105.7 193.3
Q 104.9 192.85 103.85 192.45
L 103.65 192.4 103.55 192.4 103.55 192.35 103.45 192.35 102.45 191.8
Q 101.85 191.35 103 191.75
L 101.85 191.1
Q 101.35 190.8 101.3 190.85 101.85 191.3 101.85 191.55
L 101.8 191.8 101.95 192.15 101.75 192.05 99.55 190.65 99.8 190.5 97.3 189.55 95.85 188.6
Q 93.05 186.6 90.25 184.2 87.6 181.9 85.4 179.25 85.5 179.2 86.9 180.5
L 86.6 180.1 86.2 179.7 85.6 178.9
Q 85.8 179.25 85.6 179.15
L 85.45 178.95 85.2 178.7
Q 84.7 178.2 84.75 178.3 83.8 177.5 83 176.4
L 81.7 174.45 81.65 174.3 81.55 174.2 79.75 170.55 79.6 170.3 79.4 169.85 78.45 169.65 74.4 168.3 74.15 168.15 70.6 166.4 70.4 166.25 68.3 165
Q 68.3 164.960546875 68.3 164.9 68.2625 164.9111328125 68.2 164.9
L 68.2 165.65 68.25 166.2 68.6 166.35 68.75 168.1 68.7 168.5 68.9 169.85 68.8 169.8 68.75 169.7 68.4 168.45
Q 68.4 168.4 68.25 167.75
L 68 165.2 68 165.6 68.05 165.95 68.15 168.15 68.35 169.35 68.5 169.8 68.65 170.1
Q 68.85 171 68.65 171.1 68.55 171.1 68.55 171.3
L 68.75 172.35 71.05 177.65 71 177.65 71.3 178.45 72.75 181 77.2 186.8 76.85 186.5 81.1 191.1
Q 80.95 190.85 81 190.85 81 190.65 81.75 191.35
L 86.9 195.9 88.65 196.8 90.4 198.05 98.45 202.85
Q 101.85 204.75 104.4 206.45 107.75 208.8 110 210.95
L 111.55 212.45 114.3 216
Q 115.85 218.45 116.5 221.1 117.05 223.25 116.85 225.65 116.85 226.35 116.65 227.55
L 116.5 228.35 116.4 228.7 116.35 229 116.35 228.75 116.3 228.95 116.3 229.05 116.25 229.1 116.25 229.2 115.75 230.9
Q 115.3 232.2 114.85 233.2 114.3296875 234.4142578125 113.65 235.5 113.559765625 235.45 113.5 235.45
L 113.4 234.25 113.35 233.95 113.35 233.75 113.3 233.45 113.45 235.55 113.5 235.8
Q 113.4701171875 235.8728515625 113.45 235.9
L 113.4 235.6 113.4 235.95
Q 112.8744140625 236.814453125 112.25 237.6 111.6 238.4 110.45 239.35 109.55 240.1 108.3 240.7 106.9 241.4 105.75 241.65 104.45 242 102.8 242.15 101.45 242.3 99.65 242.2
L 97.15 241.95 96.95 241.95 96.75 241.9 96.55 241.9 96.45 241.85 96.35 241.85 95.9 241.75 95.7 241.75 89.2 240.6
Q 86.3748046875 240.0349609375 83.15 239.25 82.4 238.25 82.35 238.25
L 83.8 236.65 82.15 238.35 82.1 238.45 81.8 238.9
Q 81.7427734375 238.884765625 81.65 238.85
L 82.05 238.3 81.6 238.85
Q 79.691796875 238.3345703125 77.45 237.6
L 74.4 236.2
Q 72.5 235.3 71.55 234.7
L 72 235.05
Q 72.1 235.15 72 235.15 71.9 235.25 71.3 234.9
L 70.9 234.6 70.5 234.4 70.35 234.3 70.25 234.2 70 234.05 69.9 233.95 69.75 233.9 69.5 233.7 69.4 233.6 69.2 233.5 68.75 233.2
Q 68.6 233.2 68.2 232.9
L 65.85 231.1
Q 64.15 229.75 62.9 228.6 60.8 226.75 58.95 224.85
L 50.9 216.35
Q 50.5 215.95 50.35 215.7
L 50.05 215.4 48.7 213.7 48.4 213.4 46.9 211.4 43.1 205.2 42.85 204.55 42.8 204.5 42.8 204.4 42.7 204.2 42.6 203.9 42.5 203.7 42.5 203.6 42.25 203 40.25 196.65
Q 39.35 194.45 38.3 190.8 37.4 187.45 36.55 184.9
L 36.75 185.25 34.2 175.35
Q 33.7 172.4 33.6 170.75 33.35 168.1 33.35 166.05 33.3 163.95 33.45 161.7
L 33.45 161.2 33.5 160.95 33.85 157.05 33.85 156.7 33.95 155.7 33.85 156.3 34 154.5 35.2 149.95
Q 35 150.1 35 149.6 34.95 149.4 35 149.1
L 35.45 145.65 35.55 145.75
Q 36 143.2 36.4 141.5
L 36.45 141.15 37.2 138.2 37.25 137.85 37.65 136.6 37.65 136.45 37.7 136.45 37.7 136.3 37.9 136.5 41.4 122.5
Q 41.4541015625 122.169921875 41.5 121.85
L 41.65 122.05 41.9 120.3 41.9 120.1 41.95 119.95 42.1 118 42.1 118.55 42.2 117.55
Q 42.2 117.35 42.25 117.35
L 42.3 118.85 42.6 115.4 42.55 115.25 42.5 115.5 42.45 116.45 42.05 109.85
Q 41.9 108.3 42.05 107.9 42.15 107.8 42.15 107.45
L 42.15 107 42.1 106.95 42.1 106.5 42.05 106.35 42.05 106.2 37.3 82.7 37.25 82.25 36.1 76.1
Q 35.6 72.6 35.2 69.05
L 34.85 64.7 34.85 64.1 34.8 63.9 34.8 61.05 34.85 60.85 34.9 59.4 35.5 54.8 35.5 54.6 36.75 48.8
Q 36.922265625 48.4984375 36.8 49.2
L 38.6 42.95 38.6 42.85 38.65 42.75 38.65 42.8 38.7 42.5 38.9 42 38.9 41.95 38.95 41.9 39 41.8 39.1 41.4 39.15 41.3 39.15 41.25 39.2 41.2 39.85 39.55 42.1 35.1 43 34 43.55 33.55 43.6 33.35 44 32.75
Q 44.85 31.5 45.75 30.35
L 49.55 26.2 54.55 21.9 54.6 21.85 54.6 21.8 56.35 20.5 56.45 20.45 64.1 15.5 64.85 15.15 64.95 14.55 67.4 13.35 69 12.95 71.25 11.95 72.3 11.25 72.6 11.15 74.05 10.5 80.55 8.5 80.85 8.35 80.9 8.35
Q 81.1083984375 8.3314453125 82.15 8.1
L 82.6 8 83 8
Q 83.3 7.95 83.3 8.05 83.55 7.8 83.95 7.75
L 84.4 7.6 86.1 7.3 86.2 7.3 87.25 7.1
Q 87.6 7 87.2 7 86.65 7.05 86.4 7.05
L 87.3 6.85 87.75 6.8 89.55 6.45 89.75 6.45 90 6.4
Q 91.1 6.35 91.2 6.5 91.35 6.6 90.25 6.75
L 95.35 6.4
Q 99.15 6.3 103.05 6.65
L 110.25 7.6 110.4 7.6 110.5 7.65 110.55 7.65 111.55 7.8 111.85 7.9 112.45 8
Q 117.7 9.05 122.15 10.7 127.05 12.65 130.15 15.15
L 132.65 17.5 132.7 17.6 138.65 24.95
Q 139.3 25.85 140.65 28 142.8 31.65 143.35 32.7
L 143.15 32.15 141.4 28.6
Q 141.05 27.95 140.95 27.45
L 142.65 30.15 143.15 31.15 143.7 31.95 143.8 32.5 145.15 35.5 145.25 35.8 145.35 35.95 145.4 36.15 147.2 40.15 147.95 40.75 148.55 42.25 155.15 51.3 157.35 53.65 157.55 53.8 158.15 54.4 158.6 54.75 159 55.15
Q 160.3 56.25 161 56.75
L 167.45 61.45
Q 167.65 61.55 167.7 61.65
M 42.15 117.65
L 42.1 117.95 42.15 117.5 42.15 117.65
M 53.25 233.6
Q 52.95 233.3 52.75 232.9 53.7 233.6 54.35 234.35
L 55.4 235.25
Q 55.5 235.6 55.95 236.05
L 57 237.15
Q 58.7 238.75 59.05 239.4
L 59.7 239.55 60.3 240.3 62.95 242.25 63 242.25 63.15 242.4 63.3 242.45 63.95 242.95 64.15 243.05 64.25 243.15 64.3 243.15 64.65 243.35 64.9 243.6 65.5 243.95 65.95 244.3 68.75 245.85 69.55 246.15
Q 69.85 246.35 70.25 246.45
L 70.9 246.75 73.75 247.65
Q 76.36640625 248.4443359375 77.15 248.75 75.6974609375 248.1111328125 77.15 248.45 77.15 248.4892578125 77.15 248.5
L 77.15 248.75 77.05 249.7
Q 76.9 251.6 76.2 253.2
L 76.2 252.85 75.55 254.8
Q 75.2 256.3 74.7 257.25 74.95 256.85 75.05 256.8 75.2 256.8 75 257.5 74.6 258.4 74.5 258.8
L 74.1 259.95
Q 73.35 261.8 73.25 262
L 73.05 263.45 72.35 265.3 72.3 265.55 72.2 265.75 69.25 273.25 69.15 273.6 62.05 288.35
Q 60.1 292.35 59.3 294.2 58.65 295.6 57.15 299.2
L 55.75 302.9 55.8 302.6 53.55 310.6 53.1 313.65 53.05 313.85 52.5 319.35 52.3 320.3 52.15 320.6 45.4 322 45.25 322.05 45.05 322.05 44.7 322.1 44.6 322.15 44.4 322.15 43.75 322.25 43.45 322.25 43.15 322.3
Q 40.1 322.55 38.3 322.5
L 36.45 322.45 36.25 322.4 36 322.4 35.7 322.35 35.35 322.35 35.15 322.3 34.95 322.3 34.8 322.25 34.6 322.25
Q 34.25 322.05 32.95 321.45
L 32.15 321 32 320.9 31.95 320.85 31.9 320.85 31.8 320.75 31.65 320.65 31.5 320.5
Q 31.75 320.8 31.65 320.9
L 31.5 320.9 31.25 320.75 31 320.55 30.95 320.55 30.2 319.85 30.1 319.8
Q 29.95 319.65 29.85 319.65 29.75 319.65 29.55 319.45
L 29 318.9 28.85 318.7 28.8 318.6 28.7 318.45 28.6 318.35 27.9 317.15 27.85 317.1 27.75 316.8 27.6 316.5 27.55 316.35 27.45 316.2 27.1 315.15 27.05 315.05 27.05 314.95 26.95 314.65 25.75 308.9 25.75 308.5 25.7 308.5 25.7 308.45 25.75 308.45 25.75 308.3 25.8 308.05 25.85 307.9 25.85 307.75 25.9 307.45 26 307.15 26.05 306.85 31.6 288 31.65 287.95 31.65 287.9 31.7 287.8 31.7 287.7 32.1 286.45 34.25 276.35 34.3 276.65 37.15 264.1
Q 37.75 261.3 37.95 259.95
L 39.4 251 39.25 251.5
Q 39.45 249.4 39.75 248.45 40.2 247.15 40.45 246 40.1 246.2 40.1 244.65
L 40.2 242.25 40.3 242.3 40.55 238.65
Q 40.6 236.7 40.9 234.15
L 41.1 234.25 42.4 222.55
Q 43.3400390625 223.6560546875 44.45 224.9
L 48.85 229.6
Q 49.55 230.35 52.6 233.4
L 55.25 235.9 53.25 233.6 Z"/>
</g>
</defs>

<g id="walk6">
<g transform="matrix( 0.6996917724609375, 0, 0, 0.6996917724609375, 57.25,20.7) ">
<g id="walk">
<g transform="matrix( 1, 0, 0, 1, 0,0) ">
<use xlink:href="#walk_0_Layer0_0_FILL"/>
</g>
</g>
</g>
</g>
</svg>
