
<svg xmlns="http://www.w3.org/2000/svg" version="1.1" xmlns:xlink="http://www.w3.org/1999/xlink" preserveAspectRatio="none" x="0px" y="0px" width="256px" height="256px" viewBox="0 0 256 256">
<defs>
<g id="walk_2_Layer0_0_FILL">
<path fill="#FFFFFF" stroke="none" d="
M 60.2 -6.45
Q 56.35 -4.4 53.15 -2.2
L 47.7 1.6 47.5 1.8 47.35 1.9 47.25 2 45.85 3.05
Q 41.85 6.4 39.05 9.45 36.2 12.45 33.65 16.25 32.45 18 31.6 19.5
L 28.6 25.9 27.9 28 27.8 28.2 27.65 28.65 27.6 28.9 27.55 28.95 27.55 29.05 27.5 29.15 24.7 37.45
Q 24.85 37.4 24.85 37.5
L 24.85 38.1 23.95 45.5 23.85 45.4 23.6 48.95 23.55 49.25 23.65 55.05 23.7 55.15 24.6 63.4 24.3 63.25
Q 24.75 65.65 25.95 72.4
L 32 100 32 100.15 32.05 100.2 32.05 100.25 33.8 109.2 33.85 109.6 33.85 109.8 33.9 110 34.25 113.95 34.25 114.35 34.3 114.55 34.1 116.05 33.3 119.1 33.15 119.45 33.05 119.85 32.45 121.35 30.2 125.8 28.8 127.95 28.7 128.15 28.55 128.3 28.35 128.65 26.55 131.15 26.25 131.5 21.6 137.85
Q 21.45 138 21.5 137.85 21.65 137.65 21.7 137.5
L 19.2 141.5
Q 17.7 143.9 17 145.4 16.9 145.6 16.05 146.4
L 15.85 146.95 15.05 148.55
Q 13.75 151.2 12.6 153.85 11.3 156.85 10.4 159.45
L 9.5 162.15 9.8 162.5
Q 9.5 163.65 9.3 164 9.2 164.3 9.05 164.45 8.75 164.85 8.4 166.3
L 8.45 166.9 7.65 170.8 7.65 171 7.6 171.15
Q 7.45 172 7.5 172.3 7.45 172.3 7.3 172.95 7.1 173.6 7.05 173.55 7.25 174.05 6.8 175.9 6.85 176.1 6.9 175.9 7 175.6 7.05 175.45
L 6.85 177.5
Q 6.7 178.1 6.6 178.15 6.5 178.2 6.55 177.55
L 4.75 190.45 4.75 190.85 4.55 193.1 4.55 193.9 4.5 194.3 4.55 198.8 4.65 199.65 4.65 200.05 5 202.85
Q 5.55 206 6.2 208.5 6.7 210.55 7.45 212.95
L 8.45 215.95
Q 8.45 215.6 8.1 214.3 7.75 213.1 7.85 212.65 8.2 213.35 8.5 214.4 8.7 215.15 8.95 215.45
L 8.9 215.85 8.9 216.1 9.25 217.35 9.25 217.45 9.3 217.55 9.75 218.95
Q 9.95 219.85 9.9 220.15
L 10.4 220.45 10.5 221.25 14.65 229.55 17.85 234 18.25 234.65
Q 18.05 234.25 18.05 234.1 17.85 233.7 18.4 234.35 18.3 234.45 18.6 234.8
L 19.75 236.15 19.95 236.35 20.1 236.55 20.15 236.65 20.25 236.75 20.35 237 22.15 238.8 22.9 239.35
Q 23.15 239.45 22.95 239.1
L 23.15 239.4 24.15 240.45
Q 25.15 241.3 24.05 240.6 25.55 241.9 26.2 242.2
L 25.2 241.4 26.2 242.05 26.6 242.4 27.05 242.65 29.25 244.1 29.6 244.25 29.9 244.45 31.35 245 30.35 244.35 32.6 245.5
Q 33.6 245.95 34 246.45
L 32.2 245.75 35.85 247.3
Q 36.85 247.65 39.2 248.35
L 38.35 248.05
Q 38.454296875 248.0759765625 39.6 248.35 39.66015625 248.52109375 39.7 248.7
L 40 249.7 40.85 251.3 41 251.65 41.2 251.95 41.8 253.2
Q 42.5 254.45 43 255.65
L 43.15 255.95 43.8 257.65 43.9 257.8 44.75 260.5
Q 45.15 262.1 45.25 262.85 45.4 263.55 45.5 265.05 45.5 266.45 45.4 267.1 45.35 267.95 45 268.95 44.9 269.05 44.9 268.75
L 44.85 269.05 44.85 269.1 44.8 269.15 44.8 269.3 44.75 269.45 44.7 269.5 44.7 269.55 44.55 269.9 44.55 269.95 44.5 270.05 44.45 270.2 44.25 270.55 44.25 270.6 44.2 270.65 42.55 273.85 42.05 274.35 41.7 274.55
Q 41.95 274.4 40.9 276.1
L 36.4 283.15 35.2 284.65 35.5 285.05 35.4 285.2 35.25 285.35 35.2 285.45 35.1 285.6 35.05 285.65 35 285.65 35 285.7 34.65 286.05 34.55 286.2 34.45 286.3
Q 34.1 286.65 33.95 286.7
L 33.55 287.05
Q 33.1 287.6 32.7 288.55
L 32.45 289.65 31.55 292.05
Q 31.15 293.2 31 294.05 30.75 294.95 30.85 295.45
L 30.7 296.25
Q 30.5 297.05 30.45 297 30.6 297.25 30.6 298.15
L 30.55 299.3 30.6 299.7
Q 30.7 299.9 30.7 299.65
L 30.8 299.15 31.15 301.4 31.1 301.9 31 302.15
Q 30.95 302.2 30.9 302.05
L 30.75 301.6 31.4 305.35 31.45 305.4 31.45 305.55 31.5 305.65 31.7 306.45 31.75 306.6 31.75 306.75 32.05 307.6 32.1 307.9 32.4 308.75
Q 33.05 310.8 34.4 313.65 35.75 316.25 37.3 318.55 38.85 320.8 40.8 323
L 41.7 324 41.8 324.05 41.8 324.1 41.85 324.1 41.85 324.15 42.3 324.6 42.4 324.65 43.65 325.9 44.2 326.35 44.45 326.6 46.85 328.4
Q 48.55 329.4 49.05 329.65
L 51.1 330.55 52.85 331.05 50.25 329.9 49.75 329.6
Q 49.35 329.35 49.1 329
L 51.2 329.85
Q 51.5 330 51.6 330
L 51.95 330.15 52.3 330.25 52.65 330.25 53 330.55 53.65 330.85 54.9 331.15 55.15 331.15 55.4 331.2 59.1 331.55 59.7 331.1 60.85 331.1 61.65 330.8 62.05 330.7 62.1 330.65 62.25 330.6 62.3 330.6 64.9 329.4 65.55 329.2 67.9 328.2
Q 69.15 327.55 71.1 326.15
L 72.75 325 73.3 324.7
Q 72.4 325 73 324.5 73.15 324.55 73.4 324.4
L 74.65 323.45
Q 75 323.2 75.2 323.25
L 76.05 322.6 76.1 322.6 76.2 322.5 76.3 322.45 76.8 322 76.95 321.9 77.1 321.65
Q 77.3171875 321.4328125 77 321.45 77.2912109375 321.3947265625 78.1 320.95 78.8 320.65 78.25 321.15 79.45 320.4 79.85 319.95
L 79 320.4 81.55 318.55
Q 82.8 317.65 83.45 316.75
L 82.55 317.25 84.2 315.75 84.95 315.2 85.65 314.9 85 315.6 84.85 315.8 84.4 316.3 86.35 314.25 86.35 314.2 86.4 314.2 86.5 314.05 88.2 311.9 87.75 312.3 89.1 310.65 93.55 306.15 93.65 306 93.7 306 93.85 305.85 93.9 305.75 94.15 305.5 94.35 305.35 94.8 304.9 94.8 304.85 95.3 304.3 95.35 304.2 95.5 304.05 96.05 303.35
Q 96.3 303.0125 96.5 302.65
L 96.05 308.45 96 308.1 95.8 315.55 95.85 315.6 95.85 316.2 95.9 316.45 95.9 316.75 96 317.5 96 317.6 96.05 317.65 96.05 317.85 96.1 317.95
Q 96.15 318.3 96.1 318.15
L 96.1 318.2 96.15 318.25 96.45 319.65
Q 96.8 320.85 97.2 321.8 98.05 323.9 99.4 325.85
L 99.75 326.3 99.8 326.4 100.1 326.8 100.2 326.9 100.25 327 100.3 327 100.4 327.2 100.55 327.35 100.65 327.5 100.7 327.5 100.75 327.6 101.7 328.6 101.9 328.85 102.15 329.05 102.6 329.5 103.85 330.5 103.95 330.55 104.75 331.1 104.85 331.2 105.4 331.5 105.5 331.6 105.65 331.65 106.3 332.05 106.45 332.1 106.95 332.4 107.25 332.5 109.65 333.55 109.9 333.6 111.4 334.1 111.55 334.1 113.05 334.5 113.15 334.5 113.35 334.55 113.45 334.55 113.7 334.65 113.95 334.7 114.25 334.7 115.25 334.9 122.7 335.35
Q 123.3 335.35 123.55 335.4
L 124.85 335.4 125.25 335.35 126.1 335.35
Q 129.65 335.35 132.6 335
L 134.6 334.75 134.95 334.65 135.15 334.65 135.6 334.55 135.7 334.55 135.8 334.5 136.1 334.45 136.2 334.45 136.35 334.4 136.45 334.4 138.85 333.7
Q 140.9 333.35 142.9 332.35 144.3 331.65 145 331.2
L 146.4 330.25 146.45 330.2 146.5 330.2 146.5 330.15 146.45 330.15 146.4 330.2 146.15 330.35
Q 145.95 330.4 145.95 330.35 145.95 330.2 146.2 330.05
L 146.3 329.95 146.85 329.5 147.1 329.25 147.3 329.1 147.35 329.05 147.4 329.05 147.5 328.9 147.65 328.8 149.4 326.95 149.7 326.55 149.75 326.4 149.85 326.2 150.85 324.65
Q 151.75 323.15 152.05 322.55
L 152.3 322.1 153.35 319.25 153.4 319.15 153.4 319.1 153.75 317.9 153.75 317.7 153.8 317.65 153.8 317.55 153.95 316.9 153.95 316.75 154 316.55 158.5 280.8
Q 158.45 279 158.8 275.4 159.25 271.45 159.25 270.05
L 159.35 270.35
Q 159.5 268.05 160.9 256.9
L 162.3 243 162.2 243.55
Q 162.2244140625 242.66875 162.3 241.9
L 164.4 242.35
Q 164.1 242.2 164.05 242.1 164 242 164.5 242.05
L 166.35 242.4 166.9 242.4 167.2 242.45 167.45 242.45 169 242.6 170.3 242.25
Q 171.8 242.15 173.65 241.75
L 175.8 241.15 178.15 240.15
Q 179.3 239.65 180.5 238.85
L 182.25 237.65 182.5 237.4 182.8 237.2 184.4 235.8 184.5 235.65 184.65 235.55 186.3 233.75 186.45 233.65 188.7 230.65 188.75 230.55 188.8 230.55 188.8 230.5 191 226.9 191.1 226.65 192.05 224.9
Q 193.2 222.35 193.6 221.15
L 194.5 218.35 194.45 218.6
Q 195 216.6 195.25 214.8
L 195.4 212.55
Q 195.5 211.35 195.4 210.05 195.3 208.75 195.1 207.5
L 194.9 206.5 194.85 206.35 194.85 206.15 194.65 205.45 194.65 205.35 194.6 205.3 194.55 205.15 194.45 204.7 191.75 196.65
Q 191.15 195.15 190.95 194.7
L 187.3 186.3
Q 187.15 185.45 185.85 182.4 186 182.9 185.9 182.9 185.75 182.85 185.6 182.45
L 184.85 180.9 184.4 180.35 183.6 178.85
Q 183.05 177.9 181.2 174.2
L 172.55 156.6
Q 171.85 155.65 170.85 153.7 169.75 151.45 169.3 150.75
L 169.45 150.9
Q 169.05 150.25 165.75 143.4
L 162.4 136.5 162.2 136.2 161.95 135.7 162.05 136
Q 161.4 134.9 161.2 134.25 160.85 133.05 160.7 132.65 160.55 133 159.95 132.1
L 159.1 130.8 159.2 130.8 157.65 128.25 151.1 108.9 150.95 108.55 150.95 108.45 150.9 108.4 150.8 108.05 150.8 108 150.7 107.65 150.7 107.65 150.7 107.6 150.7 107.65 150.75 107.65 150.55 106.75 150.25 104.45 150.25 101.3 150.3 101.1 150.3 100.85 150.6 99.45 150.7 99.25 150.95 98.5 151.4 97.6 151.5 97.45 151.55 97.35 151.55 97.3 151.6 97.25 151.7 97.1 151.7 97 151.75 97 151.8 97 151.9 96.85 152 96.65 153.4 95.25
Q 155 94 157.2 93.1
L 157.55 92.95 157.6 92.9 159.6 92.2 168.65 89.8
Q 170.4 89.45 172.1 88.9
L 177.7 87 177.8 86.95 177.95 86.9 178.4 86.7 178.45 86.65 178.55 86.65 178.7 86.55 179.1 86.4 179.15 86.35 179.2 86.35 180.45 85.7 180.6 85.6 180.85 85.5 183.65 83.65 185 82.5
Q 186.15 81.45 186.65 80.85
L 187.45 79.9 187.55 79.8 187.6 79.7 188 79.2 188.05 79.05 188.15 78.95 188.5 78.45 188.55 78.3 188.65 78.2 188.95 77.65 189.05 77.55 189.1 77.45 189.15 77.4 189.45 76.75 189.55 76.6 189.55 76.55 189.6 76.5 189.7 76.35 189.75 76.15 190 75.65 190.8 73.4 191.4 70.55 191.4 70.25 191.5 69.4 191.5 69.1 191.55 68.8 191.45 65.45 190.95 62.6 190.9 62.45 190.9 62.3 190.75 61.75 190.65 61.5 190.4 60.65 190.35 60.4 190.05 59.5
Q 189.4 57.65 188.5 55.95 187.45 54 186.6 52.8 185.4 51.1 184.45 49.95
L 184.3 49.8 184.15 49.6 183.7 49.15 183.6 49 183.15 48.55 183.05 48.4 182.75 48.1 166.2 34.05 166.05 33.95 165.3 33.05 165.6 33.5 165.65 33.6 165.8 33.75
Q 165.95 33.95 165.85 33.95
L 165.5 33.7 161.65 28.95 161.45 28.8 161.3 28.65 158.25 24.05 151.8 12.6
Q 151.7 12.55 151.6 12.35
L 150.15 10.05 150 9.75 149.8 9.5
Q 148.25 7.15 146.4 4.7 144.4 2.05 142.45 -0.05
L 140.8 -1.85 140.25 -2.35 140.15 -2.5 140.1 -2.55
Q 140.05 -2.6 140 -2.65
L 139.9 -2.7 139.45 -3.2 137.55 -4.8
Q 136 -6 134.65 -6.9
L 131.65 -8.7
Q 128.85 -10.2 125.45 -11.45
L 114.75 -14.45 107.75 -15.6
Q 103 -16.25 98.05 -16.35
L 94.85 -16.35 94.65 -16.3 90.6 -16.1 88.6 -15.8 88.4 -15.75 88.25 -15.75 78.15 -13.7 78.1 -13.7 69.4 -10.7 70 -11.05 66.15 -9.4
Q 62.2 -7.55 60.2 -6.45
M 80.7 -2.5
L 80.8 -2.55 81 -2.55 82.8 -2.9
Q 83.15 -2.9 83.1 -2.85
L 84.25 -3.3 87.15 -3.8
Q 87.5 -3.9 87.1 -3.9 86.5 -3.85 86.25 -3.85
L 89.65 -4.5 89.75 -4.5 89.9 -4.55
Q 91.05 -4.55 91.15 -4.45 91.3 -4.35 90.15 -4.2
L 91.15 -4.3 91.45 -4.3 91.7 -4.35 95.3 -4.55
Q 99.15 -4.65 103.1 -4.3
L 104.2 -4.15 104.65 -4.15 104.75 -4.1 110.4 -3.3 117.6 -1.65 122.4 0
Q 124.6 0.8 126.75 2.05 128.55 3 130.4 4.6 131.3 5.35 131.9 6
L 132.8 6.9 133.15 7.35 133.55 7.75 137.1 12.2 140.85 17.95
Q 142.15 20.05 143.55 22.75
L 141.15 17.35 143.95 21.95
Q 143.9 22.2 144.05 22.6
L 144.3 23.4 144.6 24 144.6 24.1 144.65 24.1 144.65 24.2 144.8 24.45 146.85 28.8 147.05 29.4
Q 147.35 30.1 147.4 30.4
L 148.2 31 148.8 32.5 151.2 36.1 151.4 36.45 152.05 37.3 152.2 37.55 152.4 37.75 156.45 42.8 156.9 43.25 156.95 43.35 157.4 43.75 157.75 44.15 159.15 45.45 159.4 45.65
Q 160.5 46.55 163.1 48.6
L 170.35 54.1 169.7 53.4
Q 169.6 53.25 169.75 53.3 169.85 53.3 170.35 53.7 170.35 53.85 172.05 55.25
L 173.45 56.5 173.75 56.9 173.8 57.05 173.9 57.15 173.95 57.15 173.95 57.2 174.55 57.8 174.65 57.95 174.8 58.1 176.25 59.95 176.45 60.15 176.55 60.3
Q 176.85 60.6 176.7 60.05
L 176.9 60.55 176.95 60.65 177.5 62.1 177.6 62.3 177.65 62.5 177.65 62.75 177.55 62.65 177.45 62.5 177.3 62.2 177.9 63.8 177.95 63.9 177.95 64 178 64.2 178.05 64.3 178.05 64.35 178.1 64.4 178.15 64.55 178.2 64.8 178.3 65.05 178.35 65.25 178.35 65 178.3 64.95 178.2 64.4 178.2 64.3 178.1 63.9 178.15 64.05 178.25 64.25 178.25 64.35 178.4 64.85 178.45 64.95 178.45 65 178.5 65.15 178.5 65.35 178.55 65.35 178.55 65.4 178.6 65.7 178.6 65.85 178.65 66 178.7 66.25 178.7 66.65 178.75 66.75 178.75 67.9 178.7 68.1 178.5 69.55 178.5 69.65 178.45 69.75 178.45 69.9 178.4 70 178.4 70.05 178.35 70.25 178.35 70.35 178.3 70.4 178.25 70.6 178.25 70.7 178.3 70.6 178.35 70.45 178.4 70.4 178.3 70.6 178.2 70.9 178.45 70.45 178.35 70.7 178.4 70.65 178.4 70.6 178.5 70.5 178.55 70.4 178.55 70.35 178.65 70.25 178.75 69.95 178.75 70.1 178.7 70.15 178.55 70.55 178.55 70.55 178.55 70.6 178.5 70.75 178.55 70.65 178.5 70.8 178.5 70.75 178.35 71.05 178.3 71.1 178.3 71.15 177.7 72
Q 176.9 72.9 176.25 72.95
L 176.35 72.85 176.4 72.85 176.45 72.8 176.6 72.6 176.65 72.55 176.65 72.5 176.75 72.4 176.85 72.35 176.85 72.3 176.9 72.25 177.05 72.05 177.1 71.95 177.15 71.9 177.4 71.5 176.6 72.5 176.4 72.65 176.2 72.85 176 73
Q 175.7 73.25 174.3 74.2
L 174.05 74.3 173.9 74.4 173.85 74.4 173.85 74.45 173.3 74.7 173.25 74.75 173.2 74.75 173.05 74.8 172.9 74.9 172.8 74.95 172.5 75.05 172.35 75.15 172.2 75.2
Q 170.55 75.85 169.55 76.25
L 153.55 81.2 153 81.45 152.7 81.55 152.05 81.85 151.9 81.95 148.75 83.6 146.95 84.8 144.55 86.8 142.5 89.15 142.3 89.35 142.15 89.6 141.95 89.85 141.9 89.95 141.85 90 141.85 90.05 141.75 90.15 140.9 91.5 140.55 92.25 140.4 92.45 139 96.3 138.45 99.35 138.45 99.55 138.4 99.75
Q 138.3 100.8 138.3 102.6 138.35 104.55 138.7 106.4
L 138.9 103.4
Q 139.05 106.15 139.75 108.8
L 139.45 108.15 138.9 107.3 138.3 106.05 138.25 105.8 138.9 109.85 138.95 110.05 138.95 110.25 139.05 110.6 139.05 110.65 139.1 110.75 139.15 110.9 139.2 111.2 139.25 111.35 139.3 111.45 147.4 135.95
Q 148.4 139.55 148.8 141.4
L 150.25 148.15 150.35 148.5 152.1 167.15 152.15 170.45
Q 152.25 174.8 152.2 175.75 152.15 178.05 151.85 177.45
L 151.6 176.35
Q 151.7 178.95 151.85 179.5
L 151.95 180.25 151.95 182.1
Q 151.9 182.75 151.75 182.3 151.65 181.9 151.6 181.3 151.6 182.05 151.55 183.5 151.5 184.5 151.6 184.6
L 151.8 183.55
Q 151.85 183.25 152.05 183.15 152.2 183.05 152.3 182.95 152.45 182.85 152.55 182.55
L 152.3 187.4 152.05 187.15
Q 152 187.4 152.1 188.15
L 152.35 191.9
Q 152.35 193.85 152.25 195.15
L 151.95 201.35 152 201.45 151.85 205.4
Q 151.8 205.697265625 151.8 206.2
L 151.25 220.75
Q 151.05 220.55 151.05 217.1 150.9 220.2 150.8 220.95 151 219.85 150.95 221.75 150.9 223.5 151 222.9 151.1 224.45 151.1 227.75
L 150.9 237.85
Q 150.884375 237.9078125 150.85 237.95
L 150.5 238.5 150.1 238.3 149.15 237.7 149.4 237.95 149.95 238.3 150.2 238.5 150.3 238.5 150.35 238.55 150.5 238.6 150.75 238.75
Q 150.762890625 238.8306640625 150.75 238.9 150.40625 241.5533203125 149.9 245.3 149.65 246.1 149.35 246.5
L 149.1 248.85
Q 148.9 250.35 148.3 254.45
L 147.3 262.9 147.75 263.2
Q 147.6 264.8 147.25 265.15 147 265.5 146.9 266.95 147.2 267.7 146.8 270 146.4 272.4 146.5 272.9 146.3 274.3 146.1 274.15 146.4 274.65 146 276.55 146.05 276.75 146.1 276.55 146.3 276.15 146.3 276.1
L 146.2 278.2
Q 146.05 278.8 145.9 278.85 145.75 278.9 145.8 278.25
L 141.65 311.95 141.55 312.4 141.55 312.6 141.5 312.8 141.2 314.6 141.35 314.35
Q 141.4 314.35 141.4 314.2
L 141.6 313.7 141.6 313.6 141.65 313.5 141.9 312.45
Q 142.05 312.05 142.25 311.85
L 142.25 312.4 141.95 314.05 141.95 314.5 141.75 314.7 141.65 314.85 141.6 314.95 141.55 315 141.5 315.1 141.45 315.25 141.45 315.15 141.35 315.45 141.3 315.55 141.25 315.6 141.25 315.65 141.2 315.7 141.15 315.85 140.95 316.15 140.7 316.4 140.4 316.5 140.6 316.9 140.2 317.1 139.65 318.1 139.2 318.7 138.95 318.95 138.85 319.1 138.7 319.2
Q 138.725 319.175 138.75 319.15
L 138.7 319.15 138.5 319.35 138.35 319.45 138.3 319.5 138.2 319.5 138.1 319.6 135.75 321 135.1 321.3 134.85 321.45 134.6 321.55 134.4 321.6 134.15 321.7 133.9 321.75 133.8 321.8 133.75 321.8 133.55 321.85 133.2 321.85
Q 133.40703125 321.8546875 133.55 321.95 133.75 322 133.35 322.15
L 133.25 322.1 133 322.1 132.85 322.15 132.7 322.15 132.35 322.25 131.55 322.4 131.05 322.35 129.2 322.5
Q 128.1 322.65 128.6 322.9 128.45 322.85 127.2 322.7
L 126.75 322.6
Q 126.65 322.5 127.15 322.45
L 125.45 322.4 124.95 322.45 125.5 322.55 125.9 322.55 125.9 322.6 124.6 322.6 124.2 322.55 122.65 322.5
Q 121.25 322.35 120.1 322.55
L 121.05 322.8
Q 118.25 322.7 117.7 322.1
L 118.05 322.15 119.2 322.15
Q 118.4 322.1 116.25 321.8
L 116.1 321.8 115.7 321.75 115.35 321.65 115.1 321.65 115 321.6 114.85 321.6 113.95 321.4 114.4 321.55 114.5 321.6 114.3 321.6 113.7 321.45 113.55 321.45 113.4 321.4
Q 112.5 321.1 111.9 320.8
L 111.5 320.6 111.15 320.35 110.95 320.25 110.8 320.1 110.6 320 109.75 319.15 109.6 318.9 109.4 318.7 109.1 318.25
Q 108.45 317.25 108.15 316.4
L 107.9 315.6 107.9 315.55 107.85 315.5 107.85 315.45 107.8 315.15 107.8 314.9 107.75 314.6 107.75 314.3 107.7 314 107.7 313.7 107.65 313.45 107.65 312.9 107.45 310.85 107.05 312.05 106.9 309.7
Q 106.9037109375 309.8544921875 107.4 310.45 107.8095703125 310.9416015625 107.85 311.05
L 107.85 310.3 111.25 274.35
Q 111.45 273.15 111.7 273.5 111.8 273.65 111.9 274.1 111.95 272.95 111.8 272.4 111.7 272.05 111.8 271 111.9 270.4 112.1 271.45 112.3 269.8 112.15 269.7 112.05 270.35 111.75 270.45 111.3 270.65 111.2 270.75
L 111.45 268.15 111.75 268.3
Q 111.6 267.65 111.5 267 111.25 265.95 111.5 264.25 111.85 261.2 112.1 257.65
L 112.45 251.05
Q 112.55 251.1 112.65 251.7
L 112.75 252.95 112.9 251
Q 112.7 251.65 112.7 250.55 112.7 249.55 112.6 249.95
L 112.35 248.05 112.35 247.6 112.3 247.4 111.7 239.85 111.15 239.25 110.95 238.8 110.9 238.65 109.75 236.85 109.75 236.8 109.7 236.8
Q 109.7103515625 236.8310546875 109.7 236.85
L 109.7 236.85 109.65 236.7 109.35 236.25 109.3 236.1 109.2 236 108.65 235.2 108.7 235.25 108.65 235.15 108.55 235 108.4 234.85 108.35 234.75 107.4 233.8 107.1 233.6 107.05 233.55 106.95 233.5
Q 106.75 233.3 106.6 233.25
L 106.5 233.2 106.4 233.1 105.95 232.85 105.9 232.85 105.4 232.6 105.25 232.55 105.15 232.55 105.1 232.5 104.35 232.3 104.05 232.25 103.95 232.25
Q 101.15 232 100.25 232.2 100.2 232 100 231.95 99.8 231.9 99.7 231.85 99.75 231.9 99.75 232.05 99.75 232.15 99.65 232.15 99.4 232.1 99.35 232.2 99.35 232.4 99.05 232.4
L 98.55 232.35 98.5 232.35 97.15 232.5
Q 96.15 232.7 95.4 233.05 94.4 233.5 93.9 233.95
L 93.25 234.45 92.35 235.4 92.25 235.55 91.8 236.1 91.15 237.15 90.75 237.95 90.1 237.95 90.3 236.05 90.05 238 90.05 238.35 90.1 238.7 90.35 238.7
Q 90.45 239.5 90.35 239.8
L 90.3 240.05 90.3 240.35 90.4 240.85
Q 90.3 240.95 90.2 240.75
L 90.1 240.3 90.05 240.25 89.95 238.15 89.9 240.4 89.95 240.7
Q 90.05 241.05 90.15 241.1
L 90.1 241.65 90 241.75 89.95 241.9
Q 89.9 242.05 89.95 242.5
L 90.45 243.95
Q 90.56640625 244.3380859375 90.8 245 90.7482421875 245.1708984375 90.65 245.4
L 90.9 245.35
Q 90.933203125 245.40234375 90.95 245.45
L 90.9 245.45 91 245.9 91.15 246.3 91.35 246.65 91.4 246.85 92.65 248.8 92.75 249.05 92.45 249.45 92.55 249.45 92.85 249.3 93.25 250.1 93.4 250.9 93.25 250.7 93.4 251.4 94.15 253.75 94.2 254 94.25 253.8
Q 94.4 253.7 94.55 254.25
L 95.15 257.2 95.2 257.6 95.2 258.05 95.55 258.8 95.7 259.05 96.15 262.15 96.2 263.05 96.25 263.25 96.35 265.5
Q 96.45 267.8 96.3 269.85
L 95.95 272.45 95.95 272.6 95.9 272.75 95.8 273.35 95.75 273.5 95.75 273.6 95.7 273.9 95.55 274.4 95.55 274.55 95.3 275.45 95.3 275.5 94.05 279.55
Q 93.35 281.9 92.45 284.3 91.65 286.65 90.95 288.1
L 89.8 290.65 89.85 290.45 88.45 293.05 86.15 296.2 77.45 304.45 77.35 304.6 77.05 304.9 76.75 305.3 76.6 305.45 76.5 305.6 76.35 305.7 76.3 305.8 76.2 305.95 76.1 306 76.05 306.1 75 307.15 68.8 312.05 68.65 312.2 64.65 314.85
Q 63.85 315.1 62.55 315.75 61.05 316.45 60.4 316.65 60.95 316.5 60.9 316.65 60.9 316.8 60.45 317
L 59.8 317.3
Q 59.45 317.45 59.35 317.5
L 58.75 317.75 58.5 317.95 58.1 318.2 57.9 318.3 57.8 318.3 57.8 318.3 57.75 318.35
Q 57.6 318.5 57.3 318.5 56.85 318.7 56.3 318.55
L 55.45 318.3 54.4 317.8 53.1 316.9 52.1 316 51.9 315.85 51.85 315.75 51.75 315.7 51.55 315.5 51.55 315.45 51.5 315.45 51.4 315.35 51.2 315.1 51.15 315.05 51.1 315.05 49.95 313.7 49.75 313.5 49.25 312.9 49.05 312.7 48.9 312.45
Q 47.55 310.7 46.6 308.95
L 46.55 308.85 46.45 308.75 46.1 308.1 44.45 304 44.45 303.9 44.4 303.8 44.25 303.35 44.25 303.2 44.2 303.15 44.2 303 44 302.2 43.95 302.1 43.95 301.95 43.85 301.45 43.8 301.3 43.8 301.2 43.7 300.6
Q 43.5 300.1 43.3 299.1
L 43.25 297.6 43.65 295.05 43.7 295.2
Q 44 294.1 44.85 293.05
L 45.85 291.8
Q 46.25 291.35 46.95 290.35
L 50.6 284.7
Q 50.75 284.55 51.05 283.9
L 54.35 277.4 54.4 277.25 54.45 277.2 54.7 276.65 54.45 277.05
Q 54.6 276.45 54.8 276.15
L 54.85 276 54.85 275.95 54.9 275.95 54.9 275.85 56.25 273.15 56.8 271.5
Q 56.65 271.65 56.55 271.15
L 56.55 267.4 56.65 267.45 56.65 266.65 56.6 266.2 56.6 265.95 55.65 261.25 55.55 261 55.5 260.7 55 259.15 55.25 259.2 53.9 255.8 53.65 255.3
Q 52.8 253.15 52.1 252
L 51.2 250.25
Q 52.83359375 250.232421875 54.5 250 56.35 249.8 58.35 249.1 60.05 248.55 61.35 247.8
L 61.9 247.5 63.05 246.65 61.5 247.15 63.3 245.9 63.9 245.4
Q 63.8 245.5 63.45 246.35 63.0306640625 247.048828125 62.9 247.15
L 63.5 246.75 63.7 246.65 66.3 244.6 68.15 242.75 68.6 242.2 68.85 241.95 69.25 241.35 69.4 241.2 71.05 238.7 71.1 238.65 71.2 238.45 71.55 237.9 71.55 237.8 71.6 237.8 71.6 237.7 71.75 237.5 72.1 236.8 72.1 236.75 72.15 236.7 72.65 235.55
Q 74.05 232.45 74.45 228.6
L 74.5 228.1 74.5 227.9 74.55 227.8 74.55 224.95
Q 74.4 223.2 74.1 221.45 73.65 219.4 73.25 218.3
L 72.25 215.55 72.15 215.4 72.1 215.25 71.25 213.45 71.2 213.3 68.25 208.15 68.15 207.85
Q 68.05 207.6 68.25 207.7
L 68.6 207.9 68.8 208.1 68 207.1 67.6 206.75 66.7 205.75
Q 66.55 205.4 66.8 205.55 67 205.65 67.2 205.9
L 66.5 204.95
Q 66.35 204.65 66.2 204.65
L 66.35 205.1 66.3 205.35
Q 66.15 205.85 66.15 205.9
L 65.85 205.5 65.85 205.45 65.8 205.45 65.8 205.4 65.5 205 64.95 204.1 65.2 204.05 63.75 202.6 63.45 202.1 62.6 200.2 61.55 196.95 61.4 196.25
Q 60.75 193.4 60.75 190.8 60.9 190.95 60.95 191.35
L 61.15 192.35 61.1 191.1 61.15 190.7
Q 60.95 191.3 60.95 190.4
L 60.75 189.4 60.65 187.2 60.75 186.35 60.75 186.05 61.25 183 61.25 182.9 61.3 182.75 61.5 181.25 60.3 180.2 54.2 173.2
Q 54.0181640625 172.9271484375 53.9 172.8 53.8263671875 172.8 53.75 172.75
L 53.35 173.5 53.6 173.8 53.2 174.75 52.8 175.3
Q 52.75 175.45 52.45 176.25 52.2 176.25 52.55 175.1
L 52.6 174.95 52.65 174.85 52.95 173.95 53.5 172.75 53.2 173.3 53.1 173.55 52.45 174.8 52.15 175.65
Q 52.05 176.15 52.1 176.3
L 52 176.55 51.9 176.7 51.8 176.9 51.65 176.95
Q 51.45 176.85 51.15 177.75
L 50.6 181.15 50.45 181.7 50.4 182 50.3 182.3 50.25 182.25 49.75 185 49.65 191.5 49.55 191.1 49.5 192.25 49.8 195.4 49.95 196.25 49.95 196.85
Q 49.9775390625 196.5224609375 50.05 196.45 50.2 196.35 50.35 197.25
L 50.55 198.6 51.9 203.45 52.85 205.05
Q 53.65 206.9 54.95 209.1
L 56.9 212 56.95 212.1 57 212.1 57 212.15 57.1 212.3 58.8 214.45 58.95 214.75
Q 59.05 214.8 59.15 215
L 59.9 216.1
Q 60.8 217.45 61.3 218.45 62.7 221.1 63.25 223.35 63.5 224.4 63.6 225.75 63.7 227 63.55 228 63.4 229.1 63.1 230.15
L 62.95 230.7 62.85 230.9 62.85 230.95 62.45 231.95 62.4 232 62.4 232.05 62.2 232.45 62.15 232.45 62.15 232.5 61.95 232.9 61.85 233.05 61.8 233.15 61.8 233.2 61.75 233.2 61.5 233.7 61.4 233.8 61.15 234.25 61 234.4 60.85 234.6 60.75 234.8 60.45 235.15 60.35 235.35 60.2 235.5 60.1 235.65 59.45 236.3 59.35 236.45 59.25 236.55 58.4 237.25 58.55 237.1
Q 57.95 237.6 57.35 237.95
L 56.7 238.35 56.6 238.35 56.55 238.4 56.35 238.5 55.95 238.65
Q 55 239.05 54.3 239.15 53.2 239.4 52.3 239.4 51.05 239.5 50 239.35
L 49.7 239.35 48.45 239.15 48.25 239.15 48.1 239.1 47.8 239.05 47.65 239 47.45 239 45.9 238.6 45.85 238.6 45.8 238.5 45.45 238.4 44.8 238.3 44.7 238.25
Q 43.1 237.85 41.8 237.35
L 35 234.6 31.55 232.6 31.3 232.4 31.15 232.35 31.05 232.25 29.85 231.35 29.65 231.15 29.2 230.8 29 230.6 28.8 230.45 27.9 229.5 27.9 229.45 27.55 229.1 27.55 229.05 27.5 229.05 27.45 228.9 27.05 228.45 25.6 226.5 25.15 225.7 25.1 225.55 24.85 225.05 24.65 224.75 23.75 223.1 23.6 222.75 23.4 222.45 22.8 221.15
Q 23 221.8 22.9 221.8
L 22.5 221.2 21.4 219
Q 21.3 218.75 21.15 218.6 21 218.45 20.85 218.2
L 19 214.1 19 214 18.95 213.9 18.5 212.7 18.4 212.5 17.15 208.7
Q 16.4 206.35 15.85 203.65 15.45 201.85 15.35 200.95
L 15 198.25 15 197.65 14.95 197.35 15.05 192.9
Q 15.15 190.85 15.55 187.65
L 16.65 180.25
Q 16.75 178.55 16.9 177.75
L 18 170.4 18 170.15 18.05 170.45 18.4 168.65 18.5 168.35 18.7 167.35 21.7 158.75
Q 23.3 154.9 25.05 151.75
L 26.2 149.65 26.4 149.35 27.55 147.25 27.25 147.65 28.2 146 30.4 143.2
Q 30.05 143.2 30.75 141.85
L 31 141.3 31.9 139.85 31.95 139.9 32.4 139.15 32.45 139.05 32.55 138.95 33.2 137.9 33.2 137.85 33.25 137.85 33.25 137.8 33.3 137.7 36.4 132.45 36.5 132.65 39.15 127.15 39.3 126.9 39.4 126.6 39.65 126.1 40.75 123.15 40.85 122.7 41.1 122.05 41.4 120.9
Q 42 118.65 42.2 116.7
L 42.2 116.45 42.25 116.3 42.25 116.15 42.3 115.55 42.3 113.25 42.25 112.95 42.25 112.65 42.15 112.1 42.15 112.05 42.2 111.95 42.2 111.85 42.25 111.3 42.15 112 42 111.05 42.15 109.3 42.1 110.4 42.2 109.35 42.25 109.15 42.3 111.2 42.45 109.6 42.45 109.35 42.5 109.1 42.6 107.2 42.55 107 42.5 107.25 42.45 108.25 42 99.95
Q 42 99.7 42.1 99.6 42.2 99.4 42.2 99.1
L 42.15 98.8 42.1 97.8 42.05 97.7 42.05 97.55 42 97.15 36.5 69
Q 36.2 67.45 36.2 67.25
L 34.9 56.05 34.8 51.45 34.85 51.2 34.85 50.6 34.9 50.2 34.9 49.75 35 48.9 35 48.5 35.3 46.35 35.3 46.15 36.65 39.4
Q 36.75 39.15 36.75 39.35 36.75 39.48125 36.65 39.9
L 38.65 32.7 38.65 32.6 38.7 32.5 39.5 30.25 39.7 29.85 39.75 29.6 40.05 29 40.2 28.55 41.85 25.25 42.35 24.6 43.25 23.65 43.35 23.45 43.75 22.8
Q 44.75 21.2 45.45 20.35
L 46.05 19.6 46.2 19.35 52.05 13.35 56.1 10.1 56.35 9.85 64.4 4.6 64.5 4.55 64.6 3.95 67.35 2.6 67.9 2.5 68.7 2.25 70.95 1.2 71.75 0.65 72.9 0.1 77.3 -1.4 77.5 -1.5 80.7 -2.5
M 170.95 75.8
L 169.9 76.15 170.25 76 170.95 75.8
M 164.1 163.15
Q 166.201953125 167.587109375 167.8 170.9
L 172.95 181.2
Q 172.95 180.95 172.65 180.25 172.45 179.4 172.5 179.25 172.8 179.65 173.05 180.2 173.2 180.65 173.4 180.8 173.2 181.05 173.6 182.05 174.1 183 173.95 183.55
L 174.35 183.65 174.35 184.15 175.55 186.3 175.65 186.75 176.25 188.25
Q 176.4 188.55 177.4 190.4
L 177.85 191.2 178 191.6 178.1 191.8 178.1 191.85 178.15 191.7
Q 178.15 191.4 178.35 191.8
L 178.35 191.9 178.3 191.9 178.35 192.1 178.75 192.85 178.85 193.1
Q 178.95 193.35 178.9 193.45
L 179.35 194.55
Q 179.6921875 195.2345703125 179.8 194.85 179.755078125 195.0404296875 179.85 195.8 179.95 196.3 179.7 195.85
L 179.9 196.55
Q 179.95 196.85 180.15 197.15
L 180.05 196.5 180.6 198.55 180.9 199.35
Q 181.1 199.85 181.3 200.1
L 181.25 199.45 181.65 200.75
Q 181.8 201.4 181.6 201.75
L 181.2 200.75
Q 181.9 203.1 182.65 204.7
L 182.5 204.2
Q 182.9 204.9 183.5 206.65
L 183.85 207.5 183.9 207.75 183.95 207.75 183.95 207.85 184.15 208.45 184.2 208.5 184.2 208.6 184.5 209.7
Q 184.75 211 184.75 212.7 184.75 213.65 184.7 214.75
L 184.95 214.5 185.15 214.2 185.1 215.35
Q 185.0513671875 215.2513671875 184.75 214.95
L 184.45 214.7
Q 184.404296875 214.654296875 184.35 214.6 183.8892578125 216.62578125 183.3 218.05 182.6 219.7 182.05 220.65
L 180.4 223.45 180.25 223.6 180.2 223.7 180.2 223.75 179.8 224.3 179.75 224.4 179.7 224.45 178.55 225.9
Q 177.7 227 176.7 227.8
L 174.95 229.1 174 229.6
Q 173.45 229.75 173.55 229.45
L 173.65 229.15 173.4 229.35
Q 173.35 229.35 173.25 229.45
L 173.1 229.65 173 229.75 172.85 229.85 172.75 229.9 172.6 229.95
Q 172.5 229.95 172.5 229.8
L 172.65 229.6 172.45 229.7 172.2 229.75
Q 172 229.85 172.05 229.9
L 172.3 229.95 172.7 230.5 171.65 230.8 171.65 230.55
Q 171.55 230.55 171.45 230.7
L 171.35 230.8 171.2 231 171 231.15 170.4 231.35 170 231.4 168.15 231.4 167.95 231.35 167.75 231.35 166.95 231.25 166.75 231.25 166.55 231.2 166.25 231.2 166.15 231.15 163.15 230.65
Q 163.2 230.5 164.35 230.5
L 163.75 230.4
Q 163.3 230.3 163.15 230.2 163.4908203125 230.443359375 162.9 230.4 162.95 229.4146484375 162.95 228.35 162.95 223.55 163.25 220.6
L 163.3 221.25
Q 163.45 220.2 163.6 216.9 163.75 213.1 163.9 211.25 163.8 212.25 163.7 212.4 163.55 212.55 163.6 211 163.65 210.55 163.95 205.3
L 164.25 200.45 164.15 198.7 164.1 198.35 164.1 198.05
Q 164.1 198 164.1 197.95
L 164.1 197.9 164.05 197.85 164.05 197.5 164 197.2
Q 164 195 164.25 190
L 164.5 185.55 164.25 165.8
Q 164.191015625 164.4703125 164.1 163.15 Z"/>
</g>
</defs>

<g id="walk8">
<g transform="matrix( 0.6996917724609375, 0, 0, 0.6996917724609375, 57.25,20.7) ">
<g id="walk">
<g transform="matrix( 1, 0, 0, 1, 0,0) ">
<use xlink:href="#walk_2_Layer0_0_FILL"/>
</g>
</g>
</g>
</g>
</svg>
