
<svg xmlns="http://www.w3.org/2000/svg" version="1.1" xmlns:xlink="http://www.w3.org/1999/xlink" preserveAspectRatio="none" x="0px" y="0px" width="256px" height="256px" viewBox="0 0 256 256">
<defs>
<g id="walk_6_Layer0_0_FILL">
<path fill="#FFFFFF" stroke="none" d="
M 60.2 -6.45
Q 56.85 -4.65 53.15 -2.25
L 47.7 1.6 47.5 1.8 47.35 1.9 47.25 2 45.85 3.05
Q 41.9 6.35 39.05 9.4 35.95 12.8 33.65 16.25 32.45 18 31.6 19.5
L 28.6 25.9 27.9 28 27.8 28.2 24.95 36.45 24.7 37.45
Q 24.85 37.3 24.85 37.5
L 24.85 38.1 23.95 45.5 23.85 45.4 23.6 48.95 23.55 49.25 23.65 55.05 23.7 55.15 24.6 63.4 24.3 63.2
Q 24.75 65.65 25.95 72.4
L 33.85 109.6 33.85 109.8 33.9 110 34.25 113.95 34.25 114.35 34.25 114.45
Q 34.0359375 116.8736328125 33.15 119.7
L 32.2 122.35 28.55 129.4 22.95 137.7
Q 22.8 137.8 22.85 137.65 22.95 137.45 23 137.3 19.45 143.2 18.5 145.05 18.25 145.4 17.6 146.05 17.65 146.05 17.4 146.55
L 16.6 148.15
Q 15.15 151.2 14.25 153.35
L 13.9 154.05 11.25 161.55 11.55 161.85 11.05 163.4 10.55 164.25 10.2 165.7
Q 10.3 166 10.2 167.05
L 10.1 167.45 9.45 171.35 9.5 171.85 9.35 172.6
Q 9.25 173.3 9.1 173.25 9.15 173.3 9.25 173.75
L 9.2 174.7 9.15 174.9 9.15 175.75
Q 9.25 176.05 9.35 175.3
L 9.4 177.25
Q 9.1 178.75 9.1 177.35
L 8.55 199.8 8.6 200 8.6 200.95 8.65 201.35 8.65 201.7 9.1 206.45
Q 9.45 209.35 9.75 210.9
L 10.3 213.9 10.1 211.35 10.15 210.65
Q 10.45 211.6 10.55 212.4 10.65 213.15 10.8 213.5 10.7 213.7 10.7 214.35
L 11 216.25 11 216.6 11.05 216.75 11.05 216.95
Q 11.15 217.6 11.05 218.05
L 11.25 218.2 11.45 218.4 11.45 219.4 12.7 223.25 12.85 224 13.7 226.75
Q 14.4 228.75 15.45 230.65
L 16.65 233.15
Q 16.65 233.020703125 16.65 232.9 16.65 232.6 16.95 233.15
L 17.1 233.6 18 235.2 18.2 235.65 18.25 235.7 18.25 235.85 18.45 236.2 18.45 236.25 18.5 236.25 18.55 236.35 18.6 236.5 19.6 238 20.25 238.7
Q 20.5 238.85 20.35 238.5
L 21.6 240.55 21.5 240.5 21.15 240.2
Q 22.45 241.75 23 242.2
L 22.15 241.15 25.1 244.05 26.4 245.05 27.7 245.8 26.85 245 29.35 246.75 30 247.3 30.2 247.6 28.5 246.65
Q 28.9 246.95 29.45 247.25
L 30.3 247.8 31.95 248.65
Q 33.8 249.55 35.2 250
L 34.4 249.65 37.9 250.9 37.95 250.95 38.05 250.95 38.15 251 39.95 251.55 40.2 251.6 40.4 251.7 40.7 251.75 45.3 276.55
Q 45.3 276.65 45.1 276.3
L 46.3 283.3
Q 46.25 283.85 46 284.35 46.05 284.3 46.15 284.75
L 47.5 296.5 47.5 297.15 48 297.25
Q 48.15 298.5 47.9 298.85 47.7 299.15 47.85 300.3 48.1 300.55 48.2 301.25
L 48.3 302.6
Q 48.3 304.6 48.45 304.85
L 48.45 305.05 48.4 305.2 48.4 305.35
Q 48.4 305.4 48.4 305.45
L 48.4 305.55
Q 48.4 306.15 48.25 306.05
L 48.35 306.2 48.45 306.4 48.6 308.1
Q 48.7 308.4 48.7 308.05
L 48.8 307.65 49.1 309.45
Q 49.1 310 48.95 310.05 48.85 310.15 48.75 309.6
L 49 312.15
Q 49.3 314.4 49.7 316.25
L 49.95 317.4 50 317.4 50 317.45 50.05 317.65 50.05 317.7 50.25 318.35 50.25 318.4 50.3 318.5 50.55 319.25 50.55 319.35 50.6 319.4 50.65 319.6 51.45 321.65
Q 52 322.9 52.9 324.5 53.75 326 54.85 327.3 56.15 328.9 57.25 329.9
L 57.4 330.05 57.5 330.1 57.7 330.3 57.95 330.45 58.15 330.65 58.25 330.7 58.85 331.15 58.85 331.2 58.9 331.2 58.9 331.25 59 331.3 60.05 332.05
Q 61.3 332.85 62.9 333.6 64.2 334.2 65.65 334.7 66.5 335 68.1 335.4
L 69.75 335.75 69.95 335.75 70.5 335.85 70.6 335.85 70.75 335.9 73.25 336.15 70.8 335.55 70.6 335.45 70.4 335.4 70.1 335.2 71.6 335.3 71.95 335.4 72.55 335.45 73.05 335.4
Q 73.15 335.65 73.75 335.8
L 74.9 335.95
Q 76.6 336.15 77.1 336.5
L 77.5 336.15 77.85 336.25 78.2 336.4 84.75 336.2
Q 86.5 336.1 88.4 335.7
L 90.85 335.25
Q 90.7458984375 335.2384765625 90.65 335.2 90.45 335.1 91 334.95 91.1 335.05 91.45 334.95
L 91.85 334.9 92.05 334.8 92.55 334.7 92.6 334.65 92.8 334.65
Q 92.75 334.6484375 92.75 334.6
L 92.85 334.6 93.35 334.45 93.8 334.45 94.25 334.35 96.25 333.65 96.45 333.5 96.75 333.35
Q 96.946875 333.153125 96.55 333.1 96.96875 333.1431640625 98.2 332.7 98.5 332.65 98.75 332.6 98.85 332.6 98.35 332.95
L 100.25 332 100.7 331.6 99.5 332.2 101.95 330.65 102.55 330.2 102.65 330.1 102.75 330.05 103.15 329.75 104.95 327.75 105.05 327.55 105.15 327.45 105.2 327.35 105.2 327.3 105.25 327.3 105.35 327 105 327.35 105 327.4 104.9 327.45 104.4 327.9 104.9 327.25 105 327.15 105.05 327.15 105.05 327.1 105.15 327 107.1 324.35 107.4 324.1 107.3 324.35 107.75 323.3 108.1 323.35 108.2 323.35 108.3 323.3 110.15 323.3 109.9 323.45 110.75 323.45 111.2 323.35 111.5 323.35 111.6 323.3 111.75 323.3 113.05 323 113.45 322.95 113.65 322.9 113.75 322.9 113.65 322.85 113.5 322.8 113.55 322.7 113.65 322.6 113.75 322.6 113.95 322.5 114.05 322.5
Q 114.85 322.4 115.8 322 116.8 321.7 117.3 321.65
L 118.1 321 130.95 315.05
Q 131.9 314.6 134.8 312.95
L 138.35 310.8
Q 139.5 310.1 141.3 308.85
L 143.35 307.4 143.25 307.55 143.95 307 144.15 306.8 144.75 306.3
Q 145.85 305.3 146.3 304.75 147.65 303.35 149 301.3 151.35 297.85 153.25 293.6
L 155.15 289.2 155.2 288.95 155.25 288.9 155.25 288.85 155.3 288.8 155.35 288.7 157.85 279.4 157.95 278.7
Q 158.3 278 158.6 276.8 158.9 275.45 159.05 274.85 158.85 275.3 158.75 275.2 158.65 275.1 158.75 274.7 159.1 272.85 159 272.75 158.9 272.65 158.9 272.4
L 161.95 247
Q 161.85 246 161.9 245.4
L 161.95 243.5 162 243.5 162.35 243.45 162.7 243.45 162.9 243.4 163.85 243.4
Q 164.4 243.4 164.7 243.45
L 164.45 243.55 165.2 243.55 168.25 243.15
Q 168.1275390625 243.1275390625 168.05 243.05
L 168.15 242.95 168.6 242.8 169.85 242.55 170 242.5 170.15 242.5 171.45 242.05 171.7 242 171.9 241.9 172.9 241.6 173.95 240.75
Q 175.45 240 176.7 239.05
L 177.7 238.25 177.9 238.05 178.35 237.7 180.8 235.15 181.4 234.4 181.55 234.15 182.65 232.6
Q 182.75 232.4 182.85 232.35
L 183.85 230.6 183.9 230.55 184 230.4 184.35 229.65 184.4 229.5 184.65 229.05 184.7 228.9 184.75 228.9 184.75 228.85 184.8 228.7 185.3 227.65
Q 187.35 222.95 188.35 219.15
L 188.55 218.5 188.55 218.4 188.85 217.2 188.85 217.1 188.95 216.75 189.55 212.7 189.55 212.9 189.65 212.1 189.65 208.2 189.55 207.3 189.55 207.05 189.25 204.95
Q 188.75 202.55 188 200.3 186.95 197.6 185.65 195.65
L 184.1 193.5
Q 183.8 193.2 183.7 193
L 183.45 192.8 182.8 192.05 182.55 191.85 182.35 191.6 180.8 190.3 180.6 190.1 180 189.7 179.95 189.65 179.9 189.65 179.9 189.6 179.8 189.5 179.7 189.45 179 189 177 187.2 175.45 185.3 174.3 183.1 174.2 182.95 173.95 182.4
Q 174.1 182.8 174 182.8 173.85 182.75 173.7 182.45
L 173 181.2 172.85 181 172.65 180.8 172.35 180.35 171.3 178.1 171.3 178 171.25 177.95 168 168.6
Q 165.35 160.1 164.7 157.5 164.25 156.65 163.55 154.55 163.4513671875 154.2478515625 163.35 153.95 163.21484375 152.661328125 163.05 151.4
L 162.2 146.1 162.2 145.85 160.2 137
Q 159 132.5 158.35 130.35
L 150.85 108.25 150.8 108 150.75 107.9 150.75 107.8 150.7 107.75 150.75 107.75 150.75 107.75 150.7 107.75 150.7 107.7 150.75 107.75 150.7 107.65 150.7 107.65 150.7 107.6 150.7 107.65 150.75 107.65 150.55 106.75 150.2 101.75 150.25 101.3 150.3 101.1 150.3 100.9 150.35 100.75 150.35 100.65 150.4 100.45 150.45 100.05 150.6 99.45 150.7 99.25 150.95 98.5 151.55 97.35 151.55 97.3 151.6 97.25 151.7 97.1 151.8 97 152.15 96.5
Q 152.5 96.1 153.4 95.3 154.9 94 157.2 93.1
L 157.55 92.95 157.6 92.9 162.45 91.4
Q 163.2 91.15 165.45 90.6
L 168.65 89.8
Q 170.2 89.45 172.05 88.9
L 178.55 86.65 178.65 86.55 179.1 86.4 179.15 86.35 179.2 86.35 179.4 86.25 179.55 86.15 179.65 86.1 179.7 86.1 179.75 86.05 180.45 85.7 183.65 83.65 185 82.5
Q 186.15 81.45 186.65 80.85
L 187.45 79.9 187.5 79.8 187.6 79.7 187.8 79.45 187.95 79.2 188.05 79.1 189.05 77.55 189.05 77.5 189.1 77.5 189.1 77.4 189.55 76.65 189.55 76.55 189.6 76.5 189.7 76.35 189.75 76.15 189.8 76.05
Q 189.85 76 189.95 75.75
L 190 75.65 190.8 73.45 191.4 70.55 191.4 70.25 191.5 69.4 191.5 69.1 191.55 68.8 191.45 65.45 190.95 62.6 190.9 62.45 190.9 62.3 190.75 61.75 190.65 61.5 190.05 59.5
Q 189.3 57.45 188.5 55.95 187.75 54.45 186.6 52.8 185.7 51.4 184.45 50
L 184.4 49.95 184.4 49.9 183.7 49.15 183.6 49 183.35 48.75 183.2 48.55 182.15 47.55
Q 181.35 46.75 179.95 45.55
L 165.65 33.5 165.3 33.05 165.6 33.5 165.65 33.6 165.8 33.75
Q 165.95 33.95 165.85 33.95
L 165.5 33.75 161.65 28.95 161.45 28.8 161.3 28.65 159.65 26.35 159.5 26.05 158.4 24.25 158.1 23.85 150.9 11.2 146.45 4.7
Q 144.2 1.85 142.45 -0.05
L 142.2 -0.35 140.25 -2.35 140.15 -2.5 140 -2.65 139.9 -2.7 139.45 -3.2 137.55 -4.8
Q 136.4 -5.8 134.65 -6.9 133.55 -7.65 131.65 -8.7 128.85 -10.2 125.45 -11.45
L 114.8 -14.45 114.4 -14.5 114.05 -14.6 107.75 -15.6
Q 103 -16.25 98.05 -16.35
L 94.85 -16.35 94.65 -16.3 90.6 -16.1 88.6 -15.8 88.45 -15.75 88.25 -15.75 78.15 -13.7 78.1 -13.7 69.4 -10.7 70 -11.05 66.15 -9.4
Q 63.3 -8.15 60.2 -6.45
M 80.7 -2.5
L 80.8 -2.55 81 -2.55 82.8 -2.9
Q 83.15 -2.9 83.1 -2.85
L 84.25 -3.3 87.15 -3.8
Q 87.5 -3.9 87.1 -3.9 86.5 -3.85 86.25 -3.85
L 89.9 -4.55
Q 91.05 -4.55 91.15 -4.45 91.3 -4.35 90.15 -4.2
L 91.15 -4.3 91.45 -4.3 95.3 -4.55
Q 99.15 -4.65 103.1 -4.3
L 104.2 -4.15 104.65 -4.15 104.75 -4.1 110.4 -3.3 110.75 -3.2 112 -3 112.3 -2.9 112.5 -2.9 122.4 0
Q 123.35 0.3 124.65 0.95
L 126.8 2.05
Q 128.6 3.05 130.4 4.6 131.3 5.35 131.9 6
L 132.35 6.5 132.5 6.6 132.8 6.9 133.15 7.35 133.55 7.75 139.95 16.4 140.85 17.95
Q 142.15 20.05 143.55 22.75
L 143.1 21.5 143 21.35 141.6 18.55 141.15 17.35 143.95 22
Q 143.9 22.2 144.05 22.6
L 144.3 23.4 144.55 23.9 144.6 24.05 144.6 24.1 144.65 24.15 144.65 24.2 147.05 29.4
Q 147.35 30.1 147.4 30.4
L 148.2 31.05 148.8 32.5 151.2 36.1 151.4 36.45 152.05 37.3 152.2 37.55 152.4 37.75 156.45 42.8 156.75 43.1 156.9 43.3 157 43.35 157.1 43.5 159.4 45.65
Q 161.4 47.35 163.1 48.6
L 170.35 54.1 169.7 53.4
Q 169.6 53.25 169.75 53.3 169.85 53.3 170.35 53.7 170.35 53.85 172.05 55.25
L 173.65 56.7 173.75 56.9 173.8 57.05 173.9 57.15 173.95 57.15 174.55 57.8 174.65 57.95 174.8 58.1 176.25 59.95 176.45 60.15 176.55 60.3
Q 176.85 60.5 176.7 60.05
L 176.9 60.55 176.95 60.65 177.05 60.95 177.2 61.25 177.6 62.35 177.65 62.55 177.65 62.75 177.55 62.65 177.45 62.5 177.3 62.2 177.9 63.85 177.95 63.9 177.95 64 178 64.2 178.05 64.3 178.05 64.35 178.05 64.35 178.15 64.55 178.2 64.8 178.3 65.05 178.35 65.25 178.35 64.95 178.2 64.45 178.2 64.3 178.1 63.9 178.15 64.05 178.25 64.25 178.25 64.35 178.4 64.85 178.45 64.95 178.45 65.05 178.5 65.15 178.5 65.35 178.55 65.35 178.55 65.4 178.6 65.7 178.6 65.85 178.65 66 178.7 66.25
Q 178.8 67.35 178.7 68.1
L 178.35 70.25 178.35 70.35 178.3 70.45 178.25 70.6 178.25 70.7
Q 178.25078125 70.6640625 178.3 70.5
L 178.2 70.9 178.45 70.45 178.35 70.6 178.5 70.5 178.65 70.25 178.75 69.95 178.75 70.1 178.7 70.15 178.55 70.6 178.55 70.65 178.5 70.8 178.5 70.65 178.45 70.8 178.35 71.05 178.35 71.1 178.3 71.1 178.3 71.15 178.15 71.35 178.1 71.45 177.85 71.8 177.65 72
Q 176.95 72.9 176.25 72.95
L 176.9 72.25 177.05 72.05 177.1 71.95 177.15 71.9 177.4 71.5 176.2 72.85 176.1 72.9 176 73
Q 175.1 73.75 174.25 74.2
L 174.05 74.3 173.9 74.4 173.85 74.4 173.85 74.45 173.3 74.7 173.25 74.75 173.2 74.75 173.05 74.8 172.9 74.9 172.85 74.9 172.8 74.95 172.5 75.05 172.2 75.2 169.55 76.25 155.85 80.4 155.6 80.45 155.4 80.55 153.5 81.2 153.4 81.25 153.25 81.3 152.9 81.5 152.8 81.5 152.75 81.55 152.7 81.55 152.5 81.65 152.1 81.8 152.05 81.85 152 81.85 151.9 81.95 148.75 83.6 147.15 84.65 146.95 84.85 146.7 85 145.6 85.85 143.35 88.05 141.95 89.85 141.9 89.95 141.85 90 141.2 91.05 141.1 91.15 141.05 91.3 140.9 91.5 140.55 92.25 140.4 92.5 139 96.3 138.7 97.65 138.65 98.1 138.55 98.5 138.45 99.35 138.45 99.55 138.4 99.75
Q 138.3 100.8 138.3 102.65 138.35 104.55 138.7 106.4
L 138.9 103.4
Q 139.05 106.15 139.75 108.8
L 138.45 106.45 138.3 106.1
Q 138.4283203125 107.3525390625 138.65 108.55
L 138.95 110.05 138.95 110.25 139.05 110.6 139.1 110.65 139.1 110.75 139.15 110.9 139.2 111.2 139.25 111.3 139.25 111.35 139.3 111.45 145.75 130.7
Q 146.0041015625 131.3896484375 146.75 133.85 147.1548828125 135.4556640625 147.45 136.4 147.4 136.5 147.25 136.25
L 148.8 142.05 148.8 142.05 148.85 142.1
Q 148.8591796875 142.1435546875 148.85 142.2
L 150.3 148.2 150.3 148.35 150.35 148.5 152.1 167.15 152.2 175.75
Q 152.15 178.05 151.85 177.45
L 151.6 176.4
Q 151.7 178.95 151.85 179.5
L 151.95 180.25 151.95 182.1
Q 151.9 182.8 151.75 182.3 151.65 181.95 151.6 181.3 151.6 182.05 151.55 183.5 151.5 184.5 151.6 184.6
L 151.8 183.55
Q 151.9 183.25 152.05 183.15 152.2 183.05 152.3 182.95 152.45 182.85 152.55 182.55
L 152.3 187.4 152.05 187.15
Q 152.05 187.2 152.25 189.65
L 152.35 191.9
Q 152.35 193.85 152.25 195.15
L 152.2 199.1 152.15 199.45 151.15 220.75
Q 151.05 220.65 150.95 217.05 150.8 220.15 150.7 220.95 150.95 219.8 150.9 221.75 150.85 223.45 150.9 222.9 151.01875 224.4845703125 150.95 226.6 150.8607421875 226.8193359375 150.65 227 150.7 226.95 150.7 227.3
L 150.7 227.7 150.45 229.75 150.45 230.15 150.4 230.35 150.4 230.55 149.95 235.75 149.85 236.2 150.35 236.35
Q 150.25 237.25 149.95 237.45 149.7 237.65 149.65 238.45 150 238.9 149.7 240.15
L 149.55 241.1 149.5 241.15 149.5 241.2 149.45 241.6 149.45 241.95 149.55 242.2
Q 149.4 243.05 149.2 242.95 149.35 243.1 149.35 243.6
L 149.25 244.35
Q 149.3 244.45 149.4 244.35 149.45 244.2 149.5 244.1
L 149.55 245.3
Q 149.45 245.65 149.3 245.65 149.15 245.8 149.15 245.35
L 146.6 266.45
Q 146.75 266.25 146.95 265.55 147.15 264.85 147.4 264.7 147.45 265.15 147.35 265.75 147.2 266.1 147.35 266.4 146.95 266.5 146.75 267.45 146.45 268.55 146.1 268.8
L 146.45 269.1 146.15 269.5 146 271.75 145.7 272.65 145.25 276.7 145.05 277.45
Q 145.1 277.3 145.25 277.2 145.4 277.1 145.4 277.45 145.25 277.45 145.25 277.65
L 145.2 278.15 145.1 278.6
Q 145.1 278.75 144.95 278.9 144.9 279.15 144.7 280 144.6 280.65 145 280.45
L 144.5 281.1 144.3 281.3 144.25 281.05 143.9 282.15 144.2 281.7 143.75 283 143.55 283.35 143.35 283.95 143.3 284 143.3 284.1 143.25 284.3 143.2 284.75 143.6 284.25 143.5 284.6 143.4 284.75 143.35 284.9 143.1 285.45
Q 142.9 285.9 142.45 286.05
L 142.6 285.35 141.4 288.65 141.6 288.25
Q 141.55 288.55 140.9 290.45 140.2 292.15 139.45 293.55
L 137 297.65 137.3 297.65 137.6 297.6 137.35 298.05 137.2 298.25 137.15 298.35 137.15 298.4 137.1 298.4 137.1 298.2 136.95 297.85
Q 136.796875 297.4291015625 136.8 297.3
L 136.55 297.6 136.55 297.55 136.45 297.65 136.05 297.95 135.95 298 135.85 298.1 135.25 298.55 125.75 304.2 124.85 304.65 124.7 304.75 124 305.1 123.85 305.15 120 306.9 119.4 307.1
Q 118.7 307.3 118.8 307 119 306.65 118.95 306.6 118.55 306.85 118.2 307.2 118.15 307.4 117.55 307.6 117.35 307.65 117.45 307.5 117.5 307.35 117.65 307.25 116.8 307.65 116.8 307.7 117.15 307.6 117.3 307.85 117.55 308.2 117.65 308.25
L 116.3 308.75 116.3 308.5 115.25 309.5
Q 115 309.65 114.4 309.85
L 110.25 311.35 110.15 311.35 109.7 311.55 109.05 311.75
Q 108.9599609375 310.3453125 108.8 308.7
L 108.05 303.2
Q 107.6 300.4 107.4 299.85
L 107.15 300.9 106.65 298.95
Q 106.708984375 299.0908203125 107.3 299.5 107.73125 299.8529296875 107.8 300
L 107.55 297.7 107.55 297.3 105.35 278.1 105.9 277.9 106.05 277.8 106.2 277.75 106.3 277.8 106.35 277.85
Q 106.45 277.8 106.6 277.75
L 106.6 277.8 106.75 277.95 106.9 277.8 109.05 276.45 110.7 274.7 111.9 272.9 111.5 272.6
Q 111.6 272.35 111.8 272.15
L 112.05 272.1
Q 112.2 272.1 112.25 272
L 112.35 271.85 112.45 271.6 112.35 271.35 112.35 271.1
Q 112.35 271 112.55 270.6
L 112.8 270.15
Q 112.85 269.95 112.8 269.8
L 112.9 269.65 113.05 269.5 113.15 269.5
Q 112.95 269.4 113.05 269.2
L 113.15 268.8
Q 113.05 268.85 112.9 268.9
L 112.9 268.3
Q 113 268.2 113.15 268.2 113.3 268.2 113.3 268.35
L 113.75 266.55 114.1 263.95
Q 114.4 261.35 114.15 259.9 114.05 260 113.95 260.25 113.85 260.5 113.6 260.6 113.5 260.45 113.5 260.25 113.55 260.1 113.4 260 113.75 259.9 113.8 259.55 113.9 259.15 114.2 259
L 113.85 258.95 114.05 258.8 113.75 258
Q 113.85 257.85 113.85 257.25 113.8 256.95 113.45 256.45 113.2 256.1 113.3 255.9 113.1 256.15 113 255.95 113.1 255.95 113 255.7 112.85 255.45 113 255.4 112.95 255.15 112.9 255.05 112.80390625 254.8095703125 112.5 254.95 112.585546875 254.887890625 112.75 254.6 112.85 254.4 113 254.55 113 254.25 112.9 254.1
L 112.8 254.35
Q 112.7 253.95 112.8 253.65 112.8 253.35 112.5 253.15
L 112.35 253.4
Q 112.25 252.75 112.65 252.6
L 112.85 252.9 112.65 252.2 112.35 251.6 112.35 251.8
Q 112.2 251.65 111.35 249.8 110.7 248.2 110.3 247.95
L 110 248.25 109.6 247.85
Q 110.548046875 247.85 110.65 247.85
L 109.2 241.7 109.2 241.4 109.15 241.2
Q 109.2 240.95 109.45 240.95 109.6 240.95 109.75 241 109.65 240.8 109.45 240.75 109.3603515625 240.75 109.3 240.6
L 109.4 240.5 109.45 240.5
Q 109.55 240.5 109.6 240.55 109.5626953125 240.437890625 109.5 240.35
L 109.55 240.35 109.55 240.3 109.6 240.2 109.7 240.05 109.9 239.9 109.9 240 109.95 239.9 109.95 239.85 110 239.85 110 239.8
Q 110.1 239.7 109.9 239.8
L 110.2 239.5 108.95 240.55
Q 108.8486328125 240.6076171875 108.7 240.65
L 108.6 240.25 110.2 239.5 110.25 239.45 110.25 239.45 110.4 239.4 110.45 239.35 110.15 239.4
Q 110.05 239.2 109.95 239.15
L 109.95 239.1 109.9 239.1 109.85 238.95 109.1 237.45 108.05 235.95 107.95 235.85 107.7 235.55 107.6 235.4 107.4 235.2 107.35 235.2 107.35 235.15 107.3 235.1 107.25 235.1 106.65 234.45 105 233.35 105.1 233.35 103.95 232.8 102.95 232.5 103.55 232.75 102.7 232.45 102.65 232.45 102.55 232.4 102.5 232.4 102.35 232.35 102.15 232.35 102.1 232.3 101.9 232.3 101.75 232.25 100.9 232.2 101.1 232.25 101 232.25 100.45 232.15
Q 100.1 232.1 99.35 232.1
L 98.8 232.05 98.7 232.1 98.25 232.1 98.2 232 98.15 231.95
Q 98.05 231.9 97.8 231.9
L 97.75 231.9 97.4 231.8 97 231.75 96.65 231.75
Q 96.85 231.8 96.8 231.95 96.75 232.05 96.6 232.05
L 95.95 232.15
Q 95.85 232.15 95.85 232.25
L 95.75 232.35 93 233.5 92.35 233.9 92.3 234 92.15 234.05 91.95 234.2 91.8 234.35 91.65 234.45 90.55 235.5 90.45 235.65 89.95 236.2 89.25 237.2 89.15 237.4 88.75 237.9 88.65 238.05
Q 88.75 238.35 88.6 238.85
L 88.45 239.2 88.45 239.55 88.4 239.5 88.35 239.6 88.35 239.75 88.25 239.95 88.25 240.05 88.2 240.15 88.15 240.35 88.1 240.45 88.1 240.5 88.05 240.5 88.05 240.6 87.9 241.1
Q 87.45 242.25 87.45 242.75
L 87.55 242.65
Q 87.65 242.95 87.45 243.05 87.2 243.2 87.1 243.3 87.6 243.35 87.8 243.9
L 87.7 243.85
Q 87.7 243.95 87.9 244.35 88.1 244.75 88.1 244.95
L 87.85 244.9
Q 88 245.05 88 245.45
L 87.95 245.9 87.65 246.7 87.6 247.2 87.75 247.65 87.55 247.8 87 248.05 87.1 248.1 88.35 248.1
Q 88.426953125 248.55703125 88.55 249
L 89.05 250.45
Q 89.65 252.35 89.65 253.55
L 89.5 253.3
Q 89.5 253.7 89.7 255.1 89.9447265625 256.2255859375 89.95 257.35 89.95625 256.99375 90.05 256.9 90.15 256.85 90.3 257.45 90.3 258.45 90.5 259.75 90.65 260.9 90.6 261.75
L 91.1 262.95 95.7 299.5 95.65 299.25 96.4 307.9
Q 96.65 310.5 96.65 312.6
L 96.6 314.5 96.55 314.55 96.55 314.95 96.5 315.2 96.5 315.45 96.3 316.4 96.3 316.6 96.25 316.8 96.15 317 96.05 317.45 96.05 317.5 95.95 317.7 95.95 317.8 95.85 318 95.8 318.15 95.75 318.25 95.75 318.3 95.65 318.5 95.6 318.65 95.5 318.75 95.45 318.9 95.35 319.05 95.3 319.1 95.3 319.15 95.25 319.2 95.05 319.5 94.9 319.65 94.85 319.75 94.4 320.2 93.35 320.95
Q 92.85 321.25 92 321.6
L 91.25 321.85 91.05 321.95 90.5 322.1 90.2 322.15 90.1 322.2 90 322.2 90 322.2 87.2 322.75
Q 86.55 322.65 84.9 322.65 83.55 322.75 82.4 322.65 82.95 322.75 82.95 322.9 82.85 323 82.3 323
L 80.05 323.05 79.85 323.15 79.45 323.25
Q 78.75 323.35 77.35 323.35 75.85 323.35 74.8 323.25
L 73.25 323.15 72.45 323 72.25 323 72 322.95 71.9 322.95 71.9 322.9 71.85 322.9 71.6 322.85
Q 69.9 322.55 68.35 321.8 67.85 321.6 66.95 321
L 66.75 320.9 66.6 320.8 66.5 320.7 66.45 320.7 66.3 320.55 66.25 320.55 65.95 320.25 65.85 320.2 65.75 320.05
Q 64.6 318.95 63.8 317.4 63.45 316.8 63.1 315.85
L 62.8 315.1 62.75 315 62.75 314.9 62.7 314.7 62.6 314.55 62.5 314.05 62.45 313.95 62.4 313.85 62.4 313.8 62.45 313.95 62.2 312.8 61.7 309
Q 61.5 308.35 61.3 307.05
L 60.7 301.15 60.6 300.6 60.75 300.9 60.4 297.65 60.4 297.3 59.15 286.1 57.7 278.3 57.75 278.75
Q 57.45 277.9 57.35 277.15
L 57.25 276.6 57.25 276.15
Q 57.25 275.1 57.1 273.95 56.95 274.1 56.75 273.75
L 56.35 272.95
Q 56 272.15 55.65 270.95
L 55.8 271 53.6 264.15 53.9 264.2
Q 53.4 263 52.75 260.6
L 50.45 252 50.85 251.95 51.15 251.85
Q 53.05 251.4 54.9 250.45
L 57 249.2 57.15 249.15 57.25 249.05 57.8 248.65 58 248.45 58.75 247.85 59 247.6 57.6 248.2 59.65 246.35 59.35 247.1 59.35 247.25
Q 59.119921875 247.863671875 59 248 60.373828125 246.97734375 61.5 245.9 63.15 244.3 64.75 242.3
L 66.1 240.45 66.25 240.3 66.4 240 66.8 239.45 70.85 231.9
Q 71.25 231.1 72 228.9 72.5 227.55 72.9 225.85
L 73.15 224.75 73.2 224.35 73.3 224 73.5 222.9 73.95 218.45 73.75 212.4
Q 73.7 211.1 73.95 211.35 74.1 211.5 74.25 211.95
L 74 210.7 73.65 209.8
Q 73.55 209.6 73.4 208.75 73.35 208.25 73.8 209.15
L 73.6 208.15 73.55 208.1 73.55 208 73.5 207.9
Q 73.4 207.4 73.3 207.4 73.35 207.75 73.3 207.95
L 73.25 208.1 73.2 208.15 73.2 208.2 73.15 208.2
Q 72.8 208.55 72.8 208.65
L 72.75 208.3 72.65 208 72.25 206.2 72.55 206.25
Q 72.25 205.65 71.95 205.1 71.35 204.05 71.1 202.6 69.95 197.9 69.5 196.45
L 67.8 190.35
Q 68 190.35 68.6 191.95 68.2 190.6 68.15 190.1 68.15 190.7 67.85 189.8 67.55 188.9 67.6 189.3 67.1 188.4 66.65 187.1
L 65.85 184.7
Q 64.95 181.65 64.25 180.3
L 53.7 178.05
Q 53.2 177.95 53.1 178
L 53.05 177.85
Q 53.043359375 177.8740234375 53 177.85
L 53.2 178.8 53.55 178.85 53.8 179.7 53.8 180 53.75 180.3 54 181.15
Q 53.8 181.3 53.45 180.3
L 53 178.75 52.9 178.2 53.2 180.15 53.45 180.9
Q 53.5 181.25 53.75 181.4 53.85 182.05 53.7 182.05 53.5 182.15 53.7 182.9
L 54.4 184.65
Q 54.9 185.8 55 186.55
L 54.95 186.55 57.25 193.8 57.05 193.55 57.55 195.55
Q 58.06953125 197.2978515625 58.2 198.05 58.1599609375 197.6900390625 58.25 197.6 58.35 197.5 58.55 198.2 58.75 199.15 59.2 200.85 59.6 202.25 59.7 203.1
L 60.35 204.4 62.2 211.95 62.3 212.25 62.8 217.55
Q 62.85 220.15 62.25 222.95 61.8 225.4 60.6 228.25 60.1 229.45 59.4 230.7
L 58.8 231.85 58.6 232.1 56.2 235.8 55.55 236.55
Q 54.75 237.55 53.6 238.6
L 53.75 238.45 53.15 239 52.65 239.35 52.5 239.5 51.65 240.1 51.1 240.4 50.9 240.55 49.55 241.15 47.9 241.55
Q 46.7 241.65 46 241.6
L 45.5 241.5
Q 45.2890625 241.4841796875 45.05 241.45 44.9044921875 241.4306640625 44.75 241.4
L 43.95 241.3 43.65 241.2 43.4 241.15 43.3 241.1 43.25 241.1 43.15 241.05 42.9 241 42.85 241 42.8 240.95 42.75 240.95 42.2 240.75 42.1 240.7 41.95 240.65 38.9 239.4
Q 33.3 236.9 30 233.65
L 28.65 232.25 28.5 232.05 28.45 231.95 28.35 231.85 28.05 231.45 28 231.35 27.9 231.25 27.8 231.1 27.8 231.05 27.75 231.05 27.75 231 27.65 230.85 27.5 230.55 27.45 230.5 27.35 230.35
Q 26.4 228.65 25.3 226.4
L 23.55 221.05
Q 23.7 221.75 23.55 221.65 23.4 221.6 23.25 221
L 22.55 218.75 22.35 218.3
Q 22.25 218.3 22.15 217.9
L 21.55 215.8 21.45 215.55 21.25 214.7 21.25 214.65 21.2 214.55 21.1 214.2 19.9 208.05 19.05 200.15 19.35 175.3 19.4 175 19.7 170.9 19.75 170.6 19.75 170.5 19.8 170.35 19.9 169.5 19.9 169.25 19.95 169.55
Q 20.2 167.7 20.9 165.15 21.95 161.55 23.35 158.2 24.6 155.4 25 154.6
L 29.05 146.9 28.75 147.35 29.65 145.7 31.8 142.9
Q 31.6 142.9 31.75 142.55
L 32.1 141.6 32.25 141.35 32.35 141.05 33.1 139.75 33.25 139.55 33.3 139.65 35.15 136.2
Q 36.85 132.8 37.25 131.9
L 37.4 132.1 40.4 124.6 40.5 124.15 40.6 124 41.55 120.45
Q 42.05 118.3 42.2 116.35 42.3 114.9 42.25 114.15
L 42.15 112.05 42.2 111.95 42.2 111.85 42.25 111.3 42.15 111.9 42.15 111.85 42 111.15 42.15 109.3 42.1 110.4 42.2 109.35 42.25 109.15 42.3 111.2 42.45 109.6 42.45 109.35 42.5 109.1 42.6 107.2 42.55 107 42.5 107.25 42.45 108.25 42 99.95
Q 42 99.7 42.1 99.6 42.2 99.4 42.2 99.1
L 42.15 98.8 42.1 97.8 42.05 97.7 42.05 97.55 42 97.15 36.5 69
Q 36.25 67.85 36.2 67.25
L 34.9 56.05 34.8 51.45 34.85 51.2 34.85 50.6 34.9 50.2 34.9 49.75 35 48.9 35 48.5 35.3 46.35 35.3 46.15 36.65 39.4
Q 36.75 39.15 36.75 39.35 36.75 39.48125 36.65 39.9
L 38.55 32.95 38.65 32.7 38.65 32.6 38.7 32.5 38.9 31.95 38.95 31.85 38.95 31.75 39.05 31.55 39.5 30.25 39.7 29.85 39.75 29.6 40.05 29 40.2 28.55 41.85 25.25 42.35 24.55 43.25 23.65 43.35 23.45 43.75 22.8
Q 44.75 21.2 45.45 20.35
L 46.75 18.75
Q 47 18.45 48.3 17
L 48.5 16.75 56.1 10.05 56.25 9.95 56.3 9.9 56.4 9.85 64.4 4.6 64.5 4.55 64.6 3.95 67.05 2.7
Q 67.25 2.7 67.35 2.6
L 67.6 2.55 67.9 2.45
Q 68.15 2.45 68.7 2.25
L 70.95 1.2 71.75 0.65 72.9 0.1 77.3 -1.4 77.5 -1.5 80.7 -2.5
M 170.95 75.8
L 169.9 76.15 170.25 76 170.95 75.8
M 166.15 190.8
L 166.85 191.7 167.05 191.9 167.75 192.95
Q 167.65 192.75 167.65 192.55 167.65 192.35 167.9 192.65 167.85 192.75 168.45 193.45
L 168.9 193.9
Q 169.1 194.1 169.1 194.3
L 170.15 195.4 170.6 195.75
Q 170.85 195.85 170.7 195.55
L 171.55 196.8
Q 171.55 196.85 171.2 196.65
L 172.2 197.6 172.5 197.8 171.95 197.2 173.05 198.15 173.2 198.25 173.15 198.25 173.65 198.75 173.75 198.8 173.75 198.85 173.8 198.85 173.85 198.95 174.05 199.1 174.15 199.15 174.2 199.2 174.25 199.2 174.5 199.35 174.3 198.9 174.5 199.1 174.7 199.25 174.75 199.35 174.85 199.45 175.15 199.95 175.1 200.3 175 200.2 174.9 200.15 174.85 200.1 174.55 199.85 174.85 200.15 174.9 200.25 175.2 200.55 175.6 201.1 175.7 201.2 175.9 201.45 176.05 201.55 176.05 201.6 176.15 201.7 176.35 201.95 176.2 201.65 176.4 201.9 176.55 202 176.65 202.2 176.95 202.6 177.55 203.7 177.6 203.85 177.7 204 177.85 204.35 178.7 207.2 178.75 207.3 179 208.85 179.05 209 179.05 209.15 179.3 210.8 179.65 210.2 179.8 211.35
Q 179.7779296875 211.2376953125 179.35 211 178.9896484375 210.759765625 178.95 210.65
L 178.95 210.9 178.9 211.2 178.9 211.6 178.75 212.5 178.75 212.75 178.4 214.5 178.35 214.65 178.35 214.8 177.85 216.65 177.8 216.75 177.8 216.85 177.55 217.55 177.45 217.95 175.15 223.4 174.95 223.75 174.9 223.9 174.85 223.9 174.85 224 174.55 224.5 174.5 224.6 174.5 224.65 174.35 224.9 174.25 225 174.25 225.1 174.2 225.15 172.95 227 172.8 227.15 172.6 227.4 172.25 227.75
Q 171.75 228.1 171.75 227.85 171.75 227.5 171.7 227.5
L 171.45 227.95 171.35 228.3 171.05 228.6
Q 170.9 228.75 170.9 228.55
L 171 228.3 170.6 228.6 170.5 228.7 170.5 228.8 170.6 228.8 170.65 228.75 170.75 228.75 170.95 228.85 171.35 229.1 170.95 229.45 170.7 229.6 170.5 229.8 170.4 229.55 170.05 230.35 169.9 230.55 169.75 230.65 169.65 230.75 169.5 230.85 169.3 230.95
Q 167.8 231.6 166.7 231.9
L 166 232.1 165.65 232.15 165.5 232.2 165.3 232.2 165.1 232.25 164.95 232.25 164.2 232.35 163.85 232.35
Q 163.85 232.25 164.65 231.95
L 164.45 231.95 164.2 232 164 232 163.75 231.95
Q 164 232.05 163.6 232.15
L 163.3 232.2 163.35 232.25 163.05 232.35 163.25 224.6 163.15 224.9
Q 163.05 223.65 163.2 222.95 163.45 221.85 163.5 221.35 163.3609375 221.4333984375 163.2 221.15 163.3583984375 220.112890625 163.5 216.95 163.6392578125 213.516796875 163.8 211.6 163.734375 212.3234375 163.65 212.45 163.5 212.6 163.55 211.05 163.6 210.6 163.9 205.35
L 164.25 200.5 164.1 197.9 164.05 197.85 164.05 197.55 164 197.2
Q 164 195 164.25 190
L 164.35 187.95 164.85 189 165.7 190.3 165.95 190.55
Q 166.05 190.75 166.15 190.8
M 163.2 221.15
Q 163.158203125 221.0810546875 163.1 221 163.1328125 220.8181640625 163.15 220.65
L 163.2 221.15 Z"/>
</g>
</defs>

<g id="walk4">
<g transform="matrix( 0.6996917724609375, 0, 0, 0.6996917724609375, 57.25,20.7) ">
<g id="walk">
<g transform="matrix( 1, 0, 0, 1, 0,0) ">
<use xlink:href="#walk_6_Layer0_0_FILL"/>
</g>
</g>
</g>
</g>
</svg>
